<svg width="43" height="38" viewBox="0 0 43 38" fill="none" xmlns="http://www.w3.org/2000/svg">
<mask id="path-1-inside-1_1_20" fill="white">
<path d="M3 13H2V31H3V13Z"/>
</mask>
<path d="M3 13H2V31H3V13Z" fill="white"/>
<path d="M3 13V12H4V13H3ZM2 13H1V12H2V13ZM2 31V32H1V31H2ZM3 31H4V32H3V31ZM3 14H2V12H3V14ZM3 13V31H1V13H3ZM2 30H3V32H2V30ZM2 31V13H4V31H2Z" fill="#E5E7EB" mask="url(#path-1-inside-1_1_20)"/>
<circle cx="2.5" cy="12.5" r="2.5" fill="#F05252"/>
<circle cx="2.5" cy="31.5" r="1.8" fill="white" stroke="#F05252" stroke-width="1.4"/>
<mask id="path-5-inside-2_1_20" fill="white">
<path d="M16 17H15V35H16V17Z"/>
</mask>
<path d="M16 17H15V35H16V17Z" fill="white"/>
<path d="M16 17V16H17V17H16ZM15 17H14V16H15V17ZM15 35V36H14V35H15ZM16 35H17V36H16V35ZM16 18H15V16H16V18ZM16 17V35H14V17H16ZM15 34H16V36H15V34ZM15 35V17H17V35H15Z" fill="#E5E7EB" mask="url(#path-5-inside-2_1_20)"/>
<circle cx="15.5" cy="16.5" r="2.5" fill="#F05252"/>
<circle cx="15.5" cy="35.5" r="1.8" fill="white" stroke="#F05252" stroke-width="1.4"/>
<mask id="path-9-inside-3_1_20" fill="white">
<path d="M29 3H28V21H29V3Z"/>
</mask>
<path d="M29 3H28V21H29V3Z" fill="white"/>
<path d="M29 3V2H30V3H29ZM28 3H27V2H28V3ZM28 21V22H27V21H28ZM29 21H30V22H29V21ZM29 4H28V2H29V4ZM29 3V21H27V3H29ZM28 20H29V22H28V20ZM28 21V3H30V21H28Z" fill="#E5E7EB" mask="url(#path-9-inside-3_1_20)"/>
<circle cx="28.5" cy="2.5" r="2.5" fill="#F05252"/>
<circle cx="28.5" cy="21.5" r="1.8" fill="white" stroke="#F05252" stroke-width="1.4"/>
<mask id="path-13-inside-4_1_20" fill="white">
<path d="M41 12H40V30H41V12Z"/>
</mask>
<path d="M41 12H40V30H41V12Z" fill="white"/>
<path d="M41 12V11H42V12H41ZM40 12H39V11H40V12ZM40 30V31H39V30H40ZM41 30H42V31H41V30ZM41 13H40V11H41V13ZM41 12V30H39V12H41ZM40 29H41V31H40V29ZM40 30V12H42V30H40Z" fill="#E5E7EB" mask="url(#path-13-inside-4_1_20)"/>
<circle cx="40.5" cy="11.5" r="2.5" fill="#F05252"/>
<circle cx="40.5" cy="30.5" r="1.8" fill="white" stroke="#F05252" stroke-width="1.4"/>
</svg>
