<svg width="36" height="36" viewBox="0 0 36 36" fill="none" xmlns="http://www.w3.org/2000/svg">
<circle cx="18" cy="18" r="17.5" stroke="#1C64F2"/>
<path d="M29 14C29 15.1 28.1 16 27 16C26.82 16 26.65 15.98 26.49 15.93L22.93 19.48C22.98 19.64 23 19.82 23 20C23 21.1 22.1 22 21 22C19.9 22 19 21.1 19 20C19 19.82 19.02 19.64 19.07 19.48L16.52 16.93C16.36 16.98 16.18 17 16 17C15.82 17 15.64 16.98 15.48 16.93L10.93 21.49C10.98 21.65 11 21.82 11 22C11 23.1 10.1 24 9 24C7.9 24 7 23.1 7 22C7 20.9 7.9 20 9 20C9.18 20 9.35 20.02 9.51 20.07L14.07 15.52C14.02 15.36 14 15.18 14 15C14 13.9 14.9 13 16 13C17.1 13 18 13.9 18 15C18 15.18 17.98 15.36 17.93 15.52L20.48 18.07C20.64 18.02 20.82 18 21 18C21.18 18 21.36 18.02 21.52 18.07L25.07 14.51C25.02 14.35 25 14.18 25 14C25 12.9 25.9 12 27 12C28.1 12 29 12.9 29 14ZM29 14C29 15.1 28.1 16 27 16C26.82 16 26.65 15.98 26.49 15.93L22.93 19.48C22.98 19.64 23 19.82 23 20C23 21.1 22.1 22 21 22C19.9 22 19 21.1 19 20C19 19.82 19.02 19.64 19.07 19.48L16.52 16.93C16.36 16.98 16.18 17 16 17C15.82 17 15.64 16.98 15.48 16.93L10.93 21.49C10.98 21.65 11 21.82 11 22C11 23.1 10.1 24 9 24C7.9 24 7 23.1 7 22C7 20.9 7.9 20 9 20C9.18 20 9.35 20.02 9.51 20.07L14.07 15.52C14.02 15.36 14 15.18 14 15C14 13.9 14.9 13 16 13C17.1 13 18 13.9 18 15C18 15.18 17.98 15.36 17.93 15.52L20.48 18.07C20.64 18.02 20.82 18 21 18C21.18 18 21.36 18.02 21.52 18.07L25.07 14.51C25.02 14.35 25 14.18 25 14C25 12.9 25.9 12 27 12C28.1 12 29 12.9 29 14Z" fill="#1C64F2"/>
</svg>
