<svg width="20" height="20" viewBox="0 0 20 20" fill="none" xmlns="http://www.w3.org/2000/svg">
<path fill-rule="evenodd" clip-rule="evenodd" d="M2.24844 1.88317C1.01962 2.91579 0.00787598 3.77961 0.000142044 3.80281C-0.0149065 3.84796 1.17062 5.27706 1.24386 5.30208C1.2803 5.31452 5.36596 1.93297 5.71338 1.60279L5.82589 1.49587L5.20718 0.759184C4.86693 0.353991 4.5647 0.0187298 4.53558 0.0141174C4.50651 0.00950495 3.47729 0.850547 2.24844 1.88317ZM14.6393 0.722145C14.3062 1.11891 14.0274 1.46227 14.0198 1.4852C14.0121 1.50807 14.9661 2.33295 16.1396 3.31819C17.3132 4.30347 18.3393 5.16529 18.4199 5.23336L18.5664 5.35715L19.1833 4.62788C19.5227 4.22678 19.8026 3.87135 19.8055 3.83808C19.8106 3.78008 15.3513 -0.00163012 15.2797 5.27192e-07C15.2606 0.000419837 14.9724 0.325385 14.6393 0.722145ZM8.95534 2.15055C6.72494 2.37534 4.53936 3.54033 3.07107 5.28717C1.44345 7.22354 0.70831 9.72929 1.03556 12.2255C1.50439 15.8022 4.06973 18.7339 7.58094 19.7056C8.67422 20.0082 10.1738 20.0861 11.3081 19.8993C14.2028 19.4227 16.6148 17.6514 17.9294 15.0369C19.1629 12.5835 19.1666 9.5591 17.939 7.10534C16.2367 3.70274 12.7323 1.76995 8.95534 2.15055ZM10.5694 4.14744C14.2714 4.51825 17.01 7.67221 16.838 11.3672C16.69 14.5497 14.4905 17.148 11.3492 17.8514C10.9287 17.9455 10.7408 17.9596 9.91044 17.9594C8.84604 17.9591 8.546 17.9141 7.67412 17.6244C5.92797 17.0441 4.4513 15.7328 3.64464 14.0461C2.54652 11.7501 2.81809 8.9436 4.33455 6.91554C5.7917 4.96677 8.17692 3.90783 10.5694 4.14744ZM8.91765 6.08582C8.89995 6.10352 8.88546 7.45114 8.88546 9.08043V12.0429L11.2343 13.4521C12.5261 14.2272 13.6012 14.8614 13.6231 14.8614C13.6451 14.8614 13.826 14.5957 14.0249 14.2708C14.3143 13.7986 14.3746 13.6694 14.3267 13.626C14.2936 13.5961 13.4019 13.0608 12.3451 12.4363L10.4237 11.301L10.4117 8.6901L10.3996 6.0792L9.67474 6.06644C9.27607 6.0594 8.93536 6.06811 8.91765 6.08582Z" fill="#52525B"/>
</svg>
