<svg width="426" height="211" viewBox="0 0 426 211" fill="none" xmlns="http://www.w3.org/2000/svg">
<g filter="url(#filter0_dd_1_12)">
<rect x="3" y="2" width="420" height="205" rx="16" fill="white"/>
</g>
<path d="M65.6399 42H63.3331L66.848 31.8182H69.6222L73.1321 42H70.8253L68.2749 34.1449H68.1953L65.6399 42ZM65.4957 37.9979H70.9446V39.6783H65.4957V37.9979ZM76.4357 31.8182V42H74.3178V31.8182H76.4357ZM81.6124 42.1491C80.8269 42.1491 80.1507 41.9901 79.584 41.6719C79.0205 41.3504 78.5864 40.8963 78.2814 40.3097C77.9765 39.7197 77.824 39.022 77.824 38.2166C77.824 37.4311 77.9765 36.7417 78.2814 36.1484C78.5864 35.5552 79.0156 35.0928 79.5691 34.7614C80.1259 34.4299 80.7788 34.2642 81.5279 34.2642C82.0317 34.2642 82.5007 34.3454 82.9348 34.5078C83.3723 34.6669 83.7535 34.9072 84.0783 35.2287C84.4064 35.5502 84.6616 35.9545 84.8439 36.4418C85.0262 36.9257 85.1174 37.4924 85.1174 38.142V38.7237H78.6692V37.4112H83.1238C83.1238 37.1063 83.0575 36.8362 82.9249 36.6009C82.7923 36.3655 82.6084 36.1816 82.373 36.049C82.141 35.9131 81.8709 35.8452 81.5627 35.8452C81.2412 35.8452 80.9561 35.9197 80.7076 36.0689C80.4623 36.2147 80.2701 36.4119 80.1309 36.6605C79.9917 36.9058 79.9204 37.1792 79.9171 37.4808V38.7287C79.9171 39.1065 79.9867 39.433 80.1259 39.7081C80.2684 39.9832 80.4689 40.1953 80.7275 40.3445C80.986 40.4936 81.2926 40.5682 81.6472 40.5682C81.8825 40.5682 82.098 40.535 82.2935 40.4688C82.4891 40.4025 82.6564 40.303 82.7956 40.1705C82.9348 40.0379 83.0409 39.8755 83.1138 39.6832L85.0726 39.8125C84.9732 40.2831 84.7694 40.6941 84.4611 41.0455C84.1562 41.3935 83.7618 41.6652 83.2779 41.8608C82.7973 42.053 82.2421 42.1491 81.6124 42.1491ZM86.4995 42V34.3636H88.5527V35.696H88.6323C88.7715 35.2221 89.0051 34.8641 89.3333 34.6222C89.6614 34.3769 90.0392 34.2543 90.4668 34.2543C90.5729 34.2543 90.6872 34.2609 90.8098 34.2741C90.9325 34.2874 91.0402 34.3056 91.133 34.3288V36.2081C91.0336 36.1783 90.896 36.1518 90.7203 36.1286C90.5447 36.1054 90.3839 36.0938 90.2381 36.0938C89.9266 36.0938 89.6481 36.1617 89.4029 36.2976C89.1609 36.4302 88.9687 36.6158 88.8262 36.8544C88.687 37.093 88.6174 37.3681 88.6174 37.6797V42H86.4995ZM96.6726 34.3636V35.9545H92.0739V34.3636H96.6726ZM93.1179 32.5341H95.2358V39.6534C95.2358 39.849 95.2656 40.0014 95.3253 40.1108C95.3849 40.2169 95.4678 40.2914 95.5739 40.3345C95.6832 40.3776 95.8092 40.3991 95.9517 40.3991C96.0511 40.3991 96.1506 40.3909 96.25 40.3743C96.3494 40.3544 96.4257 40.3395 96.4787 40.3295L96.8118 41.9055C96.7057 41.9387 96.5566 41.9768 96.3643 42.0199C96.1721 42.0663 95.9384 42.0945 95.6634 42.1044C95.1529 42.1243 94.7055 42.0563 94.321 41.9006C93.9399 41.7448 93.6432 41.5028 93.4311 41.1747C93.219 40.8466 93.1146 40.4323 93.1179 39.9318V32.5341ZM104.31 36.5412L102.371 36.6605C102.338 36.4948 102.267 36.3456 102.157 36.2131C102.048 36.0772 101.904 35.9695 101.725 35.8899C101.549 35.8071 101.339 35.7656 101.094 35.7656C100.765 35.7656 100.489 35.8352 100.263 35.9744C100.038 36.1103 99.9252 36.2926 99.9252 36.5213C99.9252 36.7036 99.9982 36.8577 100.144 36.9837C100.29 37.1096 100.54 37.2107 100.895 37.2869L102.277 37.5653C103.019 37.7178 103.573 37.9631 103.937 38.3011C104.302 38.6392 104.484 39.0833 104.484 39.6335C104.484 40.134 104.337 40.5732 104.042 40.951C103.75 41.3288 103.349 41.6238 102.839 41.8359C102.331 42.0447 101.747 42.1491 101.084 42.1491C100.073 42.1491 99.2673 41.9387 98.6674 41.5178C98.0708 41.0935 97.7212 40.5168 97.6184 39.7876L99.7015 39.6783C99.7645 39.9865 99.917 40.2218 100.159 40.3842C100.401 40.5433 100.711 40.6229 101.089 40.6229C101.46 40.6229 101.758 40.5516 101.983 40.4091C102.212 40.2633 102.328 40.076 102.331 39.8473C102.328 39.6551 102.247 39.4976 102.088 39.375C101.929 39.2491 101.684 39.1529 101.352 39.0866L100.03 38.8232C99.2839 38.674 98.7288 38.4155 98.3642 38.0476C98.0029 37.6797 97.8223 37.2107 97.8223 36.6406C97.8223 36.1501 97.9548 35.7275 98.22 35.3729C98.4885 35.0182 98.8646 34.7448 99.3485 34.5526C99.8358 34.3603 100.406 34.2642 101.059 34.2642C102.023 34.2642 102.782 34.468 103.336 34.8757C103.893 35.2834 104.217 35.8385 104.31 36.5412ZM113.12 34.3636V35.9545H108.521V34.3636H113.12ZM109.565 32.5341H111.683V39.6534C111.683 39.849 111.713 40.0014 111.773 40.1108C111.832 40.2169 111.915 40.2914 112.021 40.3345C112.131 40.3776 112.256 40.3991 112.399 40.3991C112.498 40.3991 112.598 40.3909 112.697 40.3743C112.797 40.3544 112.873 40.3395 112.926 40.3295L113.259 41.9055C113.153 41.9387 113.004 41.9768 112.812 42.0199C112.619 42.0663 112.386 42.0945 112.111 42.1044C111.6 42.1243 111.153 42.0563 110.768 41.9006C110.387 41.7448 110.09 41.5028 109.878 41.1747C109.666 40.8466 109.562 40.4323 109.565 39.9318V32.5341ZM117.868 42.1491C117.095 42.1491 116.428 41.9851 115.864 41.657C115.304 41.3255 114.872 40.8648 114.567 40.2749C114.262 39.6816 114.109 38.9938 114.109 38.2116C114.109 37.4228 114.262 36.7334 114.567 36.1435C114.872 35.5502 115.304 35.0895 115.864 34.7614C116.428 34.4299 117.095 34.2642 117.868 34.2642C118.64 34.2642 119.306 34.4299 119.866 34.7614C120.43 35.0895 120.864 35.5502 121.169 36.1435C121.474 36.7334 121.626 37.4228 121.626 38.2116C121.626 38.9938 121.474 39.6816 121.169 40.2749C120.864 40.8648 120.43 41.3255 119.866 41.657C119.306 41.9851 118.64 42.1491 117.868 42.1491ZM117.878 40.5085C118.229 40.5085 118.522 40.4091 118.758 40.2102C118.993 40.008 119.17 39.733 119.29 39.3849C119.412 39.0369 119.474 38.6409 119.474 38.1967C119.474 37.7526 119.412 37.3565 119.29 37.0085C119.17 36.6605 118.993 36.3854 118.758 36.1832C118.522 35.9811 118.229 35.88 117.878 35.88C117.523 35.88 117.225 35.9811 116.983 36.1832C116.744 36.3854 116.564 36.6605 116.441 37.0085C116.322 37.3565 116.262 37.7526 116.262 38.1967C116.262 38.6409 116.322 39.0369 116.441 39.3849C116.564 39.733 116.744 40.008 116.983 40.2102C117.225 40.4091 117.523 40.5085 117.878 40.5085ZM126.244 42V34.3636H128.297V35.696H128.376C128.516 35.2221 128.749 34.8641 129.077 34.6222C129.406 34.3769 129.783 34.2543 130.211 34.2543C130.317 34.2543 130.431 34.2609 130.554 34.2741C130.677 34.2874 130.784 34.3056 130.877 34.3288V36.2081C130.778 36.1783 130.64 36.1518 130.464 36.1286C130.289 36.1054 130.128 36.0938 129.982 36.0938C129.671 36.0938 129.392 36.1617 129.147 36.2976C128.905 36.4302 128.713 36.6158 128.57 36.8544C128.431 37.093 128.362 37.3681 128.362 37.6797V42H126.244ZM135.097 42.1491C134.311 42.1491 133.635 41.9901 133.068 41.6719C132.505 41.3504 132.071 40.8963 131.766 40.3097C131.461 39.7197 131.308 39.022 131.308 38.2166C131.308 37.4311 131.461 36.7417 131.766 36.1484C132.071 35.5552 132.5 35.0928 133.053 34.7614C133.61 34.4299 134.263 34.2642 135.012 34.2642C135.516 34.2642 135.985 34.3454 136.419 34.5078C136.857 34.6669 137.238 34.9072 137.563 35.2287C137.891 35.5502 138.146 35.9545 138.328 36.4418C138.511 36.9257 138.602 37.4924 138.602 38.142V38.7237H132.154V37.4112H136.608C136.608 37.1063 136.542 36.8362 136.409 36.6009C136.277 36.3655 136.093 36.1816 135.857 36.049C135.625 35.9131 135.355 35.8452 135.047 35.8452C134.726 35.8452 134.441 35.9197 134.192 36.0689C133.947 36.2147 133.754 36.4119 133.615 36.6605C133.476 36.9058 133.405 37.1792 133.401 37.4808V38.7287C133.401 39.1065 133.471 39.433 133.61 39.7081C133.753 39.9832 133.953 40.1953 134.212 40.3445C134.47 40.4936 134.777 40.5682 135.132 40.5682C135.367 40.5682 135.582 40.535 135.778 40.4688C135.973 40.4025 136.141 40.303 136.28 40.1705C136.419 40.0379 136.525 39.8755 136.598 39.6832L138.557 39.8125C138.458 40.2831 138.254 40.6941 137.945 41.0455C137.641 41.3935 137.246 41.6652 136.762 41.8608C136.282 42.053 135.727 42.1491 135.097 42.1491ZM146.898 34.3636L144.228 42H141.842L139.172 34.3636H141.409L142.995 39.8274H143.075L144.656 34.3636H146.898ZM147.982 42V34.3636H150.1V42H147.982ZM149.046 33.3793C148.731 33.3793 148.461 33.2749 148.235 33.0661C148.013 32.8539 147.902 32.6004 147.902 32.3054C147.902 32.0137 148.013 31.7635 148.235 31.5547C148.461 31.3426 148.731 31.2365 149.046 31.2365C149.361 31.2365 149.629 31.3426 149.851 31.5547C150.077 31.7635 150.189 32.0137 150.189 32.3054C150.189 32.6004 150.077 32.8539 149.851 33.0661C149.629 33.2749 149.361 33.3793 149.046 33.3793ZM155.276 42.1491C154.491 42.1491 153.815 41.9901 153.248 41.6719C152.685 41.3504 152.25 40.8963 151.945 40.3097C151.641 39.7197 151.488 39.022 151.488 38.2166C151.488 37.4311 151.641 36.7417 151.945 36.1484C152.25 35.5552 152.68 35.0928 153.233 34.7614C153.79 34.4299 154.443 34.2642 155.192 34.2642C155.696 34.2642 156.165 34.3454 156.599 34.5078C157.036 34.6669 157.418 34.9072 157.742 35.2287C158.07 35.5502 158.326 35.9545 158.508 36.4418C158.69 36.9257 158.781 37.4924 158.781 38.142V38.7237H152.333V37.4112H156.788C156.788 37.1063 156.722 36.8362 156.589 36.6009C156.456 36.3655 156.272 36.1816 156.037 36.049C155.805 35.9131 155.535 35.8452 155.227 35.8452C154.905 35.8452 154.62 35.9197 154.372 36.0689C154.126 36.2147 153.934 36.4119 153.795 36.6605C153.656 36.9058 153.584 37.1792 153.581 37.4808V38.7287C153.581 39.1065 153.651 39.433 153.79 39.7081C153.932 39.9832 154.133 40.1953 154.392 40.3445C154.65 40.4936 154.957 40.5682 155.311 40.5682C155.547 40.5682 155.762 40.535 155.958 40.4688C156.153 40.4025 156.32 40.303 156.46 40.1705C156.599 40.0379 156.705 39.8755 156.778 39.6832L158.737 39.8125C158.637 40.2831 158.433 40.6941 158.125 41.0455C157.82 41.3935 157.426 41.6652 156.942 41.8608C156.461 42.053 155.906 42.1491 155.276 42.1491ZM161.615 42L159.537 34.3636H161.68L162.863 39.4943H162.933L164.166 34.3636H166.269L167.521 39.4645H167.586L168.749 34.3636H170.887L168.814 42H166.572L165.259 37.1974H165.165L163.852 42H161.615Z" fill="black"/>
<path d="M188 34.6667V38M188 41.3333H188.008M195.5 38C195.5 38.9849 195.306 39.9602 194.929 40.8701C194.552 41.7801 194 42.6069 193.303 43.3033C192.607 43.9997 191.78 44.5522 190.87 44.9291C189.96 45.306 188.985 45.5 188 45.5C187.015 45.5 186.04 45.306 185.13 44.9291C184.22 44.5522 183.393 43.9997 182.697 43.3033C182 42.6069 181.448 41.7801 181.071 40.8701C180.694 39.9602 180.5 38.9849 180.5 38C180.5 36.0109 181.29 34.1032 182.697 32.6967C184.103 31.2902 186.011 30.5 188 30.5C189.989 30.5 191.897 31.2902 193.303 32.6967C194.71 34.1032 195.5 36.0109 195.5 38Z" stroke="#52525B" stroke-width="1.6" stroke-linecap="round" stroke-linejoin="round"/>
<path d="M39 34V38M39 42H39.01M48 38C48 39.1819 47.7672 40.3522 47.3149 41.4442C46.8626 42.5361 46.1997 43.5282 45.364 44.364C44.5282 45.1997 43.5361 45.8626 42.4442 46.3149C41.3522 46.7672 40.1819 47 39 47C37.8181 47 36.6478 46.7672 35.5558 46.3149C34.4639 45.8626 33.4718 45.1997 32.636 44.364C31.8003 43.5282 31.1374 42.5361 30.6851 41.4442C30.2328 40.3522 30 39.1819 30 38C30 35.6131 30.9482 33.3239 32.636 31.636C34.3239 29.9482 36.6131 29 39 29C41.3869 29 43.6761 29.9482 45.364 31.636C47.0518 33.3239 48 35.6131 48 38Z" stroke="#52525B" stroke-width="2" stroke-linecap="round" stroke-linejoin="round"/>
<path d="M66.9077 60.1193C66.294 60.1193 65.7486 60.0142 65.2713 59.804C64.7969 59.5937 64.4219 59.3011 64.1463 58.9261C63.8707 58.5511 63.7244 58.1179 63.7074 57.6264H65.3097C65.3239 57.8622 65.402 58.0682 65.544 58.2443C65.6861 58.4176 65.875 58.5526 66.1108 58.6491C66.3466 58.7457 66.6108 58.794 66.9034 58.794C67.2159 58.794 67.4929 58.7401 67.7344 58.6321C67.9759 58.5213 68.1648 58.3679 68.3011 58.1719C68.4375 57.9759 68.5043 57.75 68.5014 57.4943C68.5043 57.2301 68.4361 56.9972 68.2969 56.7955C68.1577 56.5937 67.956 56.4361 67.6918 56.3224C67.4304 56.2088 67.1151 56.152 66.7457 56.152H65.9744V54.9332H66.7457C67.0497 54.9332 67.3153 54.8807 67.5426 54.7756C67.7727 54.6705 67.9531 54.5227 68.0838 54.3324C68.2145 54.1392 68.2784 53.9162 68.2756 53.6634C68.2784 53.4162 68.223 53.2017 68.1094 53.0199C67.9986 52.8352 67.8409 52.6918 67.6364 52.5895C67.4347 52.4872 67.1974 52.4361 66.9247 52.4361C66.6577 52.4361 66.4105 52.4844 66.1832 52.581C65.956 52.6776 65.7727 52.8153 65.6335 52.9943C65.4943 53.1705 65.4205 53.3807 65.4119 53.625H63.8906C63.902 53.1364 64.0426 52.7074 64.3125 52.3381C64.5852 51.9659 64.9489 51.6761 65.4034 51.4688C65.858 51.2585 66.3679 51.1534 66.9332 51.1534C67.5156 51.1534 68.0213 51.2628 68.4503 51.4815C68.8821 51.6974 69.2159 51.9886 69.4517 52.3551C69.6875 52.7216 69.8054 53.1264 69.8054 53.5696C69.8082 54.0611 69.6634 54.473 69.3707 54.8054C69.081 55.1378 68.7003 55.3551 68.2287 55.4574V55.5256C68.8423 55.6108 69.3125 55.8381 69.6392 56.2074C69.9688 56.5739 70.1321 57.0298 70.1293 57.5753C70.1293 58.0639 69.9901 58.5014 69.7116 58.8878C69.4361 59.2713 69.0554 59.5724 68.5696 59.7912C68.0866 60.0099 67.5327 60.1193 66.9077 60.1193ZM74.6538 60V51.2727H77.9265C78.5969 51.2727 79.1594 51.3892 79.614 51.6222C80.0714 51.8551 80.4165 52.1818 80.6495 52.6023C80.8853 53.0199 81.0032 53.5071 81.0032 54.0639C81.0032 54.6236 80.8839 55.1094 80.6452 55.5213C80.4094 55.9304 80.0614 56.2472 79.6012 56.4716C79.141 56.6932 78.5756 56.804 77.9052 56.804H75.5742V55.4915H77.6921C78.0842 55.4915 78.4052 55.4375 78.6552 55.3295C78.9052 55.2187 79.0898 55.0582 79.2092 54.848C79.3313 54.6349 79.3924 54.3736 79.3924 54.0639C79.3924 53.7543 79.3313 53.4901 79.2092 53.2713C79.087 53.0497 78.9009 52.8821 78.6509 52.7685C78.4009 52.652 78.0785 52.5938 77.6836 52.5938H76.2347V60H74.6538ZM79.1623 56.0455L81.3228 60H79.5586L77.4364 56.0455H79.1623ZM85.1942 60.1278C84.538 60.1278 83.9712 59.9915 83.494 59.7188C83.0195 59.4432 82.6545 59.054 82.3988 58.5511C82.1431 58.0455 82.0153 57.4503 82.0153 56.7656C82.0153 56.0923 82.1431 55.5014 82.3988 54.9929C82.6573 54.4815 83.0181 54.0838 83.4812 53.7997C83.9442 53.5128 84.4883 53.3693 85.1133 53.3693C85.5167 53.3693 85.8974 53.4347 86.2553 53.5653C86.6161 53.6932 86.9343 53.892 87.2099 54.1619C87.4883 54.4318 87.707 54.7756 87.8661 55.1932C88.0252 55.608 88.1048 56.1023 88.1048 56.6761V57.1491H82.7397V56.1094H86.6261C86.6232 55.8139 86.5593 55.5511 86.4343 55.321C86.3093 55.0881 86.1346 54.9048 85.9102 54.7713C85.6886 54.6378 85.43 54.571 85.1346 54.571C84.8192 54.571 84.5423 54.6477 84.3036 54.8011C84.065 54.9517 83.8789 55.1506 83.7454 55.3977C83.6147 55.642 83.5479 55.9105 83.5451 56.2031V57.1108C83.5451 57.4915 83.6147 57.8182 83.7539 58.0909C83.8931 58.3608 84.0877 58.5682 84.3377 58.7131C84.5877 58.8551 84.8803 58.9261 85.2156 58.9261C85.44 58.9261 85.6431 58.8949 85.8249 58.8324C86.0067 58.767 86.1644 58.6719 86.2979 58.5469C86.4315 58.4219 86.5323 58.267 86.6005 58.0824L88.0408 58.2443C87.9499 58.625 87.7766 58.9574 87.521 59.2415C87.2681 59.5227 86.9442 59.7415 86.5494 59.8977C86.1545 60.0511 85.7028 60.1278 85.1942 60.1278ZM91.8388 60.1151C91.3246 60.1151 90.8643 59.983 90.4581 59.7188C90.0518 59.4545 89.7308 59.071 89.495 58.5682C89.2592 58.0653 89.1413 57.4545 89.1413 56.7358C89.1413 56.0085 89.2607 55.3949 89.4993 54.8949C89.7408 54.392 90.0661 54.0128 90.4751 53.7571C90.8842 53.4986 91.3402 53.3693 91.843 53.3693C92.2266 53.3693 92.5419 53.4347 92.7891 53.5653C93.0362 53.6932 93.2322 53.848 93.3771 54.0298C93.522 54.2088 93.6342 54.3778 93.7138 54.5369H93.7777V51.2727H95.3246V60H93.8075V58.9688H93.7138C93.6342 59.1278 93.5192 59.2969 93.3686 59.4759C93.218 59.652 93.0192 59.8026 92.772 59.9276C92.5249 60.0526 92.2138 60.1151 91.8388 60.1151ZM92.2692 58.8494C92.5959 58.8494 92.8743 58.7614 93.1044 58.5852C93.3345 58.4062 93.5092 58.1577 93.6286 57.8395C93.7479 57.5213 93.8075 57.1506 93.8075 56.7273C93.8075 56.304 93.7479 55.9361 93.6286 55.6236C93.5121 55.3111 93.3388 55.0682 93.1087 54.8949C92.8814 54.7216 92.6016 54.6349 92.2692 54.6349C91.9254 54.6349 91.6385 54.7244 91.4084 54.9034C91.1783 55.0824 91.005 55.3295 90.8885 55.6449C90.772 55.9602 90.7138 56.321 90.7138 56.7273C90.7138 57.1364 90.772 57.5014 90.8885 57.8224C91.0078 58.1406 91.1825 58.392 91.4126 58.5767C91.6456 58.7585 91.9311 58.8494 92.2692 58.8494ZM102.142 55.1847L100.735 55.3381C100.696 55.196 100.626 55.0625 100.527 54.9375C100.43 54.8125 100.299 54.7116 100.135 54.6349C99.9698 54.5582 99.7681 54.5199 99.5295 54.5199C99.2085 54.5199 98.9386 54.5895 98.7198 54.7287C98.5039 54.8679 98.3974 55.0483 98.4002 55.2699C98.3974 55.4602 98.467 55.6151 98.609 55.7344C98.7539 55.8537 98.9925 55.9517 99.3249 56.0284L100.441 56.267C101.061 56.4006 101.521 56.6122 101.822 56.902C102.126 57.1918 102.279 57.571 102.282 58.0398C102.279 58.4517 102.159 58.8153 101.92 59.1307C101.684 59.4432 101.356 59.6875 100.936 59.8636C100.515 60.0398 100.032 60.1278 99.4869 60.1278C98.6857 60.1278 98.0408 59.9602 97.5522 59.625C97.0636 59.2869 96.7724 58.8168 96.6786 58.2145L98.1829 58.0696C98.2511 58.3651 98.396 58.5881 98.6175 58.7386C98.8391 58.8892 99.1275 58.9645 99.4826 58.9645C99.8491 58.9645 100.143 58.8892 100.365 58.7386C100.589 58.5881 100.701 58.402 100.701 58.1804C100.701 57.9929 100.629 57.8381 100.484 57.7159C100.342 57.5937 100.12 57.5 99.8192 57.4347L98.7028 57.2003C98.0749 57.0696 97.6104 56.8494 97.3093 56.5398C97.0082 56.2273 96.859 55.8324 96.8619 55.3551C96.859 54.9517 96.9684 54.6023 97.19 54.3068C97.4144 54.0085 97.7255 53.7784 98.1232 53.6165C98.5238 53.4517 98.9854 53.3693 99.5082 53.3693C100.275 53.3693 100.879 53.5327 101.319 53.8594C101.762 54.1861 102.037 54.6278 102.142 55.1847ZM110.498 55.0014V56.2713H106.569V55.0014H110.498ZM118.212 60.1193C117.599 60.1193 117.053 60.0142 116.576 59.804C116.102 59.5937 115.727 59.3011 115.451 58.9261C115.175 58.5511 115.029 58.1179 115.012 57.6264H116.614C116.629 57.8622 116.707 58.0682 116.849 58.2443C116.991 58.4176 117.18 58.5526 117.415 58.6491C117.651 58.7457 117.915 58.794 118.208 58.794C118.521 58.794 118.798 58.7401 119.039 58.6321C119.281 58.5213 119.469 58.3679 119.606 58.1719C119.742 57.9759 119.809 57.75 119.806 57.4943C119.809 57.2301 119.741 56.9972 119.602 56.7955C119.462 56.5937 119.261 56.4361 118.996 56.3224C118.735 56.2088 118.42 56.152 118.05 56.152H117.279V54.9332H118.05C118.354 54.9332 118.62 54.8807 118.847 54.7756C119.077 54.6705 119.258 54.5227 119.388 54.3324C119.519 54.1392 119.583 53.9162 119.58 53.6634C119.583 53.4162 119.528 53.2017 119.414 53.0199C119.303 52.8352 119.146 52.6918 118.941 52.5895C118.739 52.4872 118.502 52.4361 118.229 52.4361C117.962 52.4361 117.715 52.4844 117.488 52.581C117.261 52.6776 117.077 52.8153 116.938 52.9943C116.799 53.1705 116.725 53.3807 116.717 53.625H115.195C115.207 53.1364 115.347 52.7074 115.617 52.3381C115.89 51.9659 116.254 51.6761 116.708 51.4688C117.163 51.2585 117.673 51.1534 118.238 51.1534C118.82 51.1534 119.326 51.2628 119.755 51.4815C120.187 51.6974 120.521 51.9886 120.756 52.3551C120.992 52.7216 121.11 53.1264 121.11 53.5696C121.113 54.0611 120.968 54.473 120.675 54.8054C120.386 55.1378 120.005 55.3551 119.533 55.4574V55.5256C120.147 55.6108 120.617 55.8381 120.944 56.2074C121.273 56.5739 121.437 57.0298 121.434 57.5753C121.434 58.0639 121.295 58.5014 121.016 58.8878C120.741 59.2713 120.36 59.5724 119.874 59.7912C119.391 60.0099 118.837 60.1193 118.212 60.1193ZM125.362 51.2727H127.147L129.282 55.1335H129.368L131.502 51.2727H133.288L130.113 56.7443V60H128.537V56.7443L125.362 51.2727ZM136.018 60.1278C135.362 60.1278 134.795 59.9915 134.318 59.7188C133.844 59.4432 133.479 59.054 133.223 58.5511C132.967 58.0455 132.839 57.4503 132.839 56.7656C132.839 56.0923 132.967 55.5014 133.223 54.9929C133.482 54.4815 133.842 54.0838 134.305 53.7997C134.768 53.5128 135.312 53.3693 135.938 53.3693C136.341 53.3693 136.722 53.4347 137.08 53.5653C137.44 53.6932 137.759 53.892 138.034 54.1619C138.313 54.4318 138.531 54.7756 138.69 55.1932C138.849 55.608 138.929 56.1023 138.929 56.6761V57.1491H133.564V56.1094H137.45C137.447 55.8139 137.384 55.5511 137.259 55.321C137.134 55.0881 136.959 54.9048 136.734 54.7713C136.513 54.6378 136.254 54.571 135.959 54.571C135.643 54.571 135.366 54.6477 135.128 54.8011C134.889 54.9517 134.703 55.1506 134.57 55.3977C134.439 55.642 134.372 55.9105 134.369 56.2031V57.1108C134.369 57.4915 134.439 57.8182 134.578 58.0909C134.717 58.3608 134.912 58.5682 135.162 58.7131C135.412 58.8551 135.705 58.9261 136.04 58.9261C136.264 58.9261 136.467 58.8949 136.649 58.8324C136.831 58.767 136.989 58.6719 137.122 58.5469C137.256 58.4219 137.357 58.267 137.425 58.0824L138.865 58.2443C138.774 58.625 138.601 58.9574 138.345 59.2415C138.092 59.5227 137.768 59.7415 137.374 59.8977C136.979 60.0511 136.527 60.1278 136.018 60.1278ZM141.777 51.2727V60H140.234V51.2727H141.777ZM144.906 51.2727V60H143.363V51.2727H144.906ZM149.347 60.1278C148.708 60.1278 148.154 59.9872 147.685 59.706C147.216 59.4247 146.853 59.0312 146.594 58.5256C146.338 58.0199 146.211 57.429 146.211 56.7528C146.211 56.0767 146.338 55.4844 146.594 54.9759C146.853 54.4673 147.216 54.0724 147.685 53.7912C148.154 53.5099 148.708 53.3693 149.347 53.3693C149.986 53.3693 150.54 53.5099 151.009 53.7912C151.478 54.0724 151.84 54.4673 152.096 54.9759C152.354 55.4844 152.483 56.0767 152.483 56.7528C152.483 57.429 152.354 58.0199 152.096 58.5256C151.84 59.0312 151.478 59.4247 151.009 59.706C150.54 59.9872 149.986 60.1278 149.347 60.1278ZM149.355 58.892C149.702 58.892 149.992 58.7969 150.225 58.6065C150.458 58.4134 150.631 58.1548 150.745 57.831C150.861 57.5071 150.919 57.1463 150.919 56.7486C150.919 56.348 150.861 55.9858 150.745 55.6619C150.631 55.3352 150.458 55.0753 150.225 54.8821C149.992 54.6889 149.702 54.5923 149.355 54.5923C149 54.5923 148.705 54.6889 148.469 54.8821C148.236 55.0753 148.061 55.3352 147.945 55.6619C147.831 55.9858 147.775 56.348 147.775 56.7486C147.775 57.1463 147.831 57.5071 147.945 57.831C148.061 58.1548 148.236 58.4134 148.469 58.6065C148.705 58.7969 149 58.892 149.355 58.892ZM154.956 60L153.107 53.4545H154.679L155.83 58.0568H155.889L157.065 53.4545H158.621L159.797 58.0312H159.861L160.994 53.4545H162.571L160.717 60H159.111L157.884 55.5767H157.794L156.567 60H154.956ZM168.821 55.1847L167.415 55.3381C167.375 55.196 167.306 55.0625 167.206 54.9375C167.11 54.8125 166.979 54.7116 166.814 54.6349C166.65 54.5582 166.448 54.5199 166.209 54.5199C165.888 54.5199 165.618 54.5895 165.4 54.7287C165.184 54.8679 165.077 55.0483 165.08 55.2699C165.077 55.4602 165.147 55.6151 165.289 55.7344C165.434 55.8537 165.672 55.9517 166.005 56.0284L167.121 56.267C167.74 56.4006 168.201 56.6122 168.502 56.902C168.806 57.1918 168.959 57.571 168.962 58.0398C168.959 58.4517 168.838 58.8153 168.6 59.1307C168.364 59.4432 168.036 59.6875 167.615 59.8636C167.195 60.0398 166.712 60.1278 166.167 60.1278C165.365 60.1278 164.721 59.9602 164.232 59.625C163.743 59.2869 163.452 58.8168 163.358 58.2145L164.863 58.0696C164.931 58.3651 165.076 58.5881 165.297 58.7386C165.519 58.8892 165.807 58.9645 166.162 58.9645C166.529 58.9645 166.823 58.8892 167.044 58.7386C167.269 58.5881 167.381 58.402 167.381 58.1804C167.381 57.9929 167.309 57.8381 167.164 57.7159C167.022 57.5937 166.8 57.5 166.499 57.4347L165.382 57.2003C164.755 57.0696 164.29 56.8494 163.989 56.5398C163.688 56.2273 163.539 55.8324 163.542 55.3551C163.539 54.9517 163.648 54.6023 163.87 54.3068C164.094 54.0085 164.405 53.7784 164.803 53.6165C165.203 53.4517 165.665 53.3693 166.188 53.3693C166.955 53.3693 167.559 53.5327 167.999 53.8594C168.442 54.1861 168.716 54.6278 168.821 55.1847Z" fill="#71717A"/>
<path d="M72.4013 149.818V160H70.5419L66.1122 153.592H66.0376V160H63.8849V149.818H65.7741L70.169 156.222H70.2585V149.818H72.4013ZM77.5904 160.149C76.8181 160.149 76.1503 159.985 75.5868 159.657C75.0267 159.326 74.5942 158.865 74.2892 158.275C73.9843 157.682 73.8319 156.994 73.8319 156.212C73.8319 155.423 73.9843 154.733 74.2892 154.143C74.5942 153.55 75.0267 153.089 75.5868 152.761C76.1503 152.43 76.8181 152.264 77.5904 152.264C78.3626 152.264 79.0288 152.43 79.589 152.761C80.1524 153.089 80.5866 153.55 80.8915 154.143C81.1964 154.733 81.3489 155.423 81.3489 156.212C81.3489 156.994 81.1964 157.682 80.8915 158.275C80.5866 158.865 80.1524 159.326 79.589 159.657C79.0288 159.985 78.3626 160.149 77.5904 160.149ZM77.6003 158.509C77.9516 158.509 78.245 158.409 78.4803 158.21C78.7156 158.008 78.8929 157.733 79.0123 157.385C79.1349 157.037 79.1962 156.641 79.1962 156.197C79.1962 155.753 79.1349 155.357 79.0123 155.009C78.8929 154.661 78.7156 154.385 78.4803 154.183C78.245 153.981 77.9516 153.88 77.6003 153.88C77.2457 153.88 76.9474 153.981 76.7054 154.183C76.4668 154.385 76.2862 154.661 76.1635 155.009C76.0442 155.357 75.9846 155.753 75.9846 156.197C75.9846 156.641 76.0442 157.037 76.1635 157.385C76.2862 157.733 76.4668 158.008 76.7054 158.21C76.9474 158.409 77.2457 158.509 77.6003 158.509ZM92.32 154.541L90.381 154.661C90.3479 154.495 90.2766 154.346 90.1673 154.213C90.0579 154.077 89.9137 153.969 89.7347 153.89C89.5591 153.807 89.3486 153.766 89.1033 153.766C88.7752 153.766 88.4985 153.835 88.2731 153.974C88.0477 154.11 87.935 154.293 87.935 154.521C87.935 154.704 88.0079 154.858 88.1538 154.984C88.2996 155.11 88.5498 155.211 88.9045 155.287L90.2866 155.565C91.029 155.718 91.5825 155.963 91.9471 156.301C92.3117 156.639 92.494 157.083 92.494 157.634C92.494 158.134 92.3465 158.573 92.0515 158.951C91.7598 159.329 91.3588 159.624 90.8484 159.836C90.3413 160.045 89.7563 160.149 89.0934 160.149C88.0825 160.149 87.2771 159.939 86.6772 159.518C86.0806 159.094 85.7309 158.517 85.6282 157.788L87.7113 157.678C87.7743 157.987 87.9267 158.222 88.1687 158.384C88.4106 158.543 88.7205 158.623 89.0984 158.623C89.4696 158.623 89.7679 158.552 89.9933 158.409C90.2219 158.263 90.338 158.076 90.3413 157.847C90.338 157.655 90.2567 157.498 90.0977 157.375C89.9386 157.249 89.6933 157.153 89.3619 157.087L88.0394 156.823C87.2937 156.674 86.7385 156.415 86.3739 156.048C86.0127 155.68 85.832 155.211 85.832 154.641C85.832 154.15 85.9646 153.728 86.2298 153.373C86.4982 153.018 86.8744 152.745 87.3583 152.553C87.8455 152.36 88.4156 152.264 89.0685 152.264C90.033 152.264 90.792 152.468 91.3455 152.876C91.9023 153.283 92.2272 153.839 92.32 154.541ZM97.3077 160.149C96.5222 160.149 95.8461 159.99 95.2793 159.672C94.7158 159.35 94.2817 158.896 93.9767 158.31C93.6718 157.72 93.5194 157.022 93.5194 156.217C93.5194 155.431 93.6718 154.742 93.9767 154.148C94.2817 153.555 94.7109 153.093 95.2644 152.761C95.8212 152.43 96.4741 152.264 97.2232 152.264C97.727 152.264 98.196 152.345 98.6301 152.508C99.0676 152.667 99.4488 152.907 99.7736 153.229C100.102 153.55 100.357 153.955 100.539 154.442C100.722 154.926 100.813 155.492 100.813 156.142V156.724H94.3645V155.411H98.8191C98.8191 155.106 98.7528 154.836 98.6202 154.601C98.4876 154.366 98.3037 154.182 98.0684 154.049C97.8364 153.913 97.5662 153.845 97.258 153.845C96.9365 153.845 96.6515 153.92 96.4029 154.069C96.1576 154.215 95.9654 154.412 95.8262 154.661C95.687 154.906 95.6157 155.179 95.6124 155.481V156.729C95.6124 157.107 95.682 157.433 95.8212 157.708C95.9637 157.983 96.1642 158.195 96.4228 158.344C96.6813 158.494 96.9879 158.568 97.3425 158.568C97.5778 158.568 97.7933 158.535 97.9888 158.469C98.1844 158.402 98.3517 158.303 98.4909 158.17C98.6301 158.038 98.7362 157.875 98.8091 157.683L100.768 157.812C100.669 158.283 100.465 158.694 100.156 159.045C99.8515 159.393 99.4571 159.665 98.9732 159.861C98.4926 160.053 97.9374 160.149 97.3077 160.149ZM106.257 152.364V153.955H101.658V152.364H106.257ZM102.702 150.534H104.82V157.653C104.82 157.849 104.85 158.001 104.909 158.111C104.969 158.217 105.052 158.291 105.158 158.335C105.267 158.378 105.393 158.399 105.536 158.399C105.635 158.399 105.735 158.391 105.834 158.374C105.933 158.354 106.01 158.339 106.063 158.33L106.396 159.906C106.29 159.939 106.141 159.977 105.948 160.02C105.756 160.066 105.522 160.094 105.247 160.104C104.737 160.124 104.289 160.056 103.905 159.901C103.524 159.745 103.227 159.503 103.015 159.175C102.803 158.847 102.699 158.432 102.702 157.932V150.534ZM112.533 156.749V152.364H114.651V160H112.618V158.613H112.538C112.366 159.06 112.079 159.42 111.678 159.692C111.28 159.964 110.795 160.099 110.221 160.099C109.711 160.099 109.262 159.983 108.874 159.751C108.486 159.519 108.183 159.19 107.964 158.762C107.749 158.335 107.64 157.822 107.636 157.226V152.364H109.754V156.848C109.757 157.299 109.878 157.655 110.117 157.917C110.356 158.179 110.675 158.31 111.077 158.31C111.332 158.31 111.57 158.252 111.792 158.136C112.015 158.016 112.193 157.841 112.329 157.609C112.469 157.377 112.537 157.09 112.533 156.749ZM116.345 162.864V152.364H118.433V153.646H118.528C118.621 153.441 118.755 153.232 118.93 153.02C119.109 152.804 119.341 152.625 119.626 152.483C119.915 152.337 120.273 152.264 120.7 152.264C121.257 152.264 121.771 152.41 122.241 152.702C122.712 152.99 123.088 153.426 123.37 154.009C123.652 154.589 123.793 155.317 123.793 156.192C123.793 157.044 123.655 157.763 123.38 158.349C123.108 158.933 122.737 159.375 122.266 159.677C121.799 159.975 121.275 160.124 120.695 160.124C120.284 160.124 119.935 160.056 119.646 159.92C119.361 159.785 119.128 159.614 118.945 159.408C118.763 159.2 118.624 158.989 118.528 158.777H118.463V162.864H116.345ZM118.418 156.182C118.418 156.636 118.481 157.032 118.607 157.37C118.733 157.708 118.915 157.972 119.154 158.161C119.393 158.346 119.683 158.439 120.024 158.439C120.369 158.439 120.661 158.344 120.899 158.156C121.138 157.963 121.318 157.698 121.441 157.36C121.567 157.019 121.63 156.626 121.63 156.182C121.63 155.741 121.569 155.353 121.446 155.018C121.323 154.684 121.143 154.422 120.904 154.233C120.665 154.044 120.372 153.95 120.024 153.95C119.679 153.95 119.388 154.041 119.149 154.223C118.914 154.405 118.733 154.664 118.607 154.999C118.481 155.333 118.418 155.728 118.418 156.182ZM130.622 160.144C130.135 160.144 129.701 160.06 129.32 159.891C128.939 159.718 128.637 159.465 128.415 159.13C128.196 158.792 128.087 158.371 128.087 157.867C128.087 157.443 128.165 157.087 128.32 156.798C128.476 156.51 128.688 156.278 128.957 156.102C129.225 155.927 129.53 155.794 129.872 155.705C130.216 155.615 130.578 155.552 130.955 155.516C131.4 155.469 131.758 155.426 132.029 155.386C132.301 155.343 132.498 155.28 132.621 155.197C132.744 155.115 132.805 154.992 132.805 154.83V154.8C132.805 154.485 132.705 154.241 132.507 154.069C132.311 153.897 132.033 153.81 131.671 153.81C131.29 153.81 130.987 153.895 130.762 154.064C130.536 154.23 130.387 154.438 130.314 154.69L128.355 154.531C128.455 154.067 128.65 153.666 128.942 153.328C129.234 152.987 129.61 152.725 130.07 152.543C130.535 152.357 131.071 152.264 131.681 152.264C132.106 152.264 132.512 152.314 132.899 152.413C133.29 152.513 133.637 152.667 133.938 152.876C134.243 153.085 134.484 153.353 134.659 153.681C134.835 154.006 134.923 154.395 134.923 154.849V160H132.914V158.941H132.855C132.732 159.18 132.568 159.39 132.362 159.572C132.157 159.751 131.91 159.892 131.622 159.995C131.333 160.094 131 160.144 130.622 160.144ZM131.229 158.683C131.54 158.683 131.816 158.621 132.054 158.499C132.293 158.373 132.48 158.204 132.616 157.991C132.752 157.779 132.82 157.539 132.82 157.271V156.46C132.753 156.503 132.662 156.543 132.546 156.58C132.434 156.613 132.306 156.644 132.164 156.674C132.021 156.701 131.878 156.725 131.736 156.749C131.593 156.768 131.464 156.787 131.348 156.803C131.1 156.84 130.883 156.898 130.697 156.977C130.511 157.057 130.367 157.165 130.264 157.3C130.162 157.433 130.11 157.599 130.11 157.798C130.11 158.086 130.215 158.306 130.423 158.459C130.636 158.608 130.904 158.683 131.229 158.683ZM140.672 152.364V153.955H135.959V152.364H140.672ZM137.038 160V151.812C137.038 151.258 137.146 150.799 137.361 150.435C137.58 150.07 137.878 149.797 138.256 149.614C138.634 149.432 139.063 149.341 139.544 149.341C139.869 149.341 140.165 149.366 140.434 149.415C140.706 149.465 140.908 149.51 141.04 149.55L140.662 151.141C140.58 151.114 140.477 151.089 140.354 151.066C140.235 151.043 140.112 151.031 139.986 151.031C139.675 151.031 139.458 151.104 139.335 151.25C139.212 151.393 139.151 151.593 139.151 151.852V160H137.038ZM146.028 152.364V153.955H141.429V152.364H146.028ZM142.473 150.534H144.591V157.653C144.591 157.849 144.621 158.001 144.681 158.111C144.74 158.217 144.823 158.291 144.929 158.335C145.039 158.378 145.165 158.399 145.307 158.399C145.407 158.399 145.506 158.391 145.605 158.374C145.705 158.354 145.781 158.339 145.834 158.33L146.167 159.906C146.061 159.939 145.912 159.977 145.72 160.02C145.528 160.066 145.294 160.094 145.019 160.104C144.508 160.124 144.061 160.056 143.676 159.901C143.295 159.745 142.999 159.503 142.787 159.175C142.574 158.847 142.47 158.432 142.473 157.932V150.534ZM150.806 160.149C150.02 160.149 149.344 159.99 148.777 159.672C148.214 159.35 147.78 158.896 147.475 158.31C147.17 157.72 147.017 157.022 147.017 156.217C147.017 155.431 147.17 154.742 147.475 154.148C147.78 153.555 148.209 153.093 148.762 152.761C149.319 152.43 149.972 152.264 150.721 152.264C151.225 152.264 151.694 152.345 152.128 152.508C152.566 152.667 152.947 152.907 153.272 153.229C153.6 153.55 153.855 153.955 154.037 154.442C154.22 154.926 154.311 155.492 154.311 156.142V156.724H147.863V155.411H152.317C152.317 155.106 152.251 154.836 152.118 154.601C151.986 154.366 151.802 154.182 151.566 154.049C151.334 153.913 151.064 153.845 150.756 153.845C150.435 153.845 150.15 153.92 149.901 154.069C149.656 154.215 149.463 154.412 149.324 154.661C149.185 154.906 149.114 155.179 149.11 155.481V156.729C149.11 157.107 149.18 157.433 149.319 157.708C149.462 157.983 149.662 158.195 149.921 158.344C150.179 158.494 150.486 158.568 150.841 158.568C151.076 158.568 151.291 158.535 151.487 158.469C151.682 158.402 151.85 158.303 151.989 158.17C152.128 158.038 152.234 157.875 152.307 157.683L154.266 157.812C154.167 158.283 153.963 158.694 153.654 159.045C153.35 159.393 152.955 159.665 152.471 159.861C151.991 160.053 151.435 160.149 150.806 160.149ZM155.693 160V152.364H157.746V153.696H157.826C157.965 153.222 158.199 152.864 158.527 152.622C158.855 152.377 159.233 152.254 159.66 152.254C159.766 152.254 159.881 152.261 160.003 152.274C160.126 152.287 160.234 152.306 160.326 152.329V154.208C160.227 154.178 160.089 154.152 159.914 154.129C159.738 154.105 159.577 154.094 159.431 154.094C159.12 154.094 158.842 154.162 158.596 154.298C158.354 154.43 158.162 154.616 158.02 154.854C157.88 155.093 157.811 155.368 157.811 155.68V160H155.693ZM168.36 160.139C167.658 160.139 167.031 160.01 166.481 159.751C165.934 159.493 165.5 159.137 165.179 158.683C164.857 158.228 164.69 157.708 164.676 157.121H166.765C166.788 157.516 166.953 157.836 167.262 158.081C167.57 158.326 167.936 158.449 168.36 158.449C168.699 158.449 168.997 158.374 169.255 158.225C169.517 158.073 169.721 157.862 169.867 157.594C170.016 157.322 170.091 157.01 170.091 156.659C170.091 156.301 170.014 155.986 169.862 155.714C169.713 155.443 169.506 155.231 169.24 155.078C168.975 154.926 168.672 154.848 168.331 154.844C168.032 154.844 167.742 154.906 167.461 155.028C167.182 155.151 166.965 155.318 166.809 155.531L164.895 155.188L165.377 149.818H171.602V151.578H167.152L166.889 154.129H166.949C167.127 153.877 167.398 153.668 167.759 153.502C168.12 153.336 168.525 153.254 168.972 153.254C169.585 153.254 170.132 153.398 170.613 153.686C171.093 153.974 171.473 154.371 171.751 154.874C172.029 155.375 172.167 155.951 172.164 156.604C172.167 157.29 172.008 157.9 171.686 158.434C171.368 158.964 170.922 159.382 170.349 159.687C169.779 159.988 169.116 160.139 168.36 160.139ZM179.739 160.124C179.159 160.124 178.634 159.975 178.163 159.677C177.696 159.375 177.325 158.933 177.05 158.349C176.778 157.763 176.642 157.044 176.642 156.192C176.642 155.317 176.783 154.589 177.064 154.009C177.346 153.426 177.721 152.99 178.188 152.702C178.659 152.41 179.174 152.264 179.734 152.264C180.162 152.264 180.518 152.337 180.803 152.483C181.091 152.625 181.323 152.804 181.499 153.02C181.678 153.232 181.814 153.441 181.907 153.646H181.971V149.818H184.084V160H181.996V158.777H181.907C181.807 158.989 181.666 159.2 181.484 159.408C181.305 159.614 181.072 159.785 180.783 159.92C180.498 160.056 180.15 160.124 179.739 160.124ZM180.41 158.439C180.752 158.439 181.04 158.346 181.275 158.161C181.514 157.972 181.696 157.708 181.822 157.37C181.952 157.032 182.016 156.636 182.016 156.182C182.016 155.728 181.953 155.333 181.827 154.999C181.701 154.664 181.519 154.405 181.28 154.223C181.042 154.041 180.752 153.95 180.41 153.95C180.062 153.95 179.769 154.044 179.53 154.233C179.292 154.422 179.111 154.684 178.988 155.018C178.866 155.353 178.805 155.741 178.805 156.182C178.805 156.626 178.866 157.019 178.988 157.36C179.114 157.698 179.295 157.963 179.53 158.156C179.769 158.344 180.062 158.439 180.41 158.439ZM188.003 160.144C187.516 160.144 187.082 160.06 186.701 159.891C186.319 159.718 186.018 159.465 185.796 159.13C185.577 158.792 185.468 158.371 185.468 157.867C185.468 157.443 185.546 157.087 185.701 156.798C185.857 156.51 186.069 156.278 186.338 156.102C186.606 155.927 186.911 155.794 187.252 155.705C187.597 155.615 187.958 155.552 188.336 155.516C188.78 155.469 189.138 155.426 189.41 155.386C189.682 155.343 189.879 155.28 190.002 155.197C190.124 155.115 190.186 154.992 190.186 154.83V154.8C190.186 154.485 190.086 154.241 189.887 154.069C189.692 153.897 189.413 153.81 189.052 153.81C188.671 153.81 188.368 153.895 188.142 154.064C187.917 154.23 187.768 154.438 187.695 154.69L185.736 154.531C185.836 154.067 186.031 153.666 186.323 153.328C186.614 152.987 186.991 152.725 187.451 152.543C187.915 152.357 188.452 152.264 189.062 152.264C189.486 152.264 189.892 152.314 190.28 152.413C190.671 152.513 191.018 152.667 191.319 152.876C191.624 153.085 191.864 153.353 192.04 153.681C192.216 154.006 192.304 154.395 192.304 154.849V160H190.295V158.941H190.235C190.113 159.18 189.949 159.39 189.743 159.572C189.538 159.751 189.291 159.892 189.002 159.995C188.714 160.094 188.381 160.144 188.003 160.144ZM188.61 158.683C188.921 158.683 189.196 158.621 189.435 158.499C189.674 158.373 189.861 158.204 189.997 157.991C190.133 157.779 190.201 157.539 190.201 157.271V156.46C190.134 156.503 190.043 156.543 189.927 156.58C189.815 156.613 189.687 156.644 189.544 156.674C189.402 156.701 189.259 156.725 189.117 156.749C188.974 156.768 188.845 156.787 188.729 156.803C188.48 156.84 188.263 156.898 188.078 156.977C187.892 157.057 187.748 157.165 187.645 157.3C187.542 157.433 187.491 157.599 187.491 157.798C187.491 158.086 187.596 158.306 187.804 158.459C188.016 158.608 188.285 158.683 188.61 158.683ZM194.981 162.864C194.712 162.864 194.46 162.842 194.225 162.799C193.993 162.759 193.801 162.708 193.648 162.645L194.126 161.064C194.374 161.14 194.598 161.182 194.797 161.188C194.999 161.195 195.173 161.148 195.319 161.049C195.468 160.95 195.589 160.781 195.682 160.542L195.806 160.219L193.067 152.364H195.294L196.875 157.972H196.955L198.55 152.364H200.793L197.825 160.825C197.682 161.236 197.488 161.594 197.243 161.899C197.001 162.207 196.694 162.444 196.323 162.61C195.952 162.779 195.504 162.864 194.981 162.864ZM208.23 154.541L206.291 154.661C206.258 154.495 206.187 154.346 206.077 154.213C205.968 154.077 205.824 153.969 205.645 153.89C205.469 153.807 205.259 153.766 205.013 153.766C204.685 153.766 204.409 153.835 204.183 153.974C203.958 154.11 203.845 154.293 203.845 154.521C203.845 154.704 203.918 154.858 204.064 154.984C204.21 155.11 204.46 155.211 204.815 155.287L206.197 155.565C206.939 155.718 207.493 155.963 207.857 156.301C208.222 156.639 208.404 157.083 208.404 157.634C208.404 158.134 208.257 158.573 207.962 158.951C207.67 159.329 207.269 159.624 206.759 159.836C206.251 160.045 205.666 160.149 205.004 160.149C203.993 160.149 203.187 159.939 202.587 159.518C201.991 159.094 201.641 158.517 201.538 157.788L203.621 157.678C203.684 157.987 203.837 158.222 204.079 158.384C204.321 158.543 204.631 158.623 205.009 158.623C205.38 158.623 205.678 158.552 205.903 158.409C206.132 158.263 206.248 158.076 206.251 157.847C206.248 157.655 206.167 157.498 206.008 157.375C205.849 157.249 205.603 157.153 205.272 157.087L203.95 156.823C203.204 156.674 202.649 156.415 202.284 156.048C201.923 155.68 201.742 155.211 201.742 154.641C201.742 154.15 201.875 153.728 202.14 153.373C202.408 153.018 202.785 152.745 203.268 152.553C203.756 152.36 204.326 152.264 204.979 152.264C205.943 152.264 206.702 152.468 207.256 152.876C207.813 153.283 208.137 153.839 208.23 154.541Z" fill="black"/>
<path d="M226 152.667V156M226 159.333H226.008M233.5 156C233.5 156.985 233.306 157.96 232.929 158.87C232.552 159.78 232 160.607 231.303 161.303C230.607 162 229.78 162.552 228.87 162.929C227.96 163.306 226.985 163.5 226 163.5C225.015 163.5 224.04 163.306 223.13 162.929C222.22 162.552 221.393 162 220.697 161.303C220 160.607 219.448 159.78 219.071 158.87C218.694 157.96 218.5 156.985 218.5 156C218.5 154.011 219.29 152.103 220.697 150.697C222.103 149.29 224.011 148.5 226 148.5C227.989 148.5 229.897 149.29 231.303 150.697C232.71 152.103 233.5 154.011 233.5 156Z" stroke="#52525B" stroke-width="1.6" stroke-linecap="round" stroke-linejoin="round"/>
<path d="M39 152V156M39 160H39.01M48 156C48 157.182 47.7672 158.352 47.3149 159.444C46.8626 160.536 46.1997 161.528 45.364 162.364C44.5282 163.2 43.5361 163.863 42.4442 164.315C41.3522 164.767 40.1819 165 39 165C37.8181 165 36.6478 164.767 35.5558 164.315C34.4639 163.863 33.4718 163.2 32.636 162.364C31.8003 161.528 31.1374 160.536 30.6851 159.444C30.2328 158.352 30 157.182 30 156C30 153.613 30.9482 151.324 32.636 149.636C34.3239 147.948 36.6131 147 39 147C41.3869 147 43.6761 147.948 45.364 149.636C47.0518 151.324 48 153.613 48 156Z" stroke="#52525B" stroke-width="2" stroke-linecap="round" stroke-linejoin="round"/>
<path d="M66.3665 176.602V170.705H67.7045V176.602H66.3665ZM64.0866 174.322V172.984H69.9844V174.322H64.0866ZM71.5451 178V176.858L74.5749 173.888C74.8647 173.595 75.1062 173.335 75.2994 173.108C75.4925 172.881 75.6374 172.661 75.734 172.447C75.8306 172.234 75.8789 172.007 75.8789 171.766C75.8789 171.49 75.8164 171.254 75.6914 171.058C75.5664 170.859 75.3945 170.706 75.1758 170.598C74.957 170.49 74.7085 170.436 74.43 170.436C74.1431 170.436 73.8917 170.496 73.6758 170.615C73.4599 170.732 73.2923 170.898 73.1729 171.114C73.0565 171.33 72.9982 171.587 72.9982 171.885H71.494C71.494 171.331 71.6204 170.849 71.8732 170.44C72.1261 170.031 72.4741 169.714 72.9173 169.49C73.3633 169.266 73.8746 169.153 74.4513 169.153C75.0366 169.153 75.5508 169.263 75.994 169.482C76.4371 169.7 76.7809 170 77.0252 170.381C77.2724 170.761 77.396 171.196 77.396 171.685C77.396 172.011 77.3335 172.332 77.2085 172.648C77.0835 172.963 76.8633 173.312 76.5479 173.696C76.2354 174.08 75.7965 174.544 75.2312 175.089L73.7269 176.619V176.679H77.5281V178H71.5451ZM83.3427 178L81.4933 171.455H83.0657L84.2163 176.057H84.2759L85.4521 171.455H87.0075L88.1836 176.031H88.2475L89.381 171.455H90.9577L89.104 178H87.4975L86.2702 173.577H86.1808L84.9535 178H83.3427ZM94.745 178.128C94.0888 178.128 93.522 177.991 93.0447 177.719C92.5703 177.443 92.2053 177.054 91.9496 176.551C91.6939 176.045 91.5661 175.45 91.5661 174.766C91.5661 174.092 91.6939 173.501 91.9496 172.993C92.2081 172.482 92.5689 172.084 93.032 171.8C93.495 171.513 94.0391 171.369 94.6641 171.369C95.0675 171.369 95.4482 171.435 95.8061 171.565C96.1669 171.693 96.4851 171.892 96.7607 172.162C97.0391 172.432 97.2578 172.776 97.4169 173.193C97.576 173.608 97.6555 174.102 97.6555 174.676V175.149H92.2905V174.109H96.1768C96.174 173.814 96.1101 173.551 95.9851 173.321C95.8601 173.088 95.6854 172.905 95.4609 172.771C95.2393 172.638 94.9808 172.571 94.6854 172.571C94.37 172.571 94.093 172.648 93.8544 172.801C93.6158 172.952 93.4297 173.151 93.2962 173.398C93.1655 173.642 93.0987 173.911 93.0959 174.203V175.111C93.0959 175.491 93.1655 175.818 93.3047 176.091C93.4439 176.361 93.6385 176.568 93.8885 176.713C94.1385 176.855 94.4311 176.926 94.7663 176.926C94.9908 176.926 95.1939 176.895 95.3757 176.832C95.5575 176.767 95.7152 176.672 95.8487 176.547C95.9822 176.422 96.0831 176.267 96.1513 176.082L97.5916 176.244C97.5007 176.625 97.3274 176.957 97.0717 177.241C96.8189 177.523 96.495 177.741 96.1001 177.898C95.7053 178.051 95.2536 178.128 94.745 178.128ZM101.858 178.128C101.202 178.128 100.635 177.991 100.158 177.719C99.6836 177.443 99.3185 177.054 99.0629 176.551C98.8072 176.045 98.6793 175.45 98.6793 174.766C98.6793 174.092 98.8072 173.501 99.0629 172.993C99.3214 172.482 99.6822 172.084 100.145 171.8C100.608 171.513 101.152 171.369 101.777 171.369C102.181 171.369 102.561 171.435 102.919 171.565C103.28 171.693 103.598 171.892 103.874 172.162C104.152 172.432 104.371 172.776 104.53 173.193C104.689 173.608 104.769 174.102 104.769 174.676V175.149H99.4038V174.109H103.29C103.287 173.814 103.223 173.551 103.098 173.321C102.973 173.088 102.799 172.905 102.574 172.771C102.353 172.638 102.094 172.571 101.799 172.571C101.483 172.571 101.206 172.648 100.968 172.801C100.729 172.952 100.543 173.151 100.409 173.398C100.279 173.642 100.212 173.911 100.209 174.203V175.111C100.209 175.491 100.279 175.818 100.418 176.091C100.557 176.361 100.752 176.568 101.002 176.713C101.252 176.855 101.544 176.926 101.88 176.926C102.104 176.926 102.307 176.895 102.489 176.832C102.671 176.767 102.828 176.672 102.962 176.547C103.096 176.422 103.196 176.267 103.265 176.082L104.705 176.244C104.614 176.625 104.441 176.957 104.185 177.241C103.932 177.523 103.608 177.741 103.213 177.898C102.819 178.051 102.367 178.128 101.858 178.128ZM107.48 175.946L107.476 174.084H107.723L110.075 171.455H111.878L108.984 174.676H108.665L107.48 175.946ZM106.074 178V169.273H107.616V178H106.074ZM110.182 178L108.051 175.021L109.091 173.935L112.027 178H110.182ZM118.079 173.185L116.673 173.338C116.633 173.196 116.564 173.062 116.464 172.938C116.368 172.812 116.237 172.712 116.072 172.635C115.907 172.558 115.706 172.52 115.467 172.52C115.146 172.52 114.876 172.589 114.657 172.729C114.441 172.868 114.335 173.048 114.338 173.27C114.335 173.46 114.404 173.615 114.547 173.734C114.691 173.854 114.93 173.952 115.262 174.028L116.379 174.267C116.998 174.401 117.458 174.612 117.76 174.902C118.064 175.192 118.217 175.571 118.22 176.04C118.217 176.452 118.096 176.815 117.858 177.131C117.622 177.443 117.294 177.687 116.873 177.864C116.453 178.04 115.97 178.128 115.424 178.128C114.623 178.128 113.978 177.96 113.49 177.625C113.001 177.287 112.71 176.817 112.616 176.214L114.12 176.07C114.189 176.365 114.333 176.588 114.555 176.739C114.777 176.889 115.065 176.964 115.42 176.964C115.787 176.964 116.081 176.889 116.302 176.739C116.527 176.588 116.639 176.402 116.639 176.18C116.639 175.993 116.566 175.838 116.422 175.716C116.279 175.594 116.058 175.5 115.757 175.435L114.64 175.2C114.012 175.07 113.548 174.849 113.247 174.54C112.946 174.227 112.797 173.832 112.799 173.355C112.797 172.952 112.906 172.602 113.127 172.307C113.352 172.009 113.663 171.778 114.061 171.616C114.461 171.452 114.923 171.369 115.446 171.369C116.213 171.369 116.816 171.533 117.257 171.859C117.7 172.186 117.974 172.628 118.079 173.185Z" fill="#71717A"/>
<path d="M355.476 56.2983C354.432 56.2912 353.413 56.1101 352.418 55.755C351.424 55.3928 350.529 54.8068 349.734 53.9972C348.938 53.1804 348.306 52.0973 347.837 50.7479C347.369 49.3913 347.138 47.7116 347.145 45.7088C347.145 43.8409 347.344 42.1754 347.741 40.7124C348.139 39.2493 348.711 38.0135 349.457 37.005C350.202 35.9893 351.101 35.2152 352.152 34.6825C353.21 34.1499 354.393 33.8835 355.7 33.8835C357.07 33.8835 358.285 34.1534 359.343 34.6932C360.408 35.233 361.268 35.9716 361.921 36.9091C362.575 37.8395 362.979 38.8906 363.136 40.0625H359.247C359.048 39.2244 358.64 38.5568 358.022 38.0597C357.411 37.5554 356.637 37.3033 355.7 37.3033C354.187 37.3033 353.022 37.9602 352.205 39.2741C351.396 40.5881 350.987 42.392 350.98 44.6861H351.129C351.477 44.0611 351.928 43.5249 352.482 43.0774C353.036 42.63 353.661 42.2855 354.357 42.044C355.06 41.7955 355.803 41.6712 356.584 41.6712C357.862 41.6712 359.009 41.9766 360.025 42.5874C361.048 43.1982 361.857 44.0398 362.454 45.1122C363.05 46.1776 363.345 47.3991 363.338 48.777C363.345 50.2116 363.018 51.5007 362.358 52.6442C361.697 53.7805 360.778 54.6754 359.599 55.3288C358.42 55.9822 357.045 56.3054 355.476 56.2983ZM355.455 53.1023C356.229 53.1023 356.921 52.9141 357.532 52.5376C358.143 52.1612 358.626 51.6534 358.981 51.0142C359.336 50.375 359.51 49.6577 359.503 48.8622C359.51 48.081 359.339 47.3743 358.991 46.7422C358.651 46.1101 358.178 45.6094 357.575 45.2401C356.971 44.8707 356.282 44.6861 355.508 44.6861C354.933 44.6861 354.396 44.7962 353.899 45.0163C353.402 45.2365 352.969 45.5419 352.599 45.9325C352.23 46.3161 351.939 46.7635 351.726 47.2749C351.52 47.7791 351.413 48.3189 351.406 48.8942C351.413 49.6541 351.591 50.3537 351.939 50.9929C352.287 51.6321 352.766 52.1435 353.377 52.527C353.988 52.9105 354.68 53.1023 355.455 53.1023Z" fill="#18181B"/>
<path d="M384 51L390 45L384 39" stroke="#18181B" stroke-width="2" stroke-linecap="round" stroke-linejoin="round"/>
<path d="M361.399 94.1818V116H357.447V98.0277H357.319L352.216 101.288V97.6655L357.638 94.1818H361.399Z" fill="#18181B"/>
<path d="M384 111L390 105L384 99" stroke="#18181B" stroke-width="2" stroke-linecap="round" stroke-linejoin="round"/>
<path d="M355.228 174.298C353.694 174.298 352.33 174.036 351.137 173.51C349.951 172.984 349.014 172.253 348.325 171.315C347.636 170.378 347.27 169.295 347.227 168.066H351.233C351.269 168.656 351.464 169.17 351.819 169.611C352.174 170.044 352.646 170.381 353.236 170.623C353.825 170.864 354.486 170.985 355.218 170.985C355.999 170.985 356.691 170.85 357.295 170.58C357.899 170.303 358.371 169.92 358.712 169.43C359.053 168.94 359.22 168.375 359.213 167.736C359.22 167.075 359.049 166.493 358.701 165.989C358.353 165.484 357.849 165.09 357.188 164.806C356.535 164.522 355.747 164.38 354.823 164.38H352.895V161.333H354.823C355.583 161.333 356.247 161.202 356.816 160.939C357.391 160.676 357.842 160.307 358.169 159.831C358.495 159.348 358.655 158.79 358.648 158.158C358.655 157.54 358.517 157.004 358.232 156.55C357.955 156.088 357.561 155.729 357.05 155.474C356.546 155.218 355.953 155.09 355.271 155.09C354.603 155.09 353.985 155.211 353.417 155.452C352.849 155.694 352.391 156.038 352.043 156.486C351.695 156.926 351.51 157.452 351.489 158.062H347.686C347.714 156.841 348.066 155.768 348.74 154.845C349.422 153.915 350.331 153.19 351.468 152.672C352.604 152.146 353.879 151.884 355.292 151.884C356.748 151.884 358.012 152.157 359.085 152.704C360.164 153.244 360.999 153.972 361.588 154.888C362.178 155.804 362.472 156.816 362.472 157.924C362.48 159.153 362.117 160.183 361.386 161.013C360.661 161.844 359.71 162.388 358.531 162.643V162.814C360.065 163.027 361.24 163.595 362.057 164.518C362.881 165.435 363.289 166.575 363.282 167.938C363.282 169.16 362.934 170.254 362.238 171.219C361.549 172.178 360.597 172.931 359.383 173.478C358.176 174.025 356.791 174.298 355.228 174.298Z" fill="#18181B"/>
<path d="M384 169L390 163L384 157" stroke="#18181B" stroke-width="2" stroke-linecap="round" stroke-linejoin="round"/>
<path d="M66.3665 117.602V111.705H67.7045V117.602H66.3665ZM64.0866 115.322V113.984H69.9844V115.322H64.0866ZM71.5451 119V117.858L74.5749 114.888C74.8647 114.595 75.1062 114.335 75.2994 114.108C75.4925 113.881 75.6374 113.661 75.734 113.447C75.8306 113.234 75.8789 113.007 75.8789 112.766C75.8789 112.49 75.8164 112.254 75.6914 112.058C75.5664 111.859 75.3945 111.706 75.1758 111.598C74.957 111.49 74.7085 111.436 74.43 111.436C74.1431 111.436 73.8917 111.496 73.6758 111.615C73.4599 111.732 73.2923 111.898 73.1729 112.114C73.0565 112.33 72.9982 112.587 72.9982 112.885H71.494C71.494 112.331 71.6204 111.849 71.8732 111.44C72.1261 111.031 72.4741 110.714 72.9173 110.49C73.3633 110.266 73.8746 110.153 74.4513 110.153C75.0366 110.153 75.5508 110.263 75.994 110.482C76.4371 110.7 76.7809 111 77.0252 111.381C77.2724 111.761 77.396 112.196 77.396 112.685C77.396 113.011 77.3335 113.332 77.2085 113.648C77.0835 113.963 76.8633 114.312 76.5479 114.696C76.2354 115.08 75.7965 115.544 75.2312 116.089L73.7269 117.619V117.679H77.5281V119H71.5451ZM83.3427 119L81.4933 112.455H83.0657L84.2163 117.057H84.2759L85.4521 112.455H87.0075L88.1836 117.031H88.2475L89.381 112.455H90.9577L89.104 119H87.4975L86.2702 114.577H86.1808L84.9535 119H83.3427ZM94.745 119.128C94.0888 119.128 93.522 118.991 93.0447 118.719C92.5703 118.443 92.2053 118.054 91.9496 117.551C91.6939 117.045 91.5661 116.45 91.5661 115.766C91.5661 115.092 91.6939 114.501 91.9496 113.993C92.2081 113.482 92.5689 113.084 93.032 112.8C93.495 112.513 94.0391 112.369 94.6641 112.369C95.0675 112.369 95.4482 112.435 95.8061 112.565C96.1669 112.693 96.4851 112.892 96.7607 113.162C97.0391 113.432 97.2578 113.776 97.4169 114.193C97.576 114.608 97.6555 115.102 97.6555 115.676V116.149H92.2905V115.109H96.1768C96.174 114.814 96.1101 114.551 95.9851 114.321C95.8601 114.088 95.6854 113.905 95.4609 113.771C95.2393 113.638 94.9808 113.571 94.6854 113.571C94.37 113.571 94.093 113.648 93.8544 113.801C93.6158 113.952 93.4297 114.151 93.2962 114.398C93.1655 114.642 93.0987 114.911 93.0959 115.203V116.111C93.0959 116.491 93.1655 116.818 93.3047 117.091C93.4439 117.361 93.6385 117.568 93.8885 117.713C94.1385 117.855 94.4311 117.926 94.7663 117.926C94.9908 117.926 95.1939 117.895 95.3757 117.832C95.5575 117.767 95.7152 117.672 95.8487 117.547C95.9822 117.422 96.0831 117.267 96.1513 117.082L97.5916 117.244C97.5007 117.625 97.3274 117.957 97.0717 118.241C96.8189 118.523 96.495 118.741 96.1001 118.898C95.7053 119.051 95.2536 119.128 94.745 119.128ZM101.858 119.128C101.202 119.128 100.635 118.991 100.158 118.719C99.6836 118.443 99.3185 118.054 99.0629 117.551C98.8072 117.045 98.6793 116.45 98.6793 115.766C98.6793 115.092 98.8072 114.501 99.0629 113.993C99.3214 113.482 99.6822 113.084 100.145 112.8C100.608 112.513 101.152 112.369 101.777 112.369C102.181 112.369 102.561 112.435 102.919 112.565C103.28 112.693 103.598 112.892 103.874 113.162C104.152 113.432 104.371 113.776 104.53 114.193C104.689 114.608 104.769 115.102 104.769 115.676V116.149H99.4038V115.109H103.29C103.287 114.814 103.223 114.551 103.098 114.321C102.973 114.088 102.799 113.905 102.574 113.771C102.353 113.638 102.094 113.571 101.799 113.571C101.483 113.571 101.206 113.648 100.968 113.801C100.729 113.952 100.543 114.151 100.409 114.398C100.279 114.642 100.212 114.911 100.209 115.203V116.111C100.209 116.491 100.279 116.818 100.418 117.091C100.557 117.361 100.752 117.568 101.002 117.713C101.252 117.855 101.544 117.926 101.88 117.926C102.104 117.926 102.307 117.895 102.489 117.832C102.671 117.767 102.828 117.672 102.962 117.547C103.096 117.422 103.196 117.267 103.265 117.082L104.705 117.244C104.614 117.625 104.441 117.957 104.185 118.241C103.932 118.523 103.608 118.741 103.213 118.898C102.819 119.051 102.367 119.128 101.858 119.128ZM107.48 116.946L107.476 115.084H107.723L110.075 112.455H111.878L108.984 115.676H108.665L107.48 116.946ZM106.074 119V110.273H107.616V119H106.074ZM110.182 119L108.051 116.021L109.091 114.935L112.027 119H110.182ZM118.079 114.185L116.673 114.338C116.633 114.196 116.564 114.062 116.464 113.938C116.368 113.812 116.237 113.712 116.072 113.635C115.907 113.558 115.706 113.52 115.467 113.52C115.146 113.52 114.876 113.589 114.657 113.729C114.441 113.868 114.335 114.048 114.338 114.27C114.335 114.46 114.404 114.615 114.547 114.734C114.691 114.854 114.93 114.952 115.262 115.028L116.379 115.267C116.998 115.401 117.458 115.612 117.76 115.902C118.064 116.192 118.217 116.571 118.22 117.04C118.217 117.452 118.096 117.815 117.858 118.131C117.622 118.443 117.294 118.687 116.873 118.864C116.453 119.04 115.97 119.128 115.424 119.128C114.623 119.128 113.978 118.96 113.49 118.625C113.001 118.287 112.71 117.817 112.616 117.214L114.12 117.07C114.189 117.365 114.333 117.588 114.555 117.739C114.777 117.889 115.065 117.964 115.42 117.964C115.787 117.964 116.081 117.889 116.302 117.739C116.527 117.588 116.639 117.402 116.639 117.18C116.639 116.993 116.566 116.838 116.422 116.716C116.279 116.594 116.058 116.5 115.757 116.435L114.64 116.2C114.012 116.07 113.548 115.849 113.247 115.54C112.946 115.227 112.797 114.832 112.799 114.355C112.797 113.952 112.906 113.602 113.127 113.307C113.352 113.009 113.663 112.778 114.061 112.616C114.461 112.452 114.923 112.369 115.446 112.369C116.213 112.369 116.816 112.533 117.257 112.859C117.7 113.186 117.974 113.628 118.079 114.185Z" fill="#71717A"/>
<path d="M73.2415 95.9091C73.2415 97.0194 73.031 97.964 72.6101 98.7429C72.1925 99.5218 71.6224 100.117 70.8999 100.528C70.1806 100.935 69.3719 101.139 68.4737 101.139C67.5689 101.139 66.7569 100.934 66.0376 100.523C65.3184 100.112 64.75 99.5168 64.3324 98.7379C63.9148 97.959 63.706 97.0161 63.706 95.9091C63.706 94.7988 63.9148 93.8542 64.3324 93.0753C64.75 92.2964 65.3184 91.7031 66.0376 91.2955C66.7569 90.8845 67.5689 90.679 68.4737 90.679C69.3719 90.679 70.1806 90.8845 70.8999 91.2955C71.6224 91.7031 72.1925 92.2964 72.6101 93.0753C73.031 93.8542 73.2415 94.7988 73.2415 95.9091ZM71.0589 95.9091C71.0589 95.1899 70.9512 94.5833 70.7358 94.0895C70.5237 93.5956 70.2237 93.2211 69.8359 92.9659C69.4482 92.7107 68.9941 92.5831 68.4737 92.5831C67.9534 92.5831 67.4993 92.7107 67.1115 92.9659C66.7237 93.2211 66.4221 93.5956 66.2067 94.0895C65.9946 94.5833 65.8885 95.1899 65.8885 95.9091C65.8885 96.6283 65.9946 97.2348 66.2067 97.7287C66.4221 98.2225 66.7237 98.5971 67.1115 98.8523C67.4993 99.1075 67.9534 99.2351 68.4737 99.2351C68.9941 99.2351 69.4482 99.1075 69.8359 98.8523C70.2237 98.5971 70.5237 98.2225 70.7358 97.7287C70.9512 97.2348 71.0589 96.6283 71.0589 95.9091ZM81.9157 93.3636L79.2459 101H76.8596L74.1898 93.3636H76.427L78.013 98.8274H78.0925L79.6735 93.3636H81.9157ZM86.2335 101.149C85.448 101.149 84.7718 100.99 84.2051 100.672C83.6416 100.35 83.2074 99.8963 82.9025 99.3097C82.5976 98.7197 82.4451 98.022 82.4451 97.2166C82.4451 96.4311 82.5976 95.7417 82.9025 95.1484C83.2074 94.5552 83.6367 94.0928 84.1902 93.7614C84.747 93.4299 85.3999 93.2642 86.149 93.2642C86.6528 93.2642 87.1217 93.3454 87.5559 93.5078C87.9934 93.6669 88.3746 93.9072 88.6994 94.2287C89.0275 94.5502 89.2827 94.9545 89.465 95.4418C89.6473 95.9257 89.7385 96.4924 89.7385 97.142V97.7237H83.2903V96.4112H87.7449C87.7449 96.1063 87.6786 95.8362 87.546 95.6009C87.4134 95.3655 87.2295 95.1816 86.9941 95.049C86.7621 94.9131 86.492 94.8452 86.1838 94.8452C85.8623 94.8452 85.5772 94.9197 85.3287 95.0689C85.0834 95.2147 84.8912 95.4119 84.752 95.6605C84.6127 95.9058 84.5415 96.1792 84.5382 96.4808V97.7287C84.5382 98.1065 84.6078 98.433 84.747 98.7081C84.8895 98.9832 85.09 99.1953 85.3485 99.3445C85.6071 99.4936 85.9136 99.5682 86.2683 99.5682C86.5036 99.5682 86.719 99.535 86.9146 99.4688C87.1101 99.4025 87.2775 99.303 87.4167 99.1705C87.5559 99.0379 87.662 98.8755 87.7349 98.6832L89.6937 98.8125C89.5943 99.2831 89.3904 99.6941 89.0822 100.045C88.7773 100.393 88.3829 100.665 87.899 100.861C87.4184 101.053 86.8632 101.149 86.2335 101.149ZM91.1206 101V93.3636H93.1738V94.696H93.2534C93.3926 94.2221 93.6262 93.8641 93.9544 93.6222C94.2825 93.3769 94.6603 93.2543 95.0879 93.2543C95.194 93.2543 95.3083 93.2609 95.4309 93.2741C95.5536 93.2874 95.6613 93.3056 95.7541 93.3288V95.2081C95.6547 95.1783 95.5171 95.1518 95.3414 95.1286C95.1658 95.1054 95.005 95.0938 94.8592 95.0938C94.5476 95.0938 94.2692 95.1617 94.024 95.2976C93.782 95.4302 93.5898 95.6158 93.4473 95.8544C93.3081 96.093 93.2385 96.3681 93.2385 96.6797V101H91.1206ZM99.3075 101.124C98.7275 101.124 98.2022 100.975 97.7315 100.677C97.2642 100.375 96.893 99.9328 96.6179 99.3494C96.3461 98.7628 96.2102 98.0436 96.2102 97.1918C96.2102 96.3168 96.3511 95.5893 96.6328 95.0092C96.9145 94.4259 97.2891 93.9901 97.7564 93.7017C98.227 93.41 98.7424 93.2642 99.3026 93.2642C99.7301 93.2642 100.086 93.3371 100.371 93.483C100.66 93.6255 100.892 93.8045 101.067 94.0199C101.246 94.232 101.382 94.4408 101.475 94.6463H101.54V90.8182H103.653V101H101.565V99.777H101.475C101.376 99.9891 101.235 100.2 101.053 100.408C100.874 100.614 100.64 100.785 100.352 100.92C100.067 101.056 99.7185 101.124 99.3075 101.124ZM99.9787 99.4389C100.32 99.4389 100.608 99.3461 100.844 99.1605C101.082 98.9716 101.265 98.7081 101.391 98.37C101.52 98.032 101.585 97.6359 101.585 97.1818C101.585 96.7277 101.522 96.3333 101.396 95.9986C101.27 95.6638 101.087 95.4053 100.849 95.223C100.61 95.0407 100.32 94.9496 99.9787 94.9496C99.6307 94.9496 99.3374 95.044 99.0987 95.233C98.8601 95.4219 98.6795 95.6837 98.5568 96.0185C98.4342 96.3532 98.3729 96.741 98.3729 97.1818C98.3729 97.6259 98.4342 98.0187 98.5568 98.3601C98.6828 98.6982 98.8634 98.9633 99.0987 99.1555C99.3374 99.3445 99.6307 99.4389 99.9787 99.4389ZM110.291 97.7486V93.3636H112.409V101H110.376V99.6129H110.296C110.124 100.06 109.837 100.42 109.436 100.692C109.038 100.964 108.553 101.099 107.979 101.099C107.469 101.099 107.02 100.983 106.632 100.751C106.244 100.519 105.941 100.19 105.722 99.7621C105.507 99.3345 105.397 98.8224 105.394 98.2259V93.3636H107.512V97.848C107.515 98.2988 107.636 98.6551 107.875 98.9169C108.113 99.1787 108.433 99.3097 108.834 99.3097C109.09 99.3097 109.328 99.2517 109.55 99.1357C109.772 99.0163 109.951 98.8407 110.087 98.6087C110.226 98.3767 110.294 98.09 110.291 97.7486ZM117.583 101.149C116.798 101.149 116.121 100.99 115.555 100.672C114.991 100.35 114.557 99.8963 114.252 99.3097C113.947 98.7197 113.795 98.022 113.795 97.2166C113.795 96.4311 113.947 95.7417 114.252 95.1484C114.557 94.5552 114.986 94.0928 115.54 93.7614C116.097 93.4299 116.75 93.2642 117.499 93.2642C118.002 93.2642 118.471 93.3454 118.906 93.5078C119.343 93.6669 119.724 93.9072 120.049 94.2287C120.377 94.5502 120.632 94.9545 120.815 95.4418C120.997 95.9257 121.088 96.4924 121.088 97.142V97.7237H114.64V96.4112H119.094C119.094 96.1063 119.028 95.8362 118.896 95.6009C118.763 95.3655 118.579 95.1816 118.344 95.049C118.112 94.9131 117.842 94.8452 117.533 94.8452C117.212 94.8452 116.927 94.9197 116.678 95.0689C116.433 95.2147 116.241 95.4119 116.102 95.6605C115.962 95.9058 115.891 96.1792 115.888 96.4808V97.7287C115.888 98.1065 115.957 98.433 116.097 98.7081C116.239 98.9832 116.44 99.1953 116.698 99.3445C116.957 99.4936 117.263 99.5682 117.618 99.5682C117.853 99.5682 118.069 99.535 118.264 99.4688C118.46 99.4025 118.627 99.303 118.766 99.1705C118.906 99.0379 119.012 98.8755 119.085 98.6832L121.043 98.8125C120.944 99.2831 120.74 99.6941 120.432 100.045C120.127 100.393 119.732 100.665 119.249 100.861C118.768 101.053 118.213 101.149 117.583 101.149Z" fill="black"/>
<path d="M139 93.6667V97M139 100.333H139.008M146.5 97C146.5 97.9849 146.306 98.9602 145.929 99.8701C145.552 100.78 145 101.607 144.303 102.303C143.607 103 142.78 103.552 141.87 103.929C140.96 104.306 139.985 104.5 139 104.5C138.015 104.5 137.04 104.306 136.13 103.929C135.22 103.552 134.393 103 133.697 102.303C133 101.607 132.448 100.78 132.071 99.8701C131.694 98.9602 131.5 97.9849 131.5 97C131.5 95.0109 132.29 93.1032 133.697 91.6967C135.103 90.2902 137.011 89.5 139 89.5C140.989 89.5 142.897 90.2902 144.303 91.6967C145.71 93.1032 146.5 95.0109 146.5 97Z" stroke="#52525B" stroke-width="1.6" stroke-linecap="round" stroke-linejoin="round"/>
<path fill-rule="evenodd" clip-rule="evenodd" d="M31.2484 90.8832C30.0196 91.9158 29.0079 92.7796 29.0001 92.8028C28.9851 92.848 30.1706 94.2771 30.2439 94.3021C30.2803 94.3145 34.366 90.933 34.7134 90.6028L34.8259 90.4959L34.2072 89.7592C33.8669 89.354 33.5647 89.0187 33.5356 89.0141C33.5065 89.0095 32.4773 89.8505 31.2484 90.8832ZM43.6393 89.7221C43.3062 90.1189 43.0274 90.4623 43.0198 90.4852C43.0121 90.5081 43.9661 91.3329 45.1396 92.3182C46.3132 93.3035 47.3393 94.1653 47.4199 94.2334L47.5664 94.3571L48.1833 93.6279C48.5227 93.2268 48.8026 92.8713 48.8055 92.8381C48.8106 92.7801 44.3513 88.9984 44.2797 89C44.2606 89.0004 43.9724 89.3254 43.6393 89.7221ZM37.9553 91.1505C35.7249 91.3753 33.5394 92.5403 32.0711 94.2872C30.4435 96.2235 29.7083 98.7293 30.0356 101.226C30.5044 104.802 33.0697 107.734 36.5809 108.706C37.6742 109.008 39.1738 109.086 40.3081 108.899C43.2028 108.423 45.6148 106.651 46.9294 104.037C48.1629 101.584 48.1666 98.5591 46.939 96.1053C45.2367 92.7027 41.7323 90.77 37.9553 91.1505ZM39.5694 93.1474C43.2714 93.5183 46.01 96.6722 45.838 100.367C45.69 103.55 43.4905 106.148 40.3492 106.851C39.9287 106.945 39.7408 106.96 38.9104 106.959C37.846 106.959 37.546 106.914 36.6741 106.624C34.928 106.044 33.4513 104.733 32.6446 103.046C31.5465 100.75 31.8181 97.9436 33.3345 95.9155C34.7917 93.9668 37.1769 92.9078 39.5694 93.1474ZM37.9177 95.0858C37.8999 95.1035 37.8855 96.4511 37.8855 98.0804V101.043L40.2343 102.452C41.5261 103.227 42.6012 103.861 42.6231 103.861C42.6451 103.861 42.826 103.596 43.0249 103.271C43.3143 102.799 43.3746 102.669 43.3267 102.626C43.2936 102.596 42.4019 102.061 41.3451 101.436L39.4237 100.301L39.4117 97.6901L39.3996 95.0792L38.6747 95.0664C38.2761 95.0594 37.9354 95.0681 37.9177 95.0858Z" fill="#52525B"/>
<defs>
<filter id="filter0_dd_1_12" x="0" y="0" width="426" height="211" filterUnits="userSpaceOnUse" color-interpolation-filters="sRGB">
<feFlood flood-opacity="0" result="BackgroundImageFix"/>
<feColorMatrix in="SourceAlpha" type="matrix" values="0 0 0 0 0 0 0 0 0 0 0 0 0 0 0 0 0 0 127 0" result="hardAlpha"/>
<feOffset dy="1"/>
<feGaussianBlur stdDeviation="1.5"/>
<feColorMatrix type="matrix" values="0 0 0 0 0 0 0 0 0 0 0 0 0 0 0 0 0 0 0.1 0"/>
<feBlend mode="normal" in2="BackgroundImageFix" result="effect1_dropShadow_1_12"/>
<feColorMatrix in="SourceAlpha" type="matrix" values="0 0 0 0 0 0 0 0 0 0 0 0 0 0 0 0 0 0 127 0" result="hardAlpha"/>
<feOffset dy="1"/>
<feGaussianBlur stdDeviation="1"/>
<feColorMatrix type="matrix" values="0 0 0 0 0 0 0 0 0 0 0 0 0 0 0 0 0 0 0.06 0"/>
<feBlend mode="normal" in2="effect1_dropShadow_1_12" result="effect2_dropShadow_1_12"/>
<feBlend mode="normal" in="SourceGraphic" in2="effect2_dropShadow_1_12" result="shape"/>
</filter>
</defs>
</svg>
