<svg width="300" height="57" viewBox="0 0 300 57" fill="none" xmlns="http://www.w3.org/2000/svg">
<rect width="300" height="57" rx="8" fill="#E1EFFE"/>
<path fill-rule="evenodd" clip-rule="evenodd" d="M23.707 32.707C23.5195 32.8945 23.2652 32.9998 23 32.9998C22.7349 32.9998 22.4806 32.8945 22.293 32.707L18.293 28.707C18.1056 28.5195 18.0002 28.2652 18.0002 28C18.0002 27.7348 18.1056 27.4805 18.293 27.293L22.293 23.293C22.4816 23.1108 22.7342 23.01 22.9964 23.0123C23.2586 23.0146 23.5094 23.1198 23.6948 23.3052C23.8803 23.4906 23.9854 23.7414 23.9877 24.0036C23.99 24.2658 23.8892 24.5184 23.707 24.707L21.414 27H33C33.2652 27 33.5196 27.1054 33.7071 27.2929C33.8947 27.4804 34 27.7348 34 28C34 28.2652 33.8947 28.5196 33.7071 28.7071C33.5196 28.8946 33.2652 29 33 29H21.414L23.707 31.293C23.8945 31.4805 23.9998 31.7348 23.9998 32C23.9998 32.2652 23.8945 32.5195 23.707 32.707Z" fill="#111928"/>
<path d="M90.303 28.9091C90.303 30.0194 90.0925 30.964 89.6716 31.7429C89.254 32.5218 88.6839 33.1167 87.9614 33.5277C87.2422 33.9354 86.4334 34.1392 85.5352 34.1392C84.6304 34.1392 83.8184 33.9337 83.0992 33.5227C82.3799 33.1117 81.8115 32.5168 81.3939 31.7379C80.9763 30.959 80.7675 30.0161 80.7675 28.9091C80.7675 27.7988 80.9763 26.8542 81.3939 26.0753C81.8115 25.2964 82.3799 24.7031 83.0992 24.2955C83.8184 23.8845 84.6304 23.679 85.5352 23.679C86.4334 23.679 87.2422 23.8845 87.9614 24.2955C88.6839 24.7031 89.254 25.2964 89.6716 26.0753C90.0925 26.8542 90.303 27.7988 90.303 28.9091ZM88.1205 28.9091C88.1205 28.1899 88.0128 27.5833 87.7973 27.0895C87.5852 26.5956 87.2852 26.2211 86.8975 25.9659C86.5097 25.7107 86.0556 25.5831 85.5352 25.5831C85.0149 25.5831 84.5608 25.7107 84.173 25.9659C83.7852 26.2211 83.4836 26.5956 83.2682 27.0895C83.0561 27.5833 82.95 28.1899 82.95 28.9091C82.95 29.6283 83.0561 30.2348 83.2682 30.7287C83.4836 31.2225 83.7852 31.5971 84.173 31.8523C84.5608 32.1075 85.0149 32.2351 85.5352 32.2351C86.0556 32.2351 86.5097 32.1075 86.8975 31.8523C87.2852 31.5971 87.5852 31.2225 87.7973 30.7287C88.0128 30.2348 88.1205 29.6283 88.1205 28.9091ZM95.3081 34.1491C94.526 34.1491 93.8531 33.9834 93.2897 33.652C92.7296 33.3172 92.2987 32.8532 91.9971 32.2599C91.6988 31.6667 91.5496 30.9839 91.5496 30.2116C91.5496 29.4295 91.7004 28.7434 92.002 28.1534C92.307 27.5601 92.7395 27.0978 93.2996 26.7663C93.8598 26.4316 94.526 26.2642 95.2982 26.2642C95.9644 26.2642 96.5477 26.3852 97.0482 26.6271C97.5487 26.8691 97.9448 27.2088 98.2364 27.6463C98.5281 28.0838 98.6888 28.5975 98.7187 29.1875H96.7201C96.6637 28.8063 96.5146 28.4998 96.2726 28.2678C96.034 28.0324 95.7208 27.9148 95.333 27.9148C95.0049 27.9148 94.7182 28.0043 94.4729 28.1832C94.231 28.3589 94.0421 28.6158 93.9062 28.9538C93.7703 29.2919 93.7023 29.7012 93.7023 30.1818C93.7023 30.669 93.7686 31.0833 93.9012 31.4247C94.0371 31.7661 94.2277 32.0263 94.4729 32.2053C94.7182 32.3842 95.0049 32.4737 95.333 32.4737C95.575 32.4737 95.7921 32.424 95.9843 32.3246C96.1798 32.2251 96.3406 32.081 96.4665 31.892C96.5958 31.6998 96.6803 31.4695 96.7201 31.201H98.7187C98.6855 31.7843 98.5264 32.2981 98.2414 32.7422C97.9597 33.183 97.5702 33.5277 97.0731 33.7763C96.5759 34.0249 95.9876 34.1491 95.3081 34.1491ZM104.136 26.3636V27.9545H99.5377V26.3636H104.136ZM100.582 24.5341H102.7V31.6534C102.7 31.849 102.729 32.0014 102.789 32.1108C102.849 32.2169 102.932 32.2914 103.038 32.3345C103.147 32.3776 103.273 32.3991 103.416 32.3991C103.515 32.3991 103.614 32.3909 103.714 32.3743C103.813 32.3544 103.89 32.3395 103.943 32.3295L104.276 33.9055C104.17 33.9387 104.02 33.9768 103.828 34.0199C103.636 34.0663 103.402 34.0945 103.127 34.1044C102.617 34.1243 102.169 34.0563 101.785 33.9006C101.404 33.7448 101.107 33.5028 100.895 33.1747C100.683 32.8466 100.578 32.4323 100.582 31.9318V24.5341ZM108.884 34.1491C108.112 34.1491 107.444 33.9851 106.881 33.657C106.321 33.3255 105.888 32.8648 105.583 32.2749C105.278 31.6816 105.126 30.9938 105.126 30.2116C105.126 29.4228 105.278 28.7334 105.583 28.1435C105.888 27.5502 106.321 27.0895 106.881 26.7614C107.444 26.4299 108.112 26.2642 108.884 26.2642C109.657 26.2642 110.323 26.4299 110.883 26.7614C111.446 27.0895 111.881 27.5502 112.185 28.1435C112.49 28.7334 112.643 29.4228 112.643 30.2116C112.643 30.9938 112.49 31.6816 112.185 32.2749C111.881 32.8648 111.446 33.3255 110.883 33.657C110.323 33.9851 109.657 34.1491 108.884 34.1491ZM108.894 32.5085C109.246 32.5085 109.539 32.4091 109.774 32.2102C110.01 32.008 110.187 31.733 110.306 31.3849C110.429 31.0369 110.49 30.6409 110.49 30.1967C110.49 29.7526 110.429 29.3565 110.306 29.0085C110.187 28.6605 110.01 28.3854 109.774 28.1832C109.539 27.9811 109.246 27.88 108.894 27.88C108.54 27.88 108.241 27.9811 107.999 28.1832C107.761 28.3854 107.58 28.6605 107.457 29.0085C107.338 29.3565 107.278 29.7526 107.278 30.1967C107.278 30.6409 107.338 31.0369 107.457 31.3849C107.58 31.733 107.761 32.008 107.999 32.2102C108.241 32.4091 108.54 32.5085 108.894 32.5085ZM114.06 34V23.8182H116.178V27.6463H116.242C116.335 27.4408 116.469 27.232 116.645 27.0199C116.824 26.8045 117.056 26.6255 117.341 26.483C117.629 26.3371 117.987 26.2642 118.415 26.2642C118.972 26.2642 119.485 26.41 119.956 26.7017C120.427 26.9901 120.803 27.4259 121.085 28.0092C121.366 28.5893 121.507 29.3168 121.507 30.1918C121.507 31.0436 121.37 31.7628 121.095 32.3494C120.823 32.9328 120.452 33.3752 119.981 33.6768C119.514 33.9751 118.99 34.1243 118.41 34.1243C117.999 34.1243 117.649 34.0563 117.361 33.9205C117.076 33.7846 116.842 33.6139 116.66 33.4084C116.478 33.1996 116.338 32.9891 116.242 32.777H116.148V34H114.06ZM116.133 30.1818C116.133 30.6359 116.196 31.032 116.322 31.37C116.448 31.7081 116.63 31.9716 116.869 32.1605C117.107 32.3461 117.397 32.4389 117.739 32.4389C118.083 32.4389 118.375 32.3445 118.614 32.1555C118.852 31.9633 119.033 31.6982 119.156 31.3601C119.282 31.0187 119.345 30.6259 119.345 30.1818C119.345 29.741 119.283 29.3532 119.161 29.0185C119.038 28.6837 118.857 28.4219 118.619 28.233C118.38 28.044 118.087 27.9496 117.739 27.9496C117.394 27.9496 117.102 28.0407 116.864 28.223C116.628 28.4053 116.448 28.6638 116.322 28.9986C116.196 29.3333 116.133 29.7277 116.133 30.1818ZM126.4 34.1491C125.615 34.1491 124.939 33.9901 124.372 33.6719C123.809 33.3504 123.374 32.8963 123.07 32.3097C122.765 31.7197 122.612 31.022 122.612 30.2166C122.612 29.4311 122.765 28.7417 123.07 28.1484C123.374 27.5552 123.804 27.0928 124.357 26.7614C124.914 26.4299 125.567 26.2642 126.316 26.2642C126.82 26.2642 127.289 26.3454 127.723 26.5078C128.16 26.6669 128.542 26.9072 128.866 27.2287C129.195 27.5502 129.45 27.9545 129.632 28.4418C129.814 28.9257 129.905 29.4924 129.905 30.142V30.7237H123.457V29.4112H127.912C127.912 29.1063 127.846 28.8362 127.713 28.6009C127.58 28.3655 127.396 28.1816 127.161 28.049C126.929 27.9131 126.659 27.8452 126.351 27.8452C126.029 27.8452 125.744 27.9197 125.496 28.0689C125.25 28.2147 125.058 28.4119 124.919 28.6605C124.78 28.9058 124.708 29.1792 124.705 29.4808V30.7287C124.705 31.1065 124.775 31.433 124.914 31.7081C125.056 31.9832 125.257 32.1953 125.516 32.3445C125.774 32.4936 126.081 32.5682 126.435 32.5682C126.671 32.5682 126.886 32.535 127.082 32.4688C127.277 32.4025 127.445 32.303 127.584 32.1705C127.723 32.0379 127.829 31.8755 127.902 31.6832L129.861 31.8125C129.761 32.2831 129.557 32.6941 129.249 33.0455C128.944 33.3935 128.55 33.6652 128.066 33.8608C127.585 34.053 127.03 34.1491 126.4 34.1491ZM131.288 34V26.3636H133.341V27.696H133.42C133.56 27.2221 133.793 26.8641 134.121 26.6222C134.449 26.3769 134.827 26.2543 135.255 26.2543C135.361 26.2543 135.475 26.2609 135.598 26.2741C135.721 26.2874 135.828 26.3056 135.921 26.3288V28.2081C135.822 28.1783 135.684 28.1518 135.508 28.1286C135.333 28.1054 135.172 28.0938 135.026 28.0938C134.715 28.0938 134.436 28.1617 134.191 28.2976C133.949 28.4302 133.757 28.6158 133.614 28.8544C133.475 29.093 133.405 29.3681 133.405 29.6797V34H131.288ZM145.014 28.0689V29.7493H140.371V28.0689H145.014ZM158.615 23.8182V34H156.756L152.326 27.5916H152.252V34H150.099V23.8182H151.988L156.383 30.2216H156.472V23.8182H158.615ZM163.804 34.1491C163.032 34.1491 162.364 33.9851 161.801 33.657C161.241 33.3255 160.808 32.8648 160.503 32.2749C160.198 31.6816 160.046 30.9938 160.046 30.2116C160.046 29.4228 160.198 28.7334 160.503 28.1435C160.808 27.5502 161.241 27.0895 161.801 26.7614C162.364 26.4299 163.032 26.2642 163.804 26.2642C164.576 26.2642 165.243 26.4299 165.803 26.7614C166.366 27.0895 166.8 27.5502 167.105 28.1435C167.41 28.7334 167.563 29.4228 167.563 30.2116C167.563 30.9938 167.41 31.6816 167.105 32.2749C166.8 32.8648 166.366 33.3255 165.803 33.657C165.243 33.9851 164.576 34.1491 163.804 34.1491ZM163.814 32.5085C164.166 32.5085 164.459 32.4091 164.694 32.2102C164.929 32.008 165.107 31.733 165.226 31.3849C165.349 31.0369 165.41 30.6409 165.41 30.1967C165.41 29.7526 165.349 29.3565 165.226 29.0085C165.107 28.6605 164.929 28.3854 164.694 28.1832C164.459 27.9811 164.166 27.88 163.814 27.88C163.46 27.88 163.161 27.9811 162.919 28.1832C162.681 28.3854 162.5 28.6605 162.377 29.0085C162.258 29.3565 162.198 29.7526 162.198 30.1967C162.198 30.6409 162.258 31.0369 162.377 31.3849C162.5 31.733 162.681 32.008 162.919 32.2102C163.161 32.4091 163.46 32.5085 163.814 32.5085ZM175.813 26.3636L173.143 34H170.757L168.087 26.3636H170.324L171.91 31.8274H171.99L173.571 26.3636H175.813ZM180.131 34.1491C179.345 34.1491 178.669 33.9901 178.103 33.6719C177.539 33.3504 177.105 32.8963 176.8 32.3097C176.495 31.7197 176.343 31.022 176.343 30.2166C176.343 29.4311 176.495 28.7417 176.8 28.1484C177.105 27.5552 177.534 27.0928 178.088 26.7614C178.644 26.4299 179.297 26.2642 180.046 26.2642C180.55 26.2642 181.019 26.3454 181.453 26.5078C181.891 26.6669 182.272 26.9072 182.597 27.2287C182.925 27.5502 183.18 27.9545 183.362 28.4418C183.545 28.9257 183.636 29.4924 183.636 30.142V30.7237H177.188V29.4112H181.642C181.642 29.1063 181.576 28.8362 181.443 28.6009C181.311 28.3655 181.127 28.1816 180.892 28.049C180.66 27.9131 180.389 27.8452 180.081 27.8452C179.76 27.8452 179.475 27.9197 179.226 28.0689C178.981 28.2147 178.789 28.4119 178.649 28.6605C178.51 28.9058 178.439 29.1792 178.436 29.4808V30.7287C178.436 31.1065 178.505 31.433 178.644 31.7081C178.787 31.9832 178.987 32.1953 179.246 32.3445C179.505 32.4936 179.811 32.5682 180.166 32.5682C180.401 32.5682 180.617 32.535 180.812 32.4688C181.008 32.4025 181.175 32.303 181.314 32.1705C181.453 32.0379 181.559 31.8755 181.632 31.6832L183.591 31.8125C183.492 32.2831 183.288 32.6941 182.98 33.0455C182.675 33.3935 182.28 33.6652 181.796 33.8608C181.316 34.053 180.761 34.1491 180.131 34.1491ZM185.018 34V26.3636H187.036V27.7109H187.126C187.285 27.2635 187.55 26.9105 187.921 26.652C188.293 26.3935 188.737 26.2642 189.254 26.2642C189.777 26.2642 190.223 26.3951 190.591 26.657C190.959 26.9155 191.204 27.2668 191.327 27.7109H191.407C191.562 27.2734 191.844 26.9238 192.252 26.6619C192.663 26.3968 193.148 26.2642 193.708 26.2642C194.421 26.2642 194.999 26.4912 195.443 26.9453C195.891 27.3961 196.115 28.0357 196.115 28.8643V34H194.002V29.282C194.002 28.8577 193.889 28.5395 193.664 28.3274C193.438 28.1153 193.157 28.0092 192.818 28.0092C192.434 28.0092 192.134 28.1319 191.919 28.3771C191.703 28.6191 191.595 28.9389 191.595 29.3366V34H189.542V29.2372C189.542 28.8627 189.434 28.5644 189.219 28.3423C189.007 28.1203 188.727 28.0092 188.379 28.0092C188.143 28.0092 187.931 28.0689 187.742 28.1882C187.557 28.3042 187.409 28.4683 187.3 28.6804C187.191 28.8892 187.136 29.1345 187.136 29.4162V34H185.018ZM197.827 34V23.8182H199.945V27.6463H200.01C200.103 27.4408 200.237 27.232 200.413 27.0199C200.592 26.8045 200.824 26.6255 201.109 26.483C201.397 26.3371 201.755 26.2642 202.182 26.2642C202.739 26.2642 203.253 26.41 203.724 26.7017C204.194 26.9901 204.57 27.4259 204.852 28.0092C205.134 28.5893 205.275 29.3168 205.275 30.1918C205.275 31.0436 205.137 31.7628 204.862 32.3494C204.59 32.9328 204.219 33.3752 203.748 33.6768C203.281 33.9751 202.757 34.1243 202.177 34.1243C201.766 34.1243 201.417 34.0563 201.128 33.9205C200.843 33.7846 200.61 33.6139 200.427 33.4084C200.245 33.1996 200.106 32.9891 200.01 32.777H199.915V34H197.827ZM199.9 30.1818C199.9 30.6359 199.963 31.032 200.089 31.37C200.215 31.7081 200.398 31.9716 200.636 32.1605C200.875 32.3461 201.165 32.4389 201.506 32.4389C201.851 32.4389 202.143 32.3445 202.381 32.1555C202.62 31.9633 202.801 31.6982 202.923 31.3601C203.049 31.0187 203.112 30.6259 203.112 30.1818C203.112 29.741 203.051 29.3532 202.928 29.0185C202.806 28.6837 202.625 28.4219 202.386 28.233C202.148 28.044 201.854 27.9496 201.506 27.9496C201.162 27.9496 200.87 28.0407 200.631 28.223C200.396 28.4053 200.215 28.6638 200.089 28.9986C199.963 29.3333 199.9 29.7277 199.9 30.1818ZM210.168 34.1491C209.383 34.1491 208.706 33.9901 208.14 33.6719C207.576 33.3504 207.142 32.8963 206.837 32.3097C206.532 31.7197 206.38 31.022 206.38 30.2166C206.38 29.4311 206.532 28.7417 206.837 28.1484C207.142 27.5552 207.571 27.0928 208.125 26.7614C208.682 26.4299 209.334 26.2642 210.084 26.2642C210.587 26.2642 211.056 26.3454 211.491 26.5078C211.928 26.6669 212.309 26.9072 212.634 27.2287C212.962 27.5502 213.217 27.9545 213.4 28.4418C213.582 28.9257 213.673 29.4924 213.673 30.142V30.7237H207.225V29.4112H211.679C211.679 29.1063 211.613 28.8362 211.481 28.6009C211.348 28.3655 211.164 28.1816 210.929 28.049C210.697 27.9131 210.427 27.8452 210.118 27.8452C209.797 27.8452 209.512 27.9197 209.263 28.0689C209.018 28.2147 208.826 28.4119 208.687 28.6605C208.547 28.9058 208.476 29.1792 208.473 29.4808V30.7287C208.473 31.1065 208.542 31.433 208.682 31.7081C208.824 31.9832 209.025 32.1953 209.283 32.3445C209.542 32.4936 209.848 32.5682 210.203 32.5682C210.438 32.5682 210.654 32.535 210.849 32.4688C211.045 32.4025 211.212 32.303 211.351 32.1705C211.491 32.0379 211.597 31.8755 211.669 31.6832L213.628 31.8125C213.529 32.2831 213.325 32.6941 213.017 33.0455C212.712 33.3935 212.317 33.6652 211.834 33.8608C211.353 34.053 210.798 34.1491 210.168 34.1491ZM215.055 34V26.3636H217.108V27.696H217.188C217.327 27.2221 217.561 26.8641 217.889 26.6222C218.217 26.3769 218.595 26.2543 219.022 26.2543C219.129 26.2543 219.243 26.2609 219.366 26.2741C219.488 26.2874 219.596 26.3056 219.689 26.3288V28.2081C219.589 28.1783 219.452 28.1518 219.276 28.1286C219.1 28.1054 218.94 28.0938 218.794 28.0938C218.482 28.0938 218.204 28.1617 217.959 28.2976C217.717 28.4302 217.524 28.6158 217.382 28.8544C217.243 29.093 217.173 29.3681 217.173 29.6797V34H215.055Z" fill="#111928"/>
<path fill-rule="evenodd" clip-rule="evenodd" d="M276.293 23.293C276.481 23.1055 276.735 23.0002 277 23.0002C277.265 23.0002 277.519 23.1055 277.707 23.293L281.707 27.293C281.894 27.4805 282 27.7348 282 28C282 28.2652 281.894 28.5195 281.707 28.707L277.707 32.707C277.518 32.8892 277.266 32.99 277.004 32.9877C276.741 32.9854 276.491 32.8802 276.305 32.6948C276.12 32.5094 276.015 32.2586 276.012 31.9964C276.01 31.7342 276.111 31.4816 276.293 31.293L278.586 29H267C266.735 29 266.48 28.8946 266.293 28.7071C266.105 28.5196 266 28.2652 266 28C266 27.7348 266.105 27.4804 266.293 27.2929C266.48 27.1054 266.735 27 267 27H278.586L276.293 24.707C276.106 24.5195 276 24.2652 276 24C276 23.7348 276.106 23.4805 276.293 23.293Z" fill="#111928"/>
</svg>
