
<svg width="40" height="40" viewBox="0 0 40 40" fill="none" xmlns="http://www.w3.org/2000/svg">
<circle cx="20" cy="20" r="20" fill="#1C64F2"/>
<path fill-rule="evenodd" clip-rule="evenodd" d="M14.8298 15.835C14.2479 16.341 13.9216 17.1383 13.9845 17.9005C14.0036 18.1324 14.0428 18.2487 14.2466 18.6776C14.4683 19.1443 14.5033 19.1971 14.7149 19.3827C14.8406 19.493 14.9557 19.601 14.9706 19.6226C15.0163 19.6892 13.8584 23.1601 13.7859 23.1738C13.7499 23.1806 13.599 23.1982 13.4506 23.213C12.8508 23.2728 12.2812 23.6 11.8604 24.1263C11.613 24.4357 11.3818 25.0625 11.366 25.4667C11.325 26.5126 11.9603 27.446 12.9521 27.7972C13.9429 28.1479 14.9368 27.8657 15.5974 27.046C16.0024 26.5434 16.1893 25.8614 16.0984 25.218C16.0202 24.6644 15.6607 24.0401 15.2272 23.705L15.0927 23.601L15.4935 22.3889C16.2968 19.9597 16.2582 20.0577 16.4166 20.0482C16.9967 20.0134 17.6344 19.7513 17.9684 19.4104C18.0741 19.3025 18.1958 19.1942 18.2387 19.1698C18.2959 19.1374 18.7785 19.3024 20.0346 19.784L21.7524 20.4425L21.7471 20.6244C21.734 21.0711 21.9756 21.7596 22.2795 22.1424C22.6204 22.5716 23.2677 22.9292 23.8358 23.0023C24.6634 23.1088 25.4953 22.7631 26.024 22.0931C26.2682 21.7836 26.5002 21.1442 26.5099 20.7544C26.5222 20.2553 26.4603 19.9954 26.2212 19.5425C26.017 19.1557 25.927 19.0478 25.5225 18.7053C25.4951 18.6822 26.1593 16.5819 26.6073 15.2745L26.6531 15.141L26.9859 15.1035C27.4459 15.0518 27.8217 14.9086 28.1486 14.6606C29.4364 13.6833 29.4527 11.8287 28.1821 10.8407C27.8783 10.6044 27.2298 10.373 26.845 10.3635C25.4885 10.3299 24.3897 11.3763 24.3801 12.7108C24.375 13.4251 24.6344 14.0251 25.1586 14.5111C25.3448 14.6838 25.3741 14.7272 25.3566 14.8044C25.3453 14.8542 25.0856 15.6508 24.7795 16.5747C24.3739 17.7991 24.2034 18.255 24.1506 18.2567C23.718 18.2712 23.5598 18.311 23.1292 18.5137C22.695 18.718 22.5693 18.8113 22.2816 19.1431C22.2444 19.1859 21.7989 19.0348 20.4807 18.5321L18.7292 17.8643L18.7345 17.6801C18.7548 16.9852 18.3827 16.2152 17.8134 15.7742C17.3693 15.4301 16.7458 15.25 16.1546 15.2949C15.7562 15.3252 15.1157 15.5862 14.8298 15.835ZM16.3636 16.6221C16.7805 16.6193 17.1114 16.8299 17.2934 17.214C17.5452 17.7451 17.3301 18.3502 16.8005 18.6012C16.4369 18.7735 15.9822 18.7202 15.6864 18.4706C15.5077 18.3199 15.3304 17.9621 15.3196 17.7304C15.2907 17.1143 15.7504 16.6263 16.3636 16.6221ZM26.7184 11.6909C26.9376 11.6873 27.2291 11.7815 27.3984 11.9104C27.5862 12.0534 27.7689 12.3976 27.7881 12.6447C27.8185 13.035 27.6884 13.3269 27.375 13.5718C27.0258 13.8444 26.5208 13.8507 26.1497 13.5871C25.7855 13.3284 25.6157 12.8367 25.7482 12.4242C25.8741 12.0318 26.3166 11.6974 26.7184 11.6909ZM13.8336 24.528C14.4575 24.5827 14.8824 25.1565 14.7632 25.7832C14.7 26.1155 14.5091 26.3502 14.1763 26.5051C13.8681 26.6485 13.6177 26.6498 13.3039 26.5096C12.9772 26.3635 12.77 26.0812 12.6995 25.686C12.6615 25.4728 12.831 24.9804 12.9977 24.82C13.1844 24.6402 13.5715 24.505 13.8336 24.528ZM24.0368 19.6027C24.4566 19.5545 24.8745 19.795 25.0659 20.1949C25.2456 20.5704 25.2047 20.9524 24.9478 21.2976C24.7948 21.5031 24.4046 21.6944 24.1446 21.6912C23.5509 21.6841 23.0929 21.212 23.1004 20.6148C23.1071 20.0755 23.4861 19.6658 24.0368 19.6027Z" fill="white"/>
</svg>
