<svg width="20" height="20" viewBox="0 0 20 20" fill="none" xmlns="http://www.w3.org/2000/svg">
<g clip-path="url(#clip0_602_14158)">
<path d="M0.833496 3.33333V8.33333H5.8335" stroke="#27272A" stroke-width="2" stroke-linecap="round" stroke-linejoin="round"/>
<path d="M2.92516 12.5C3.46549 14.0336 4.48961 15.3501 5.84321 16.2511C7.19681 17.1521 8.80656 17.5888 10.4299 17.4954C12.0533 17.402 13.6023 16.7835 14.8436 15.7331C16.0849 14.6828 16.9512 13.2575 17.312 11.672C17.6728 10.0865 17.5086 8.42663 16.844 6.94258C16.1795 5.45854 15.0506 4.23066 13.6275 3.44397C12.2044 2.65728 10.5642 2.35439 8.95406 2.58093C7.34387 2.80747 5.85092 3.55118 4.70016 4.7L0.833496 8.33333" stroke="#27272A" stroke-width="2" stroke-linecap="round" stroke-linejoin="round"/>
</g>
<defs>
<clipPath id="clip0_602_14158">
<rect width="20" height="20" fill="white"/>
</clipPath>
</defs>
</svg>
