<svg width="36" height="36" viewBox="0 0 36 36" fill="none" xmlns="http://www.w3.org/2000/svg">
<circle cx="18" cy="18" r="17.5" stroke="#1C64F2"/>
<path d="M28.2104 9.54718C27.0156 8.35106 25.3943 7.67871 23.7035 7.67871C22.0128 7.67871 20.3915 8.35106 19.1964 9.54718L18.0659 10.6777L16.9353 9.54718C15.3251 7.937 12.9781 7.30823 10.7786 7.89754C8.57902 8.48686 6.86107 10.2048 6.27175 12.4044C5.68244 14.6039 6.31119 16.9509 7.92139 18.5608L17.4766 28.1161V28.1164C17.6263 28.2672 17.8296 28.3519 18.0421 28.3519C18.2542 28.3519 18.4578 28.2672 18.6075 28.1164L28.1784 18.5455H28.1781C29.3737 17.3555 30.0486 15.74 30.0544 14.0531C30.0605 12.3662 29.3973 10.746 28.2101 9.54767L28.2104 9.54718ZM9.09987 10.6777C9.99581 9.78321 11.21 9.28057 12.4761 9.28057C13.7421 9.28057 14.9567 9.78323 15.8522 10.6777L17.5405 12.366C17.6899 12.5165 17.8935 12.6015 18.1056 12.6015C18.3181 12.6015 18.5217 12.5165 18.6711 12.366L20.3593 10.6777C21.5785 9.54163 23.302 9.1228 24.9069 9.57327C26.5118 10.0234 27.7658 11.2776 28.2162 12.8826C28.6664 14.4872 28.2479 16.2107 27.1115 17.4302L26.8249 17.669H19.6584C19.3541 17.6685 19.0758 17.8415 18.9419 18.115L18.1457 19.7074L15.6135 13.3371V13.3374C15.4991 13.0225 15.2 12.8128 14.8651 12.8128C14.5302 12.8128 14.2308 13.0225 14.1167 13.3374L12.715 17.669H10.1034C9.88788 17.6679 9.68098 17.754 9.53018 17.9078L9.0525 17.4301H9.05223C8.1577 16.5342 7.65505 15.32 7.65505 14.0539C7.65505 12.7878 8.15772 11.5736 9.05223 10.6778L9.09987 10.6777ZM18.1141 26.4439L10.9 19.2618H13.289C13.6283 19.2593 13.9288 19.0419 14.0374 18.7203L14.9453 16.0767L17.2703 21.9531C17.3878 22.24 17.6611 22.4328 17.971 22.4466C18.2754 22.4475 18.5537 22.2742 18.6875 22.0009L20.1527 19.2618H25.233L18.1141 26.4439Z" fill="#1C64F2"/>
</svg>
