<svg width="1150" height="115" viewBox="0 0 1150 115" fill="none" xmlns="http://www.w3.org/2000/svg">
<path d="M0.5 8C0.5 3.85787 3.85786 0.5 8 0.5H1142C1146.14 0.5 1149.5 3.85786 1149.5 8V107C1149.5 111.142 1146.14 114.5 1142 114.5H8C3.85786 114.5 0.5 111.142 0.5 107V8Z" fill="white" stroke="#E5E7EB"/>
<path d="M0.5 0.5H1149.5V59.5H0.5V0.5Z" fill="#F3F4F6" stroke="#E5E7EB"/>
<path d="M48.7211 91.1392C48.098 91.1392 47.5378 91.0199 47.0407 90.7812C46.5468 90.5393 46.1524 90.2079 45.8574 89.7869C45.5624 89.366 45.405 88.8854 45.3851 88.3452H46.8766C46.9131 88.7827 47.1069 89.1423 47.4583 89.424C47.8096 89.7057 48.2305 89.8466 48.7211 89.8466C49.1122 89.8466 49.4585 89.7571 49.7601 89.5781C50.065 89.3958 50.3037 89.1456 50.476 88.8274C50.6517 88.5092 50.7395 88.1463 50.7395 87.7386C50.7395 87.3243 50.65 86.9548 50.4711 86.63C50.2921 86.3052 50.0452 86.05 49.7303 85.8643C49.4187 85.6787 49.0608 85.5843 48.6564 85.581C48.3482 85.581 48.0383 85.634 47.7267 85.7401C47.4152 85.8461 47.1633 85.9853 46.9711 86.1577L45.5641 85.9489L46.1358 80.8182H51.7338V82.1357H47.4135L47.0904 84.9844H47.15C47.3489 84.7921 47.6124 84.6314 47.9405 84.5021C48.272 84.3729 48.6266 84.3082 49.0044 84.3082C49.6242 84.3082 50.1761 84.4557 50.66 84.7507C51.1472 85.0457 51.53 85.4484 51.8084 85.9588C52.0901 86.4659 52.2293 87.0492 52.226 87.7088C52.2293 88.3684 52.0802 88.9567 51.7786 89.4737C51.4803 89.9908 51.066 90.3984 50.5357 90.6967C50.0087 90.9917 49.4038 91.1392 48.7211 91.1392ZM56.9205 91.1491C56.304 91.1491 55.7538 90.9917 55.2699 90.6768C54.7893 90.3587 54.4115 89.9062 54.1364 89.3196C53.8646 88.7296 53.7287 88.022 53.7287 87.1967C53.7287 86.3714 53.8662 85.6655 54.1413 85.0788C54.4197 84.4922 54.8009 84.0431 55.2848 83.7315C55.7687 83.42 56.3172 83.2642 56.9304 83.2642C57.4044 83.2642 57.7855 83.3438 58.0739 83.5028C58.3655 83.6586 58.5909 83.8409 58.75 84.0497C58.9124 84.2585 59.0384 84.4425 59.1278 84.6016H59.2173V80.8182H60.7038V91H59.2521V89.8118H59.1278C59.0384 89.9742 58.9091 90.1598 58.7401 90.3686C58.5743 90.5774 58.3456 90.7597 58.054 90.9155C57.7623 91.0713 57.3845 91.1491 56.9205 91.1491ZM57.2486 89.8814C57.6761 89.8814 58.0374 89.7687 58.3324 89.5433C58.6307 89.3146 58.8561 88.9981 59.0085 88.5938C59.1643 88.1894 59.2422 87.7187 59.2422 87.1818C59.2422 86.6515 59.166 86.1875 59.0135 85.7898C58.861 85.392 58.6373 85.0821 58.3423 84.8601C58.0473 84.638 57.6828 84.527 57.2486 84.527C56.8011 84.527 56.4283 84.643 56.13 84.875C55.8317 85.107 55.6063 85.4235 55.4538 85.8246C55.3047 86.2256 55.2301 86.678 55.2301 87.1818C55.2301 87.6922 55.3063 88.1513 55.4588 88.5589C55.6113 88.9666 55.8366 89.2898 56.1349 89.5284C56.4366 89.7637 56.8078 89.8814 57.2486 89.8814ZM64.1926 88.4098L64.1827 86.5952H64.4412L67.4838 83.3636H69.2637L65.7935 87.0426H65.5598L64.1926 88.4098ZM62.8255 91V80.8182H64.312V91H62.8255ZM67.6479 91L64.9135 87.3707L65.9377 86.3317L69.4725 91H67.6479Z" fill="#111928"/>
<path d="M201.625 86.5952V85.4815L208.227 82.2798V83.7962L203.355 86.0185L203.4 85.929V86.1428L203.355 86.0582L208.227 88.2756V89.7969L201.625 86.5952ZM214.111 91.169C213.326 91.1657 212.654 90.9586 212.098 90.5476C211.541 90.1366 211.115 89.5384 210.82 88.7528C210.525 87.9673 210.377 87.0211 210.377 85.9141C210.377 84.8104 210.525 83.8674 210.82 83.0852C211.118 82.303 211.546 81.7064 212.103 81.2955C212.663 80.8845 213.332 80.679 214.111 80.679C214.89 80.679 215.558 80.8861 216.115 81.3004C216.671 81.7114 217.097 82.308 217.392 83.0902C217.691 83.8691 217.84 84.8104 217.84 85.9141C217.84 87.0244 217.692 87.9723 217.397 88.7578C217.102 89.54 216.676 90.1383 216.12 90.5526C215.563 90.9635 214.893 91.169 214.111 91.169ZM214.111 89.8416C214.8 89.8416 215.339 89.5052 215.727 88.8324C216.118 88.1596 216.313 87.1868 216.313 85.9141C216.313 85.0689 216.224 84.3546 216.045 83.7713C215.869 83.1847 215.616 82.7405 215.284 82.4389C214.956 82.134 214.565 81.9815 214.111 81.9815C213.425 81.9815 212.886 82.3196 212.495 82.9957C212.104 83.6719 211.907 84.6446 211.904 85.9141C211.904 86.7625 211.992 87.4801 212.167 88.0668C212.346 88.6501 212.6 89.0926 212.928 89.3942C213.256 89.6925 213.65 89.8416 214.111 89.8416ZM220.234 91.0945C219.962 91.0945 219.728 90.9983 219.533 90.8061C219.337 90.6106 219.239 90.3752 219.239 90.1001C219.239 89.8284 219.337 89.5964 219.533 89.4041C219.728 89.2086 219.962 89.1108 220.234 89.1108C220.505 89.1108 220.739 89.2086 220.935 89.4041C221.13 89.5964 221.228 89.8284 221.228 90.1001C221.228 90.2824 221.181 90.4498 221.089 90.6023C220.999 90.7514 220.88 90.8707 220.731 90.9602C220.582 91.0497 220.416 91.0945 220.234 91.0945ZM226.396 91.1392C225.773 91.1392 225.213 91.0199 224.715 90.7812C224.222 90.5393 223.827 90.2079 223.532 89.7869C223.237 89.366 223.08 88.8854 223.06 88.3452H224.551C224.588 88.7827 224.782 89.1423 225.133 89.424C225.484 89.7057 225.905 89.8466 226.396 89.8466C226.787 89.8466 227.133 89.7571 227.435 89.5781C227.74 89.3958 227.978 89.1456 228.151 88.8274C228.326 88.5092 228.414 88.1463 228.414 87.7386C228.414 87.3243 228.325 86.9548 228.146 86.63C227.967 86.3052 227.72 86.05 227.405 85.8643C227.094 85.6787 226.736 85.5843 226.331 85.581C226.023 85.581 225.713 85.634 225.402 85.7401C225.09 85.8461 224.838 85.9853 224.646 86.1577L223.239 85.9489L223.811 80.8182H229.409V82.1357H225.088L224.765 84.9844H224.825C225.024 84.7921 225.287 84.6314 225.615 84.5021C225.947 84.3729 226.301 84.3082 226.679 84.3082C227.299 84.3082 227.851 84.4557 228.335 84.7507C228.822 85.0457 229.205 85.4484 229.483 85.9588C229.765 86.4659 229.904 87.0492 229.901 87.7088C229.904 88.3684 229.755 88.9567 229.453 89.4737C229.155 89.9908 228.741 90.3984 228.21 90.6967C227.684 90.9917 227.079 91.1392 226.396 91.1392Z" fill="#111928"/>
<path d="M381.992 91.169C381.206 91.1657 380.535 90.9586 379.978 90.5476C379.422 90.1366 378.996 89.5384 378.701 88.7528C378.406 87.9673 378.258 87.0211 378.258 85.9141C378.258 84.8104 378.406 83.8674 378.701 83.0852C378.999 82.303 379.427 81.7064 379.983 81.2955C380.544 80.8845 381.213 80.679 381.992 80.679C382.771 80.679 383.439 80.8861 383.995 81.3004C384.552 81.7114 384.978 82.308 385.273 83.0902C385.571 83.8691 385.721 84.8104 385.721 85.9141C385.721 87.0244 385.573 87.9723 385.278 88.7578C384.983 89.54 384.557 90.1383 384 90.5526C383.444 90.9635 382.774 91.169 381.992 91.169ZM381.992 89.8416C382.681 89.8416 383.22 89.5052 383.608 88.8324C383.999 88.1596 384.194 87.1868 384.194 85.9141C384.194 85.0689 384.105 84.3546 383.926 83.7713C383.75 83.1847 383.497 82.7405 383.165 82.4389C382.837 82.134 382.446 81.9815 381.992 81.9815C381.306 81.9815 380.767 82.3196 380.376 82.9957C379.985 83.6719 379.788 84.6446 379.785 85.9141C379.785 86.7625 379.872 87.4801 380.048 88.0668C380.227 88.6501 380.481 89.0926 380.809 89.3942C381.137 89.6925 381.531 89.8416 381.992 89.8416ZM388.114 91.0945C387.843 91.0945 387.609 90.9983 387.413 90.8061C387.218 90.6106 387.12 90.3752 387.12 90.1001C387.12 89.8284 387.218 89.5964 387.413 89.4041C387.609 89.2086 387.843 89.1108 388.114 89.1108C388.386 89.1108 388.62 89.2086 388.815 89.4041C389.011 89.5964 389.109 89.8284 389.109 90.1001C389.109 90.2824 389.062 90.4498 388.97 90.6023C388.88 90.7514 388.761 90.8707 388.612 90.9602C388.462 91.0497 388.297 91.0945 388.114 91.0945ZM394.277 91.1392C393.654 91.1392 393.093 91.0199 392.596 90.7812C392.102 90.5393 391.708 90.2079 391.413 89.7869C391.118 89.366 390.961 88.8854 390.941 88.3452H392.432C392.469 88.7827 392.663 89.1423 393.014 89.424C393.365 89.7057 393.786 89.8466 394.277 89.8466C394.668 89.8466 395.014 89.7571 395.316 89.5781C395.621 89.3958 395.859 89.1456 396.032 88.8274C396.207 88.5092 396.295 88.1463 396.295 87.7386C396.295 87.3243 396.206 86.9548 396.027 86.63C395.848 86.3052 395.601 86.05 395.286 85.8643C394.974 85.6787 394.616 85.5843 394.212 85.581C393.904 85.581 393.594 85.634 393.282 85.7401C392.971 85.8461 392.719 85.9853 392.527 86.1577L391.12 85.9489L391.691 80.8182H397.29V82.1357H392.969L392.646 84.9844H392.706C392.905 84.7921 393.168 84.6314 393.496 84.5021C393.828 84.3729 394.182 84.3082 394.56 84.3082C395.18 84.3082 395.732 84.4557 396.216 84.7507C396.703 85.0457 397.086 85.4484 397.364 85.9588C397.646 86.4659 397.785 87.0492 397.782 87.7088C397.785 88.3684 397.636 88.9567 397.334 89.4737C397.036 89.9908 396.622 90.3984 396.091 90.6967C395.564 90.9917 394.959 91.1392 394.277 91.1392ZM407.822 85.2628V86.5554H403.308V85.2628H407.822ZM417.033 91.1392C416.35 91.1392 415.74 91.0215 415.203 90.7862C414.67 90.5509 414.247 90.2244 413.936 89.8068C413.627 89.3859 413.462 88.8987 413.438 88.3452H415C415.019 88.6468 415.121 88.9086 415.303 89.1307C415.488 89.3494 415.73 89.5185 416.029 89.6378C416.327 89.7571 416.658 89.8168 417.023 89.8168C417.424 89.8168 417.779 89.7472 418.087 89.608C418.398 89.4687 418.642 89.2749 418.818 89.0263C418.993 88.7744 419.081 88.4844 419.081 88.1562C419.081 87.8149 418.993 87.5149 418.818 87.2564C418.645 86.9946 418.392 86.7891 418.057 86.6399C417.726 86.4908 417.325 86.4162 416.854 86.4162H415.994V85.1634H416.854C417.232 85.1634 417.563 85.0954 417.848 84.9595C418.137 84.8236 418.362 84.6347 418.524 84.3928C418.687 84.1475 418.768 83.8608 418.768 83.5327C418.768 83.2178 418.697 82.9444 418.554 82.7124C418.415 82.477 418.216 82.2931 417.958 82.1605C417.702 82.0279 417.401 81.9616 417.053 81.9616C416.721 81.9616 416.411 82.023 416.123 82.1456C415.838 82.2649 415.606 82.4373 415.427 82.6626C415.248 82.8847 415.152 83.1515 415.139 83.4631H413.652C413.669 82.9129 413.831 82.429 414.139 82.0114C414.451 81.5937 414.862 81.2673 415.372 81.032C415.883 80.7966 416.45 80.679 417.073 80.679C417.726 80.679 418.289 80.8066 418.763 81.0618C419.24 81.3137 419.608 81.6501 419.867 82.071C420.129 82.492 420.258 82.9527 420.255 83.4531C420.258 84.0232 420.099 84.5071 419.777 84.9048C419.459 85.3026 419.035 85.5694 418.505 85.7053V85.7848C419.181 85.8875 419.704 86.156 420.076 86.5902C420.45 87.0244 420.636 87.563 420.632 88.206C420.636 88.7661 420.48 89.2682 420.165 89.7124C419.853 90.1565 419.428 90.5062 418.887 90.7614C418.347 91.0133 417.729 91.1392 417.033 91.1392Z" fill="#111928"/>
<path d="M519.144 91V83.3636H520.571V84.6065H520.665C520.824 84.1856 521.084 83.8575 521.446 83.6222C521.807 83.3835 522.239 83.2642 522.743 83.2642C523.254 83.2642 523.681 83.3835 524.026 83.6222C524.374 83.8608 524.631 84.1889 524.797 84.6065H524.876C525.058 84.1989 525.348 83.8741 525.746 83.6321C526.144 83.3868 526.618 83.2642 527.168 83.2642C527.861 83.2642 528.426 83.4813 528.863 83.9155C529.304 84.3497 529.525 85.0043 529.525 85.8793V91H528.038V86.0185C528.038 85.5014 527.897 85.1269 527.615 84.8949C527.334 84.6629 526.997 84.5469 526.606 84.5469C526.122 84.5469 525.746 84.696 525.478 84.9943C525.209 85.2893 525.075 85.6688 525.075 86.1328V91H523.593V85.924C523.593 85.5097 523.464 85.1766 523.206 84.9247C522.947 84.6728 522.611 84.5469 522.196 84.5469C521.915 84.5469 521.654 84.6214 521.416 84.7706C521.181 84.9164 520.99 85.1203 520.844 85.3821C520.702 85.6439 520.63 85.9472 520.63 86.2919V91H519.144ZM531.517 91V83.3636H532.944V84.6065H533.038C533.197 84.1856 533.457 83.8575 533.819 83.6222C534.18 83.3835 534.613 83.2642 535.116 83.2642C535.627 83.2642 536.054 83.3835 536.399 83.6222C536.747 83.8608 537.004 84.1889 537.17 84.6065H537.249C537.431 84.1989 537.721 83.8741 538.119 83.6321C538.517 83.3868 538.991 83.2642 539.541 83.2642C540.234 83.2642 540.799 83.4813 541.236 83.9155C541.677 84.3497 541.898 85.0043 541.898 85.8793V91H540.411V86.0185C540.411 85.5014 540.27 85.1269 539.988 84.8949C539.707 84.6629 539.37 84.5469 538.979 84.5469C538.495 84.5469 538.119 84.696 537.851 84.9943C537.582 85.2893 537.448 85.6688 537.448 86.1328V91H535.966V85.924C535.966 85.5097 535.837 85.1766 535.579 84.9247C535.32 84.6728 534.984 84.5469 534.569 84.5469C534.288 84.5469 534.028 84.6214 533.789 84.7706C533.554 84.9164 533.363 85.1203 533.217 85.3821C533.075 85.6439 533.003 85.9472 533.003 86.2919V91H531.517ZM547.107 91.1541C546.391 91.1541 545.766 90.9901 545.232 90.6619C544.699 90.3338 544.284 89.8748 543.989 89.2848C543.694 88.6948 543.547 88.0054 543.547 87.2166C543.547 86.4245 543.694 85.7318 543.989 85.1385C544.284 84.5452 544.699 84.0845 545.232 83.7564C545.766 83.4283 546.391 83.2642 547.107 83.2642C547.822 83.2642 548.447 83.4283 548.981 83.7564C549.514 84.0845 549.929 84.5452 550.224 85.1385C550.519 85.7318 550.666 86.4245 550.666 87.2166C550.666 88.0054 550.519 88.6948 550.224 89.2848C549.929 89.8748 549.514 90.3338 548.981 90.6619C548.447 90.9901 547.822 91.1541 547.107 91.1541ZM547.112 89.9062C547.576 89.9062 547.96 89.7836 548.265 89.5384C548.57 89.2931 548.795 88.9666 548.941 88.5589C549.09 88.1513 549.165 87.7022 549.165 87.2116C549.165 86.7244 549.09 86.277 548.941 85.8693C548.795 85.4583 548.57 85.1286 548.265 84.88C547.96 84.6314 547.576 84.5071 547.112 84.5071C546.644 84.5071 546.256 84.6314 545.948 84.88C545.643 85.1286 545.416 85.4583 545.267 85.8693C545.121 86.277 545.048 86.7244 545.048 87.2116C545.048 87.7022 545.121 88.1513 545.267 88.5589C545.416 88.9666 545.643 89.2931 545.948 89.5384C546.256 89.7836 546.644 89.9062 547.112 89.9062ZM553.812 80.8182V91H552.325V80.8182H553.812ZM559.69 80.3409L556.408 92.5312H555.081L558.362 80.3409H559.69ZM561.072 91V80.8182H562.608V89.6776H567.222V91H561.072Z" fill="#111928"/>
<path d="M17.3665 24V12.3636H21.821C22.6619 12.3636 23.3608 12.4962 23.9176 12.7614C24.4782 13.0227 24.8968 13.3807 25.1733 13.8352C25.4536 14.2898 25.5938 14.8049 25.5938 15.3807C25.5938 15.8542 25.5028 16.2595 25.321 16.5966C25.1392 16.9299 24.8949 17.2008 24.5881 17.4091C24.2812 17.6174 23.9384 17.767 23.5597 17.858V17.9716C23.9725 17.9943 24.3684 18.1212 24.7472 18.3523C25.1297 18.5795 25.4422 18.9015 25.6847 19.3182C25.9271 19.7348 26.0483 20.2386 26.0483 20.8295C26.0483 21.4318 25.9025 21.9735 25.6108 22.4545C25.3191 22.9318 24.8797 23.3087 24.2926 23.5852C23.7055 23.8617 22.9669 24 22.0767 24H17.3665ZM19.4744 22.2386H21.7415C22.5066 22.2386 23.0578 22.0928 23.3949 21.8011C23.7358 21.5057 23.9062 21.1269 23.9062 20.6648C23.9062 20.3201 23.821 20.0095 23.6506 19.733C23.4801 19.4527 23.2377 19.233 22.9233 19.0739C22.6089 18.911 22.2339 18.8295 21.7983 18.8295H19.4744V22.2386ZM19.4744 17.3125H21.5597C21.9233 17.3125 22.2509 17.2462 22.5426 17.1136C22.8343 16.9773 23.0634 16.786 23.2301 16.5398C23.4006 16.2898 23.4858 15.9943 23.4858 15.6534C23.4858 15.2027 23.3267 14.8314 23.0085 14.5398C22.6941 14.2481 22.2263 14.1023 21.6051 14.1023H19.4744V17.3125ZM29.848 12.3636V24H27.7912V12.3636H29.848ZM35.7699 24.1705C34.9176 24.1705 34.179 23.983 33.554 23.608C32.929 23.233 32.4441 22.7083 32.0994 22.0341C31.7585 21.3598 31.5881 20.572 31.5881 19.6705C31.5881 18.7689 31.7585 17.9792 32.0994 17.3011C32.4441 16.6231 32.929 16.0966 33.554 15.7216C34.179 15.3466 34.9176 15.1591 35.7699 15.1591C36.6222 15.1591 37.3608 15.3466 37.9858 15.7216C38.6108 16.0966 39.0938 16.6231 39.4347 17.3011C39.7794 17.9792 39.9517 18.7689 39.9517 19.6705C39.9517 20.572 39.7794 21.3598 39.4347 22.0341C39.0938 22.7083 38.6108 23.233 37.9858 23.608C37.3608 23.983 36.6222 24.1705 35.7699 24.1705ZM35.7812 22.5227C36.2434 22.5227 36.6297 22.3958 36.9403 22.142C37.2509 21.8845 37.482 21.5398 37.6335 21.108C37.7888 20.6761 37.8665 20.1951 37.8665 19.6648C37.8665 19.1307 37.7888 18.6477 37.6335 18.2159C37.482 17.7803 37.2509 17.4337 36.9403 17.1761C36.6297 16.9186 36.2434 16.7898 35.7812 16.7898C35.3078 16.7898 34.9138 16.9186 34.5994 17.1761C34.2888 17.4337 34.0559 17.7803 33.9006 18.2159C33.7491 18.6477 33.6733 19.1307 33.6733 19.6648C33.6733 20.1951 33.7491 20.6761 33.9006 21.108C34.0559 21.5398 34.2888 21.8845 34.5994 22.142C34.9138 22.3958 35.3078 22.5227 35.7812 22.5227ZM45.5043 24.1705C44.652 24.1705 43.9134 23.983 43.2884 23.608C42.6634 23.233 42.1785 22.7083 41.8338 22.0341C41.4929 21.3598 41.3224 20.572 41.3224 19.6705C41.3224 18.7689 41.4929 17.9792 41.8338 17.3011C42.1785 16.6231 42.6634 16.0966 43.2884 15.7216C43.9134 15.3466 44.652 15.1591 45.5043 15.1591C46.3565 15.1591 47.0952 15.3466 47.7202 15.7216C48.3452 16.0966 48.8281 16.6231 49.169 17.3011C49.5137 17.9792 49.6861 18.7689 49.6861 19.6705C49.6861 20.572 49.5137 21.3598 49.169 22.0341C48.8281 22.7083 48.3452 23.233 47.7202 23.608C47.0952 23.983 46.3565 24.1705 45.5043 24.1705ZM45.5156 22.5227C45.9777 22.5227 46.3641 22.3958 46.6747 22.142C46.9853 21.8845 47.2164 21.5398 47.3679 21.108C47.5232 20.6761 47.6009 20.1951 47.6009 19.6648C47.6009 19.1307 47.5232 18.6477 47.3679 18.2159C47.2164 17.7803 46.9853 17.4337 46.6747 17.1761C46.3641 16.9186 45.9777 16.7898 45.5156 16.7898C45.0421 16.7898 44.6482 16.9186 44.3338 17.1761C44.0232 17.4337 43.7902 17.7803 43.6349 18.2159C43.4834 18.6477 43.4077 19.1307 43.4077 19.6648C43.4077 20.1951 43.4834 20.6761 43.6349 21.108C43.7902 21.5398 44.0232 21.8845 44.3338 22.142C44.6482 22.3958 45.0421 22.5227 45.5156 22.5227ZM54.6705 24.1534C53.9848 24.1534 53.3712 23.9773 52.8295 23.625C52.2879 23.2727 51.8598 22.7614 51.5455 22.0909C51.2311 21.4205 51.0739 20.6061 51.0739 19.6477C51.0739 18.678 51.233 17.8598 51.5511 17.1932C51.8731 16.5227 52.3068 16.017 52.8523 15.6761C53.3977 15.3314 54.0057 15.1591 54.6761 15.1591C55.1875 15.1591 55.608 15.2462 55.9375 15.4205C56.267 15.5909 56.5284 15.7973 56.7216 16.0398C56.9148 16.2784 57.0644 16.5038 57.1705 16.7159H57.2557V12.3636H59.3182V24H57.2955V22.625H57.1705C57.0644 22.8371 56.911 23.0625 56.7102 23.3011C56.5095 23.536 56.2443 23.7367 55.9148 23.9034C55.5852 24.0701 55.1705 24.1534 54.6705 24.1534ZM55.2443 22.4659C55.6799 22.4659 56.0511 22.3485 56.358 22.1136C56.6648 21.875 56.8977 21.5436 57.0568 21.1193C57.2159 20.6951 57.2955 20.2008 57.2955 19.6364C57.2955 19.072 57.2159 18.5814 57.0568 18.1648C56.9015 17.7481 56.6705 17.4242 56.3636 17.1932C56.0606 16.9621 55.6875 16.8466 55.2443 16.8466C54.786 16.8466 54.4034 16.9659 54.0966 17.2045C53.7898 17.4432 53.5587 17.7727 53.4034 18.1932C53.2481 18.6136 53.1705 19.0947 53.1705 19.6364C53.1705 20.1818 53.2481 20.6686 53.4034 21.0966C53.5625 21.5208 53.7955 21.8561 54.1023 22.1023C54.4129 22.3447 54.7936 22.4659 55.2443 22.4659ZM63.3111 24L60.8452 15.2727H62.9418L64.4759 21.4091H64.5554L66.1236 15.2727H68.1974L69.7656 21.375H69.8509L71.3622 15.2727H73.4645L70.9929 24H68.8509L67.2145 18.1023H67.0952L65.4588 24H63.3111ZM78.4574 24.1705C77.6051 24.1705 76.8665 23.983 76.2415 23.608C75.6165 23.233 75.1316 22.7083 74.7869 22.0341C74.446 21.3598 74.2756 20.572 74.2756 19.6705C74.2756 18.7689 74.446 17.9792 74.7869 17.3011C75.1316 16.6231 75.6165 16.0966 76.2415 15.7216C76.8665 15.3466 77.6051 15.1591 78.4574 15.1591C79.3097 15.1591 80.0483 15.3466 80.6733 15.7216C81.2983 16.0966 81.7813 16.6231 82.1222 17.3011C82.4669 17.9792 82.6392 18.7689 82.6392 19.6705C82.6392 20.572 82.4669 21.3598 82.1222 22.0341C81.7813 22.7083 81.2983 23.233 80.6733 23.608C80.0483 23.983 79.3097 24.1705 78.4574 24.1705ZM78.4688 22.5227C78.9309 22.5227 79.3172 22.3958 79.6278 22.142C79.9384 21.8845 80.1695 21.5398 80.321 21.108C80.4763 20.6761 80.554 20.1951 80.554 19.6648C80.554 19.1307 80.4763 18.6477 80.321 18.2159C80.1695 17.7803 79.9384 17.4337 79.6278 17.1761C79.3172 16.9186 78.9309 16.7898 78.4688 16.7898C77.9953 16.7898 77.6013 16.9186 77.2869 17.1761C76.9763 17.4337 76.7434 17.7803 76.5881 18.2159C76.4366 18.6477 76.3608 19.1307 76.3608 19.6648C76.3608 20.1951 76.4366 20.6761 76.5881 21.108C76.7434 21.5398 76.9763 21.8845 77.2869 22.142C77.6013 22.3958 77.9953 22.5227 78.4688 22.5227ZM84.3849 24V15.2727H86.3793V16.7273H86.4702C86.6293 16.2235 86.902 15.8352 87.2884 15.5625C87.6785 15.286 88.1236 15.1477 88.6236 15.1477C88.7372 15.1477 88.8641 15.1534 89.0043 15.1648C89.1482 15.1723 89.2675 15.1856 89.3622 15.2045V17.0966C89.2751 17.0663 89.1368 17.0398 88.9474 17.017C88.7618 16.9905 88.5819 16.9773 88.4077 16.9773C88.0327 16.9773 87.6955 17.0587 87.3963 17.2216C87.1009 17.3807 86.8679 17.6023 86.6974 17.8864C86.527 18.1705 86.4418 18.4981 86.4418 18.8693V24H84.3849ZM92.6037 21.2614L92.598 18.7784H92.9276L96.0639 15.2727H98.4673L94.6094 19.5682H94.1832L92.6037 21.2614ZM90.7287 24V12.3636H92.7855V24H90.7287ZM96.206 24L93.3651 20.0284L94.7514 18.5795L98.6662 24H96.206ZM44.4659 48H40.5227V36.3636H44.5455C45.7008 36.3636 46.6932 36.5966 47.5227 37.0625C48.3561 37.5246 48.9962 38.1894 49.4432 39.0568C49.8902 39.9242 50.1136 40.9621 50.1136 42.1705C50.1136 43.3826 49.8883 44.4242 49.4375 45.2955C48.9905 46.1667 48.3447 46.8352 47.5 47.3011C46.6591 47.767 45.6477 48 44.4659 48ZM42.6307 46.1761H44.3636C45.1742 46.1761 45.8504 46.0284 46.392 45.733C46.9337 45.4337 47.3409 44.9886 47.6136 44.3977C47.8864 43.803 48.0227 43.0606 48.0227 42.1705C48.0227 41.2803 47.8864 40.5417 47.6136 39.9545C47.3409 39.3636 46.9375 38.9223 46.4034 38.6307C45.8731 38.3352 45.214 38.1875 44.4261 38.1875H42.6307V46.1761ZM54.5369 48.1761C53.9839 48.1761 53.4858 48.0777 53.0426 47.8807C52.6032 47.6799 52.2547 47.3845 51.9972 46.9943C51.7434 46.6042 51.6165 46.1231 51.6165 45.5511C51.6165 45.0587 51.7074 44.6515 51.8892 44.3295C52.071 44.0076 52.3191 43.75 52.6335 43.5568C52.9479 43.3636 53.3021 43.2178 53.696 43.1193C54.0938 43.017 54.5047 42.9432 54.929 42.8977C55.4403 42.8447 55.8551 42.7973 56.1733 42.7557C56.4915 42.7102 56.7225 42.642 56.8665 42.5511C57.0142 42.4564 57.0881 42.3106 57.0881 42.1136V42.0795C57.0881 41.6515 56.9612 41.3201 56.7074 41.0852C56.4536 40.8504 56.0881 40.733 55.6108 40.733C55.107 40.733 54.7074 40.8428 54.4119 41.0625C54.1203 41.2822 53.9233 41.5417 53.821 41.8409L51.9006 41.5682C52.0521 41.0379 52.3021 40.5947 52.6506 40.2386C52.9991 39.8788 53.4252 39.6098 53.929 39.4318C54.4328 39.25 54.9896 39.1591 55.5994 39.1591C56.0199 39.1591 56.4384 39.2083 56.8551 39.3068C57.2718 39.4053 57.6525 39.5682 57.9972 39.7955C58.3419 40.0189 58.6184 40.3239 58.8267 40.7102C59.0388 41.0966 59.1449 41.5795 59.1449 42.1591V48H57.1676V46.8011H57.0994C56.9744 47.0436 56.7983 47.2708 56.571 47.483C56.3475 47.6913 56.0653 47.8598 55.7244 47.9886C55.3873 48.1136 54.9915 48.1761 54.5369 48.1761ZM55.071 46.6648C55.4839 46.6648 55.8419 46.5833 56.1449 46.4205C56.4479 46.2538 56.6809 46.0341 56.8438 45.7614C57.0104 45.4886 57.0938 45.1913 57.0938 44.8693V43.8409C57.0294 43.8939 56.9195 43.9432 56.7642 43.9886C56.6127 44.0341 56.4422 44.0739 56.2528 44.108C56.0634 44.142 55.8759 44.1723 55.6903 44.1989C55.5047 44.2254 55.3438 44.2481 55.2074 44.267C54.9006 44.3087 54.6259 44.3769 54.3835 44.4716C54.1411 44.5663 53.9498 44.6989 53.8097 44.8693C53.6695 45.036 53.5994 45.2519 53.5994 45.517C53.5994 45.8958 53.7377 46.1818 54.0142 46.375C54.2907 46.5682 54.643 46.6648 55.071 46.6648ZM65.571 39.2727V40.8636H60.554V39.2727H65.571ZM61.7926 37.1818H63.8494V45.375C63.8494 45.6515 63.8911 45.8636 63.9744 46.0114C64.0616 46.1553 64.1752 46.2538 64.3153 46.3068C64.4555 46.3598 64.6108 46.3864 64.7812 46.3864C64.91 46.3864 65.0275 46.3769 65.1335 46.358C65.2434 46.339 65.3267 46.322 65.3835 46.3068L65.7301 47.9148C65.6203 47.9527 65.4631 47.9943 65.2585 48.0398C65.0578 48.0852 64.8116 48.1117 64.5199 48.1193C64.0047 48.1345 63.5407 48.0568 63.1278 47.8864C62.715 47.7121 62.3873 47.4432 62.1449 47.0795C61.9063 46.7159 61.7888 46.2614 61.7926 45.7159V37.1818ZM71.0611 48.1705C70.1861 48.1705 69.4304 47.9886 68.794 47.625C68.1615 47.2576 67.6747 46.7386 67.3338 46.0682C66.9929 45.3939 66.8224 44.6004 66.8224 43.6875C66.8224 42.7898 66.9929 42.0019 67.3338 41.3239C67.6785 40.642 68.1596 40.1117 68.777 39.733C69.3944 39.3504 70.1198 39.1591 70.9531 39.1591C71.491 39.1591 71.9986 39.2462 72.4759 39.4205C72.9569 39.5909 73.3812 39.8561 73.7486 40.2159C74.1198 40.5758 74.4115 41.0341 74.6236 41.5909C74.8357 42.1439 74.9418 42.803 74.9418 43.5682V44.1989H67.7884V42.8125H72.9702C72.9664 42.4186 72.8812 42.0682 72.7145 41.7614C72.5478 41.4508 72.3149 41.2064 72.0156 41.0284C71.7202 40.8504 71.3755 40.7614 70.9815 40.7614C70.5611 40.7614 70.1918 40.8636 69.8736 41.0682C69.5554 41.2689 69.3073 41.5341 69.1293 41.8636C68.955 42.1894 68.866 42.5473 68.8622 42.9375V44.1477C68.8622 44.6553 68.955 45.0909 69.1406 45.4545C69.3262 45.8144 69.5857 46.0909 69.919 46.2841C70.2524 46.4735 70.6425 46.5682 71.0895 46.5682C71.3887 46.5682 71.6596 46.5265 71.902 46.4432C72.1444 46.3561 72.3546 46.2292 72.5327 46.0625C72.7107 45.8958 72.8452 45.6894 72.9361 45.4432L74.8565 45.6591C74.7353 46.1667 74.5043 46.6098 74.1634 46.9886C73.8262 47.3636 73.3944 47.6553 72.8679 47.8636C72.3414 48.0682 71.7391 48.1705 71.0611 48.1705Z" fill="#111928"/>
<path d="M171.71 24.3636V36H169.835L164.352 28.0739H164.256V36H162.148V24.3636H164.034L169.511 32.2955H169.614V24.3636H171.71ZM177.723 36.1705C176.871 36.1705 176.132 35.983 175.507 35.608C174.882 35.233 174.397 34.7083 174.053 34.0341C173.712 33.3598 173.541 32.572 173.541 31.6705C173.541 30.7689 173.712 29.9792 174.053 29.3011C174.397 28.6231 174.882 28.0966 175.507 27.7216C176.132 27.3466 176.871 27.1591 177.723 27.1591C178.575 27.1591 179.314 27.3466 179.939 27.7216C180.564 28.0966 181.047 28.6231 181.388 29.3011C181.732 29.9792 181.905 30.7689 181.905 31.6705C181.905 32.572 181.732 33.3598 181.388 34.0341C181.047 34.7083 180.564 35.233 179.939 35.608C179.314 35.983 178.575 36.1705 177.723 36.1705ZM177.734 34.5227C178.196 34.5227 178.583 34.3958 178.893 34.142C179.204 33.8845 179.435 33.5398 179.587 33.108C179.742 32.6761 179.82 32.1951 179.82 31.6648C179.82 31.1307 179.742 30.6477 179.587 30.2159C179.435 29.7803 179.204 29.4337 178.893 29.1761C178.583 28.9186 178.196 28.7898 177.734 28.7898C177.261 28.7898 176.867 28.9186 176.553 29.1761C176.242 29.4337 176.009 29.7803 175.854 30.2159C175.702 30.6477 175.626 31.1307 175.626 31.6648C175.626 32.1951 175.702 32.6761 175.854 33.108C176.009 33.5398 176.242 33.8845 176.553 34.142C176.867 34.3958 177.261 34.5227 177.734 34.5227ZM183.651 36V27.2727H185.645V28.7273H185.736C185.895 28.2235 186.168 27.8352 186.554 27.5625C186.944 27.286 187.389 27.1477 187.889 27.1477C188.003 27.1477 188.13 27.1534 188.27 27.1648C188.414 27.1723 188.533 27.1856 188.628 27.2045V29.0966C188.541 29.0663 188.402 29.0398 188.213 29.017C188.027 28.9905 187.848 28.9773 187.673 28.9773C187.298 28.9773 186.961 29.0587 186.662 29.2216C186.366 29.3807 186.134 29.6023 185.963 29.8864C185.793 30.1705 185.707 30.4981 185.707 30.8693V36H183.651ZM189.994 36V27.2727H191.96V28.7557H192.062C192.244 28.2557 192.545 27.8655 192.966 27.5852C193.386 27.3011 193.888 27.1591 194.472 27.1591C195.062 27.1591 195.561 27.303 195.966 27.5909C196.375 27.875 196.663 28.2633 196.83 28.7557H196.92C197.114 28.2708 197.439 27.8845 197.898 27.5966C198.36 27.3049 198.907 27.1591 199.54 27.1591C200.343 27.1591 200.998 27.4129 201.506 27.9205C202.013 28.428 202.267 29.1686 202.267 30.142V36H200.205V30.4602C200.205 29.9186 200.061 29.5227 199.773 29.2727C199.485 29.0189 199.133 28.892 198.716 28.892C198.22 28.892 197.831 29.0473 197.551 29.358C197.275 29.6648 197.136 30.0644 197.136 30.5568V36H195.119V30.375C195.119 29.9242 194.983 29.5644 194.71 29.2955C194.441 29.0265 194.089 28.892 193.653 28.892C193.358 28.892 193.089 28.9678 192.847 29.1193C192.604 29.267 192.411 29.4773 192.267 29.75C192.123 30.0189 192.051 30.3333 192.051 30.6932V36H189.994ZM206.865 36.1761C206.312 36.1761 205.814 36.0777 205.371 35.8807C204.931 35.6799 204.583 35.3845 204.325 34.9943C204.071 34.6042 203.945 34.1231 203.945 33.5511C203.945 33.0587 204.036 32.6515 204.217 32.3295C204.399 32.0076 204.647 31.75 204.962 31.5568C205.276 31.3636 205.63 31.2178 206.024 31.1193C206.422 31.017 206.833 30.9432 207.257 30.8977C207.768 30.8447 208.183 30.7973 208.501 30.7557C208.82 30.7102 209.051 30.642 209.195 30.5511C209.342 30.4564 209.416 30.3106 209.416 30.1136V30.0795C209.416 29.6515 209.289 29.3201 209.036 29.0852C208.782 28.8504 208.416 28.733 207.939 28.733C207.435 28.733 207.036 28.8428 206.74 29.0625C206.448 29.2822 206.251 29.5417 206.149 29.8409L204.229 29.5682C204.38 29.0379 204.63 28.5947 204.979 28.2386C205.327 27.8788 205.753 27.6098 206.257 27.4318C206.761 27.25 207.318 27.1591 207.928 27.1591C208.348 27.1591 208.767 27.2083 209.183 27.3068C209.6 27.4053 209.981 27.5682 210.325 27.7955C210.67 28.0189 210.946 28.3239 211.155 28.7102C211.367 29.0966 211.473 29.5795 211.473 30.1591V36H209.496V34.8011H209.428C209.303 35.0436 209.126 35.2708 208.899 35.483C208.676 35.6913 208.393 35.8598 208.053 35.9886C207.715 36.1136 207.32 36.1761 206.865 36.1761ZM207.399 34.6648C207.812 34.6648 208.17 34.5833 208.473 34.4205C208.776 34.2538 209.009 34.0341 209.172 33.7614C209.339 33.4886 209.422 33.1913 209.422 32.8693V31.8409C209.357 31.8939 209.248 31.9432 209.092 31.9886C208.941 32.0341 208.77 32.0739 208.581 32.108C208.392 32.142 208.204 32.1723 208.018 32.1989C207.833 32.2254 207.672 32.2481 207.536 32.267C207.229 32.3087 206.954 32.3769 206.712 32.4716C206.469 32.5663 206.278 32.6989 206.138 32.8693C205.998 33.036 205.928 33.2519 205.928 33.517C205.928 33.8958 206.066 34.1818 206.342 34.375C206.619 34.5682 206.971 34.6648 207.399 34.6648ZM215.598 24.3636V36H213.541V24.3636H215.598ZM221.773 36V24.3636H226.136C227.03 24.3636 227.78 24.5189 228.386 24.8295C228.996 25.1402 229.456 25.5758 229.767 26.1364C230.081 26.6932 230.239 27.3428 230.239 28.0852C230.239 28.8314 230.08 29.4792 229.761 30.0284C229.447 30.5739 228.983 30.9962 228.369 31.2955C227.756 31.5909 227.002 31.7386 226.108 31.7386H223V29.9886H225.824C226.347 29.9886 226.775 29.9167 227.108 29.7727C227.441 29.625 227.688 29.411 227.847 29.1307C228.009 28.8466 228.091 28.4981 228.091 28.0852C228.091 27.6723 228.009 27.3201 227.847 27.0284C227.684 26.733 227.436 26.5095 227.102 26.358C226.769 26.2027 226.339 26.125 225.812 26.125H223.881V36H221.773ZM227.784 30.7273L230.665 36H228.312L225.483 30.7273H227.784ZM234.599 36.1761C234.046 36.1761 233.548 36.0777 233.105 35.8807C232.666 35.6799 232.317 35.3845 232.06 34.9943C231.806 34.6042 231.679 34.1231 231.679 33.5511C231.679 33.0587 231.77 32.6515 231.952 32.3295C232.134 32.0076 232.382 31.75 232.696 31.5568C233.01 31.3636 233.365 31.2178 233.759 31.1193C234.156 31.017 234.567 30.9432 234.991 30.8977C235.503 30.8447 235.918 30.7973 236.236 30.7557C236.554 30.7102 236.785 30.642 236.929 30.5511C237.077 30.4564 237.151 30.3106 237.151 30.1136V30.0795C237.151 29.6515 237.024 29.3201 236.77 29.0852C236.516 28.8504 236.151 28.733 235.673 28.733C235.17 28.733 234.77 28.8428 234.474 29.0625C234.183 29.2822 233.986 29.5417 233.884 29.8409L231.963 29.5682C232.115 29.0379 232.365 28.5947 232.713 28.2386C233.062 27.8788 233.488 27.6098 233.991 27.4318C234.495 27.25 235.052 27.1591 235.662 27.1591C236.082 27.1591 236.501 27.2083 236.918 27.3068C237.334 27.4053 237.715 27.5682 238.06 27.7955C238.404 28.0189 238.681 28.3239 238.889 28.7102C239.101 29.0966 239.207 29.5795 239.207 30.1591V36H237.23V34.8011H237.162C237.037 35.0436 236.861 35.2708 236.634 35.483C236.41 35.6913 236.128 35.8598 235.787 35.9886C235.45 36.1136 235.054 36.1761 234.599 36.1761ZM235.134 34.6648C235.546 34.6648 235.904 34.5833 236.207 34.4205C236.51 34.2538 236.743 34.0341 236.906 33.7614C237.073 33.4886 237.156 33.1913 237.156 32.8693V31.8409C237.092 31.8939 236.982 31.9432 236.827 31.9886C236.675 32.0341 236.505 32.0739 236.315 32.108C236.126 32.142 235.938 32.1723 235.753 32.1989C235.567 32.2254 235.406 32.2481 235.27 32.267C234.963 32.3087 234.688 32.3769 234.446 32.4716C234.204 32.5663 234.012 32.6989 233.872 32.8693C233.732 33.036 233.662 33.2519 233.662 33.517C233.662 33.8958 233.8 34.1818 234.077 34.375C234.353 34.5682 234.705 34.6648 235.134 34.6648ZM243.332 30.8864V36H241.276V27.2727H243.241V28.7557H243.344C243.545 28.267 243.865 27.8788 244.304 27.5909C244.747 27.303 245.295 27.1591 245.946 27.1591C246.548 27.1591 247.073 27.2879 247.52 27.5455C247.971 27.803 248.319 28.1761 248.565 28.6648C248.815 29.1534 248.938 29.7462 248.935 30.4432V36H246.878V30.7614C246.878 30.178 246.726 29.7216 246.423 29.392C246.124 29.0625 245.709 28.8977 245.179 28.8977C244.819 28.8977 244.499 28.9773 244.219 29.1364C243.942 29.2917 243.724 29.517 243.565 29.8125C243.41 30.108 243.332 30.4659 243.332 30.8864ZM254.821 39.4545C254.082 39.4545 253.448 39.3542 252.918 39.1534C252.387 38.9564 251.961 38.6913 251.639 38.358C251.317 38.0246 251.094 37.6553 250.969 37.25L252.821 36.8011C252.904 36.9716 253.026 37.1402 253.185 37.3068C253.344 37.4773 253.558 37.6174 253.827 37.7273C254.099 37.8409 254.442 37.8977 254.855 37.8977C255.438 37.8977 255.921 37.7557 256.304 37.4716C256.687 37.1913 256.878 36.7292 256.878 36.0852V34.4318H256.776C256.67 34.6439 256.514 34.8617 256.31 35.0852C256.109 35.3087 255.842 35.4962 255.509 35.6477C255.179 35.7992 254.764 35.875 254.264 35.875C253.594 35.875 252.986 35.7178 252.44 35.4034C251.899 35.0852 251.467 34.6117 251.145 33.983C250.827 33.3504 250.668 32.5587 250.668 31.608C250.668 30.6496 250.827 29.8409 251.145 29.1818C251.467 28.5189 251.901 28.017 252.446 27.6761C252.991 27.3314 253.599 27.1591 254.27 27.1591C254.781 27.1591 255.202 27.2462 255.531 27.4205C255.865 27.5909 256.13 27.7973 256.327 28.0398C256.524 28.2784 256.673 28.5038 256.776 28.7159H256.889V27.2727H258.918V36.142C258.918 36.8883 258.74 37.5057 258.384 37.9943C258.027 38.483 257.541 38.8485 256.923 39.0909C256.306 39.3333 255.605 39.4545 254.821 39.4545ZM254.838 34.2614C255.274 34.2614 255.645 34.1553 255.952 33.9432C256.259 33.7311 256.491 33.4261 256.651 33.0284C256.81 32.6307 256.889 32.1534 256.889 31.5966C256.889 31.0473 256.81 30.5663 256.651 30.1534C256.495 29.7405 256.264 29.4205 255.957 29.1932C255.654 28.9621 255.281 28.8466 254.838 28.8466C254.38 28.8466 253.997 28.9659 253.69 29.2045C253.384 29.4432 253.152 29.7708 252.997 30.1875C252.842 30.6004 252.764 31.0701 252.764 31.5966C252.764 32.1307 252.842 32.5985 252.997 33C253.156 33.3977 253.389 33.7083 253.696 33.9318C254.007 34.1515 254.387 34.2614 254.838 34.2614ZM264.889 36.1705C264.014 36.1705 263.259 35.9886 262.622 35.625C261.99 35.2576 261.503 34.7386 261.162 34.0682C260.821 33.3939 260.651 32.6004 260.651 31.6875C260.651 30.7898 260.821 30.0019 261.162 29.3239C261.507 28.642 261.988 28.1117 262.605 27.733C263.223 27.3504 263.948 27.1591 264.781 27.1591C265.319 27.1591 265.827 27.2462 266.304 27.4205C266.785 27.5909 267.209 27.8561 267.577 28.2159C267.948 28.5758 268.24 29.0341 268.452 29.5909C268.664 30.1439 268.77 30.803 268.77 31.5682V32.1989H261.616V30.8125H266.798C266.795 30.4186 266.709 30.0682 266.543 29.7614C266.376 29.4508 266.143 29.2064 265.844 29.0284C265.548 28.8504 265.204 28.7614 264.81 28.7614C264.389 28.7614 264.02 28.8636 263.702 29.0682C263.384 29.2689 263.135 29.5341 262.957 29.8636C262.783 30.1894 262.694 30.5473 262.69 30.9375V32.1477C262.69 32.6553 262.783 33.0909 262.969 33.4545C263.154 33.8144 263.414 34.0909 263.747 34.2841C264.08 34.4735 264.471 34.5682 264.918 34.5682C265.217 34.5682 265.488 34.5265 265.73 34.4432C265.973 34.3561 266.183 34.2292 266.361 34.0625C266.539 33.8958 266.673 33.6894 266.764 33.4432L268.685 33.6591C268.563 34.1667 268.332 34.6098 267.991 34.9886C267.654 35.3636 267.223 35.6553 266.696 35.8636C266.17 36.0682 265.567 36.1705 264.889 36.1705Z" fill="#111928"/>
<path d="M333.148 36V24.3636H337.602C338.443 24.3636 339.142 24.4962 339.699 24.7614C340.259 25.0227 340.678 25.3807 340.955 25.8352C341.235 26.2898 341.375 26.8049 341.375 27.3807C341.375 27.8542 341.284 28.2595 341.102 28.5966C340.92 28.9299 340.676 29.2008 340.369 29.4091C340.062 29.6174 339.72 29.767 339.341 29.858V29.9716C339.754 29.9943 340.15 30.1212 340.528 30.3523C340.911 30.5795 341.223 30.9015 341.466 31.3182C341.708 31.7348 341.83 32.2386 341.83 32.8295C341.83 33.4318 341.684 33.9735 341.392 34.4545C341.1 34.9318 340.661 35.3087 340.074 35.5852C339.487 35.8617 338.748 36 337.858 36H333.148ZM335.256 34.2386H337.523C338.288 34.2386 338.839 34.0928 339.176 33.8011C339.517 33.5057 339.688 33.1269 339.688 32.6648C339.688 32.3201 339.602 32.0095 339.432 31.733C339.261 31.4527 339.019 31.233 338.705 31.0739C338.39 30.911 338.015 30.8295 337.58 30.8295H335.256V34.2386ZM335.256 29.3125H337.341C337.705 29.3125 338.032 29.2462 338.324 29.1136C338.616 28.9773 338.845 28.786 339.011 28.5398C339.182 28.2898 339.267 27.9943 339.267 27.6534C339.267 27.2027 339.108 26.8314 338.79 26.5398C338.475 26.2481 338.008 26.1023 337.386 26.1023H335.256V29.3125ZM347.379 36.1705C346.527 36.1705 345.788 35.983 345.163 35.608C344.538 35.233 344.054 34.7083 343.709 34.0341C343.368 33.3598 343.197 32.572 343.197 31.6705C343.197 30.7689 343.368 29.9792 343.709 29.3011C344.054 28.6231 344.538 28.0966 345.163 27.7216C345.788 27.3466 346.527 27.1591 347.379 27.1591C348.232 27.1591 348.97 27.3466 349.595 27.7216C350.22 28.0966 350.703 28.6231 351.044 29.3011C351.389 29.9792 351.561 30.7689 351.561 31.6705C351.561 32.572 351.389 33.3598 351.044 34.0341C350.703 34.7083 350.22 35.233 349.595 35.608C348.97 35.983 348.232 36.1705 347.379 36.1705ZM347.391 34.5227C347.853 34.5227 348.239 34.3958 348.55 34.142C348.86 33.8845 349.091 33.5398 349.243 33.108C349.398 32.6761 349.476 32.1951 349.476 31.6648C349.476 31.1307 349.398 30.6477 349.243 30.2159C349.091 29.7803 348.86 29.4337 348.55 29.1761C348.239 28.9186 347.853 28.7898 347.391 28.7898C346.917 28.7898 346.523 28.9186 346.209 29.1761C345.898 29.4337 345.665 29.7803 345.51 30.2159C345.358 30.6477 345.283 31.1307 345.283 31.6648C345.283 32.1951 345.358 32.6761 345.51 33.108C345.665 33.5398 345.898 33.8845 346.209 34.142C346.523 34.3958 346.917 34.5227 347.391 34.5227ZM353.307 36V27.2727H355.301V28.7273H355.392C355.551 28.2235 355.824 27.8352 356.21 27.5625C356.6 27.286 357.045 27.1477 357.545 27.1477C357.659 27.1477 357.786 27.1534 357.926 27.1648C358.07 27.1723 358.189 27.1856 358.284 27.2045V29.0966C358.197 29.0663 358.059 29.0398 357.869 29.017C357.684 28.9905 357.504 28.9773 357.33 28.9773C356.955 28.9773 356.617 29.0587 356.318 29.2216C356.023 29.3807 355.79 29.6023 355.619 29.8864C355.449 30.1705 355.364 30.4981 355.364 30.8693V36H353.307ZM362.53 36.1534C361.844 36.1534 361.231 35.9773 360.689 35.625C360.147 35.2727 359.719 34.7614 359.405 34.0909C359.09 33.4205 358.933 32.6061 358.933 31.6477C358.933 30.678 359.092 29.8598 359.411 29.1932C359.732 28.5227 360.166 28.017 360.712 27.6761C361.257 27.3314 361.865 27.1591 362.536 27.1591C363.047 27.1591 363.467 27.2462 363.797 27.4205C364.126 27.5909 364.388 27.7973 364.581 28.0398C364.774 28.2784 364.924 28.5038 365.03 28.7159H365.115V24.3636H367.178V36H365.155V34.625H365.03C364.924 34.8371 364.77 35.0625 364.57 35.3011C364.369 35.536 364.104 35.7367 363.774 35.9034C363.445 36.0701 363.03 36.1534 362.53 36.1534ZM363.104 34.4659C363.539 34.4659 363.911 34.3485 364.217 34.1136C364.524 33.875 364.757 33.5436 364.916 33.1193C365.075 32.6951 365.155 32.2008 365.155 31.6364C365.155 31.072 365.075 30.5814 364.916 30.1648C364.761 29.7481 364.53 29.4242 364.223 29.1932C363.92 28.9621 363.547 28.8466 363.104 28.8466C362.645 28.8466 362.263 28.9659 361.956 29.2045C361.649 29.4432 361.418 29.7727 361.263 30.1932C361.107 30.6136 361.03 31.0947 361.03 31.6364C361.03 32.1818 361.107 32.6686 361.263 33.0966C361.422 33.5208 361.655 33.8561 361.962 34.1023C362.272 34.3447 362.653 34.4659 363.104 34.4659ZM373.233 36.1705C372.358 36.1705 371.602 35.9886 370.966 35.625C370.333 35.2576 369.847 34.7386 369.506 34.0682C369.165 33.3939 368.994 32.6004 368.994 31.6875C368.994 30.7898 369.165 30.0019 369.506 29.3239C369.85 28.642 370.331 28.1117 370.949 27.733C371.566 27.3504 372.292 27.1591 373.125 27.1591C373.663 27.1591 374.17 27.2462 374.648 27.4205C375.129 27.5909 375.553 27.8561 375.92 28.2159C376.292 28.5758 376.583 29.0341 376.795 29.5909C377.008 30.1439 377.114 30.803 377.114 31.5682V32.1989H369.96V30.8125H375.142C375.138 30.4186 375.053 30.0682 374.886 29.7614C374.72 29.4508 374.487 29.2064 374.188 29.0284C373.892 28.8504 373.547 28.7614 373.153 28.7614C372.733 28.7614 372.364 28.8636 372.045 29.0682C371.727 29.2689 371.479 29.5341 371.301 29.8636C371.127 30.1894 371.038 30.5473 371.034 30.9375V32.1477C371.034 32.6553 371.127 33.0909 371.312 33.4545C371.498 33.8144 371.758 34.0909 372.091 34.2841C372.424 34.4735 372.814 34.5682 373.261 34.5682C373.561 34.5682 373.831 34.5265 374.074 34.4432C374.316 34.3561 374.527 34.2292 374.705 34.0625C374.883 33.8958 375.017 33.6894 375.108 33.4432L377.028 33.6591C376.907 34.1667 376.676 34.6098 376.335 34.9886C375.998 35.3636 375.566 35.6553 375.04 35.8636C374.513 36.0682 373.911 36.1705 373.233 36.1705ZM378.854 36V27.2727H380.848V28.7273H380.939C381.098 28.2235 381.371 27.8352 381.757 27.5625C382.147 27.286 382.592 27.1477 383.092 27.1477C383.206 27.1477 383.333 27.1534 383.473 27.1648C383.617 27.1723 383.736 27.1856 383.831 27.2045V29.0966C383.744 29.0663 383.606 29.0398 383.416 29.017C383.231 28.9905 383.051 28.9773 382.876 28.9773C382.501 28.9773 382.164 29.0587 381.865 29.2216C381.57 29.3807 381.337 29.6023 381.166 29.8864C380.996 30.1705 380.911 30.4981 380.911 30.8693V36H378.854ZM387.254 24.3636V36H385.197V24.3636H387.254ZM389.369 36V27.2727H391.426V36H389.369ZM390.403 26.0341C390.078 26.0341 389.797 25.9261 389.562 25.7102C389.328 25.4905 389.21 25.2273 389.21 24.9205C389.21 24.6098 389.328 24.3466 389.562 24.1307C389.797 23.911 390.078 23.8011 390.403 23.8011C390.733 23.8011 391.013 23.911 391.244 24.1307C391.479 24.3466 391.597 24.6098 391.597 24.9205C391.597 25.2273 391.479 25.4905 391.244 25.7102C391.013 25.9261 390.733 26.0341 390.403 26.0341ZM395.598 30.8864V36H393.541V27.2727H395.507V28.7557H395.609C395.81 28.267 396.13 27.8788 396.57 27.5909C397.013 27.303 397.56 27.1591 398.212 27.1591C398.814 27.1591 399.339 27.2879 399.786 27.5455C400.236 27.803 400.585 28.1761 400.831 28.6648C401.081 29.1534 401.204 29.7462 401.2 30.4432V36H399.143V30.7614C399.143 30.178 398.992 29.7216 398.689 29.392C398.39 29.0625 397.975 28.8977 397.445 28.8977C397.085 28.8977 396.765 28.9773 396.484 29.1364C396.208 29.2917 395.99 29.517 395.831 29.8125C395.676 30.108 395.598 30.4659 395.598 30.8864ZM407.155 36.1705C406.28 36.1705 405.524 35.9886 404.888 35.625C404.255 35.2576 403.768 34.7386 403.428 34.0682C403.087 33.3939 402.916 32.6004 402.916 31.6875C402.916 30.7898 403.087 30.0019 403.428 29.3239C403.772 28.642 404.253 28.1117 404.871 27.733C405.488 27.3504 406.214 27.1591 407.047 27.1591C407.585 27.1591 408.092 27.2462 408.57 27.4205C409.051 27.5909 409.475 27.8561 409.842 28.2159C410.214 28.5758 410.505 29.0341 410.717 29.5909C410.929 30.1439 411.036 30.803 411.036 31.5682V32.1989H403.882V30.8125H409.064C409.06 30.4186 408.975 30.0682 408.808 29.7614C408.642 29.4508 408.409 29.2064 408.109 29.0284C407.814 28.8504 407.469 28.7614 407.075 28.7614C406.655 28.7614 406.286 28.8636 405.967 29.0682C405.649 29.2689 405.401 29.5341 405.223 29.8636C405.049 30.1894 404.96 30.5473 404.956 30.9375V32.1477C404.956 32.6553 405.049 33.0909 405.234 33.4545C405.42 33.8144 405.679 34.0909 406.013 34.2841C406.346 34.4735 406.736 34.5682 407.183 34.5682C407.482 34.5682 407.753 34.5265 407.996 34.4432C408.238 34.3561 408.448 34.2292 408.626 34.0625C408.804 33.8958 408.939 33.6894 409.03 33.4432L410.95 33.6591C410.829 34.1667 410.598 34.6098 410.257 34.9886C409.92 35.3636 409.488 35.6553 408.962 35.8636C408.435 36.0682 407.833 36.1705 407.155 36.1705ZM416.835 36V24.3636H421.199C422.093 24.3636 422.843 24.5189 423.449 24.8295C424.059 25.1402 424.519 25.5758 424.83 26.1364C425.144 26.6932 425.301 27.3428 425.301 28.0852C425.301 28.8314 425.142 29.4792 424.824 30.0284C424.509 30.5739 424.045 30.9962 423.432 31.2955C422.818 31.5909 422.064 31.7386 421.17 31.7386H418.062V29.9886H420.886C421.409 29.9886 421.837 29.9167 422.17 29.7727C422.504 29.625 422.75 29.411 422.909 29.1307C423.072 28.8466 423.153 28.4981 423.153 28.0852C423.153 27.6723 423.072 27.3201 422.909 27.0284C422.746 26.733 422.498 26.5095 422.165 26.358C421.831 26.2027 421.402 26.125 420.875 26.125H418.943V36H416.835ZM422.847 30.7273L425.727 36H423.375L420.545 30.7273H422.847ZM429.662 36.1761C429.109 36.1761 428.611 36.0777 428.168 35.8807C427.728 35.6799 427.38 35.3845 427.122 34.9943C426.868 34.6042 426.741 34.1231 426.741 33.5511C426.741 33.0587 426.832 32.6515 427.014 32.3295C427.196 32.0076 427.444 31.75 427.759 31.5568C428.073 31.3636 428.427 31.2178 428.821 31.1193C429.219 31.017 429.63 30.9432 430.054 30.8977C430.565 30.8447 430.98 30.7973 431.298 30.7557C431.616 30.7102 431.848 30.642 431.991 30.5511C432.139 30.4564 432.213 30.3106 432.213 30.1136V30.0795C432.213 29.6515 432.086 29.3201 431.832 29.0852C431.579 28.8504 431.213 28.733 430.736 28.733C430.232 28.733 429.832 28.8428 429.537 29.0625C429.245 29.2822 429.048 29.5417 428.946 29.8409L427.026 29.5682C427.177 29.0379 427.427 28.5947 427.776 28.2386C428.124 27.8788 428.55 27.6098 429.054 27.4318C429.558 27.25 430.115 27.1591 430.724 27.1591C431.145 27.1591 431.563 27.2083 431.98 27.3068C432.397 27.4053 432.777 27.5682 433.122 27.7955C433.467 28.0189 433.743 28.3239 433.952 28.7102C434.164 29.0966 434.27 29.5795 434.27 30.1591V36H432.293V34.8011H432.224C432.099 35.0436 431.923 35.2708 431.696 35.483C431.473 35.6913 431.19 35.8598 430.849 35.9886C430.512 36.1136 430.116 36.1761 429.662 36.1761ZM430.196 34.6648C430.609 34.6648 430.967 34.5833 431.27 34.4205C431.573 34.2538 431.806 34.0341 431.969 33.7614C432.135 33.4886 432.219 33.1913 432.219 32.8693V31.8409C432.154 31.8939 432.045 31.9432 431.889 31.9886C431.738 32.0341 431.567 32.0739 431.378 32.108C431.188 32.142 431.001 32.1723 430.815 32.1989C430.63 32.2254 430.469 32.2481 430.332 32.267C430.026 32.3087 429.751 32.3769 429.509 32.4716C429.266 32.5663 429.075 32.6989 428.935 32.8693C428.795 33.036 428.724 33.2519 428.724 33.517C428.724 33.8958 428.863 34.1818 429.139 34.375C429.416 34.5682 429.768 34.6648 430.196 34.6648ZM438.395 30.8864V36H436.338V27.2727H438.304V28.7557H438.406C438.607 28.267 438.927 27.8788 439.366 27.5909C439.81 27.303 440.357 27.1591 441.009 27.1591C441.611 27.1591 442.135 27.2879 442.582 27.5455C443.033 27.803 443.382 28.1761 443.628 28.6648C443.878 29.1534 444.001 29.7462 443.997 30.4432V36H441.94V30.7614C441.94 30.178 441.789 29.7216 441.486 29.392C441.187 29.0625 440.772 28.8977 440.241 28.8977C439.882 28.8977 439.562 28.9773 439.281 29.1364C439.005 29.2917 438.787 29.517 438.628 29.8125C438.473 30.108 438.395 30.4659 438.395 30.8864ZM449.884 39.4545C449.145 39.4545 448.51 39.3542 447.98 39.1534C447.45 38.9564 447.024 38.6913 446.702 38.358C446.38 38.0246 446.156 37.6553 446.031 37.25L447.884 36.8011C447.967 36.9716 448.088 37.1402 448.247 37.3068C448.406 37.4773 448.62 37.6174 448.889 37.7273C449.162 37.8409 449.505 37.8977 449.918 37.8977C450.501 37.8977 450.984 37.7557 451.366 37.4716C451.749 37.1913 451.94 36.7292 451.94 36.0852V34.4318H451.838C451.732 34.6439 451.577 34.8617 451.372 35.0852C451.171 35.3087 450.904 35.4962 450.571 35.6477C450.241 35.7992 449.827 35.875 449.327 35.875C448.656 35.875 448.048 35.7178 447.503 35.4034C446.961 35.0852 446.529 34.6117 446.207 33.983C445.889 33.3504 445.73 32.5587 445.73 31.608C445.73 30.6496 445.889 29.8409 446.207 29.1818C446.529 28.5189 446.963 28.017 447.509 27.6761C448.054 27.3314 448.662 27.1591 449.332 27.1591C449.844 27.1591 450.264 27.2462 450.594 27.4205C450.927 27.5909 451.192 27.7973 451.389 28.0398C451.586 28.2784 451.736 28.5038 451.838 28.7159H451.952V27.2727H453.98V36.142C453.98 36.8883 453.802 37.5057 453.446 37.9943C453.09 38.483 452.603 38.8485 451.986 39.0909C451.368 39.3333 450.668 39.4545 449.884 39.4545ZM449.901 34.2614C450.336 34.2614 450.707 34.1553 451.014 33.9432C451.321 33.7311 451.554 33.4261 451.713 33.0284C451.872 32.6307 451.952 32.1534 451.952 31.5966C451.952 31.0473 451.872 30.5663 451.713 30.1534C451.558 29.7405 451.327 29.4205 451.02 29.1932C450.717 28.9621 450.344 28.8466 449.901 28.8466C449.442 28.8466 449.06 28.9659 448.753 29.2045C448.446 29.4432 448.215 29.7708 448.06 30.1875C447.904 30.6004 447.827 31.0701 447.827 31.5966C447.827 32.1307 447.904 32.5985 448.06 33C448.219 33.3977 448.452 33.7083 448.759 33.9318C449.069 34.1515 449.45 34.2614 449.901 34.2614ZM459.952 36.1705C459.077 36.1705 458.321 35.9886 457.685 35.625C457.052 35.2576 456.565 34.7386 456.224 34.0682C455.884 33.3939 455.713 32.6004 455.713 31.6875C455.713 30.7898 455.884 30.0019 456.224 29.3239C456.569 28.642 457.05 28.1117 457.668 27.733C458.285 27.3504 459.01 27.1591 459.844 27.1591C460.382 27.1591 460.889 27.2462 461.366 27.4205C461.848 27.5909 462.272 27.8561 462.639 28.2159C463.01 28.5758 463.302 29.0341 463.514 29.5909C463.726 30.1439 463.832 30.803 463.832 31.5682V32.1989H456.679V30.8125H461.861C461.857 30.4186 461.772 30.0682 461.605 29.7614C461.438 29.4508 461.205 29.2064 460.906 29.0284C460.611 28.8504 460.266 28.7614 459.872 28.7614C459.452 28.7614 459.082 28.8636 458.764 29.0682C458.446 29.2689 458.198 29.5341 458.02 29.8636C457.846 30.1894 457.757 30.5473 457.753 30.9375V32.1477C457.753 32.6553 457.846 33.0909 458.031 33.4545C458.217 33.8144 458.476 34.0909 458.81 34.2841C459.143 34.4735 459.533 34.5682 459.98 34.5682C460.279 34.5682 460.55 34.5265 460.793 34.4432C461.035 34.3561 461.245 34.2292 461.423 34.0625C461.601 33.8958 461.736 33.6894 461.827 33.4432L463.747 33.6591C463.626 34.1667 463.395 34.6098 463.054 34.9886C462.717 35.3636 462.285 35.6553 461.759 35.8636C461.232 36.0682 460.63 36.1705 459.952 36.1705Z" fill="#111928"/>
<path d="M535.483 24.3636H537.591V31.9659C537.591 32.7992 537.394 33.5322 537 34.1648C536.61 34.7973 536.061 35.2917 535.352 35.6477C534.644 36 533.816 36.1761 532.869 36.1761C531.919 36.1761 531.089 36 530.381 35.6477C529.672 35.2917 529.123 34.7973 528.733 34.1648C528.343 33.5322 528.148 32.7992 528.148 31.9659V24.3636H530.256V31.7898C530.256 32.2746 530.362 32.7064 530.574 33.0852C530.79 33.464 531.093 33.7614 531.483 33.9773C531.873 34.1894 532.335 34.2955 532.869 34.2955C533.403 34.2955 533.866 34.1894 534.256 33.9773C534.65 33.7614 534.953 33.464 535.165 33.0852C535.377 32.7064 535.483 32.2746 535.483 31.7898V24.3636ZM541.848 30.8864V36H539.791V27.2727H541.757V28.7557H541.859C542.06 28.267 542.38 27.8788 542.82 27.5909C543.263 27.303 543.81 27.1591 544.462 27.1591C545.064 27.1591 545.589 27.2879 546.036 27.5455C546.486 27.803 546.835 28.1761 547.081 28.6648C547.331 29.1534 547.454 29.7462 547.45 30.4432V36H545.393V30.7614C545.393 30.178 545.242 29.7216 544.939 29.392C544.64 29.0625 544.225 28.8977 543.695 28.8977C543.335 28.8977 543.015 28.9773 542.734 29.1364C542.458 29.2917 542.24 29.517 542.081 29.8125C541.926 30.108 541.848 30.4659 541.848 30.8864ZM549.541 36V27.2727H551.598V36H549.541ZM550.575 26.0341C550.25 26.0341 549.969 25.9261 549.734 25.7102C549.5 25.4905 549.382 25.2273 549.382 24.9205C549.382 24.6098 549.5 24.3466 549.734 24.1307C549.969 23.911 550.25 23.8011 550.575 23.8011C550.905 23.8011 551.185 23.911 551.416 24.1307C551.651 24.3466 551.768 24.6098 551.768 24.9205C551.768 25.2273 551.651 25.4905 551.416 25.7102C551.185 25.9261 550.905 26.0341 550.575 26.0341ZM558.071 27.2727V28.8636H553.054V27.2727H558.071ZM554.293 25.1818H556.349V33.375C556.349 33.6515 556.391 33.8636 556.474 34.0114C556.562 34.1553 556.675 34.2538 556.815 34.3068C556.955 34.3598 557.111 34.3864 557.281 34.3864C557.41 34.3864 557.527 34.3769 557.634 34.358C557.743 34.339 557.827 34.322 557.884 34.3068L558.23 35.9148C558.12 35.9527 557.963 35.9943 557.759 36.0398C557.558 36.0852 557.312 36.1117 557.02 36.1193C556.505 36.1345 556.041 36.0568 555.628 35.8864C555.215 35.7121 554.887 35.4432 554.645 35.0795C554.406 34.7159 554.289 34.2614 554.293 33.7159V25.1818Z" fill="#111928"/>
<path d="M734.236 12.3636V24H732.128V14.4148H732.06L729.338 16.1534V14.2216L732.23 12.3636H734.236ZM741.327 24.1591C740.482 24.1591 739.732 24.017 739.077 23.733C738.425 23.4489 737.914 23.0606 737.543 22.5682C737.175 22.072 736.993 21.5095 736.997 20.8807C736.993 20.392 737.099 19.9432 737.315 19.5341C737.531 19.125 737.823 18.7841 738.19 18.5114C738.562 18.2348 738.974 18.0587 739.429 17.983V17.9034C738.83 17.7708 738.346 17.4659 737.974 16.9886C737.607 16.5076 737.425 15.9527 737.429 15.3239C737.425 14.7254 737.592 14.1913 737.929 13.7216C738.266 13.2519 738.728 12.8826 739.315 12.6136C739.902 12.3409 740.573 12.2045 741.327 12.2045C742.073 12.2045 742.738 12.3409 743.321 12.6136C743.908 12.8826 744.37 13.2519 744.707 13.7216C745.048 14.1913 745.219 14.7254 745.219 15.3239C745.219 15.9527 745.031 16.5076 744.656 16.9886C744.285 17.4659 743.806 17.7708 743.219 17.9034V17.983C743.673 18.0587 744.082 18.2348 744.446 18.5114C744.813 18.7841 745.105 19.125 745.321 19.5341C745.541 19.9432 745.651 20.392 745.651 20.8807C745.651 21.5095 745.465 22.072 745.094 22.5682C744.723 23.0606 744.211 23.4489 743.56 23.733C742.912 24.017 742.168 24.1591 741.327 24.1591ZM741.327 22.5341C741.762 22.5341 742.141 22.4602 742.463 22.3125C742.785 22.161 743.035 21.9489 743.213 21.6761C743.391 21.4034 743.482 21.089 743.486 20.733C743.482 20.3617 743.385 20.0341 743.196 19.75C743.01 19.4621 742.755 19.2367 742.429 19.0739C742.107 18.911 741.74 18.8295 741.327 18.8295C740.91 18.8295 740.539 18.911 740.213 19.0739C739.887 19.2367 739.63 19.4621 739.44 19.75C739.255 20.0341 739.164 20.3617 739.168 20.733C739.164 21.089 739.251 21.4034 739.429 21.6761C739.607 21.9451 739.857 22.1553 740.179 22.3068C740.505 22.4583 740.887 22.5341 741.327 22.5341ZM741.327 17.233C741.683 17.233 741.997 17.161 742.27 17.017C742.546 16.8731 742.764 16.6723 742.923 16.4148C743.082 16.1572 743.164 15.8598 743.168 15.5227C743.164 15.1894 743.084 14.8977 742.929 14.6477C742.774 14.3939 742.558 14.1989 742.281 14.0625C742.005 13.9223 741.687 13.8523 741.327 13.8523C740.959 13.8523 740.635 13.9223 740.355 14.0625C740.079 14.1989 739.863 14.3939 739.707 14.6477C739.556 14.8977 739.482 15.1894 739.486 15.5227C739.482 15.8598 739.558 16.1572 739.713 16.4148C739.872 16.6686 740.09 16.8693 740.366 17.017C740.647 17.161 740.967 17.233 741.327 17.233ZM756.192 12.3636H758.283V20.5455C758.279 21.2955 758.12 21.9413 757.805 22.483C757.491 23.0208 757.052 23.4356 756.487 23.7273C755.927 24.0152 755.273 24.1591 754.527 24.1591C753.845 24.1591 753.232 24.0379 752.686 23.7955C752.144 23.5492 751.714 23.1856 751.396 22.7045C751.078 22.2235 750.919 21.625 750.919 20.9091H753.016C753.019 21.2235 753.088 21.4943 753.22 21.7216C753.357 21.9489 753.544 22.1231 753.783 22.2443C754.021 22.3655 754.296 22.4261 754.607 22.4261C754.944 22.4261 755.23 22.3561 755.464 22.2159C755.699 22.072 755.877 21.8598 755.999 21.5795C756.124 21.2992 756.188 20.9545 756.192 20.5455V12.3636ZM766.041 20.3295V15.2727H768.098V24H766.104V22.4489H766.013C765.816 22.9375 765.492 23.3371 765.041 23.6477C764.594 23.9583 764.043 24.1136 763.388 24.1136C762.816 24.1136 762.31 23.9867 761.871 23.733C761.435 23.4754 761.094 23.1023 760.848 22.6136C760.602 22.1212 760.479 21.5265 760.479 20.8295V15.2727H762.536V20.5114C762.536 21.0644 762.687 21.5038 762.99 21.8295C763.293 22.1553 763.691 22.3182 764.183 22.3182C764.486 22.3182 764.78 22.2443 765.064 22.0966C765.348 21.9489 765.581 21.7292 765.763 21.4375C765.948 21.142 766.041 20.7727 766.041 20.3295ZM772.27 12.3636V24H770.213V12.3636H772.27ZM778.331 24V22.4773L782.371 18.517C782.757 18.1269 783.079 17.7803 783.337 17.4773C783.594 17.1742 783.787 16.8807 783.916 16.5966C784.045 16.3125 784.109 16.0095 784.109 15.6875C784.109 15.3201 784.026 15.0057 783.859 14.7443C783.693 14.4792 783.464 14.2746 783.172 14.1307C782.88 13.9867 782.549 13.9148 782.178 13.9148C781.795 13.9148 781.46 13.9943 781.172 14.1534C780.884 14.3087 780.661 14.5303 780.501 14.8182C780.346 15.1061 780.268 15.4489 780.268 15.8466H778.263C778.263 15.108 778.431 14.4659 778.768 13.9205C779.106 13.375 779.57 12.9527 780.161 12.6534C780.755 12.3542 781.437 12.2045 782.206 12.2045C782.986 12.2045 783.672 12.3504 784.263 12.642C784.854 12.9337 785.312 13.3333 785.638 13.8409C785.967 14.3485 786.132 14.928 786.132 15.5795C786.132 16.0152 786.049 16.4432 785.882 16.8636C785.715 17.2841 785.422 17.75 785.001 18.2614C784.585 18.7727 784 19.392 783.246 20.1193L781.24 22.1591V22.2386H786.308V24H778.331ZM792.57 24.2216C791.634 24.2216 790.831 23.9848 790.161 23.5114C789.494 23.0341 788.981 22.3466 788.621 21.4489C788.265 20.5473 788.087 19.4621 788.087 18.1932C788.09 16.9242 788.27 15.8447 788.626 14.9545C788.986 14.0606 789.5 13.3788 790.166 12.9091C790.837 12.4394 791.638 12.2045 792.57 12.2045C793.501 12.2045 794.303 12.4394 794.973 12.9091C795.643 13.3788 796.157 14.0606 796.513 14.9545C796.873 15.8485 797.053 16.928 797.053 18.1932C797.053 19.4659 796.873 20.553 796.513 21.4545C796.157 22.3523 795.643 23.0379 794.973 23.5114C794.306 23.9848 793.505 24.2216 792.57 24.2216ZM792.57 22.4432C793.297 22.4432 793.871 22.0852 794.291 21.3693C794.715 20.6496 794.928 19.5909 794.928 18.1932C794.928 17.2689 794.831 16.4924 794.638 15.8636C794.445 15.2348 794.172 14.7614 793.82 14.4432C793.467 14.1212 793.051 13.9602 792.57 13.9602C791.846 13.9602 791.274 14.3201 790.854 15.0398C790.433 15.7557 790.221 16.8068 790.217 18.1932C790.214 19.1212 790.306 19.9015 790.496 20.5341C790.689 21.1667 790.962 21.6439 791.314 21.9659C791.666 22.2841 792.085 22.4432 792.57 22.4432ZM798.94 24V22.4773L802.98 18.517C803.366 18.1269 803.688 17.7803 803.946 17.4773C804.204 17.1742 804.397 16.8807 804.526 16.5966C804.654 16.3125 804.719 16.0095 804.719 15.6875C804.719 15.3201 804.635 15.0057 804.469 14.7443C804.302 14.4792 804.073 14.2746 803.781 14.1307C803.49 13.9867 803.158 13.9148 802.787 13.9148C802.404 13.9148 802.069 13.9943 801.781 14.1534C801.493 14.3087 801.27 14.5303 801.111 14.8182C800.955 15.1061 800.878 15.4489 800.878 15.8466H798.872C798.872 15.108 799.041 14.4659 799.378 13.9205C799.715 13.375 800.179 12.9527 800.77 12.6534C801.365 12.3542 802.046 12.2045 802.815 12.2045C803.596 12.2045 804.281 12.3504 804.872 12.642C805.463 12.9337 805.921 13.3333 806.247 13.8409C806.577 14.3485 806.741 14.928 806.741 15.5795C806.741 16.0152 806.658 16.4432 806.491 16.8636C806.325 17.2841 806.031 17.75 805.611 18.2614C805.194 18.7727 804.609 19.392 803.855 20.1193L801.849 22.1591V22.2386H806.918V24H798.94ZM813.611 12.3636V24H811.503V14.4148H811.435L808.713 16.1534V14.2216L811.605 12.3636H813.611ZM739.726 48.2216C738.79 48.2216 737.987 47.9848 737.317 47.5114C736.65 47.0341 736.137 46.3466 735.777 45.4489C735.421 44.5473 735.243 43.4621 735.243 42.1932C735.247 40.9242 735.427 39.8447 735.783 38.9545C736.143 38.0606 736.656 37.3788 737.322 36.9091C737.993 36.4394 738.794 36.2045 739.726 36.2045C740.658 36.2045 741.459 36.4394 742.129 36.9091C742.8 37.3788 743.313 38.0606 743.669 38.9545C744.029 39.8485 744.209 40.928 744.209 42.1932C744.209 43.4659 744.029 44.553 743.669 45.4545C743.313 46.3523 742.8 47.0379 742.129 47.5114C741.463 47.9848 740.661 48.2216 739.726 48.2216ZM739.726 46.4432C740.453 46.4432 741.027 46.0852 741.447 45.3693C741.872 44.6496 742.084 43.5909 742.084 42.1932C742.084 41.2689 741.987 40.4924 741.794 39.8636C741.601 39.2348 741.328 38.7614 740.976 38.4432C740.624 38.1212 740.207 37.9602 739.726 37.9602C739.002 37.9602 738.43 38.3201 738.01 39.0398C737.589 39.7557 737.377 40.8068 737.374 42.1932C737.37 43.1212 737.463 43.9015 737.652 44.5341C737.845 45.1667 738.118 45.6439 738.47 45.9659C738.822 46.2841 739.241 46.4432 739.726 46.4432ZM746.21 48L751.159 38.2045V38.125H745.415V36.3636H753.341V38.1648L748.398 48H746.21ZM755.918 46.6023C755.573 46.6023 755.277 46.4811 755.031 46.2386C754.785 45.9924 754.664 45.697 754.668 45.3523C754.664 45.0114 754.785 44.7197 755.031 44.4773C755.277 44.2348 755.573 44.1136 755.918 44.1136C756.251 44.1136 756.541 44.2348 756.787 44.4773C757.037 44.7197 757.164 45.0114 757.168 45.3523C757.164 45.5833 757.103 45.7936 756.986 45.983C756.872 46.1723 756.721 46.3239 756.531 46.4375C756.346 46.5473 756.141 46.6023 755.918 46.6023ZM755.918 40.8352C755.573 40.8352 755.277 40.714 755.031 40.4716C754.785 40.2254 754.664 39.9299 754.668 39.5852C754.664 39.2443 754.785 38.9527 755.031 38.7102C755.277 38.464 755.573 38.3409 755.918 38.3409C756.251 38.3409 756.541 38.464 756.787 38.7102C757.037 38.9527 757.164 39.2443 757.168 39.5852C757.164 39.8125 757.103 40.0208 756.986 40.2102C756.872 40.3996 756.721 40.5511 756.531 40.6648C756.346 40.7784 756.141 40.8352 755.918 40.8352ZM759.058 45.8409V44.1648L763.996 36.3636H765.393V38.75H764.541L761.217 44.017V44.108H768.109V45.8409H759.058ZM764.609 48V45.3295L764.632 44.5795V36.3636H766.621V48H764.609ZM774.226 48.2216C773.29 48.2216 772.487 47.9848 771.817 47.5114C771.15 47.0341 770.637 46.3466 770.277 45.4489C769.921 44.5473 769.743 43.4621 769.743 42.1932C769.747 40.9242 769.927 39.8447 770.283 38.9545C770.643 38.0606 771.156 37.3788 771.822 36.9091C772.493 36.4394 773.294 36.2045 774.226 36.2045C775.158 36.2045 775.959 36.4394 776.629 36.9091C777.3 37.3788 777.813 38.0606 778.169 38.9545C778.529 39.8485 778.709 40.928 778.709 42.1932C778.709 43.4659 778.529 44.553 778.169 45.4545C777.813 46.3523 777.3 47.0379 776.629 47.5114C775.963 47.9848 775.161 48.2216 774.226 48.2216ZM774.226 46.4432C774.953 46.4432 775.527 46.0852 775.947 45.3693C776.372 44.6496 776.584 43.5909 776.584 42.1932C776.584 41.2689 776.487 40.4924 776.294 39.8636C776.101 39.2348 775.828 38.7614 775.476 38.4432C775.124 38.1212 774.707 37.9602 774.226 37.9602C773.502 37.9602 772.93 38.3201 772.51 39.0398C772.089 39.7557 771.877 40.8068 771.874 42.1932C771.87 43.1212 771.963 43.9015 772.152 44.5341C772.345 45.1667 772.618 45.6439 772.97 45.9659C773.322 46.2841 773.741 46.4432 774.226 46.4432ZM786.173 48H783.923L788.02 36.3636H790.622L794.724 48H792.474L789.366 38.75H789.276L786.173 48ZM786.247 43.4375H792.384V45.1307H786.247V43.4375ZM796.257 36.3636H798.837L802.291 44.7955H802.428L805.882 36.3636H808.462V48H806.439V40.0057H806.331L803.115 47.9659H801.604L798.388 39.9886H798.28V48H796.257V36.3636Z" fill="#111928"/>
<path d="M879.464 24V22.4773L883.504 18.517C883.89 18.1269 884.212 17.7803 884.469 17.4773C884.727 17.1742 884.92 16.8807 885.049 16.5966C885.178 16.3125 885.242 16.0095 885.242 15.6875C885.242 15.3201 885.159 15.0057 884.992 14.7443C884.826 14.4792 884.596 14.2746 884.305 14.1307C884.013 13.9867 883.682 13.9148 883.31 13.9148C882.928 13.9148 882.593 13.9943 882.305 14.1534C882.017 14.3087 881.793 14.5303 881.634 14.8182C881.479 15.1061 881.401 15.4489 881.401 15.8466H879.396C879.396 15.108 879.564 14.4659 879.901 13.9205C880.238 13.375 880.702 12.9527 881.293 12.6534C881.888 12.3542 882.57 12.2045 883.339 12.2045C884.119 12.2045 884.805 12.3504 885.396 12.642C885.987 12.9337 886.445 13.3333 886.771 13.8409C887.1 14.3485 887.265 14.928 887.265 15.5795C887.265 16.0152 887.182 16.4432 887.015 16.8636C886.848 17.2841 886.555 17.75 886.134 18.2614C885.718 18.7727 885.132 19.392 884.379 20.1193L882.373 22.1591V22.2386H887.441V24H879.464ZM893.538 24.1591C892.693 24.1591 891.943 24.017 891.288 23.733C890.636 23.4489 890.125 23.0606 889.754 22.5682C889.386 22.072 889.204 21.5095 889.208 20.8807C889.204 20.392 889.31 19.9432 889.526 19.5341C889.742 19.125 890.034 18.7841 890.401 18.5114C890.772 18.2348 891.185 18.0587 891.64 17.983V17.9034C891.041 17.7708 890.557 17.4659 890.185 16.9886C889.818 16.5076 889.636 15.9527 889.64 15.3239C889.636 14.7254 889.803 14.1913 890.14 13.7216C890.477 13.2519 890.939 12.8826 891.526 12.6136C892.113 12.3409 892.784 12.2045 893.538 12.2045C894.284 12.2045 894.949 12.3409 895.532 12.6136C896.119 12.8826 896.581 13.2519 896.918 13.7216C897.259 14.1913 897.43 14.7254 897.43 15.3239C897.43 15.9527 897.242 16.5076 896.867 16.9886C896.496 17.4659 896.017 17.7708 895.43 17.9034V17.983C895.884 18.0587 896.293 18.2348 896.657 18.5114C897.024 18.7841 897.316 19.125 897.532 19.5341C897.752 19.9432 897.862 20.392 897.862 20.8807C897.862 21.5095 897.676 22.072 897.305 22.5682C896.933 23.0606 896.422 23.4489 895.771 23.733C895.123 24.017 894.379 24.1591 893.538 24.1591ZM893.538 22.5341C893.973 22.5341 894.352 22.4602 894.674 22.3125C894.996 22.161 895.246 21.9489 895.424 21.6761C895.602 21.4034 895.693 21.089 895.697 20.733C895.693 20.3617 895.596 20.0341 895.407 19.75C895.221 19.4621 894.966 19.2367 894.64 19.0739C894.318 18.911 893.951 18.8295 893.538 18.8295C893.121 18.8295 892.75 18.911 892.424 19.0739C892.098 19.2367 891.841 19.4621 891.651 19.75C891.466 20.0341 891.375 20.3617 891.379 20.733C891.375 21.089 891.462 21.4034 891.64 21.6761C891.818 21.9451 892.068 22.1553 892.39 22.3068C892.716 22.4583 893.098 22.5341 893.538 22.5341ZM893.538 17.233C893.894 17.233 894.208 17.161 894.481 17.017C894.757 16.8731 894.975 16.6723 895.134 16.4148C895.293 16.1572 895.375 15.8598 895.379 15.5227C895.375 15.1894 895.295 14.8977 895.14 14.6477C894.985 14.3939 894.769 14.1989 894.492 14.0625C894.216 13.9223 893.897 13.8523 893.538 13.8523C893.17 13.8523 892.846 13.9223 892.566 14.0625C892.29 14.1989 892.074 14.3939 891.918 14.6477C891.767 14.8977 891.693 15.1894 891.697 15.5227C891.693 15.8598 891.769 16.1572 891.924 16.4148C892.083 16.6686 892.301 16.8693 892.577 17.017C892.858 17.161 893.178 17.233 893.538 17.233ZM914.21 18.1818C914.21 19.4356 913.975 20.5095 913.505 21.4034C913.039 22.2936 912.403 22.9754 911.596 23.4489C910.793 23.9223 909.882 24.1591 908.863 24.1591C907.844 24.1591 906.931 23.9223 906.124 23.4489C905.321 22.9716 904.685 22.2879 904.215 21.3977C903.749 20.5038 903.516 19.4318 903.516 18.1818C903.516 16.928 903.749 15.8561 904.215 14.9659C904.685 14.072 905.321 13.3883 906.124 12.9148C906.931 12.4413 907.844 12.2045 908.863 12.2045C909.882 12.2045 910.793 12.4413 911.596 12.9148C912.403 13.3883 913.039 14.072 913.505 14.9659C913.975 15.8561 914.21 16.928 914.21 18.1818ZM912.09 18.1818C912.09 17.2992 911.952 16.5549 911.675 15.9489C911.403 15.339 911.024 14.8788 910.539 14.5682C910.054 14.2538 909.496 14.0966 908.863 14.0966C908.23 14.0966 907.672 14.2538 907.187 14.5682C906.702 14.8788 906.321 15.339 906.045 15.9489C905.772 16.5549 905.636 17.2992 905.636 18.1818C905.636 19.0644 905.772 19.8106 906.045 20.4205C906.321 21.0265 906.702 21.4867 907.187 21.8011C907.672 22.1117 908.23 22.267 908.863 22.267C909.496 22.267 910.054 22.1117 910.539 21.8011C911.024 21.4867 911.403 21.0265 911.675 20.4205C911.952 19.8106 912.09 19.0644 912.09 18.1818ZM919.918 24.1705C919.047 24.1705 918.299 23.9792 917.674 23.5966C917.053 23.214 916.574 22.6856 916.237 22.0114C915.903 21.3333 915.737 20.553 915.737 19.6705C915.737 18.7841 915.907 18.0019 916.248 17.3239C916.589 16.642 917.07 16.1117 917.691 15.733C918.316 15.3504 919.055 15.1591 919.907 15.1591C920.615 15.1591 921.242 15.2898 921.788 15.5511C922.337 15.8087 922.774 16.1742 923.1 16.6477C923.426 17.1174 923.612 17.6667 923.657 18.2955H921.691C921.612 17.875 921.422 17.5246 921.123 17.2443C920.827 16.9602 920.432 16.8182 919.935 16.8182C919.515 16.8182 919.146 16.9318 918.827 17.1591C918.509 17.3826 918.261 17.7045 918.083 18.125C917.909 18.5455 917.822 19.0492 917.822 19.6364C917.822 20.2311 917.909 20.7424 918.083 21.1705C918.257 21.5947 918.502 21.9223 918.816 22.1534C919.134 22.3807 919.507 22.4943 919.935 22.4943C920.238 22.4943 920.509 22.4375 920.748 22.3239C920.99 22.2064 921.193 22.0379 921.356 21.8182C921.519 21.5985 921.63 21.3314 921.691 21.017H923.657C923.608 21.6345 923.426 22.1818 923.112 22.6591C922.797 23.1326 922.369 23.5038 921.827 23.7727C921.286 24.0379 920.649 24.1705 919.918 24.1705ZM929.704 15.2727V16.8636H924.687V15.2727H929.704ZM925.925 13.1818H927.982V21.375C927.982 21.6515 928.024 21.8636 928.107 22.0114C928.194 22.1553 928.308 22.2538 928.448 22.3068C928.588 22.3598 928.744 22.3864 928.914 22.3864C929.043 22.3864 929.16 22.3769 929.266 22.358C929.376 22.339 929.46 22.322 929.516 22.3068L929.863 23.9148C929.753 23.9527 929.596 23.9943 929.391 24.0398C929.191 24.0852 928.944 24.1117 928.653 24.1193C928.138 24.1345 927.674 24.0568 927.261 23.8864C926.848 23.7121 926.52 23.4432 926.278 23.0795C926.039 22.7159 925.922 22.2614 925.925 21.7159V13.1818ZM935.37 24V22.4773L939.41 18.517C939.796 18.1269 940.118 17.7803 940.376 17.4773C940.633 17.1742 940.826 16.8807 940.955 16.5966C941.084 16.3125 941.148 16.0095 941.148 15.6875C941.148 15.3201 941.065 15.0057 940.898 14.7443C940.732 14.4792 940.503 14.2746 940.211 14.1307C939.919 13.9867 939.588 13.9148 939.217 13.9148C938.834 13.9148 938.499 13.9943 938.211 14.1534C937.923 14.3087 937.7 14.5303 937.54 14.8182C937.385 15.1061 937.308 15.4489 937.308 15.8466H935.302C935.302 15.108 935.47 14.4659 935.808 13.9205C936.145 13.375 936.609 12.9527 937.2 12.6534C937.794 12.3542 938.476 12.2045 939.245 12.2045C940.025 12.2045 940.711 12.3504 941.302 12.642C941.893 12.9337 942.351 13.3333 942.677 13.8409C943.006 14.3485 943.171 14.928 943.171 15.5795C943.171 16.0152 943.088 16.4432 942.921 16.8636C942.754 17.2841 942.461 17.75 942.04 18.2614C941.624 18.7727 941.039 19.392 940.285 20.1193L938.279 22.1591V22.2386H943.347V24H935.37ZM949.609 24.2216C948.673 24.2216 947.87 23.9848 947.2 23.5114C946.533 23.0341 946.02 22.3466 945.66 21.4489C945.304 20.5473 945.126 19.4621 945.126 18.1932C945.129 16.9242 945.309 15.8447 945.665 14.9545C946.025 14.0606 946.539 13.3788 947.205 12.9091C947.876 12.4394 948.677 12.2045 949.609 12.2045C950.54 12.2045 951.342 12.4394 952.012 12.9091C952.683 13.3788 953.196 14.0606 953.552 14.9545C953.912 15.8485 954.092 16.928 954.092 18.1932C954.092 19.4659 953.912 20.553 953.552 21.4545C953.196 22.3523 952.683 23.0379 952.012 23.5114C951.345 23.9848 950.544 24.2216 949.609 24.2216ZM949.609 22.4432C950.336 22.4432 950.91 22.0852 951.33 21.3693C951.754 20.6496 951.967 19.5909 951.967 18.1932C951.967 17.2689 951.87 16.4924 951.677 15.8636C951.484 15.2348 951.211 14.7614 950.859 14.4432C950.506 14.1212 950.09 13.9602 949.609 13.9602C948.885 13.9602 948.313 14.3201 947.893 15.0398C947.472 15.7557 947.26 16.8068 947.256 18.1932C947.253 19.1212 947.345 19.9015 947.535 20.5341C947.728 21.1667 948.001 21.6439 948.353 21.9659C948.705 22.2841 949.124 22.4432 949.609 22.4432ZM955.979 24V22.4773L960.019 18.517C960.406 18.1269 960.728 17.7803 960.985 17.4773C961.243 17.1742 961.436 16.8807 961.565 16.5966C961.693 16.3125 961.758 16.0095 961.758 15.6875C961.758 15.3201 961.674 15.0057 961.508 14.7443C961.341 14.4792 961.112 14.2746 960.82 14.1307C960.529 13.9867 960.197 13.9148 959.826 13.9148C959.443 13.9148 959.108 13.9943 958.82 14.1534C958.532 14.3087 958.309 14.5303 958.15 14.8182C957.995 15.1061 957.917 15.4489 957.917 15.8466H955.911C955.911 15.108 956.08 14.4659 956.417 13.9205C956.754 13.375 957.218 12.9527 957.809 12.6534C958.404 12.3542 959.085 12.2045 959.854 12.2045C960.635 12.2045 961.32 12.3504 961.911 12.642C962.502 12.9337 962.96 13.3333 963.286 13.8409C963.616 14.3485 963.781 14.928 963.781 15.5795C963.781 16.0152 963.697 16.4432 963.531 16.8636C963.364 17.2841 963.07 17.75 962.65 18.2614C962.233 18.7727 961.648 19.392 960.894 20.1193L958.888 22.1591V22.2386H963.957V24H955.979ZM970.65 12.3636V24H968.542V14.4148H968.474L965.752 16.1534V14.2216L968.644 12.3636H970.65ZM893.226 48.2216C892.29 48.2216 891.487 47.9848 890.817 47.5114C890.15 47.0341 889.637 46.3466 889.277 45.4489C888.921 44.5473 888.743 43.4621 888.743 42.1932C888.747 40.9242 888.927 39.8447 889.283 38.9545C889.643 38.0606 890.156 37.3788 890.822 36.9091C891.493 36.4394 892.294 36.2045 893.226 36.2045C894.158 36.2045 894.959 36.4394 895.629 36.9091C896.3 37.3788 896.813 38.0606 897.169 38.9545C897.529 39.8485 897.709 40.928 897.709 42.1932C897.709 43.4659 897.529 44.553 897.169 45.4545C896.813 46.3523 896.3 47.0379 895.629 47.5114C894.963 47.9848 894.161 48.2216 893.226 48.2216ZM893.226 46.4432C893.953 46.4432 894.527 46.0852 894.947 45.3693C895.372 44.6496 895.584 43.5909 895.584 42.1932C895.584 41.2689 895.487 40.4924 895.294 39.8636C895.101 39.2348 894.828 38.7614 894.476 38.4432C894.124 38.1212 893.707 37.9602 893.226 37.9602C892.502 37.9602 891.93 38.3201 891.51 39.0398C891.089 39.7557 890.877 40.8068 890.874 42.1932C890.87 43.1212 890.963 43.9015 891.152 44.5341C891.345 45.1667 891.618 45.6439 891.97 45.9659C892.322 46.2841 892.741 46.4432 893.226 46.4432ZM899.71 48L904.659 38.2045V38.125H898.915V36.3636H906.841V38.1648L901.898 48H899.71ZM909.418 46.6023C909.073 46.6023 908.777 46.4811 908.531 46.2386C908.285 45.9924 908.164 45.697 908.168 45.3523C908.164 45.0114 908.285 44.7197 908.531 44.4773C908.777 44.2348 909.073 44.1136 909.418 44.1136C909.751 44.1136 910.041 44.2348 910.287 44.4773C910.537 44.7197 910.664 45.0114 910.668 45.3523C910.664 45.5833 910.603 45.7936 910.486 45.983C910.372 46.1723 910.221 46.3239 910.031 46.4375C909.846 46.5473 909.641 46.6023 909.418 46.6023ZM909.418 40.8352C909.073 40.8352 908.777 40.714 908.531 40.4716C908.285 40.2254 908.164 39.9299 908.168 39.5852C908.164 39.2443 908.285 38.9527 908.531 38.7102C908.777 38.464 909.073 38.3409 909.418 38.3409C909.751 38.3409 910.041 38.464 910.287 38.7102C910.537 38.9527 910.664 39.2443 910.668 39.5852C910.664 39.8125 910.603 40.0208 910.486 40.2102C910.372 40.3996 910.221 40.5511 910.031 40.6648C909.846 40.7784 909.641 40.8352 909.418 40.8352ZM912.558 45.8409V44.1648L917.496 36.3636H918.893V38.75H918.041L914.717 44.017V44.108H921.609V45.8409H912.558ZM918.109 48V45.3295L918.132 44.5795V36.3636H920.121V48H918.109ZM927.726 48.2216C926.79 48.2216 925.987 47.9848 925.317 47.5114C924.65 47.0341 924.137 46.3466 923.777 45.4489C923.421 44.5473 923.243 43.4621 923.243 42.1932C923.247 40.9242 923.427 39.8447 923.783 38.9545C924.143 38.0606 924.656 37.3788 925.322 36.9091C925.993 36.4394 926.794 36.2045 927.726 36.2045C928.658 36.2045 929.459 36.4394 930.129 36.9091C930.8 37.3788 931.313 38.0606 931.669 38.9545C932.029 39.8485 932.209 40.928 932.209 42.1932C932.209 43.4659 932.029 44.553 931.669 45.4545C931.313 46.3523 930.8 47.0379 930.129 47.5114C929.463 47.9848 928.661 48.2216 927.726 48.2216ZM927.726 46.4432C928.453 46.4432 929.027 46.0852 929.447 45.3693C929.872 44.6496 930.084 43.5909 930.084 42.1932C930.084 41.2689 929.987 40.4924 929.794 39.8636C929.601 39.2348 929.328 38.7614 928.976 38.4432C928.624 38.1212 928.207 37.9602 927.726 37.9602C927.002 37.9602 926.43 38.3201 926.01 39.0398C925.589 39.7557 925.377 40.8068 925.374 42.1932C925.37 43.1212 925.463 43.9015 925.652 44.5341C925.845 45.1667 926.118 45.6439 926.47 45.9659C926.822 46.2841 927.241 46.4432 927.726 46.4432ZM939.673 48H937.423L941.52 36.3636H944.122L948.224 48H945.974L942.866 38.75H942.776L939.673 48ZM939.747 43.4375H945.884V45.1307H939.747V43.4375ZM949.757 36.3636H952.337L955.791 44.7955H955.928L959.382 36.3636H961.962V48H959.939V40.0057H959.831L956.615 47.9659H955.104L951.888 39.9886H951.78V48H949.757V36.3636Z" fill="#111928"/>
<path d="M1040.19 24V22.4773L1044.23 18.517C1044.62 18.1269 1044.94 17.7803 1045.2 17.4773C1045.45 17.1742 1045.65 16.8807 1045.78 16.5966C1045.9 16.3125 1045.97 16.0095 1045.97 15.6875C1045.97 15.3201 1045.89 15.0057 1045.72 14.7443C1045.55 14.4792 1045.32 14.2746 1045.03 14.1307C1044.74 13.9867 1044.41 13.9148 1044.04 13.9148C1043.65 13.9148 1043.32 13.9943 1043.03 14.1534C1042.74 14.3087 1042.52 14.5303 1042.36 14.8182C1042.21 15.1061 1042.13 15.4489 1042.13 15.8466H1040.12C1040.12 15.108 1040.29 14.4659 1040.63 13.9205C1040.96 13.375 1041.43 12.9527 1042.02 12.6534C1042.61 12.3542 1043.3 12.2045 1044.07 12.2045C1044.85 12.2045 1045.53 12.3504 1046.12 12.642C1046.71 12.9337 1047.17 13.3333 1047.5 13.8409C1047.83 14.3485 1047.99 14.928 1047.99 15.5795C1047.99 16.0152 1047.91 16.4432 1047.74 16.8636C1047.57 17.2841 1047.28 17.75 1046.86 18.2614C1046.44 18.7727 1045.86 19.392 1045.11 20.1193L1043.1 22.1591V22.2386H1048.17V24H1040.19ZM1054.43 24.2216C1053.49 24.2216 1052.69 23.9848 1052.02 23.5114C1051.35 23.0341 1050.84 22.3466 1050.48 21.4489C1050.12 20.5473 1049.95 19.4621 1049.95 18.1932C1049.95 16.9242 1050.13 15.8447 1050.49 14.9545C1050.85 14.0606 1051.36 13.3788 1052.03 12.9091C1052.7 12.4394 1053.5 12.2045 1054.43 12.2045C1055.36 12.2045 1056.16 12.4394 1056.83 12.9091C1057.5 13.3788 1058.02 14.0606 1058.37 14.9545C1058.73 15.8485 1058.91 16.928 1058.91 18.1932C1058.91 19.4659 1058.73 20.553 1058.37 21.4545C1058.02 22.3523 1057.5 23.0379 1056.83 23.5114C1056.17 23.9848 1055.36 24.2216 1054.43 24.2216ZM1054.43 22.4432C1055.16 22.4432 1055.73 22.0852 1056.15 21.3693C1056.57 20.6496 1056.79 19.5909 1056.79 18.1932C1056.79 17.2689 1056.69 16.4924 1056.5 15.8636C1056.3 15.2348 1056.03 14.7614 1055.68 14.4432C1055.33 14.1212 1054.91 13.9602 1054.43 13.9602C1053.71 13.9602 1053.13 14.3201 1052.71 15.0398C1052.29 15.7557 1052.08 16.8068 1052.08 18.1932C1052.07 19.1212 1052.17 19.9015 1052.36 20.5341C1052.55 21.1667 1052.82 21.6439 1053.17 21.9659C1053.53 22.2841 1053.94 22.4432 1054.43 22.4432ZM1069.47 12.3636H1071.56V20.5455C1071.56 21.2955 1071.4 21.9413 1071.09 22.483C1070.77 23.0208 1070.33 23.4356 1069.77 23.7273C1069.21 24.0152 1068.55 24.1591 1067.81 24.1591C1067.13 24.1591 1066.51 24.0379 1065.97 23.7955C1065.43 23.5492 1065 23.1856 1064.68 22.7045C1064.36 22.2235 1064.2 21.625 1064.2 20.9091H1066.3C1066.3 21.2235 1066.37 21.4943 1066.5 21.7216C1066.64 21.9489 1066.83 22.1231 1067.06 22.2443C1067.3 22.3655 1067.58 22.4261 1067.89 22.4261C1068.22 22.4261 1068.51 22.3561 1068.75 22.2159C1068.98 22.072 1069.16 21.8598 1069.28 21.5795C1069.4 21.2992 1069.47 20.9545 1069.47 20.5455V12.3636ZM1076.27 24.1761C1075.72 24.1761 1075.22 24.0777 1074.78 23.8807C1074.34 23.6799 1073.99 23.3845 1073.73 22.9943C1073.48 22.6042 1073.35 22.1231 1073.35 21.5511C1073.35 21.0587 1073.44 20.6515 1073.62 20.3295C1073.81 20.0076 1074.05 19.75 1074.37 19.5568C1074.68 19.3636 1075.04 19.2178 1075.43 19.1193C1075.83 19.017 1076.24 18.9432 1076.66 18.8977C1077.17 18.8447 1077.59 18.7973 1077.91 18.7557C1078.23 18.7102 1078.46 18.642 1078.6 18.5511C1078.75 18.4564 1078.82 18.3106 1078.82 18.1136V18.0795C1078.82 17.6515 1078.7 17.3201 1078.44 17.0852C1078.19 16.8504 1077.82 16.733 1077.35 16.733C1076.84 16.733 1076.44 16.8428 1076.15 17.0625C1075.85 17.2822 1075.66 17.5417 1075.56 17.8409L1073.63 17.5682C1073.79 17.0379 1074.04 16.5947 1074.38 16.2386C1074.73 15.8788 1075.16 15.6098 1075.66 15.4318C1076.17 15.25 1076.72 15.1591 1077.33 15.1591C1077.75 15.1591 1078.17 15.2083 1078.59 15.3068C1079.01 15.4053 1079.39 15.5682 1079.73 15.7955C1080.08 16.0189 1080.35 16.3239 1080.56 16.7102C1080.77 17.0966 1080.88 17.5795 1080.88 18.1591V24H1078.9V22.8011H1078.83C1078.71 23.0436 1078.53 23.2708 1078.31 23.483C1078.08 23.6913 1077.8 23.8598 1077.46 23.9886C1077.12 24.1136 1076.73 24.1761 1076.27 24.1761ZM1076.81 22.6648C1077.22 22.6648 1077.58 22.5833 1077.88 22.4205C1078.18 22.2538 1078.42 22.0341 1078.58 21.7614C1078.74 21.4886 1078.83 21.1913 1078.83 20.8693V19.8409C1078.76 19.8939 1078.65 19.9432 1078.5 19.9886C1078.35 20.0341 1078.18 20.0739 1077.99 20.108C1077.8 20.142 1077.61 20.1723 1077.42 20.1989C1077.24 20.2254 1077.08 20.2481 1076.94 20.267C1076.63 20.3087 1076.36 20.3769 1076.12 20.4716C1075.88 20.5663 1075.68 20.6989 1075.54 20.8693C1075.4 21.036 1075.33 21.2519 1075.33 21.517C1075.33 21.8958 1075.47 22.1818 1075.75 22.375C1076.03 22.5682 1076.38 22.6648 1076.81 22.6648ZM1085 18.8864V24H1082.95V15.2727H1084.91V16.7557H1085.02C1085.22 16.267 1085.54 15.8788 1085.98 15.5909C1086.42 15.303 1086.97 15.1591 1087.62 15.1591C1088.22 15.1591 1088.74 15.2879 1089.19 15.5455C1089.64 15.803 1089.99 16.1761 1090.24 16.6648C1090.49 17.1534 1090.61 17.7462 1090.61 18.4432V24H1088.55V18.7614C1088.55 18.178 1088.4 17.7216 1088.1 17.392C1087.8 17.0625 1087.38 16.8977 1086.85 16.8977C1086.49 16.8977 1086.17 16.9773 1085.89 17.1364C1085.61 17.2917 1085.4 17.517 1085.24 17.8125C1085.08 18.108 1085 18.4659 1085 18.8864ZM1096.64 24V22.4773L1100.68 18.517C1101.07 18.1269 1101.39 17.7803 1101.65 17.4773C1101.91 17.1742 1102.1 16.8807 1102.23 16.5966C1102.36 16.3125 1102.42 16.0095 1102.42 15.6875C1102.42 15.3201 1102.34 15.0057 1102.17 14.7443C1102.01 14.4792 1101.78 14.2746 1101.48 14.1307C1101.19 13.9867 1100.86 13.9148 1100.49 13.9148C1100.11 13.9148 1099.77 13.9943 1099.48 14.1534C1099.2 14.3087 1098.97 14.5303 1098.81 14.8182C1098.66 15.1061 1098.58 15.4489 1098.58 15.8466H1096.58C1096.58 15.108 1096.74 14.4659 1097.08 13.9205C1097.42 13.375 1097.88 12.9527 1098.47 12.6534C1099.07 12.3542 1099.75 12.2045 1100.52 12.2045C1101.3 12.2045 1101.98 12.3504 1102.58 12.642C1103.17 12.9337 1103.62 13.3333 1103.95 13.8409C1104.28 14.3485 1104.44 14.928 1104.44 15.5795C1104.44 16.0152 1104.36 16.4432 1104.19 16.8636C1104.03 17.2841 1103.73 17.75 1103.31 18.2614C1102.9 18.7727 1102.31 19.392 1101.56 20.1193L1099.55 22.1591V22.2386H1104.62V24H1096.64ZM1110.88 24.2216C1109.95 24.2216 1109.14 23.9848 1108.47 23.5114C1107.81 23.0341 1107.29 22.3466 1106.93 21.4489C1106.58 20.5473 1106.4 19.4621 1106.4 18.1932C1106.4 16.9242 1106.58 15.8447 1106.94 14.9545C1107.3 14.0606 1107.81 13.3788 1108.48 12.9091C1109.15 12.4394 1109.95 12.2045 1110.88 12.2045C1111.81 12.2045 1112.62 12.4394 1113.29 12.9091C1113.96 13.3788 1114.47 14.0606 1114.83 14.9545C1115.19 15.8485 1115.37 16.928 1115.37 18.1932C1115.37 19.4659 1115.19 20.553 1114.83 21.4545C1114.47 22.3523 1113.96 23.0379 1113.29 23.5114C1112.62 23.9848 1111.82 24.2216 1110.88 24.2216ZM1110.88 22.4432C1111.61 22.4432 1112.18 22.0852 1112.6 21.3693C1113.03 20.6496 1113.24 19.5909 1113.24 18.1932C1113.24 17.2689 1113.14 16.4924 1112.95 15.8636C1112.76 15.2348 1112.48 14.7614 1112.13 14.4432C1111.78 14.1212 1111.36 13.9602 1110.88 13.9602C1110.16 13.9602 1109.59 14.3201 1109.17 15.0398C1108.75 15.7557 1108.53 16.8068 1108.53 18.1932C1108.53 19.1212 1108.62 19.9015 1108.81 20.5341C1109 21.1667 1109.27 21.6439 1109.63 21.9659C1109.98 22.2841 1110.4 22.4432 1110.88 22.4432ZM1117.25 24V22.4773L1121.29 18.517C1121.68 18.1269 1122 17.7803 1122.26 17.4773C1122.52 17.1742 1122.71 16.8807 1122.84 16.5966C1122.97 16.3125 1123.03 16.0095 1123.03 15.6875C1123.03 15.3201 1122.95 15.0057 1122.78 14.7443C1122.61 14.4792 1122.39 14.2746 1122.09 14.1307C1121.8 13.9867 1121.47 13.9148 1121.1 13.9148C1120.72 13.9148 1120.38 13.9943 1120.09 14.1534C1119.81 14.3087 1119.58 14.5303 1119.42 14.8182C1119.27 15.1061 1119.19 15.4489 1119.19 15.8466H1117.18C1117.18 15.108 1117.35 14.4659 1117.69 13.9205C1118.03 13.375 1118.49 12.9527 1119.08 12.6534C1119.68 12.3542 1120.36 12.2045 1121.13 12.2045C1121.91 12.2045 1122.59 12.3504 1123.18 12.642C1123.78 12.9337 1124.23 13.3333 1124.56 13.8409C1124.89 14.3485 1125.05 14.928 1125.05 15.5795C1125.05 16.0152 1124.97 16.4432 1124.8 16.8636C1124.64 17.2841 1124.34 17.75 1123.92 18.2614C1123.51 18.7727 1122.92 19.392 1122.17 20.1193L1120.16 22.1591V22.2386H1125.23V24H1117.25ZM1131.92 12.3636V24H1129.82V14.4148H1129.75L1127.03 16.1534V14.2216L1129.92 12.3636H1131.92ZM1054.23 48.2216C1053.29 48.2216 1052.49 47.9848 1051.82 47.5114C1051.15 47.0341 1050.64 46.3466 1050.28 45.4489C1049.92 44.5473 1049.74 43.4621 1049.74 42.1932C1049.75 40.9242 1049.93 39.8447 1050.28 38.9545C1050.64 38.0606 1051.16 37.3788 1051.82 36.9091C1052.49 36.4394 1053.29 36.2045 1054.23 36.2045C1055.16 36.2045 1055.96 36.4394 1056.63 36.9091C1057.3 37.3788 1057.81 38.0606 1058.17 38.9545C1058.53 39.8485 1058.71 40.928 1058.71 42.1932C1058.71 43.4659 1058.53 44.553 1058.17 45.4545C1057.81 46.3523 1057.3 47.0379 1056.63 47.5114C1055.96 47.9848 1055.16 48.2216 1054.23 48.2216ZM1054.23 46.4432C1054.95 46.4432 1055.53 46.0852 1055.95 45.3693C1056.37 44.6496 1056.58 43.5909 1056.58 42.1932C1056.58 41.2689 1056.49 40.4924 1056.29 39.8636C1056.1 39.2348 1055.83 38.7614 1055.48 38.4432C1055.12 38.1212 1054.71 37.9602 1054.23 37.9602C1053.5 37.9602 1052.93 38.3201 1052.51 39.0398C1052.09 39.7557 1051.88 40.8068 1051.87 42.1932C1051.87 43.1212 1051.96 43.9015 1052.15 44.5341C1052.35 45.1667 1052.62 45.6439 1052.97 45.9659C1053.32 46.2841 1053.74 46.4432 1054.23 46.4432ZM1060.71 48L1065.66 38.2045V38.125H1059.91V36.3636H1067.84V38.1648L1062.9 48H1060.71ZM1070.42 46.6023C1070.07 46.6023 1069.78 46.4811 1069.53 46.2386C1069.29 45.9924 1069.16 45.697 1069.17 45.3523C1069.16 45.0114 1069.29 44.7197 1069.53 44.4773C1069.78 44.2348 1070.07 44.1136 1070.42 44.1136C1070.75 44.1136 1071.04 44.2348 1071.29 44.4773C1071.54 44.7197 1071.66 45.0114 1071.67 45.3523C1071.66 45.5833 1071.6 45.7936 1071.49 45.983C1071.37 46.1723 1071.22 46.3239 1071.03 46.4375C1070.85 46.5473 1070.64 46.6023 1070.42 46.6023ZM1070.42 40.8352C1070.07 40.8352 1069.78 40.714 1069.53 40.4716C1069.29 40.2254 1069.16 39.9299 1069.17 39.5852C1069.16 39.2443 1069.29 38.9527 1069.53 38.7102C1069.78 38.464 1070.07 38.3409 1070.42 38.3409C1070.75 38.3409 1071.04 38.464 1071.29 38.7102C1071.54 38.9527 1071.66 39.2443 1071.67 39.5852C1071.66 39.8125 1071.6 40.0208 1071.49 40.2102C1071.37 40.3996 1071.22 40.5511 1071.03 40.6648C1070.85 40.7784 1070.64 40.8352 1070.42 40.8352ZM1073.56 45.8409V44.1648L1078.5 36.3636H1079.89V38.75H1079.04L1075.72 44.017V44.108H1082.61V45.8409H1073.56ZM1079.11 48V45.3295L1079.13 44.5795V36.3636H1081.12V48H1079.11ZM1088.73 48.2216C1087.79 48.2216 1086.99 47.9848 1086.32 47.5114C1085.65 47.0341 1085.14 46.3466 1084.78 45.4489C1084.42 44.5473 1084.24 43.4621 1084.24 42.1932C1084.25 40.9242 1084.43 39.8447 1084.78 38.9545C1085.14 38.0606 1085.66 37.3788 1086.32 36.9091C1086.99 36.4394 1087.79 36.2045 1088.73 36.2045C1089.66 36.2045 1090.46 36.4394 1091.13 36.9091C1091.8 37.3788 1092.31 38.0606 1092.67 38.9545C1093.03 39.8485 1093.21 40.928 1093.21 42.1932C1093.21 43.4659 1093.03 44.553 1092.67 45.4545C1092.31 46.3523 1091.8 47.0379 1091.13 47.5114C1090.46 47.9848 1089.66 48.2216 1088.73 48.2216ZM1088.73 46.4432C1089.45 46.4432 1090.03 46.0852 1090.45 45.3693C1090.87 44.6496 1091.08 43.5909 1091.08 42.1932C1091.08 41.2689 1090.99 40.4924 1090.79 39.8636C1090.6 39.2348 1090.33 38.7614 1089.98 38.4432C1089.62 38.1212 1089.21 37.9602 1088.73 37.9602C1088 37.9602 1087.43 38.3201 1087.01 39.0398C1086.59 39.7557 1086.38 40.8068 1086.37 42.1932C1086.37 43.1212 1086.46 43.9015 1086.65 44.5341C1086.85 45.1667 1087.12 45.6439 1087.47 45.9659C1087.82 46.2841 1088.24 46.4432 1088.73 46.4432ZM1100.67 48H1098.42L1102.52 36.3636H1105.12L1109.22 48H1106.97L1103.87 38.75H1103.78L1100.67 48ZM1100.75 43.4375H1106.88V45.1307H1100.75V43.4375ZM1110.76 36.3636H1113.34L1116.79 44.7955H1116.93L1120.38 36.3636H1122.96V48H1120.94V40.0057H1120.83L1117.62 47.9659H1116.1L1112.89 39.9886H1112.78V48H1110.76V36.3636Z" fill="#111928"/>
<path d="M621.636 26.1307V24.3636H630.92V26.1307H627.324V36H625.233V26.1307H621.636ZM631.713 36V27.2727H633.707V28.7273H633.798C633.957 28.2235 634.23 27.8352 634.616 27.5625C635.007 27.286 635.452 27.1477 635.952 27.1477C636.065 27.1477 636.192 27.1534 636.332 27.1648C636.476 27.1723 636.596 27.1856 636.69 27.2045V29.0966C636.603 29.0663 636.465 29.0398 636.276 29.017C636.09 28.9905 635.91 28.9773 635.736 28.9773C635.361 28.9773 635.024 29.0587 634.724 29.2216C634.429 29.3807 634.196 29.6023 634.026 29.8864C633.855 30.1705 633.77 30.4981 633.77 30.8693V36H631.713ZM641.561 36.1705C640.686 36.1705 639.93 35.9886 639.294 35.625C638.661 35.2576 638.175 34.7386 637.834 34.0682C637.493 33.3939 637.322 32.6004 637.322 31.6875C637.322 30.7898 637.493 30.0019 637.834 29.3239C638.179 28.642 638.66 28.1117 639.277 27.733C639.894 27.3504 640.62 27.1591 641.453 27.1591C641.991 27.1591 642.499 27.2462 642.976 27.4205C643.457 27.5909 643.881 27.8561 644.249 28.2159C644.62 28.5758 644.911 29.0341 645.124 29.5909C645.336 30.1439 645.442 30.803 645.442 31.5682V32.1989H638.288V30.8125H643.47C643.466 30.4186 643.381 30.0682 643.214 29.7614C643.048 29.4508 642.815 29.2064 642.516 29.0284C642.22 28.8504 641.875 28.7614 641.482 28.7614C641.061 28.7614 640.692 28.8636 640.374 29.0682C640.055 29.2689 639.807 29.5341 639.629 29.8636C639.455 30.1894 639.366 30.5473 639.362 30.9375V32.1477C639.362 32.6553 639.455 33.0909 639.641 33.4545C639.826 33.8144 640.086 34.0909 640.419 34.2841C640.752 34.4735 641.143 34.5682 641.589 34.5682C641.889 34.5682 642.16 34.5265 642.402 34.4432C642.644 34.3561 642.855 34.2292 643.033 34.0625C643.211 33.8958 643.345 33.6894 643.436 33.4432L645.357 33.6591C645.235 34.1667 645.004 34.6098 644.663 34.9886C644.326 35.3636 643.894 35.6553 643.368 35.8636C642.841 36.0682 642.239 36.1705 641.561 36.1705ZM649.239 30.8864V36H647.182V27.2727H649.148V28.7557H649.25C649.451 28.267 649.771 27.8788 650.21 27.5909C650.653 27.303 651.201 27.1591 651.852 27.1591C652.455 27.1591 652.979 27.2879 653.426 27.5455C653.877 27.803 654.225 28.1761 654.472 28.6648C654.722 29.1534 654.845 29.7462 654.841 30.4432V36H652.784V30.7614C652.784 30.178 652.633 29.7216 652.33 29.392C652.03 29.0625 651.616 28.8977 651.085 28.8977C650.725 28.8977 650.405 28.9773 650.125 29.1364C649.848 29.2917 649.631 29.517 649.472 29.8125C649.316 30.108 649.239 30.4659 649.239 30.8864ZM660.17 36.1534C659.485 36.1534 658.871 35.9773 658.33 35.625C657.788 35.2727 657.36 34.7614 657.045 34.0909C656.731 33.4205 656.574 32.6061 656.574 31.6477C656.574 30.678 656.733 29.8598 657.051 29.1932C657.373 28.5227 657.807 28.017 658.352 27.6761C658.898 27.3314 659.506 27.1591 660.176 27.1591C660.688 27.1591 661.108 27.2462 661.438 27.4205C661.767 27.5909 662.028 27.7973 662.222 28.0398C662.415 28.2784 662.564 28.5038 662.67 28.7159H662.756V24.3636H664.818V36H662.795V34.625H662.67C662.564 34.8371 662.411 35.0625 662.21 35.3011C662.009 35.536 661.744 35.7367 661.415 35.9034C661.085 36.0701 660.67 36.1534 660.17 36.1534ZM660.744 34.4659C661.18 34.4659 661.551 34.3485 661.858 34.1136C662.165 33.875 662.398 33.5436 662.557 33.1193C662.716 32.6951 662.795 32.2008 662.795 31.6364C662.795 31.072 662.716 30.5814 662.557 30.1648C662.402 29.7481 662.17 29.4242 661.864 29.1932C661.561 28.9621 661.188 28.8466 660.744 28.8466C660.286 28.8466 659.903 28.9659 659.597 29.2045C659.29 29.4432 659.059 29.7727 658.903 30.1932C658.748 30.6136 658.67 31.0947 658.67 31.6364C658.67 32.1818 658.748 32.6686 658.903 33.0966C659.063 33.5208 659.295 33.8561 659.602 34.1023C659.913 34.3447 660.294 34.4659 660.744 34.4659Z" fill="#111928"/>
</svg>
