<svg width="426" height="211" viewBox="0 0 426 211" fill="none" xmlns="http://www.w3.org/2000/svg">
<g filter="url(#filter0_dd_2_13)">
<rect x="3" y="2" width="420" height="205" rx="16" fill="white"/>
</g>
<path d="M61.9631 159.909C61.9631 160.996 61.7642 161.931 61.3665 162.713C60.9688 163.492 60.4235 164.092 59.7308 164.513C59.0414 164.93 58.2576 165.139 57.3793 165.139C56.4976 165.139 55.7105 164.93 55.0178 164.513C54.3284 164.092 53.7848 163.49 53.3871 162.708C52.9893 161.926 52.7905 160.993 52.7905 159.909C52.7905 158.822 52.9893 157.889 53.3871 157.11C53.7848 156.328 54.3284 155.728 55.0178 155.31C55.7105 154.889 56.4976 154.679 57.3793 154.679C58.2576 154.679 59.0414 154.889 59.7308 155.31C60.4235 155.728 60.9688 156.328 61.3665 157.11C61.7642 157.889 61.9631 158.822 61.9631 159.909ZM60.4418 159.909C60.4418 159.08 60.3075 158.383 60.0391 157.816C59.7739 157.246 59.4093 156.815 58.9453 156.523C58.4846 156.228 57.9626 156.081 57.3793 156.081C56.7926 156.081 56.2689 156.228 55.8082 156.523C55.3475 156.815 54.983 157.246 54.7145 157.816C54.4493 158.383 54.3168 159.08 54.3168 159.909C54.3168 160.738 54.4493 161.437 54.7145 162.007C54.983 162.574 55.3475 163.005 55.8082 163.3C56.2689 163.591 56.7926 163.737 57.3793 163.737C57.9626 163.737 58.4846 163.591 58.9453 163.3C59.4093 163.005 59.7739 162.574 60.0391 162.007C60.3075 161.437 60.4418 160.738 60.4418 159.909ZM67.3933 157.364V158.557H63.0779V157.364H67.3933ZM64.2612 165V156.479C64.2612 156.001 64.3656 155.605 64.5744 155.29C64.7832 154.972 65.06 154.735 65.4047 154.58C65.7493 154.42 66.1239 154.341 66.5282 154.341C66.8265 154.341 67.0817 154.366 67.2939 154.415C67.506 154.462 67.6634 154.505 67.7662 154.545L67.4181 155.748C67.3485 155.728 67.2591 155.705 67.1497 155.678C67.0403 155.648 66.9077 155.634 66.752 155.634C66.3907 155.634 66.1322 155.723 65.9764 155.902C65.8239 156.081 65.7477 156.339 65.7477 156.678V165H64.2612ZM73.5717 167.864C73.3497 167.864 73.1475 167.845 72.9652 167.809C72.7829 167.776 72.647 167.739 72.5575 167.7L72.9155 166.482C73.1873 166.554 73.4292 166.586 73.6413 166.576C73.8535 166.566 74.0407 166.487 74.2031 166.337C74.3688 166.188 74.5147 165.945 74.6406 165.607L74.8246 165.099L72.0305 157.364H73.6214L75.5554 163.29H75.6349L77.5689 157.364H79.1648L76.0178 166.019C75.8719 166.417 75.6863 166.753 75.4609 167.028C75.2356 167.307 74.9671 167.516 74.6555 167.655C74.344 167.794 73.9827 167.864 73.5717 167.864ZM83.5186 165.154C82.8027 165.154 82.178 164.99 81.6444 164.662C81.1107 164.334 80.6964 163.875 80.4015 163.285C80.1065 162.695 79.959 162.005 79.959 161.217C79.959 160.424 80.1065 159.732 80.4015 159.138C80.6964 158.545 81.1107 158.085 81.6444 157.756C82.178 157.428 82.8027 157.264 83.5186 157.264C84.2346 157.264 84.8593 157.428 85.3929 157.756C85.9266 158.085 86.3408 158.545 86.6358 159.138C86.9308 159.732 87.0783 160.424 87.0783 161.217C87.0783 162.005 86.9308 162.695 86.6358 163.285C86.3408 163.875 85.9266 164.334 85.3929 164.662C84.8593 164.99 84.2346 165.154 83.5186 165.154ZM83.5236 163.906C83.9876 163.906 84.3721 163.784 84.677 163.538C84.9819 163.293 85.2073 162.967 85.3532 162.559C85.5023 162.151 85.5769 161.702 85.5769 161.212C85.5769 160.724 85.5023 160.277 85.3532 159.869C85.2073 159.458 84.9819 159.129 84.677 158.88C84.3721 158.631 83.9876 158.507 83.5236 158.507C83.0563 158.507 82.6685 158.631 82.3603 158.88C82.0553 159.129 81.8283 159.458 81.6792 159.869C81.5333 160.277 81.4604 160.724 81.4604 161.212C81.4604 161.702 81.5333 162.151 81.6792 162.559C81.8283 162.967 82.0553 163.293 82.3603 163.538C82.6685 163.784 83.0563 163.906 83.5236 163.906ZM93.5749 161.833V157.364H95.0664V165H93.6048V163.678H93.5252C93.3496 164.085 93.0678 164.425 92.68 164.697C92.2956 164.965 91.8166 165.099 91.2433 165.099C90.7527 165.099 90.3185 164.992 89.9407 164.776C89.5662 164.558 89.2712 164.234 89.0558 163.807C88.8436 163.379 88.7376 162.851 88.7376 162.221V157.364H90.2241V162.042C90.2241 162.562 90.3683 162.977 90.6566 163.285C90.945 163.593 91.3195 163.747 91.7802 163.747C92.0586 163.747 92.3353 163.678 92.6104 163.538C92.8888 163.399 93.1192 163.189 93.3015 162.907C93.4871 162.625 93.5782 162.267 93.5749 161.833ZM97.0637 165V157.364H98.5005V158.577H98.5801C98.7193 158.166 98.9645 157.843 99.3159 157.607C99.6705 157.369 100.072 157.249 100.519 157.249C100.612 157.249 100.721 157.253 100.847 157.259C100.976 157.266 101.077 157.274 101.15 157.284V158.706C101.091 158.689 100.985 158.671 100.832 158.651C100.68 158.628 100.527 158.616 100.375 158.616C100.023 158.616 99.7103 158.691 99.4352 158.84C99.1634 158.986 98.948 159.19 98.7889 159.452C98.6298 159.71 98.5502 160.005 98.5502 160.337V165H97.0637ZM106.142 167.864V157.364H107.594V158.602H107.718C107.804 158.442 107.928 158.259 108.091 158.05C108.253 157.841 108.479 157.659 108.767 157.503C109.055 157.344 109.436 157.264 109.91 157.264C110.527 157.264 111.077 157.42 111.561 157.732C112.045 158.043 112.424 158.492 112.699 159.079C112.978 159.665 113.117 160.371 113.117 161.197C113.117 162.022 112.979 162.73 112.704 163.32C112.429 163.906 112.051 164.359 111.571 164.677C111.09 164.992 110.542 165.149 109.925 165.149C109.461 165.149 109.082 165.071 108.787 164.915C108.495 164.76 108.266 164.577 108.101 164.369C107.935 164.16 107.807 163.974 107.718 163.812H107.628V167.864H106.142ZM107.599 161.182C107.599 161.719 107.676 162.189 107.832 162.594C107.988 162.998 108.213 163.315 108.508 163.543C108.803 163.769 109.165 163.881 109.592 163.881C110.036 163.881 110.407 163.764 110.706 163.528C111.004 163.29 111.229 162.967 111.382 162.559C111.538 162.151 111.616 161.692 111.616 161.182C111.616 160.678 111.539 160.226 111.387 159.825C111.238 159.424 111.012 159.107 110.711 158.875C110.412 158.643 110.04 158.527 109.592 158.527C109.161 158.527 108.797 158.638 108.498 158.86C108.203 159.082 107.98 159.392 107.827 159.79C107.675 160.187 107.599 160.652 107.599 161.182ZM117.005 165.169C116.521 165.169 116.083 165.08 115.692 164.901C115.301 164.718 114.991 164.455 114.763 164.11C114.537 163.765 114.425 163.343 114.425 162.842C114.425 162.411 114.507 162.057 114.673 161.778C114.839 161.5 115.063 161.28 115.344 161.117C115.626 160.955 115.941 160.832 116.289 160.749C116.637 160.666 116.992 160.603 117.353 160.56C117.81 160.507 118.181 160.464 118.466 160.431C118.751 160.395 118.959 160.337 119.088 160.257C119.217 160.178 119.282 160.048 119.282 159.869V159.835C119.282 159.4 119.159 159.064 118.914 158.825C118.672 158.587 118.311 158.467 117.83 158.467C117.33 158.467 116.935 158.578 116.647 158.8C116.362 159.019 116.165 159.263 116.055 159.531L114.658 159.213C114.824 158.749 115.066 158.375 115.384 158.089C115.706 157.801 116.075 157.592 116.493 157.463C116.91 157.33 117.349 157.264 117.81 157.264C118.115 157.264 118.438 157.301 118.78 157.374C119.124 157.443 119.446 157.572 119.744 157.761C120.046 157.95 120.293 158.22 120.485 158.572C120.677 158.92 120.773 159.372 120.773 159.929V165H119.322V163.956H119.262C119.166 164.148 119.022 164.337 118.829 164.523C118.637 164.708 118.39 164.862 118.089 164.985C117.787 165.108 117.426 165.169 117.005 165.169ZM117.328 163.976C117.739 163.976 118.09 163.895 118.382 163.732C118.677 163.57 118.901 163.358 119.053 163.096C119.209 162.831 119.287 162.547 119.287 162.246V161.261C119.234 161.314 119.131 161.364 118.979 161.411C118.829 161.454 118.659 161.492 118.466 161.525C118.274 161.555 118.087 161.583 117.905 161.609C117.722 161.633 117.57 161.652 117.447 161.669C117.159 161.705 116.895 161.767 116.657 161.853C116.421 161.939 116.233 162.063 116.09 162.226C115.951 162.385 115.881 162.597 115.881 162.862C115.881 163.23 116.017 163.509 116.289 163.697C116.561 163.883 116.907 163.976 117.328 163.976ZM126.318 157.364V158.557H122.147V157.364H126.318ZM123.265 155.534H124.752V162.758C124.752 163.046 124.795 163.263 124.881 163.409C124.967 163.552 125.078 163.649 125.214 163.702C125.353 163.752 125.504 163.777 125.667 163.777C125.786 163.777 125.89 163.769 125.98 163.752C126.069 163.736 126.139 163.722 126.189 163.712L126.457 164.94C126.371 164.973 126.248 165.007 126.089 165.04C125.93 165.076 125.731 165.096 125.493 165.099C125.101 165.106 124.737 165.036 124.399 164.891C124.061 164.745 123.787 164.519 123.578 164.214C123.37 163.91 123.265 163.527 123.265 163.066V155.534ZM127.962 165V157.364H129.449V165H127.962ZM128.713 156.185C128.454 156.185 128.232 156.099 128.047 155.927C127.864 155.751 127.773 155.542 127.773 155.3C127.773 155.055 127.864 154.846 128.047 154.674C128.232 154.498 128.454 154.411 128.713 154.411C128.971 154.411 129.192 154.498 129.374 154.674C129.56 154.846 129.653 155.055 129.653 155.3C129.653 155.542 129.56 155.751 129.374 155.927C129.192 156.099 128.971 156.185 128.713 156.185ZM134.74 165.154C133.987 165.154 133.339 164.993 132.796 164.672C132.256 164.347 131.838 163.891 131.543 163.305C131.251 162.715 131.105 162.024 131.105 161.232C131.105 160.449 131.251 159.76 131.543 159.163C131.838 158.567 132.249 158.101 132.776 157.766C133.306 157.432 133.926 157.264 134.635 157.264C135.066 157.264 135.484 157.335 135.888 157.478C136.292 157.621 136.655 157.844 136.977 158.149C137.298 158.454 137.552 158.85 137.738 159.337C137.923 159.821 138.016 160.41 138.016 161.102V161.629H131.946V160.516H136.559C136.559 160.125 136.48 159.778 136.321 159.477C136.162 159.172 135.938 158.931 135.65 158.756C135.364 158.58 135.03 158.492 134.645 158.492C134.228 158.492 133.863 158.595 133.551 158.8C133.243 159.003 133.005 159.268 132.836 159.596C132.67 159.921 132.587 160.274 132.587 160.655V161.525C132.587 162.035 132.676 162.469 132.855 162.827C133.038 163.185 133.291 163.459 133.616 163.648C133.941 163.833 134.32 163.926 134.755 163.926C135.036 163.926 135.293 163.886 135.525 163.807C135.757 163.724 135.958 163.601 136.127 163.439C136.296 163.277 136.425 163.076 136.515 162.837L137.922 163.091C137.809 163.505 137.607 163.868 137.315 164.18C137.027 164.488 136.664 164.728 136.226 164.901C135.792 165.07 135.297 165.154 134.74 165.154ZM141.152 160.466V165H139.665V157.364H141.092V158.607H141.187C141.362 158.202 141.637 157.877 142.012 157.632C142.39 157.387 142.865 157.264 143.439 157.264C143.959 157.264 144.415 157.374 144.806 157.592C145.197 157.808 145.5 158.129 145.716 158.557C145.931 158.984 146.039 159.513 146.039 160.143V165H144.552V160.322C144.552 159.768 144.408 159.336 144.12 159.024C143.831 158.709 143.435 158.552 142.932 158.552C142.587 158.552 142.28 158.626 142.012 158.776C141.747 158.925 141.536 159.143 141.381 159.432C141.228 159.717 141.152 160.062 141.152 160.466ZM151.597 157.364V158.557H147.426V157.364H151.597ZM148.545 155.534H150.031V162.758C150.031 163.046 150.074 163.263 150.16 163.409C150.247 163.552 150.358 163.649 150.493 163.702C150.633 163.752 150.783 163.777 150.946 163.777C151.065 163.777 151.17 163.769 151.259 163.752C151.349 163.736 151.418 163.722 151.468 163.712L151.736 164.94C151.65 164.973 151.528 165.007 151.368 165.04C151.209 165.076 151.01 165.096 150.772 165.099C150.381 165.106 150.016 165.036 149.678 164.891C149.34 164.745 149.067 164.519 148.858 164.214C148.649 163.91 148.545 163.527 148.545 163.066V155.534ZM158.841 159.228L157.493 159.467C157.437 159.294 157.348 159.13 157.225 158.974C157.106 158.819 156.943 158.691 156.738 158.592C156.532 158.492 156.275 158.442 155.967 158.442C155.546 158.442 155.195 158.537 154.913 158.726C154.631 158.911 154.491 159.152 154.491 159.447C154.491 159.702 154.585 159.907 154.774 160.063C154.963 160.219 155.268 160.347 155.689 160.446L156.902 160.724C157.604 160.887 158.128 161.137 158.473 161.475C158.818 161.813 158.99 162.252 158.99 162.793C158.99 163.25 158.857 163.658 158.592 164.016C158.33 164.37 157.964 164.649 157.493 164.851C157.026 165.053 156.484 165.154 155.868 165.154C155.013 165.154 154.315 164.972 153.775 164.607C153.234 164.239 152.903 163.717 152.78 163.041L154.217 162.822C154.307 163.197 154.491 163.48 154.769 163.673C155.047 163.862 155.41 163.956 155.858 163.956C156.345 163.956 156.734 163.855 157.026 163.653C157.318 163.447 157.464 163.197 157.464 162.902C157.464 162.663 157.374 162.463 157.195 162.3C157.019 162.138 156.749 162.015 156.385 161.933L155.092 161.649C154.38 161.487 153.853 161.228 153.511 160.874C153.173 160.519 153.004 160.07 153.004 159.526C153.004 159.076 153.13 158.681 153.382 158.343C153.634 158.005 153.982 157.741 154.426 157.553C154.87 157.36 155.379 157.264 155.952 157.264C156.778 157.264 157.427 157.443 157.901 157.801C158.375 158.156 158.688 158.631 158.841 159.228ZM167.964 157.364V158.557H163.648V157.364H167.964ZM164.831 165V156.479C164.831 156.001 164.936 155.605 165.145 155.29C165.354 154.972 165.63 154.735 165.975 154.58C166.32 154.42 166.694 154.341 167.099 154.341C167.397 154.341 167.652 154.366 167.864 154.415C168.076 154.462 168.234 154.505 168.336 154.545L167.988 155.748C167.919 155.728 167.829 155.705 167.72 155.678C167.611 155.648 167.478 155.634 167.322 155.634C166.961 155.634 166.702 155.723 166.547 155.902C166.394 156.081 166.318 156.339 166.318 156.678V165H164.831ZM172.413 165.154C171.697 165.154 171.073 164.99 170.539 164.662C170.005 164.334 169.591 163.875 169.296 163.285C169.001 162.695 168.854 162.005 168.854 161.217C168.854 160.424 169.001 159.732 169.296 159.138C169.591 158.545 170.005 158.085 170.539 157.756C171.073 157.428 171.697 157.264 172.413 157.264C173.129 157.264 173.754 157.428 174.287 157.756C174.821 158.085 175.235 158.545 175.53 159.138C175.825 159.732 175.973 160.424 175.973 161.217C175.973 162.005 175.825 162.695 175.53 163.285C175.235 163.875 174.821 164.334 174.287 164.662C173.754 164.99 173.129 165.154 172.413 165.154ZM172.418 163.906C172.882 163.906 173.267 163.784 173.572 163.538C173.876 163.293 174.102 162.967 174.248 162.559C174.397 162.151 174.471 161.702 174.471 161.212C174.471 160.724 174.397 160.277 174.248 159.869C174.102 159.458 173.876 159.129 173.572 158.88C173.267 158.631 172.882 158.507 172.418 158.507C171.951 158.507 171.563 158.631 171.255 158.88C170.95 159.129 170.723 159.458 170.574 159.869C170.428 160.277 170.355 160.724 170.355 161.212C170.355 161.702 170.428 162.151 170.574 162.559C170.723 162.967 170.95 163.293 171.255 163.538C171.563 163.784 171.951 163.906 172.418 163.906ZM179.119 154.818V165H177.632V154.818H179.119ZM182.605 154.818V165H181.118V154.818H182.605ZM187.821 165.154C187.105 165.154 186.481 164.99 185.947 164.662C185.413 164.334 184.999 163.875 184.704 163.285C184.409 162.695 184.262 162.005 184.262 161.217C184.262 160.424 184.409 159.732 184.704 159.138C184.999 158.545 185.413 158.085 185.947 157.756C186.481 157.428 187.105 157.264 187.821 157.264C188.537 157.264 189.162 157.428 189.696 157.756C190.229 158.085 190.644 158.545 190.939 159.138C191.234 159.732 191.381 160.424 191.381 161.217C191.381 162.005 191.234 162.695 190.939 163.285C190.644 163.875 190.229 164.334 189.696 164.662C189.162 164.99 188.537 165.154 187.821 165.154ZM187.826 163.906C188.29 163.906 188.675 163.784 188.98 163.538C189.285 163.293 189.51 162.967 189.656 162.559C189.805 162.151 189.88 161.702 189.88 161.212C189.88 160.724 189.805 160.277 189.656 159.869C189.51 159.458 189.285 159.129 188.98 158.88C188.675 158.631 188.29 158.507 187.826 158.507C187.359 158.507 186.971 158.631 186.663 158.88C186.358 159.129 186.131 159.458 185.982 159.869C185.836 160.277 185.763 160.724 185.763 161.212C185.763 161.702 185.836 162.151 185.982 162.559C186.131 162.967 186.358 163.293 186.663 163.538C186.971 163.784 187.359 163.906 187.826 163.906ZM194.463 165L192.216 157.364H193.752L195.249 162.972H195.324L196.825 157.364H198.361L199.853 162.947H199.927L201.414 157.364H202.95L200.708 165H199.191L197.64 159.487H197.526L195.975 165H194.463ZM210.083 159.228L208.736 159.467C208.679 159.294 208.59 159.13 208.467 158.974C208.348 158.819 208.185 158.691 207.98 158.592C207.774 158.492 207.518 158.442 207.209 158.442C206.788 158.442 206.437 158.537 206.155 158.726C205.874 158.911 205.733 159.152 205.733 159.447C205.733 159.702 205.827 159.907 206.016 160.063C206.205 160.219 206.51 160.347 206.931 160.446L208.144 160.724C208.847 160.887 209.37 161.137 209.715 161.475C210.06 161.813 210.232 162.252 210.232 162.793C210.232 163.25 210.099 163.658 209.834 164.016C209.573 164.37 209.206 164.649 208.736 164.851C208.268 165.053 207.726 165.154 207.11 165.154C206.255 165.154 205.557 164.972 205.017 164.607C204.477 164.239 204.145 163.717 204.023 163.041L205.459 162.822C205.549 163.197 205.733 163.48 206.011 163.673C206.29 163.862 206.653 163.956 207.1 163.956C207.587 163.956 207.977 163.855 208.268 163.653C208.56 163.447 208.706 163.197 208.706 162.902C208.706 162.663 208.616 162.463 208.437 162.3C208.262 162.138 207.992 162.015 207.627 161.933L206.334 161.649C205.622 161.487 205.095 161.228 204.753 160.874C204.415 160.519 204.246 160.07 204.246 159.526C204.246 159.076 204.372 158.681 204.624 158.343C204.876 158.005 205.224 157.741 205.668 157.553C206.112 157.36 206.621 157.264 207.194 157.264C208.02 157.264 208.669 157.443 209.143 157.801C209.617 158.156 209.93 158.631 210.083 159.228ZM219.136 157.364V158.557H214.965V157.364H219.136ZM216.084 155.534H217.57V162.758C217.57 163.046 217.613 163.263 217.699 163.409C217.786 163.552 217.897 163.649 218.032 163.702C218.172 163.752 218.323 163.777 218.485 163.777C218.604 163.777 218.709 163.769 218.798 163.752C218.888 163.736 218.957 163.722 219.007 163.712L219.275 164.94C219.189 164.973 219.067 165.007 218.907 165.04C218.748 165.076 218.55 165.096 218.311 165.099C217.92 165.106 217.555 165.036 217.217 164.891C216.879 164.745 216.606 164.519 216.397 164.214C216.188 163.91 216.084 163.527 216.084 163.066V155.534ZM222.431 160.466V165H220.945V154.818H222.411V158.607H222.506C222.685 158.196 222.958 157.869 223.326 157.627C223.694 157.385 224.174 157.264 224.768 157.264C225.291 157.264 225.749 157.372 226.14 157.587C226.534 157.803 226.839 158.124 227.055 158.552C227.273 158.976 227.383 159.506 227.383 160.143V165H225.896V160.322C225.896 159.762 225.752 159.327 225.464 159.019C225.175 158.708 224.774 158.552 224.261 158.552C223.909 158.552 223.594 158.626 223.316 158.776C223.041 158.925 222.824 159.143 222.665 159.432C222.509 159.717 222.431 160.062 222.431 160.466ZM232.658 165.154C231.905 165.154 231.257 164.993 230.714 164.672C230.174 164.347 229.756 163.891 229.461 163.305C229.169 162.715 229.023 162.024 229.023 161.232C229.023 160.449 229.169 159.76 229.461 159.163C229.756 158.567 230.167 158.101 230.694 157.766C231.224 157.432 231.844 157.264 232.553 157.264C232.984 157.264 233.402 157.335 233.806 157.478C234.21 157.621 234.573 157.844 234.895 158.149C235.216 158.454 235.47 158.85 235.656 159.337C235.841 159.821 235.934 160.41 235.934 161.102V161.629H229.864V160.516H234.477C234.477 160.125 234.398 159.778 234.239 159.477C234.08 159.172 233.856 158.931 233.567 158.756C233.282 158.58 232.948 158.492 232.563 158.492C232.146 158.492 231.781 158.595 231.469 158.8C231.161 159.003 230.923 159.268 230.754 159.596C230.588 159.921 230.505 160.274 230.505 160.655V161.525C230.505 162.035 230.594 162.469 230.773 162.827C230.956 163.185 231.209 163.459 231.534 163.648C231.859 163.833 232.238 163.926 232.673 163.926C232.954 163.926 233.211 163.886 233.443 163.807C233.675 163.724 233.876 163.601 234.045 163.439C234.214 163.277 234.343 163.076 234.433 162.837L235.839 163.091C235.727 163.505 235.525 163.868 235.233 164.18C234.945 164.488 234.582 164.728 234.144 164.901C233.71 165.07 233.214 165.154 232.658 165.154ZM237.583 165V157.364H239.07V165H237.583ZM238.334 156.185C238.075 156.185 237.853 156.099 237.668 155.927C237.485 155.751 237.394 155.542 237.394 155.3C237.394 155.055 237.485 154.846 237.668 154.674C237.853 154.498 238.075 154.411 238.334 154.411C238.593 154.411 238.813 154.498 238.995 154.674C239.181 154.846 239.274 155.055 239.274 155.3C239.274 155.542 239.181 155.751 238.995 155.927C238.813 156.099 238.593 156.185 238.334 156.185ZM241.07 165V157.364H242.506V158.577H242.586C242.725 158.166 242.97 157.843 243.322 157.607C243.676 157.369 244.077 157.249 244.525 157.249C244.618 157.249 244.727 157.253 244.853 157.259C244.982 157.266 245.083 157.274 245.156 157.284V158.706C245.097 158.689 244.991 158.671 244.838 158.651C244.686 158.628 244.533 158.616 244.381 158.616C244.029 158.616 243.716 158.691 243.441 158.84C243.169 158.986 242.954 159.19 242.795 159.452C242.636 159.71 242.556 160.005 242.556 160.337V165H241.07ZM250.148 165V157.364H251.575V158.607H251.669C251.828 158.186 252.088 157.857 252.45 157.622C252.811 157.384 253.243 157.264 253.747 157.264C254.258 157.264 254.685 157.384 255.03 157.622C255.378 157.861 255.635 158.189 255.8 158.607H255.88C256.062 158.199 256.352 157.874 256.75 157.632C257.148 157.387 257.622 157.264 258.172 157.264C258.865 157.264 259.43 157.481 259.867 157.915C260.308 158.35 260.528 159.004 260.528 159.879V165H259.042V160.018C259.042 159.501 258.901 159.127 258.619 158.895C258.338 158.663 258.001 158.547 257.61 158.547C257.126 158.547 256.75 158.696 256.482 158.994C256.213 159.289 256.079 159.669 256.079 160.133V165H254.597V159.924C254.597 159.51 254.468 159.177 254.21 158.925C253.951 158.673 253.615 158.547 253.2 158.547C252.919 158.547 252.658 158.621 252.42 158.771C252.184 158.916 251.994 159.12 251.848 159.382C251.705 159.644 251.634 159.947 251.634 160.292V165H250.148ZM265.812 165.154C265.06 165.154 264.412 164.993 263.868 164.672C263.328 164.347 262.91 163.891 262.615 163.305C262.324 162.715 262.178 162.024 262.178 161.232C262.178 160.449 262.324 159.76 262.615 159.163C262.91 158.567 263.321 158.101 263.848 157.766C264.378 157.432 264.998 157.264 265.708 157.264C266.138 157.264 266.556 157.335 266.96 157.478C267.365 157.621 267.728 157.844 268.049 158.149C268.371 158.454 268.624 158.85 268.81 159.337C268.995 159.821 269.088 160.41 269.088 161.102V161.629H263.018V160.516H267.632C267.632 160.125 267.552 159.778 267.393 159.477C267.234 159.172 267.01 158.931 266.722 158.756C266.437 158.58 266.102 158.492 265.718 158.492C265.3 158.492 264.935 158.595 264.624 158.8C264.316 159.003 264.077 159.268 263.908 159.596C263.742 159.921 263.659 160.274 263.659 160.655V161.525C263.659 162.035 263.749 162.469 263.928 162.827C264.11 163.185 264.364 163.459 264.688 163.648C265.013 163.833 265.393 163.926 265.827 163.926C266.109 163.926 266.365 163.886 266.597 163.807C266.829 163.724 267.03 163.601 267.199 163.439C267.368 163.277 267.497 163.076 267.587 162.837L268.994 163.091C268.881 163.505 268.679 163.868 268.387 164.18C268.099 164.488 267.736 164.728 267.298 164.901C266.864 165.07 266.369 165.154 265.812 165.154ZM272.96 165.169C272.476 165.169 272.038 165.08 271.647 164.901C271.256 164.718 270.946 164.455 270.718 164.11C270.492 163.765 270.38 163.343 270.38 162.842C270.38 162.411 270.462 162.057 270.628 161.778C270.794 161.5 271.018 161.28 271.299 161.117C271.581 160.955 271.896 160.832 272.244 160.749C272.592 160.666 272.947 160.603 273.308 160.56C273.765 160.507 274.136 160.464 274.422 160.431C274.707 160.395 274.914 160.337 275.043 160.257C275.172 160.178 275.237 160.048 275.237 159.869V159.835C275.237 159.4 275.114 159.064 274.869 158.825C274.627 158.587 274.266 158.467 273.785 158.467C273.285 158.467 272.89 158.578 272.602 158.8C272.317 159.019 272.12 159.263 272.01 159.531L270.613 159.213C270.779 158.749 271.021 158.375 271.339 158.089C271.661 157.801 272.03 157.592 272.448 157.463C272.865 157.33 273.305 157.264 273.765 157.264C274.07 157.264 274.393 157.301 274.735 157.374C275.079 157.443 275.401 157.572 275.699 157.761C276.001 157.95 276.248 158.22 276.44 158.572C276.632 158.92 276.728 159.372 276.728 159.929V165H275.277V163.956H275.217C275.121 164.148 274.977 164.337 274.784 164.523C274.592 164.708 274.345 164.862 274.044 164.985C273.742 165.108 273.381 165.169 272.96 165.169ZM273.283 163.976C273.694 163.976 274.045 163.895 274.337 163.732C274.632 163.57 274.856 163.358 275.008 163.096C275.164 162.831 275.242 162.547 275.242 162.246V161.261C275.189 161.314 275.086 161.364 274.934 161.411C274.784 161.454 274.614 161.492 274.422 161.525C274.229 161.555 274.042 161.583 273.86 161.609C273.677 161.633 273.525 161.652 273.402 161.669C273.114 161.705 272.85 161.767 272.612 161.853C272.377 161.939 272.188 162.063 272.045 162.226C271.906 162.385 271.836 162.597 271.836 162.862C271.836 163.23 271.972 163.509 272.244 163.697C272.516 163.883 272.862 163.976 273.283 163.976ZM284.431 159.228L283.083 159.467C283.027 159.294 282.937 159.13 282.815 158.974C282.695 158.819 282.533 158.691 282.328 158.592C282.122 158.492 281.865 158.442 281.557 158.442C281.136 158.442 280.785 158.537 280.503 158.726C280.221 158.911 280.08 159.152 280.08 159.447C280.08 159.702 280.175 159.907 280.364 160.063C280.553 160.219 280.858 160.347 281.279 160.446L282.492 160.724C283.194 160.887 283.718 161.137 284.063 161.475C284.407 161.813 284.58 162.252 284.58 162.793C284.58 163.25 284.447 163.658 284.182 164.016C283.92 164.37 283.554 164.649 283.083 164.851C282.616 165.053 282.074 165.154 281.458 165.154C280.602 165.154 279.905 164.972 279.365 164.607C278.824 164.239 278.493 163.717 278.37 163.041L279.807 162.822C279.896 163.197 280.08 163.48 280.359 163.673C280.637 163.862 281 163.956 281.448 163.956C281.935 163.956 282.324 163.855 282.616 163.653C282.908 163.447 283.053 163.197 283.053 162.902C283.053 162.663 282.964 162.463 282.785 162.3C282.609 162.138 282.339 162.015 281.975 161.933L280.682 161.649C279.969 161.487 279.442 161.228 279.101 160.874C278.763 160.519 278.594 160.07 278.594 159.526C278.594 159.076 278.72 158.681 278.972 158.343C279.224 158.005 279.572 157.741 280.016 157.553C280.46 157.36 280.969 157.264 281.542 157.264C282.367 157.264 283.017 157.443 283.491 157.801C283.965 158.156 284.278 158.631 284.431 159.228ZM291.051 161.833V157.364H292.543V165H291.081V163.678H291.002C290.826 164.085 290.544 164.425 290.157 164.697C289.772 164.965 289.293 165.099 288.72 165.099C288.229 165.099 287.795 164.992 287.417 164.776C287.043 164.558 286.748 164.234 286.532 163.807C286.32 163.379 286.214 162.851 286.214 162.221V157.364H287.701V162.042C287.701 162.562 287.845 162.977 288.133 163.285C288.422 163.593 288.796 163.747 289.257 163.747C289.535 163.747 289.812 163.678 290.087 163.538C290.365 163.399 290.596 163.189 290.778 162.907C290.964 162.625 291.055 162.267 291.051 161.833ZM294.54 165V157.364H295.977V158.577H296.057C296.196 158.166 296.441 157.843 296.792 157.607C297.147 157.369 297.548 157.249 297.996 157.249C298.088 157.249 298.198 157.253 298.324 157.259C298.453 157.266 298.554 157.274 298.627 157.284V158.706C298.567 158.689 298.461 158.671 298.309 158.651C298.156 158.628 298.004 158.616 297.851 158.616C297.5 158.616 297.187 158.691 296.912 158.84C296.64 158.986 296.425 159.19 296.265 159.452C296.106 159.71 296.027 160.005 296.027 160.337V165H294.54ZM299.913 165V157.364H301.34V158.607H301.435C301.594 158.186 301.854 157.857 302.215 157.622C302.576 157.384 303.009 157.264 303.513 157.264C304.023 157.264 304.451 157.384 304.795 157.622C305.143 157.861 305.4 158.189 305.566 158.607H305.646C305.828 158.199 306.118 157.874 306.516 157.632C306.913 157.387 307.387 157.264 307.938 157.264C308.63 157.264 309.195 157.481 309.633 157.915C310.074 158.35 310.294 159.004 310.294 159.879V165H308.808V160.018C308.808 159.501 308.667 159.127 308.385 158.895C308.103 158.663 307.767 158.547 307.376 158.547C306.892 158.547 306.516 158.696 306.247 158.994C305.979 159.289 305.844 159.669 305.844 160.133V165H304.363V159.924C304.363 159.51 304.234 159.177 303.975 158.925C303.717 158.673 303.38 158.547 302.966 158.547C302.684 158.547 302.424 158.621 302.185 158.771C301.95 158.916 301.759 159.12 301.614 159.382C301.471 159.644 301.4 159.947 301.4 160.292V165H299.913ZM315.578 165.154C314.825 165.154 314.177 164.993 313.634 164.672C313.093 164.347 312.676 163.891 312.381 163.305C312.089 162.715 311.943 162.024 311.943 161.232C311.943 160.449 312.089 159.76 312.381 159.163C312.676 158.567 313.087 158.101 313.614 157.766C314.144 157.432 314.764 157.264 315.473 157.264C315.904 157.264 316.322 157.335 316.726 157.478C317.13 157.621 317.493 157.844 317.815 158.149C318.136 158.454 318.39 158.85 318.575 159.337C318.761 159.821 318.854 160.41 318.854 161.102V161.629H312.784V160.516H317.397C317.397 160.125 317.318 159.778 317.159 159.477C316.999 159.172 316.776 158.931 316.487 158.756C316.202 158.58 315.868 158.492 315.483 158.492C315.066 158.492 314.701 158.595 314.389 158.8C314.081 159.003 313.843 159.268 313.673 159.596C313.508 159.921 313.425 160.274 313.425 160.655V161.525C313.425 162.035 313.514 162.469 313.693 162.827C313.876 163.185 314.129 163.459 314.454 163.648C314.779 163.833 315.158 163.926 315.593 163.926C315.874 163.926 316.131 163.886 316.363 163.807C316.595 163.724 316.796 163.601 316.965 163.439C317.134 163.277 317.263 163.076 317.352 162.837L318.759 163.091C318.647 163.505 318.445 163.868 318.153 164.18C317.865 164.488 317.502 164.728 317.064 164.901C316.63 165.07 316.134 165.154 315.578 165.154ZM321.99 160.466V165H320.503V157.364H321.93V158.607H322.025C322.2 158.202 322.475 157.877 322.85 157.632C323.228 157.387 323.703 157.264 324.277 157.264C324.797 157.264 325.253 157.374 325.644 157.592C326.035 157.808 326.338 158.129 326.554 158.557C326.769 158.984 326.877 159.513 326.877 160.143V165H325.39V160.322C325.39 159.768 325.246 159.336 324.958 159.024C324.669 158.709 324.273 158.552 323.77 158.552C323.425 158.552 323.118 158.626 322.85 158.776C322.585 158.925 322.374 159.143 322.218 159.432C322.066 159.717 321.99 160.062 321.99 160.466ZM332.435 157.364V158.557H328.264V157.364H332.435ZM329.382 155.534H330.869V162.758C330.869 163.046 330.912 163.263 330.998 163.409C331.084 163.552 331.195 163.649 331.331 163.702C331.471 163.752 331.621 163.777 331.784 163.777C331.903 163.777 332.007 163.769 332.097 163.752C332.186 163.736 332.256 163.722 332.306 163.712L332.574 164.94C332.488 164.973 332.365 165.007 332.206 165.04C332.047 165.076 331.848 165.096 331.61 165.099C331.219 165.106 330.854 165.036 330.516 164.891C330.178 164.745 329.904 164.519 329.696 164.214C329.487 163.91 329.382 163.527 329.382 163.066V155.534ZM337.784 167.864V157.364H339.236V158.602H339.36C339.447 158.442 339.571 158.259 339.733 158.05C339.896 157.841 340.121 157.659 340.409 157.503C340.698 157.344 341.079 157.264 341.553 157.264C342.169 157.264 342.72 157.42 343.203 157.732C343.687 158.043 344.067 158.492 344.342 159.079C344.62 159.665 344.76 160.371 344.76 161.197C344.76 162.022 344.622 162.73 344.347 163.32C344.072 163.906 343.694 164.359 343.213 164.677C342.733 164.992 342.184 165.149 341.568 165.149C341.104 165.149 340.724 165.071 340.429 164.915C340.138 164.76 339.909 164.577 339.743 164.369C339.578 164.16 339.45 163.974 339.36 163.812H339.271V167.864H337.784ZM339.241 161.182C339.241 161.719 339.319 162.189 339.475 162.594C339.631 162.998 339.856 163.315 340.151 163.543C340.446 163.769 340.807 163.881 341.235 163.881C341.679 163.881 342.05 163.764 342.348 163.528C342.647 163.29 342.872 162.967 343.025 162.559C343.18 162.151 343.258 161.692 343.258 161.182C343.258 160.678 343.182 160.226 343.029 159.825C342.88 159.424 342.655 159.107 342.353 158.875C342.055 158.643 341.682 158.527 341.235 158.527C340.804 158.527 340.439 158.638 340.141 158.86C339.846 159.082 339.622 159.392 339.47 159.79C339.317 160.187 339.241 160.652 339.241 161.182ZM347.912 154.818V165H346.425V154.818H347.912ZM352.134 165.169C351.65 165.169 351.212 165.08 350.821 164.901C350.43 164.718 350.12 164.455 349.892 164.11C349.666 163.765 349.553 163.343 349.553 162.842C349.553 162.411 349.636 162.057 349.802 161.778C349.968 161.5 350.191 161.28 350.473 161.117C350.755 160.955 351.07 160.832 351.418 160.749C351.766 160.666 352.12 160.603 352.482 160.56C352.939 160.507 353.31 160.464 353.595 160.431C353.88 160.395 354.088 160.337 354.217 160.257C354.346 160.178 354.411 160.048 354.411 159.869V159.835C354.411 159.4 354.288 159.064 354.043 158.825C353.801 158.587 353.44 158.467 352.959 158.467C352.459 158.467 352.064 158.578 351.776 158.8C351.491 159.019 351.294 159.263 351.184 159.531L349.787 159.213C349.953 158.749 350.195 158.375 350.513 158.089C350.834 157.801 351.204 157.592 351.622 157.463C352.039 157.33 352.478 157.264 352.939 157.264C353.244 157.264 353.567 157.301 353.909 157.374C354.253 157.443 354.575 157.572 354.873 157.761C355.175 157.95 355.422 158.22 355.614 158.572C355.806 158.92 355.902 159.372 355.902 159.929V165H354.45V163.956H354.391C354.295 164.148 354.151 164.337 353.958 164.523C353.766 164.708 353.519 164.862 353.218 164.985C352.916 165.108 352.555 165.169 352.134 165.169ZM352.457 163.976C352.868 163.976 353.219 163.895 353.511 163.732C353.806 163.57 354.03 163.358 354.182 163.096C354.338 162.831 354.416 162.547 354.416 162.246V161.261C354.363 161.314 354.26 161.364 354.107 161.411C353.958 161.454 353.788 161.492 353.595 161.525C353.403 161.555 353.216 161.583 353.034 161.609C352.851 161.633 352.699 161.652 352.576 161.669C352.288 161.705 352.024 161.767 351.786 161.853C351.55 161.939 351.361 162.063 351.219 162.226C351.08 162.385 351.01 162.597 351.01 162.862C351.01 163.23 351.146 163.509 351.418 163.697C351.69 163.883 352.036 163.976 352.457 163.976ZM359.369 160.466V165H357.882V157.364H359.309V158.607H359.403C359.579 158.202 359.854 157.877 360.229 157.632C360.607 157.387 361.082 157.264 361.656 157.264C362.176 157.264 362.632 157.374 363.023 157.592C363.414 157.808 363.717 158.129 363.933 158.557C364.148 158.984 364.256 159.513 364.256 160.143V165H362.769V160.322C362.769 159.768 362.625 159.336 362.337 159.024C362.048 158.709 361.652 158.552 361.148 158.552C360.804 158.552 360.497 158.626 360.229 158.776C359.964 158.925 359.753 159.143 359.597 159.432C359.445 159.717 359.369 160.062 359.369 160.466ZM371.972 159.228L370.624 159.467C370.568 159.294 370.478 159.13 370.356 158.974C370.237 158.819 370.074 158.691 369.869 158.592C369.663 158.492 369.406 158.442 369.098 158.442C368.677 158.442 368.326 158.537 368.044 158.726C367.762 158.911 367.621 159.152 367.621 159.447C367.621 159.702 367.716 159.907 367.905 160.063C368.094 160.219 368.399 160.347 368.82 160.446L370.033 160.724C370.735 160.887 371.259 161.137 371.604 161.475C371.948 161.813 372.121 162.252 372.121 162.793C372.121 163.25 371.988 163.658 371.723 164.016C371.461 164.37 371.095 164.649 370.624 164.851C370.157 165.053 369.615 165.154 368.999 165.154C368.143 165.154 367.446 164.972 366.906 164.607C366.365 164.239 366.034 163.717 365.911 163.041L367.348 162.822C367.438 163.197 367.621 163.48 367.9 163.673C368.178 163.862 368.541 163.956 368.989 163.956C369.476 163.956 369.865 163.855 370.157 163.653C370.449 163.447 370.594 163.197 370.594 162.902C370.594 162.663 370.505 162.463 370.326 162.3C370.15 162.138 369.88 162.015 369.516 161.933L368.223 161.649C367.51 161.487 366.983 161.228 366.642 160.874C366.304 160.519 366.135 160.07 366.135 159.526C366.135 159.076 366.261 158.681 366.513 158.343C366.765 158.005 367.113 157.741 367.557 157.553C368.001 157.36 368.51 157.264 369.083 157.264C369.908 157.264 370.558 157.443 371.032 157.801C371.506 158.156 371.819 158.631 371.972 159.228Z" fill="#52525B"/>
<path d="M189.105 94L196.341 79.6818V79.5625H187.912V76.5455H200.159V79.6051L192.915 94H189.105ZM209.012 94.2386C208.114 94.233 207.248 94.0824 206.413 93.7869C205.583 93.4915 204.839 93.0114 204.18 92.3466C203.521 91.6818 202.998 90.8011 202.612 89.7045C202.231 88.608 202.04 87.2614 202.04 85.6648C202.046 84.1989 202.214 82.8892 202.543 81.7358C202.879 80.5767 203.356 79.5937 203.975 78.7869C204.6 77.9801 205.347 77.3665 206.217 76.946C207.086 76.5199 208.06 76.3068 209.14 76.3068C210.305 76.3068 211.333 76.5341 212.225 76.9886C213.117 77.4375 213.833 78.0483 214.373 78.821C214.918 79.5938 215.248 80.4602 215.362 81.4205H211.722C211.58 80.8125 211.282 80.3352 210.827 79.9886C210.373 79.642 209.81 79.4688 209.14 79.4688C208.004 79.4688 207.14 79.9631 206.549 80.9517C205.964 81.9403 205.665 83.2841 205.654 84.983H205.773C206.035 84.4659 206.387 84.0256 206.83 83.6619C207.279 83.2926 207.788 83.0114 208.356 82.8182C208.93 82.6193 209.535 82.5199 210.171 82.5199C211.205 82.5199 212.126 82.7642 212.933 83.2528C213.739 83.7358 214.376 84.4006 214.842 85.2472C215.308 86.0937 215.54 87.0625 215.54 88.1534C215.54 89.3352 215.265 90.3864 214.714 91.3068C214.168 92.2273 213.404 92.9489 212.421 93.4716C211.444 93.9886 210.308 94.2443 209.012 94.2386ZM208.995 91.3409C209.563 91.3409 210.072 91.2045 210.521 90.9318C210.969 90.6591 211.322 90.2898 211.577 89.8239C211.833 89.358 211.961 88.8352 211.961 88.2557C211.961 87.6761 211.833 87.1562 211.577 86.696C211.327 86.2358 210.981 85.8693 210.538 85.5966C210.094 85.3239 209.589 85.1875 209.021 85.1875C208.594 85.1875 208.2 85.267 207.836 85.4261C207.478 85.5852 207.163 85.8068 206.89 86.0909C206.623 86.375 206.413 86.7045 206.259 87.0795C206.106 87.4489 206.029 87.8437 206.029 88.2642C206.029 88.8267 206.157 89.3409 206.413 89.8068C206.674 90.2727 207.026 90.6449 207.469 90.9233C207.918 91.2017 208.427 91.3409 208.995 91.3409ZM227.711 90.7273V89.8068C227.711 89.108 227.859 88.4659 228.154 87.8807C228.455 87.2898 228.89 86.8182 229.458 86.4659C230.032 86.108 230.731 85.929 231.555 85.929C232.39 85.929 233.092 86.1051 233.66 86.4574C234.234 86.8097 234.665 87.2812 234.955 87.8722C235.251 88.4574 235.398 89.1023 235.398 89.8068V90.7273C235.398 91.4261 235.251 92.071 234.955 92.6619C234.66 93.2472 234.225 93.7159 233.651 94.0682C233.077 94.4261 232.379 94.6051 231.555 94.6051C230.719 94.6051 230.018 94.4261 229.45 94.0682C228.881 93.7159 228.45 93.2472 228.154 92.6619C227.859 92.071 227.711 91.4261 227.711 90.7273ZM230.191 89.8068V90.7273C230.191 91.1307 230.288 91.5114 230.481 91.8693C230.68 92.2273 231.038 92.4062 231.555 92.4062C232.072 92.4062 232.424 92.2301 232.612 91.8778C232.805 91.5256 232.901 91.142 232.901 90.7273V89.8068C232.901 89.392 232.81 89.0057 232.629 88.6477C232.447 88.2898 232.089 88.1108 231.555 88.1108C231.043 88.1108 230.688 88.2898 230.489 88.6477C230.29 89.0057 230.191 89.392 230.191 89.8068ZM218.754 80.7386V79.8182C218.754 79.1136 218.904 78.4687 219.205 77.8835C219.506 77.2926 219.941 76.821 220.509 76.4688C221.083 76.1165 221.776 75.9403 222.589 75.9403C223.43 75.9403 224.134 76.1165 224.702 76.4688C225.271 76.821 225.702 77.2926 225.998 77.8835C226.293 78.4687 226.441 79.1136 226.441 79.8182V80.7386C226.441 81.4432 226.29 82.0881 225.989 82.6733C225.694 83.2585 225.259 83.7273 224.685 84.0795C224.117 84.4261 223.418 84.5994 222.589 84.5994C221.759 84.5994 221.058 84.4233 220.484 84.071C219.915 83.7131 219.484 83.2443 219.188 82.6648C218.898 82.0795 218.754 81.4375 218.754 80.7386ZM221.251 79.8182V80.7386C221.251 81.1534 221.347 81.5369 221.54 81.8892C221.739 82.2415 222.089 82.4176 222.589 82.4176C223.112 82.4176 223.467 82.2415 223.654 81.8892C223.847 81.5369 223.944 81.1534 223.944 80.7386V79.8182C223.944 79.4034 223.853 79.017 223.671 78.6591C223.489 78.3011 223.129 78.1222 222.589 78.1222C222.083 78.1222 221.734 78.304 221.54 78.6676C221.347 79.0312 221.251 79.4148 221.251 79.8182ZM219.879 94L231.879 76.5455H234.112L222.112 94H219.879Z" fill="#111928"/>
<path d="M260 85.5C260 111.734 238.734 133 212.5 133C186.266 133 165 111.734 165 85.5C165 59.2665 186.266 38 212.5 38C238.734 38 260 59.2665 260 85.5ZM169.75 85.5C169.75 109.11 188.89 128.25 212.5 128.25C236.11 128.25 255.25 109.11 255.25 85.5C255.25 61.8898 236.11 42.75 212.5 42.75C188.89 42.75 169.75 61.8898 169.75 85.5Z" fill="#F3F4F6"/>
<path d="M255.849 72.9645C257.109 72.6001 258.432 73.3253 258.733 74.6019C260.829 83.494 260.32 92.8207 257.239 101.457C253.893 110.841 247.68 118.934 239.481 124.593C231.281 130.252 221.51 133.19 211.55 132.99C201.589 132.791 191.943 129.465 183.977 123.483C176.011 117.5 170.127 109.165 167.158 99.6546C164.189 90.1446 164.286 79.942 167.434 70.4899C170.582 61.0378 176.623 52.8149 184.701 46.9843C192.136 41.618 200.951 38.5283 210.074 38.0619C211.384 37.995 212.45 39.0634 212.451 40.375V40.375C212.453 41.6867 211.39 42.7443 210.08 42.8185C201.953 43.2792 194.108 46.0527 187.481 50.8359C180.21 56.0834 174.774 63.484 171.941 71.9909C169.107 80.4978 169.02 89.6802 171.692 98.2391C174.364 106.798 179.659 114.3 186.829 119.684C193.999 125.069 202.68 128.062 211.645 128.241C220.609 128.421 229.403 125.777 236.783 120.684C244.162 115.591 249.753 108.307 252.766 99.8614C255.511 92.1634 255.987 83.8562 254.163 75.923C253.87 74.6447 254.589 73.3288 255.849 72.9645V72.9645Z" fill="#0E9F6E"/>
<defs>
<filter id="filter0_dd_2_13" x="0" y="0" width="426" height="211" filterUnits="userSpaceOnUse" color-interpolation-filters="sRGB">
<feFlood flood-opacity="0" result="BackgroundImageFix"/>
<feColorMatrix in="SourceAlpha" type="matrix" values="0 0 0 0 0 0 0 0 0 0 0 0 0 0 0 0 0 0 127 0" result="hardAlpha"/>
<feOffset dy="1"/>
<feGaussianBlur stdDeviation="1.5"/>
<feColorMatrix type="matrix" values="0 0 0 0 0 0 0 0 0 0 0 0 0 0 0 0 0 0 0.1 0"/>
<feBlend mode="normal" in2="BackgroundImageFix" result="effect1_dropShadow_2_13"/>
<feColorMatrix in="SourceAlpha" type="matrix" values="0 0 0 0 0 0 0 0 0 0 0 0 0 0 0 0 0 0 127 0" result="hardAlpha"/>
<feOffset dy="1"/>
<feGaussianBlur stdDeviation="1"/>
<feColorMatrix type="matrix" values="0 0 0 0 0 0 0 0 0 0 0 0 0 0 0 0 0 0 0.06 0"/>
<feBlend mode="normal" in2="effect1_dropShadow_2_13" result="effect2_dropShadow_2_13"/>
<feBlend mode="normal" in="SourceGraphic" in2="effect2_dropShadow_2_13" result="shape"/>
</filter>
</defs>
</svg>
