<svg width="16" height="17" viewBox="0 0 16 17" fill="none" xmlns="http://www.w3.org/2000/svg">
<path d="M1.59998 2.9001C1.59998 2.68792 1.68426 2.48444 1.83429 2.33441C1.98432 2.18438 2.1878 2.1001 2.39998 2.1001H4.12238C4.31174 2.10018 4.49493 2.16744 4.63937 2.28991C4.78381 2.41237 4.88012 2.5821 4.91118 2.7689L5.50318 6.3169C5.53146 6.48587 5.50476 6.65946 5.42699 6.81212C5.34922 6.96478 5.22449 7.08844 5.07118 7.1649L3.83278 7.7833C4.27686 8.88382 4.93824 9.88352 5.7774 10.7227C6.61655 11.5618 7.61625 12.2232 8.71677 12.6673L9.33598 11.4289C9.41239 11.2757 9.53592 11.1511 9.68842 11.0733C9.84091 10.9956 10.0143 10.9688 10.1832 10.9969L13.7312 11.5889C13.918 11.62 14.0877 11.7163 14.2102 11.8607C14.3326 12.0051 14.3999 12.1883 14.4 12.3777V14.1001C14.4 14.3123 14.3157 14.5158 14.1657 14.6658C14.0156 14.8158 13.8121 14.9001 13.6 14.9001H12C6.25598 14.9001 1.59998 10.2441 1.59998 4.5001V2.9001Z" fill="white"/>
</svg>
