<svg width="95" height="95" viewBox="0 0 95 95" fill="none" xmlns="http://www.w3.org/2000/svg">
<path d="M24.1051 56L31.3409 41.6818V41.5625H22.9119V38.5455H35.1591V41.6051L27.9148 56H24.1051ZM44.0121 56.2386C43.1143 56.233 42.2479 56.0824 41.4126 55.7869C40.5831 55.4915 39.8388 55.0114 39.1797 54.3466C38.5206 53.6818 37.9979 52.8011 37.6115 51.7045C37.2308 50.608 37.0405 49.2614 37.0405 47.6648C37.0462 46.1989 37.2138 44.8892 37.5433 43.7358C37.8786 42.5767 38.3558 41.5937 38.9751 40.7869C39.6001 39.9801 40.3473 39.3665 41.2166 38.946C42.0859 38.5199 43.0604 38.3068 44.1399 38.3068C45.3047 38.3068 46.3331 38.5341 47.2251 38.9886C48.1172 39.4375 48.8331 40.0483 49.3729 40.821C49.9183 41.5938 50.2479 42.4602 50.3615 43.4205H46.7223C46.5803 42.8125 46.282 42.3352 45.8274 41.9886C45.3729 41.642 44.8104 41.4688 44.1399 41.4688C43.0036 41.4688 42.1399 41.9631 41.549 42.9517C40.9638 43.9403 40.6655 45.2841 40.6541 46.983H40.7734C41.0348 46.4659 41.3871 46.0256 41.8303 45.6619C42.2791 45.2926 42.7876 45.0114 43.3558 44.8182C43.9297 44.6193 44.5348 44.5199 45.1712 44.5199C46.2053 44.5199 47.1257 44.7642 47.9325 45.2528C48.7393 45.7358 49.3757 46.4006 49.8416 47.2472C50.3075 48.0937 50.5405 49.0625 50.5405 50.1534C50.5405 51.3352 50.2649 52.3864 49.7138 53.3068C49.1683 54.2273 48.4041 54.9489 47.4212 55.4716C46.4439 55.9886 45.3075 56.2443 44.0121 56.2386ZM43.995 53.3409C44.5632 53.3409 45.0717 53.2045 45.5206 52.9318C45.9695 52.6591 46.3217 52.2898 46.5774 51.8239C46.8331 51.358 46.9609 50.8352 46.9609 50.2557C46.9609 49.6761 46.8331 49.1562 46.5774 48.696C46.3274 48.2358 45.9808 47.8693 45.5376 47.5966C45.0945 47.3239 44.5888 47.1875 44.0206 47.1875C43.5945 47.1875 43.1996 47.267 42.8359 47.4261C42.478 47.5852 42.1626 47.8068 41.8899 48.0909C41.6229 48.375 41.4126 48.7045 41.2592 49.0795C41.1058 49.4489 41.0291 49.8437 41.0291 50.2642C41.0291 50.8267 41.157 51.3409 41.4126 51.8068C41.674 52.2727 42.0263 52.6449 42.4695 52.9233C42.9183 53.2017 43.4268 53.3409 43.995 53.3409ZM62.7109 52.7273V51.8068C62.7109 51.108 62.8587 50.4659 63.1541 49.8807C63.4553 49.2898 63.8899 48.8182 64.4581 48.4659C65.032 48.108 65.7308 47.929 66.5547 47.929C67.3899 47.929 68.0916 48.1051 68.6598 48.4574C69.2337 48.8097 69.6655 49.2812 69.9553 49.8722C70.2507 50.4574 70.3984 51.1023 70.3984 51.8068V52.7273C70.3984 53.4261 70.2507 54.071 69.9553 54.6619C69.6598 55.2472 69.2251 55.7159 68.6513 56.0682C68.0774 56.4261 67.3786 56.6051 66.5547 56.6051C65.7195 56.6051 65.0178 56.4261 64.4496 56.0682C63.8814 55.7159 63.4496 55.2472 63.1541 54.6619C62.8587 54.071 62.7109 53.4261 62.7109 52.7273ZM65.1911 51.8068V52.7273C65.1911 53.1307 65.2876 53.5114 65.4808 53.8693C65.6797 54.2273 66.0376 54.4062 66.5547 54.4062C67.0717 54.4062 67.424 54.2301 67.6115 53.8778C67.8047 53.5256 67.9013 53.142 67.9013 52.7273V51.8068C67.9013 51.392 67.8104 51.0057 67.6286 50.6477C67.4467 50.2898 67.0888 50.1108 66.5547 50.1108C66.0433 50.1108 65.6882 50.2898 65.4893 50.6477C65.2905 51.0057 65.1911 51.392 65.1911 51.8068ZM53.7536 42.7386V41.8182C53.7536 41.1136 53.9041 40.4687 54.2053 39.8835C54.5064 39.2926 54.9411 38.821 55.5092 38.4688C56.0831 38.1165 56.7763 37.9403 57.5888 37.9403C58.4297 37.9403 59.1342 38.1165 59.7024 38.4688C60.2706 38.821 60.7024 39.2926 60.9979 39.8835C61.2933 40.4687 61.4411 41.1136 61.4411 41.8182V42.7386C61.4411 43.4432 61.2905 44.0881 60.9893 44.6733C60.6939 45.2585 60.2592 45.7273 59.6854 46.0795C59.1172 46.4261 58.4183 46.5994 57.5888 46.5994C56.7592 46.5994 56.0575 46.4233 55.4837 46.071C54.9155 45.7131 54.4837 45.2443 54.1882 44.6648C53.8984 44.0795 53.7536 43.4375 53.7536 42.7386ZM56.2507 41.8182V42.7386C56.2507 43.1534 56.3473 43.5369 56.5405 43.8892C56.7393 44.2415 57.0888 44.4176 57.5888 44.4176C58.1115 44.4176 58.4666 44.2415 58.6541 43.8892C58.8473 43.5369 58.9439 43.1534 58.9439 42.7386V41.8182C58.9439 41.4034 58.853 41.017 58.6712 40.6591C58.4893 40.3011 58.1286 40.1222 57.5888 40.1222C57.0831 40.1222 56.7337 40.304 56.5405 40.6676C56.3473 41.0312 56.2507 41.4148 56.2507 41.8182ZM54.8786 56L66.8786 38.5455H69.1115L57.1115 56H54.8786Z" fill="#111928"/>
<path d="M95 47.5C95 73.7335 73.7335 95 47.5 95C21.2665 95 0 73.7335 0 47.5C0 21.2665 21.2665 0 47.5 0C73.7335 0 95 21.2665 95 47.5ZM4.75 47.5C4.75 71.1102 23.8898 90.25 47.5 90.25C71.1102 90.25 90.25 71.1102 90.25 47.5C90.25 23.8898 71.1102 4.75 47.5 4.75C23.8898 4.75 4.75 23.8898 4.75 47.5Z" fill="#F3F4F6"/>
<path d="M90.8489 34.9645C92.1089 34.6001 93.432 35.3253 93.7329 36.6019C95.8291 45.494 95.3198 54.8207 92.2395 63.4571C88.8927 72.8407 82.6801 80.9344 74.4808 86.5933C66.2814 92.2522 56.5103 95.1898 46.5497 94.9905C36.5891 94.7912 26.9434 91.4651 18.9769 85.4827C11.0105 79.5003 5.12675 71.1645 2.15799 61.6546C-0.810767 52.1446 -0.714219 41.942 2.43398 32.4899C5.58217 23.0378 11.6226 14.8149 19.7008 8.98432C27.1359 3.61801 35.9506 0.528336 45.0745 0.0619473C46.3844 -0.0050148 47.4498 1.06335 47.4512 2.37503C47.4526 3.6867 46.3895 4.7443 45.0799 4.81853C36.9529 5.27924 29.1079 8.05271 22.4808 12.8359C15.2104 18.0834 9.77396 25.484 6.94058 33.9909C4.1072 42.4978 4.02031 51.6802 6.69219 60.2391C9.36408 68.7981 14.6595 76.3003 21.8293 81.6844C28.999 87.0686 37.6802 90.0621 46.6447 90.2414C55.6093 90.4208 64.4033 87.777 71.7827 82.684C79.1621 77.591 84.7534 70.3066 87.7655 61.8614C90.5111 54.1634 90.9871 45.8562 89.1635 37.923C88.8696 36.6447 89.5888 35.3288 90.8489 34.9645Z" fill="#0E9F6E"/>
</svg>
