<svg width="42" height="42" viewBox="0 0 42 42" fill="none" xmlns="http://www.w3.org/2000/svg">
<path d="M11.1256 17.7273V25H9.58798V19.1868H9.54537L7.87988 20.2308V18.8672L9.68031 17.7273H11.1256ZM15.7057 25.1598C15.0949 25.1574 14.5693 25.0071 14.129 24.7088C13.691 24.4105 13.3537 23.9785 13.1169 23.4126C12.8825 22.8468 12.7665 22.1662 12.7689 21.3707C12.7689 20.5777 12.8861 19.9018 13.1205 19.343C13.3572 18.7843 13.6946 18.3594 14.1325 18.0682C14.5729 17.7746 15.0973 17.6278 15.7057 17.6278C16.3141 17.6278 16.8373 17.7746 17.2753 18.0682C17.7156 18.3617 18.0542 18.7879 18.2909 19.3466C18.5277 19.9029 18.6449 20.5777 18.6425 21.3707C18.6425 22.1686 18.5241 22.8504 18.2874 23.4162C18.053 23.982 17.7168 24.4141 17.2789 24.7124C16.8409 25.0107 16.3165 25.1598 15.7057 25.1598ZM15.7057 23.8849C16.1224 23.8849 16.455 23.6754 16.7036 23.2564C16.9521 22.8374 17.0753 22.2088 17.0729 21.3707C17.0729 20.8191 17.0161 20.3598 16.9024 19.9929C16.7912 19.6259 16.6325 19.3501 16.4266 19.1655C16.223 18.9808 15.9827 18.8885 15.7057 18.8885C15.2914 18.8885 14.96 19.0956 14.7114 19.5099C14.4628 19.9242 14.3373 20.5445 14.335 21.3707C14.335 21.9295 14.3906 22.3958 14.5019 22.7699C14.6155 23.1416 14.7753 23.4209 14.9813 23.608C15.1872 23.7926 15.4287 23.8849 15.7057 23.8849ZM22.5905 25.1598C21.9797 25.1574 21.4541 25.0071 21.0138 24.7088C20.5758 24.4105 20.2384 23.9785 20.0017 23.4126C19.7673 22.8468 19.6513 22.1662 19.6537 21.3707C19.6537 20.5777 19.7709 19.9018 20.0052 19.343C20.242 18.7843 20.5793 18.3594 21.0173 18.0682C21.4577 17.7746 21.982 17.6278 22.5905 17.6278C23.1989 17.6278 23.7221 17.7746 24.1601 18.0682C24.6004 18.3617 24.939 18.7879 25.1757 19.3466C25.4124 19.9029 25.5296 20.5777 25.5273 21.3707C25.5273 22.1686 25.4089 22.8504 25.1721 23.4162C24.9378 23.982 24.6016 24.4141 24.1636 24.7124C23.7256 25.0107 23.2013 25.1598 22.5905 25.1598ZM22.5905 23.8849C23.0071 23.8849 23.3398 23.6754 23.5883 23.2564C23.8369 22.8374 23.96 22.2088 23.9577 21.3707C23.9577 20.8191 23.9008 20.3598 23.7872 19.9929C23.6759 19.6259 23.5173 19.3501 23.3113 19.1655C23.1077 18.9808 22.8675 18.8885 22.5905 18.8885C22.1762 18.8885 21.8447 19.0956 21.5961 19.5099C21.3476 19.9242 21.2221 20.5445 21.2197 21.3707C21.2197 21.9295 21.2754 22.3958 21.3866 22.7699C21.5003 23.1416 21.6601 23.4209 21.866 23.608C22.072 23.7926 22.3135 23.8849 22.5905 23.8849ZM30.6045 23.6364V23.2528C30.6045 22.9616 30.666 22.6941 30.7892 22.4503C30.9146 22.2041 31.0957 22.0076 31.3325 21.8608C31.5716 21.7116 31.8628 21.6371 32.2061 21.6371C32.5541 21.6371 32.8464 21.7105 33.0832 21.8572C33.3223 22.004 33.5022 22.2005 33.623 22.4467C33.7461 22.6906 33.8076 22.9593 33.8076 23.2528V23.6364C33.8076 23.9276 33.7461 24.1963 33.623 24.4425C33.4999 24.6863 33.3187 24.8816 33.0796 25.0284C32.8405 25.1776 32.5493 25.2521 32.2061 25.2521C31.858 25.2521 31.5657 25.1776 31.3289 25.0284C31.0922 24.8816 30.9123 24.6863 30.7892 24.4425C30.666 24.1963 30.6045 23.9276 30.6045 23.6364ZM31.6379 23.2528V23.6364C31.6379 23.8045 31.6781 23.9631 31.7586 24.1122C31.8415 24.2614 31.9906 24.3359 32.2061 24.3359C32.4215 24.3359 32.5683 24.2625 32.6464 24.1158C32.7269 23.969 32.7671 23.8092 32.7671 23.6364V23.2528C32.7671 23.08 32.7293 22.919 32.6535 22.7699C32.5777 22.6207 32.4286 22.5462 32.2061 22.5462C31.993 22.5462 31.845 22.6207 31.7622 22.7699C31.6793 22.919 31.6379 23.08 31.6379 23.2528ZM26.8722 19.4744V19.0909C26.8722 18.7973 26.935 18.5286 27.0605 18.2848C27.1859 18.0386 27.367 17.8421 27.6038 17.6953C27.8429 17.5485 28.1317 17.4751 28.4703 17.4751C28.8206 17.4751 29.1142 17.5485 29.3509 17.6953C29.5877 17.8421 29.7676 18.0386 29.8907 18.2848C30.0138 18.5286 30.0754 18.7973 30.0754 19.0909V19.4744C30.0754 19.768 30.0126 20.0367 29.8872 20.2805C29.7641 20.5244 29.5829 20.7197 29.3438 20.8665C29.1071 21.0109 28.8159 21.0831 28.4703 21.0831C28.1246 21.0831 27.8322 21.0097 27.5931 20.8629C27.3564 20.7138 27.1765 20.5185 27.0534 20.277C26.9326 20.0331 26.8722 19.7656 26.8722 19.4744ZM27.9127 19.0909V19.4744C27.9127 19.6473 27.953 19.8071 28.0335 19.9538C28.1163 20.1006 28.2619 20.174 28.4703 20.174C28.6881 20.174 28.836 20.1006 28.9142 19.9538C28.9946 19.8071 29.0349 19.6473 29.0349 19.4744V19.0909C29.0349 18.9181 28.997 18.7571 28.9213 18.608C28.8455 18.4588 28.6952 18.3842 28.4703 18.3842C28.2596 18.3842 28.114 18.46 28.0335 18.6115C27.953 18.763 27.9127 18.9228 27.9127 19.0909ZM27.341 25L32.341 17.7273H33.2714L28.2714 25H27.341Z" fill="#111928"/>
<path d="M42 21C42 32.598 32.598 42 21 42C9.40202 42 0 32.598 0 21C0 9.40202 9.40202 0 21 0C32.598 0 42 9.40202 42 21ZM2.1 21C2.1 31.4382 10.5618 39.9 21 39.9C31.4382 39.9 39.9 31.4382 39.9 21C39.9 10.5618 31.4382 2.1 21 2.1C10.5618 2.1 2.1 10.5618 2.1 21Z" fill="#F3F4F6"/>
<path d="M42 21C42 32.598 32.598 42 21 42C9.40202 42 0 32.598 0 21C0 9.40202 9.40202 0 21 0C32.598 0 42 9.40202 42 21ZM2.1 21C2.1 31.4382 10.5618 39.9 21 39.9C31.4382 39.9 39.9 31.4382 39.9 21C39.9 10.5618 31.4382 2.1 21 2.1C10.5618 2.1 2.1 10.5618 2.1 21Z" fill="#0E9F6E"/>
</svg>
