<svg width="42" height="42" viewBox="0 0 42 42" fill="none" xmlns="http://www.w3.org/2000/svg">
<path d="M16.7018 25.1598C16.091 25.1574 15.5654 25.0071 15.1251 24.7088C14.6871 24.4105 14.3498 23.9785 14.113 23.4126C13.8786 22.8468 13.7626 22.1662 13.765 21.3707C13.765 20.5777 13.8822 19.9018 14.1166 19.343C14.3533 18.7843 14.6907 18.3594 15.1286 18.0682C15.569 17.7746 16.0934 17.6278 16.7018 17.6278C17.3102 17.6278 17.8334 17.7746 18.2714 18.0682C18.7117 18.3617 19.0503 18.7879 19.287 19.3466C19.5238 19.9029 19.641 20.5777 19.6386 21.3707C19.6386 22.1686 19.5202 22.8504 19.2835 23.4162C19.0491 23.982 18.7129 24.4141 18.2749 24.7124C17.837 25.0107 17.3126 25.1598 16.7018 25.1598ZM16.7018 23.8849C17.1185 23.8849 17.4511 23.6754 17.6997 23.2564C17.9482 22.8374 18.0713 22.2088 18.069 21.3707C18.069 20.8191 18.0122 20.3598 17.8985 19.9929C17.7873 19.6259 17.6286 19.3501 17.4227 19.1655C17.2191 18.9808 16.9788 18.8885 16.7018 18.8885C16.2875 18.8885 15.9561 19.0956 15.7075 19.5099C15.4589 19.9242 15.3334 20.5445 15.3311 21.3707C15.3311 21.9295 15.3867 22.3958 15.498 22.7699C15.6116 23.1416 15.7714 23.4209 15.9774 23.608C16.1833 23.7926 16.4248 23.8849 16.7018 23.8849ZM24.7158 23.6364V23.2528C24.7158 22.9616 24.7774 22.6941 24.9005 22.4503C25.026 22.2041 25.2071 22.0076 25.4438 21.8608C25.6829 21.7116 25.9741 21.6371 26.3174 21.6371C26.6654 21.6371 26.9578 21.7105 27.1945 21.8572C27.4336 22.004 27.6135 22.2005 27.7343 22.4467C27.8574 22.6906 27.9189 22.9593 27.9189 23.2528V23.6364C27.9189 23.9276 27.8574 24.1963 27.7343 24.4425C27.6112 24.6863 27.4301 24.8816 27.191 25.0284C26.9519 25.1776 26.6607 25.2521 26.3174 25.2521C25.9694 25.2521 25.677 25.1776 25.4403 25.0284C25.2035 24.8816 25.0236 24.6863 24.9005 24.4425C24.7774 24.1963 24.7158 23.9276 24.7158 23.6364ZM25.7492 23.2528V23.6364C25.7492 23.8045 25.7894 23.9631 25.8699 24.1122C25.9528 24.2614 26.1019 24.3359 26.3174 24.3359C26.5328 24.3359 26.6796 24.2625 26.7577 24.1158C26.8382 23.969 26.8785 23.8092 26.8785 23.6364V23.2528C26.8785 23.08 26.8406 22.919 26.7648 22.7699C26.6891 22.6207 26.5399 22.5462 26.3174 22.5462C26.1043 22.5462 25.9564 22.6207 25.8735 22.7699C25.7906 22.919 25.7492 23.08 25.7492 23.2528ZM20.9836 19.4744V19.0909C20.9836 18.7973 21.0463 18.5286 21.1718 18.2848C21.2973 18.0386 21.4784 17.8421 21.7151 17.6953C21.9542 17.5485 22.243 17.4751 22.5816 17.4751C22.932 17.4751 23.2255 17.5485 23.4623 17.6953C23.699 17.8421 23.8789 18.0386 24.002 18.2848C24.1251 18.5286 24.1867 18.7973 24.1867 19.0909V19.4744C24.1867 19.768 24.124 20.0367 23.9985 20.2805C23.8754 20.5244 23.6943 20.7197 23.4552 20.8665C23.2184 21.0109 22.9272 21.0831 22.5816 21.0831C22.2359 21.0831 21.9436 21.0097 21.7045 20.8629C21.4677 20.7138 21.2878 20.5185 21.1647 20.277C21.0439 20.0331 20.9836 19.7656 20.9836 19.4744ZM22.0241 19.0909V19.4744C22.0241 19.6473 22.0643 19.8071 22.1448 19.9538C22.2277 20.1006 22.3733 20.174 22.5816 20.174C22.7994 20.174 22.9474 20.1006 23.0255 19.9538C23.106 19.8071 23.1462 19.6473 23.1462 19.4744V19.0909C23.1462 18.9181 23.1083 18.7571 23.0326 18.608C22.9568 18.4588 22.8065 18.3842 22.5816 18.3842C22.3709 18.3842 22.2253 18.46 22.1448 18.6115C22.0643 18.763 22.0241 18.9228 22.0241 19.0909ZM21.4523 25L26.4523 17.7273H27.3827L22.3827 25H21.4523Z" fill="#111928"/>
<path d="M42 21C42 32.598 32.598 42 21 42C9.40202 42 0 32.598 0 21C0 9.40202 9.40202 0 21 0C32.598 0 42 9.40202 42 21ZM2.1 21C2.1 31.4382 10.5618 39.9 21 39.9C31.4382 39.9 39.9 31.4382 39.9 21C39.9 10.5618 31.4382 2.1 21 2.1C10.5618 2.1 2.1 10.5618 2.1 21Z" fill="#F3F4F6"/>
</svg>
