<svg width="329" height="186" viewBox="0 0 329 186" fill="none" xmlns="http://www.w3.org/2000/svg">
<g filter="url(#filter0_dd_25_13058)">
<rect x="3" y="2" width="318" height="180" rx="16" fill="white"/>
</g>
<g filter="url(#filter1_dd_25_13058)">
<rect x="3" y="2" width="322.75" height="180" rx="16" fill="white"/>
</g>
<path d="M28.2912 46H30.6626V41.5767H33.1683C36.1918 41.5767 37.8153 39.7614 37.8153 37.2429C37.8153 34.7436 36.2109 32.9091 33.2003 32.9091H28.2912V46ZM30.6626 39.6271V34.8906H32.8359C34.6129 34.8906 35.3991 35.8494 35.3991 37.2429C35.3991 38.6364 34.6129 39.6271 32.8487 39.6271H30.6626ZM42.4224 46.1982C43.9629 46.1982 44.8833 45.4759 45.3052 44.6513H45.3819V46H47.6064V39.429C47.6064 36.8338 45.4906 36.054 43.6177 36.054C41.5531 36.054 39.9679 36.9744 39.4565 38.7642L41.617 39.071C41.8471 38.3999 42.4991 37.8246 43.6305 37.8246C44.7044 37.8246 45.2924 38.3743 45.2924 39.3395V39.3778C45.2924 40.0426 44.5957 40.0746 42.8635 40.2599C40.9586 40.4645 39.1369 41.0334 39.1369 43.245C39.1369 45.1754 40.5495 46.1982 42.4224 46.1982ZM43.0233 44.4979C42.0581 44.4979 41.3677 44.0568 41.3677 43.2067C41.3677 42.3182 42.1412 41.9474 43.1767 41.8004C43.7839 41.7173 44.9984 41.5639 45.2988 41.321V42.478C45.2988 43.571 44.4167 44.4979 43.0233 44.4979ZM49.9331 46H52.247V40.228C52.247 38.9815 53.1866 38.0994 54.4586 38.0994C54.8485 38.0994 55.3343 38.1697 55.5325 38.2337V36.1051C55.3216 36.0668 54.9572 36.0412 54.7015 36.0412C53.5765 36.0412 52.6369 36.6804 52.2789 37.8182H52.1767V36.1818H49.9331V46ZM62.4998 36.1818H60.563V33.8295H58.2491V36.1818H56.8556V37.9716H58.2491V43.4304C58.2363 45.2777 59.5787 46.1854 61.3173 46.1342C61.9757 46.1151 62.4295 45.9872 62.6788 45.9041L62.2889 44.0952C62.161 44.1271 61.899 44.1847 61.6113 44.1847C61.0297 44.1847 60.563 43.9801 60.563 43.0469V37.9716H62.4998V36.1818ZM64.435 46H66.7489V36.1818H64.435V46ZM65.5984 34.7884C66.3335 34.7884 66.9343 34.2259 66.9343 33.5355C66.9343 32.8388 66.3335 32.2763 65.5984 32.2763C64.8569 32.2763 64.256 32.8388 64.256 33.5355C64.256 34.2259 64.8569 34.7884 65.5984 34.7884ZM73.411 46.1918C75.8784 46.1918 77.4508 44.728 77.617 42.6442H75.4054C75.2072 43.6989 74.4466 44.3061 73.4302 44.3061C71.9856 44.3061 71.0524 43.098 71.0524 41.0909C71.0524 39.1094 72.0048 37.9205 73.4302 37.9205C74.5424 37.9205 75.2264 38.6364 75.4054 39.5824H77.617C77.4572 37.4538 75.7953 36.054 73.3983 36.054C70.5218 36.054 68.7065 38.1314 68.7065 41.1293C68.7065 44.1016 70.4771 46.1918 73.411 46.1918ZM79.517 46H81.831V36.1818H79.517V46ZM80.6804 34.7884C81.4155 34.7884 82.0163 34.2259 82.0163 33.5355C82.0163 32.8388 81.4155 32.2763 80.6804 32.2763C79.9389 32.2763 79.3381 32.8388 79.3381 33.5355C79.3381 34.2259 79.9389 34.7884 80.6804 34.7884ZM84.2104 49.6818H86.5243V44.4531H86.6202C86.9846 45.169 87.7452 46.1726 89.4327 46.1726C91.7466 46.1726 93.4789 44.3381 93.4789 41.1037C93.4789 37.831 91.6955 36.054 89.4263 36.054C87.6941 36.054 86.9718 37.0959 86.6202 37.8054H86.486V36.1818H84.2104V49.6818ZM86.4796 41.0909C86.4796 39.1861 87.2978 37.9524 88.7871 37.9524C90.3276 37.9524 91.1202 39.2628 91.1202 41.0909C91.1202 42.9318 90.3148 44.2741 88.7871 44.2741C87.3105 44.2741 86.4796 42.9957 86.4796 41.0909ZM98.2857 46.1982C99.8262 46.1982 100.747 45.4759 101.169 44.6513H101.245V46H103.47V39.429C103.47 36.8338 101.354 36.054 99.481 36.054C97.4164 36.054 95.8311 36.9744 95.3198 38.7642L97.4803 39.071C97.7104 38.3999 98.3624 37.8246 99.4938 37.8246C100.568 37.8246 101.156 38.3743 101.156 39.3395V39.3778C101.156 40.0426 100.459 40.0746 98.7267 40.2599C96.8219 40.4645 95.0002 41.0334 95.0002 43.245C95.0002 45.1754 96.4128 46.1982 98.2857 46.1982ZM98.8865 44.4979C97.9213 44.4979 97.231 44.0568 97.231 43.2067C97.231 42.3182 98.0044 41.9474 99.04 41.8004C99.6472 41.7173 100.862 41.5639 101.162 41.321V42.478C101.162 43.571 100.28 44.4979 98.8865 44.4979ZM108.11 40.2472C108.11 38.8281 108.967 38.0099 110.188 38.0099C111.383 38.0099 112.099 38.7962 112.099 40.1065V46H114.413V39.7486C114.419 37.3963 113.077 36.054 111.051 36.054C109.58 36.054 108.57 36.7571 108.123 37.8501H108.008V36.1818H105.796V46H108.11V40.2472ZM121.668 36.1818H119.731V33.8295H117.417V36.1818H116.024V37.9716H117.417V43.4304C117.404 45.2777 118.747 46.1854 120.485 46.1342C121.144 46.1151 121.597 45.9872 121.847 45.9041L121.457 44.0952C121.329 44.1271 121.067 44.1847 120.779 44.1847C120.198 44.1847 119.731 43.9801 119.731 43.0469V37.9716H121.668V36.1818ZM131.222 38.777C130.903 37.1151 129.573 36.054 127.272 36.054C124.907 36.054 123.296 37.2173 123.303 39.0327C123.296 40.4645 124.178 41.4105 126.064 41.8004L127.739 42.152C128.64 42.3501 129.062 42.7145 129.062 43.2706C129.062 43.9418 128.333 44.4467 127.234 44.4467C126.173 44.4467 125.482 43.9865 125.284 43.1044L123.028 43.3217C123.315 45.1243 124.83 46.1918 127.24 46.1918C129.695 46.1918 131.427 44.9197 131.433 43.0597C131.427 41.6598 130.526 40.8033 128.672 40.4006L126.997 40.0426C126 39.8189 125.604 39.4737 125.61 38.9048C125.604 38.2401 126.339 37.7798 127.304 37.7798C128.371 37.7798 128.934 38.3615 129.113 39.0071L131.222 38.777Z" fill="#111928"/>
<path d="M36.7372 133.298C41.5952 133.298 44.8977 130.134 44.8871 125.724C44.8977 121.548 41.9787 118.543 38.0476 118.543C36.13 118.543 34.4787 119.342 33.7116 120.418H33.5838L34.1484 114.953H43.6832V111.182H30.3452L29.3118 122.688L33.4134 123.423C34.0845 122.517 35.3842 121.952 36.6733 121.952C38.8679 121.963 40.4446 123.55 40.4446 125.841C40.4446 128.11 38.8999 129.676 36.7372 129.676C34.9048 129.676 33.424 128.526 33.3175 126.832H28.843C28.9283 130.603 32.2202 133.298 36.7372 133.298ZM52.4057 130.017H48.6557L48.6025 131.21C48.4746 134.108 47.6436 137.08 47.3347 138.327H50.275C50.7864 137.038 52.0009 134.012 52.2885 131.189L52.4057 130.017ZM56.5126 133H72.0666V129.229H62.9047V129.08L66.09 125.958C70.5751 121.867 71.7789 119.822 71.7789 117.339C71.7789 113.558 68.6895 110.884 64.0126 110.884C59.4316 110.884 56.2889 113.621 56.2995 117.904H60.6781C60.6674 115.816 61.9885 114.538 63.9806 114.538C65.8983 114.538 67.3258 115.731 67.3258 117.648C67.3258 119.385 66.2605 120.578 64.2789 122.485L56.5126 129.676V133ZM83.4737 133.298C88.3743 133.298 91.8793 130.603 91.8686 126.874C91.8793 124.158 90.1534 122.219 86.9467 121.814V121.643C89.3864 121.207 91.0696 119.481 91.0589 117.031C91.0696 113.589 88.0547 110.884 83.5376 110.884C79.0632 110.884 75.6967 113.504 75.6328 117.276H80.054C80.1072 115.614 81.6307 114.538 83.5163 114.538C85.3807 114.538 86.6271 115.667 86.6165 117.308C86.6271 119.023 85.1676 120.184 83.0689 120.184H81.0341V123.572H83.0689C85.5405 123.572 87.0852 124.808 87.0746 126.565C87.0852 128.302 85.5938 129.495 83.4844 129.495C81.4496 129.495 79.9261 128.43 79.8409 126.832H75.196C75.2706 130.646 78.6797 133.298 83.4737 133.298ZM103.249 133.298C108.15 133.298 111.655 130.603 111.644 126.874C111.655 124.158 109.929 122.219 106.722 121.814V121.643C109.162 121.207 110.845 119.481 110.834 117.031C110.845 113.589 107.83 110.884 103.313 110.884C98.8386 110.884 95.4721 113.504 95.4082 117.276H99.8294C99.8826 115.614 101.406 114.538 103.292 114.538C105.156 114.538 106.403 115.667 106.392 117.308C106.403 119.023 104.943 120.184 102.844 120.184H100.809V123.572H102.844C105.316 123.572 106.861 124.808 106.85 126.565C106.861 128.302 105.369 129.495 103.26 129.495C101.225 129.495 99.7015 128.43 99.6163 126.832H94.9714C95.046 130.646 98.4551 133.298 103.249 133.298Z" fill="#1C64F2"/>
<path d="M270.095 35.2727H268.36L271.433 44H273.385L276.461 35.2727H274.723L272.456 42.142H272.366L270.095 35.2727ZM277.543 44H279.085V37.4545H277.543V44ZM278.318 36.5256C278.808 36.5256 279.209 36.1506 279.209 35.6903C279.209 35.2259 278.808 34.8509 278.318 34.8509C277.824 34.8509 277.423 35.2259 277.423 35.6903C277.423 36.1506 277.824 36.5256 278.318 36.5256ZM283.569 44.1278C285.095 44.1278 286.143 43.3821 286.416 42.2443L284.975 42.0824C284.767 42.6364 284.255 42.9261 283.591 42.9261C282.593 42.9261 281.933 42.2699 281.92 41.1491H286.48V40.6761C286.48 38.3793 285.099 37.3693 283.488 37.3693C281.613 37.3693 280.39 38.7457 280.39 40.7656C280.39 42.8196 281.596 44.1278 283.569 44.1278ZM281.924 40.1094C281.971 39.2741 282.589 38.571 283.51 38.571C284.396 38.571 284.993 39.2188 285.001 40.1094H281.924ZM289.1 44H290.711L291.939 39.5767H292.028L293.255 44H294.862L296.716 37.4545H295.139L294.005 42.0312H293.941L292.765 37.4545H291.21L290.034 42.0568H289.974L288.824 37.4545H287.251L289.1 44Z" fill="#1C64F2"/>
<path d="M151 36V40M151 44H151.01M160 40C160 41.1819 159.767 42.3522 159.315 43.4442C158.863 44.5361 158.2 45.5282 157.364 46.364C156.528 47.1997 155.536 47.8626 154.444 48.3149C153.352 48.7672 152.182 49 151 49C149.818 49 148.648 48.7672 147.556 48.3149C146.464 47.8626 145.472 47.1997 144.636 46.364C143.8 45.5282 143.137 44.5361 142.685 43.4442C142.233 42.3522 142 41.1819 142 40C142 37.6131 142.948 35.3239 144.636 33.636C146.324 31.9482 148.613 31 151 31C153.387 31 155.676 31.9482 157.364 33.636C159.052 35.3239 160 37.6131 160 40Z" stroke="#9CA3AF" stroke-width="2" stroke-linecap="round" stroke-linejoin="round"/>
<defs>
<filter id="filter0_dd_25_13058" x="0" y="0" width="324" height="186" filterUnits="userSpaceOnUse" color-interpolation-filters="sRGB">
<feFlood flood-opacity="0" result="BackgroundImageFix"/>
<feColorMatrix in="SourceAlpha" type="matrix" values="0 0 0 0 0 0 0 0 0 0 0 0 0 0 0 0 0 0 127 0" result="hardAlpha"/>
<feOffset dy="1"/>
<feGaussianBlur stdDeviation="1.5"/>
<feColorMatrix type="matrix" values="0 0 0 0 0 0 0 0 0 0 0 0 0 0 0 0 0 0 0.1 0"/>
<feBlend mode="normal" in2="BackgroundImageFix" result="effect1_dropShadow_25_13058"/>
<feColorMatrix in="SourceAlpha" type="matrix" values="0 0 0 0 0 0 0 0 0 0 0 0 0 0 0 0 0 0 127 0" result="hardAlpha"/>
<feOffset dy="1"/>
<feGaussianBlur stdDeviation="1"/>
<feColorMatrix type="matrix" values="0 0 0 0 0 0 0 0 0 0 0 0 0 0 0 0 0 0 0.06 0"/>
<feBlend mode="normal" in2="effect1_dropShadow_25_13058" result="effect2_dropShadow_25_13058"/>
<feBlend mode="normal" in="SourceGraphic" in2="effect2_dropShadow_25_13058" result="shape"/>
</filter>
<filter id="filter1_dd_25_13058" x="0" y="0" width="328.75" height="186" filterUnits="userSpaceOnUse" color-interpolation-filters="sRGB">
<feFlood flood-opacity="0" result="BackgroundImageFix"/>
<feColorMatrix in="SourceAlpha" type="matrix" values="0 0 0 0 0 0 0 0 0 0 0 0 0 0 0 0 0 0 127 0" result="hardAlpha"/>
<feOffset dy="1"/>
<feGaussianBlur stdDeviation="1.5"/>
<feColorMatrix type="matrix" values="0 0 0 0 0 0 0 0 0 0 0 0 0 0 0 0 0 0 0.1 0"/>
<feBlend mode="normal" in2="BackgroundImageFix" result="effect1_dropShadow_25_13058"/>
<feColorMatrix in="SourceAlpha" type="matrix" values="0 0 0 0 0 0 0 0 0 0 0 0 0 0 0 0 0 0 127 0" result="hardAlpha"/>
<feOffset dy="1"/>
<feGaussianBlur stdDeviation="1"/>
<feColorMatrix type="matrix" values="0 0 0 0 0 0 0 0 0 0 0 0 0 0 0 0 0 0 0.06 0"/>
<feBlend mode="normal" in2="effect1_dropShadow_25_13058" result="effect2_dropShadow_25_13058"/>
<feBlend mode="normal" in="SourceGraphic" in2="effect2_dropShadow_25_13058" result="shape"/>
</filter>
</defs>
</svg>
