
<svg width="329" height="186" viewBox="0 0 329 186" fill="none" xmlns="http://www.w3.org/2000/svg">
<g filter="url(#filter0_dd_25_13182)">
<rect x="3" y="2" width="322.75" height="180" rx="16" fill="white"/>
</g>
<path d="M244.9 125.179C243.945 125.179 243.095 125.015 242.349 124.687C241.608 124.354 241.022 123.898 240.592 123.319C240.165 122.735 239.946 122.062 239.933 121.299H242.72C242.737 121.619 242.842 121.9 243.033 122.143C243.229 122.381 243.489 122.567 243.813 122.699C244.137 122.831 244.501 122.897 244.906 122.897C245.328 122.897 245.701 122.822 246.025 122.673C246.349 122.524 246.602 122.317 246.786 122.053C246.969 121.789 247.06 121.484 247.06 121.139C247.06 120.79 246.962 120.481 246.766 120.212C246.575 119.94 246.298 119.727 245.935 119.573C245.577 119.42 245.151 119.343 244.657 119.343H243.436V117.31H244.657C245.075 117.31 245.443 117.238 245.763 117.093C246.087 116.948 246.338 116.748 246.517 116.492C246.696 116.232 246.786 115.93 246.786 115.585C246.786 115.256 246.707 114.969 246.549 114.722C246.396 114.47 246.178 114.274 245.897 114.134C245.62 113.993 245.296 113.923 244.925 113.923C244.55 113.923 244.207 113.991 243.896 114.127C243.585 114.259 243.336 114.449 243.148 114.696C242.961 114.943 242.861 115.233 242.848 115.565H240.195C240.208 114.811 240.423 114.146 240.841 113.571C241.259 112.996 241.821 112.546 242.528 112.222C243.24 111.894 244.043 111.73 244.938 111.73C245.842 111.73 246.632 111.894 247.31 112.222C247.987 112.55 248.513 112.994 248.888 113.552C249.268 114.106 249.455 114.728 249.451 115.418C249.455 116.151 249.227 116.763 248.767 117.253C248.311 117.743 247.717 118.054 246.984 118.186V118.288C247.947 118.412 248.68 118.746 249.183 119.292C249.69 119.833 249.941 120.511 249.937 121.325C249.941 122.07 249.726 122.733 249.291 123.312C248.861 123.892 248.266 124.348 247.508 124.68C246.749 125.013 245.88 125.179 244.9 125.179ZM251.728 122.699V120.519L257.193 111.909H259.073V114.926H257.96L254.515 120.379V120.481H262.281V122.699H251.728ZM258.012 125V122.034L258.063 121.069V111.909H260.658V125H258.012ZM271.291 122.545V121.855C271.291 121.331 271.402 120.849 271.623 120.411C271.849 119.967 272.175 119.614 272.601 119.349C273.032 119.081 273.556 118.947 274.174 118.947C274.8 118.947 275.327 119.079 275.753 119.343C276.183 119.607 276.507 119.961 276.724 120.404C276.946 120.843 277.057 121.327 277.057 121.855V122.545C277.057 123.07 276.946 123.553 276.724 123.996C276.503 124.435 276.177 124.787 275.746 125.051C275.316 125.32 274.792 125.454 274.174 125.454C273.547 125.454 273.021 125.32 272.595 125.051C272.169 124.787 271.845 124.435 271.623 123.996C271.402 123.553 271.291 123.07 271.291 122.545ZM273.151 121.855V122.545C273.151 122.848 273.224 123.134 273.368 123.402C273.518 123.67 273.786 123.805 274.174 123.805C274.562 123.805 274.826 123.673 274.966 123.408C275.111 123.144 275.184 122.857 275.184 122.545V121.855C275.184 121.544 275.116 121.254 274.979 120.986C274.843 120.717 274.574 120.583 274.174 120.583C273.79 120.583 273.524 120.717 273.375 120.986C273.226 121.254 273.151 121.544 273.151 121.855ZM264.573 115.054V114.364C264.573 113.835 264.686 113.352 264.912 112.913C265.138 112.469 265.464 112.116 265.89 111.852C266.32 111.587 266.84 111.455 267.449 111.455C268.08 111.455 268.608 111.587 269.035 111.852C269.461 112.116 269.785 112.469 270.006 112.913C270.228 113.352 270.339 113.835 270.339 114.364V115.054C270.339 115.582 270.226 116.066 270 116.505C269.778 116.944 269.452 117.295 269.022 117.56C268.596 117.82 268.072 117.95 267.449 117.95C266.827 117.95 266.301 117.817 265.871 117.553C265.444 117.285 265.121 116.933 264.899 116.499C264.682 116.06 264.573 115.578 264.573 115.054ZM266.446 114.364V115.054C266.446 115.365 266.518 115.653 266.663 115.917C266.812 116.181 267.074 116.313 267.449 116.313C267.841 116.313 268.108 116.181 268.248 115.917C268.393 115.653 268.466 115.365 268.466 115.054V114.364C268.466 114.053 268.398 113.763 268.261 113.494C268.125 113.226 267.854 113.092 267.449 113.092C267.07 113.092 266.808 113.228 266.663 113.501C266.518 113.773 266.446 114.061 266.446 114.364ZM265.417 125L274.417 111.909H276.091L267.091 125H265.417Z" fill="#111928"/>
<path d="M297 118C297 140.091 279.091 158 257 158C234.909 158 217 140.091 217 118C217 95.9086 234.909 78 257 78C279.091 78 297 95.9086 297 118ZM221 118C221 137.882 237.118 154 257 154C276.882 154 293 137.882 293 118C293 98.1177 276.882 82 257 82C237.118 82 221 98.1177 221 118Z" fill="#F3F4F6"/>
<path d="M295 118C296.105 118 297.005 118.896 296.95 119.999C296.626 126.467 294.736 132.77 291.43 138.362C287.783 144.528 282.548 149.601 276.27 153.052C269.993 156.503 262.904 158.205 255.744 157.98C249.251 157.776 242.916 155.995 237.282 152.802C236.321 152.258 236.047 151.017 236.639 150.084C237.23 149.152 238.464 148.881 239.428 149.42C244.455 152.232 250.093 153.801 255.869 153.982C262.313 154.185 268.693 152.653 274.343 149.547C279.993 146.441 284.705 141.875 287.987 136.325C290.929 131.351 292.625 125.75 292.944 119.999C293.006 118.896 293.895 118 295 118Z" fill="#9061F9"/>
<path d="M37.0611 37.0895C36.9545 36.7443 36.8075 36.4354 36.62 36.1626C36.4368 35.8857 36.2152 35.6491 35.9553 35.4531C35.6996 35.2571 35.4055 35.1101 35.0732 35.0121C34.7408 34.9098 34.3786 34.8587 33.9865 34.8587C33.2834 34.8587 32.657 35.0355 32.1072 35.3892C31.5575 35.7429 31.125 36.2628 30.8097 36.9489C30.4986 37.6307 30.343 38.4616 30.343 39.4418C30.343 40.4304 30.4986 41.2678 30.8097 41.9538C31.1207 42.6399 31.5533 43.1619 32.1072 43.5199C32.6612 43.8736 33.3047 44.0504 34.0376 44.0504C34.7024 44.0504 35.2777 43.9226 35.7635 43.6669C36.2536 43.4112 36.6307 43.049 36.8949 42.5803C37.1591 42.1072 37.2912 41.5533 37.2912 40.9183L37.8281 41.0014H34.2741V39.1477H39.5859V40.7202C39.5859 41.8409 39.3473 42.8104 38.87 43.6286C38.3928 44.4467 37.7365 45.0774 36.9013 45.5206C36.0661 45.9595 35.1072 46.179 34.0249 46.179C32.8189 46.179 31.7599 45.9084 30.848 45.3672C29.9403 44.8217 29.2308 44.0483 28.7195 43.0469C28.2124 42.0412 27.9588 40.848 27.9588 39.4673C27.9588 38.4105 28.108 37.4666 28.4062 36.6357C28.7088 35.8047 29.1307 35.0994 29.6719 34.5199C30.2131 33.9361 30.848 33.4929 31.5767 33.1903C32.3054 32.8835 33.098 32.7301 33.9545 32.7301C34.679 32.7301 35.3544 32.8366 35.9808 33.0497C36.6072 33.2585 37.1634 33.5568 37.6491 33.9446C38.1392 34.3324 38.5419 34.7926 38.8572 35.3253C39.1726 35.858 39.3793 36.446 39.4773 37.0895H37.0611ZM44.0907 32.9091V46H41.7768V32.9091H44.0907ZM52.728 41.8707V36.1818H55.0419V46H52.7983V44.255H52.696C52.4744 44.8047 52.1101 45.2543 51.603 45.6037C51.1001 45.9531 50.4801 46.1278 49.7429 46.1278C49.0994 46.1278 48.5305 45.9851 48.0362 45.6996C47.5462 45.4098 47.1626 44.9901 46.8857 44.4403C46.6087 43.8864 46.4702 43.2173 46.4702 42.4332V36.1818H48.7841V42.0753C48.7841 42.6974 48.9545 43.1918 49.2955 43.5582C49.6364 43.9247 50.0838 44.108 50.6378 44.108C50.9787 44.108 51.3089 44.0249 51.6286 43.8587C51.9482 43.6925 52.2102 43.4453 52.4148 43.1172C52.6236 42.7848 52.728 42.3693 52.728 41.8707ZM61.704 46.1918C60.7239 46.1918 59.8823 45.9766 59.1792 45.5462C58.4803 45.1158 57.9412 44.5213 57.562 43.7628C57.187 43 56.9995 42.1222 56.9995 41.1293C56.9995 40.1321 57.1912 39.2521 57.5748 38.4893C57.9583 37.7223 58.4995 37.1257 59.1983 36.6996C59.9015 36.2692 60.7324 36.054 61.6912 36.054C62.4881 36.054 63.1934 36.201 63.807 36.495C64.4249 36.7848 64.9171 37.196 65.2836 37.7287C65.65 38.2571 65.8588 38.875 65.91 39.5824H63.6983C63.6088 39.1094 63.3958 38.7152 63.0591 38.3999C62.7267 38.0803 62.2814 37.9205 61.7232 37.9205C61.2502 37.9205 60.8347 38.0483 60.4767 38.304C60.1188 38.5554 59.8397 38.9176 59.6394 39.3906C59.4434 39.8636 59.3453 40.4304 59.3453 41.0909C59.3453 41.7599 59.4434 42.3352 59.6394 42.8168C59.8354 43.294 60.1103 43.6626 60.464 43.9226C60.8219 44.1783 61.2417 44.3061 61.7232 44.3061C62.0641 44.3061 62.3688 44.2422 62.6373 44.1143C62.91 43.9822 63.138 43.7926 63.3212 43.5455C63.5044 43.2983 63.6301 42.9979 63.6983 42.6442H65.91C65.8546 43.3388 65.65 43.9545 65.2963 44.4915C64.9426 45.0241 64.4611 45.4418 63.8517 45.7443C63.2424 46.0426 62.5265 46.1918 61.704 46.1918ZM72.0927 46.1918C71.1339 46.1918 70.3029 45.9808 69.5998 45.5589C68.8967 45.1371 68.3512 44.5469 67.9634 43.7884C67.5799 43.0298 67.3881 42.1435 67.3881 41.1293C67.3881 40.1151 67.5799 39.2266 67.9634 38.4638C68.3512 37.701 68.8967 37.1087 69.5998 36.6868C70.3029 36.2649 71.1339 36.054 72.0927 36.054C73.0515 36.054 73.8825 36.2649 74.5856 36.6868C75.2887 37.1087 75.832 37.701 76.2156 38.4638C76.6033 39.2266 76.7972 40.1151 76.7972 41.1293C76.7972 42.1435 76.6033 43.0298 76.2156 43.7884C75.832 44.5469 75.2887 45.1371 74.5856 45.5589C73.8825 45.9808 73.0515 46.1918 72.0927 46.1918ZM72.1055 44.3381C72.6254 44.3381 73.06 44.1953 73.4094 43.9098C73.7589 43.62 74.0188 43.2322 74.1893 42.7464C74.364 42.2607 74.4513 41.7195 74.4513 41.1229C74.4513 40.522 74.364 39.9787 74.1893 39.4929C74.0188 39.0028 73.7589 38.6129 73.4094 38.3232C73.06 38.0334 72.6254 37.8885 72.1055 37.8885C71.5728 37.8885 71.1296 38.0334 70.7759 38.3232C70.4265 38.6129 70.1644 39.0028 69.9897 39.4929C69.8192 39.9787 69.734 40.522 69.734 41.1229C69.734 41.7195 69.8192 42.2607 69.9897 42.7464C70.1644 43.2322 70.4265 43.62 70.7759 43.9098C71.1296 44.1953 71.5728 44.3381 72.1055 44.3381ZM86.5211 38.777L84.4118 39.0071C84.3521 38.794 84.2477 38.5938 84.0985 38.4062C83.9537 38.2188 83.7576 38.0675 83.5105 37.9524C83.2633 37.8374 82.9608 37.7798 82.6028 37.7798C82.1213 37.7798 81.7164 37.8842 81.3883 38.093C81.0645 38.3018 80.9047 38.5724 80.9089 38.9048C80.9047 39.1903 81.0091 39.4226 81.2221 39.6016C81.4395 39.7805 81.7974 39.9276 82.296 40.0426L83.9707 40.4006C84.8997 40.6009 85.59 40.9183 86.0417 41.353C86.4977 41.7876 86.7278 42.3565 86.7321 43.0597C86.7278 43.6776 86.5467 44.223 86.1887 44.696C85.835 45.1648 85.3429 45.5312 84.7122 45.7955C84.0815 46.0597 83.3571 46.1918 82.5389 46.1918C81.3372 46.1918 80.3699 45.9403 79.6369 45.4375C78.9039 44.9304 78.4672 44.2251 78.3265 43.3217L80.5829 43.1044C80.6852 43.5476 80.9025 43.8821 81.2349 44.108C81.5673 44.3338 81.9998 44.4467 82.5325 44.4467C83.0822 44.4467 83.5233 44.3338 83.8556 44.108C84.1923 43.8821 84.3606 43.603 84.3606 43.2706C84.3606 42.9893 84.252 42.7571 84.0346 42.5739C83.8216 42.3906 83.4892 42.25 83.0375 42.152L81.3627 41.8004C80.421 41.6044 79.7243 41.2741 79.2725 40.8097C78.8208 40.3409 78.5971 39.7486 78.6014 39.0327C78.5971 38.4276 78.7612 37.9034 79.0936 37.4602C79.4302 37.0128 79.8968 36.6676 80.4934 36.4247C81.0943 36.1776 81.7868 36.054 82.5708 36.054C83.7214 36.054 84.627 36.299 85.2875 36.7891C85.9522 37.2791 86.3635 37.9418 86.5211 38.777ZM92.9867 46.1918C92.0023 46.1918 91.1522 45.9872 90.4363 45.5781C89.7246 45.1648 89.177 44.581 88.7935 43.8267C88.41 43.0682 88.2182 42.1754 88.2182 41.1484C88.2182 40.1385 88.41 39.2521 88.7935 38.4893C89.1813 37.7223 89.7225 37.1257 90.4171 36.6996C91.1117 36.2692 91.9277 36.054 92.8652 36.054C93.4703 36.054 94.0414 36.152 94.5783 36.348C95.1195 36.5398 95.5968 36.8381 96.0101 37.2429C96.4277 37.6477 96.7559 38.1634 96.9945 38.7898C97.2331 39.4119 97.3525 40.1534 97.3525 41.0142V41.7237H89.3049V40.1641H95.1344C95.1301 39.7209 95.0343 39.3267 94.8468 38.9815C94.6593 38.6321 94.3972 38.3572 94.0605 38.157C93.7282 37.9567 93.3404 37.8565 92.8972 37.8565C92.4242 37.8565 92.0087 37.9716 91.6507 38.2017C91.2928 38.4276 91.0137 38.7259 90.8134 39.0966C90.6174 39.4631 90.5172 39.8658 90.513 40.3047V41.6662C90.513 42.2372 90.6174 42.7273 90.8262 43.1364C91.035 43.5412 91.3269 43.8523 91.7019 44.0696C92.0769 44.2827 92.5158 44.3892 93.0186 44.3892C93.3553 44.3892 93.66 44.3423 93.9327 44.2486C94.2054 44.1506 94.4419 44.0078 94.6422 43.8203C94.8425 43.6328 94.9938 43.4006 95.0961 43.1236L97.2566 43.3665C97.1202 43.9375 96.8603 44.4361 96.4767 44.8622C96.0975 45.2841 95.6117 45.6122 95.0194 45.8466C94.427 46.0767 93.7495 46.1918 92.9867 46.1918Z" fill="#111928"/>
<path d="M36.8331 129.298C35.2422 129.298 33.8253 129.025 32.5824 128.478C31.3466 127.924 30.37 127.164 29.6527 126.198C28.9425 125.225 28.5767 124.103 28.5554 122.832H33.2003C33.2287 123.364 33.4027 123.833 33.7223 124.238C34.049 124.636 34.4822 124.945 35.022 125.165C35.5618 125.385 36.169 125.495 36.8438 125.495C37.5469 125.495 38.1683 125.371 38.7081 125.122C39.2479 124.874 39.6705 124.529 39.9759 124.089C40.2813 123.648 40.4339 123.141 40.4339 122.565C40.4339 121.983 40.2706 121.468 39.9439 121.021C39.6243 120.566 39.1626 120.211 38.5589 119.955C37.9624 119.7 37.2521 119.572 36.4283 119.572H34.3935V116.184H36.4283C37.1243 116.184 37.7386 116.063 38.2713 115.822C38.8111 115.58 39.2301 115.246 39.5284 114.82C39.8267 114.387 39.9759 113.883 39.9759 113.308C39.9759 112.761 39.8445 112.281 39.5817 111.869C39.326 111.45 38.9638 111.124 38.495 110.889C38.0334 110.655 37.4936 110.538 36.8757 110.538C36.2507 110.538 35.679 110.651 35.1605 110.879C34.642 111.099 34.2266 111.415 33.9141 111.827C33.6016 112.239 33.4347 112.722 33.4134 113.276H28.9922C29.0135 112.018 29.3722 110.911 30.0682 109.952C30.7642 108.993 31.7017 108.244 32.8807 107.704C34.0668 107.157 35.4055 106.884 36.897 106.884C38.4027 106.884 39.7202 107.157 40.8494 107.704C41.9787 108.251 42.8558 108.989 43.4808 109.92C44.1129 110.843 44.4254 111.88 44.4183 113.031C44.4254 114.252 44.0455 115.271 43.2784 116.088C42.5185 116.905 41.5277 117.423 40.3061 117.643V117.814C41.9112 118.02 43.1328 118.577 43.9709 119.487C44.8161 120.388 45.2351 121.518 45.228 122.874C45.2351 124.117 44.8764 125.222 44.152 126.188C43.4347 127.153 42.4439 127.913 41.1797 128.467C39.9155 129.021 38.4666 129.298 36.8331 129.298ZM52.9038 126.017L52.7866 127.189C52.6942 128.126 52.5167 129.06 52.2539 129.991C51.9982 130.928 51.7283 131.777 51.4442 132.537C51.1673 133.297 50.9435 133.893 50.7731 134.327H47.8327C47.9393 133.908 48.0849 133.322 48.2695 132.569C48.4542 131.823 48.6282 130.985 48.7915 130.055C48.9549 129.124 49.0579 128.176 49.1005 127.21L49.1538 126.017H52.9038ZM64.8036 129.298C63.2979 129.298 61.9556 129.021 60.7766 128.467C59.6048 127.913 58.6744 127.15 57.9854 126.177C57.2965 125.204 56.9379 124.089 56.9094 122.832H61.3839C61.4336 123.677 61.7887 124.362 62.4492 124.888C63.1097 125.413 63.8945 125.676 64.8036 125.676C65.5281 125.676 66.1673 125.516 66.7212 125.197C67.2823 124.87 67.7191 124.419 68.0316 123.844C68.3512 123.261 68.511 122.594 68.511 121.841C68.511 121.074 68.3477 120.399 68.021 119.817C67.7013 119.234 67.2575 118.78 66.6893 118.453C66.1211 118.126 65.4712 117.96 64.7397 117.952C64.1005 117.952 63.479 118.084 62.8754 118.347C62.2788 118.609 61.8136 118.968 61.4798 119.423L57.3782 118.688L58.4116 107.182H71.7496V110.953H62.2148L61.6502 116.418H61.7781C62.1616 115.879 62.7404 115.431 63.5146 115.076C64.2887 114.721 65.1552 114.543 66.114 114.543C67.4279 114.543 68.5998 114.852 69.6296 115.47C70.6594 116.088 71.4727 116.937 72.0692 118.016C72.6658 119.089 72.9606 120.325 72.9535 121.724C72.9606 123.194 72.6197 124.501 71.9308 125.644C71.2489 126.781 70.2937 127.675 69.065 128.329C67.8434 128.975 66.4229 129.298 64.8036 129.298ZM75.8406 125.165V121.532L84.9492 107.182H88.0813V112.21H86.2276L80.4854 121.298V121.468H93.4293V125.165H75.8406ZM86.3129 129V124.057L86.3981 122.448V107.182H90.7234V129H86.3129ZM104.876 129.298C103.754 129.291 102.671 129.103 101.627 128.734C100.59 128.364 99.6598 127.764 98.8359 126.933C98.0121 126.102 97.3587 125.001 96.8757 123.631C96.3999 122.26 96.1619 120.577 96.1619 118.581C96.169 116.749 96.3786 115.112 96.7905 113.67C97.2095 112.221 97.8061 110.992 98.5803 109.984C99.3615 108.975 100.295 108.208 101.382 107.683C102.469 107.15 103.687 106.884 105.036 106.884C106.492 106.884 107.778 107.168 108.893 107.736C110.008 108.297 110.903 109.06 111.577 110.026C112.259 110.992 112.671 112.075 112.813 113.276H108.264C108.087 112.516 107.714 111.919 107.146 111.486C106.577 111.053 105.874 110.836 105.036 110.836C103.616 110.836 102.536 111.454 101.798 112.69C101.066 113.925 100.693 115.605 100.679 117.729H100.828C101.155 117.082 101.595 116.532 102.149 116.077C102.71 115.616 103.346 115.264 104.056 115.023C104.773 114.774 105.53 114.65 106.325 114.65C107.618 114.65 108.768 114.955 109.777 115.566C110.786 116.17 111.581 117.001 112.163 118.059C112.746 119.117 113.037 120.328 113.037 121.692C113.037 123.169 112.692 124.483 112.004 125.634C111.322 126.784 110.366 127.686 109.138 128.339C107.916 128.986 106.496 129.305 104.876 129.298ZM104.855 125.676C105.565 125.676 106.201 125.506 106.762 125.165C107.323 124.824 107.763 124.362 108.083 123.78C108.403 123.197 108.562 122.544 108.562 121.82C108.562 121.095 108.403 120.445 108.083 119.87C107.771 119.295 107.337 118.837 106.783 118.496C106.229 118.155 105.597 117.984 104.887 117.984C104.354 117.984 103.861 118.084 103.406 118.283C102.959 118.482 102.565 118.759 102.224 119.114C101.89 119.469 101.627 119.881 101.435 120.349C101.244 120.811 101.148 121.305 101.148 121.83C101.148 122.533 101.308 123.176 101.627 123.759C101.954 124.341 102.394 124.806 102.948 125.154C103.509 125.502 104.145 125.676 104.855 125.676Z" fill="#9061F9"/>
<path d="M270.095 35.2727H268.36L271.433 44H273.385L276.461 35.2727H274.723L272.456 42.142H272.366L270.095 35.2727ZM277.543 44H279.085V37.4545H277.543V44ZM278.318 36.5256C278.808 36.5256 279.209 36.1506 279.209 35.6903C279.209 35.2259 278.808 34.8509 278.318 34.8509C277.824 34.8509 277.423 35.2259 277.423 35.6903C277.423 36.1506 277.824 36.5256 278.318 36.5256ZM283.569 44.1278C285.095 44.1278 286.143 43.3821 286.416 42.2443L284.975 42.0824C284.767 42.6364 284.255 42.9261 283.591 42.9261C282.593 42.9261 281.933 42.2699 281.92 41.1491H286.48V40.6761C286.48 38.3793 285.099 37.3693 283.488 37.3693C281.613 37.3693 280.39 38.7457 280.39 40.7656C280.39 42.8196 281.596 44.1278 283.569 44.1278ZM281.924 40.1094C281.971 39.2741 282.589 38.571 283.51 38.571C284.396 38.571 284.993 39.2188 285.001 40.1094H281.924ZM289.1 44H290.711L291.939 39.5767H292.028L293.255 44H294.862L296.716 37.4545H295.139L294.005 42.0312H293.941L292.765 37.4545H291.21L290.034 42.0568H289.974L288.824 37.4545H287.251L289.1 44Z" fill="#1C64F2"/>
<path d="M208 36V40M208 44H208.01M217 40C217 41.1819 216.767 42.3522 216.315 43.4442C215.863 44.5361 215.2 45.5282 214.364 46.364C213.528 47.1997 212.536 47.8626 211.444 48.3149C210.352 48.7672 209.182 49 208 49C206.818 49 205.648 48.7672 204.556 48.3149C203.464 47.8626 202.472 47.1997 201.636 46.364C200.8 45.5282 200.137 44.5361 199.685 43.4442C199.233 42.3522 199 41.1819 199 40C199 37.6131 199.948 35.3239 201.636 33.636C203.324 31.9482 205.613 31 208 31C210.387 31 212.676 31.9482 214.364 33.636C216.052 35.3239 217 37.6131 217 40Z" stroke="#9CA3AF" stroke-width="2" stroke-linecap="round" stroke-linejoin="round"/>
<defs>
<filter id="filter0_dd_25_13182" x="0" y="0" width="328.75" height="186" filterUnits="userSpaceOnUse" color-interpolation-filters="sRGB">
<feFlood flood-opacity="0" result="BackgroundImageFix"/>
<feColorMatrix in="SourceAlpha" type="matrix" values="0 0 0 0 0 0 0 0 0 0 0 0 0 0 0 0 0 0 127 0" result="hardAlpha"/>
<feOffset dy="1"/>
<feGaussianBlur stdDeviation="1.5"/>
<feColorMatrix type="matrix" values="0 0 0 0 0 0 0 0 0 0 0 0 0 0 0 0 0 0 0.1 0"/>
<feBlend mode="normal" in2="BackgroundImageFix" result="effect1_dropShadow_25_13182"/>
<feColorMatrix in="SourceAlpha" type="matrix" values="0 0 0 0 0 0 0 0 0 0 0 0 0 0 0 0 0 0 127 0" result="hardAlpha"/>
<feOffset dy="1"/>
<feGaussianBlur stdDeviation="1"/>
<feColorMatrix type="matrix" values="0 0 0 0 0 0 0 0 0 0 0 0 0 0 0 0 0 0 0.06 0"/>
<feBlend mode="normal" in2="effect1_dropShadow_25_13182" result="effect2_dropShadow_25_13182"/>
<feBlend mode="normal" in="SourceGraphic" in2="effect2_dropShadow_25_13182" result="shape"/>
</filter>
</defs>
</svg>
