
<svg width="329" height="186" viewBox="0 0 329 186" fill="none" xmlns="http://www.w3.org/2000/svg">
<g filter="url(#filter0_dd_25_13193)">
<rect x="3" y="2" width="322.75" height="180" rx="16" fill="white"/>
</g>
<path d="M238.863 122.699V120.519L244.328 111.909H246.207V114.926H245.095L241.65 120.379V120.481H249.416V122.699H238.863ZM245.146 125V122.034L245.197 121.069V111.909H247.793V125H245.146ZM256.042 125.179C255.138 125.179 254.333 125.013 253.625 124.68C252.922 124.348 252.364 123.89 251.951 123.306C251.537 122.722 251.322 122.053 251.305 121.299H253.99C254.02 121.806 254.233 122.217 254.629 122.533C255.025 122.848 255.496 123.006 256.042 123.006C256.476 123.006 256.86 122.91 257.192 122.718C257.529 122.522 257.791 122.251 257.978 121.906C258.17 121.557 258.266 121.156 258.266 120.705C258.266 120.244 258.168 119.839 257.972 119.49C257.78 119.141 257.514 118.868 257.173 118.672C256.832 118.476 256.442 118.376 256.003 118.371C255.62 118.371 255.247 118.45 254.885 118.608C254.527 118.766 254.248 118.981 254.047 119.254L251.586 118.812L252.206 111.909H260.209V114.172H254.488L254.15 117.451H254.226C254.456 117.127 254.804 116.859 255.268 116.646C255.733 116.433 256.252 116.326 256.828 116.326C257.616 116.326 258.319 116.511 258.937 116.882C259.555 117.253 260.043 117.762 260.401 118.41C260.759 119.053 260.936 119.795 260.931 120.634C260.936 121.516 260.731 122.3 260.318 122.987C259.909 123.668 259.336 124.205 258.598 124.597C257.865 124.985 257.013 125.179 256.042 125.179ZM270.027 122.545V121.855C270.027 121.331 270.138 120.849 270.36 120.411C270.586 119.967 270.912 119.614 271.338 119.349C271.768 119.081 272.292 118.947 272.91 118.947C273.537 118.947 274.063 119.079 274.489 119.343C274.919 119.607 275.243 119.961 275.461 120.404C275.682 120.843 275.793 121.327 275.793 121.855V122.545C275.793 123.07 275.682 123.553 275.461 123.996C275.239 124.435 274.913 124.787 274.483 125.051C274.052 125.32 273.528 125.454 272.91 125.454C272.284 125.454 271.757 125.32 271.331 125.051C270.905 124.787 270.581 124.435 270.36 123.996C270.138 123.553 270.027 123.07 270.027 122.545ZM271.887 121.855V122.545C271.887 122.848 271.96 123.134 272.105 123.402C272.254 123.67 272.522 123.805 272.91 123.805C273.298 123.805 273.562 123.673 273.703 123.408C273.848 123.144 273.92 122.857 273.92 122.545V121.855C273.92 121.544 273.852 121.254 273.716 120.986C273.579 120.717 273.311 120.583 272.91 120.583C272.527 120.583 272.26 120.717 272.111 120.986C271.962 121.254 271.887 121.544 271.887 121.855ZM263.309 115.054V114.364C263.309 113.835 263.422 113.352 263.648 112.913C263.874 112.469 264.2 112.116 264.626 111.852C265.056 111.587 265.576 111.455 266.186 111.455C266.816 111.455 267.345 111.587 267.771 111.852C268.197 112.116 268.521 112.469 268.743 112.913C268.964 113.352 269.075 113.835 269.075 114.364V115.054C269.075 115.582 268.962 116.066 268.736 116.505C268.515 116.944 268.189 117.295 267.758 117.56C267.332 117.82 266.808 117.95 266.186 117.95C265.564 117.95 265.037 117.817 264.607 117.553C264.181 117.285 263.857 116.933 263.635 116.499C263.418 116.06 263.309 115.578 263.309 115.054ZM265.182 114.364V115.054C265.182 115.365 265.255 115.653 265.4 115.917C265.549 116.181 265.811 116.313 266.186 116.313C266.578 116.313 266.844 116.181 266.985 115.917C267.13 115.653 267.202 115.365 267.202 115.054V114.364C267.202 114.053 267.134 113.763 266.998 113.494C266.861 113.226 266.591 113.092 266.186 113.092C265.806 113.092 265.544 113.228 265.4 113.501C265.255 113.773 265.182 114.061 265.182 114.364ZM264.153 125L273.153 111.909H274.828L265.828 125H264.153Z" fill="#111928"/>
<path d="M297 118C297 140.091 279.091 158 257 158C234.909 158 217 140.091 217 118C217 95.9086 234.909 78 257 78C279.091 78 297 95.9086 297 118ZM221 118C221 137.882 237.118 154 257 154C276.882 154 293 137.882 293 118C293 98.1177 276.882 82 257 82C237.118 82 221 98.1177 221 118Z" fill="#F3F4F6"/>
<path d="M295 118C296.105 118 297.005 118.896 296.95 119.999C296.509 128.807 293.168 137.244 287.416 143.978C281.231 151.22 272.664 156.018 263.257 157.508C253.851 158.997 244.221 157.082 236.1 152.106C228.549 147.478 222.764 140.487 219.623 132.247C219.23 131.215 219.809 130.084 220.86 129.743C221.91 129.401 223.033 129.979 223.433 131.009C226.275 138.344 231.451 144.566 238.19 148.695C245.499 153.174 254.165 154.898 262.632 153.557C271.098 152.216 278.808 147.898 284.375 141.38C289.507 135.37 292.508 127.854 292.944 119.999C293.006 118.896 293.895 118 295 118Z" fill="#D61F69"/>
<path d="M35.4055 32.5078C35.3459 31.9496 35.0945 31.5149 34.6513 31.2038C34.2124 30.8928 33.6413 30.7372 32.9382 30.7372C32.4439 30.7372 32.0199 30.8118 31.6662 30.9609C31.3125 31.1101 31.0419 31.3125 30.8544 31.5682C30.6669 31.8239 30.571 32.1158 30.5668 32.4439C30.5668 32.7166 30.6286 32.9531 30.7521 33.1534C30.88 33.3537 31.0526 33.5241 31.2699 33.6648C31.4872 33.8011 31.728 33.9162 31.9922 34.0099C32.2564 34.1037 32.5227 34.1825 32.7912 34.2464L34.0185 34.5533C34.5128 34.6683 34.9879 34.8239 35.4439 35.0199C35.9041 35.2159 36.3153 35.4631 36.6776 35.7614C37.044 36.0597 37.3338 36.4197 37.5469 36.8416C37.7599 37.2635 37.8665 37.7578 37.8665 38.3246C37.8665 39.0916 37.6705 39.767 37.2784 40.3509C36.8864 40.9304 36.3196 41.3842 35.5781 41.7124C34.8409 42.0362 33.9482 42.1982 32.8999 42.1982C31.8814 42.1982 30.9972 42.0405 30.2472 41.7251C29.5014 41.4098 28.9176 40.9496 28.4957 40.3445C28.0781 39.7393 27.8523 39.0021 27.8182 38.1328H30.1513C30.1854 38.5888 30.326 38.968 30.5732 39.2706C30.8203 39.5732 31.142 39.799 31.5384 39.9482C31.9389 40.0973 32.3864 40.1719 32.8807 40.1719C33.3963 40.1719 33.848 40.0952 34.2358 39.9418C34.6278 39.7841 34.9347 39.5668 35.1562 39.2898C35.3778 39.0085 35.4908 38.6804 35.495 38.3054C35.4908 37.9645 35.3906 37.6832 35.1946 37.4616C34.9986 37.2358 34.7237 37.0483 34.37 36.8991C34.0206 36.7457 33.6115 36.6094 33.1428 36.4901L31.6534 36.1065C30.5753 35.8295 29.723 35.4098 29.0966 34.8473C28.4744 34.2805 28.1634 33.5284 28.1634 32.5909C28.1634 31.8196 28.3722 31.1442 28.7898 30.5646C29.2116 29.9851 29.7848 29.5355 30.5092 29.2159C31.2337 28.892 32.054 28.7301 32.9702 28.7301C33.8991 28.7301 34.7131 28.892 35.4119 29.2159C36.1151 29.5355 36.6669 29.9808 37.0675 30.5518C37.468 31.1186 37.6747 31.7706 37.6875 32.5078H35.4055ZM39.8784 45.6818V32.1818H42.1539V33.8054H42.2882C42.4075 33.5668 42.5758 33.3132 42.7931 33.0447C43.0105 32.772 43.3045 32.5398 43.6752 32.348C44.046 32.152 44.519 32.054 45.0943 32.054C45.8528 32.054 46.5368 32.2479 47.1461 32.6357C47.7598 33.0192 48.2456 33.5881 48.6035 34.3423C48.9657 35.0923 49.1468 36.0128 49.1468 37.1037C49.1468 38.1818 48.97 39.098 48.6163 39.8523C48.2626 40.6065 47.7811 41.1818 47.1717 41.5781C46.5623 41.9744 45.872 42.1726 45.1007 42.1726C44.5382 42.1726 44.0716 42.0788 43.7008 41.8913C43.3301 41.7038 43.0318 41.478 42.8059 41.2138C42.5843 40.9453 42.4118 40.6918 42.2882 40.4531H42.1923V45.6818H39.8784ZM42.1475 37.0909C42.1475 37.7259 42.237 38.282 42.416 38.7592C42.5993 39.2365 42.8613 39.6094 43.2022 39.8778C43.5474 40.142 43.965 40.2741 44.4551 40.2741C44.9664 40.2741 45.3947 40.1378 45.7399 39.8651C46.085 39.5881 46.345 39.2109 46.5197 38.7337C46.6987 38.2521 46.7882 37.7045 46.7882 37.0909C46.7882 36.4815 46.7008 35.9403 46.5261 35.4673C46.3514 34.9943 46.0914 34.6236 45.7463 34.3551C45.4011 34.0866 44.9707 33.9524 44.4551 33.9524C43.9608 33.9524 43.541 34.0824 43.1958 34.3423C42.8507 34.6023 42.5886 34.9666 42.4096 35.4354C42.2349 35.9041 42.1475 36.456 42.1475 37.0909ZM62.9281 35.4545C62.9281 36.8651 62.6639 38.0732 62.1355 39.0788C61.6113 40.0803 60.8954 40.8473 59.9877 41.38C59.0843 41.9126 58.0595 42.179 56.9132 42.179C55.7669 42.179 54.7399 41.9126 53.8322 41.38C52.9288 40.843 52.2129 40.0739 51.6845 39.0724C51.1603 38.0668 50.8983 36.8608 50.8983 35.4545C50.8983 34.044 51.1603 32.8381 51.6845 31.8366C52.2129 30.831 52.9288 30.0618 53.8322 29.5291C54.7399 28.9964 55.7669 28.7301 56.9132 28.7301C58.0595 28.7301 59.0843 28.9964 59.9877 29.5291C60.8954 30.0618 61.6113 30.831 62.1355 31.8366C62.6639 32.8381 62.9281 34.044 62.9281 35.4545ZM60.5439 35.4545C60.5439 34.4616 60.3883 33.6243 60.0772 32.9425C59.7704 32.2564 59.3443 31.7386 58.7988 31.3892C58.2534 31.0355 57.6248 30.8587 56.9132 30.8587C56.2015 30.8587 55.573 31.0355 55.0275 31.3892C54.4821 31.7386 54.0538 32.2564 53.7427 32.9425C53.4359 33.6243 53.2825 34.4616 53.2825 35.4545C53.2825 36.4474 53.4359 37.2869 53.7427 37.973C54.0538 38.6548 54.4821 39.1726 55.0275 39.5263C55.573 39.8757 56.2015 40.0504 56.9132 40.0504C57.6248 40.0504 58.2534 39.8757 58.7988 39.5263C59.3443 39.1726 59.7704 38.6548 60.0772 37.973C60.3883 37.2869 60.5439 36.4474 60.5439 35.4545ZM65.0423 42V40.2869L69.587 35.8317C70.0217 35.3928 70.3839 35.0028 70.6737 34.6619C70.9634 34.321 71.1808 33.9908 71.3256 33.6712C71.4705 33.3516 71.543 33.0107 71.543 32.6484C71.543 32.2351 71.4492 31.8814 71.2617 31.5874C71.0742 31.2891 70.8164 31.0589 70.4883 30.897C70.1602 30.7351 69.7873 30.6541 69.3697 30.6541C68.9393 30.6541 68.5621 30.7436 68.2383 30.9226C67.9144 31.0973 67.663 31.3466 67.484 31.6705C67.3093 31.9943 67.2219 32.38 67.2219 32.8274H64.9656C64.9656 31.9964 65.1552 31.2741 65.5344 30.6605C65.9137 30.0469 66.4357 29.5717 67.1005 29.2351C67.7695 28.8984 68.5366 28.7301 69.4016 28.7301C70.2795 28.7301 71.0508 28.8942 71.7156 29.2223C72.3803 29.5504 72.896 30 73.2624 30.571C73.6332 31.142 73.8185 31.794 73.8185 32.527C73.8185 33.017 73.7248 33.4986 73.5373 33.9716C73.3498 34.4446 73.0195 34.9687 72.5465 35.544C72.0778 36.1193 71.4194 36.8161 70.5714 37.6342L68.315 39.929V40.0185H74.0167V42H65.0423Z" fill="#111928"/>
<path d="M24.4382 125.165V121.532L33.5469 107.182H36.679V112.21H34.8253L29.0831 121.298V121.468H42.027V125.165H24.4382ZM34.9105 129V124.057L34.9957 122.448V107.182H39.321V129H34.9105ZM49.6655 126.017L49.5483 127.189C49.456 128.126 49.2784 129.06 49.0156 129.991C48.7599 130.928 48.4901 131.777 48.206 132.537C47.929 133.297 47.7053 133.893 47.5348 134.327H44.5945C44.701 133.908 44.8466 133.322 45.0312 132.569C45.2159 131.823 45.3899 130.985 45.5533 130.055C45.7166 129.124 45.8196 128.176 45.8622 127.21L45.9155 126.017H49.6655ZM61.5653 129.298C60.0597 129.298 58.7173 129.021 57.5384 128.467C56.3665 127.913 55.4361 127.15 54.7472 126.177C54.0582 125.204 53.6996 124.089 53.6712 122.832H58.1456C58.1953 123.677 58.5504 124.362 59.2109 124.888C59.8714 125.413 60.6562 125.676 61.5653 125.676C62.2898 125.676 62.929 125.516 63.483 125.197C64.044 124.87 64.4808 124.419 64.7933 123.844C65.1129 123.261 65.2727 122.594 65.2727 121.841C65.2727 121.074 65.1094 120.399 64.7827 119.817C64.4631 119.234 64.0192 118.78 63.451 118.453C62.8828 118.126 62.233 117.96 61.5014 117.952C60.8622 117.952 60.2408 118.084 59.6371 118.347C59.0405 118.609 58.5753 118.968 58.2415 119.423L54.1399 118.688L55.1733 107.182H68.5114V110.953H58.9766L58.4119 116.418H58.5398C58.9233 115.879 59.5021 115.431 60.2763 115.076C61.0504 114.721 61.9169 114.543 62.8757 114.543C64.1896 114.543 65.3615 114.852 66.3913 115.47C67.4212 116.088 68.2344 116.937 68.831 118.016C69.4276 119.089 69.7223 120.325 69.7152 121.724C69.7223 123.194 69.3814 124.501 68.6925 125.644C68.0107 126.781 67.0554 127.675 65.8267 128.329C64.6051 128.975 63.1847 129.298 61.5653 129.298ZM72.6023 125.165V121.532L81.7109 107.182H84.843V112.21H82.9893L77.2472 121.298V121.468H90.1911V125.165H72.6023ZM83.0746 129V124.057L83.1598 122.448V107.182H87.4851V129H83.0746ZM101.404 129.298C99.7631 129.298 98.3036 129.032 97.0252 128.499C95.7539 127.96 94.756 127.224 94.0316 126.294C93.3072 125.364 92.945 124.309 92.945 123.13C92.945 122.221 93.1509 121.386 93.5629 120.626C93.9819 119.859 94.5501 119.224 95.2674 118.719C95.9847 118.208 96.7873 117.881 97.6751 117.739V117.59C96.5103 117.356 95.5657 116.791 94.8413 115.896C94.1168 114.994 93.7546 113.947 93.7546 112.754C93.7546 111.624 94.0849 110.619 94.7454 109.739C95.4059 108.851 96.3114 108.155 97.462 107.651C98.6197 107.139 99.9336 106.884 101.404 106.884C102.874 106.884 104.184 107.139 105.335 107.651C106.493 108.162 107.402 108.862 108.062 109.749C108.723 110.63 109.056 111.631 109.064 112.754C109.056 113.954 108.687 115.001 107.956 115.896C107.224 116.791 106.287 117.356 105.143 117.59V117.739C106.017 117.881 106.809 118.208 107.519 118.719C108.236 119.224 108.804 119.859 109.223 120.626C109.65 121.386 109.866 122.221 109.873 123.13C109.866 124.309 109.5 125.364 108.776 126.294C108.051 127.224 107.05 127.96 105.772 128.499C104.5 129.032 103.044 129.298 101.404 129.298ZM101.404 125.911C102.135 125.911 102.775 125.779 103.321 125.516C103.868 125.246 104.294 124.877 104.6 124.408C104.912 123.933 105.069 123.386 105.069 122.768C105.069 122.136 104.909 121.578 104.589 121.095C104.27 120.605 103.836 120.222 103.289 119.945C102.743 119.661 102.114 119.518 101.404 119.518C100.701 119.518 100.072 119.661 99.5181 119.945C98.9641 120.222 98.5273 120.605 98.2077 121.095C97.8952 121.578 97.739 122.136 97.739 122.768C97.739 123.386 97.8917 123.933 98.1971 124.408C98.5025 124.877 98.9322 125.246 99.4862 125.516C100.04 125.779 100.679 125.911 101.404 125.911ZM101.404 116.163C102.015 116.163 102.558 116.038 103.034 115.79C103.51 115.541 103.882 115.197 104.152 114.756C104.422 114.316 104.557 113.808 104.557 113.233C104.557 112.665 104.422 112.168 104.152 111.741C103.882 111.308 103.513 110.971 103.044 110.729C102.576 110.481 102.029 110.357 101.404 110.357C100.786 110.357 100.239 110.481 99.7631 110.729C99.2873 110.971 98.9144 111.308 98.6445 111.741C98.3817 112.168 98.2504 112.665 98.2504 113.233C98.2504 113.808 98.3853 114.316 98.6552 114.756C98.9251 115.197 99.2979 115.541 99.7738 115.79C100.25 116.038 100.793 116.163 101.404 116.163Z" fill="#D61F69"/>
<path d="M270.095 31.2727H268.36L271.433 40H273.385L276.461 31.2727H274.723L272.456 38.142H272.366L270.095 31.2727ZM277.543 40H279.085V33.4545H277.543V40ZM278.318 32.5256C278.808 32.5256 279.209 32.1506 279.209 31.6903C279.209 31.2259 278.808 30.8509 278.318 30.8509C277.824 30.8509 277.423 31.2259 277.423 31.6903C277.423 32.1506 277.824 32.5256 278.318 32.5256ZM283.569 40.1278C285.095 40.1278 286.143 39.3821 286.416 38.2443L284.975 38.0824C284.767 38.6364 284.255 38.9261 283.591 38.9261C282.593 38.9261 281.933 38.2699 281.92 37.1491H286.48V36.6761C286.48 34.3793 285.099 33.3693 283.488 33.3693C281.613 33.3693 280.39 34.7457 280.39 36.7656C280.39 38.8196 281.596 40.1278 283.569 40.1278ZM281.924 36.1094C281.971 35.2741 282.589 34.571 283.51 34.571C284.396 34.571 284.993 35.2188 285.001 36.1094H281.924ZM289.1 40H290.711L291.939 35.5767H292.028L293.255 40H294.862L296.716 33.4545H295.139L294.005 38.0312H293.941L292.765 33.4545H291.21L290.034 38.0568H289.974L288.824 33.4545H287.251L289.1 40Z" fill="#1C64F2"/>
<defs>
<filter id="filter0_dd_25_13193" x="0" y="0" width="328.75" height="186" filterUnits="userSpaceOnUse" color-interpolation-filters="sRGB">
<feFlood flood-opacity="0" result="BackgroundImageFix"/>
<feColorMatrix in="SourceAlpha" type="matrix" values="0 0 0 0 0 0 0 0 0 0 0 0 0 0 0 0 0 0 127 0" result="hardAlpha"/>
<feOffset dy="1"/>
<feGaussianBlur stdDeviation="1.5"/>
<feColorMatrix type="matrix" values="0 0 0 0 0 0 0 0 0 0 0 0 0 0 0 0 0 0 0.1 0"/>
<feBlend mode="normal" in2="BackgroundImageFix" result="effect1_dropShadow_25_13193"/>
<feColorMatrix in="SourceAlpha" type="matrix" values="0 0 0 0 0 0 0 0 0 0 0 0 0 0 0 0 0 0 127 0" result="hardAlpha"/>
<feOffset dy="1"/>
<feGaussianBlur stdDeviation="1"/>
<feColorMatrix type="matrix" values="0 0 0 0 0 0 0 0 0 0 0 0 0 0 0 0 0 0 0.06 0"/>
<feBlend mode="normal" in2="effect1_dropShadow_25_13193" result="effect2_dropShadow_25_13193"/>
<feBlend mode="normal" in="SourceGraphic" in2="effect2_dropShadow_25_13193" result="shape"/>
</filter>
</defs>
</svg>
