
<svg width="329" height="186" viewBox="0 0 329 186" fill="none" xmlns="http://www.w3.org/2000/svg">
<g filter="url(#filter0_dd_109_16127)">
<rect x="3" y="2" width="322.75" height="180" rx="16" fill="white"/>
</g>
<path d="M239.579 125L245.006 114.261V114.172H238.684V111.909H247.869V114.204L242.436 125H239.579ZM254.386 125.179C253.402 125.179 252.526 125.019 251.759 124.7C250.996 124.376 250.397 123.935 249.963 123.376C249.528 122.818 249.311 122.185 249.311 121.478C249.311 120.933 249.434 120.432 249.681 119.976C249.933 119.516 250.274 119.134 250.704 118.832C251.135 118.525 251.616 118.329 252.149 118.244V118.154C251.45 118.013 250.883 117.675 250.449 117.138C250.014 116.597 249.797 115.968 249.797 115.252C249.797 114.575 249.995 113.972 250.391 113.443C250.787 112.911 251.331 112.493 252.021 112.19C252.716 111.884 253.504 111.73 254.386 111.73C255.268 111.73 256.054 111.884 256.745 112.19C257.439 112.497 257.985 112.917 258.381 113.45C258.777 113.978 258.978 114.579 258.982 115.252C258.978 115.972 258.756 116.601 258.317 117.138C257.878 117.675 257.316 118.013 256.63 118.154V118.244C257.154 118.329 257.629 118.525 258.055 118.832C258.485 119.134 258.826 119.516 259.078 119.976C259.333 120.432 259.463 120.933 259.468 121.478C259.463 122.185 259.244 122.818 258.809 123.376C258.375 123.935 257.774 124.376 257.007 124.7C256.244 125.019 255.37 125.179 254.386 125.179ZM254.386 123.146C254.825 123.146 255.208 123.067 255.537 122.91C255.865 122.748 256.12 122.526 256.304 122.245C256.491 121.96 256.585 121.631 256.585 121.261C256.585 120.881 256.489 120.547 256.297 120.257C256.105 119.963 255.846 119.733 255.517 119.567C255.189 119.396 254.812 119.311 254.386 119.311C253.964 119.311 253.587 119.396 253.255 119.567C252.922 119.733 252.66 119.963 252.468 120.257C252.281 120.547 252.187 120.881 252.187 121.261C252.187 121.631 252.279 121.96 252.462 122.245C252.645 122.526 252.903 122.748 253.235 122.91C253.568 123.067 253.951 123.146 254.386 123.146ZM254.386 117.298C254.752 117.298 255.078 117.223 255.364 117.074C255.65 116.925 255.873 116.718 256.035 116.454C256.197 116.19 256.278 115.885 256.278 115.54C256.278 115.199 256.197 114.901 256.035 114.645C255.873 114.385 255.652 114.183 255.37 114.038C255.089 113.888 254.761 113.814 254.386 113.814C254.015 113.814 253.687 113.888 253.402 114.038C253.116 114.183 252.892 114.385 252.73 114.645C252.573 114.901 252.494 115.199 252.494 115.54C252.494 115.885 252.575 116.19 252.737 116.454C252.899 116.718 253.123 116.925 253.408 117.074C253.694 117.223 254.02 117.298 254.386 117.298ZM268.568 122.545V121.855C268.568 121.331 268.679 120.849 268.901 120.411C269.127 119.967 269.453 119.614 269.879 119.349C270.309 119.081 270.833 118.947 271.451 118.947C272.078 118.947 272.604 119.079 273.03 119.343C273.46 119.607 273.784 119.961 274.002 120.404C274.223 120.843 274.334 121.327 274.334 121.855V122.545C274.334 123.07 274.223 123.553 274.002 123.996C273.78 124.435 273.454 124.787 273.024 125.051C272.593 125.32 272.069 125.454 271.451 125.454C270.825 125.454 270.298 125.32 269.872 125.051C269.446 124.787 269.122 124.435 268.901 123.996C268.679 123.553 268.568 123.07 268.568 122.545ZM270.428 121.855V122.545C270.428 122.848 270.501 123.134 270.646 123.402C270.795 123.67 271.063 123.805 271.451 123.805C271.839 123.805 272.103 123.673 272.244 123.408C272.389 123.144 272.461 122.857 272.461 122.545V121.855C272.461 121.544 272.393 121.254 272.257 120.986C272.12 120.717 271.852 120.583 271.451 120.583C271.068 120.583 270.801 120.717 270.652 120.986C270.503 121.254 270.428 121.544 270.428 121.855ZM261.85 115.054V114.364C261.85 113.835 261.963 113.352 262.189 112.913C262.415 112.469 262.741 112.116 263.167 111.852C263.597 111.587 264.117 111.455 264.727 111.455C265.357 111.455 265.886 111.587 266.312 111.852C266.738 112.116 267.062 112.469 267.284 112.913C267.505 113.352 267.616 113.835 267.616 114.364V115.054C267.616 115.582 267.503 116.066 267.277 116.505C267.056 116.944 266.73 117.295 266.299 117.56C265.873 117.82 265.349 117.95 264.727 117.95C264.105 117.95 263.578 117.817 263.148 117.553C262.722 117.285 262.398 116.933 262.176 116.499C261.959 116.06 261.85 115.578 261.85 115.054ZM263.723 114.364V115.054C263.723 115.365 263.796 115.653 263.941 115.917C264.09 116.181 264.352 116.313 264.727 116.313C265.119 116.313 265.385 116.181 265.526 115.917C265.671 115.653 265.743 115.365 265.743 115.054V114.364C265.743 114.053 265.675 113.763 265.539 113.494C265.402 113.226 265.132 113.092 264.727 113.092C264.347 113.092 264.085 113.228 263.941 113.501C263.796 113.773 263.723 114.061 263.723 114.364ZM262.694 125L271.694 111.909H273.369L264.369 125H262.694Z" fill="#111928"/>
<path d="M297 118C297 140.091 279.091 158 257 158C234.909 158 217 140.091 217 118C217 95.9086 234.909 78 257 78C279.091 78 297 95.9086 297 118ZM221 118C221 137.882 237.118 154 257 154C276.882 154 293 137.882 293 118C293 98.1177 276.882 82 257 82C237.118 82 221 98.1177 221 118Z" fill="#F3F4F6"/>
<path d="M295 118C296.105 118 297.005 118.896 296.95 119.999C296.573 127.527 294.076 134.811 289.726 141C284.992 147.736 278.295 152.847 270.55 155.635C262.804 158.424 254.386 158.755 246.445 156.582C238.504 154.41 231.427 149.84 226.179 143.497C220.932 137.154 217.769 129.346 217.123 121.138C216.477 112.931 218.38 104.724 222.57 97.6383C226.761 90.5522 233.036 84.9317 240.539 81.5439C247.434 78.4309 255.057 77.3423 262.522 78.383C263.616 78.5355 264.327 79.5881 264.12 80.6731C263.914 81.7581 262.867 82.464 261.772 82.3176C255.116 81.4275 248.33 82.4153 242.185 85.1895C235.433 88.2385 229.785 93.297 226.013 99.6745C222.242 106.052 220.53 113.438 221.111 120.825C221.692 128.211 224.539 135.238 229.262 140.947C233.984 146.656 240.354 150.769 247.501 152.724C254.647 154.679 262.223 154.382 269.195 151.872C276.166 149.362 282.193 144.762 286.453 138.7C290.33 133.185 292.572 126.703 292.944 119.999C293.006 118.896 293.895 118 295 118Z" fill="#16BDCA"/>
<path d="M31.0462 46L27.3516 32.9091H29.902L32.2607 42.5291H32.3821L34.9006 32.9091H37.2209L39.7457 42.5355H39.8608L42.2195 32.9091H44.7699L41.0753 46H38.7358L36.1151 36.8146H36.0128L33.3857 46H31.0462ZM49.6566 46.1918C48.6722 46.1918 47.8221 45.9872 47.1062 45.5781C46.3945 45.1648 45.8469 44.581 45.4634 43.8267C45.0799 43.0682 44.8881 42.1754 44.8881 41.1484C44.8881 40.1385 45.0799 39.2521 45.4634 38.4893C45.8512 37.7223 46.3924 37.1257 47.087 36.6996C47.7816 36.2692 48.5977 36.054 49.5352 36.054C50.1403 36.054 50.7113 36.152 51.2482 36.348C51.7894 36.5398 52.2667 36.8381 52.68 37.2429C53.0977 37.6477 53.4258 38.1634 53.6644 38.7898C53.9031 39.4119 54.0224 40.1534 54.0224 41.0142V41.7237H45.9748V40.1641H51.8043C51.8001 39.7209 51.7042 39.3267 51.5167 38.9815C51.3292 38.6321 51.0671 38.3572 50.7305 38.157C50.3981 37.9567 50.0103 37.8565 49.5671 37.8565C49.0941 37.8565 48.6786 37.9716 48.3207 38.2017C47.9627 38.4276 47.6836 38.7259 47.4833 39.0966C47.2873 39.4631 47.1871 39.8658 47.1829 40.3047V41.6662C47.1829 42.2372 47.2873 42.7273 47.4961 43.1364C47.7049 43.5412 47.9968 43.8523 48.3718 44.0696C48.7468 44.2827 49.1857 44.3892 49.6886 44.3892C50.0252 44.3892 50.3299 44.3423 50.6026 44.2486C50.8754 44.1506 51.1119 44.0078 51.3121 43.8203C51.5124 43.6328 51.6637 43.4006 51.766 43.1236L53.9265 43.3665C53.7901 43.9375 53.5302 44.4361 53.1467 44.8622C52.7674 45.2841 52.2816 45.6122 51.6893 45.8466C51.0969 46.0767 50.4194 46.1918 49.6566 46.1918ZM55.9799 46V36.1818H58.2939V46H55.9799ZM57.1433 34.7884C56.7768 34.7884 56.4615 34.6669 56.1973 34.424C55.9331 34.1768 55.801 33.8807 55.801 33.5355C55.801 33.1861 55.9331 32.8899 56.1973 32.647C56.4615 32.3999 56.7768 32.2763 57.1433 32.2763C57.514 32.2763 57.8294 32.3999 58.0893 32.647C58.3535 32.8899 58.4856 33.1861 58.4856 33.5355C58.4856 33.8807 58.3535 34.1768 58.0893 34.424C57.8294 34.6669 57.514 34.7884 57.1433 34.7884ZM64.9432 49.8864C64.1122 49.8864 63.3984 49.7734 62.8018 49.5476C62.2053 49.326 61.7259 49.0277 61.3636 48.6527C61.0014 48.2777 60.75 47.8622 60.6094 47.4062L62.6932 46.9013C62.7869 47.093 62.9233 47.2827 63.1023 47.4702C63.2813 47.6619 63.522 47.8196 63.8246 47.9432C64.1314 48.071 64.517 48.1349 64.9815 48.1349C65.6378 48.1349 66.1811 47.9751 66.6115 47.6555C67.0419 47.3402 67.2571 46.8203 67.2571 46.0959V44.2358H67.142C67.0227 44.4744 66.848 44.7195 66.6179 44.9709C66.392 45.2223 66.0916 45.4332 65.7166 45.6037C65.3459 45.7741 64.8793 45.8594 64.3168 45.8594C63.5625 45.8594 62.8786 45.6825 62.2649 45.3288C61.6555 44.9709 61.1697 44.4382 60.8075 43.7308C60.4496 43.0192 60.2706 42.1286 60.2706 41.0589C60.2706 39.9808 60.4496 39.071 60.8075 38.3295C61.1697 37.5838 61.6577 37.0192 62.2713 36.6357C62.8849 36.2479 63.5689 36.054 64.3232 36.054C64.8984 36.054 65.3714 36.152 65.7422 36.348C66.1172 36.5398 66.4155 36.772 66.6371 37.0447C66.8587 37.3132 67.027 37.5668 67.142 37.8054H67.2699V36.1818H69.5518V46.1598C69.5518 46.9993 69.3516 47.6939 68.951 48.2436C68.5504 48.7933 68.0028 49.2045 67.3082 49.4773C66.6136 49.75 65.8253 49.8864 64.9432 49.8864ZM64.9624 44.044C65.4524 44.044 65.87 43.9247 66.2152 43.6861C66.5604 43.4474 66.8224 43.1044 67.0014 42.657C67.1804 42.2095 67.2699 41.6726 67.2699 41.0462C67.2699 40.4283 67.1804 39.8871 67.0014 39.4226C66.8267 38.9581 66.5668 38.598 66.2216 38.3423C65.8807 38.0824 65.4609 37.9524 64.9624 37.9524C64.4467 37.9524 64.0163 38.0866 63.6712 38.3551C63.326 38.6236 63.0661 38.9922 62.8913 39.4609C62.7166 39.9254 62.6293 40.4538 62.6293 41.0462C62.6293 41.647 62.7166 42.1733 62.8913 42.625C63.0703 43.0724 63.3324 43.4219 63.6776 43.6733C64.027 43.9205 64.4553 44.044 64.9624 44.044ZM74.2372 40.2472V46H71.9233V32.9091H74.1861V37.8501H74.3011C74.5313 37.2962 74.8871 36.8594 75.3686 36.5398C75.8544 36.2159 76.4723 36.054 77.2223 36.054C77.9041 36.054 78.4986 36.1967 79.0057 36.4822C79.5128 36.7678 79.9048 37.1854 80.1818 37.7351C80.4631 38.2848 80.6037 38.956 80.6037 39.7486V46H78.2898V40.1065C78.2898 39.446 78.1193 38.9325 77.7784 38.5661C77.4418 38.1953 76.9688 38.0099 76.3594 38.0099C75.9503 38.0099 75.5838 38.0994 75.2599 38.2784C74.9403 38.4531 74.6889 38.7067 74.5057 39.0391C74.3267 39.3714 74.2372 39.7741 74.2372 40.2472ZM87.8651 36.1818V37.9716H82.2209V36.1818H87.8651ZM83.6143 33.8295H85.9283V43.0469C85.9283 43.358 85.9751 43.5966 86.0689 43.7628C86.1669 43.9247 86.2947 44.0355 86.4524 44.0952C86.6101 44.1548 86.7848 44.1847 86.9766 44.1847C87.1214 44.1847 87.2536 44.174 87.3729 44.1527C87.4964 44.1314 87.5902 44.1122 87.6541 44.0952L88.044 45.9041C87.9205 45.9467 87.7436 45.9936 87.5135 46.0447C87.2876 46.0959 87.0107 46.1257 86.6825 46.1342C86.103 46.1513 85.581 46.0639 85.1165 45.8722C84.652 45.6761 84.2834 45.3736 84.0107 44.9645C83.7422 44.5554 83.6101 44.044 83.6143 43.4304V33.8295Z" fill="#111928"/>
<path d="M38.2607 107.182V129H33.6477V111.56H33.5199L28.5234 114.692V110.602L33.9247 107.182H38.2607ZM47.2495 126.017L47.1323 127.189C47.04 128.126 46.8624 129.06 46.5996 129.991C46.3439 130.928 46.074 131.777 45.79 132.537C45.513 133.297 45.2892 133.893 45.1188 134.327H42.1784C42.285 133.908 42.4306 133.322 42.6152 132.569C42.7999 131.823 42.9739 130.985 43.1373 130.055C43.3006 129.124 43.4036 128.176 43.4462 127.21L43.4995 126.017H47.2495ZM58.7179 129.298C57.127 129.298 55.71 129.025 54.4672 128.478C53.2314 127.924 52.2548 127.164 51.5375 126.198C50.8272 125.225 50.4615 124.103 50.4402 122.832H55.085C55.1135 123.364 55.2875 123.833 55.6071 124.238C55.9338 124.636 56.367 124.945 56.9068 125.165C57.4466 125.385 58.0538 125.495 58.7285 125.495C59.4316 125.495 60.0531 125.371 60.5929 125.122C61.1326 124.874 61.5552 124.529 61.8606 124.089C62.166 123.648 62.3187 123.141 62.3187 122.565C62.3187 121.983 62.1554 121.468 61.8287 121.021C61.5091 120.566 61.0474 120.211 60.4437 119.955C59.8471 119.7 59.1369 119.572 58.313 119.572H56.2782V116.184H58.313C59.0091 116.184 59.6234 116.063 60.1561 115.822C60.6958 115.58 61.1149 115.246 61.4132 114.82C61.7115 114.387 61.8606 113.883 61.8606 113.308C61.8606 112.761 61.7292 112.281 61.4664 111.869C61.2108 111.45 60.8485 111.124 60.3798 110.889C59.9181 110.655 59.3784 110.538 58.7605 110.538C58.1355 110.538 57.5637 110.651 57.0453 110.879C56.5268 111.099 56.1113 111.415 55.7988 111.827C55.4863 112.239 55.3194 112.722 55.2981 113.276H50.877C50.8983 112.018 51.2569 110.911 51.9529 109.952C52.649 108.993 53.5865 108.244 54.7654 107.704C55.9515 107.157 57.2903 106.884 58.7818 106.884C60.2875 106.884 61.6049 107.157 62.7342 107.704C63.8635 108.251 64.7406 108.989 65.3656 109.92C65.9977 110.843 66.3102 111.88 66.3031 113.031C66.3102 114.252 65.9302 115.271 65.1632 116.088C64.4032 116.905 63.4125 117.423 62.1909 117.643V117.814C63.796 118.02 65.0176 118.577 65.8556 119.487C66.7008 120.388 67.1199 121.518 67.1127 122.874C67.1199 124.117 66.7612 125.222 66.0368 126.188C65.3194 127.153 64.3287 127.913 63.0645 128.467C61.8002 129.021 60.3514 129.298 58.7179 129.298ZM70.0984 125.165V121.532L79.207 107.182H82.3391V112.21H80.4854L74.7433 121.298V121.468H87.6871V125.165H70.0984ZM80.5707 129V124.057L80.6559 122.448V107.182H84.9812V129H80.5707ZM98.7294 129.298C97.2237 129.298 95.8814 129.021 94.7024 128.467C93.5305 127.913 92.6001 127.15 91.9112 126.177C91.2223 125.204 90.8636 124.089 90.8352 122.832H95.3097C95.3594 123.677 95.7145 124.362 96.375 124.888C97.0355 125.413 97.8203 125.676 98.7294 125.676C99.4538 125.676 100.093 125.516 100.647 125.197C101.208 124.87 101.645 124.419 101.957 123.844C102.277 123.261 102.437 122.594 102.437 121.841C102.437 121.074 102.273 120.399 101.947 119.817C101.627 119.234 101.183 118.78 100.615 118.453C100.047 118.126 99.397 117.96 98.6655 117.952C98.0263 117.952 97.4048 118.084 96.8011 118.347C96.2045 118.609 95.7393 118.968 95.4055 119.423L91.304 118.688L92.3374 107.182H105.675V110.953H96.1406L95.576 116.418H95.7038C96.0874 115.879 96.6662 115.431 97.4403 115.076C98.2145 114.721 99.081 114.543 100.04 114.543C101.354 114.543 102.526 114.852 103.555 115.47C104.585 116.088 105.398 116.937 105.995 118.016C106.592 119.089 106.886 120.325 106.879 121.724C106.886 123.194 106.545 124.501 105.857 125.644C105.175 126.781 104.219 127.675 102.991 128.329C101.769 128.975 100.349 129.298 98.7294 129.298Z" fill="#16BDCA"/>
<path d="M270.095 35.2727H268.36L271.433 44H273.385L276.461 35.2727H274.723L272.456 42.142H272.366L270.095 35.2727ZM277.543 44H279.085V37.4545H277.543V44ZM278.318 36.5256C278.808 36.5256 279.209 36.1506 279.209 35.6903C279.209 35.2259 278.808 34.8509 278.318 34.8509C277.824 34.8509 277.423 35.2259 277.423 35.6903C277.423 36.1506 277.824 36.5256 278.318 36.5256ZM283.569 44.1278C285.095 44.1278 286.143 43.3821 286.416 42.2443L284.975 42.0824C284.767 42.6364 284.255 42.9261 283.591 42.9261C282.593 42.9261 281.933 42.2699 281.92 41.1491H286.48V40.6761C286.48 38.3793 285.099 37.3693 283.488 37.3693C281.613 37.3693 280.39 38.7457 280.39 40.7656C280.39 42.8196 281.596 44.1278 283.569 44.1278ZM281.924 40.1094C281.971 39.2741 282.589 38.571 283.51 38.571C284.396 38.571 284.993 39.2188 285.001 40.1094H281.924ZM289.1 44H290.711L291.939 39.5767H292.028L293.255 44H294.862L296.716 37.4545H295.139L294.005 42.0312H293.941L292.765 37.4545H291.21L290.034 42.0568H289.974L288.824 37.4545H287.251L289.1 44Z" fill="#1C64F2"/>
<path d="M191 36V40M191 44H191.01M200 40C200 41.1819 199.767 42.3522 199.315 43.4442C198.863 44.5361 198.2 45.5282 197.364 46.364C196.528 47.1997 195.536 47.8626 194.444 48.3149C193.352 48.7672 192.182 49 191 49C189.818 49 188.648 48.7672 187.556 48.3149C186.464 47.8626 185.472 47.1997 184.636 46.364C183.8 45.5282 183.137 44.5361 182.685 43.4442C182.233 42.3522 182 41.1819 182 40C182 37.6131 182.948 35.3239 184.636 33.636C186.324 31.9482 188.613 31 191 31C193.387 31 195.676 31.9482 197.364 33.636C199.052 35.3239 200 37.6131 200 40Z" stroke="#9CA3AF" stroke-width="2" stroke-linecap="round" stroke-linejoin="round"/>
<defs>
<filter id="filter0_dd_109_16127" x="0" y="0" width="328.75" height="186" filterUnits="userSpaceOnUse" color-interpolation-filters="sRGB">
<feFlood flood-opacity="0" result="BackgroundImageFix"/>
<feColorMatrix in="SourceAlpha" type="matrix" values="0 0 0 0 0 0 0 0 0 0 0 0 0 0 0 0 0 0 127 0" result="hardAlpha"/>
<feOffset dy="1"/>
<feGaussianBlur stdDeviation="1.5"/>
<feColorMatrix type="matrix" values="0 0 0 0 0 0 0 0 0 0 0 0 0 0 0 0 0 0 0.1 0"/>
<feBlend mode="normal" in2="BackgroundImageFix" result="effect1_dropShadow_109_16127"/>
<feColorMatrix in="SourceAlpha" type="matrix" values="0 0 0 0 0 0 0 0 0 0 0 0 0 0 0 0 0 0 127 0" result="hardAlpha"/>
<feOffset dy="1"/>
<feGaussianBlur stdDeviation="1"/>
<feColorMatrix type="matrix" values="0 0 0 0 0 0 0 0 0 0 0 0 0 0 0 0 0 0 0.06 0"/>
<feBlend mode="normal" in2="effect1_dropShadow_109_16127" result="effect2_dropShadow_109_16127"/>
<feBlend mode="normal" in="SourceGraphic" in2="effect2_dropShadow_109_16127" result="shape"/>
</filter>
</defs>
</svg>
