
<svg width="667" height="446" viewBox="0 0 667 446" fill="none" xmlns="http://www.w3.org/2000/svg">
<g filter="url(#filter0_dd_108_16240)">
<rect x="3" y="2" width="661" height="440" rx="16" fill="white"/>
</g>
<path d="M32.657 59H27.7138L35.2457 37.1818H41.1903L48.7116 59H43.7685L38.3033 42.1676H38.1328L32.657 59ZM32.348 50.424H44.0241V54.0249H32.348V50.424ZM55.7908 37.1818V59H51.2525V37.1818H55.7908ZM66.8837 59.3196C65.2005 59.3196 63.7516 58.9787 62.5371 58.2969C61.3297 57.608 60.3993 56.6349 59.7459 55.3778C59.0925 54.1136 58.7658 52.6186 58.7658 50.8928C58.7658 49.2095 59.0925 47.7322 59.7459 46.4609C60.3993 45.1896 61.3191 44.1989 62.5051 43.4886C63.6983 42.7784 65.0975 42.4233 66.7026 42.4233C67.7821 42.4233 68.7871 42.5973 69.7175 42.9453C70.655 43.2862 71.4718 43.8011 72.1678 44.4901C72.8709 45.179 73.4178 46.0455 73.8084 47.0895C74.199 48.1264 74.3944 49.3409 74.3944 50.733V51.9794H60.5769V49.1669H70.1223C70.1223 48.5135 69.9803 47.9347 69.6962 47.4304C69.4121 46.9261 69.0179 46.532 68.5137 46.2479C68.0165 45.9567 67.4377 45.8111 66.7772 45.8111C66.0882 45.8111 65.4775 45.9709 64.9448 46.2905C64.4192 46.603 64.0073 47.0256 63.709 47.5582C63.4107 48.0838 63.258 48.6697 63.2509 49.3161V51.9901C63.2509 52.7997 63.4 53.4993 63.6983 54.0888C64.0037 54.6783 64.4334 55.1328 64.9874 55.4524C65.5414 55.772 66.1983 55.9318 66.9583 55.9318C67.4625 55.9318 67.9242 55.8608 68.3432 55.7188C68.7623 55.5767 69.1209 55.3636 69.4192 55.0795C69.7175 54.7955 69.9448 54.4474 70.101 54.0355L74.2985 54.3125C74.0854 55.321 73.6486 56.2017 72.9881 56.9545C72.3347 57.7003 71.4895 58.2827 70.4526 58.7017C69.4228 59.1136 68.2331 59.3196 66.8837 59.3196ZM77.356 59V42.6364H81.7559V45.4915H81.9263C82.2246 44.4759 82.7253 43.7088 83.4284 43.1903C84.1316 42.6648 84.9412 42.402 85.8574 42.402C86.0847 42.402 86.3297 42.4162 86.5925 42.4446C86.8553 42.473 87.0861 42.5121 87.285 42.5618V46.5888C87.0719 46.5249 86.7772 46.468 86.4007 46.4183C86.0243 46.3686 85.6799 46.3438 85.3674 46.3438C84.6998 46.3438 84.1032 46.4893 83.5776 46.7805C83.0591 47.0646 82.6472 47.4624 82.3418 47.9737C82.0435 48.4851 81.8944 49.0746 81.8944 49.7422V59H77.356ZM99.1555 42.6364V46.0455H89.3011V42.6364H99.1555ZM91.5384 38.7159H96.0767V53.9716C96.0767 54.3906 96.1406 54.7173 96.2685 54.9517C96.3963 55.179 96.5739 55.3388 96.8011 55.4311C97.0355 55.5234 97.3054 55.5696 97.6108 55.5696C97.8239 55.5696 98.0369 55.5518 98.25 55.5163C98.4631 55.4737 98.6264 55.4418 98.7401 55.4205L99.4538 58.7976C99.2266 58.8686 98.907 58.9503 98.495 59.0426C98.0831 59.142 97.5824 59.2024 96.9929 59.2237C95.8991 59.2663 94.9403 59.1207 94.1165 58.7869C93.2997 58.4531 92.6641 57.9347 92.2095 57.2315C91.755 56.5284 91.5313 55.6406 91.5384 54.5682V38.7159ZM112.901 59H107.958L115.49 37.1818H121.434L128.956 59H124.013L118.547 42.1676H118.377L112.901 59ZM112.592 50.424H124.268V54.0249H112.592V50.424ZM136.035 49.5398V59H131.497V42.6364H135.822V45.5234H136.014C136.376 44.5717 136.983 43.8189 137.835 43.2649C138.688 42.7038 139.721 42.4233 140.936 42.4233C142.072 42.4233 143.063 42.6719 143.908 43.169C144.753 43.6662 145.41 44.3764 145.879 45.2997C146.347 46.2159 146.582 47.3097 146.582 48.581V59H142.044V49.3906C142.051 48.3892 141.795 47.608 141.276 47.0469C140.758 46.4787 140.044 46.1946 139.135 46.1946C138.524 46.1946 137.985 46.326 137.516 46.5888C137.054 46.8516 136.692 47.2351 136.429 47.7393C136.173 48.2365 136.042 48.8366 136.035 49.5398ZM154.825 59.3089C153.781 59.3089 152.85 59.1278 152.034 58.7656C151.217 58.3963 150.571 57.853 150.095 57.1357C149.626 56.4112 149.392 55.5092 149.392 54.4297C149.392 53.5206 149.559 52.7571 149.892 52.1392C150.226 51.5213 150.681 51.0241 151.256 50.6477C151.831 50.2713 152.485 49.9872 153.216 49.7955C153.955 49.6037 154.729 49.4688 155.539 49.3906C156.49 49.2912 157.257 49.1989 157.84 49.1136C158.422 49.0213 158.845 48.8864 159.108 48.7088C159.37 48.5312 159.502 48.2685 159.502 47.9205V47.8565C159.502 47.1818 159.289 46.6598 158.863 46.2905C158.444 45.9212 157.847 45.7365 157.073 45.7365C156.256 45.7365 155.606 45.9176 155.123 46.2798C154.64 46.6349 154.321 47.0824 154.164 47.6222L149.967 47.2812C150.18 46.2869 150.599 45.4276 151.224 44.7031C151.849 43.9716 152.655 43.4105 153.642 43.0199C154.637 42.6222 155.787 42.4233 157.094 42.4233C158.003 42.4233 158.873 42.5298 159.704 42.7429C160.542 42.956 161.284 43.2862 161.931 43.7337C162.584 44.1811 163.099 44.7564 163.475 45.4595C163.852 46.1555 164.04 46.9901 164.04 47.9631V59H159.736V56.7308H159.608C159.346 57.2422 158.994 57.6932 158.554 58.0838C158.113 58.4673 157.584 58.7692 156.966 58.9893C156.348 59.2024 155.635 59.3089 154.825 59.3089ZM156.125 56.1768C156.792 56.1768 157.382 56.0455 157.893 55.7827C158.404 55.5128 158.806 55.1506 159.097 54.696C159.388 54.2415 159.534 53.7266 159.534 53.1513V51.4148C159.392 51.5071 159.196 51.5923 158.948 51.6705C158.706 51.7415 158.433 51.8089 158.127 51.8729C157.822 51.9297 157.517 51.983 157.211 52.0327C156.906 52.0753 156.629 52.1143 156.38 52.1499C155.848 52.228 155.382 52.3523 154.985 52.5227C154.587 52.6932 154.278 52.924 154.058 53.2152C153.838 53.4993 153.728 53.8544 153.728 54.2805C153.728 54.8984 153.951 55.3707 154.399 55.6974C154.853 56.017 155.429 56.1768 156.125 56.1768ZM172.099 37.1818V59H167.561V37.1818H172.099ZM178.537 65.1364C177.961 65.1364 177.422 65.0902 176.917 64.9979C176.42 64.9126 176.008 64.8026 175.682 64.6676L176.704 61.2798C177.237 61.4432 177.716 61.532 178.143 61.5462C178.576 61.5604 178.949 61.4609 179.261 61.2479C179.581 61.0348 179.84 60.6726 180.039 60.1612L180.305 59.4688L174.435 42.6364H179.208L182.596 54.6534H182.766L186.186 42.6364H190.991L184.631 60.7685C184.325 61.6491 183.91 62.4162 183.384 63.0696C182.866 63.7301 182.209 64.2379 181.413 64.593C180.618 64.9553 179.659 65.1364 178.537 65.1364ZM202.017 42.6364V46.0455H192.162V42.6364H202.017ZM194.4 38.7159H198.938V53.9716C198.938 54.3906 199.002 54.7173 199.13 54.9517C199.258 55.179 199.435 55.3388 199.662 55.4311C199.897 55.5234 200.167 55.5696 200.472 55.5696C200.685 55.5696 200.898 55.5518 201.111 55.5163C201.324 55.4737 201.488 55.4418 201.601 55.4205L202.315 58.7976C202.088 58.8686 201.768 58.9503 201.356 59.0426C200.944 59.142 200.444 59.2024 199.854 59.2237C198.76 59.2663 197.802 59.1207 196.978 58.7869C196.161 58.4531 195.525 57.9347 195.071 57.2315C194.616 56.5284 194.393 55.6406 194.4 54.5682V38.7159ZM204.973 59V42.6364H209.512V59H204.973ZM207.253 40.527C206.578 40.527 205.999 40.3033 205.517 39.8558C205.041 39.4013 204.803 38.858 204.803 38.2259C204.803 37.6009 205.041 37.0646 205.517 36.6172C205.999 36.1626 206.578 35.9354 207.253 35.9354C207.928 35.9354 208.503 36.1626 208.979 36.6172C209.462 37.0646 209.703 37.6009 209.703 38.2259C209.703 38.858 209.462 39.4013 208.979 39.8558C208.503 40.3033 207.928 40.527 207.253 40.527ZM220.54 59.3196C218.864 59.3196 217.423 58.9645 216.215 58.2543C215.015 57.5369 214.092 56.5426 213.445 55.2713C212.806 54 212.487 52.5369 212.487 50.8821C212.487 49.206 212.81 47.7358 213.456 46.4716C214.109 45.2003 215.036 44.2095 216.237 43.4993C217.437 42.782 218.864 42.4233 220.519 42.4233C221.947 42.4233 223.197 42.6825 224.269 43.201C225.342 43.7195 226.19 44.4474 226.815 45.3849C227.44 46.3224 227.785 47.4233 227.849 48.6875H223.566C223.445 47.8707 223.126 47.2138 222.607 46.7166C222.096 46.2124 221.425 45.9602 220.594 45.9602C219.891 45.9602 219.276 46.152 218.751 46.5355C218.232 46.9119 217.827 47.4624 217.536 48.1868C217.245 48.9112 217.099 49.7884 217.099 50.8182C217.099 51.8622 217.241 52.75 217.526 53.4815C217.817 54.2131 218.225 54.7706 218.751 55.1541C219.276 55.5376 219.891 55.7294 220.594 55.7294C221.112 55.7294 221.577 55.6229 221.989 55.4098C222.408 55.1967 222.753 54.8878 223.023 54.483C223.3 54.071 223.481 53.5774 223.566 53.0021H227.849C227.778 54.2521 227.437 55.353 226.826 56.3047C226.222 57.2493 225.388 57.9879 224.322 58.5206C223.257 59.0533 221.996 59.3196 220.54 59.3196ZM244.369 47.3026L240.215 47.5582C240.144 47.2031 239.991 46.8835 239.757 46.5994C239.522 46.3082 239.213 46.0774 238.83 45.907C238.453 45.7294 238.002 45.6406 237.477 45.6406C236.774 45.6406 236.181 45.7898 235.698 46.0881C235.215 46.3793 234.973 46.7699 234.973 47.2599C234.973 47.6506 235.129 47.9808 235.442 48.2507C235.754 48.5206 236.291 48.7372 237.051 48.9006L240.012 49.4972C241.603 49.8239 242.789 50.3494 243.57 51.0739C244.352 51.7983 244.742 52.75 244.742 53.929C244.742 55.0014 244.426 55.9425 243.794 56.7521C243.169 57.5618 242.31 58.1939 241.216 58.6484C240.129 59.0959 238.876 59.3196 237.455 59.3196C235.289 59.3196 233.563 58.8686 232.278 57.9666C230.999 57.0575 230.25 55.8217 230.03 54.2592L234.494 54.0249C234.629 54.6854 234.955 55.1896 235.474 55.5376C235.992 55.8786 236.656 56.049 237.466 56.049C238.262 56.049 238.901 55.8963 239.384 55.5909C239.874 55.2784 240.122 54.8771 240.129 54.3871C240.122 53.9751 239.948 53.6378 239.607 53.375C239.267 53.1051 238.741 52.8991 238.031 52.7571L235.197 52.1925C233.599 51.8729 232.409 51.3189 231.628 50.5305C230.854 49.7422 230.467 48.7372 230.467 47.5156C230.467 46.4645 230.751 45.5589 231.319 44.799C231.894 44.0391 232.7 43.4531 233.737 43.0412C234.781 42.6293 236.003 42.4233 237.402 42.4233C239.469 42.4233 241.095 42.8601 242.281 43.7337C243.475 44.6072 244.171 45.7969 244.369 47.3026Z" fill="#111928"/>
<path d="M458.122 186H456.46L461.267 172.909H462.903L467.71 186H466.048L462.136 174.98H462.034L458.122 186ZM458.736 180.886H465.435V182.293H458.736V180.886ZM471.053 172.909V186H469.545V172.909H471.053ZM477.933 186.205C476.987 186.205 476.171 185.996 475.485 185.578C474.803 185.156 474.276 184.568 473.906 183.814C473.539 183.055 473.356 182.173 473.356 181.168C473.356 180.162 473.539 179.276 473.906 178.509C474.276 177.737 474.792 177.136 475.453 176.706C476.117 176.271 476.893 176.054 477.779 176.054C478.291 176.054 478.796 176.139 479.294 176.31C479.793 176.48 480.247 176.757 480.656 177.141C481.065 177.52 481.391 178.023 481.634 178.649C481.877 179.276 481.998 180.047 481.998 180.963V181.602H474.43V180.298H480.464C480.464 179.744 480.353 179.25 480.132 178.815C479.914 178.381 479.603 178.038 479.198 177.786C478.798 177.535 478.325 177.409 477.779 177.409C477.178 177.409 476.659 177.558 476.22 177.857C475.785 178.151 475.45 178.534 475.216 179.007C474.982 179.48 474.865 179.987 474.865 180.528V181.398C474.865 182.139 474.992 182.768 475.248 183.283C475.508 183.795 475.868 184.185 476.328 184.453C476.789 184.717 477.323 184.849 477.933 184.849C478.329 184.849 478.687 184.794 479.007 184.683C479.33 184.568 479.61 184.398 479.844 184.172C480.078 183.942 480.259 183.656 480.387 183.315L481.845 183.724C481.691 184.219 481.433 184.653 481.071 185.028C480.709 185.399 480.262 185.689 479.729 185.898C479.196 186.102 478.597 186.205 477.933 186.205ZM484.293 186V176.182H485.75V177.665H485.852C486.031 177.179 486.355 176.785 486.824 176.482C487.293 176.18 487.821 176.028 488.409 176.028C488.52 176.028 488.659 176.031 488.825 176.035C488.991 176.039 489.117 176.045 489.202 176.054V177.588C489.151 177.575 489.034 177.556 488.85 177.531C488.671 177.501 488.482 177.486 488.281 177.486C487.804 177.486 487.378 177.586 487.003 177.786C486.632 177.982 486.338 178.255 486.121 178.604C485.908 178.95 485.801 179.344 485.801 179.787V186H484.293ZM495.875 176.182V177.46H490.787V176.182H495.875ZM492.27 173.83H493.779V183.188C493.779 183.614 493.84 183.933 493.964 184.146C494.092 184.355 494.254 184.496 494.45 184.568C494.65 184.636 494.861 184.67 495.083 184.67C495.249 184.67 495.385 184.662 495.492 184.645C495.598 184.624 495.683 184.607 495.747 184.594L496.054 185.949C495.952 185.987 495.809 186.026 495.626 186.064C495.443 186.107 495.21 186.128 494.929 186.128C494.503 186.128 494.085 186.036 493.676 185.853C493.271 185.67 492.935 185.391 492.666 185.016C492.402 184.641 492.27 184.168 492.27 183.597V173.83ZM504.92 186V187.406H496.738V186H504.92ZM508.909 172.909V186H507.323V174.571H507.247L504.051 176.693V175.082L507.323 172.909H508.909Z" fill="#1F2A37"/>
<path d="M128.865 246.21V245.273H135.41V246.21H132.666V254H131.609V246.21H128.865ZM138.615 254.136C138.024 254.136 137.505 253.996 137.059 253.714C136.616 253.433 136.27 253.04 136.02 252.534C135.772 252.028 135.649 251.437 135.649 250.761C135.649 250.08 135.772 249.484 136.02 248.976C136.27 248.467 136.616 248.072 137.059 247.791C137.505 247.51 138.024 247.369 138.615 247.369C139.206 247.369 139.723 247.51 140.166 247.791C140.612 248.072 140.958 248.467 141.206 248.976C141.456 249.484 141.581 250.08 141.581 250.761C141.581 251.437 141.456 252.028 141.206 252.534C140.958 253.04 140.612 253.433 140.166 253.714C139.723 253.996 139.206 254.136 138.615 254.136ZM138.615 253.233C139.064 253.233 139.433 253.118 139.723 252.888C140.012 252.658 140.227 252.355 140.366 251.98C140.505 251.605 140.575 251.199 140.575 250.761C140.575 250.324 140.505 249.916 140.366 249.538C140.227 249.161 140.012 248.855 139.723 248.622C139.433 248.389 139.064 248.273 138.615 248.273C138.166 248.273 137.797 248.389 137.507 248.622C137.217 248.855 137.002 249.161 136.863 249.538C136.724 249.916 136.654 250.324 136.654 250.761C136.654 251.199 136.724 251.605 136.863 251.98C137.002 252.355 137.217 252.658 137.507 252.888C137.797 253.118 138.166 253.233 138.615 253.233ZM145.962 247.455V248.307H142.57V247.455H145.962ZM143.559 245.886H144.565V252.125C144.565 252.409 144.606 252.622 144.688 252.764C144.773 252.903 144.881 252.997 145.012 253.045C145.146 253.091 145.286 253.114 145.434 253.114C145.545 253.114 145.636 253.108 145.707 253.097C145.778 253.082 145.835 253.071 145.877 253.062L146.082 253.966C146.013 253.991 145.918 254.017 145.796 254.043C145.674 254.071 145.519 254.085 145.332 254.085C145.048 254.085 144.769 254.024 144.496 253.902C144.227 253.78 144.002 253.594 143.823 253.344C143.647 253.094 143.559 252.778 143.559 252.398V245.886ZM149.401 254.153C148.987 254.153 148.61 254.075 148.272 253.919C147.934 253.76 147.665 253.531 147.467 253.233C147.268 252.932 147.168 252.568 147.168 252.142C147.168 251.767 147.242 251.463 147.39 251.23C147.538 250.994 147.735 250.81 147.982 250.676C148.229 250.543 148.502 250.443 148.8 250.378C149.102 250.31 149.404 250.256 149.708 250.216C150.106 250.165 150.428 250.126 150.675 250.101C150.925 250.072 151.107 250.026 151.221 249.96C151.337 249.895 151.396 249.781 151.396 249.619V249.585C151.396 249.165 151.281 248.838 151.05 248.605C150.823 248.372 150.478 248.256 150.015 248.256C149.535 248.256 149.158 248.361 148.886 248.571C148.613 248.781 148.421 249.006 148.31 249.244L147.356 248.903C147.526 248.506 147.754 248.196 148.038 247.974C148.325 247.75 148.637 247.594 148.975 247.506C149.316 247.415 149.651 247.369 149.981 247.369C150.191 247.369 150.433 247.395 150.705 247.446C150.981 247.494 151.246 247.595 151.502 247.749C151.761 247.902 151.975 248.134 152.146 248.443C152.316 248.753 152.401 249.168 152.401 249.688V254H151.396V253.114H151.344C151.276 253.256 151.163 253.408 151.004 253.57C150.844 253.732 150.633 253.869 150.369 253.983C150.104 254.097 149.782 254.153 149.401 254.153ZM149.555 253.25C149.952 253.25 150.288 253.172 150.56 253.016C150.836 252.859 151.043 252.658 151.183 252.411C151.325 252.163 151.396 251.903 151.396 251.631V250.71C151.353 250.761 151.259 250.808 151.114 250.851C150.972 250.891 150.808 250.926 150.62 250.957C150.435 250.986 150.255 251.011 150.079 251.034C149.906 251.054 149.765 251.071 149.657 251.085C149.396 251.119 149.151 251.175 148.924 251.251C148.7 251.325 148.518 251.437 148.379 251.588C148.242 251.736 148.174 251.937 148.174 252.193C148.174 252.543 148.303 252.807 148.562 252.986C148.823 253.162 149.154 253.25 149.555 253.25ZM155.243 245.273V254H154.237V245.273H155.243ZM160.954 254H159.846L163.05 245.273H164.141L167.346 254H166.238L163.63 246.653H163.562L160.954 254ZM161.363 250.591H165.829V251.528H161.363V250.591ZM169.575 245.273V254H168.569V245.273H169.575ZM174.161 254.136C173.53 254.136 172.986 253.997 172.529 253.719C172.074 253.438 171.723 253.045 171.476 252.543C171.232 252.037 171.11 251.449 171.11 250.778C171.11 250.108 171.232 249.517 171.476 249.006C171.723 248.491 172.067 248.091 172.507 247.804C172.951 247.514 173.468 247.369 174.059 247.369C174.4 247.369 174.736 247.426 175.069 247.54C175.401 247.653 175.703 247.838 175.976 248.094C176.249 248.347 176.466 248.682 176.628 249.099C176.79 249.517 176.871 250.031 176.871 250.642V251.068H171.826V250.199H175.848C175.848 249.83 175.775 249.5 175.627 249.21C175.482 248.92 175.275 248.692 175.005 248.524C174.738 248.357 174.422 248.273 174.059 248.273C173.658 248.273 173.311 248.372 173.019 248.571C172.729 248.767 172.506 249.023 172.35 249.338C172.194 249.653 172.115 249.991 172.115 250.352V250.932C172.115 251.426 172.201 251.845 172.371 252.189C172.544 252.53 172.784 252.79 173.091 252.969C173.398 253.145 173.755 253.233 174.161 253.233C174.425 253.233 174.664 253.196 174.877 253.122C175.093 253.045 175.279 252.932 175.435 252.781C175.591 252.628 175.712 252.437 175.797 252.21L176.769 252.483C176.667 252.812 176.495 253.102 176.253 253.352C176.012 253.599 175.713 253.793 175.358 253.932C175.003 254.068 174.604 254.136 174.161 254.136ZM178.401 254V247.455H179.373V248.443H179.441C179.56 248.119 179.776 247.857 180.088 247.655C180.401 247.453 180.753 247.352 181.145 247.352C181.219 247.352 181.311 247.354 181.422 247.357C181.533 247.359 181.617 247.364 181.674 247.369V248.392C181.64 248.384 181.561 248.371 181.439 248.354C181.32 248.334 181.194 248.324 181.06 248.324C180.742 248.324 180.458 248.391 180.208 248.524C179.961 248.655 179.765 248.837 179.62 249.07C179.478 249.3 179.407 249.562 179.407 249.858V254H178.401ZM186.123 247.455V248.307H182.73V247.455H186.123ZM183.719 245.886H184.725V252.125C184.725 252.409 184.766 252.622 184.848 252.764C184.934 252.903 185.042 252.997 185.172 253.045C185.306 253.091 185.446 253.114 185.594 253.114C185.705 253.114 185.796 253.108 185.867 253.097C185.938 253.082 185.995 253.071 186.037 253.062L186.242 253.966C186.174 253.991 186.078 254.017 185.956 254.043C185.834 254.071 185.679 254.085 185.492 254.085C185.208 254.085 184.929 254.024 184.657 253.902C184.387 253.78 184.162 253.594 183.983 253.344C183.807 253.094 183.719 252.778 183.719 252.398V245.886Z" fill="#1F2A37"/>
<path d="M144.094 268.545H140.626L136.305 271.281V274.554L140.302 272.048H140.404V286H144.094V268.545ZM147.979 282.932H156.357V286H159.885V282.932H162.05V279.974H159.885V268.545H155.266L147.979 280.026V282.932ZM156.425 279.974H151.695V279.838L156.288 272.568H156.425V279.974ZM170.96 286.239C174.881 286.239 177.685 284.082 177.676 281.099C177.685 278.926 176.304 277.375 173.739 277.051V276.915C175.69 276.565 177.037 275.185 177.028 273.224C177.037 270.472 174.625 268.307 171.011 268.307C167.432 268.307 164.739 270.403 164.688 273.42H168.224C168.267 272.091 169.486 271.23 170.994 271.23C172.486 271.23 173.483 272.134 173.474 273.446C173.483 274.818 172.315 275.747 170.636 275.747H169.009V278.457H170.636C172.614 278.457 173.849 279.446 173.841 280.852C173.849 282.241 172.656 283.196 170.969 283.196C169.341 283.196 168.122 282.344 168.054 281.065H164.338C164.398 284.116 167.125 286.239 170.96 286.239Z" fill="#1F2A37"/>
<path d="M458.122 223H456.46L461.267 209.909H462.903L467.71 223H466.048L462.136 211.98H462.034L458.122 223ZM458.736 217.886H465.435V219.293H458.736V217.886ZM471.053 209.909V223H469.545V209.909H471.053ZM477.933 223.205C476.987 223.205 476.171 222.996 475.485 222.578C474.803 222.156 474.276 221.568 473.906 220.814C473.539 220.055 473.356 219.173 473.356 218.168C473.356 217.162 473.539 216.276 473.906 215.509C474.276 214.737 474.792 214.136 475.453 213.706C476.117 213.271 476.893 213.054 477.779 213.054C478.291 213.054 478.796 213.139 479.294 213.31C479.793 213.48 480.247 213.757 480.656 214.141C481.065 214.52 481.391 215.023 481.634 215.649C481.877 216.276 481.998 217.047 481.998 217.963V218.602H474.43V217.298H480.464C480.464 216.744 480.353 216.25 480.132 215.815C479.914 215.381 479.603 215.038 479.198 214.786C478.798 214.535 478.325 214.409 477.779 214.409C477.178 214.409 476.659 214.558 476.22 214.857C475.785 215.151 475.45 215.534 475.216 216.007C474.982 216.48 474.865 216.987 474.865 217.528V218.398C474.865 219.139 474.992 219.768 475.248 220.283C475.508 220.795 475.868 221.185 476.328 221.453C476.789 221.717 477.323 221.849 477.933 221.849C478.329 221.849 478.687 221.794 479.007 221.683C479.33 221.568 479.61 221.398 479.844 221.172C480.078 220.942 480.259 220.656 480.387 220.315L481.845 220.724C481.691 221.219 481.433 221.653 481.071 222.028C480.709 222.399 480.262 222.689 479.729 222.898C479.196 223.102 478.597 223.205 477.933 223.205ZM484.293 223V213.182H485.75V214.665H485.852C486.031 214.179 486.355 213.785 486.824 213.482C487.293 213.18 487.821 213.028 488.409 213.028C488.52 213.028 488.659 213.031 488.825 213.035C488.991 213.039 489.117 213.045 489.202 213.054V214.588C489.151 214.575 489.034 214.556 488.85 214.531C488.671 214.501 488.482 214.486 488.281 214.486C487.804 214.486 487.378 214.586 487.003 214.786C486.632 214.982 486.338 215.255 486.121 215.604C485.908 215.95 485.801 216.344 485.801 216.787V223H484.293ZM495.875 213.182V214.46H490.787V213.182H495.875ZM492.27 210.83H493.779V220.188C493.779 220.614 493.84 220.933 493.964 221.146C494.092 221.355 494.254 221.496 494.45 221.568C494.65 221.636 494.861 221.67 495.083 221.67C495.249 221.67 495.385 221.662 495.492 221.645C495.598 221.624 495.683 221.607 495.747 221.594L496.054 222.949C495.952 222.987 495.809 223.026 495.626 223.064C495.443 223.107 495.21 223.128 494.929 223.128C494.503 223.128 494.085 223.036 493.676 222.853C493.271 222.67 492.935 222.391 492.666 222.016C492.402 221.641 492.27 221.168 492.27 220.597V210.83ZM504.92 223V224.406H496.738V223H504.92ZM506.257 223V221.849L510.578 217.119C511.086 216.565 511.503 216.084 511.831 215.675C512.159 215.261 512.402 214.874 512.56 214.511C512.722 214.145 512.803 213.761 512.803 213.361C512.803 212.901 512.692 212.502 512.471 212.165C512.253 211.829 511.955 211.569 511.576 211.386C511.196 211.202 510.77 211.111 510.297 211.111C509.794 211.111 509.355 211.215 508.98 211.424C508.61 211.629 508.322 211.916 508.118 212.287C507.917 212.658 507.817 213.092 507.817 213.591H506.309C506.309 212.824 506.485 212.151 506.839 211.571C507.193 210.991 507.674 210.54 508.284 210.216C508.897 209.892 509.586 209.73 510.348 209.73C511.115 209.73 511.795 209.892 512.387 210.216C512.98 210.54 513.444 210.977 513.781 211.526C514.118 212.076 514.286 212.688 514.286 213.361C514.286 213.842 514.199 214.313 514.024 214.773C513.853 215.229 513.555 215.739 513.129 216.301C512.707 216.859 512.121 217.541 511.371 218.347L508.431 221.491V221.594H514.516V223H506.257Z" fill="#1F2A37"/>
<path d="M458.122 260H456.46L461.267 246.909H462.903L467.71 260H466.048L462.136 248.98H462.034L458.122 260ZM458.736 254.886H465.435V256.293H458.736V254.886ZM471.053 246.909V260H469.545V246.909H471.053ZM477.933 260.205C476.987 260.205 476.171 259.996 475.485 259.578C474.803 259.156 474.276 258.568 473.906 257.814C473.539 257.055 473.356 256.173 473.356 255.168C473.356 254.162 473.539 253.276 473.906 252.509C474.276 251.737 474.792 251.136 475.453 250.706C476.117 250.271 476.893 250.054 477.779 250.054C478.291 250.054 478.796 250.139 479.294 250.31C479.793 250.48 480.247 250.757 480.656 251.141C481.065 251.52 481.391 252.023 481.634 252.649C481.877 253.276 481.998 254.047 481.998 254.963V255.602H474.43V254.298H480.464C480.464 253.744 480.353 253.25 480.132 252.815C479.914 252.381 479.603 252.038 479.198 251.786C478.798 251.535 478.325 251.409 477.779 251.409C477.178 251.409 476.659 251.558 476.22 251.857C475.785 252.151 475.45 252.534 475.216 253.007C474.982 253.48 474.865 253.987 474.865 254.528V255.398C474.865 256.139 474.992 256.768 475.248 257.283C475.508 257.795 475.868 258.185 476.328 258.453C476.789 258.717 477.323 258.849 477.933 258.849C478.329 258.849 478.687 258.794 479.007 258.683C479.33 258.568 479.61 258.398 479.844 258.172C480.078 257.942 480.259 257.656 480.387 257.315L481.845 257.724C481.691 258.219 481.433 258.653 481.071 259.028C480.709 259.399 480.262 259.689 479.729 259.898C479.196 260.102 478.597 260.205 477.933 260.205ZM484.293 260V250.182H485.75V251.665H485.852C486.031 251.179 486.355 250.785 486.824 250.482C487.293 250.18 487.821 250.028 488.409 250.028C488.52 250.028 488.659 250.031 488.825 250.035C488.991 250.039 489.117 250.045 489.202 250.054V251.588C489.151 251.575 489.034 251.556 488.85 251.531C488.671 251.501 488.482 251.486 488.281 251.486C487.804 251.486 487.378 251.586 487.003 251.786C486.632 251.982 486.338 252.255 486.121 252.604C485.908 252.95 485.801 253.344 485.801 253.787V260H484.293ZM495.875 250.182V251.46H490.787V250.182H495.875ZM492.27 247.83H493.779V257.188C493.779 257.614 493.84 257.933 493.964 258.146C494.092 258.355 494.254 258.496 494.45 258.568C494.65 258.636 494.861 258.67 495.083 258.67C495.249 258.67 495.385 258.662 495.492 258.645C495.598 258.624 495.683 258.607 495.747 258.594L496.054 259.949C495.952 259.987 495.809 260.026 495.626 260.064C495.443 260.107 495.21 260.128 494.929 260.128C494.503 260.128 494.085 260.036 493.676 259.853C493.271 259.67 492.935 259.391 492.666 259.016C492.402 258.641 492.27 258.168 492.27 257.597V247.83ZM504.92 260V261.406H496.738V260H504.92ZM509.855 260.179C509.011 260.179 508.259 260.034 507.598 259.744C506.942 259.455 506.42 259.052 506.032 258.536C505.649 258.016 505.44 257.413 505.406 256.727H507.017C507.051 257.149 507.195 257.513 507.451 257.82C507.707 258.123 508.041 258.357 508.455 258.523C508.868 258.69 509.326 258.773 509.829 258.773C510.392 258.773 510.89 258.675 511.325 258.479C511.759 258.283 512.1 258.01 512.347 257.661C512.595 257.311 512.718 256.906 512.718 256.446C512.718 255.964 512.599 255.54 512.36 255.174C512.122 254.803 511.772 254.513 511.312 254.305C510.852 254.096 510.289 253.991 509.624 253.991H508.576V252.585H509.624C510.144 252.585 510.6 252.491 510.992 252.304C511.389 252.116 511.698 251.852 511.919 251.511C512.145 251.17 512.258 250.77 512.258 250.31C512.258 249.866 512.16 249.481 511.964 249.153C511.768 248.825 511.491 248.569 511.133 248.386C510.779 248.202 510.362 248.111 509.88 248.111C509.428 248.111 509.002 248.194 508.602 248.36C508.205 248.522 507.882 248.759 507.63 249.07C507.379 249.376 507.242 249.747 507.221 250.182H505.687C505.713 249.496 505.919 248.895 506.307 248.379C506.695 247.859 507.202 247.455 507.828 247.165C508.459 246.875 509.151 246.73 509.906 246.73C510.715 246.73 511.41 246.894 511.99 247.222C512.569 247.546 513.014 247.974 513.325 248.507C513.637 249.04 513.792 249.615 513.792 250.233C513.792 250.97 513.598 251.599 513.21 252.119C512.827 252.638 512.305 252.999 511.644 253.199V253.301C512.471 253.437 513.117 253.789 513.581 254.356C514.046 254.918 514.278 255.615 514.278 256.446C514.278 257.158 514.084 257.797 513.696 258.364C513.313 258.926 512.789 259.369 512.124 259.693C511.459 260.017 510.703 260.179 509.855 260.179Z" fill="#1F2A37"/>
<path d="M458.122 297H456.46L461.267 283.909H462.903L467.71 297H466.048L462.136 285.98H462.034L458.122 297ZM458.736 291.886H465.435V293.293H458.736V291.886ZM471.053 283.909V297H469.545V283.909H471.053ZM477.933 297.205C476.987 297.205 476.171 296.996 475.485 296.578C474.803 296.156 474.276 295.568 473.906 294.814C473.539 294.055 473.356 293.173 473.356 292.168C473.356 291.162 473.539 290.276 473.906 289.509C474.276 288.737 474.792 288.136 475.453 287.706C476.117 287.271 476.893 287.054 477.779 287.054C478.291 287.054 478.796 287.139 479.294 287.31C479.793 287.48 480.247 287.757 480.656 288.141C481.065 288.52 481.391 289.023 481.634 289.649C481.877 290.276 481.998 291.047 481.998 291.963V292.602H474.43V291.298H480.464C480.464 290.744 480.353 290.25 480.132 289.815C479.914 289.381 479.603 289.038 479.198 288.786C478.798 288.535 478.325 288.409 477.779 288.409C477.178 288.409 476.659 288.558 476.22 288.857C475.785 289.151 475.45 289.534 475.216 290.007C474.982 290.48 474.865 290.987 474.865 291.528V292.398C474.865 293.139 474.992 293.768 475.248 294.283C475.508 294.795 475.868 295.185 476.328 295.453C476.789 295.717 477.323 295.849 477.933 295.849C478.329 295.849 478.687 295.794 479.007 295.683C479.33 295.568 479.61 295.398 479.844 295.172C480.078 294.942 480.259 294.656 480.387 294.315L481.845 294.724C481.691 295.219 481.433 295.653 481.071 296.028C480.709 296.399 480.262 296.689 479.729 296.898C479.196 297.102 478.597 297.205 477.933 297.205ZM484.293 297V287.182H485.75V288.665H485.852C486.031 288.179 486.355 287.785 486.824 287.482C487.293 287.18 487.821 287.028 488.409 287.028C488.52 287.028 488.659 287.031 488.825 287.035C488.991 287.039 489.117 287.045 489.202 287.054V288.588C489.151 288.575 489.034 288.556 488.85 288.531C488.671 288.501 488.482 288.486 488.281 288.486C487.804 288.486 487.378 288.586 487.003 288.786C486.632 288.982 486.338 289.255 486.121 289.604C485.908 289.95 485.801 290.344 485.801 290.787V297H484.293ZM495.875 287.182V288.46H490.787V287.182H495.875ZM492.27 284.83H493.779V294.188C493.779 294.614 493.84 294.933 493.964 295.146C494.092 295.355 494.254 295.496 494.45 295.568C494.65 295.636 494.861 295.67 495.083 295.67C495.249 295.67 495.385 295.662 495.492 295.645C495.598 295.624 495.683 295.607 495.747 295.594L496.054 296.949C495.952 296.987 495.809 297.026 495.626 297.064C495.443 297.107 495.21 297.128 494.929 297.128C494.503 297.128 494.085 297.036 493.676 296.853C493.271 296.67 492.935 296.391 492.666 296.016C492.402 295.641 492.27 295.168 492.27 294.597V284.83ZM504.92 297V298.406H496.738V297H504.92ZM504.931 294.315V293.011L510.684 283.909H511.63V285.929H510.991L506.644 292.807V292.909H514.391V294.315H504.931ZM511.093 297V293.919V293.312V283.909H512.602V297H511.093Z" fill="#1F2A37"/>
<path d="M458.122 334H456.46L461.267 320.909H462.903L467.71 334H466.048L462.136 322.98H462.034L458.122 334ZM458.736 328.886H465.435V330.293H458.736V328.886ZM471.053 320.909V334H469.545V320.909H471.053ZM477.933 334.205C476.987 334.205 476.171 333.996 475.485 333.578C474.803 333.156 474.276 332.568 473.906 331.814C473.539 331.055 473.356 330.173 473.356 329.168C473.356 328.162 473.539 327.276 473.906 326.509C474.276 325.737 474.792 325.136 475.453 324.706C476.117 324.271 476.893 324.054 477.779 324.054C478.291 324.054 478.796 324.139 479.294 324.31C479.793 324.48 480.247 324.757 480.656 325.141C481.065 325.52 481.391 326.023 481.634 326.649C481.877 327.276 481.998 328.047 481.998 328.963V329.602H474.43V328.298H480.464C480.464 327.744 480.353 327.25 480.132 326.815C479.914 326.381 479.603 326.038 479.198 325.786C478.798 325.535 478.325 325.409 477.779 325.409C477.178 325.409 476.659 325.558 476.22 325.857C475.785 326.151 475.45 326.534 475.216 327.007C474.982 327.48 474.865 327.987 474.865 328.528V329.398C474.865 330.139 474.992 330.768 475.248 331.283C475.508 331.795 475.868 332.185 476.328 332.453C476.789 332.717 477.323 332.849 477.933 332.849C478.329 332.849 478.687 332.794 479.007 332.683C479.33 332.568 479.61 332.398 479.844 332.172C480.078 331.942 480.259 331.656 480.387 331.315L481.845 331.724C481.691 332.219 481.433 332.653 481.071 333.028C480.709 333.399 480.262 333.689 479.729 333.898C479.196 334.102 478.597 334.205 477.933 334.205ZM484.293 334V324.182H485.75V325.665H485.852C486.031 325.179 486.355 324.785 486.824 324.482C487.293 324.18 487.821 324.028 488.409 324.028C488.52 324.028 488.659 324.031 488.825 324.035C488.991 324.039 489.117 324.045 489.202 324.054V325.588C489.151 325.575 489.034 325.556 488.85 325.531C488.671 325.501 488.482 325.486 488.281 325.486C487.804 325.486 487.378 325.586 487.003 325.786C486.632 325.982 486.338 326.255 486.121 326.604C485.908 326.95 485.801 327.344 485.801 327.787V334H484.293ZM495.875 324.182V325.46H490.787V324.182H495.875ZM492.27 321.83H493.779V331.188C493.779 331.614 493.84 331.933 493.964 332.146C494.092 332.355 494.254 332.496 494.45 332.568C494.65 332.636 494.861 332.67 495.083 332.67C495.249 332.67 495.385 332.662 495.492 332.645C495.598 332.624 495.683 332.607 495.747 332.594L496.054 333.949C495.952 333.987 495.809 334.026 495.626 334.064C495.443 334.107 495.21 334.128 494.929 334.128C494.503 334.128 494.085 334.036 493.676 333.853C493.271 333.67 492.935 333.391 492.666 333.016C492.402 332.641 492.27 332.168 492.27 331.597V321.83ZM504.92 334V335.406H496.738V334H504.92ZM509.522 334.179C508.772 334.179 508.097 334.03 507.496 333.732C506.895 333.433 506.414 333.024 506.051 332.504C505.689 331.984 505.491 331.392 505.457 330.727H506.991C507.051 331.32 507.319 331.81 507.796 332.197C508.278 332.581 508.853 332.773 509.522 332.773C510.059 332.773 510.536 332.647 510.954 332.396C511.376 332.144 511.706 331.799 511.945 331.36C512.188 330.917 512.309 330.416 512.309 329.858C512.309 329.287 512.183 328.778 511.932 328.33C511.685 327.879 511.344 327.523 510.909 327.263C510.475 327.003 509.978 326.871 509.42 326.866C509.019 326.862 508.608 326.924 508.186 327.052C507.764 327.175 507.417 327.335 507.144 327.531L505.661 327.352L506.454 320.909H513.255V322.315H507.784L507.323 326.176H507.4C507.669 325.963 508.005 325.786 508.41 325.646C508.815 325.505 509.237 325.435 509.676 325.435C510.477 325.435 511.191 325.626 511.817 326.01C512.448 326.389 512.942 326.909 513.3 327.57C513.662 328.23 513.843 328.984 513.843 329.832C513.843 330.668 513.656 331.413 513.281 332.07C512.91 332.722 512.399 333.237 511.747 333.616C511.095 333.991 510.353 334.179 509.522 334.179Z" fill="#1F2A37"/>
<path d="M458.122 371H456.46L461.267 357.909H462.903L467.71 371H466.048L462.136 359.98H462.034L458.122 371ZM458.736 365.886H465.435V367.293H458.736V365.886ZM471.053 357.909V371H469.545V357.909H471.053ZM477.933 371.205C476.987 371.205 476.171 370.996 475.485 370.578C474.803 370.156 474.276 369.568 473.906 368.814C473.539 368.055 473.356 367.173 473.356 366.168C473.356 365.162 473.539 364.276 473.906 363.509C474.276 362.737 474.792 362.136 475.453 361.706C476.117 361.271 476.893 361.054 477.779 361.054C478.291 361.054 478.796 361.139 479.294 361.31C479.793 361.48 480.247 361.757 480.656 362.141C481.065 362.52 481.391 363.023 481.634 363.649C481.877 364.276 481.998 365.047 481.998 365.963V366.602H474.43V365.298H480.464C480.464 364.744 480.353 364.25 480.132 363.815C479.914 363.381 479.603 363.038 479.198 362.786C478.798 362.535 478.325 362.409 477.779 362.409C477.178 362.409 476.659 362.558 476.22 362.857C475.785 363.151 475.45 363.534 475.216 364.007C474.982 364.48 474.865 364.987 474.865 365.528V366.398C474.865 367.139 474.992 367.768 475.248 368.283C475.508 368.795 475.868 369.185 476.328 369.453C476.789 369.717 477.323 369.849 477.933 369.849C478.329 369.849 478.687 369.794 479.007 369.683C479.33 369.568 479.61 369.398 479.844 369.172C480.078 368.942 480.259 368.656 480.387 368.315L481.845 368.724C481.691 369.219 481.433 369.653 481.071 370.028C480.709 370.399 480.262 370.689 479.729 370.898C479.196 371.102 478.597 371.205 477.933 371.205ZM484.293 371V361.182H485.75V362.665H485.852C486.031 362.179 486.355 361.785 486.824 361.482C487.293 361.18 487.821 361.028 488.409 361.028C488.52 361.028 488.659 361.031 488.825 361.035C488.991 361.039 489.117 361.045 489.202 361.054V362.588C489.151 362.575 489.034 362.556 488.85 362.531C488.671 362.501 488.482 362.486 488.281 362.486C487.804 362.486 487.378 362.586 487.003 362.786C486.632 362.982 486.338 363.255 486.121 363.604C485.908 363.95 485.801 364.344 485.801 364.787V371H484.293ZM495.875 361.182V362.46H490.787V361.182H495.875ZM492.27 358.83H493.779V368.188C493.779 368.614 493.84 368.933 493.964 369.146C494.092 369.355 494.254 369.496 494.45 369.568C494.65 369.636 494.861 369.67 495.083 369.67C495.249 369.67 495.385 369.662 495.492 369.645C495.598 369.624 495.683 369.607 495.747 369.594L496.054 370.949C495.952 370.987 495.809 371.026 495.626 371.064C495.443 371.107 495.21 371.128 494.929 371.128C494.503 371.128 494.085 371.036 493.676 370.853C493.271 370.67 492.935 370.391 492.666 370.016C492.402 369.641 492.27 369.168 492.27 368.597V358.83ZM504.92 371V372.406H496.738V371H504.92ZM509.778 371.179C509.241 371.17 508.704 371.068 508.167 370.872C507.63 370.676 507.14 370.346 506.697 369.881C506.254 369.413 505.898 368.78 505.629 367.983C505.361 367.182 505.227 366.176 505.227 364.966C505.227 363.807 505.335 362.78 505.553 361.885C505.77 360.986 506.085 360.229 506.499 359.616C506.912 358.998 507.411 358.529 507.994 358.21C508.583 357.89 509.245 357.73 509.982 357.73C510.715 357.73 511.367 357.877 511.938 358.171C512.514 358.461 512.982 358.866 513.345 359.386C513.707 359.906 513.941 360.504 514.048 361.182H512.488C512.343 360.594 512.062 360.106 511.644 359.718C511.227 359.33 510.673 359.136 509.982 359.136C508.968 359.136 508.169 359.577 507.585 360.46C507.006 361.342 506.714 362.58 506.71 364.173H506.812C507.051 363.811 507.334 363.502 507.662 363.246C507.994 362.987 508.361 362.786 508.762 362.646C509.162 362.505 509.586 362.435 510.034 362.435C510.784 362.435 511.47 362.622 512.092 362.997C512.714 363.368 513.213 363.881 513.588 364.538C513.963 365.19 514.15 365.938 514.15 366.781C514.15 367.591 513.969 368.332 513.607 369.006C513.244 369.675 512.735 370.207 512.079 370.604C511.427 370.996 510.66 371.188 509.778 371.179ZM509.778 369.773C510.315 369.773 510.796 369.638 511.222 369.37C511.653 369.102 511.992 368.741 512.239 368.29C512.49 367.838 512.616 367.335 512.616 366.781C512.616 366.24 512.494 365.748 512.252 365.305C512.013 364.857 511.683 364.501 511.261 364.237C510.843 363.973 510.366 363.841 509.829 363.841C509.424 363.841 509.047 363.922 508.698 364.084C508.348 364.241 508.041 364.459 507.777 364.736C507.517 365.013 507.313 365.33 507.164 365.688C507.014 366.042 506.94 366.415 506.94 366.807C506.94 367.327 507.061 367.812 507.304 368.264C507.551 368.716 507.888 369.08 508.314 369.357C508.744 369.634 509.232 369.773 509.778 369.773Z" fill="#1F2A37"/>
<path d="M587.583 186H589.244L595.074 174.392V172.909H586.688V174.315H593.438V174.418L587.583 186ZM597.457 186H605.715V184.594H599.63V184.491L602.57 181.347C604.82 178.937 605.485 177.812 605.485 176.361C605.485 174.341 603.849 172.73 601.548 172.73C599.253 172.73 597.508 174.29 597.508 176.591H599.016C599.016 175.102 599.982 174.111 601.496 174.111C602.915 174.111 604.002 174.98 604.002 176.361C604.002 177.569 603.293 178.464 601.778 180.119L597.457 184.849V186Z" fill="#1F2A37"/>
<path d="M586.365 223H594.623V221.594H588.538V221.491L591.479 218.347C593.729 215.937 594.393 214.812 594.393 213.361C594.393 211.341 592.757 209.73 590.456 209.73C588.161 209.73 586.416 211.29 586.416 213.591H587.925C587.925 212.102 588.89 211.111 590.405 211.111C591.824 211.111 592.91 211.98 592.91 213.361C592.91 214.569 592.201 215.464 590.686 217.119L586.365 221.849V223ZM601.456 223.179C604.071 223.179 605.893 221.651 605.905 219.523C605.893 217.867 604.787 216.461 603.374 216.199V216.122C604.601 215.803 605.407 214.601 605.42 213.207C605.407 211.213 603.732 209.73 601.456 209.73C599.155 209.73 597.481 211.213 597.493 213.207C597.481 214.601 598.286 215.803 599.539 216.122V216.199C598.101 216.461 596.995 217.867 597.008 219.523C596.995 221.651 598.817 223.179 601.456 223.179ZM601.456 221.773C599.66 221.773 598.555 220.852 598.567 219.446C598.555 217.969 599.775 216.915 601.456 216.915C603.112 216.915 604.333 217.969 604.346 219.446C604.333 220.852 603.227 221.773 601.456 221.773ZM601.456 215.56C600.025 215.56 599.015 214.665 599.028 213.31C599.015 211.98 599.986 211.111 601.456 211.111C602.901 211.111 603.873 211.98 603.885 213.31C603.873 214.665 602.863 215.56 601.456 215.56Z" fill="#1F2A37"/>
<path d="M585.548 257.315H591.71V260H593.219V257.315H595.009V255.909H593.219V246.909H591.301L585.548 256.011V257.315ZM591.71 255.909H587.261V255.807L591.608 248.929H591.71V255.909ZM601.495 260.179C603.988 260.179 605.816 258.338 605.816 255.832C605.816 253.295 604.052 251.435 601.648 251.435C600.766 251.435 599.91 251.748 599.373 252.176H599.296L599.756 248.315H605.228V246.909H598.427L597.634 253.352L599.117 253.531C599.66 253.141 600.587 252.86 601.393 252.866C603.061 252.879 604.282 254.145 604.282 255.858C604.282 257.539 603.106 258.773 601.495 258.773C600.153 258.773 599.085 257.91 598.964 256.727H597.43C597.525 258.722 599.245 260.179 601.495 260.179Z" fill="#1F2A37"/>
<path d="M587.424 297H589.086L594.916 285.392V283.909H586.529V285.315H593.279V285.418L587.424 297ZM601.29 283.73C598.631 283.698 596.918 285.699 596.918 288.102C596.918 290.634 598.785 292.449 601.035 292.449C602.39 292.449 603.54 291.784 604.256 290.71H604.358C604.358 293.932 603.106 295.773 601.086 295.773C599.705 295.773 598.861 294.903 598.58 293.702H597.02C597.327 295.773 598.887 297.179 601.086 297.179C604.026 297.179 605.841 294.571 605.841 289.918C605.841 285.111 603.438 283.756 601.29 283.73ZM601.29 285.136C602.927 285.136 604.128 286.543 604.128 288.077C604.128 289.636 602.85 291.043 601.239 291.043C599.628 291.043 598.452 289.739 598.452 288.102C598.452 286.466 599.68 285.136 601.29 285.136Z" fill="#1F2A37"/>
<path d="M585.267 331.315H591.429V334H592.938V331.315H594.727V329.909H592.938V320.909H591.02L585.267 330.011V331.315ZM591.429 329.909H586.98V329.807L591.327 322.929H591.429V329.909ZM601.469 334.179C604.116 334.211 605.841 332.217 605.841 329.781C605.841 327.25 603.969 325.435 601.725 325.435C600.376 325.435 599.219 326.093 598.503 327.173H598.401C598.407 323.984 599.648 322.136 601.674 322.136C603.055 322.136 603.885 323.006 604.18 324.182H605.739C605.42 322.149 603.873 320.73 601.674 320.73C598.727 320.73 596.918 323.338 596.918 327.966C596.918 332.805 599.322 334.153 601.469 334.179ZM601.469 332.773C599.827 332.773 598.625 331.373 598.631 329.807C598.638 328.241 599.897 326.841 601.52 326.841C603.125 326.841 604.307 328.158 604.307 329.781C604.307 331.443 603.074 332.773 601.469 332.773Z" fill="#1F2A37"/>
<path d="M590.085 371.179C592.623 371.179 594.508 369.587 594.508 367.446C594.508 365.784 593.524 364.576 591.875 364.301V364.199C593.198 363.796 594.023 362.71 594.023 361.233C594.023 359.379 592.559 357.73 590.136 357.73C587.873 357.73 585.994 359.124 585.917 361.182H587.452C587.509 359.878 588.749 359.111 590.111 359.111C591.555 359.111 592.488 359.987 592.488 361.31C592.488 362.69 591.408 363.585 589.855 363.585H588.807V364.991H589.855C591.843 364.991 592.949 366.001 592.949 367.446C592.949 368.833 591.741 369.773 590.059 369.773C588.545 369.773 587.343 368.993 587.247 367.727H585.636C585.732 369.786 587.547 371.179 590.085 371.179ZM601.29 357.73C598.631 357.698 596.918 359.699 596.918 362.102C596.918 364.634 598.785 366.449 601.035 366.449C602.39 366.449 603.54 365.784 604.256 364.71H604.358C604.358 367.932 603.106 369.773 601.086 369.773C599.705 369.773 598.861 368.903 598.58 367.702H597.02C597.327 369.773 598.887 371.179 601.086 371.179C604.026 371.179 605.841 368.571 605.841 363.918C605.841 359.111 603.438 357.756 601.29 357.73ZM601.29 359.136C602.927 359.136 604.128 360.543 604.128 362.077C604.128 363.636 602.85 365.043 601.239 365.043C599.628 365.043 598.452 363.739 598.452 362.102C598.452 360.466 599.68 359.136 601.29 359.136Z" fill="#1F2A37"/>
<circle cx="440" cy="180" r="4" fill="#16BDCA"/>
<circle cx="440" cy="217" r="4" fill="#1C64F2"/>
<circle cx="440" cy="254" r="4" fill="#FDBA8C"/>
<circle cx="440" cy="291" r="4" fill="#FACA15"/>
<circle cx="440" cy="328" r="4" fill="#F17EB8"/>
<circle cx="440" cy="365" r="4" fill="#E02424"/>
<rect x="556" y="174" width="1" height="12" fill="#C4C4C4"/>
<rect x="556" y="211" width="1" height="12" fill="#C4C4C4"/>
<rect x="556" y="248" width="1" height="12" fill="#C4C4C4"/>
<rect x="556" y="285" width="1" height="12" fill="#C4C4C4"/>
<rect x="556" y="322" width="1" height="12" fill="#C4C4C4"/>
<rect x="556" y="359" width="1" height="12" fill="#C4C4C4"/>
<path d="M157 154C172.972 154 188.767 157.356 203.359 163.852C217.951 170.347 231.015 179.836 241.705 191.704C252.395 203.572 260.471 217.554 265.411 232.743C270.351 247.932 272.044 263.99 270.38 279.876C268.716 295.761 263.732 311.12 255.752 324.956C247.772 338.792 236.974 350.797 224.057 360.192C211.14 369.587 196.393 376.163 180.772 379.494C165.15 382.825 149.004 382.835 133.378 379.526L143.767 330.477C152.52 332.331 161.566 332.325 170.317 330.459C179.068 328.593 187.329 324.909 194.565 319.646C201.801 314.383 207.851 307.658 212.321 299.907C216.791 292.156 219.583 283.552 220.515 274.653C221.447 265.754 220.499 256.758 217.732 248.249C214.965 239.74 210.44 231.907 204.452 225.259C198.463 218.611 191.145 213.295 182.97 209.656C174.796 206.017 165.948 204.137 157 204.137V154Z" fill="#16BDCA"/>
<path d="M157 154C128.825 154 101.647 164.434 80.7108 183.289C59.7742 202.144 46.5618 228.084 43.6222 256.106L93.4858 261.337C95.1325 245.639 102.534 231.108 114.263 220.545C125.991 209.982 141.216 204.137 157 204.137V154Z" fill="#1C64F2"/>
<path d="M43.6552 255.796C41.1556 279.01 45.8442 302.431 57.0871 322.894L101.029 298.752C94.7305 287.288 92.104 274.168 93.5042 261.163L43.6552 255.796Z" fill="#FDBA8C"/>
<path d="M56.9672 322.676C65.8197 338.872 78.4723 352.676 93.8377 362.903L121.617 321.164C113.009 315.436 105.921 307.702 100.962 298.629L56.9672 322.676Z" fill="#FACA15"/>
<path d="M93.0544 362.377C105.274 370.656 118.986 376.484 133.428 379.536L143.795 330.483C135.705 328.773 128.023 325.508 121.178 320.87L93.0544 362.377Z" fill="#F17EB8"/>
<g filter="url(#filter1_dd_108_16240)">
<path fill-rule="evenodd" clip-rule="evenodd" d="M238.968 217.523C237.043 219.492 233.921 219.492 231.996 217.523L228.742 214.661C227.829 213.858 226.655 213.415 225.439 213.415H186.366C179.632 213.415 177.19 212.859 174.728 211.816C172.266 210.773 170.334 209.243 169.018 207.292C167.701 205.342 167 203.407 167 198.072V159.342C167 154.008 167.701 152.073 169.018 150.123C170.334 148.172 172.266 146.642 174.728 145.599C177.19 144.555 179.632 144 186.366 144L289.634 144C296.368 144 298.81 144.555 301.272 145.599C303.734 146.642 305.666 148.172 306.982 150.123C308.299 152.073 309 154.008 309 159.342V198.072C309 203.407 308.299 205.342 306.982 207.292C305.666 209.243 303.734 210.773 301.272 211.816C298.81 212.859 296.368 213.415 289.634 213.415H247.411C244.98 213.415 242.632 214.301 240.807 215.906L238.968 217.523Z" fill="white"/>
</g>
<path d="M175.982 166H174.294L177.366 157.273H179.318L182.395 166H180.707L178.376 159.062H178.308L175.982 166ZM176.037 162.578H180.639V163.848H176.037V162.578ZM185.019 157.273V166H183.476V157.273H185.019ZM189.503 166.128C188.847 166.128 188.28 165.991 187.803 165.719C187.328 165.443 186.963 165.054 186.707 164.551C186.452 164.045 186.324 163.45 186.324 162.766C186.324 162.092 186.452 161.501 186.707 160.993C186.966 160.482 187.327 160.084 187.79 159.8C188.253 159.513 188.797 159.369 189.422 159.369C189.825 159.369 190.206 159.435 190.564 159.565C190.925 159.693 191.243 159.892 191.518 160.162C191.797 160.432 192.016 160.776 192.175 161.193C192.334 161.608 192.413 162.102 192.413 162.676V163.149H187.048V162.109H190.935C190.932 161.814 190.868 161.551 190.743 161.321C190.618 161.088 190.443 160.905 190.219 160.771C189.997 160.638 189.739 160.571 189.443 160.571C189.128 160.571 188.851 160.648 188.612 160.801C188.374 160.952 188.188 161.151 188.054 161.398C187.923 161.642 187.857 161.911 187.854 162.203V163.111C187.854 163.491 187.923 163.818 188.062 164.091C188.202 164.361 188.396 164.568 188.646 164.713C188.896 164.855 189.189 164.926 189.524 164.926C189.749 164.926 189.952 164.895 190.134 164.832C190.315 164.767 190.473 164.672 190.607 164.547C190.74 164.422 190.841 164.267 190.909 164.082L192.349 164.244C192.259 164.625 192.085 164.957 191.83 165.241C191.577 165.523 191.253 165.741 190.858 165.898C190.463 166.051 190.011 166.128 189.503 166.128ZM193.718 166V159.455H195.214V160.545H195.282C195.402 160.168 195.606 159.876 195.896 159.672C196.189 159.464 196.522 159.361 196.897 159.361C196.983 159.361 197.078 159.365 197.183 159.374C197.291 159.379 197.38 159.389 197.451 159.403V160.822C197.386 160.8 197.282 160.78 197.14 160.763C197.001 160.743 196.866 160.733 196.735 160.733C196.454 160.733 196.201 160.794 195.977 160.916C195.755 161.036 195.581 161.202 195.453 161.415C195.325 161.628 195.261 161.874 195.261 162.152V166H193.718ZM202.096 159.455V160.648H198.333V159.455H202.096ZM199.262 157.886H200.805V164.031C200.805 164.239 200.836 164.398 200.899 164.509C200.964 164.616 201.049 164.69 201.154 164.73C201.26 164.77 201.376 164.79 201.504 164.79C201.6 164.79 201.689 164.783 201.768 164.768C201.85 164.754 201.913 164.741 201.956 164.73L202.216 165.936C202.133 165.964 202.015 165.996 201.862 166.03C201.711 166.064 201.527 166.084 201.308 166.089C200.922 166.101 200.574 166.043 200.264 165.915C199.954 165.784 199.708 165.582 199.527 165.31C199.348 165.037 199.26 164.696 199.262 164.287V157.886ZM208.223 166V167.232H202.585V166H208.223ZM211.232 157.273V166H209.651V158.811H209.599L207.558 160.115V158.666L209.727 157.273H211.232Z" fill="#111928"/>
<path d="M185.412 179.21V178.273H191.957V179.21H189.213V187H188.156V179.21H185.412ZM192.772 187V180.455H193.744V181.443H193.812C193.931 181.119 194.147 180.857 194.46 180.655C194.772 180.453 195.124 180.352 195.516 180.352C195.59 180.352 195.683 180.354 195.793 180.357C195.904 180.359 195.988 180.364 196.045 180.369V181.392C196.011 181.384 195.933 181.371 195.81 181.354C195.691 181.334 195.565 181.324 195.431 181.324C195.113 181.324 194.829 181.391 194.579 181.524C194.332 181.655 194.136 181.837 193.991 182.07C193.849 182.3 193.778 182.562 193.778 182.858V187H192.772ZM199.163 187.153C198.748 187.153 198.372 187.075 198.034 186.919C197.696 186.76 197.427 186.531 197.228 186.233C197.029 185.932 196.93 185.568 196.93 185.142C196.93 184.767 197.004 184.463 197.152 184.23C197.299 183.994 197.497 183.81 197.744 183.676C197.991 183.543 198.264 183.443 198.562 183.378C198.863 183.31 199.166 183.256 199.47 183.216C199.868 183.165 200.19 183.126 200.437 183.101C200.687 183.072 200.869 183.026 200.983 182.96C201.099 182.895 201.157 182.781 201.157 182.619V182.585C201.157 182.165 201.042 181.838 200.812 181.605C200.585 181.372 200.24 181.256 199.777 181.256C199.297 181.256 198.92 181.361 198.647 181.571C198.375 181.781 198.183 182.006 198.072 182.244L197.118 181.903C197.288 181.506 197.515 181.196 197.799 180.974C198.086 180.75 198.399 180.594 198.737 180.506C199.078 180.415 199.413 180.369 199.743 180.369C199.953 180.369 200.194 180.395 200.467 180.446C200.743 180.494 201.008 180.595 201.264 180.749C201.522 180.902 201.737 181.134 201.907 181.443C202.078 181.753 202.163 182.168 202.163 182.688V187H201.157V186.114H201.106C201.038 186.256 200.924 186.408 200.765 186.57C200.606 186.732 200.395 186.869 200.13 186.983C199.866 187.097 199.544 187.153 199.163 187.153ZM199.316 186.25C199.714 186.25 200.049 186.172 200.322 186.016C200.598 185.859 200.805 185.658 200.944 185.411C201.086 185.163 201.157 184.903 201.157 184.631V183.71C201.115 183.761 201.021 183.808 200.876 183.851C200.734 183.891 200.569 183.926 200.382 183.957C200.197 183.986 200.017 184.011 199.841 184.034C199.667 184.054 199.527 184.071 199.419 184.085C199.157 184.119 198.913 184.175 198.686 184.251C198.461 184.325 198.279 184.437 198.14 184.588C198.004 184.736 197.936 184.937 197.936 185.193C197.936 185.543 198.065 185.807 198.324 185.986C198.585 186.162 198.916 186.25 199.316 186.25ZM206.913 180.455V181.307H203.385V180.455H206.913ZM204.442 187V179.551C204.442 179.176 204.53 178.864 204.706 178.614C204.882 178.364 205.111 178.176 205.392 178.051C205.673 177.926 205.97 177.864 206.283 177.864C206.53 177.864 206.732 177.884 206.888 177.923C207.044 177.963 207.161 178 207.237 178.034L206.947 178.903C206.896 178.886 206.825 178.865 206.734 178.839C206.646 178.814 206.53 178.801 206.385 178.801C206.053 178.801 205.813 178.885 205.665 179.053C205.52 179.22 205.447 179.466 205.447 179.79V187H204.442ZM211.238 180.455V181.307H207.709V180.455H211.238ZM208.766 187V179.551C208.766 179.176 208.854 178.864 209.03 178.614C209.206 178.364 209.435 178.176 209.716 178.051C209.998 177.926 210.294 177.864 210.607 177.864C210.854 177.864 211.056 177.884 211.212 177.923C211.368 177.963 211.485 178 211.561 178.034L211.272 178.903C211.221 178.886 211.15 178.865 211.059 178.839C210.971 178.814 210.854 178.801 210.709 178.801C210.377 178.801 210.137 178.885 209.989 179.053C209.844 179.22 209.772 179.466 209.772 179.79V187H208.766ZM212.647 187V180.455H213.653V187H212.647ZM213.158 179.364C212.962 179.364 212.793 179.297 212.651 179.163C212.512 179.03 212.442 178.869 212.442 178.682C212.442 178.494 212.512 178.334 212.651 178.2C212.793 178.067 212.962 178 213.158 178C213.354 178 213.522 178.067 213.661 178.2C213.803 178.334 213.874 178.494 213.874 178.682C213.874 178.869 213.803 179.03 213.661 179.163C213.522 179.297 213.354 179.364 213.158 179.364ZM218.154 187.136C217.54 187.136 217.012 186.991 216.569 186.702C216.125 186.412 215.784 186.013 215.546 185.504C215.307 184.996 215.188 184.415 215.188 183.761C215.188 183.097 215.31 182.51 215.554 182.001C215.801 181.49 216.145 181.091 216.586 180.804C217.029 180.514 217.546 180.369 218.137 180.369C218.597 180.369 219.012 180.455 219.381 180.625C219.75 180.795 220.053 181.034 220.289 181.341C220.525 181.648 220.671 182.006 220.728 182.415H219.722C219.645 182.116 219.475 181.852 219.211 181.622C218.949 181.389 218.597 181.273 218.154 181.273C217.762 181.273 217.418 181.375 217.123 181.58C216.83 181.781 216.601 182.067 216.436 182.436C216.275 182.803 216.194 183.233 216.194 183.727C216.194 184.233 216.273 184.673 216.432 185.048C216.594 185.423 216.821 185.714 217.114 185.922C217.409 186.129 217.756 186.233 218.154 186.233C218.415 186.233 218.652 186.188 218.865 186.097C219.078 186.006 219.259 185.875 219.407 185.705C219.554 185.534 219.659 185.33 219.722 185.091H220.728C220.671 185.477 220.53 185.825 220.306 186.135C220.084 186.442 219.79 186.686 219.424 186.868C219.06 187.047 218.637 187.136 218.154 187.136ZM222.931 187.068C222.721 187.068 222.54 186.993 222.39 186.842C222.239 186.692 222.164 186.511 222.164 186.301C222.164 186.091 222.239 185.911 222.39 185.76C222.54 185.609 222.721 185.534 222.931 185.534C223.141 185.534 223.321 185.609 223.472 185.76C223.623 185.911 223.698 186.091 223.698 186.301C223.698 186.44 223.662 186.568 223.591 186.685C223.523 186.801 223.431 186.895 223.314 186.966C223.201 187.034 223.073 187.068 222.931 187.068ZM222.931 182.21C222.721 182.21 222.54 182.135 222.39 181.984C222.239 181.834 222.164 181.653 222.164 181.443C222.164 181.233 222.239 181.053 222.39 180.902C222.54 180.751 222.721 180.676 222.931 180.676C223.141 180.676 223.321 180.751 223.472 180.902C223.623 181.053 223.698 181.233 223.698 181.443C223.698 181.582 223.662 181.71 223.591 181.827C223.523 181.943 223.431 182.037 223.314 182.108C223.201 182.176 223.073 182.21 222.931 182.21Z" fill="#6B7280"/>
<path d="M229.052 187L232.764 179.653V179.594H228.456V178.273H234.4V179.624L230.693 187H229.052ZM235.776 187V185.858L238.805 182.888C239.095 182.595 239.337 182.335 239.53 182.108C239.723 181.881 239.868 181.661 239.964 181.447C240.061 181.234 240.109 181.007 240.109 180.766C240.109 180.49 240.047 180.254 239.922 180.058C239.797 179.859 239.625 179.706 239.406 179.598C239.188 179.49 238.939 179.436 238.661 179.436C238.374 179.436 238.122 179.496 237.906 179.615C237.69 179.732 237.523 179.898 237.403 180.114C237.287 180.33 237.229 180.587 237.229 180.885H235.724C235.724 180.331 235.851 179.849 236.104 179.44C236.357 179.031 236.705 178.714 237.148 178.49C237.594 178.266 238.105 178.153 238.682 178.153C239.267 178.153 239.781 178.263 240.224 178.482C240.668 178.7 241.011 179 241.256 179.381C241.503 179.761 241.626 180.196 241.626 180.685C241.626 181.011 241.564 181.332 241.439 181.648C241.314 181.963 241.094 182.312 240.778 182.696C240.466 183.08 240.027 183.544 239.462 184.089L237.957 185.619V185.679H241.759V187H235.776ZM247.895 185.364V184.903C247.895 184.565 247.966 184.254 248.108 183.97C248.253 183.686 248.463 183.457 248.739 183.284C249.014 183.111 249.348 183.024 249.74 183.024C250.143 183.024 250.482 183.111 250.754 183.284C251.027 183.455 251.233 183.682 251.372 183.966C251.514 184.25 251.585 184.562 251.585 184.903V185.364C251.585 185.702 251.514 186.013 251.372 186.297C251.23 186.581 251.021 186.81 250.746 186.983C250.473 187.156 250.138 187.243 249.74 187.243C249.342 187.243 249.006 187.156 248.73 186.983C248.455 186.81 248.246 186.581 248.104 186.297C247.964 186.013 247.895 185.702 247.895 185.364ZM249.007 184.903V185.364C249.007 185.588 249.061 185.794 249.169 185.982C249.277 186.169 249.467 186.263 249.74 186.263C250.016 186.263 250.205 186.17 250.307 185.986C250.412 185.798 250.464 185.591 250.464 185.364V184.903C250.464 184.676 250.415 184.469 250.315 184.281C250.216 184.091 250.024 183.996 249.74 183.996C249.473 183.996 249.284 184.091 249.173 184.281C249.063 184.469 249.007 184.676 249.007 184.903ZM243.459 180.369V179.909C243.459 179.568 243.531 179.256 243.676 178.972C243.821 178.687 244.031 178.46 244.307 178.29C244.582 178.116 244.916 178.03 245.308 178.03C245.709 178.03 246.045 178.116 246.318 178.29C246.594 178.46 246.801 178.687 246.94 178.972C247.08 179.256 247.149 179.568 247.149 179.909V180.369C247.149 180.71 247.078 181.023 246.936 181.307C246.797 181.588 246.589 181.814 246.314 181.984C246.038 182.155 245.703 182.24 245.308 182.24C244.908 182.24 244.57 182.155 244.294 181.984C244.021 181.814 243.814 181.587 243.672 181.303C243.53 181.018 243.459 180.707 243.459 180.369ZM244.58 179.909V180.369C244.58 180.597 244.632 180.804 244.737 180.991C244.845 181.176 245.036 181.268 245.308 181.268C245.581 181.268 245.768 181.176 245.871 180.991C245.976 180.804 246.028 180.597 246.028 180.369V179.909C246.028 179.682 245.979 179.474 245.879 179.287C245.78 179.097 245.589 179.001 245.308 179.001C245.038 179.001 244.849 179.097 244.741 179.287C244.634 179.477 244.58 179.685 244.58 179.909ZM243.945 187L249.945 178.273H251.01L245.01 187H243.945Z" fill="#111928"/>
<rect x="173.602" y="179" width="8" height="8" rx="4" fill="#16BDCA"/>
<path d="M283 45V49M283 53H283.01M292 49C292 50.1819 291.767 51.3522 291.315 52.4442C290.863 53.5361 290.2 54.5282 289.364 55.364C288.528 56.1997 287.536 56.8626 286.444 57.3149C285.352 57.7672 284.182 58 283 58C281.818 58 280.648 57.7672 279.556 57.3149C278.464 56.8626 277.472 56.1997 276.636 55.364C275.8 54.5282 275.137 53.5361 274.685 52.4442C274.233 51.3522 274 50.1819 274 49C274 46.6131 274.948 44.3239 276.636 42.636C278.324 40.9482 280.613 40 283 40C285.387 40 287.676 40.9482 289.364 42.636C291.052 44.3239 292 46.6131 292 49Z" stroke="#9CA3AF" stroke-width="2" stroke-linecap="round" stroke-linejoin="round"/>
<defs>
<filter id="filter0_dd_108_16240" x="0" y="0" width="667" height="446" filterUnits="userSpaceOnUse" color-interpolation-filters="sRGB">
<feFlood flood-opacity="0" result="BackgroundImageFix"/>
<feColorMatrix in="SourceAlpha" type="matrix" values="0 0 0 0 0 0 0 0 0 0 0 0 0 0 0 0 0 0 127 0" result="hardAlpha"/>
<feOffset dy="1"/>
<feGaussianBlur stdDeviation="1.5"/>
<feColorMatrix type="matrix" values="0 0 0 0 0 0 0 0 0 0 0 0 0 0 0 0 0 0 0.1 0"/>
<feBlend mode="normal" in2="BackgroundImageFix" result="effect1_dropShadow_108_16240"/>
<feColorMatrix in="SourceAlpha" type="matrix" values="0 0 0 0 0 0 0 0 0 0 0 0 0 0 0 0 0 0 127 0" result="hardAlpha"/>
<feOffset dy="1"/>
<feGaussianBlur stdDeviation="1"/>
<feColorMatrix type="matrix" values="0 0 0 0 0 0 0 0 0 0 0 0 0 0 0 0 0 0 0.06 0"/>
<feBlend mode="normal" in2="effect1_dropShadow_108_16240" result="effect2_dropShadow_108_16240"/>
<feBlend mode="normal" in="SourceGraphic" in2="effect2_dropShadow_108_16240" result="shape"/>
</filter>
<filter id="filter1_dd_108_16240" x="164" y="142" width="148" height="81" filterUnits="userSpaceOnUse" color-interpolation-filters="sRGB">
<feFlood flood-opacity="0" result="BackgroundImageFix"/>
<feColorMatrix in="SourceAlpha" type="matrix" values="0 0 0 0 0 0 0 0 0 0 0 0 0 0 0 0 0 0 127 0" result="hardAlpha"/>
<feOffset dy="1"/>
<feGaussianBlur stdDeviation="1.5"/>
<feColorMatrix type="matrix" values="0 0 0 0 0 0 0 0 0 0 0 0 0 0 0 0 0 0 0.1 0"/>
<feBlend mode="normal" in2="BackgroundImageFix" result="effect1_dropShadow_108_16240"/>
<feColorMatrix in="SourceAlpha" type="matrix" values="0 0 0 0 0 0 0 0 0 0 0 0 0 0 0 0 0 0 127 0" result="hardAlpha"/>
<feOffset dy="1"/>
<feGaussianBlur stdDeviation="1"/>
<feColorMatrix type="matrix" values="0 0 0 0 0 0 0 0 0 0 0 0 0 0 0 0 0 0 0.06 0"/>
<feBlend mode="normal" in2="effect1_dropShadow_108_16240" result="effect2_dropShadow_108_16240"/>
<feBlend mode="normal" in="SourceGraphic" in2="effect2_dropShadow_108_16240" result="shape"/>
</filter>
</defs>
</svg>
