
<svg width="668" height="446" viewBox="0 0 668 446" fill="none" xmlns="http://www.w3.org/2000/svg">
<g filter="url(#filter0_dd_108_16241)">
<rect x="3" y="2" width="662" height="440" rx="16" fill="white"/>
</g>
<path d="M32.657 59H27.7138L35.2457 37.1818H41.1903L48.7116 59H43.7685L38.3033 42.1676H38.1328L32.657 59ZM32.348 50.424H44.0241V54.0249H32.348V50.424ZM55.7908 37.1818V59H51.2525V37.1818H55.7908ZM66.8837 59.3196C65.2005 59.3196 63.7516 58.9787 62.5371 58.2969C61.3297 57.608 60.3993 56.6349 59.7459 55.3778C59.0925 54.1136 58.7658 52.6186 58.7658 50.8928C58.7658 49.2095 59.0925 47.7322 59.7459 46.4609C60.3993 45.1896 61.3191 44.1989 62.5051 43.4886C63.6983 42.7784 65.0975 42.4233 66.7026 42.4233C67.7821 42.4233 68.7871 42.5973 69.7175 42.9453C70.655 43.2862 71.4718 43.8011 72.1678 44.4901C72.8709 45.179 73.4178 46.0455 73.8084 47.0895C74.199 48.1264 74.3944 49.3409 74.3944 50.733V51.9794H60.5769V49.1669H70.1223C70.1223 48.5135 69.9803 47.9347 69.6962 47.4304C69.4121 46.9261 69.0179 46.532 68.5137 46.2479C68.0165 45.9567 67.4377 45.8111 66.7772 45.8111C66.0882 45.8111 65.4775 45.9709 64.9448 46.2905C64.4192 46.603 64.0073 47.0256 63.709 47.5582C63.4107 48.0838 63.258 48.6697 63.2509 49.3161V51.9901C63.2509 52.7997 63.4 53.4993 63.6983 54.0888C64.0037 54.6783 64.4334 55.1328 64.9874 55.4524C65.5414 55.772 66.1983 55.9318 66.9583 55.9318C67.4625 55.9318 67.9242 55.8608 68.3432 55.7188C68.7623 55.5767 69.1209 55.3636 69.4192 55.0795C69.7175 54.7955 69.9448 54.4474 70.101 54.0355L74.2985 54.3125C74.0854 55.321 73.6486 56.2017 72.9881 56.9545C72.3347 57.7003 71.4895 58.2827 70.4526 58.7017C69.4228 59.1136 68.2331 59.3196 66.8837 59.3196ZM77.356 59V42.6364H81.7559V45.4915H81.9263C82.2246 44.4759 82.7253 43.7088 83.4284 43.1903C84.1316 42.6648 84.9412 42.402 85.8574 42.402C86.0847 42.402 86.3297 42.4162 86.5925 42.4446C86.8553 42.473 87.0861 42.5121 87.285 42.5618V46.5888C87.0719 46.5249 86.7772 46.468 86.4007 46.4183C86.0243 46.3686 85.6799 46.3438 85.3674 46.3438C84.6998 46.3438 84.1032 46.4893 83.5776 46.7805C83.0591 47.0646 82.6472 47.4624 82.3418 47.9737C82.0435 48.4851 81.8944 49.0746 81.8944 49.7422V59H77.356ZM99.1555 42.6364V46.0455H89.3011V42.6364H99.1555ZM91.5384 38.7159H96.0767V53.9716C96.0767 54.3906 96.1406 54.7173 96.2685 54.9517C96.3963 55.179 96.5739 55.3388 96.8011 55.4311C97.0355 55.5234 97.3054 55.5696 97.6108 55.5696C97.8239 55.5696 98.0369 55.5518 98.25 55.5163C98.4631 55.4737 98.6264 55.4418 98.7401 55.4205L99.4538 58.7976C99.2266 58.8686 98.907 58.9503 98.495 59.0426C98.0831 59.142 97.5824 59.2024 96.9929 59.2237C95.8991 59.2663 94.9403 59.1207 94.1165 58.7869C93.2997 58.4531 92.6641 57.9347 92.2095 57.2315C91.755 56.5284 91.5313 55.6406 91.5384 54.5682V38.7159ZM127.39 37.1818V59H123.405L113.913 45.2678H113.753V59H109.14V37.1818H113.189L122.606 50.9034H122.798V37.1818H127.39ZM138.509 59.3196C136.854 59.3196 135.423 58.968 134.216 58.2649C133.016 57.5547 132.089 56.5675 131.435 55.3033C130.782 54.032 130.455 52.5582 130.455 50.8821C130.455 49.1918 130.782 47.7145 131.435 46.4503C132.089 45.179 133.016 44.1918 134.216 43.4886C135.423 42.7784 136.854 42.4233 138.509 42.4233C140.164 42.4233 141.592 42.7784 142.792 43.4886C143.999 44.1918 144.93 45.179 145.583 46.4503C146.237 47.7145 146.563 49.1918 146.563 50.8821C146.563 52.5582 146.237 54.032 145.583 55.3033C144.93 56.5675 143.999 57.5547 142.792 58.2649C141.592 58.968 140.164 59.3196 138.509 59.3196ZM138.531 55.804C139.283 55.804 139.912 55.5909 140.416 55.1648C140.92 54.7315 141.3 54.142 141.556 53.3963C141.819 52.6506 141.95 51.8018 141.95 50.8501C141.95 49.8984 141.819 49.0497 141.556 48.304C141.3 47.5582 140.92 46.9687 140.416 46.5355C139.912 46.1023 139.283 45.8857 138.531 45.8857C137.771 45.8857 137.131 46.1023 136.613 46.5355C136.102 46.9687 135.714 47.5582 135.452 48.304C135.196 49.0497 135.068 49.8984 135.068 50.8501C135.068 51.8018 135.196 52.6506 135.452 53.3963C135.714 54.142 136.102 54.7315 136.613 55.1648C137.131 55.5909 137.771 55.804 138.531 55.804ZM158.218 42.6364V46.0455H148.364V42.6364H158.218ZM150.601 38.7159H155.139V53.9716C155.139 54.3906 155.203 54.7173 155.331 54.9517C155.459 55.179 155.636 55.3388 155.864 55.4311C156.098 55.5234 156.368 55.5696 156.673 55.5696C156.886 55.5696 157.099 55.5518 157.312 55.5163C157.526 55.4737 157.689 55.4418 157.803 55.4205L158.516 58.7976C158.289 58.8686 157.969 58.9503 157.558 59.0426C157.146 59.142 156.645 59.2024 156.055 59.2237C154.962 59.2663 154.003 59.1207 153.179 58.7869C152.362 58.4531 151.727 57.9347 151.272 57.2315C150.817 56.5284 150.594 55.6406 150.601 54.5682V38.7159ZM161.174 59V42.6364H165.713V59H161.174ZM163.454 40.527C162.779 40.527 162.201 40.3033 161.718 39.8558C161.242 39.4013 161.004 38.858 161.004 38.2259C161.004 37.6009 161.242 37.0646 161.718 36.6172C162.201 36.1626 162.779 35.9354 163.454 35.9354C164.129 35.9354 164.704 36.1626 165.18 36.6172C165.663 37.0646 165.904 37.6009 165.904 38.2259C165.904 38.858 165.663 39.4013 165.18 39.8558C164.704 40.3033 164.129 40.527 163.454 40.527ZM178.148 42.6364V46.0455H168.048V42.6364H178.148ZM170.36 59V41.4538C170.36 40.2678 170.591 39.2841 171.053 38.5028C171.521 37.7216 172.161 37.1357 172.97 36.745C173.78 36.3544 174.7 36.1591 175.73 36.1591C176.426 36.1591 177.061 36.2124 177.637 36.3189C178.219 36.4254 178.652 36.5213 178.936 36.6065L178.127 40.0156C177.949 39.9588 177.729 39.9055 177.466 39.8558C177.21 39.8061 176.948 39.7812 176.678 39.7812C176.01 39.7812 175.545 39.9375 175.282 40.25C175.019 40.5554 174.888 40.9851 174.888 41.5391V59H170.36ZM180.92 59V42.6364H185.459V59H180.92ZM183.2 40.527C182.526 40.527 181.947 40.3033 181.464 39.8558C180.988 39.4013 180.75 38.858 180.75 38.2259C180.75 37.6009 180.988 37.0646 181.464 36.6172C181.947 36.1626 182.526 35.9354 183.2 35.9354C183.875 35.9354 184.45 36.1626 184.926 36.6172C185.409 37.0646 185.651 37.6009 185.651 38.2259C185.651 38.858 185.409 39.4013 184.926 39.8558C184.45 40.3033 183.875 40.527 183.2 40.527ZM196.488 59.3196C194.812 59.3196 193.37 58.9645 192.162 58.2543C190.962 57.5369 190.039 56.5426 189.393 55.2713C188.753 54 188.434 52.5369 188.434 50.8821C188.434 49.206 188.757 47.7358 189.403 46.4716C190.057 45.2003 190.983 44.2095 192.184 43.4993C193.384 42.782 194.812 42.4233 196.466 42.4233C197.894 42.4233 199.144 42.6825 200.216 43.201C201.289 43.7195 202.138 44.4474 202.763 45.3849C203.388 46.3224 203.732 47.4233 203.796 48.6875H199.513C199.393 47.8707 199.073 47.2138 198.555 46.7166C198.043 46.2124 197.372 45.9602 196.541 45.9602C195.838 45.9602 195.224 46.152 194.698 46.5355C194.18 46.9119 193.775 47.4624 193.483 48.1868C193.192 48.9112 193.047 49.7884 193.047 50.8182C193.047 51.8622 193.189 52.75 193.473 53.4815C193.764 54.2131 194.172 54.7706 194.698 55.1541C195.224 55.5376 195.838 55.7294 196.541 55.7294C197.059 55.7294 197.525 55.6229 197.937 55.4098C198.356 55.1967 198.7 54.8878 198.97 54.483C199.247 54.071 199.428 53.5774 199.513 53.0021H203.796C203.725 54.2521 203.384 55.353 202.773 56.3047C202.17 57.2493 201.335 57.9879 200.27 58.5206C199.204 59.0533 197.944 59.3196 196.488 59.3196ZM211.368 59.3089C210.324 59.3089 209.393 59.1278 208.577 58.7656C207.76 58.3963 207.114 57.853 206.638 57.1357C206.169 56.4112 205.935 55.5092 205.935 54.4297C205.935 53.5206 206.102 52.7571 206.435 52.1392C206.769 51.5213 207.224 51.0241 207.799 50.6477C208.374 50.2713 209.028 49.9872 209.759 49.7955C210.498 49.6037 211.272 49.4688 212.082 49.3906C213.033 49.2912 213.8 49.1989 214.383 49.1136C214.965 49.0213 215.388 48.8864 215.651 48.7088C215.913 48.5312 216.045 48.2685 216.045 47.9205V47.8565C216.045 47.1818 215.832 46.6598 215.406 46.2905C214.987 45.9212 214.39 45.7365 213.616 45.7365C212.799 45.7365 212.149 45.9176 211.666 46.2798C211.183 46.6349 210.864 47.0824 210.707 47.6222L206.51 47.2812C206.723 46.2869 207.142 45.4276 207.767 44.7031C208.392 43.9716 209.198 43.4105 210.185 43.0199C211.18 42.6222 212.33 42.4233 213.637 42.4233C214.546 42.4233 215.416 42.5298 216.247 42.7429C217.085 42.956 217.827 43.2862 218.474 43.7337C219.127 44.1811 219.642 44.7564 220.018 45.4595C220.395 46.1555 220.583 46.9901 220.583 47.9631V59H216.279V56.7308H216.151C215.888 57.2422 215.537 57.6932 215.097 58.0838C214.656 58.4673 214.127 58.7692 213.509 58.9893C212.891 59.2024 212.178 59.3089 211.368 59.3089ZM212.668 56.1768C213.335 56.1768 213.925 56.0455 214.436 55.7827C214.947 55.5128 215.349 55.1506 215.64 54.696C215.931 54.2415 216.077 53.7266 216.077 53.1513V51.4148C215.935 51.5071 215.739 51.5923 215.491 51.6705C215.249 51.7415 214.976 51.8089 214.67 51.8729C214.365 51.9297 214.06 51.983 213.754 52.0327C213.449 52.0753 213.172 52.1143 212.923 52.1499C212.391 52.228 211.925 52.3523 211.528 52.5227C211.13 52.6932 210.821 52.924 210.601 53.2152C210.381 53.4993 210.271 53.8544 210.271 54.2805C210.271 54.8984 210.494 55.3707 210.942 55.6974C211.396 56.017 211.972 56.1768 212.668 56.1768ZM232.808 42.6364V46.0455H222.953V42.6364H232.808ZM225.191 38.7159H229.729V53.9716C229.729 54.3906 229.793 54.7173 229.921 54.9517C230.049 55.179 230.226 55.3388 230.453 55.4311C230.688 55.5234 230.958 55.5696 231.263 55.5696C231.476 55.5696 231.689 55.5518 231.902 55.5163C232.115 55.4737 232.279 55.4418 232.392 55.4205L233.106 58.7976C232.879 58.8686 232.559 58.9503 232.147 59.0426C231.735 59.142 231.235 59.2024 230.645 59.2237C229.551 59.2663 228.593 59.1207 227.769 58.7869C226.952 58.4531 226.316 57.9347 225.862 57.2315C225.407 56.5284 225.184 55.6406 225.191 54.5682V38.7159ZM235.764 59V42.6364H240.303V59H235.764ZM238.044 40.527C237.369 40.527 236.79 40.3033 236.308 39.8558C235.832 39.4013 235.594 38.858 235.594 38.2259C235.594 37.6009 235.832 37.0646 236.308 36.6172C236.79 36.1626 237.369 35.9354 238.044 35.9354C238.719 35.9354 239.294 36.1626 239.77 36.6172C240.253 37.0646 240.494 37.6009 240.494 38.2259C240.494 38.858 240.253 39.4013 239.77 39.8558C239.294 40.3033 238.719 40.527 238.044 40.527ZM251.331 59.3196C249.677 59.3196 248.246 58.968 247.038 58.2649C245.838 57.5547 244.911 56.5675 244.258 55.3033C243.604 54.032 243.278 52.5582 243.278 50.8821C243.278 49.1918 243.604 47.7145 244.258 46.4503C244.911 45.179 245.838 44.1918 247.038 43.4886C248.246 42.7784 249.677 42.4233 251.331 42.4233C252.986 42.4233 254.414 42.7784 255.614 43.4886C256.822 44.1918 257.752 45.179 258.405 46.4503C259.059 47.7145 259.385 49.1918 259.385 50.8821C259.385 52.5582 259.059 54.032 258.405 55.3033C257.752 56.5675 256.822 57.5547 255.614 58.2649C254.414 58.968 252.986 59.3196 251.331 59.3196ZM251.353 55.804C252.106 55.804 252.734 55.5909 253.238 55.1648C253.743 54.7315 254.123 54.142 254.378 53.3963C254.641 52.6506 254.773 51.8018 254.773 50.8501C254.773 49.8984 254.641 49.0497 254.378 48.304C254.123 47.5582 253.743 46.9687 253.238 46.5355C252.734 46.1023 252.106 45.8857 251.353 45.8857C250.593 45.8857 249.954 46.1023 249.435 46.5355C248.924 46.9687 248.537 47.5582 248.274 48.304C248.018 49.0497 247.89 49.8984 247.89 50.8501C247.89 51.8018 248.018 52.6506 248.274 53.3963C248.537 54.142 248.924 54.7315 249.435 55.1648C249.954 55.5909 250.593 55.804 251.353 55.804ZM266.875 49.5398V59H262.336V42.6364H266.662V45.5234H266.854C267.216 44.5717 267.823 43.8189 268.675 43.2649C269.528 42.7038 270.561 42.4233 271.775 42.4233C272.912 42.4233 273.903 42.6719 274.748 43.169C275.593 43.6662 276.25 44.3764 276.719 45.2997C277.187 46.2159 277.422 47.3097 277.422 48.581V59H272.883V49.3906C272.89 48.3892 272.635 47.608 272.116 47.0469C271.598 46.4787 270.884 46.1946 269.975 46.1946C269.364 46.1946 268.824 46.326 268.356 46.5888C267.894 46.8516 267.532 47.2351 267.269 47.7393C267.013 48.2365 266.882 48.8366 266.875 49.5398ZM294.614 47.3026L290.459 47.5582C290.388 47.2031 290.235 46.8835 290.001 46.5994C289.766 46.3082 289.457 46.0774 289.074 45.907C288.697 45.7294 288.246 45.6406 287.721 45.6406C287.018 45.6406 286.425 45.7898 285.942 46.0881C285.459 46.3793 285.217 46.7699 285.217 47.2599C285.217 47.6506 285.374 47.9808 285.686 48.2507C285.999 48.5206 286.535 48.7372 287.295 48.9006L290.256 49.4972C291.847 49.8239 293.033 50.3494 293.815 51.0739C294.596 51.7983 294.987 52.75 294.987 53.929C294.987 55.0014 294.67 55.9425 294.038 56.7521C293.413 57.5618 292.554 58.1939 291.46 58.6484C290.374 59.0959 289.12 59.3196 287.7 59.3196C285.533 59.3196 283.808 58.8686 282.522 57.9666C281.244 57.0575 280.494 55.8217 280.274 54.2592L284.738 54.0249C284.873 54.6854 285.2 55.1896 285.718 55.5376C286.237 55.8786 286.901 56.049 287.71 56.049C288.506 56.049 289.145 55.8963 289.628 55.5909C290.118 55.2784 290.366 54.8771 290.374 54.3871C290.366 53.9751 290.192 53.6378 289.852 53.375C289.511 53.1051 288.985 52.8991 288.275 52.7571L285.441 52.1925C283.843 51.8729 282.653 51.3189 281.872 50.5305C281.098 49.7422 280.711 48.7372 280.711 47.5156C280.711 46.4645 280.995 45.5589 281.563 44.799C282.138 44.0391 282.945 43.4531 283.982 43.0412C285.026 42.6293 286.247 42.4233 287.646 42.4233C289.713 42.4233 291.339 42.8601 292.526 43.7337C293.719 44.6072 294.415 45.7969 294.614 47.3026Z" fill="#111928"/>
<path d="M106.605 246.21V245.273H113.15V246.21H110.406V254H109.349V246.21H106.605ZM116.355 254.136C115.764 254.136 115.246 253.996 114.8 253.714C114.356 253.433 114.01 253.04 113.76 252.534C113.513 252.028 113.389 251.437 113.389 250.761C113.389 250.08 113.513 249.484 113.76 248.976C114.01 248.467 114.356 248.072 114.8 247.791C115.246 247.51 115.764 247.369 116.355 247.369C116.946 247.369 117.463 247.51 117.906 247.791C118.352 248.072 118.699 248.467 118.946 248.976C119.196 249.484 119.321 250.08 119.321 250.761C119.321 251.437 119.196 252.028 118.946 252.534C118.699 253.04 118.352 253.433 117.906 253.714C117.463 253.996 116.946 254.136 116.355 254.136ZM116.355 253.233C116.804 253.233 117.173 253.118 117.463 252.888C117.753 252.658 117.967 252.355 118.106 251.98C118.246 251.605 118.315 251.199 118.315 250.761C118.315 250.324 118.246 249.916 118.106 249.538C117.967 249.161 117.753 248.855 117.463 248.622C117.173 248.389 116.804 248.273 116.355 248.273C115.906 248.273 115.537 248.389 115.247 248.622C114.957 248.855 114.743 249.161 114.604 249.538C114.464 249.916 114.395 250.324 114.395 250.761C114.395 251.199 114.464 251.605 114.604 251.98C114.743 252.355 114.957 252.658 115.247 252.888C115.537 253.118 115.906 253.233 116.355 253.233ZM123.703 247.455V248.307H120.311V247.455H123.703ZM121.299 245.886H122.305V252.125C122.305 252.409 122.346 252.622 122.428 252.764C122.514 252.903 122.622 252.997 122.752 253.045C122.886 253.091 123.026 253.114 123.174 253.114C123.285 253.114 123.376 253.108 123.447 253.097C123.518 253.082 123.575 253.071 123.617 253.062L123.822 253.966C123.754 253.991 123.659 254.017 123.536 254.043C123.414 254.071 123.259 254.085 123.072 254.085C122.788 254.085 122.509 254.024 122.237 253.902C121.967 253.78 121.742 253.594 121.563 253.344C121.387 253.094 121.299 252.778 121.299 252.398V245.886ZM127.142 254.153C126.727 254.153 126.35 254.075 126.012 253.919C125.674 253.76 125.406 253.531 125.207 253.233C125.008 252.932 124.909 252.568 124.909 252.142C124.909 251.767 124.982 251.463 125.13 251.23C125.278 250.994 125.475 250.81 125.722 250.676C125.97 250.543 126.242 250.443 126.541 250.378C126.842 250.31 127.144 250.256 127.448 250.216C127.846 250.165 128.169 250.126 128.416 250.101C128.666 250.072 128.847 250.026 128.961 249.96C129.078 249.895 129.136 249.781 129.136 249.619V249.585C129.136 249.165 129.021 248.838 128.791 248.605C128.563 248.372 128.218 248.256 127.755 248.256C127.275 248.256 126.899 248.361 126.626 248.571C126.353 248.781 126.161 249.006 126.051 249.244L125.096 248.903C125.267 248.506 125.494 248.196 125.778 247.974C126.065 247.75 126.377 247.594 126.715 247.506C127.056 247.415 127.392 247.369 127.721 247.369C127.931 247.369 128.173 247.395 128.445 247.446C128.721 247.494 128.987 247.595 129.242 247.749C129.501 247.902 129.715 248.134 129.886 248.443C130.056 248.753 130.142 249.168 130.142 249.688V254H129.136V253.114H129.085C129.017 253.256 128.903 253.408 128.744 253.57C128.585 253.732 128.373 253.869 128.109 253.983C127.845 254.097 127.522 254.153 127.142 254.153ZM127.295 253.25C127.693 253.25 128.028 253.172 128.301 253.016C128.576 252.859 128.784 252.658 128.923 252.411C129.065 252.163 129.136 251.903 129.136 251.631V250.71C129.093 250.761 128.999 250.808 128.855 250.851C128.713 250.891 128.548 250.926 128.36 250.957C128.176 250.986 127.995 251.011 127.819 251.034C127.646 251.054 127.505 251.071 127.397 251.085C127.136 251.119 126.892 251.175 126.664 251.251C126.44 251.325 126.258 251.437 126.119 251.588C125.982 251.736 125.914 251.937 125.914 252.193C125.914 252.543 126.044 252.807 126.302 252.986C126.563 253.162 126.894 253.25 127.295 253.25ZM132.983 245.273V254H131.977V245.273H132.983ZM145.257 245.273V254H144.234L139.478 247.148H139.393V254H138.336V245.273H139.359L144.132 252.142H144.217V245.273H145.257ZM149.894 254.136C149.303 254.136 148.785 253.996 148.339 253.714C147.895 253.433 147.549 253.04 147.299 252.534C147.052 252.028 146.928 251.437 146.928 250.761C146.928 250.08 147.052 249.484 147.299 248.976C147.549 248.467 147.895 248.072 148.339 247.791C148.785 247.51 149.303 247.369 149.894 247.369C150.485 247.369 151.002 247.51 151.445 247.791C151.891 248.072 152.238 248.467 152.485 248.976C152.735 249.484 152.86 250.08 152.86 250.761C152.86 251.437 152.735 252.028 152.485 252.534C152.238 253.04 151.891 253.433 151.445 253.714C151.002 253.996 150.485 254.136 149.894 254.136ZM149.894 253.233C150.343 253.233 150.712 253.118 151.002 252.888C151.292 252.658 151.506 252.355 151.645 251.98C151.785 251.605 151.854 251.199 151.854 250.761C151.854 250.324 151.785 249.916 151.645 249.538C151.506 249.161 151.292 248.855 151.002 248.622C150.712 248.389 150.343 248.273 149.894 248.273C149.445 248.273 149.076 248.389 148.786 248.622C148.496 248.855 148.282 249.161 148.143 249.538C148.003 249.916 147.934 250.324 147.934 250.761C147.934 251.199 148.003 251.605 148.143 251.98C148.282 252.355 148.496 252.658 148.786 252.888C149.076 253.118 149.445 253.233 149.894 253.233ZM157.242 247.455V248.307H153.85V247.455H157.242ZM154.838 245.886H155.844V252.125C155.844 252.409 155.885 252.622 155.968 252.764C156.053 252.903 156.161 252.997 156.291 253.045C156.425 253.091 156.566 253.114 156.713 253.114C156.824 253.114 156.915 253.108 156.986 253.097C157.057 253.082 157.114 253.071 157.156 253.062L157.361 253.966C157.293 253.991 157.198 254.017 157.075 254.043C156.953 254.071 156.798 254.085 156.611 254.085C156.327 254.085 156.048 254.024 155.776 253.902C155.506 253.78 155.281 253.594 155.102 253.344C154.926 253.094 154.838 252.778 154.838 252.398V245.886ZM158.754 254V247.455H159.76V254H158.754ZM159.266 246.364C159.07 246.364 158.901 246.297 158.759 246.163C158.619 246.03 158.55 245.869 158.55 245.682C158.55 245.494 158.619 245.334 158.759 245.2C158.901 245.067 159.07 245 159.266 245C159.462 245 159.629 245.067 159.769 245.2C159.911 245.334 159.982 245.494 159.982 245.682C159.982 245.869 159.911 246.03 159.769 246.163C159.629 246.297 159.462 246.364 159.266 246.364ZM164.517 247.455V248.307H160.988V247.455H164.517ZM162.045 254V246.551C162.045 246.176 162.133 245.864 162.309 245.614C162.486 245.364 162.714 245.176 162.996 245.051C163.277 244.926 163.574 244.864 163.886 244.864C164.133 244.864 164.335 244.884 164.491 244.923C164.648 244.963 164.764 245 164.841 245.034L164.551 245.903C164.5 245.886 164.429 245.865 164.338 245.839C164.25 245.814 164.133 245.801 163.988 245.801C163.656 245.801 163.416 245.885 163.268 246.053C163.123 246.22 163.051 246.466 163.051 246.79V254H162.045ZM165.926 254V247.455H166.932V254H165.926ZM166.438 246.364C166.242 246.364 166.073 246.297 165.931 246.163C165.791 246.03 165.722 245.869 165.722 245.682C165.722 245.494 165.791 245.334 165.931 245.2C166.073 245.067 166.242 245 166.438 245C166.634 245 166.801 245.067 166.941 245.2C167.083 245.334 167.154 245.494 167.154 245.682C167.154 245.869 167.083 246.03 166.941 246.163C166.801 246.297 166.634 246.364 166.438 246.364ZM171.433 254.136C170.819 254.136 170.291 253.991 169.848 253.702C169.405 253.412 169.064 253.013 168.825 252.504C168.586 251.996 168.467 251.415 168.467 250.761C168.467 250.097 168.589 249.51 168.834 249.001C169.081 248.49 169.425 248.091 169.865 247.804C170.308 247.514 170.825 247.369 171.416 247.369C171.876 247.369 172.291 247.455 172.66 247.625C173.03 247.795 173.332 248.034 173.568 248.341C173.804 248.648 173.95 249.006 174.007 249.415H173.001C172.925 249.116 172.754 248.852 172.49 248.622C172.229 248.389 171.876 248.273 171.433 248.273C171.041 248.273 170.697 248.375 170.402 248.58C170.109 248.781 169.881 249.067 169.716 249.436C169.554 249.803 169.473 250.233 169.473 250.727C169.473 251.233 169.552 251.673 169.711 252.048C169.873 252.423 170.101 252.714 170.393 252.922C170.689 253.129 171.035 253.233 171.433 253.233C171.694 253.233 171.932 253.188 172.145 253.097C172.358 253.006 172.538 252.875 172.686 252.705C172.834 252.534 172.939 252.33 173.001 252.091H174.007C173.95 252.477 173.809 252.825 173.585 253.135C173.363 253.442 173.069 253.686 172.703 253.868C172.339 254.047 171.916 254.136 171.433 254.136ZM177.403 254.153C176.988 254.153 176.612 254.075 176.274 253.919C175.936 253.76 175.667 253.531 175.469 253.233C175.27 252.932 175.17 252.568 175.17 252.142C175.17 251.767 175.244 251.463 175.392 251.23C175.54 250.994 175.737 250.81 175.984 250.676C176.231 250.543 176.504 250.443 176.802 250.378C177.104 250.31 177.406 250.256 177.71 250.216C178.108 250.165 178.43 250.126 178.677 250.101C178.927 250.072 179.109 250.026 179.223 249.96C179.339 249.895 179.398 249.781 179.398 249.619V249.585C179.398 249.165 179.282 248.838 179.052 248.605C178.825 248.372 178.48 248.256 178.017 248.256C177.537 248.256 177.16 248.361 176.888 248.571C176.615 248.781 176.423 249.006 176.312 249.244L175.358 248.903C175.528 248.506 175.756 248.196 176.04 247.974C176.327 247.75 176.639 247.594 176.977 247.506C177.318 247.415 177.653 247.369 177.983 247.369C178.193 247.369 178.434 247.395 178.707 247.446C178.983 247.494 179.248 247.595 179.504 247.749C179.763 247.902 179.977 248.134 180.148 248.443C180.318 248.753 180.403 249.168 180.403 249.688V254H179.398V253.114H179.346C179.278 253.256 179.165 253.408 179.006 253.57C178.846 253.732 178.635 253.869 178.371 253.983C178.106 254.097 177.784 254.153 177.403 254.153ZM177.557 253.25C177.954 253.25 178.29 253.172 178.562 253.016C178.838 252.859 179.045 252.658 179.184 252.411C179.327 252.163 179.398 251.903 179.398 251.631V250.71C179.355 250.761 179.261 250.808 179.116 250.851C178.974 250.891 178.809 250.926 178.622 250.957C178.437 250.986 178.257 251.011 178.081 251.034C177.907 251.054 177.767 251.071 177.659 251.085C177.398 251.119 177.153 251.175 176.926 251.251C176.702 251.325 176.52 251.437 176.381 251.588C176.244 251.736 176.176 251.937 176.176 252.193C176.176 252.543 176.305 252.807 176.564 252.986C176.825 253.162 177.156 253.25 177.557 253.25ZM185.085 247.455V248.307H181.693V247.455H185.085ZM182.682 245.886H183.688V252.125C183.688 252.409 183.729 252.622 183.811 252.764C183.896 252.903 184.004 252.997 184.135 253.045C184.269 253.091 184.409 253.114 184.557 253.114C184.668 253.114 184.759 253.108 184.83 253.097C184.901 253.082 184.958 253.071 185 253.062L185.205 253.966C185.137 253.991 185.041 254.017 184.919 254.043C184.797 254.071 184.642 254.085 184.455 254.085C184.171 254.085 183.892 254.024 183.619 253.902C183.35 253.78 183.125 253.594 182.946 253.344C182.77 253.094 182.682 252.778 182.682 252.398V245.886ZM186.598 254V247.455H187.604V254H186.598ZM187.11 246.364C186.914 246.364 186.744 246.297 186.602 246.163C186.463 246.03 186.394 245.869 186.394 245.682C186.394 245.494 186.463 245.334 186.602 245.2C186.744 245.067 186.914 245 187.11 245C187.306 245 187.473 245.067 187.612 245.2C187.754 245.334 187.825 245.494 187.825 245.682C187.825 245.869 187.754 246.03 187.612 246.163C187.473 246.297 187.306 246.364 187.11 246.364ZM192.105 254.136C191.514 254.136 190.996 253.996 190.55 253.714C190.106 253.433 189.76 253.04 189.51 252.534C189.263 252.028 189.139 251.437 189.139 250.761C189.139 250.08 189.263 249.484 189.51 248.976C189.76 248.467 190.106 248.072 190.55 247.791C190.996 247.51 191.514 247.369 192.105 247.369C192.696 247.369 193.213 247.51 193.656 247.791C194.102 248.072 194.449 248.467 194.696 248.976C194.946 249.484 195.071 250.08 195.071 250.761C195.071 251.437 194.946 252.028 194.696 252.534C194.449 253.04 194.102 253.433 193.656 253.714C193.213 253.996 192.696 254.136 192.105 254.136ZM192.105 253.233C192.554 253.233 192.923 253.118 193.213 252.888C193.503 252.658 193.717 252.355 193.856 251.98C193.996 251.605 194.065 251.199 194.065 250.761C194.065 250.324 193.996 249.916 193.856 249.538C193.717 249.161 193.503 248.855 193.213 248.622C192.923 248.389 192.554 248.273 192.105 248.273C191.656 248.273 191.287 248.389 190.997 248.622C190.707 248.855 190.493 249.161 190.354 249.538C190.214 249.916 190.145 250.324 190.145 250.761C190.145 251.199 190.214 251.605 190.354 251.98C190.493 252.355 190.707 252.658 190.997 252.888C191.287 253.118 191.656 253.233 192.105 253.233ZM197.612 250.062V254H196.606V247.455H197.578V248.477H197.663C197.816 248.145 198.049 247.878 198.362 247.676C198.674 247.472 199.078 247.369 199.572 247.369C200.015 247.369 200.403 247.46 200.735 247.642C201.068 247.821 201.326 248.094 201.511 248.46C201.695 248.824 201.788 249.284 201.788 249.841V254H200.782V249.909C200.782 249.395 200.649 248.994 200.382 248.707C200.115 248.418 199.748 248.273 199.282 248.273C198.961 248.273 198.674 248.342 198.421 248.482C198.171 248.621 197.974 248.824 197.829 249.091C197.684 249.358 197.612 249.682 197.612 250.062ZM208.262 248.92L207.358 249.176C207.302 249.026 207.218 248.879 207.107 248.737C206.999 248.592 206.851 248.473 206.664 248.379C206.476 248.286 206.236 248.239 205.944 248.239C205.543 248.239 205.209 248.331 204.942 248.516C204.678 248.697 204.546 248.929 204.546 249.21C204.546 249.46 204.637 249.658 204.819 249.803C205.001 249.947 205.285 250.068 205.671 250.165L206.643 250.403C207.228 250.545 207.664 250.763 207.951 251.055C208.238 251.345 208.381 251.719 208.381 252.176C208.381 252.551 208.273 252.886 208.057 253.182C207.844 253.477 207.546 253.71 207.162 253.881C206.779 254.051 206.333 254.136 205.824 254.136C205.157 254.136 204.604 253.991 204.167 253.702C203.729 253.412 203.452 252.989 203.336 252.432L204.29 252.193C204.381 252.545 204.553 252.81 204.806 252.986C205.062 253.162 205.395 253.25 205.807 253.25C206.276 253.25 206.648 253.151 206.924 252.952C207.202 252.75 207.341 252.509 207.341 252.227C207.341 252 207.262 251.81 207.103 251.656C206.944 251.5 206.699 251.384 206.37 251.307L205.279 251.051C204.68 250.909 204.239 250.689 203.958 250.391C203.68 250.089 203.54 249.713 203.54 249.261C203.54 248.892 203.644 248.565 203.851 248.281C204.062 247.997 204.347 247.774 204.708 247.612C205.072 247.45 205.483 247.369 205.944 247.369C206.591 247.369 207.1 247.511 207.469 247.795C207.841 248.08 208.106 248.455 208.262 248.92Z" fill="#1F2A37"/>
<path d="M144.094 268.545H140.626L136.305 271.281V274.554L140.302 272.048H140.404V286H144.094V268.545ZM147.979 282.932H156.357V286H159.885V282.932H162.05V279.974H159.885V268.545H155.266L147.979 280.026V282.932ZM156.425 279.974H151.695V279.838L156.288 272.568H156.425V279.974ZM170.96 286.239C174.881 286.239 177.685 284.082 177.676 281.099C177.685 278.926 176.304 277.375 173.739 277.051V276.915C175.69 276.565 177.037 275.185 177.028 273.224C177.037 270.472 174.625 268.307 171.011 268.307C167.432 268.307 164.739 270.403 164.688 273.42H168.224C168.267 272.091 169.486 271.23 170.994 271.23C172.486 271.23 173.483 272.134 173.474 273.446C173.483 274.818 172.315 275.747 170.636 275.747H169.009V278.457H170.636C172.614 278.457 173.849 279.446 173.841 280.852C173.849 282.241 172.656 283.196 170.969 283.196C169.341 283.196 168.122 282.344 168.054 281.065H164.338C164.398 284.116 167.125 286.239 170.96 286.239Z" fill="#1F2A37"/>
<path d="M468.119 182H466.534C466.44 181.544 466.276 181.143 466.042 180.798C465.812 180.453 465.531 180.163 465.198 179.929C464.87 179.69 464.506 179.511 464.105 179.392C463.705 179.273 463.287 179.213 462.852 179.213C462.06 179.213 461.342 179.413 460.698 179.814C460.059 180.214 459.55 180.805 459.17 181.585C458.795 182.364 458.608 183.321 458.608 184.455C458.608 185.588 458.795 186.545 459.17 187.325C459.55 188.104 460.059 188.695 460.698 189.095C461.342 189.496 462.06 189.696 462.852 189.696C463.287 189.696 463.705 189.636 464.105 189.517C464.506 189.398 464.87 189.221 465.198 188.987C465.531 188.748 465.812 188.456 466.042 188.111C466.276 187.761 466.44 187.361 466.534 186.909H468.119C468 187.578 467.783 188.177 467.467 188.705C467.152 189.234 466.76 189.683 466.291 190.054C465.822 190.42 465.296 190.7 464.712 190.891C464.133 191.083 463.513 191.179 462.852 191.179C461.736 191.179 460.743 190.906 459.874 190.361C459.004 189.815 458.32 189.04 457.822 188.034C457.323 187.028 457.074 185.835 457.074 184.455C457.074 183.074 457.323 181.881 457.822 180.875C458.32 179.869 459.004 179.094 459.874 178.548C460.743 178.003 461.736 177.73 462.852 177.73C463.513 177.73 464.133 177.826 464.712 178.018C465.296 178.21 465.822 178.491 466.291 178.862C466.76 179.228 467.152 179.675 467.467 180.204C467.783 180.728 468 181.327 468.119 182ZM471.985 177.909V191H470.476V177.909H471.985ZM474.748 191V181.182H476.256V191H474.748ZM475.515 179.545C475.221 179.545 474.967 179.445 474.754 179.245C474.545 179.045 474.441 178.804 474.441 178.523C474.441 178.241 474.545 178.001 474.754 177.8C474.967 177.6 475.221 177.5 475.515 177.5C475.809 177.5 476.06 177.6 476.269 177.8C476.482 178.001 476.589 178.241 476.589 178.523C476.589 178.804 476.482 179.045 476.269 179.245C476.06 179.445 475.809 179.545 475.515 179.545ZM483.136 191.205C482.19 191.205 481.374 190.996 480.688 190.578C480.006 190.156 479.48 189.568 479.109 188.814C478.742 188.055 478.559 187.173 478.559 186.168C478.559 185.162 478.742 184.276 479.109 183.509C479.48 182.737 479.995 182.136 480.656 181.706C481.32 181.271 482.096 181.054 482.982 181.054C483.494 181.054 483.999 181.139 484.497 181.31C484.996 181.48 485.45 181.757 485.859 182.141C486.268 182.52 486.594 183.023 486.837 183.649C487.08 184.276 487.201 185.047 487.201 185.963V186.602H479.633V185.298H485.667C485.667 184.744 485.556 184.25 485.335 183.815C485.117 183.381 484.806 183.038 484.401 182.786C484.001 182.535 483.528 182.409 482.982 182.409C482.382 182.409 481.862 182.558 481.423 182.857C480.988 183.151 480.654 183.534 480.419 184.007C480.185 184.48 480.068 184.987 480.068 185.528V186.398C480.068 187.139 480.195 187.768 480.451 188.283C480.711 188.795 481.071 189.185 481.531 189.453C481.992 189.717 482.526 189.849 483.136 189.849C483.532 189.849 483.89 189.794 484.21 189.683C484.534 189.568 484.813 189.398 485.047 189.172C485.281 188.942 485.463 188.656 485.59 188.315L487.048 188.724C486.894 189.219 486.637 189.653 486.274 190.028C485.912 190.399 485.465 190.689 484.932 190.898C484.399 191.102 483.801 191.205 483.136 191.205ZM491.004 185.094V191H489.496V181.182H490.953V182.716H491.081C491.311 182.217 491.661 181.817 492.129 181.514C492.598 181.207 493.203 181.054 493.945 181.054C494.61 181.054 495.191 181.19 495.69 181.463C496.188 181.732 496.576 182.141 496.853 182.69C497.13 183.236 497.269 183.926 497.269 184.761V191H495.76V184.864C495.76 184.092 495.56 183.491 495.159 183.061C494.759 182.626 494.209 182.409 493.51 182.409C493.029 182.409 492.598 182.513 492.219 182.722C491.844 182.931 491.548 183.236 491.33 183.636C491.113 184.037 491.004 184.523 491.004 185.094ZM504.295 181.182V182.46H499.207V181.182H504.295ZM500.69 178.83H502.199V188.188C502.199 188.614 502.26 188.933 502.384 189.146C502.512 189.355 502.674 189.496 502.87 189.568C503.07 189.636 503.281 189.67 503.502 189.67C503.669 189.67 503.805 189.662 503.912 189.645C504.018 189.624 504.103 189.607 504.167 189.594L504.474 190.949C504.372 190.987 504.229 191.026 504.046 191.064C503.863 191.107 503.63 191.128 503.349 191.128C502.923 191.128 502.505 191.036 502.096 190.853C501.691 190.67 501.355 190.391 501.086 190.016C500.822 189.641 500.69 189.168 500.69 188.597V178.83Z" fill="#1F2A37"/>
<path d="M461.625 228H457.585V214.909H461.804C463.074 214.909 464.161 215.171 465.064 215.695C465.967 216.215 466.66 216.963 467.141 217.939C467.623 218.911 467.864 220.074 467.864 221.429C467.864 222.793 467.621 223.967 467.135 224.951C466.649 225.931 465.942 226.685 465.013 227.214C464.084 227.738 462.955 228 461.625 228ZM459.17 226.594H461.523C462.605 226.594 463.502 226.385 464.214 225.967C464.925 225.55 465.456 224.955 465.805 224.184C466.155 223.413 466.33 222.494 466.33 221.429C466.33 220.372 466.157 219.462 465.812 218.7C465.467 217.933 464.951 217.344 464.265 216.935C463.579 216.522 462.724 216.315 461.702 216.315H459.17V226.594ZM474.307 228.205C473.42 228.205 472.643 227.994 471.974 227.572C471.309 227.15 470.789 226.56 470.414 225.801C470.043 225.043 469.858 224.156 469.858 223.142C469.858 222.119 470.043 221.227 470.414 220.464C470.789 219.701 471.309 219.109 471.974 218.687C472.643 218.265 473.42 218.054 474.307 218.054C475.193 218.054 475.969 218.265 476.634 218.687C477.303 219.109 477.822 219.701 478.193 220.464C478.568 221.227 478.756 222.119 478.756 223.142C478.756 224.156 478.568 225.043 478.193 225.801C477.822 226.56 477.303 227.15 476.634 227.572C475.969 227.994 475.193 228.205 474.307 228.205ZM474.307 226.849C474.98 226.849 475.534 226.677 475.969 226.332C476.403 225.987 476.725 225.533 476.934 224.97C477.143 224.408 477.247 223.798 477.247 223.142C477.247 222.486 477.143 221.874 476.934 221.308C476.725 220.741 476.403 220.283 475.969 219.933C475.534 219.584 474.98 219.409 474.307 219.409C473.634 219.409 473.08 219.584 472.645 219.933C472.21 220.283 471.888 220.741 471.68 221.308C471.471 221.874 471.366 222.486 471.366 223.142C471.366 223.798 471.471 224.408 471.68 224.97C471.888 225.533 472.21 225.987 472.645 226.332C473.08 226.677 473.634 226.849 474.307 226.849ZM485.047 228.205C484.127 228.205 483.334 227.987 482.669 227.553C482.004 227.118 481.493 226.519 481.135 225.756C480.777 224.994 480.598 224.122 480.598 223.142C480.598 222.145 480.781 221.265 481.148 220.502C481.519 219.735 482.034 219.136 482.695 218.706C483.36 218.271 484.135 218.054 485.021 218.054C485.712 218.054 486.334 218.182 486.888 218.438C487.442 218.693 487.896 219.051 488.249 219.511C488.603 219.972 488.823 220.509 488.908 221.122H487.399C487.284 220.675 487.029 220.278 486.632 219.933C486.24 219.584 485.712 219.409 485.047 219.409C484.459 219.409 483.943 219.562 483.5 219.869C483.061 220.172 482.718 220.6 482.471 221.154C482.228 221.704 482.107 222.349 482.107 223.091C482.107 223.849 482.226 224.51 482.465 225.072C482.708 225.635 483.048 226.072 483.487 226.383C483.931 226.694 484.45 226.849 485.047 226.849C485.439 226.849 485.795 226.781 486.115 226.645C486.434 226.509 486.705 226.312 486.926 226.057C487.148 225.801 487.306 225.494 487.399 225.136H488.908C488.823 225.716 488.612 226.238 488.275 226.702C487.943 227.163 487.502 227.529 486.952 227.802C486.406 228.07 485.771 228.205 485.047 228.205ZM495.383 218.182V219.46H490.295V218.182H495.383ZM491.778 215.83H493.286V225.188C493.286 225.614 493.348 225.933 493.472 226.146C493.6 226.355 493.762 226.496 493.958 226.568C494.158 226.636 494.369 226.67 494.59 226.67C494.757 226.67 494.893 226.662 494.999 226.645C495.106 226.624 495.191 226.607 495.255 226.594L495.562 227.949C495.46 227.987 495.317 228.026 495.134 228.064C494.95 228.107 494.718 228.128 494.437 228.128C494.011 228.128 493.593 228.036 493.184 227.853C492.779 227.67 492.443 227.391 492.174 227.016C491.91 226.641 491.778 226.168 491.778 225.597V215.83ZM501.535 228.205C500.649 228.205 499.871 227.994 499.202 227.572C498.537 227.15 498.018 226.56 497.643 225.801C497.272 225.043 497.086 224.156 497.086 223.142C497.086 222.119 497.272 221.227 497.643 220.464C498.018 219.701 498.537 219.109 499.202 218.687C499.871 218.265 500.649 218.054 501.535 218.054C502.422 218.054 503.197 218.265 503.862 218.687C504.531 219.109 505.051 219.701 505.422 220.464C505.797 221.227 505.984 222.119 505.984 223.142C505.984 224.156 505.797 225.043 505.422 225.801C505.051 226.56 504.531 227.15 503.862 227.572C503.197 227.994 502.422 228.205 501.535 228.205ZM501.535 226.849C502.209 226.849 502.763 226.677 503.197 226.332C503.632 225.987 503.954 225.533 504.162 224.97C504.371 224.408 504.476 223.798 504.476 223.142C504.476 222.486 504.371 221.874 504.162 221.308C503.954 220.741 503.632 220.283 503.197 219.933C502.763 219.584 502.209 219.409 501.535 219.409C500.862 219.409 500.308 219.584 499.873 219.933C499.439 220.283 499.117 220.741 498.908 221.308C498.699 221.874 498.595 222.486 498.595 223.142C498.595 223.798 498.699 224.408 498.908 224.97C499.117 225.533 499.439 225.987 499.873 226.332C500.308 226.677 500.862 226.849 501.535 226.849ZM508.287 228V218.182H509.744V219.665H509.847C510.026 219.179 510.349 218.785 510.818 218.482C511.287 218.18 511.815 218.028 512.403 218.028C512.514 218.028 512.653 218.031 512.819 218.035C512.985 218.039 513.111 218.045 513.196 218.054V219.588C513.145 219.575 513.028 219.556 512.844 219.531C512.665 219.501 512.476 219.486 512.276 219.486C511.798 219.486 511.372 219.586 510.997 219.786C510.626 219.982 510.332 220.255 510.115 220.604C509.902 220.95 509.795 221.344 509.795 221.787V228H508.287Z" fill="#1F2A37"/>
<path d="M468.119 256H466.534C466.44 255.544 466.276 255.143 466.042 254.798C465.812 254.453 465.531 254.163 465.198 253.929C464.87 253.69 464.506 253.511 464.105 253.392C463.705 253.273 463.287 253.213 462.852 253.213C462.06 253.213 461.342 253.413 460.698 253.814C460.059 254.214 459.55 254.805 459.17 255.585C458.795 256.364 458.608 257.321 458.608 258.455C458.608 259.588 458.795 260.545 459.17 261.325C459.55 262.104 460.059 262.695 460.698 263.095C461.342 263.496 462.06 263.696 462.852 263.696C463.287 263.696 463.705 263.636 464.105 263.517C464.506 263.398 464.87 263.221 465.198 262.987C465.531 262.748 465.812 262.456 466.042 262.111C466.276 261.761 466.44 261.361 466.534 260.909H468.119C468 261.578 467.783 262.177 467.467 262.705C467.152 263.234 466.76 263.683 466.291 264.054C465.822 264.42 465.296 264.7 464.712 264.891C464.133 265.083 463.513 265.179 462.852 265.179C461.736 265.179 460.743 264.906 459.874 264.361C459.004 263.815 458.32 263.04 457.822 262.034C457.323 261.028 457.074 259.835 457.074 258.455C457.074 257.074 457.323 255.881 457.822 254.875C458.32 253.869 459.004 253.094 459.874 252.548C460.743 252.003 461.736 251.73 462.852 251.73C463.513 251.73 464.133 251.826 464.712 252.018C465.296 252.21 465.822 252.491 466.291 252.862C466.76 253.228 467.152 253.675 467.467 254.204C467.783 254.728 468 255.327 468.119 256ZM474.465 265.205C473.579 265.205 472.801 264.994 472.132 264.572C471.467 264.15 470.947 263.56 470.572 262.801C470.202 262.043 470.016 261.156 470.016 260.142C470.016 259.119 470.202 258.227 470.572 257.464C470.947 256.701 471.467 256.109 472.132 255.687C472.801 255.265 473.579 255.054 474.465 255.054C475.351 255.054 476.127 255.265 476.792 255.687C477.461 256.109 477.981 256.701 478.351 257.464C478.726 258.227 478.914 259.119 478.914 260.142C478.914 261.156 478.726 262.043 478.351 262.801C477.981 263.56 477.461 264.15 476.792 264.572C476.127 264.994 475.351 265.205 474.465 265.205ZM474.465 263.849C475.138 263.849 475.692 263.677 476.127 263.332C476.562 262.987 476.883 262.533 477.092 261.97C477.301 261.408 477.405 260.798 477.405 260.142C477.405 259.486 477.301 258.874 477.092 258.308C476.883 257.741 476.562 257.283 476.127 256.933C475.692 256.584 475.138 256.409 474.465 256.409C473.792 256.409 473.238 256.584 472.803 256.933C472.368 257.283 472.047 257.741 471.838 258.308C471.629 258.874 471.525 259.486 471.525 260.142C471.525 260.798 471.629 261.408 471.838 261.97C472.047 262.533 472.368 262.987 472.803 263.332C473.238 263.677 473.792 263.849 474.465 263.849ZM484.106 265.23C483.484 265.23 482.919 265.113 482.412 264.879C481.905 264.64 481.502 264.297 481.204 263.849C480.906 263.398 480.756 262.852 480.756 262.213C480.756 261.651 480.867 261.195 481.089 260.845C481.31 260.491 481.607 260.214 481.977 260.014C482.348 259.814 482.757 259.665 483.205 259.567C483.656 259.464 484.11 259.384 484.566 259.324C485.163 259.247 485.646 259.19 486.017 259.151C486.392 259.109 486.665 259.038 486.835 258.94C487.01 258.842 487.097 258.672 487.097 258.429V258.378C487.097 257.747 486.925 257.257 486.58 256.908C486.239 256.558 485.721 256.384 485.026 256.384C484.306 256.384 483.741 256.541 483.332 256.857C482.923 257.172 482.636 257.509 482.469 257.866L481.038 257.355C481.293 256.759 481.634 256.294 482.06 255.962C482.491 255.625 482.96 255.391 483.467 255.259C483.978 255.122 484.481 255.054 484.975 255.054C485.29 255.054 485.653 255.092 486.062 255.169C486.475 255.241 486.874 255.393 487.257 255.623C487.645 255.853 487.967 256.2 488.222 256.665C488.478 257.129 488.606 257.751 488.606 258.531V265H487.097V263.67H487.021C486.918 263.884 486.748 264.112 486.509 264.354C486.271 264.597 485.953 264.804 485.557 264.974C485.161 265.145 484.677 265.23 484.106 265.23ZM484.336 263.875C484.933 263.875 485.435 263.758 485.844 263.523C486.258 263.289 486.569 262.987 486.778 262.616C486.991 262.245 487.097 261.855 487.097 261.446V260.065C487.033 260.142 486.893 260.212 486.675 260.276C486.462 260.336 486.215 260.389 485.934 260.436C485.657 260.479 485.386 260.517 485.122 260.551C484.862 260.581 484.651 260.607 484.489 260.628C484.097 260.679 483.731 260.762 483.39 260.877C483.053 260.988 482.781 261.156 482.572 261.382C482.367 261.604 482.265 261.906 482.265 262.29C482.265 262.814 482.459 263.21 482.847 263.479C483.239 263.743 483.735 263.875 484.336 263.875ZM495.348 265.205C494.427 265.205 493.635 264.987 492.97 264.553C492.305 264.118 491.794 263.519 491.436 262.756C491.078 261.994 490.899 261.122 490.899 260.142C490.899 259.145 491.082 258.265 491.449 257.502C491.819 256.735 492.335 256.136 492.996 255.706C493.66 255.271 494.436 255.054 495.322 255.054C496.013 255.054 496.635 255.182 497.189 255.438C497.743 255.693 498.197 256.051 498.55 256.511C498.904 256.972 499.123 257.509 499.209 258.122H497.7C497.585 257.675 497.329 257.278 496.933 256.933C496.541 256.584 496.013 256.409 495.348 256.409C494.76 256.409 494.244 256.562 493.801 256.869C493.362 257.172 493.019 257.6 492.772 258.154C492.529 258.704 492.407 259.349 492.407 260.091C492.407 260.849 492.527 261.51 492.765 262.072C493.008 262.635 493.349 263.072 493.788 263.383C494.231 263.694 494.751 263.849 495.348 263.849C495.74 263.849 496.096 263.781 496.415 263.645C496.735 263.509 497.006 263.312 497.227 263.057C497.449 262.801 497.606 262.494 497.7 262.136H499.209C499.123 262.716 498.912 263.238 498.576 263.702C498.243 264.163 497.802 264.529 497.253 264.802C496.707 265.07 496.072 265.205 495.348 265.205ZM502.922 259.094V265H501.414V251.909H502.922V256.716H503.05C503.28 256.209 503.626 255.806 504.086 255.508C504.55 255.205 505.168 255.054 505.939 255.054C506.608 255.054 507.194 255.188 507.697 255.457C508.2 255.721 508.59 256.128 508.867 256.678C509.148 257.223 509.289 257.918 509.289 258.761V265H507.78V258.864C507.78 258.084 507.578 257.481 507.173 257.055C506.773 256.624 506.216 256.409 505.505 256.409C505.01 256.409 504.567 256.513 504.175 256.722C503.787 256.931 503.481 257.236 503.255 257.636C503.033 258.037 502.922 258.523 502.922 259.094Z" fill="#1F2A37"/>
<path d="M587.583 191H589.244L595.074 179.392V177.909H586.688V179.315H593.438V179.418L587.583 191ZM597.457 191H605.715V189.594H599.63V189.491L602.57 186.347C604.82 183.937 605.485 182.812 605.485 181.361C605.485 179.341 603.849 177.73 601.548 177.73C599.253 177.73 597.508 179.29 597.508 181.591H599.016C599.016 180.102 599.982 179.111 601.496 179.111C602.915 179.111 604.002 179.98 604.002 181.361C604.002 182.569 603.293 183.464 601.778 185.119L597.457 189.849V191Z" fill="#1F2A37"/>
<path d="M586.365 228H594.623V226.594H588.538V226.491L591.479 223.347C593.729 220.937 594.393 219.812 594.393 218.361C594.393 216.341 592.757 214.73 590.456 214.73C588.161 214.73 586.416 216.29 586.416 218.591H587.925C587.925 217.102 588.89 216.111 590.405 216.111C591.824 216.111 592.91 216.98 592.91 218.361C592.91 219.569 592.201 220.464 590.686 222.119L586.365 226.849V228ZM601.456 228.179C604.071 228.179 605.893 226.651 605.905 224.523C605.893 222.867 604.787 221.461 603.374 221.199V221.122C604.601 220.803 605.407 219.601 605.42 218.207C605.407 216.213 603.732 214.73 601.456 214.73C599.155 214.73 597.481 216.213 597.493 218.207C597.481 219.601 598.286 220.803 599.539 221.122V221.199C598.101 221.461 596.995 222.867 597.008 224.523C596.995 226.651 598.817 228.179 601.456 228.179ZM601.456 226.773C599.66 226.773 598.555 225.852 598.567 224.446C598.555 222.969 599.775 221.915 601.456 221.915C603.112 221.915 604.333 222.969 604.346 224.446C604.333 225.852 603.227 226.773 601.456 226.773ZM601.456 220.56C600.025 220.56 599.015 219.665 599.028 218.31C599.015 216.98 599.986 216.111 601.456 216.111C602.901 216.111 603.873 216.98 603.885 218.31C603.873 219.665 602.863 220.56 601.456 220.56Z" fill="#1F2A37"/>
<path d="M585.548 262.315H591.71V265H593.219V262.315H595.009V260.909H593.219V251.909H591.301L585.548 261.011V262.315ZM591.71 260.909H587.261V260.807L591.608 253.929H591.71V260.909ZM601.495 265.179C603.988 265.179 605.816 263.338 605.816 260.832C605.816 258.295 604.052 256.435 601.648 256.435C600.766 256.435 599.91 256.748 599.373 257.176H599.296L599.756 253.315H605.228V251.909H598.427L597.634 258.352L599.117 258.531C599.66 258.141 600.587 257.86 601.393 257.866C603.061 257.879 604.282 259.145 604.282 260.858C604.282 262.539 603.106 263.773 601.495 263.773C600.153 263.773 599.085 262.91 598.964 261.727H597.43C597.525 263.722 599.245 265.179 601.495 265.179Z" fill="#1F2A37"/>
<circle cx="440" cy="185" r="4" fill="#16BDCA"/>
<circle cx="440" cy="222" r="4" fill="#1C64F2"/>
<circle cx="440" cy="259" r="4" fill="#FDBA8C"/>
<rect x="556" y="179" width="1" height="12" fill="#C4C4C4"/>
<rect x="556" y="216" width="1" height="12" fill="#C4C4C4"/>
<rect x="556" y="253" width="1" height="12" fill="#C4C4C4"/>
<path d="M157 154C172.972 154 188.767 157.356 203.359 163.852C217.951 170.347 231.015 179.836 241.705 191.704C252.395 203.572 260.471 217.554 265.411 232.743C270.351 247.932 272.044 263.99 270.38 279.876C268.716 295.761 263.732 311.12 255.752 324.956C247.772 338.792 236.974 350.797 224.057 360.192C211.14 369.587 196.393 376.163 180.772 379.494C165.15 382.825 149.004 382.835 133.378 379.526L143.767 330.477C152.52 332.331 161.566 332.325 170.317 330.459C179.068 328.593 187.329 324.909 194.565 319.646C201.801 314.383 207.851 307.658 212.321 299.907C216.791 292.156 219.583 283.552 220.515 274.653C221.447 265.754 220.499 256.758 217.732 248.249C214.965 239.74 210.44 231.907 204.452 225.259C198.463 218.611 191.145 213.295 182.97 209.656C174.796 206.017 165.948 204.137 157 204.137V154Z" fill="#16BDCA"/>
<path d="M157 154C128.825 154 101.647 164.434 80.7108 183.289C59.7742 202.144 46.5618 228.084 43.6222 256.106L93.4858 261.337C95.1325 245.639 102.534 231.108 114.263 220.545C125.991 209.982 141.216 204.137 157 204.137V154Z" fill="#1C64F2"/>
<path d="M43.6552 255.796C40.6382 283.815 48.1063 311.958 64.6183 334.795C81.1303 357.632 105.516 373.544 133.069 379.46L143.594 330.44C128.159 327.126 114.498 318.212 105.248 305.419C95.9978 292.625 91.8141 276.859 93.5042 261.163L43.6552 255.796Z" fill="#FDBA8C"/>
<g filter="url(#filter1_dd_108_16241)">
<path fill-rule="evenodd" clip-rule="evenodd" d="M238.968 217.523C237.043 219.492 233.921 219.492 231.996 217.523L228.742 214.661C227.829 213.858 226.655 213.415 225.439 213.415H186.366C179.632 213.415 177.19 212.859 174.728 211.816C172.266 210.773 170.334 209.243 169.018 207.292C167.701 205.342 167 203.407 167 198.072V159.342C167 154.008 167.701 152.073 169.018 150.123C170.334 148.172 172.266 146.642 174.728 145.599C177.19 144.555 179.632 144 186.366 144L289.634 144C296.368 144 298.81 144.555 301.272 145.599C303.734 146.642 305.666 148.172 306.982 150.123C308.299 152.073 309 154.008 309 159.342V198.072C309 203.407 308.299 205.342 306.982 207.292C305.666 209.243 303.734 210.773 301.272 211.816C298.81 212.859 296.368 213.415 289.634 213.415H247.411C244.98 213.415 242.632 214.301 240.807 215.906L238.968 217.523Z" fill="white"/>
</g>
<path d="M182.331 160.217H180.737C180.692 159.956 180.608 159.724 180.486 159.523C180.364 159.318 180.212 159.145 180.03 159.003C179.848 158.861 179.641 158.754 179.408 158.683C179.178 158.609 178.929 158.572 178.662 158.572C178.188 158.572 177.767 158.692 177.401 158.93C177.034 159.166 176.747 159.513 176.54 159.97C176.332 160.425 176.229 160.98 176.229 161.636C176.229 162.304 176.332 162.866 176.54 163.324C176.75 163.778 177.037 164.122 177.401 164.355C177.767 164.585 178.186 164.7 178.658 164.7C178.919 164.7 179.163 164.666 179.391 164.598C179.621 164.527 179.827 164.423 180.009 164.287C180.193 164.151 180.348 163.983 180.473 163.784C180.601 163.585 180.689 163.358 180.737 163.102L182.331 163.111C182.271 163.526 182.142 163.915 181.943 164.278C181.747 164.642 181.49 164.963 181.172 165.241C180.854 165.517 180.482 165.733 180.055 165.889C179.629 166.043 179.156 166.119 178.636 166.119C177.869 166.119 177.185 165.942 176.582 165.587C175.98 165.232 175.506 164.719 175.159 164.048C174.813 163.378 174.639 162.574 174.639 161.636C174.639 160.696 174.814 159.892 175.163 159.224C175.513 158.554 175.989 158.041 176.591 157.686C177.193 157.331 177.875 157.153 178.636 157.153C179.122 157.153 179.574 157.222 179.991 157.358C180.409 157.494 180.781 157.695 181.108 157.959C181.435 158.22 181.703 158.541 181.913 158.922C182.126 159.3 182.266 159.732 182.331 160.217ZM185.253 157.273V166H183.711V157.273H185.253ZM186.839 166V159.455H188.382V166H186.839ZM187.615 158.526C187.371 158.526 187.161 158.445 186.984 158.283C186.808 158.118 186.72 157.92 186.72 157.69C186.72 157.457 186.808 157.26 186.984 157.098C187.161 156.933 187.371 156.851 187.615 156.851C187.862 156.851 188.072 156.933 188.246 157.098C188.422 157.26 188.51 157.457 188.51 157.69C188.51 157.92 188.422 158.118 188.246 158.283C188.072 158.445 187.862 158.526 187.615 158.526ZM192.866 166.128C192.21 166.128 191.643 165.991 191.166 165.719C190.691 165.443 190.326 165.054 190.071 164.551C189.815 164.045 189.687 163.45 189.687 162.766C189.687 162.092 189.815 161.501 190.071 160.993C190.329 160.482 190.69 160.084 191.153 159.8C191.616 159.513 192.16 159.369 192.785 159.369C193.189 159.369 193.569 159.435 193.927 159.565C194.288 159.693 194.606 159.892 194.882 160.162C195.16 160.432 195.379 160.776 195.538 161.193C195.697 161.608 195.777 162.102 195.777 162.676V163.149H190.412V162.109H194.298C194.295 161.814 194.231 161.551 194.106 161.321C193.981 161.088 193.806 160.905 193.582 160.771C193.36 160.638 193.102 160.571 192.806 160.571C192.491 160.571 192.214 160.648 191.975 160.801C191.737 160.952 191.551 161.151 191.417 161.398C191.287 161.642 191.22 161.911 191.217 162.203V163.111C191.217 163.491 191.287 163.818 191.426 164.091C191.565 164.361 191.76 164.568 192.01 164.713C192.26 164.855 192.552 164.926 192.887 164.926C193.112 164.926 193.315 164.895 193.497 164.832C193.679 164.767 193.836 164.672 193.97 164.547C194.103 164.422 194.204 164.267 194.272 164.082L195.713 164.244C195.622 164.625 195.449 164.957 195.193 165.241C194.94 165.523 194.616 165.741 194.221 165.898C193.826 166.051 193.375 166.128 192.866 166.128ZM198.624 162.165V166H197.082V159.455H198.556V160.567H198.633C198.783 160.2 199.023 159.909 199.353 159.693C199.685 159.477 200.096 159.369 200.585 159.369C201.036 159.369 201.43 159.466 201.765 159.659C202.103 159.852 202.364 160.132 202.549 160.499C202.737 160.865 202.829 161.31 202.826 161.832V166H201.283V162.071C201.283 161.634 201.17 161.291 200.942 161.044C200.718 160.797 200.407 160.673 200.009 160.673C199.739 160.673 199.499 160.733 199.289 160.852C199.082 160.969 198.918 161.138 198.799 161.359C198.683 161.581 198.624 161.849 198.624 162.165ZM207.663 159.455V160.648H203.9V159.455H207.663ZM204.829 157.886H206.371V164.031C206.371 164.239 206.403 164.398 206.465 164.509C206.531 164.616 206.616 164.69 206.721 164.73C206.826 164.77 206.942 164.79 207.07 164.79C207.167 164.79 207.255 164.783 207.335 164.768C207.417 164.754 207.479 164.741 207.522 164.73L207.782 165.936C207.7 165.964 207.582 165.996 207.428 166.03C207.278 166.064 207.093 166.084 206.874 166.089C206.488 166.101 206.14 166.043 205.83 165.915C205.521 165.784 205.275 165.582 205.093 165.31C204.914 165.037 204.826 164.696 204.829 164.287V157.886Z" fill="#111928"/>
<path d="M185.412 179.21V178.273H191.957V179.21H189.213V187H188.156V179.21H185.412ZM192.772 187V180.455H193.744V181.443H193.812C193.931 181.119 194.147 180.857 194.46 180.655C194.772 180.453 195.124 180.352 195.516 180.352C195.59 180.352 195.683 180.354 195.793 180.357C195.904 180.359 195.988 180.364 196.045 180.369V181.392C196.011 181.384 195.933 181.371 195.81 181.354C195.691 181.334 195.565 181.324 195.431 181.324C195.113 181.324 194.829 181.391 194.579 181.524C194.332 181.655 194.136 181.837 193.991 182.07C193.849 182.3 193.778 182.562 193.778 182.858V187H192.772ZM199.163 187.153C198.748 187.153 198.372 187.075 198.034 186.919C197.696 186.76 197.427 186.531 197.228 186.233C197.029 185.932 196.93 185.568 196.93 185.142C196.93 184.767 197.004 184.463 197.152 184.23C197.299 183.994 197.497 183.81 197.744 183.676C197.991 183.543 198.264 183.443 198.562 183.378C198.863 183.31 199.166 183.256 199.47 183.216C199.868 183.165 200.19 183.126 200.437 183.101C200.687 183.072 200.869 183.026 200.983 182.96C201.099 182.895 201.157 182.781 201.157 182.619V182.585C201.157 182.165 201.042 181.838 200.812 181.605C200.585 181.372 200.24 181.256 199.777 181.256C199.297 181.256 198.92 181.361 198.647 181.571C198.375 181.781 198.183 182.006 198.072 182.244L197.118 181.903C197.288 181.506 197.515 181.196 197.799 180.974C198.086 180.75 198.399 180.594 198.737 180.506C199.078 180.415 199.413 180.369 199.743 180.369C199.953 180.369 200.194 180.395 200.467 180.446C200.743 180.494 201.008 180.595 201.264 180.749C201.522 180.902 201.737 181.134 201.907 181.443C202.078 181.753 202.163 182.168 202.163 182.688V187H201.157V186.114H201.106C201.038 186.256 200.924 186.408 200.765 186.57C200.606 186.732 200.395 186.869 200.13 186.983C199.866 187.097 199.544 187.153 199.163 187.153ZM199.316 186.25C199.714 186.25 200.049 186.172 200.322 186.016C200.598 185.859 200.805 185.658 200.944 185.411C201.086 185.163 201.157 184.903 201.157 184.631V183.71C201.115 183.761 201.021 183.808 200.876 183.851C200.734 183.891 200.569 183.926 200.382 183.957C200.197 183.986 200.017 184.011 199.841 184.034C199.667 184.054 199.527 184.071 199.419 184.085C199.157 184.119 198.913 184.175 198.686 184.251C198.461 184.325 198.279 184.437 198.14 184.588C198.004 184.736 197.936 184.937 197.936 185.193C197.936 185.543 198.065 185.807 198.324 185.986C198.585 186.162 198.916 186.25 199.316 186.25ZM206.913 180.455V181.307H203.385V180.455H206.913ZM204.442 187V179.551C204.442 179.176 204.53 178.864 204.706 178.614C204.882 178.364 205.111 178.176 205.392 178.051C205.673 177.926 205.97 177.864 206.283 177.864C206.53 177.864 206.732 177.884 206.888 177.923C207.044 177.963 207.161 178 207.237 178.034L206.947 178.903C206.896 178.886 206.825 178.865 206.734 178.839C206.646 178.814 206.53 178.801 206.385 178.801C206.053 178.801 205.813 178.885 205.665 179.053C205.52 179.22 205.447 179.466 205.447 179.79V187H204.442ZM211.238 180.455V181.307H207.709V180.455H211.238ZM208.766 187V179.551C208.766 179.176 208.854 178.864 209.03 178.614C209.206 178.364 209.435 178.176 209.716 178.051C209.998 177.926 210.294 177.864 210.607 177.864C210.854 177.864 211.056 177.884 211.212 177.923C211.368 177.963 211.485 178 211.561 178.034L211.272 178.903C211.221 178.886 211.15 178.865 211.059 178.839C210.971 178.814 210.854 178.801 210.709 178.801C210.377 178.801 210.137 178.885 209.989 179.053C209.844 179.22 209.772 179.466 209.772 179.79V187H208.766ZM212.647 187V180.455H213.653V187H212.647ZM213.158 179.364C212.962 179.364 212.793 179.297 212.651 179.163C212.512 179.03 212.442 178.869 212.442 178.682C212.442 178.494 212.512 178.334 212.651 178.2C212.793 178.067 212.962 178 213.158 178C213.354 178 213.522 178.067 213.661 178.2C213.803 178.334 213.874 178.494 213.874 178.682C213.874 178.869 213.803 179.03 213.661 179.163C213.522 179.297 213.354 179.364 213.158 179.364ZM218.154 187.136C217.54 187.136 217.012 186.991 216.569 186.702C216.125 186.412 215.784 186.013 215.546 185.504C215.307 184.996 215.188 184.415 215.188 183.761C215.188 183.097 215.31 182.51 215.554 182.001C215.801 181.49 216.145 181.091 216.586 180.804C217.029 180.514 217.546 180.369 218.137 180.369C218.597 180.369 219.012 180.455 219.381 180.625C219.75 180.795 220.053 181.034 220.289 181.341C220.525 181.648 220.671 182.006 220.728 182.415H219.722C219.645 182.116 219.475 181.852 219.211 181.622C218.949 181.389 218.597 181.273 218.154 181.273C217.762 181.273 217.418 181.375 217.123 181.58C216.83 181.781 216.601 182.067 216.436 182.436C216.275 182.803 216.194 183.233 216.194 183.727C216.194 184.233 216.273 184.673 216.432 185.048C216.594 185.423 216.821 185.714 217.114 185.922C217.409 186.129 217.756 186.233 218.154 186.233C218.415 186.233 218.652 186.188 218.865 186.097C219.078 186.006 219.259 185.875 219.407 185.705C219.554 185.534 219.659 185.33 219.722 185.091H220.728C220.671 185.477 220.53 185.825 220.306 186.135C220.084 186.442 219.79 186.686 219.424 186.868C219.06 187.047 218.637 187.136 218.154 187.136ZM222.931 187.068C222.721 187.068 222.54 186.993 222.39 186.842C222.239 186.692 222.164 186.511 222.164 186.301C222.164 186.091 222.239 185.911 222.39 185.76C222.54 185.609 222.721 185.534 222.931 185.534C223.141 185.534 223.321 185.609 223.472 185.76C223.623 185.911 223.698 186.091 223.698 186.301C223.698 186.44 223.662 186.568 223.591 186.685C223.523 186.801 223.431 186.895 223.314 186.966C223.201 187.034 223.073 187.068 222.931 187.068ZM222.931 182.21C222.721 182.21 222.54 182.135 222.39 181.984C222.239 181.834 222.164 181.653 222.164 181.443C222.164 181.233 222.239 181.053 222.39 180.902C222.54 180.751 222.721 180.676 222.931 180.676C223.141 180.676 223.321 180.751 223.472 180.902C223.623 181.053 223.698 181.233 223.698 181.443C223.698 181.582 223.662 181.71 223.591 181.827C223.523 181.943 223.431 182.037 223.314 182.108C223.201 182.176 223.073 182.21 222.931 182.21Z" fill="#6B7280"/>
<path d="M229.052 187L232.764 179.653V179.594H228.456V178.273H234.4V179.624L230.693 187H229.052ZM235.776 187V185.858L238.805 182.888C239.095 182.595 239.337 182.335 239.53 182.108C239.723 181.881 239.868 181.661 239.964 181.447C240.061 181.234 240.109 181.007 240.109 180.766C240.109 180.49 240.047 180.254 239.922 180.058C239.797 179.859 239.625 179.706 239.406 179.598C239.188 179.49 238.939 179.436 238.661 179.436C238.374 179.436 238.122 179.496 237.906 179.615C237.69 179.732 237.523 179.898 237.403 180.114C237.287 180.33 237.229 180.587 237.229 180.885H235.724C235.724 180.331 235.851 179.849 236.104 179.44C236.357 179.031 236.705 178.714 237.148 178.49C237.594 178.266 238.105 178.153 238.682 178.153C239.267 178.153 239.781 178.263 240.224 178.482C240.668 178.7 241.011 179 241.256 179.381C241.503 179.761 241.626 180.196 241.626 180.685C241.626 181.011 241.564 181.332 241.439 181.648C241.314 181.963 241.094 182.312 240.778 182.696C240.466 183.08 240.027 183.544 239.462 184.089L237.957 185.619V185.679H241.759V187H235.776ZM247.895 185.364V184.903C247.895 184.565 247.966 184.254 248.108 183.97C248.253 183.686 248.463 183.457 248.739 183.284C249.014 183.111 249.348 183.024 249.74 183.024C250.143 183.024 250.482 183.111 250.754 183.284C251.027 183.455 251.233 183.682 251.372 183.966C251.514 184.25 251.585 184.562 251.585 184.903V185.364C251.585 185.702 251.514 186.013 251.372 186.297C251.23 186.581 251.021 186.81 250.746 186.983C250.473 187.156 250.138 187.243 249.74 187.243C249.342 187.243 249.006 187.156 248.73 186.983C248.455 186.81 248.246 186.581 248.104 186.297C247.964 186.013 247.895 185.702 247.895 185.364ZM249.007 184.903V185.364C249.007 185.588 249.061 185.794 249.169 185.982C249.277 186.169 249.467 186.263 249.74 186.263C250.016 186.263 250.205 186.17 250.307 185.986C250.412 185.798 250.464 185.591 250.464 185.364V184.903C250.464 184.676 250.415 184.469 250.315 184.281C250.216 184.091 250.024 183.996 249.74 183.996C249.473 183.996 249.284 184.091 249.173 184.281C249.063 184.469 249.007 184.676 249.007 184.903ZM243.459 180.369V179.909C243.459 179.568 243.531 179.256 243.676 178.972C243.821 178.687 244.031 178.46 244.307 178.29C244.582 178.116 244.916 178.03 245.308 178.03C245.709 178.03 246.045 178.116 246.318 178.29C246.594 178.46 246.801 178.687 246.94 178.972C247.08 179.256 247.149 179.568 247.149 179.909V180.369C247.149 180.71 247.078 181.023 246.936 181.307C246.797 181.588 246.589 181.814 246.314 181.984C246.038 182.155 245.703 182.24 245.308 182.24C244.908 182.24 244.57 182.155 244.294 181.984C244.021 181.814 243.814 181.587 243.672 181.303C243.53 181.018 243.459 180.707 243.459 180.369ZM244.58 179.909V180.369C244.58 180.597 244.632 180.804 244.737 180.991C244.845 181.176 245.036 181.268 245.308 181.268C245.581 181.268 245.768 181.176 245.871 180.991C245.976 180.804 246.028 180.597 246.028 180.369V179.909C246.028 179.682 245.979 179.474 245.879 179.287C245.78 179.097 245.589 179.001 245.308 179.001C245.038 179.001 244.849 179.097 244.741 179.287C244.634 179.477 244.58 179.685 244.58 179.909ZM243.945 187L249.945 178.273H251.01L245.01 187H243.945Z" fill="#111928"/>
<rect x="173.602" y="179" width="8" height="8" rx="4" fill="#16BDCA"/>
<path d="M323 45V49M323 53H323.01M332 49C332 50.1819 331.767 51.3522 331.315 52.4442C330.863 53.5361 330.2 54.5282 329.364 55.364C328.528 56.1997 327.536 56.8626 326.444 57.3149C325.352 57.7672 324.182 58 323 58C321.818 58 320.648 57.7672 319.556 57.3149C318.464 56.8626 317.472 56.1997 316.636 55.364C315.8 54.5282 315.137 53.5361 314.685 52.4442C314.233 51.3522 314 50.1819 314 49C314 46.6131 314.948 44.3239 316.636 42.636C318.324 40.9482 320.613 40 323 40C325.387 40 327.676 40.9482 329.364 42.636C331.052 44.3239 332 46.6131 332 49Z" stroke="#9CA3AF" stroke-width="2" stroke-linecap="round" stroke-linejoin="round"/>
<defs>
<filter id="filter0_dd_108_16241" x="0" y="0" width="668" height="446" filterUnits="userSpaceOnUse" color-interpolation-filters="sRGB">
<feFlood flood-opacity="0" result="BackgroundImageFix"/>
<feColorMatrix in="SourceAlpha" type="matrix" values="0 0 0 0 0 0 0 0 0 0 0 0 0 0 0 0 0 0 127 0" result="hardAlpha"/>
<feOffset dy="1"/>
<feGaussianBlur stdDeviation="1.5"/>
<feColorMatrix type="matrix" values="0 0 0 0 0 0 0 0 0 0 0 0 0 0 0 0 0 0 0.1 0"/>
<feBlend mode="normal" in2="BackgroundImageFix" result="effect1_dropShadow_108_16241"/>
<feColorMatrix in="SourceAlpha" type="matrix" values="0 0 0 0 0 0 0 0 0 0 0 0 0 0 0 0 0 0 127 0" result="hardAlpha"/>
<feOffset dy="1"/>
<feGaussianBlur stdDeviation="1"/>
<feColorMatrix type="matrix" values="0 0 0 0 0 0 0 0 0 0 0 0 0 0 0 0 0 0 0.06 0"/>
<feBlend mode="normal" in2="effect1_dropShadow_108_16241" result="effect2_dropShadow_108_16241"/>
<feBlend mode="normal" in="SourceGraphic" in2="effect2_dropShadow_108_16241" result="shape"/>
</filter>
<filter id="filter1_dd_108_16241" x="164" y="142" width="148" height="81" filterUnits="userSpaceOnUse" color-interpolation-filters="sRGB">
<feFlood flood-opacity="0" result="BackgroundImageFix"/>
<feColorMatrix in="SourceAlpha" type="matrix" values="0 0 0 0 0 0 0 0 0 0 0 0 0 0 0 0 0 0 127 0" result="hardAlpha"/>
<feOffset dy="1"/>
<feGaussianBlur stdDeviation="1.5"/>
<feColorMatrix type="matrix" values="0 0 0 0 0 0 0 0 0 0 0 0 0 0 0 0 0 0 0.1 0"/>
<feBlend mode="normal" in2="BackgroundImageFix" result="effect1_dropShadow_108_16241"/>
<feColorMatrix in="SourceAlpha" type="matrix" values="0 0 0 0 0 0 0 0 0 0 0 0 0 0 0 0 0 0 127 0" result="hardAlpha"/>
<feOffset dy="1"/>
<feGaussianBlur stdDeviation="1"/>
<feColorMatrix type="matrix" values="0 0 0 0 0 0 0 0 0 0 0 0 0 0 0 0 0 0 0.06 0"/>
<feBlend mode="normal" in2="effect1_dropShadow_108_16241" result="effect2_dropShadow_108_16241"/>
<feBlend mode="normal" in="SourceGraphic" in2="effect2_dropShadow_108_16241" result="shape"/>
</filter>
</defs>
</svg>
