<svg width="329" height="186" viewBox="0 0 329 186" fill="none" xmlns="http://www.w3.org/2000/svg">
<g filter="url(#filter0_dd_25_13059)">
<rect x="3" y="2" width="322.75" height="180" rx="16" fill="white"/>
</g>
<path d="M240.579 125H243.436L248.869 114.204V111.909H239.684V114.172H246.006V114.261L240.579 125ZM251.635 125H254.493L259.926 114.204V111.909H250.741V114.172H257.062V114.261L251.635 125ZM268.988 122.545C268.995 124.118 269.998 125.454 271.871 125.454C273.725 125.454 274.76 124.118 274.754 122.545V121.855C274.76 120.27 273.75 118.947 271.871 118.947C270.024 118.947 268.995 120.283 268.988 121.855V122.545ZM262.27 115.054C262.277 116.626 263.28 117.95 265.147 117.95C267.007 117.95 268.042 116.639 268.036 115.054V114.364C268.042 112.778 267.032 111.455 265.147 111.455C263.319 111.455 262.277 112.778 262.27 114.364V115.054ZM262.897 125H264.565L273.565 111.909H271.897L262.897 125ZM270.848 121.855C270.855 121.229 271.104 120.583 271.871 120.583C272.676 120.583 272.887 121.229 272.881 121.855V122.545C272.887 123.172 272.651 123.805 271.871 123.805C271.091 123.805 270.855 123.153 270.848 122.545V121.855ZM264.143 114.364C264.15 113.756 264.386 113.092 265.147 113.092C265.952 113.092 266.169 113.737 266.163 114.364V115.054C266.169 115.68 265.926 116.313 265.147 116.313C264.392 116.313 264.15 115.68 264.143 115.054V114.364Z" fill="#111928"/>
<path d="M297 118C297 140.091 279.091 158 257 158C234.909 158 217 140.091 217 118C217 95.9086 234.909 78 257 78C279.091 78 297 95.9086 297 118ZM221 118C221 137.882 237.118 154 257 154C276.882 154 293 137.882 293 118C293 98.1177 276.882 82 257 82C237.118 82 221 98.1177 221 118Z" fill="#F3F4F6"/>
<path d="M295 118C296.105 118 297.005 118.896 296.95 119.999C296.669 125.622 295.203 131.13 292.64 136.16C289.774 141.784 285.618 146.65 280.511 150.361C275.405 154.071 269.492 156.52 263.257 157.508C257.023 158.495 250.643 157.993 244.639 156.042C238.636 154.092 233.179 150.748 228.716 146.284C224.252 141.821 220.908 136.364 218.958 130.361C217.007 124.357 216.505 117.977 217.492 111.743C218.376 106.167 220.427 100.85 223.505 96.1354C224.108 95.2104 225.364 95.0149 226.257 95.6642C227.151 96.3134 227.344 97.5613 226.745 98.4896C224.036 102.691 222.228 107.417 221.443 112.368C220.554 117.98 221.006 123.721 222.762 129.125C224.518 134.528 227.527 139.439 231.544 143.456C235.561 147.473 240.472 150.482 245.875 152.238C251.279 153.994 257.02 154.446 262.632 153.557C268.243 152.668 273.564 150.464 278.16 147.125C282.756 143.785 286.497 139.406 289.076 134.344C291.352 129.877 292.667 124.99 292.944 119.999C293.006 118.896 293.895 118 295 118Z" fill="#0E9F6E"/>
<path d="M29.9723 46L31.0526 42.772H35.9744L37.0611 46H39.5923L34.9773 32.9091H32.0497L27.4411 46H29.9723ZM31.6918 40.8672L33.4624 35.5938H33.5646L35.3352 40.8672H31.6918ZM45.1982 46.1918C47.6655 46.1918 49.2379 44.728 49.4041 42.6442H47.1925C46.9943 43.6989 46.2337 44.3061 45.2173 44.3061C43.7727 44.3061 42.8395 43.098 42.8395 41.0909C42.8395 39.1094 43.7919 37.9205 45.2173 37.9205C46.3295 37.9205 47.0135 38.6364 47.1925 39.5824H49.4041C49.2443 37.4538 47.5824 36.054 45.1854 36.054C42.3089 36.054 40.4936 38.1314 40.4936 41.1293C40.4936 44.1016 42.2642 46.1918 45.1982 46.1918ZM56.2069 36.1818H54.2701V33.8295H51.9561V36.1818H50.5627V37.9716H51.9561V43.4304C51.9434 45.2777 53.2857 46.1854 55.0243 46.1342C55.6827 46.1151 56.1365 45.9872 56.3858 45.9041L55.9959 44.0952C55.8681 44.1271 55.606 44.1847 55.3184 44.1847C54.7367 44.1847 54.2701 43.9801 54.2701 43.0469V37.9716H56.2069V36.1818ZM58.142 46H60.456V36.1818H58.142V46ZM59.3054 34.7884C60.0405 34.7884 60.6413 34.2259 60.6413 33.5355C60.6413 32.8388 60.0405 32.2763 59.3054 32.2763C58.5639 32.2763 57.9631 32.8388 57.9631 33.5355C57.9631 34.2259 58.5639 34.7884 59.3054 34.7884ZM71.6053 36.1818H69.1444L66.8816 43.4751H66.7793L64.5229 36.1818H62.0556L65.552 46H68.1088L71.6053 36.1818ZM77.2191 46.1918C79.5075 46.1918 81.0799 45.0732 81.489 43.3665L79.3285 43.1236C79.0153 43.9545 78.2482 44.3892 77.2511 44.3892C75.7553 44.3892 74.7646 43.4048 74.7454 41.7237H81.5849V41.0142C81.5849 37.5689 79.5138 36.054 77.0977 36.054C74.2852 36.054 72.4506 38.1186 72.4506 41.1484C72.4506 44.2294 74.2596 46.1918 77.2191 46.1918ZM74.7518 40.1641C74.8221 38.9112 75.7489 37.8565 77.1296 37.8565C78.4592 37.8565 79.354 38.8281 79.3668 40.1641H74.7518ZM88.1096 46H90.481V41.5767H92.9867C96.0101 41.5767 97.6337 39.7614 97.6337 37.2429C97.6337 34.7436 96.0293 32.9091 93.0186 32.9091H88.1096V46ZM90.481 39.6271V34.8906H92.6543C94.4313 34.8906 95.2175 35.8494 95.2175 37.2429C95.2175 38.6364 94.4313 39.6271 92.6671 39.6271H90.481ZM102.241 46.1982C103.781 46.1982 104.702 45.4759 105.124 44.6513H105.2V46H107.425V39.429C107.425 36.8338 105.309 36.054 103.436 36.054C101.371 36.054 99.7862 36.9744 99.2749 38.7642L101.435 39.071C101.665 38.3999 102.317 37.8246 103.449 37.8246C104.523 37.8246 105.111 38.3743 105.111 39.3395V39.3778C105.111 40.0426 104.414 40.0746 102.682 40.2599C100.777 40.4645 98.9553 41.0334 98.9553 43.245C98.9553 45.1754 100.368 46.1982 102.241 46.1982ZM102.842 44.4979C101.876 44.4979 101.186 44.0568 101.186 43.2067C101.186 42.3182 101.96 41.9474 102.995 41.8004C103.602 41.7173 104.817 41.5639 105.117 41.321V42.478C105.117 43.571 104.235 44.4979 102.842 44.4979ZM109.751 46H112.065V40.228C112.065 38.9815 113.005 38.0994 114.277 38.0994C114.667 38.0994 115.153 38.1697 115.351 38.2337V36.1051C115.14 36.0668 114.776 36.0412 114.52 36.0412C113.395 36.0412 112.455 36.6804 112.097 37.8182H111.995V36.1818H109.751V46ZM122.318 36.1818H120.381V33.8295H118.067V36.1818H116.674V37.9716H118.067V43.4304C118.055 45.2777 119.397 46.1854 121.136 46.1342C121.794 46.1151 122.248 45.9872 122.497 45.9041L122.107 44.0952C121.979 44.1271 121.717 44.1847 121.43 44.1847C120.848 44.1847 120.381 43.9801 120.381 43.0469V37.9716H122.318V36.1818ZM124.253 46H126.567V36.1818H124.253V46ZM125.417 34.7884C126.152 34.7884 126.753 34.2259 126.753 33.5355C126.753 32.8388 126.152 32.2763 125.417 32.2763C124.675 32.2763 124.074 32.8388 124.074 33.5355C124.074 34.2259 124.675 34.7884 125.417 34.7884ZM133.229 46.1918C135.697 46.1918 137.269 44.728 137.435 42.6442H135.224C135.026 43.6989 134.265 44.3061 133.249 44.3061C131.804 44.3061 130.871 43.098 130.871 41.0909C130.871 39.1094 131.823 37.9205 133.249 37.9205C134.361 37.9205 135.045 38.6364 135.224 39.5824H137.435C137.276 37.4538 135.614 36.054 133.217 36.054C130.34 36.054 128.525 38.1314 128.525 41.1293C128.525 44.1016 130.295 46.1918 133.229 46.1918ZM139.335 46H141.649V36.1818H139.335V46ZM140.499 34.7884C141.234 34.7884 141.835 34.2259 141.835 33.5355C141.835 32.8388 141.234 32.2763 140.499 32.2763C139.757 32.2763 139.156 32.8388 139.156 33.5355C139.156 34.2259 139.757 34.7884 140.499 34.7884ZM144.029 49.6818H146.343V44.4531H146.439C146.803 45.169 147.564 46.1726 149.251 46.1726C151.565 46.1726 153.297 44.3381 153.297 41.1037C153.297 37.831 151.514 36.054 149.245 36.054C147.512 36.054 146.79 37.0959 146.439 37.8054H146.304V36.1818H144.029V49.6818ZM146.298 41.0909C146.298 39.1861 147.116 37.9524 148.605 37.9524C150.146 37.9524 150.939 39.2628 150.939 41.0909C150.939 42.9318 150.133 44.2741 148.605 44.2741C147.129 44.2741 146.298 42.9957 146.298 41.0909ZM158.104 46.1982C159.645 46.1982 160.565 45.4759 160.987 44.6513H161.064V46H163.288V39.429C163.288 36.8338 161.172 36.054 159.299 36.054C157.235 36.054 155.65 36.9744 155.138 38.7642L157.299 39.071C157.529 38.3999 158.181 37.8246 159.312 37.8246C160.386 37.8246 160.974 38.3743 160.974 39.3395V39.3778C160.974 40.0426 160.277 40.0746 158.545 40.2599C156.64 40.4645 154.819 41.0334 154.819 43.245C154.819 45.1754 156.231 46.1982 158.104 46.1982ZM158.705 44.4979C157.74 44.4979 157.049 44.0568 157.049 43.2067C157.049 42.3182 157.823 41.9474 158.858 41.8004C159.466 41.7173 160.68 41.5639 160.98 41.321V42.478C160.98 43.571 160.098 44.4979 158.705 44.4979ZM167.929 40.2472C167.929 38.8281 168.785 38.0099 170.006 38.0099C171.201 38.0099 171.917 38.7962 171.917 40.1065V46H174.231V39.7486C174.238 37.3963 172.895 36.054 170.869 36.054C169.399 36.054 168.389 36.7571 167.941 37.8501H167.826V36.1818H165.615V46H167.929V40.2472ZM181.486 36.1818H179.549V33.8295H177.235V36.1818H175.842V37.9716H177.235V43.4304C177.223 45.2777 178.565 46.1854 180.304 46.1342C180.962 46.1151 181.416 45.9872 181.665 45.9041L181.275 44.0952C181.147 44.1271 180.885 44.1847 180.598 44.1847C180.016 44.1847 179.549 43.9801 179.549 43.0469V37.9716H181.486V36.1818ZM191.041 38.777C190.721 37.1151 189.392 36.054 187.09 36.054C184.725 36.054 183.115 37.2173 183.121 39.0327C183.115 40.4645 183.997 41.4105 185.882 41.8004L187.557 42.152C188.458 42.3501 188.88 42.7145 188.88 43.2706C188.88 43.9418 188.151 44.4467 187.052 44.4467C185.991 44.4467 185.301 43.9865 185.102 43.1044L182.846 43.3217C183.134 45.1243 184.649 46.1918 187.058 46.1918C189.513 46.1918 191.245 44.9197 191.252 43.0597C191.245 41.6598 190.344 40.8033 188.49 40.4006L186.816 40.0426C185.818 39.8189 185.422 39.4737 185.428 38.9048C185.422 38.2401 186.157 37.7798 187.122 37.7798C188.19 37.7798 188.752 38.3615 188.931 39.0071L191.041 38.777Z" fill="#111928"/>
<path d="M28.4382 125.165V121.532L37.5469 107.182H40.679V112.21H38.8253L33.0831 121.298V121.468H46.027V125.165H28.4382ZM38.9105 129V124.057L38.9957 122.448V107.182H43.321V129H38.9105ZM53.6655 126.017L53.5483 127.189C53.456 128.126 53.2784 129.06 53.0156 129.991C52.7599 130.928 52.4901 131.777 52.206 132.537C51.929 133.297 51.7053 133.893 51.5348 134.327H48.5945C48.701 133.908 48.8466 133.322 49.0312 132.569C49.2159 131.823 49.3899 130.985 49.5533 130.055C49.7166 129.124 49.8196 128.176 49.8622 127.21L49.9155 126.017H53.6655ZM65.4482 129.479C63.6158 129.472 62.0391 129.021 60.718 128.126C59.4041 127.232 58.392 125.935 57.6818 124.238C56.9787 122.54 56.6307 120.499 56.6378 118.112C56.6378 115.733 56.9893 113.705 57.6925 112.029C58.4027 110.353 59.4148 109.078 60.7287 108.205C62.0497 107.324 63.6229 106.884 65.4482 106.884C67.2734 106.884 68.843 107.324 70.157 108.205C71.478 109.085 72.4936 110.364 73.2038 112.04C73.9141 113.709 74.2656 115.733 74.2585 118.112C74.2585 120.506 73.9034 122.551 73.1932 124.249C72.4901 125.946 71.4815 127.242 70.1676 128.137C68.8537 129.032 67.2805 129.479 65.4482 129.479ZM65.4482 125.655C66.6982 125.655 67.696 125.026 68.4418 123.769C69.1875 122.512 69.5568 120.626 69.5497 118.112C69.5497 116.457 69.3793 115.08 69.0384 113.979C68.7045 112.878 68.2287 112.05 67.6108 111.496C67 110.942 66.2791 110.665 65.4482 110.665C64.2053 110.665 63.2109 111.287 62.4652 112.53C61.7195 113.773 61.343 115.634 61.3359 118.112C61.3359 119.788 61.5028 121.188 61.8366 122.31C62.1776 123.425 62.657 124.263 63.2749 124.824C63.8928 125.378 64.6172 125.655 65.4482 125.655ZM85.5165 129.298C84.0108 129.298 82.6685 129.021 81.4895 128.467C80.3176 127.913 79.3873 127.15 78.6983 126.177C78.0094 125.204 77.6507 124.089 77.6223 122.832H82.0968C82.1465 123.677 82.5016 124.362 83.1621 124.888C83.8226 125.413 84.6074 125.676 85.5165 125.676C86.2409 125.676 86.8801 125.516 87.4341 125.197C87.9952 124.87 88.432 124.419 88.7445 123.844C89.0641 123.261 89.2239 122.594 89.2239 121.841C89.2239 121.074 89.0605 120.399 88.7338 119.817C88.4142 119.234 87.9703 118.78 87.4022 118.453C86.834 118.126 86.1841 117.96 85.4526 117.952C84.8134 117.952 84.1919 118.084 83.5882 118.347C82.9917 118.609 82.5265 118.968 82.1926 119.423L78.0911 118.688L79.1245 107.182H92.4625V110.953H82.9277L82.3631 116.418H82.4909C82.8745 115.879 83.4533 115.431 84.2275 115.076C85.0016 114.721 85.8681 114.543 86.8269 114.543C88.1408 114.543 89.3127 114.852 90.3425 115.47C91.3723 116.088 92.1855 116.937 92.7821 118.016C93.3787 119.089 93.6735 120.325 93.6664 121.724C93.6735 123.194 93.3326 124.501 92.6436 125.644C91.9618 126.781 91.0066 127.675 89.7779 128.329C88.5563 128.975 87.1358 129.298 85.5165 129.298ZM104.948 129.298C103.357 129.298 101.941 129.025 100.698 128.478C99.4618 127.924 98.4853 127.164 97.7679 126.198C97.0577 125.225 96.6919 124.103 96.6706 122.832H101.316C101.344 123.364 101.518 123.833 101.838 124.238C102.164 124.636 102.597 124.945 103.137 125.165C103.677 125.385 104.284 125.495 104.959 125.495C105.662 125.495 106.284 125.371 106.823 125.122C107.363 124.874 107.786 124.529 108.091 124.089C108.396 123.648 108.549 123.141 108.549 122.565C108.549 121.983 108.386 121.468 108.059 121.021C107.74 120.566 107.278 120.211 106.674 119.955C106.078 119.7 105.367 119.572 104.544 119.572H102.509V116.184H104.544C105.24 116.184 105.854 116.063 106.387 115.822C106.926 115.58 107.345 115.246 107.644 114.82C107.942 114.387 108.091 113.883 108.091 113.308C108.091 112.761 107.96 112.281 107.697 111.869C107.441 111.45 107.079 111.124 106.61 110.889C106.149 110.655 105.609 110.538 104.991 110.538C104.366 110.538 103.794 110.651 103.276 110.879C102.757 111.099 102.342 111.415 102.029 111.827C101.717 112.239 101.55 112.722 101.529 113.276H97.1074C97.1287 112.018 97.4874 110.911 98.1834 109.952C98.8794 108.993 99.8169 108.244 100.996 107.704C102.182 107.157 103.521 106.884 105.012 106.884C106.518 106.884 107.835 107.157 108.965 107.704C110.094 108.251 110.971 108.989 111.596 109.92C112.228 110.843 112.541 111.88 112.534 113.031C112.541 114.252 112.161 115.271 111.394 116.088C110.634 116.905 109.643 117.423 108.421 117.643V117.814C110.026 118.02 111.248 118.577 112.086 119.487C112.931 120.388 113.35 121.518 113.343 122.874C113.35 124.117 112.992 125.222 112.267 126.188C111.55 127.153 110.559 127.913 109.295 128.467C108.031 129.021 106.582 129.298 104.948 129.298Z" fill="#0E9F6E"/>
<path d="M270.095 35.2727H268.36L271.433 44H273.385L276.461 35.2727H274.723L272.456 42.142H272.366L270.095 35.2727ZM277.543 44H279.085V37.4545H277.543V44ZM278.318 36.5256C278.808 36.5256 279.209 36.1506 279.209 35.6903C279.209 35.2259 278.808 34.8509 278.318 34.8509C277.824 34.8509 277.423 35.2259 277.423 35.6903C277.423 36.1506 277.824 36.5256 278.318 36.5256ZM283.569 44.1278C285.095 44.1278 286.143 43.3821 286.416 42.2443L284.975 42.0824C284.767 42.6364 284.255 42.9261 283.591 42.9261C282.593 42.9261 281.933 42.2699 281.92 41.1491H286.48V40.6761C286.48 38.3793 285.099 37.3693 283.488 37.3693C281.613 37.3693 280.39 38.7457 280.39 40.7656C280.39 42.8196 281.596 44.1278 283.569 44.1278ZM281.924 40.1094C281.971 39.2741 282.589 38.571 283.51 38.571C284.396 38.571 284.993 39.2188 285.001 40.1094H281.924ZM289.1 44H290.711L291.939 39.5767H292.028L293.255 44H294.862L296.716 37.4545H295.139L294.005 42.0312H293.941L292.765 37.4545H291.21L290.034 42.0568H289.974L288.824 37.4545H287.251L289.1 44Z" fill="#1C64F2"/>
<path d="M208 36V40M208 44H208.01M217 40C217 41.1819 216.767 42.3522 216.315 43.4442C215.863 44.5361 215.2 45.5282 214.364 46.364C213.528 47.1997 212.536 47.8626 211.444 48.3149C210.352 48.7672 209.182 49 208 49C206.818 49 205.648 48.7672 204.556 48.3149C203.464 47.8626 202.472 47.1997 201.636 46.364C200.8 45.5282 200.137 44.5361 199.685 43.4442C199.233 42.3522 199 41.1819 199 40C199 37.6131 199.948 35.3239 201.636 33.636C203.324 31.9482 205.613 31 208 31C210.387 31 212.676 31.9482 214.364 33.636C216.052 35.3239 217 37.6131 217 40Z" stroke="#9CA3AF" stroke-width="2" stroke-linecap="round" stroke-linejoin="round"/>
<defs>
<filter id="filter0_dd_25_13059" x="0" y="0" width="328.75" height="186" filterUnits="userSpaceOnUse" color-interpolation-filters="sRGB">
<feFlood flood-opacity="0" result="BackgroundImageFix"/>
<feColorMatrix in="SourceAlpha" type="matrix" values="0 0 0 0 0 0 0 0 0 0 0 0 0 0 0 0 0 0 127 0" result="hardAlpha"/>
<feOffset dy="1"/>
<feGaussianBlur stdDeviation="1.5"/>
<feColorMatrix type="matrix" values="0 0 0 0 0 0 0 0 0 0 0 0 0 0 0 0 0 0 0.1 0"/>
<feBlend mode="normal" in2="BackgroundImageFix" result="effect1_dropShadow_25_13059"/>
<feColorMatrix in="SourceAlpha" type="matrix" values="0 0 0 0 0 0 0 0 0 0 0 0 0 0 0 0 0 0 127 0" result="hardAlpha"/>
<feOffset dy="1"/>
<feGaussianBlur stdDeviation="1"/>
<feColorMatrix type="matrix" values="0 0 0 0 0 0 0 0 0 0 0 0 0 0 0 0 0 0 0.06 0"/>
<feBlend mode="normal" in2="effect1_dropShadow_25_13059" result="effect2_dropShadow_25_13059"/>
<feBlend mode="normal" in="SourceGraphic" in2="effect2_dropShadow_25_13059" result="shape"/>
</filter>
</defs>
</svg>
