<svg width="329" height="186" viewBox="0 0 329 186" fill="none" xmlns="http://www.w3.org/2000/svg">
<g filter="url(#filter0_dd_109_16124)">
<rect x="3" y="2" width="322.75" height="180" rx="16" fill="white"/>
</g>
<path d="M244.085 125.179C247 125.192 248.988 123.281 248.982 120.615C248.988 118.161 247.275 116.39 244.955 116.39C243.516 116.39 242.244 117.08 241.656 118.237H241.567C241.58 115.687 242.474 114.102 244.181 114.102C245.185 114.102 245.907 114.651 246.118 115.565H248.847C248.585 113.411 246.795 111.73 244.181 111.73C240.947 111.73 238.869 114.351 238.857 118.749C238.85 123.543 241.394 125.166 244.085 125.179ZM244.072 123.006C242.794 123.006 241.848 121.977 241.848 120.698C241.854 119.426 242.82 118.391 244.092 118.391C245.37 118.391 246.303 119.394 246.297 120.692C246.303 122.002 245.351 123.006 244.072 123.006ZM250.944 125H260.276V122.737H254.779V122.648L256.69 120.775C259.381 118.32 260.104 117.093 260.104 115.604C260.104 113.335 258.25 111.73 255.444 111.73C252.695 111.73 250.81 113.373 250.816 115.942H253.443C253.437 114.69 254.229 113.923 255.425 113.923C256.575 113.923 257.432 114.638 257.432 115.789C257.432 116.831 256.793 117.547 255.604 118.691L250.944 123.006V125ZM269.447 122.545C269.454 124.118 270.457 125.454 272.33 125.454C274.184 125.454 275.219 124.118 275.213 122.545V121.855C275.219 120.27 274.209 118.947 272.33 118.947C270.483 118.947 269.454 120.283 269.447 121.855V122.545ZM262.729 115.054C262.736 116.626 263.739 117.95 265.606 117.95C267.466 117.95 268.501 116.639 268.495 115.054V114.364C268.501 112.778 267.491 111.455 265.606 111.455C263.778 111.455 262.736 112.778 262.729 114.364V115.054ZM263.356 125H265.024L274.024 111.909H272.356L263.356 125ZM271.307 121.855C271.314 121.229 271.563 120.583 272.33 120.583C273.135 120.583 273.346 121.229 273.34 121.855V122.545C273.346 123.172 273.11 123.805 272.33 123.805C271.55 123.805 271.314 123.153 271.307 122.545V121.855ZM264.602 114.364C264.608 113.756 264.845 113.092 265.606 113.092C266.411 113.092 266.628 113.737 266.622 114.364V115.054C266.628 115.68 266.385 116.313 265.606 116.313C264.851 116.313 264.608 115.68 264.602 115.054V114.364Z" fill="#111928"/>
<path d="M297 118C297 140.091 279.091 158 257 158C234.909 158 217 140.091 217 118C217 95.9086 234.909 78 257 78C279.091 78 297 95.9086 297 118ZM221 118C221 137.882 237.118 154 257 154C276.882 154 293 137.882 293 118C293 98.1177 276.882 82 257 82C237.118 82 221 98.1177 221 118Z" fill="#F3F4F6"/>
<path d="M295 118C296.105 118 297.005 118.896 296.95 119.999C296.676 125.471 295.281 130.836 292.842 135.758C290.107 141.279 286.133 146.093 281.232 149.825C276.33 153.557 270.633 156.106 264.584 157.275C258.535 158.443 252.298 158.198 246.359 156.559C240.42 154.92 234.94 151.931 230.347 147.826C225.753 143.721 222.169 138.61 219.876 132.892C217.582 127.175 216.64 121.004 217.123 114.862C217.554 109.386 219.108 104.065 221.679 99.2267C222.198 98.2514 223.43 97.9441 224.378 98.5106C225.327 99.0771 225.631 100.303 225.118 101.281C222.859 105.588 221.493 110.314 221.111 115.176C220.676 120.704 221.524 126.257 223.588 131.403C225.652 136.549 228.878 141.149 233.012 144.843C237.146 148.538 242.078 151.228 247.423 152.703C252.768 154.178 258.381 154.398 263.825 153.347C269.269 152.296 274.397 150.001 278.809 146.642C283.22 143.283 286.796 138.951 289.258 133.983C291.423 129.613 292.674 124.855 292.944 119.999C293.006 118.896 293.895 118 295 118Z" fill="#1C64F2"/>
<path d="M35.4055 32.5078H37.6875C37.6428 30.2962 35.7571 28.7301 32.9702 28.7301C30.2216 28.7301 28.157 30.277 28.1634 32.5909C28.1634 34.4702 29.4993 35.5504 31.6534 36.1065L33.1428 36.4901C34.5554 36.848 35.4886 37.2891 35.495 38.3054C35.4886 39.424 34.4276 40.1719 32.8807 40.1719C31.3977 40.1719 30.2472 39.5071 30.1513 38.1328H27.8182C27.9141 40.7344 29.8509 42.1982 32.8999 42.1982C36.0384 42.1982 37.8601 40.6321 37.8665 38.3246C37.8601 36.0554 35.9872 35.0199 34.0185 34.5533L32.7912 34.2464C31.7173 33.9908 30.554 33.5369 30.5668 32.4439C30.5732 31.4595 31.4553 30.7372 32.9382 30.7372C34.3509 30.7372 35.2841 31.3956 35.4055 32.5078ZM39.8784 42H42.1923V32.1818H39.8784V42ZM41.0417 30.7884C41.7768 30.7884 42.3777 30.2259 42.3777 29.5355C42.3777 28.8388 41.7768 28.2763 41.0417 28.2763C40.3002 28.2763 39.6994 28.8388 39.6994 29.5355C39.6994 30.2259 40.3002 30.7884 41.0417 30.7884ZM48.8416 45.8864C51.4943 45.8864 53.4503 44.6719 53.4503 42.1598V32.1818H51.1683V33.8054H51.0405C50.6889 33.0959 49.9538 32.054 48.2216 32.054C45.9524 32.054 44.169 33.831 44.169 37.0589C44.169 40.2614 45.9524 41.8594 48.2152 41.8594C49.8963 41.8594 50.6825 40.9581 51.0405 40.2358H51.1555V42.0959C51.1555 43.5405 50.1967 44.1349 48.88 44.1349C47.4865 44.1349 46.8729 43.4766 46.5916 42.9013L44.5078 43.4062C44.9297 44.7805 46.3423 45.8864 48.8416 45.8864ZM48.8608 40.044C47.3331 40.044 46.5277 38.8551 46.5277 37.0462C46.5277 35.2628 47.3203 33.9524 48.8608 33.9524C50.3501 33.9524 51.1683 35.1861 51.1683 37.0462C51.1683 38.919 50.3374 40.044 48.8608 40.044ZM58.1357 36.2472C58.1357 34.8281 58.9922 34.0099 60.2131 34.0099C61.4084 34.0099 62.1243 34.7962 62.1243 36.1065V42H64.4382V35.7486C64.4446 33.3963 63.1023 32.054 61.076 32.054C59.6058 32.054 58.5959 32.7571 58.1484 33.8501H58.0334V32.1818H55.8217V42H58.1357V36.2472ZM71.1371 42.1918C73.4254 42.1918 74.9979 41.0732 75.407 39.3665L73.2464 39.1236C72.9332 39.9545 72.1662 40.3892 71.169 40.3892C69.6733 40.3892 68.6825 39.4048 68.6634 37.7237H75.5028V37.0142C75.5028 33.5689 73.4318 32.054 71.0156 32.054C68.2031 32.054 66.3686 34.1186 66.3686 37.1484C66.3686 40.2294 68.1776 42.1918 71.1371 42.1918ZM68.6697 36.1641C68.7401 34.9112 69.6669 33.8565 71.0476 33.8565C72.3771 33.8565 73.272 34.8281 73.2848 36.1641H68.6697ZM81.1039 42.1726C82.7914 42.1726 83.552 41.169 83.9164 40.4531H84.057V42H86.3326V28.9091H84.0123V33.8054H83.9164C83.5648 33.0959 82.8425 32.054 81.1103 32.054C78.8411 32.054 77.0577 33.831 77.0577 37.1037C77.0577 40.3381 78.79 42.1726 81.1039 42.1726ZM81.7495 40.2741C80.2218 40.2741 79.4164 38.9318 79.4164 37.0909C79.4164 35.2628 80.209 33.9524 81.7495 33.9524C83.2388 33.9524 84.057 35.1861 84.057 37.0909C84.057 38.9957 83.226 40.2741 81.7495 40.2741ZM93.2631 42H95.5771V32.1818H93.2631V42ZM94.4265 30.7884C95.1616 30.7884 95.7624 30.2259 95.7624 29.5355C95.7624 28.8388 95.1616 28.2763 94.4265 28.2763C93.685 28.2763 93.0842 28.8388 93.0842 29.5355C93.0842 30.2259 93.685 30.7884 94.4265 30.7884ZM100.27 36.2472C100.27 34.8281 101.127 34.0099 102.348 34.0099C103.543 34.0099 104.259 34.7962 104.259 36.1065V42H106.573V35.7486C106.579 33.3963 105.237 32.054 103.211 32.054C101.741 32.054 100.731 32.7571 100.283 33.8501H100.168V32.1818H97.9565V42H100.27V36.2472ZM28.2912 69H30.6626V64.5767H33.1683C36.1918 64.5767 37.8153 62.7614 37.8153 60.2429C37.8153 57.7436 36.2109 55.9091 33.2003 55.9091H28.2912V69ZM30.6626 62.6271V57.8906H32.8359C34.6129 57.8906 35.3991 58.8494 35.3991 60.2429C35.3991 61.6364 34.6129 62.6271 32.8487 62.6271H30.6626ZM42.4224 69.1982C43.9629 69.1982 44.8833 68.4759 45.3052 67.6513H45.3819V69H47.6064V62.429C47.6064 59.8338 45.4906 59.054 43.6177 59.054C41.5531 59.054 39.9679 59.9744 39.4565 61.7642L41.617 62.071C41.8471 61.3999 42.4991 60.8246 43.6305 60.8246C44.7044 60.8246 45.2924 61.3743 45.2924 62.3395V62.3778C45.2924 63.0426 44.5957 63.0746 42.8635 63.2599C40.9586 63.4645 39.1369 64.0334 39.1369 66.245C39.1369 68.1754 40.5495 69.1982 42.4224 69.1982ZM43.0233 67.4979C42.0581 67.4979 41.3677 67.0568 41.3677 66.2067C41.3677 65.3182 42.1412 64.9474 43.1767 64.8004C43.7839 64.7173 44.9984 64.5639 45.2988 64.321V65.478C45.2988 66.571 44.4167 67.4979 43.0233 67.4979ZM49.9331 69H52.247V63.228C52.247 61.9815 53.1866 61.0994 54.4586 61.0994C54.8485 61.0994 55.3343 61.1697 55.5325 61.2337V59.1051C55.3216 59.0668 54.9572 59.0412 54.7015 59.0412C53.5765 59.0412 52.6369 59.6804 52.2789 60.8182H52.1767V59.1818H49.9331V69ZM62.4998 59.1818H60.563V56.8295H58.2491V59.1818H56.8556V60.9716H58.2491V66.4304C58.2363 68.2777 59.5787 69.1854 61.3173 69.1342C61.9757 69.1151 62.4295 68.9872 62.6788 68.9041L62.2889 67.0952C62.161 67.1271 61.899 67.1847 61.6113 67.1847C61.0297 67.1847 60.563 66.9801 60.563 66.0469V60.9716H62.4998V59.1818ZM64.435 69H66.7489V59.1818H64.435V69ZM65.5984 57.7884C66.3335 57.7884 66.9343 57.2259 66.9343 56.5355C66.9343 55.8388 66.3335 55.2763 65.5984 55.2763C64.8569 55.2763 64.256 55.8388 64.256 56.5355C64.256 57.2259 64.8569 57.7884 65.5984 57.7884ZM73.411 69.1918C75.8784 69.1918 77.4508 67.728 77.617 65.6442H75.4054C75.2072 66.6989 74.4466 67.3061 73.4302 67.3061C71.9856 67.3061 71.0524 66.098 71.0524 64.0909C71.0524 62.1094 72.0048 60.9205 73.4302 60.9205C74.5424 60.9205 75.2264 61.6364 75.4054 62.5824H77.617C77.4572 60.4538 75.7953 59.054 73.3983 59.054C70.5218 59.054 68.7065 61.1314 68.7065 64.1293C68.7065 67.1016 70.4771 69.1918 73.411 69.1918ZM79.517 69H81.831V59.1818H79.517V69ZM80.6804 57.7884C81.4155 57.7884 82.0163 57.2259 82.0163 56.5355C82.0163 55.8388 81.4155 55.2763 80.6804 55.2763C79.9389 55.2763 79.3381 55.8388 79.3381 56.5355C79.3381 57.2259 79.9389 57.7884 80.6804 57.7884ZM84.2104 72.6818H86.5243V67.4531H86.6202C86.9846 68.169 87.7452 69.1726 89.4327 69.1726C91.7466 69.1726 93.4789 67.3381 93.4789 64.1037C93.4789 60.831 91.6955 59.054 89.4263 59.054C87.6941 59.054 86.9718 60.0959 86.6202 60.8054H86.486V59.1818H84.2104V72.6818ZM86.4796 64.0909C86.4796 62.1861 87.2978 60.9524 88.7871 60.9524C90.3276 60.9524 91.1202 62.2628 91.1202 64.0909C91.1202 65.9318 90.3148 67.2741 88.7871 67.2741C87.3105 67.2741 86.4796 65.9957 86.4796 64.0909ZM98.2857 69.1982C99.8262 69.1982 100.747 68.4759 101.169 67.6513H101.245V69H103.47V62.429C103.47 59.8338 101.354 59.054 99.481 59.054C97.4164 59.054 95.8311 59.9744 95.3198 61.7642L97.4803 62.071C97.7104 61.3999 98.3624 60.8246 99.4938 60.8246C100.568 60.8246 101.156 61.3743 101.156 62.3395V62.3778C101.156 63.0426 100.459 63.0746 98.7267 63.2599C96.8219 63.4645 95.0002 64.0334 95.0002 66.245C95.0002 68.1754 96.4128 69.1982 98.2857 69.1982ZM98.8865 67.4979C97.9213 67.4979 97.231 67.0568 97.231 66.2067C97.231 65.3182 98.0044 64.9474 99.04 64.8004C99.6472 64.7173 100.862 64.5639 101.162 64.321V65.478C101.162 66.571 100.28 67.4979 98.8865 67.4979ZM108.11 63.2472C108.11 61.8281 108.967 61.0099 110.188 61.0099C111.383 61.0099 112.099 61.7962 112.099 63.1065V69H114.413V62.7486C114.419 60.3963 113.077 59.054 111.051 59.054C109.58 59.054 108.57 59.7571 108.123 60.8501H108.008V59.1818H105.796V69H108.11V63.2472ZM121.668 59.1818H119.731V56.8295H117.417V59.1818H116.024V60.9716H117.417V66.4304C117.404 68.2777 118.747 69.1854 120.485 69.1342C121.144 69.1151 121.597 68.9872 121.847 68.9041L121.457 67.0952C121.329 67.1271 121.067 67.1847 120.779 67.1847C120.198 67.1847 119.731 66.9801 119.731 66.0469V60.9716H121.668V59.1818ZM131.222 61.777C130.903 60.1151 129.573 59.054 127.272 59.054C124.907 59.054 123.296 60.2173 123.303 62.0327C123.296 63.4645 124.178 64.4105 126.064 64.8004L127.739 65.152C128.64 65.3501 129.062 65.7145 129.062 66.2706C129.062 66.9418 128.333 67.4467 127.234 67.4467C126.173 67.4467 125.482 66.9865 125.284 66.1044L123.028 66.3217C123.315 68.1243 124.83 69.1918 127.24 69.1918C129.695 69.1918 131.427 67.9197 131.433 66.0597C131.427 64.6598 130.526 63.8033 128.672 63.4006L126.997 63.0426C126 62.8189 125.604 62.4737 125.61 61.9048C125.604 61.2401 126.339 60.7798 127.304 60.7798C128.371 60.7798 128.934 61.3615 129.113 62.0071L131.222 61.777Z" fill="#111928"/>
<path d="M24.7685 129H40.3224V125.229H31.1605V125.08L34.3459 121.958C38.831 117.867 40.0348 115.822 40.0348 113.339C40.0348 109.558 36.9453 106.884 32.2685 106.884C27.6875 106.884 24.5447 109.621 24.5554 113.904H28.9339C28.9233 111.816 30.2443 110.538 32.2365 110.538C34.1541 110.538 35.5817 111.731 35.5817 113.648C35.5817 115.385 34.5163 116.578 32.5348 118.485L24.7685 125.676V129ZM48.6401 126.017H44.8901L44.8368 127.21C44.709 130.108 43.878 133.08 43.5691 134.327H46.5094C47.0208 133.038 48.2353 130.012 48.5229 127.189L48.6401 126.017ZM60.54 129.298C65.3979 129.298 68.7005 126.134 68.6898 121.724C68.7005 117.548 65.7814 114.543 61.8503 114.543C59.9327 114.543 58.2814 115.342 57.5144 116.418H57.3865L57.9512 110.953H67.486V107.182H54.1479L53.1145 118.688L57.2161 119.423C57.8873 118.517 59.187 117.952 60.476 117.952C62.6706 117.963 64.2473 119.55 64.2473 121.841C64.2473 124.11 62.7026 125.676 60.54 125.676C58.7076 125.676 57.2267 124.526 57.1202 122.832H52.6458C52.731 126.603 56.0229 129.298 60.54 129.298ZM71.5769 125.165H82.0492V129H86.4597V125.165H89.1657V121.468H86.4597V107.182H80.6855L71.5769 121.532V125.165ZM82.1344 121.468H76.2218V121.298L81.964 112.21H82.1344V121.468ZM91.9089 125.165H102.381V129H106.792V125.165H109.498V121.468H106.792V107.182H101.018L91.9089 121.532V125.165ZM102.466 121.468H96.5538V121.298L102.296 112.21H102.466V121.468Z" fill="#1C64F2"/>
<path d="M270.095 31.2727H268.36L271.433 40H273.385L276.461 31.2727H274.723L272.456 38.142H272.366L270.095 31.2727ZM277.543 40H279.085V33.4545H277.543V40ZM278.318 32.5256C278.808 32.5256 279.209 32.1506 279.209 31.6903C279.209 31.2259 278.808 30.8509 278.318 30.8509C277.824 30.8509 277.423 31.2259 277.423 31.6903C277.423 32.1506 277.824 32.5256 278.318 32.5256ZM283.569 40.1278C285.095 40.1278 286.143 39.3821 286.416 38.2443L284.975 38.0824C284.767 38.6364 284.255 38.9261 283.591 38.9261C282.593 38.9261 281.933 38.2699 281.92 37.1491H286.48V36.6761C286.48 34.3793 285.099 33.3693 283.488 33.3693C281.613 33.3693 280.39 34.7457 280.39 36.7656C280.39 38.8196 281.596 40.1278 283.569 40.1278ZM281.924 36.1094C281.971 35.2741 282.589 34.571 283.51 34.571C284.396 34.571 284.993 35.2188 285.001 36.1094H281.924ZM289.1 40H290.711L291.939 35.5767H292.028L293.255 40H294.862L296.716 33.4545H295.139L294.005 38.0312H293.941L292.765 33.4545H291.21L290.034 38.0568H289.974L288.824 33.4545H287.251L289.1 40Z" fill="#1C64F2"/>
<path d="M148 60V64M148 68H148.01M157 64C157 65.1819 156.767 66.3522 156.315 67.4442C155.863 68.5361 155.2 69.5282 154.364 70.364C153.528 71.1997 152.536 71.8626 151.444 72.3149C150.352 72.7672 149.182 73 148 73C146.818 73 145.648 72.7672 144.556 72.3149C143.464 71.8626 142.472 71.1997 141.636 70.364C140.8 69.5282 140.137 68.5361 139.685 67.4442C139.233 66.3522 139 65.1819 139 64C139 61.6131 139.948 59.3239 141.636 57.636C143.324 55.9482 145.613 55 148 55C150.387 55 152.676 55.9482 154.364 57.636C156.052 59.3239 157 61.6131 157 64Z" stroke="#9CA3AF" stroke-width="2" stroke-linecap="round" stroke-linejoin="round"/>
<defs>
<filter id="filter0_dd_109_16124" x="0" y="0" width="328.75" height="186" filterUnits="userSpaceOnUse" color-interpolation-filters="sRGB">
<feFlood flood-opacity="0" result="BackgroundImageFix"/>
<feColorMatrix in="SourceAlpha" type="matrix" values="0 0 0 0 0 0 0 0 0 0 0 0 0 0 0 0 0 0 127 0" result="hardAlpha"/>
<feOffset dy="1"/>
<feGaussianBlur stdDeviation="1.5"/>
<feColorMatrix type="matrix" values="0 0 0 0 0 0 0 0 0 0 0 0 0 0 0 0 0 0 0.1 0"/>
<feBlend mode="normal" in2="BackgroundImageFix" result="effect1_dropShadow_109_16124"/>
<feColorMatrix in="SourceAlpha" type="matrix" values="0 0 0 0 0 0 0 0 0 0 0 0 0 0 0 0 0 0 127 0" result="hardAlpha"/>
<feOffset dy="1"/>
<feGaussianBlur stdDeviation="1"/>
<feColorMatrix type="matrix" values="0 0 0 0 0 0 0 0 0 0 0 0 0 0 0 0 0 0 0.06 0"/>
<feBlend mode="normal" in2="effect1_dropShadow_109_16124" result="effect2_dropShadow_109_16124"/>
<feBlend mode="normal" in="SourceGraphic" in2="effect2_dropShadow_109_16124" result="shape"/>
</filter>
</defs>
</svg>
