<svg width="329" height="186" viewBox="0 0 329 186" fill="none" xmlns="http://www.w3.org/2000/svg">
<g filter="url(#filter0_dd_109_16125)">
<rect x="3" y="2" width="322.75" height="180" rx="16" fill="white"/>
</g>
<path d="M244.085 125.179C247 125.192 248.988 123.281 248.982 120.615C248.988 118.161 247.275 116.39 244.955 116.39C243.516 116.39 242.244 117.08 241.656 118.237H241.567C241.58 115.687 242.474 114.102 244.181 114.102C245.185 114.102 245.907 114.651 246.118 115.565H248.847C248.585 113.411 246.795 111.73 244.181 111.73C240.947 111.73 238.869 114.351 238.857 118.749C238.85 123.543 241.394 125.166 244.085 125.179ZM244.072 123.006C242.794 123.006 241.848 121.977 241.848 120.698C241.854 119.426 242.82 118.391 244.092 118.391C245.37 118.391 246.303 119.394 246.297 120.692C246.303 122.002 245.351 123.006 244.072 123.006ZM250.944 125H260.276V122.737H254.779V122.648L256.69 120.775C259.381 118.32 260.104 117.093 260.104 115.604C260.104 113.335 258.25 111.73 255.444 111.73C252.695 111.73 250.81 113.373 250.816 115.942H253.443C253.437 114.69 254.229 113.923 255.425 113.923C256.575 113.923 257.432 114.638 257.432 115.789C257.432 116.831 256.793 117.547 255.604 118.691L250.944 123.006V125ZM269.447 122.545C269.454 124.118 270.457 125.454 272.33 125.454C274.184 125.454 275.219 124.118 275.213 122.545V121.855C275.219 120.27 274.209 118.947 272.33 118.947C270.483 118.947 269.454 120.283 269.447 121.855V122.545ZM262.729 115.054C262.736 116.626 263.739 117.95 265.606 117.95C267.466 117.95 268.501 116.639 268.495 115.054V114.364C268.501 112.778 267.491 111.455 265.606 111.455C263.778 111.455 262.736 112.778 262.729 114.364V115.054ZM263.356 125H265.024L274.024 111.909H272.356L263.356 125ZM271.307 121.855C271.314 121.229 271.563 120.583 272.33 120.583C273.135 120.583 273.346 121.229 273.34 121.855V122.545C273.346 123.172 273.11 123.805 272.33 123.805C271.55 123.805 271.314 123.153 271.307 122.545V121.855ZM264.602 114.364C264.608 113.756 264.845 113.092 265.606 113.092C266.411 113.092 266.628 113.737 266.622 114.364V115.054C266.628 115.68 266.385 116.313 265.606 116.313C264.851 116.313 264.608 115.68 264.602 115.054V114.364Z" fill="#111928"/>
<path d="M297 118C297 140.091 279.091 158 257 158C234.909 158 217 140.091 217 118C217 95.9086 234.909 78 257 78C279.091 78 297 95.9086 297 118ZM221 118C221 137.882 237.118 154 257 154C276.882 154 293 137.882 293 118C293 98.1177 276.882 82 257 82C237.118 82 221 98.1177 221 118Z" fill="#F3F4F6"/>
<path d="M295 118C296.105 118 297.005 118.896 296.95 119.999C296.676 125.471 295.281 130.836 292.842 135.758C290.107 141.279 286.133 146.093 281.232 149.825C276.33 153.557 270.633 156.106 264.584 157.275C258.535 158.443 252.298 158.198 246.359 156.559C240.42 154.92 234.94 151.931 230.347 147.826C225.753 143.721 222.169 138.61 219.876 132.892C217.582 127.175 216.64 121.004 217.123 114.862C217.554 109.386 219.108 104.065 221.679 99.2267C222.198 98.2514 223.43 97.9441 224.378 98.5106C225.327 99.0771 225.631 100.303 225.118 101.281C222.859 105.588 221.493 110.314 221.111 115.176C220.676 120.704 221.524 126.257 223.588 131.403C225.652 136.549 228.878 141.149 233.012 144.843C237.146 148.538 242.078 151.228 247.423 152.703C252.768 154.178 258.381 154.398 263.825 153.347C269.269 152.296 274.397 150.001 278.809 146.642C283.22 143.283 286.796 138.951 289.258 133.983C291.423 129.613 292.674 124.855 292.944 119.999C293.006 118.896 293.895 118 295 118Z" fill="#FF8A4C"/>
<path d="M32.7273 46H28.2912V32.9091H32.8168C34.1165 32.9091 35.233 33.1712 36.1662 33.6953C37.1037 34.2152 37.8239 34.9631 38.3267 35.9389C38.8295 36.9148 39.081 38.0824 39.081 39.4418C39.081 40.8054 38.8274 41.9773 38.3203 42.9574C37.8175 43.9375 37.0909 44.6896 36.1406 45.2138C35.1946 45.7379 34.0568 46 32.7273 46ZM30.6626 43.9482H32.6122C33.5241 43.9482 34.2848 43.782 34.8942 43.4496C35.5036 43.1129 35.9616 42.6122 36.2685 41.9474C36.5753 41.2784 36.7287 40.4432 36.7287 39.4418C36.7287 38.4403 36.5753 37.6094 36.2685 36.9489C35.9616 36.2841 35.5078 35.7876 34.907 35.4595C34.3104 35.1271 33.5689 34.9609 32.6825 34.9609H30.6626V43.9482ZM41.2319 46V36.1818H43.5458V46H41.2319ZM42.3952 34.7884C42.0288 34.7884 41.7134 34.6669 41.4492 34.424C41.185 34.1768 41.0529 33.8807 41.0529 33.5355C41.0529 33.1861 41.185 32.8899 41.4492 32.647C41.7134 32.3999 42.0288 32.2763 42.3952 32.2763C42.766 32.2763 43.0813 32.3999 43.3413 32.647C43.6055 32.8899 43.7376 33.1861 43.7376 33.5355C43.7376 33.8807 43.6055 34.1768 43.3413 34.424C43.0813 34.6669 42.766 34.7884 42.3952 34.7884ZM53.6852 38.777L51.5758 39.0071C51.5162 38.794 51.4118 38.5938 51.2626 38.4062C51.1177 38.2188 50.9217 38.0675 50.6745 37.9524C50.4274 37.8374 50.1248 37.7798 49.7669 37.7798C49.2853 37.7798 48.8805 37.8842 48.5524 38.093C48.2285 38.3018 48.0687 38.5724 48.073 38.9048C48.0687 39.1903 48.1731 39.4226 48.3862 39.6016C48.6035 39.7805 48.9615 39.9276 49.4601 40.0426L51.1348 40.4006C52.0637 40.6009 52.7541 40.9183 53.2058 41.353C53.6618 41.7876 53.8919 42.3565 53.8961 43.0597C53.8919 43.6776 53.7108 44.223 53.3528 44.696C52.9991 45.1648 52.5069 45.5312 51.8762 45.7955C51.2456 46.0597 50.5211 46.1918 49.7029 46.1918C48.5012 46.1918 47.5339 45.9403 46.801 45.4375C46.068 44.9304 45.6312 44.2251 45.4906 43.3217L47.747 43.1044C47.8493 43.5476 48.0666 43.8821 48.399 44.108C48.7314 44.3338 49.1639 44.4467 49.6966 44.4467C50.2463 44.4467 50.6873 44.3338 51.0197 44.108C51.3564 43.8821 51.5247 43.603 51.5247 43.2706C51.5247 42.9893 51.416 42.7571 51.1987 42.5739C50.9856 42.3906 50.6532 42.25 50.2015 42.152L48.5268 41.8004C47.585 41.6044 46.8883 41.2741 46.4366 40.8097C45.9849 40.3409 45.7612 39.7486 45.7654 39.0327C45.7612 38.4276 45.9252 37.9034 46.2576 37.4602C46.5943 37.0128 47.0609 36.6676 47.6575 36.4247C48.2583 36.1776 48.9508 36.054 49.7349 36.054C50.8855 36.054 51.791 36.299 52.4515 36.7891C53.1163 37.2791 53.5275 37.9418 53.6852 38.777ZM60.0868 46.1918C59.1067 46.1918 58.2651 45.9766 57.562 45.5462C56.8631 45.1158 56.324 44.5213 55.9448 43.7628C55.5698 43 55.3823 42.1222 55.3823 41.1293C55.3823 40.1321 55.574 39.2521 55.9576 38.4893C56.3411 37.7223 56.8823 37.1257 57.5811 36.6996C58.2843 36.2692 59.1152 36.054 60.074 36.054C60.8709 36.054 61.5762 36.201 62.1898 36.495C62.8077 36.7848 63.2999 37.196 63.6664 37.7287C64.0328 38.2571 64.2417 38.875 64.2928 39.5824H62.0811C61.9917 39.1094 61.7786 38.7152 61.4419 38.3999C61.1096 38.0803 60.6642 37.9205 60.106 37.9205C59.633 37.9205 59.2175 38.0483 58.8596 38.304C58.5016 38.5554 58.2225 38.9176 58.0222 39.3906C57.8262 39.8636 57.7282 40.4304 57.7282 41.0909C57.7282 41.7599 57.8262 42.3352 58.0222 42.8168C58.2182 43.294 58.4931 43.6626 58.8468 43.9226C59.2047 44.1783 59.6245 44.3061 60.106 44.3061C60.4469 44.3061 60.7516 44.2422 61.0201 44.1143C61.2928 43.9822 61.5208 43.7926 61.704 43.5455C61.8873 43.2983 62.013 42.9979 62.0811 42.6442H64.2928C64.2374 43.3388 64.0328 43.9545 63.6792 44.4915C63.3255 45.0241 62.8439 45.4418 62.2346 45.7443C61.6252 46.0426 60.9093 46.1918 60.0868 46.1918ZM68.5067 40.2472V46H66.1928V32.9091H68.4556V37.8501H68.5707C68.8008 37.2962 69.1566 36.8594 69.6381 36.5398C70.1239 36.2159 70.7418 36.054 71.4918 36.054C72.1737 36.054 72.7681 36.1967 73.2752 36.4822C73.7823 36.7678 74.1744 37.1854 74.4514 37.7351C74.7326 38.2848 74.8732 38.956 74.8732 39.7486V46H72.5593V40.1065C72.5593 39.446 72.3888 38.9325 72.0479 38.5661C71.7113 38.1953 71.2383 38.0099 70.6289 38.0099C70.2198 38.0099 69.8533 38.0994 69.5295 38.2784C69.2099 38.4531 68.9585 38.7067 68.7752 39.0391C68.5962 39.3714 68.5067 39.7741 68.5067 40.2472ZM80.0572 46.1982C79.435 46.1982 78.8746 46.0874 78.3761 45.8658C77.8817 45.6399 77.4897 45.3075 77.1999 44.8686C76.9144 44.4297 76.7717 43.8885 76.7717 43.245C76.7717 42.6911 76.8739 42.233 77.0785 41.8707C77.283 41.5085 77.5621 41.2188 77.9158 41.0014C78.2695 40.7841 78.668 40.62 79.1112 40.5092C79.5586 40.3942 80.021 40.3111 80.4982 40.2599C81.0735 40.2003 81.5401 40.147 81.8981 40.1001C82.256 40.049 82.516 39.9723 82.6779 39.87C82.8441 39.7635 82.9272 39.5994 82.9272 39.3778V39.3395C82.9272 38.858 82.7844 38.4851 82.4989 38.2209C82.2134 37.9567 81.8022 37.8246 81.2653 37.8246C80.6985 37.8246 80.2489 37.9482 79.9165 38.1953C79.5884 38.4425 79.3668 38.7344 79.2518 39.071L77.0913 38.7642C77.2617 38.1676 77.543 37.669 77.935 37.2685C78.3271 36.8636 78.8065 36.5611 79.3732 36.3608C79.94 36.1562 80.5664 36.054 81.2525 36.054C81.7255 36.054 82.1964 36.1094 82.6651 36.2202C83.1339 36.331 83.5621 36.5142 83.9499 36.7699C84.3377 37.0213 84.6488 37.3643 84.8832 37.799C85.1218 38.2337 85.2411 38.777 85.2411 39.429V46H83.0167V44.6513H82.94C82.7994 44.924 82.6012 45.1797 82.3455 45.4183C82.0941 45.6527 81.7766 45.8423 81.3931 45.9872C81.0138 46.1278 80.5685 46.1982 80.0572 46.1982ZM80.658 44.4979C81.1225 44.4979 81.5252 44.4062 81.8661 44.223C82.207 44.0355 82.4691 43.7884 82.6523 43.4815C82.8398 43.1747 82.9336 42.8402 82.9336 42.478V41.321C82.8612 41.3807 82.7376 41.4361 82.5629 41.4872C82.3924 41.5384 82.2006 41.5831 81.9876 41.6214C81.7745 41.6598 81.5636 41.6939 81.3548 41.7237C81.146 41.7536 80.9648 41.7791 80.8114 41.8004C80.4663 41.8473 80.1573 41.924 79.8846 42.0305C79.6119 42.1371 79.3967 42.2862 79.239 42.478C79.0813 42.6655 79.0025 42.9084 79.0025 43.2067C79.0025 43.6328 79.158 43.9545 79.4691 44.1719C79.7802 44.3892 80.1765 44.4979 80.658 44.4979ZM87.5678 46V36.1818H89.8114V37.8182H89.9137C90.0927 37.2514 90.3995 36.8146 90.8342 36.5078C91.2731 36.1967 91.7738 36.0412 92.3363 36.0412C92.4641 36.0412 92.6069 36.0476 92.7646 36.0604C92.9265 36.0689 93.0607 36.0838 93.1673 36.1051V38.2337C93.0692 38.1996 92.9137 38.1697 92.7006 38.1442C92.4918 38.1143 92.2894 38.0994 92.0934 38.0994C91.6715 38.0994 91.2923 38.1911 90.9556 38.3743C90.6232 38.5533 90.3612 38.8026 90.1694 39.1222C89.9776 39.4418 89.8817 39.8104 89.8817 40.228V46H87.5678ZM98.5701 49.8864C97.7392 49.8864 97.0254 49.7734 96.4288 49.5476C95.8322 49.326 95.3528 49.0277 94.9906 48.6527C94.6284 48.2777 94.377 47.8622 94.2363 47.4062L96.3201 46.9013C96.4139 47.093 96.5502 47.2827 96.7292 47.4702C96.9082 47.6619 97.149 47.8196 97.4515 47.9432C97.7583 48.071 98.144 48.1349 98.6085 48.1349C99.2647 48.1349 99.8081 47.9751 100.238 47.6555C100.669 47.3402 100.884 46.8203 100.884 46.0959V44.2358H100.769C100.65 44.4744 100.475 44.7195 100.245 44.9709C100.019 45.2223 99.7186 45.4332 99.3436 45.6037C98.9728 45.7741 98.5062 45.8594 97.9437 45.8594C97.1895 45.8594 96.5055 45.6825 95.8919 45.3288C95.2825 44.9709 94.7967 44.4382 94.4345 43.7308C94.0765 43.0192 93.8975 42.1286 93.8975 41.0589C93.8975 39.9808 94.0765 39.071 94.4345 38.3295C94.7967 37.5838 95.2846 37.0192 95.8983 36.6357C96.5119 36.2479 97.1958 36.054 97.9501 36.054C98.5254 36.054 98.9984 36.152 99.3691 36.348C99.7441 36.5398 100.042 36.772 100.264 37.0447C100.486 37.3132 100.654 37.5668 100.769 37.8054H100.897V36.1818H103.179V46.1598C103.179 46.9993 102.979 47.6939 102.578 48.2436C102.177 48.7933 101.63 49.2045 100.935 49.4773C100.241 49.75 99.4522 49.8864 98.5701 49.8864ZM98.5893 44.044C99.0794 44.044 99.497 43.9247 99.8422 43.6861C100.187 43.4474 100.449 43.1044 100.628 42.657C100.807 42.2095 100.897 41.6726 100.897 41.0462C100.897 40.4283 100.807 39.8871 100.628 39.4226C100.454 38.9581 100.194 38.598 99.8485 38.3423C99.5076 38.0824 99.0879 37.9524 98.5893 37.9524C98.0737 37.9524 97.6433 38.0866 97.2981 38.3551C96.9529 38.6236 96.693 38.9922 96.5183 39.4609C96.3436 39.9254 96.2562 40.4538 96.2562 41.0462C96.2562 41.647 96.3436 42.1733 96.5183 42.625C96.6973 43.0724 96.9593 43.4219 97.3045 43.6733C97.6539 43.9205 98.0822 44.044 98.5893 44.044ZM109.897 46.1918C108.912 46.1918 108.062 45.9872 107.346 45.5781C106.635 45.1648 106.087 44.581 105.704 43.8267C105.32 43.0682 105.128 42.1754 105.128 41.1484C105.128 40.1385 105.32 39.2521 105.704 38.4893C106.091 37.7223 106.633 37.1257 107.327 36.6996C108.022 36.2692 108.838 36.054 109.775 36.054C110.381 36.054 110.952 36.152 111.488 36.348C112.03 36.5398 112.507 36.8381 112.92 37.2429C113.338 37.6477 113.666 38.1634 113.905 38.7898C114.143 39.4119 114.263 40.1534 114.263 41.0142V41.7237H106.215V40.1641H112.045C112.04 39.7209 111.944 39.3267 111.757 38.9815C111.569 38.6321 111.307 38.3572 110.971 38.157C110.638 37.9567 110.251 37.8565 109.807 37.8565C109.334 37.8565 108.919 37.9716 108.561 38.2017C108.203 38.4276 107.924 38.7259 107.724 39.0966C107.528 39.4631 107.427 39.8658 107.423 40.3047V41.6662C107.423 42.2372 107.528 42.7273 107.736 43.1364C107.945 43.5412 108.237 43.8523 108.612 44.0696C108.987 44.2827 109.426 44.3892 109.929 44.3892C110.265 44.3892 110.57 44.3423 110.843 44.2486C111.116 44.1506 111.352 44.0078 111.552 43.8203C111.753 43.6328 111.904 43.4006 112.006 43.1236L114.167 43.3665C114.03 43.9375 113.77 44.4361 113.387 44.8622C113.008 45.2841 112.522 45.6122 111.93 45.8466C111.337 46.0767 110.66 46.1918 109.897 46.1918ZM119.864 46.1726C119.092 46.1726 118.402 45.9744 117.793 45.5781C117.183 45.1818 116.702 44.6065 116.348 43.8523C115.994 43.098 115.817 42.1818 115.817 41.1037C115.817 40.0128 115.996 39.0923 116.354 38.3423C116.717 37.5881 117.205 37.0192 117.818 36.6357C118.432 36.2479 119.116 36.054 119.87 36.054C120.445 36.054 120.918 36.152 121.289 36.348C121.66 36.5398 121.954 36.772 122.171 37.0447C122.388 37.3132 122.557 37.5668 122.676 37.8054H122.772V32.9091H125.092V46H122.817V44.4531H122.676C122.557 44.6918 122.384 44.9453 122.158 45.2138C121.933 45.478 121.634 45.7038 121.263 45.8913C120.893 46.0788 120.426 46.1726 119.864 46.1726ZM120.509 44.2741C120.999 44.2741 121.417 44.142 121.762 43.8778C122.107 43.6094 122.369 43.2365 122.548 42.7592C122.727 42.282 122.817 41.7259 122.817 41.0909C122.817 40.456 122.727 39.9041 122.548 39.4354C122.374 38.9666 122.114 38.6023 121.768 38.3423C121.428 38.0824 121.008 37.9524 120.509 37.9524C119.994 37.9524 119.563 38.0866 119.218 38.3551C118.873 38.6236 118.613 38.9943 118.438 39.4673C118.263 39.9403 118.176 40.4815 118.176 41.0909C118.176 41.7045 118.263 42.2521 118.438 42.7337C118.617 43.2109 118.879 43.5881 119.224 43.8651C119.574 44.1378 120.002 44.2741 120.509 44.2741ZM28.2912 73V59.9091H33.2003C34.206 59.9091 35.0497 60.0966 35.7315 60.4716C36.4176 60.8466 36.9354 61.3622 37.2848 62.0185C37.6385 62.6705 37.8153 63.4119 37.8153 64.2429C37.8153 65.0824 37.6385 65.8281 37.2848 66.4801C36.9311 67.1321 36.4091 67.6456 35.7188 68.0206C35.0284 68.3913 34.1783 68.5767 33.1683 68.5767H29.9148V66.6271H32.8487C33.4368 66.6271 33.9183 66.5249 34.2933 66.3203C34.6683 66.1158 34.9453 65.8345 35.1243 65.4766C35.3075 65.1186 35.3991 64.7074 35.3991 64.2429C35.3991 63.7784 35.3075 63.3693 35.1243 63.0156C34.9453 62.6619 34.6662 62.3871 34.2869 62.1911C33.9119 61.9908 33.4283 61.8906 32.8359 61.8906H30.6626V73H28.2912ZM42.4224 73.1982C41.8002 73.1982 41.2399 73.0874 40.7413 72.8658C40.247 72.6399 39.8549 72.3075 39.5652 71.8686C39.2797 71.4297 39.1369 70.8885 39.1369 70.245C39.1369 69.6911 39.2392 69.233 39.4437 68.8707C39.6483 68.5085 39.9274 68.2188 40.2811 68.0014C40.6348 67.7841 41.0332 67.62 41.4764 67.5092C41.9238 67.3942 42.3862 67.3111 42.8635 67.2599C43.4387 67.2003 43.9054 67.147 44.2633 67.1001C44.6213 67.049 44.8812 66.9723 45.0431 66.87C45.2093 66.7635 45.2924 66.5994 45.2924 66.3778V66.3395C45.2924 65.858 45.1497 65.4851 44.8642 65.2209C44.5787 64.9567 44.1674 64.8246 43.6305 64.8246C43.0637 64.8246 42.6142 64.9482 42.2818 65.1953C41.9537 65.4425 41.7321 65.7344 41.617 66.071L39.4565 65.7642C39.627 65.1676 39.9082 64.669 40.3002 64.2685C40.6923 63.8636 41.1717 63.5611 41.7385 63.3608C42.3052 63.1562 42.9316 63.054 43.6177 63.054C44.0907 63.054 44.5616 63.1094 45.0304 63.2202C45.4991 63.331 45.9274 63.5142 46.3152 63.7699C46.7029 64.0213 47.014 64.3643 47.2484 64.799C47.487 65.2337 47.6064 65.777 47.6064 66.429V73H45.3819V71.6513H45.3052C45.1646 71.924 44.9664 72.1797 44.7108 72.4183C44.4593 72.6527 44.1419 72.8423 43.7583 72.9872C43.3791 73.1278 42.9338 73.1982 42.4224 73.1982ZM43.0233 71.4979C43.4877 71.4979 43.8904 71.4062 44.2314 71.223C44.5723 71.0355 44.8343 70.7884 45.0176 70.4815C45.2051 70.1747 45.2988 69.8402 45.2988 69.478V68.321C45.2264 68.3807 45.1028 68.4361 44.9281 68.4872C44.7576 68.5384 44.5659 68.5831 44.3528 68.6214C44.1397 68.6598 43.9288 68.6939 43.72 68.7237C43.5112 68.7536 43.3301 68.7791 43.1767 68.8004C42.8315 68.8473 42.5225 68.924 42.2498 69.0305C41.9771 69.1371 41.7619 69.2862 41.6042 69.478C41.4466 69.6655 41.3677 69.9084 41.3677 70.2067C41.3677 70.6328 41.5233 70.9545 41.8343 71.1719C42.1454 71.3892 42.5417 71.4979 43.0233 71.4979ZM49.9331 73V63.1818H52.1767V64.8182H52.2789C52.4579 64.2514 52.7647 63.8146 53.1994 63.5078C53.6383 63.1967 54.139 63.0412 54.7015 63.0412C54.8294 63.0412 54.9721 63.0476 55.1298 63.0604C55.2917 63.0689 55.426 63.0838 55.5325 63.1051V65.2337C55.4345 65.1996 55.2789 65.1697 55.0659 65.1442C54.8571 65.1143 54.6547 65.0994 54.4586 65.0994C54.0368 65.0994 53.6575 65.1911 53.3208 65.3743C52.9885 65.5533 52.7264 65.8026 52.5346 66.1222C52.3429 66.4418 52.247 66.8104 52.247 67.228V73H49.9331ZM62.4998 63.1818V64.9716H56.8556V63.1818H62.4998ZM58.2491 60.8295H60.563V70.0469C60.563 70.358 60.6099 70.5966 60.7037 70.7628C60.8017 70.9247 60.9295 71.0355 61.0872 71.0952C61.2449 71.1548 61.4196 71.1847 61.6113 71.1847C61.7562 71.1847 61.8883 71.174 62.0076 71.1527C62.1312 71.1314 62.225 71.1122 62.2889 71.0952L62.6788 72.9041C62.5552 72.9467 62.3784 72.9936 62.1483 73.0447C61.9224 73.0959 61.6454 73.1257 61.3173 73.1342C60.7377 73.1513 60.2157 73.0639 59.7512 72.8722C59.2868 72.6761 58.9181 72.3736 58.6454 71.9645C58.377 71.5554 58.2449 71.044 58.2491 70.4304V60.8295ZM64.435 73V63.1818H66.7489V73H64.435ZM65.5984 61.7884C65.2319 61.7884 64.9165 61.6669 64.6523 61.424C64.3881 61.1768 64.256 60.8807 64.256 60.5355C64.256 60.1861 64.3881 59.8899 64.6523 59.647C64.9165 59.3999 65.2319 59.2763 65.5984 59.2763C65.9691 59.2763 66.2844 59.3999 66.5444 59.647C66.8086 59.8899 66.9407 60.1861 66.9407 60.5355C66.9407 60.8807 66.8086 61.1768 66.5444 61.424C66.2844 61.6669 65.9691 61.7884 65.5984 61.7884ZM73.411 73.1918C72.4309 73.1918 71.5893 72.9766 70.8862 72.5462C70.1873 72.1158 69.6483 71.5213 69.269 70.7628C68.894 70 68.7065 69.1222 68.7065 68.1293C68.7065 67.1321 68.8983 66.2521 69.2818 65.4893C69.6653 64.7223 70.2065 64.1257 70.9054 63.6996C71.6085 63.2692 72.4395 63.054 73.3983 63.054C74.1951 63.054 74.9004 63.201 75.514 63.495C76.1319 63.7848 76.6241 64.196 76.9906 64.7287C77.3571 65.2571 77.5659 65.875 77.617 66.5824H75.4054C75.3159 66.1094 75.1028 65.7152 74.7662 65.3999C74.4338 65.0803 73.9885 64.9205 73.4302 64.9205C72.9572 64.9205 72.5417 65.0483 72.1838 65.304C71.8258 65.5554 71.5467 65.9176 71.3464 66.3906C71.1504 66.8636 71.0524 67.4304 71.0524 68.0909C71.0524 68.7599 71.1504 69.3352 71.3464 69.8168C71.5424 70.294 71.8173 70.6626 72.171 70.9226C72.5289 71.1783 72.9487 71.3061 73.4302 71.3061C73.7711 71.3061 74.0758 71.2422 74.3443 71.1143C74.617 70.9822 74.845 70.7926 75.0282 70.5455C75.2115 70.2983 75.3372 69.9979 75.4054 69.6442H77.617C77.5616 70.3388 77.3571 70.9545 77.0034 71.4915C76.6497 72.0241 76.1681 72.4418 75.5588 72.7443C74.9494 73.0426 74.2335 73.1918 73.411 73.1918ZM79.517 73V63.1818H81.831V73H79.517ZM80.6804 61.7884C80.3139 61.7884 79.9986 61.6669 79.7344 61.424C79.4702 61.1768 79.3381 60.8807 79.3381 60.5355C79.3381 60.1861 79.4702 59.8899 79.7344 59.647C79.9986 59.3999 80.3139 59.2763 80.6804 59.2763C81.0511 59.2763 81.3665 59.3999 81.6264 59.647C81.8906 59.8899 82.0227 60.1861 82.0227 60.5355C82.0227 60.8807 81.8906 61.1768 81.6264 61.424C81.3665 61.6669 81.0511 61.7884 80.6804 61.7884ZM84.2104 76.6818V63.1818H86.486V64.8054H86.6202C86.7395 64.5668 86.9078 64.3132 87.1252 64.0447C87.3425 63.772 87.6365 63.5398 88.0073 63.348C88.378 63.152 88.851 63.054 89.4263 63.054C90.1848 63.054 90.8688 63.2479 91.4782 63.6357C92.0918 64.0192 92.5776 64.5881 92.9355 65.3423C93.2978 66.0923 93.4789 67.0128 93.4789 68.1037C93.4789 69.1818 93.302 70.098 92.9483 70.8523C92.5946 71.6065 92.1131 72.1818 91.5037 72.5781C90.8944 72.9744 90.204 73.1726 89.4327 73.1726C88.8702 73.1726 88.4036 73.0788 88.0328 72.8913C87.6621 72.7038 87.3638 72.478 87.138 72.2138C86.9164 71.9453 86.7438 71.6918 86.6202 71.4531H86.5243V76.6818H84.2104ZM86.4796 68.0909C86.4796 68.7259 86.5691 69.282 86.748 69.7592C86.9313 70.2365 87.1934 70.6094 87.5343 70.8778C87.8794 71.142 88.2971 71.2741 88.7871 71.2741C89.2985 71.2741 89.7267 71.1378 90.0719 70.8651C90.4171 70.5881 90.677 70.2109 90.8517 69.7337C91.0307 69.2521 91.1202 68.7045 91.1202 68.0909C91.1202 67.4815 91.0328 66.9403 90.8581 66.4673C90.6834 65.9943 90.4235 65.6236 90.0783 65.3551C89.7331 65.0866 89.3027 64.9524 88.7871 64.9524C88.2928 64.9524 87.873 65.0824 87.5279 65.3423C87.1827 65.6023 86.9206 65.9666 86.7417 66.4354C86.5669 66.9041 86.4796 67.456 86.4796 68.0909ZM98.2857 73.1982C97.6635 73.1982 97.1032 73.0874 96.6046 72.8658C96.1103 72.6399 95.7182 72.3075 95.4284 71.8686C95.1429 71.4297 95.0002 70.8885 95.0002 70.245C95.0002 69.6911 95.1025 69.233 95.307 68.8707C95.5115 68.5085 95.7907 68.2188 96.1444 68.0014C96.498 67.7841 96.8965 67.62 97.3397 67.5092C97.7871 67.3942 98.2495 67.3111 98.7267 67.2599C99.302 67.2003 99.7686 67.147 100.127 67.1001C100.485 67.049 100.744 66.9723 100.906 66.87C101.073 66.7635 101.156 66.5994 101.156 66.3778V66.3395C101.156 65.858 101.013 65.4851 100.727 65.2209C100.442 64.9567 100.031 64.8246 99.4938 64.8246C98.927 64.8246 98.4775 64.9482 98.1451 65.1953C97.8169 65.4425 97.5953 65.7344 97.4803 66.071L95.3198 65.7642C95.4902 65.1676 95.7715 64.669 96.1635 64.2685C96.5556 63.8636 97.035 63.5611 97.6017 63.3608C98.1685 63.1562 98.7949 63.054 99.481 63.054C99.954 63.054 100.425 63.1094 100.894 63.2202C101.362 63.331 101.791 63.5142 102.178 63.7699C102.566 64.0213 102.877 64.3643 103.112 64.799C103.35 65.2337 103.47 65.777 103.47 66.429V73H101.245V71.6513H101.169C101.028 71.924 100.83 72.1797 100.574 72.4183C100.323 72.6527 100.005 72.8423 99.6216 72.9872C99.2424 73.1278 98.7971 73.1982 98.2857 73.1982ZM98.8865 71.4979C99.351 71.4979 99.7537 71.4062 100.095 71.223C100.436 71.0355 100.698 70.7884 100.881 70.4815C101.068 70.1747 101.162 69.8402 101.162 69.478V68.321C101.09 68.3807 100.966 68.4361 100.791 68.4872C100.621 68.5384 100.429 68.5831 100.216 68.6214C100.003 68.6598 99.7921 68.6939 99.5833 68.7237C99.3745 68.7536 99.1934 68.7791 99.04 68.8004C98.6948 68.8473 98.3858 68.924 98.1131 69.0305C97.8404 69.1371 97.6252 69.2862 97.4675 69.478C97.3098 69.6655 97.231 69.9084 97.231 70.2067C97.231 70.6328 97.3865 70.9545 97.6976 71.1719C98.0087 71.3892 98.405 71.4979 98.8865 71.4979ZM108.11 67.2472V73H105.796V63.1818H108.008V64.8501H108.123C108.349 64.3004 108.709 63.8636 109.203 63.5398C109.702 63.2159 110.318 63.054 111.051 63.054C111.728 63.054 112.318 63.1989 112.821 63.4886C113.328 63.7784 113.72 64.1982 113.997 64.7479C114.279 65.2976 114.417 65.9645 114.413 66.7486V73H112.099V67.1065C112.099 66.4503 111.928 65.9368 111.588 65.5661C111.251 65.1953 110.784 65.0099 110.188 65.0099C109.783 65.0099 109.423 65.0994 109.107 65.2784C108.796 65.4531 108.551 65.7067 108.372 66.0391C108.198 66.3714 108.11 66.7741 108.11 67.2472ZM121.668 63.1818V64.9716H116.024V63.1818H121.668ZM117.417 60.8295H119.731V70.0469C119.731 70.358 119.778 70.5966 119.872 70.7628C119.97 70.9247 120.097 71.0355 120.255 71.0952C120.413 71.1548 120.588 71.1847 120.779 71.1847C120.924 71.1847 121.056 71.174 121.176 71.1527C121.299 71.1314 121.393 71.1122 121.457 71.0952L121.847 72.9041C121.723 72.9467 121.546 72.9936 121.316 73.0447C121.09 73.0959 120.813 73.1257 120.485 73.1342C119.906 73.1513 119.384 73.0639 118.919 72.8722C118.455 72.6761 118.086 72.3736 117.813 71.9645C117.545 71.5554 117.413 71.044 117.417 70.4304V60.8295ZM131.222 65.777L129.113 66.0071C129.053 65.794 128.949 65.5938 128.8 65.4062C128.655 65.2188 128.459 65.0675 128.212 64.9524C127.964 64.8374 127.662 64.7798 127.304 64.7798C126.822 64.7798 126.418 64.8842 126.089 65.093C125.766 65.3018 125.606 65.5724 125.61 65.9048C125.606 66.1903 125.71 66.4226 125.923 66.6016C126.141 66.7805 126.499 66.9276 126.997 67.0426L128.672 67.4006C129.601 67.6009 130.291 67.9183 130.743 68.353C131.199 68.7876 131.429 69.3565 131.433 70.0597C131.429 70.6776 131.248 71.223 130.89 71.696C130.536 72.1648 130.044 72.5312 129.413 72.7955C128.783 73.0597 128.058 73.1918 127.24 73.1918C126.038 73.1918 125.071 72.9403 124.338 72.4375C123.605 71.9304 123.168 71.2251 123.028 70.3217L125.284 70.1044C125.386 70.5476 125.604 70.8821 125.936 71.108C126.268 71.3338 126.701 71.4467 127.234 71.4467C127.783 71.4467 128.224 71.3338 128.557 71.108C128.893 70.8821 129.062 70.603 129.062 70.2706C129.062 69.9893 128.953 69.7571 128.736 69.5739C128.523 69.3906 128.19 69.25 127.739 69.152L126.064 68.8004C125.122 68.6044 124.425 68.2741 123.974 67.8097C123.522 67.3409 123.298 66.7486 123.303 66.0327C123.298 65.4276 123.462 64.9034 123.795 64.4602C124.131 64.0128 124.598 63.6676 125.195 63.4247C125.795 63.1776 126.488 63.054 127.272 63.054C128.423 63.054 129.328 63.299 129.989 63.7891C130.653 64.2791 131.065 64.9418 131.222 65.777Z" fill="#111928"/>
<path d="M28.7685 129H44.3224V125.229H35.1605V125.08L38.3459 121.958C42.831 117.867 44.0348 115.822 44.0348 113.339C44.0348 109.558 40.9453 106.884 36.2685 106.884C31.6875 106.884 28.5447 109.621 28.5554 113.904H32.9339C32.9233 111.816 34.2443 110.538 36.2365 110.538C38.1541 110.538 39.5817 111.731 39.5817 113.648C39.5817 115.385 38.5163 116.578 36.5348 118.485L28.7685 125.676V129ZM52.6401 126.017H48.8901L48.8368 127.21C48.709 130.108 47.878 133.08 47.5691 134.327H50.5094C51.0208 133.038 52.2353 130.012 52.5229 127.189L52.6401 126.017ZM64.54 129.298C69.3979 129.298 72.7005 126.134 72.6898 121.724C72.7005 117.548 69.7814 114.543 65.8503 114.543C63.9327 114.543 62.2814 115.342 61.5144 116.418H61.3865L61.9512 110.953H71.486V107.182H58.1479L57.1145 118.688L61.2161 119.423C61.8873 118.517 63.187 117.952 64.476 117.952C66.6706 117.963 68.2473 119.55 68.2473 121.841C68.2473 124.11 66.7026 125.676 64.54 125.676C62.7076 125.676 61.2267 124.526 61.1202 122.832H56.6458C56.731 126.603 60.0229 129.298 64.54 129.298ZM75.5769 125.165H86.0492V129H90.4597V125.165H93.1657V121.468H90.4597V107.182H84.6855L75.5769 121.532V125.165ZM86.1344 121.468H80.2218V121.298L85.964 112.21H86.1344V121.468ZM95.9089 125.165H106.381V129H110.792V125.165H113.498V121.468H110.792V107.182H105.018L95.9089 121.532V125.165ZM106.466 121.468H100.554V121.298L106.296 112.21H106.466V121.468Z" fill="#FF8A4C"/>
<path d="M270.095 35.2727H268.36L271.433 44H273.385L276.461 35.2727H274.723L272.456 42.142H272.366L270.095 35.2727ZM277.543 44H279.085V37.4545H277.543V44ZM278.318 36.5256C278.808 36.5256 279.209 36.1506 279.209 35.6903C279.209 35.2259 278.808 34.8509 278.318 34.8509C277.824 34.8509 277.423 35.2259 277.423 35.6903C277.423 36.1506 277.824 36.5256 278.318 36.5256ZM283.569 44.1278C285.095 44.1278 286.143 43.3821 286.416 42.2443L284.975 42.0824C284.767 42.6364 284.255 42.9261 283.591 42.9261C282.593 42.9261 281.933 42.2699 281.92 41.1491H286.48V40.6761C286.48 38.3793 285.099 37.3693 283.488 37.3693C281.613 37.3693 280.39 38.7457 280.39 40.7656C280.39 42.8196 281.596 44.1278 283.569 44.1278ZM281.924 40.1094C281.971 39.2741 282.589 38.571 283.51 38.571C284.396 38.571 284.993 39.2188 285.001 40.1094H281.924ZM289.1 44H290.711L291.939 39.5767H292.028L293.255 44H294.862L296.716 37.4545H295.139L294.005 42.0312H293.941L292.765 37.4545H291.21L290.034 42.0568H289.974L288.824 37.4545H287.251L289.1 44Z" fill="#1C64F2"/>
<path d="M191 36V40M191 44H191.01M200 40C200 41.1819 199.767 42.3522 199.315 43.4442C198.863 44.5361 198.2 45.5282 197.364 46.364C196.528 47.1997 195.536 47.8626 194.444 48.3149C193.352 48.7672 192.182 49 191 49C189.818 49 188.648 48.7672 187.556 48.3149C186.464 47.8626 185.472 47.1997 184.636 46.364C183.8 45.5282 183.137 44.5361 182.685 43.4442C182.233 42.3522 182 41.1819 182 40C182 37.6131 182.948 35.3239 184.636 33.636C186.324 31.9482 188.613 31 191 31C193.387 31 195.676 31.9482 197.364 33.636C199.052 35.3239 200 37.6131 200 40Z" stroke="#9CA3AF" stroke-width="2" stroke-linecap="round" stroke-linejoin="round"/>
<defs>
<filter id="filter0_dd_109_16125" x="0" y="0" width="328.75" height="186" filterUnits="userSpaceOnUse" color-interpolation-filters="sRGB">
<feFlood flood-opacity="0" result="BackgroundImageFix"/>
<feColorMatrix in="SourceAlpha" type="matrix" values="0 0 0 0 0 0 0 0 0 0 0 0 0 0 0 0 0 0 127 0" result="hardAlpha"/>
<feOffset dy="1"/>
<feGaussianBlur stdDeviation="1.5"/>
<feColorMatrix type="matrix" values="0 0 0 0 0 0 0 0 0 0 0 0 0 0 0 0 0 0 0.1 0"/>
<feBlend mode="normal" in2="BackgroundImageFix" result="effect1_dropShadow_109_16125"/>
<feColorMatrix in="SourceAlpha" type="matrix" values="0 0 0 0 0 0 0 0 0 0 0 0 0 0 0 0 0 0 127 0" result="hardAlpha"/>
<feOffset dy="1"/>
<feGaussianBlur stdDeviation="1"/>
<feColorMatrix type="matrix" values="0 0 0 0 0 0 0 0 0 0 0 0 0 0 0 0 0 0 0.06 0"/>
<feBlend mode="normal" in2="effect1_dropShadow_109_16125" result="effect2_dropShadow_109_16125"/>
<feBlend mode="normal" in="SourceGraphic" in2="effect2_dropShadow_109_16125" result="shape"/>
</filter>
</defs>
</svg>
