
<svg width="329" height="186" viewBox="0 0 329 186" fill="none" xmlns="http://www.w3.org/2000/svg">
<g filter="url(#filter0_dd_25_13129)">
<rect x="3" y="2" width="318" height="180" rx="16" fill="white"/>
</g>
<g filter="url(#filter1_dd_25_13129)">
<rect x="3" y="2" width="322.75" height="180" rx="16" fill="white"/>
</g>
<path d="M28.2912 32.9091H31.1932L35.0795 42.3949H35.233L39.1193 32.9091H42.0213V46H39.7457V37.0064H39.6243L36.0064 45.9616H34.3061L30.6882 36.9872H30.5668V46H28.2912V32.9091ZM47.3267 46.1982C46.7045 46.1982 46.1442 46.0874 45.6456 45.8658C45.1513 45.6399 44.7592 45.3075 44.4695 44.8686C44.1839 44.4297 44.0412 43.8885 44.0412 43.245C44.0412 42.6911 44.1435 42.233 44.348 41.8707C44.5526 41.5085 44.8317 41.2188 45.1854 41.0014C45.5391 40.7841 45.9375 40.62 46.3807 40.5092C46.8281 40.3942 47.2905 40.3111 47.7678 40.2599C48.343 40.2003 48.8097 40.147 49.1676 40.1001C49.5256 40.049 49.7855 39.9723 49.9474 39.87C50.1136 39.7635 50.1967 39.5994 50.1967 39.3778V39.3395C50.1967 38.858 50.054 38.4851 49.7685 38.2209C49.483 37.9567 49.0717 37.8246 48.5348 37.8246C47.968 37.8246 47.5185 37.9482 47.1861 38.1953C46.858 38.4425 46.6364 38.7344 46.5213 39.071L44.3608 38.7642C44.5313 38.1676 44.8125 37.669 45.2045 37.2685C45.5966 36.8636 46.076 36.5611 46.6428 36.3608C47.2095 36.1562 47.8359 36.054 48.522 36.054C48.995 36.054 49.4659 36.1094 49.9347 36.2202C50.4034 36.331 50.8317 36.5142 51.2195 36.7699C51.6072 37.0213 51.9183 37.3643 52.1527 37.799C52.3913 38.2337 52.5107 38.777 52.5107 39.429V46H50.2862V44.6513H50.2095C50.0689 44.924 49.8707 45.1797 49.6151 45.4183C49.3636 45.6527 49.0462 45.8423 48.6626 45.9872C48.2834 46.1278 47.8381 46.1982 47.3267 46.1982ZM47.9276 44.4979C48.392 44.4979 48.7947 44.4062 49.1357 44.223C49.4766 44.0355 49.7386 43.7884 49.9219 43.4815C50.1094 43.1747 50.2031 42.8402 50.2031 42.478V41.321C50.1307 41.3807 50.0071 41.4361 49.8324 41.4872C49.6619 41.5384 49.4702 41.5831 49.2571 41.6214C49.044 41.6598 48.8331 41.6939 48.6243 41.7237C48.4155 41.7536 48.2344 41.7791 48.081 41.8004C47.7358 41.8473 47.4268 41.924 47.1541 42.0305C46.8814 42.1371 46.6662 42.2862 46.5085 42.478C46.3509 42.6655 46.272 42.9084 46.272 43.2067C46.272 43.6328 46.4276 43.9545 46.7386 44.1719C47.0497 44.3892 47.446 44.4979 47.9276 44.4979ZM57.1513 40.2472V46H54.8374V32.9091H57.1001V37.8501H57.2152C57.4453 37.2962 57.8011 36.8594 58.2827 36.5398C58.7685 36.2159 59.3864 36.054 60.1364 36.054C60.8182 36.054 61.4126 36.1967 61.9197 36.4822C62.4268 36.7678 62.8189 37.1854 63.0959 37.7351C63.3771 38.2848 63.5178 38.956 63.5178 39.7486V46H61.2038V40.1065C61.2038 39.446 61.0334 38.9325 60.6925 38.5661C60.3558 38.1953 59.8828 38.0099 59.2734 38.0099C58.8643 38.0099 58.4979 38.0994 58.174 38.2784C57.8544 38.4531 57.603 38.7067 57.4197 39.0391C57.2408 39.3714 57.1513 39.7741 57.1513 40.2472ZM68.7017 46.1982C68.0795 46.1982 67.5192 46.0874 67.0206 45.8658C66.5263 45.6399 66.1342 45.3075 65.8445 44.8686C65.5589 44.4297 65.4162 43.8885 65.4162 43.245C65.4162 42.6911 65.5185 42.233 65.723 41.8707C65.9276 41.5085 66.2067 41.2188 66.5604 41.0014C66.9141 40.7841 67.3125 40.62 67.7557 40.5092C68.2031 40.3942 68.6655 40.3111 69.1428 40.2599C69.718 40.2003 70.1847 40.147 70.5426 40.1001C70.9006 40.049 71.1605 39.9723 71.3224 39.87C71.4886 39.7635 71.5717 39.5994 71.5717 39.3778V39.3395C71.5717 38.858 71.429 38.4851 71.1435 38.2209C70.858 37.9567 70.4467 37.8246 69.9098 37.8246C69.343 37.8246 68.8935 37.9482 68.5611 38.1953C68.233 38.4425 68.0114 38.7344 67.8963 39.071L65.7358 38.7642C65.9063 38.1676 66.1875 37.669 66.5795 37.2685C66.9716 36.8636 67.451 36.5611 68.0178 36.3608C68.5845 36.1562 69.2109 36.054 69.897 36.054C70.37 36.054 70.8409 36.1094 71.3097 36.2202C71.7784 36.331 72.2067 36.5142 72.5945 36.7699C72.9822 37.0213 73.2933 37.3643 73.5277 37.799C73.7663 38.2337 73.8857 38.777 73.8857 39.429V46H71.6612V44.6513H71.5845C71.4439 44.924 71.2457 45.1797 70.9901 45.4183C70.7386 45.6527 70.4212 45.8423 70.0376 45.9872C69.6584 46.1278 69.2131 46.1982 68.7017 46.1982ZM69.3026 44.4979C69.767 44.4979 70.1697 44.4062 70.5107 44.223C70.8516 44.0355 71.1136 43.7884 71.2969 43.4815C71.4844 43.1747 71.5781 42.8402 71.5781 42.478V41.321C71.5057 41.3807 71.3821 41.4361 71.2074 41.4872C71.0369 41.5384 70.8452 41.5831 70.6321 41.6214C70.419 41.6598 70.2081 41.6939 69.9993 41.7237C69.7905 41.7536 69.6094 41.7791 69.456 41.8004C69.1108 41.8473 68.8018 41.924 68.5291 42.0305C68.2564 42.1371 68.0412 42.2862 67.8835 42.478C67.7259 42.6655 67.647 42.9084 67.647 43.2067C67.647 43.6328 67.8026 43.9545 68.1136 44.1719C68.4247 44.3892 68.821 44.4979 69.3026 44.4979ZM78.5263 32.9091V46H76.2124V32.9091H78.5263ZM85.1884 46.1918C84.2296 46.1918 83.3986 45.9808 82.6955 45.5589C81.9924 45.1371 81.4469 44.5469 81.0591 43.7884C80.6756 43.0298 80.4838 42.1435 80.4838 41.1293C80.4838 40.1151 80.6756 39.2266 81.0591 38.4638C81.4469 37.701 81.9924 37.1087 82.6955 36.6868C83.3986 36.2649 84.2296 36.054 85.1884 36.054C86.1472 36.054 86.9782 36.2649 87.6813 36.6868C88.3844 37.1087 88.9277 37.701 89.3113 38.4638C89.699 39.2266 89.8929 40.1151 89.8929 41.1293C89.8929 42.1435 89.699 43.0298 89.3113 43.7884C88.9277 44.5469 88.3844 45.1371 87.6813 45.5589C86.9782 45.9808 86.1472 46.1918 85.1884 46.1918ZM85.2012 44.3381C85.7211 44.3381 86.1557 44.1953 86.5051 43.9098C86.8546 43.62 87.1145 43.2322 87.285 42.7464C87.4597 42.2607 87.5471 41.7195 87.5471 41.1229C87.5471 40.522 87.4597 39.9787 87.285 39.4929C87.1145 39.0028 86.8546 38.6129 86.5051 38.3232C86.1557 38.0334 85.7211 37.8885 85.2012 37.8885C84.6685 37.8885 84.2253 38.0334 83.8716 38.3232C83.5222 38.6129 83.2601 39.0028 83.0854 39.4929C82.915 39.9787 82.8297 40.522 82.8297 41.1229C82.8297 41.7195 82.915 42.2607 83.0854 42.7464C83.2601 43.2322 83.5222 43.62 83.8716 43.9098C84.2253 44.1953 84.6685 44.3381 85.2012 44.3381ZM98.7955 32.9091V46H96.424V32.9091H98.7955ZM103.575 40.2472V46H101.261V36.1818H103.473V37.8501H103.588C103.814 37.3004 104.174 36.8636 104.668 36.5398C105.167 36.2159 105.782 36.054 106.515 36.054C107.193 36.054 107.783 36.1989 108.286 36.4886C108.793 36.7784 109.185 37.1982 109.462 37.7479C109.743 38.2976 109.882 38.9645 109.878 39.7486V46H107.564V40.1065C107.564 39.4503 107.393 38.9368 107.052 38.5661C106.716 38.1953 106.249 38.0099 105.653 38.0099C105.248 38.0099 104.888 38.0994 104.572 38.2784C104.261 38.4531 104.016 38.7067 103.837 39.0391C103.662 39.3714 103.575 39.7741 103.575 40.2472ZM115.873 46.1726C115.102 46.1726 114.412 45.9744 113.802 45.5781C113.193 45.1818 112.711 44.6065 112.358 43.8523C112.004 43.098 111.827 42.1818 111.827 41.1037C111.827 40.0128 112.006 39.0923 112.364 38.3423C112.726 37.5881 113.214 37.0192 113.828 36.6357C114.442 36.2479 115.126 36.054 115.88 36.054C116.455 36.054 116.928 36.152 117.299 36.348C117.67 36.5398 117.964 36.772 118.181 37.0447C118.398 37.3132 118.567 37.5668 118.686 37.8054H118.782V32.9091H121.102V46H118.827V44.4531H118.686C118.567 44.6918 118.394 44.9453 118.168 45.2138C117.942 45.478 117.644 45.7038 117.273 45.8913C116.903 46.0788 116.436 46.1726 115.873 46.1726ZM116.519 44.2741C117.009 44.2741 117.427 44.142 117.772 43.8778C118.117 43.6094 118.379 43.2365 118.558 42.7592C118.737 42.282 118.827 41.7259 118.827 41.0909C118.827 40.456 118.737 39.9041 118.558 39.4354C118.383 38.9666 118.123 38.6023 117.778 38.3423C117.437 38.0824 117.018 37.9524 116.519 37.9524C116.003 37.9524 115.573 38.0866 115.228 38.3551C114.883 38.6236 114.623 38.9943 114.448 39.4673C114.273 39.9403 114.186 40.4815 114.186 41.0909C114.186 41.7045 114.273 42.2521 114.448 42.7337C114.627 43.2109 114.889 43.5881 115.234 43.8651C115.584 44.1378 116.012 44.2741 116.519 44.2741ZM127.914 46.1918C126.93 46.1918 126.08 45.9872 125.364 45.5781C124.652 45.1648 124.105 44.581 123.721 43.8267C123.338 43.0682 123.146 42.1754 123.146 41.1484C123.146 40.1385 123.338 39.2521 123.721 38.4893C124.109 37.7223 124.65 37.1257 125.345 36.6996C126.039 36.2692 126.855 36.054 127.793 36.054C128.398 36.054 128.969 36.152 129.506 36.348C130.047 36.5398 130.525 36.8381 130.938 37.2429C131.355 37.6477 131.684 38.1634 131.922 38.7898C132.161 39.4119 132.28 40.1534 132.28 41.0142V41.7237H124.233V40.1641H130.062C130.058 39.7209 129.962 39.3267 129.775 38.9815C129.587 38.6321 129.325 38.3572 128.988 38.157C128.656 37.9567 128.268 37.8565 127.825 37.8565C127.352 37.8565 126.936 37.9716 126.578 38.2017C126.221 38.4276 125.941 38.7259 125.741 39.0966C125.545 39.4631 125.445 39.8658 125.441 40.3047V41.6662C125.441 42.2372 125.545 42.7273 125.754 43.1364C125.963 43.5412 126.255 43.8523 126.63 44.0696C127.005 44.2827 127.444 44.3892 127.946 44.3892C128.283 44.3892 128.588 44.3423 128.86 44.2486C129.133 44.1506 129.37 44.0078 129.57 43.8203C129.77 43.6328 129.922 43.4006 130.024 43.1236L132.184 43.3665C132.048 43.9375 131.788 44.4361 131.404 44.8622C131.025 45.2841 130.539 45.6122 129.947 45.8466C129.355 46.0767 128.677 46.1918 127.914 46.1918ZM135.919 36.1818L137.9 39.8061L139.914 36.1818H142.362L139.403 41.0909L142.413 46H139.978L137.9 42.4652L135.842 46H133.388L136.379 41.0909L133.464 36.1818H135.919Z" fill="#111928"/>
<path d="M36.8331 133.298C35.2422 133.298 33.8253 133.025 32.5824 132.478C31.3466 131.924 30.37 131.164 29.6527 130.198C28.9425 129.225 28.5767 128.103 28.5554 126.832H33.2003C33.2287 127.364 33.4027 127.833 33.7223 128.238C34.049 128.636 34.4822 128.945 35.022 129.165C35.5618 129.385 36.169 129.495 36.8438 129.495C37.5469 129.495 38.1683 129.371 38.7081 129.122C39.2479 128.874 39.6705 128.529 39.9759 128.089C40.2813 127.648 40.4339 127.141 40.4339 126.565C40.4339 125.983 40.2706 125.468 39.9439 125.021C39.6243 124.566 39.1626 124.211 38.5589 123.955C37.9624 123.7 37.2521 123.572 36.4283 123.572H34.3935V120.184H36.4283C37.1243 120.184 37.7386 120.063 38.2713 119.822C38.8111 119.58 39.2301 119.246 39.5284 118.82C39.8267 118.387 39.9759 117.883 39.9759 117.308C39.9759 116.761 39.8445 116.281 39.5817 115.869C39.326 115.45 38.9638 115.124 38.495 114.889C38.0334 114.655 37.4936 114.538 36.8757 114.538C36.2507 114.538 35.679 114.651 35.1605 114.879C34.642 115.099 34.2266 115.415 33.9141 115.827C33.6016 116.239 33.4347 116.722 33.4134 117.276H28.9922C29.0135 116.018 29.3722 114.911 30.0682 113.952C30.7642 112.993 31.7017 112.244 32.8807 111.704C34.0668 111.157 35.4055 110.884 36.897 110.884C38.4027 110.884 39.7202 111.157 40.8494 111.704C41.9787 112.251 42.8558 112.989 43.4808 113.92C44.1129 114.843 44.4254 115.88 44.4183 117.031C44.4254 118.252 44.0455 119.271 43.2784 120.088C42.5185 120.905 41.5277 121.423 40.3061 121.643V121.814C41.9112 122.02 43.1328 122.577 43.9709 123.487C44.8161 124.388 45.2351 125.518 45.228 126.874C45.2351 128.117 44.8764 129.222 44.152 130.188C43.4347 131.153 42.4439 131.913 41.1797 132.467C39.9155 133.021 38.4666 133.298 36.8331 133.298ZM52.9038 130.017L52.7866 131.189C52.6942 132.126 52.5167 133.06 52.2539 133.991C51.9982 134.928 51.7283 135.777 51.4442 136.537C51.1673 137.297 50.9435 137.893 50.7731 138.327H47.8327C47.9393 137.908 48.0849 137.322 48.2695 136.569C48.4542 135.823 48.6282 134.985 48.7915 134.055C48.9549 133.124 49.0579 132.176 49.1005 131.21L49.1538 130.017H52.9038ZM57.0107 133V129.676L64.777 122.485C65.4375 121.846 65.9915 121.271 66.4389 120.759C66.8935 120.248 67.2379 119.747 67.4723 119.257C67.7067 118.76 67.8239 118.224 67.8239 117.648C67.8239 117.009 67.6783 116.459 67.3871 115.997C67.0959 115.528 66.6982 115.17 66.1939 114.921C65.6896 114.665 65.1179 114.538 64.4787 114.538C63.8111 114.538 63.2287 114.673 62.7315 114.942C62.2344 115.212 61.8509 115.599 61.581 116.104C61.3111 116.608 61.1761 117.208 61.1761 117.904H56.7976C56.7976 116.477 57.1207 115.237 57.767 114.186C58.4134 113.135 59.3189 112.322 60.4837 111.746C61.6484 111.171 62.9908 110.884 64.5107 110.884C66.0732 110.884 67.4332 111.161 68.5909 111.714C69.7557 112.261 70.6612 113.021 71.3075 113.994C71.9538 114.967 72.277 116.082 72.277 117.339C72.277 118.163 72.1136 118.977 71.7869 119.779C71.4673 120.582 70.8956 121.473 70.0717 122.453C69.2479 123.426 68.0866 124.594 66.5881 125.958L63.4027 129.08V129.229H72.5646V133H57.0107ZM85.3993 111.182V133H80.7864V115.56H80.6586L75.6621 118.692V114.602L81.0634 111.182H85.3993ZM90.5849 133V129.676L98.3512 122.485C99.0117 121.846 99.5657 121.271 100.013 120.759C100.468 120.248 100.812 119.747 101.047 119.257C101.281 118.76 101.398 118.224 101.398 117.648C101.398 117.009 101.252 116.459 100.961 115.997C100.67 115.528 100.272 115.17 99.7681 114.921C99.2638 114.665 98.6921 114.538 98.0529 114.538C97.3853 114.538 96.8029 114.673 96.3058 114.942C95.8086 115.212 95.4251 115.599 95.1552 116.104C94.8853 116.608 94.7504 117.208 94.7504 117.904H90.3718C90.3718 116.477 90.695 115.237 91.3413 114.186C91.9876 113.135 92.8931 112.322 94.0579 111.746C95.2227 111.171 96.565 110.884 98.0849 110.884C99.6474 110.884 101.007 111.161 102.165 111.714C103.33 112.261 104.235 113.021 104.882 113.994C105.528 114.967 105.851 116.082 105.851 117.339C105.851 118.163 105.688 118.977 105.361 119.779C105.042 120.582 104.47 121.473 103.646 122.453C102.822 123.426 101.661 124.594 100.162 125.958L96.9769 129.08V129.229H106.139V133H90.5849Z" fill="#1C64F2"/>
<path d="M270.095 35.2727H268.36L271.433 44H273.385L276.461 35.2727H274.723L272.456 42.142H272.366L270.095 35.2727ZM277.543 44H279.085V37.4545H277.543V44ZM278.318 36.5256C278.808 36.5256 279.209 36.1506 279.209 35.6903C279.209 35.2259 278.808 34.8509 278.318 34.8509C277.824 34.8509 277.423 35.2259 277.423 35.6903C277.423 36.1506 277.824 36.5256 278.318 36.5256ZM283.569 44.1278C285.095 44.1278 286.143 43.3821 286.416 42.2443L284.975 42.0824C284.767 42.6364 284.255 42.9261 283.591 42.9261C282.593 42.9261 281.933 42.2699 281.92 41.1491H286.48V40.6761C286.48 38.3793 285.099 37.3693 283.488 37.3693C281.613 37.3693 280.39 38.7457 280.39 40.7656C280.39 42.8196 281.596 44.1278 283.569 44.1278ZM281.924 40.1094C281.971 39.2741 282.589 38.571 283.51 38.571C284.396 38.571 284.993 39.2188 285.001 40.1094H281.924ZM289.1 44H290.711L291.939 39.5767H292.028L293.255 44H294.862L296.716 37.4545H295.139L294.005 42.0312H293.941L292.765 37.4545H291.21L290.034 42.0568H289.974L288.824 37.4545H287.251L289.1 44Z" fill="#1C64F2"/>
<path d="M171 36V40M171 44H171.01M180 40C180 41.1819 179.767 42.3522 179.315 43.4442C178.863 44.5361 178.2 45.5282 177.364 46.364C176.528 47.1997 175.536 47.8626 174.444 48.3149C173.352 48.7672 172.182 49 171 49C169.818 49 168.648 48.7672 167.556 48.3149C166.464 47.8626 165.472 47.1997 164.636 46.364C163.8 45.5282 163.137 44.5361 162.685 43.4442C162.233 42.3522 162 41.1819 162 40C162 37.6131 162.948 35.3239 164.636 33.636C166.324 31.9482 168.613 31 171 31C173.387 31 175.676 31.9482 177.364 33.636C179.052 35.3239 180 37.6131 180 40Z" stroke="#9CA3AF" stroke-width="2" stroke-linecap="round" stroke-linejoin="round"/>
<defs>
<filter id="filter0_dd_25_13129" x="0" y="0" width="324" height="186" filterUnits="userSpaceOnUse" color-interpolation-filters="sRGB">
<feFlood flood-opacity="0" result="BackgroundImageFix"/>
<feColorMatrix in="SourceAlpha" type="matrix" values="0 0 0 0 0 0 0 0 0 0 0 0 0 0 0 0 0 0 127 0" result="hardAlpha"/>
<feOffset dy="1"/>
<feGaussianBlur stdDeviation="1.5"/>
<feColorMatrix type="matrix" values="0 0 0 0 0 0 0 0 0 0 0 0 0 0 0 0 0 0 0.1 0"/>
<feBlend mode="normal" in2="BackgroundImageFix" result="effect1_dropShadow_25_13129"/>
<feColorMatrix in="SourceAlpha" type="matrix" values="0 0 0 0 0 0 0 0 0 0 0 0 0 0 0 0 0 0 127 0" result="hardAlpha"/>
<feOffset dy="1"/>
<feGaussianBlur stdDeviation="1"/>
<feColorMatrix type="matrix" values="0 0 0 0 0 0 0 0 0 0 0 0 0 0 0 0 0 0 0.06 0"/>
<feBlend mode="normal" in2="effect1_dropShadow_25_13129" result="effect2_dropShadow_25_13129"/>
<feBlend mode="normal" in="SourceGraphic" in2="effect2_dropShadow_25_13129" result="shape"/>
</filter>
<filter id="filter1_dd_25_13129" x="0" y="0" width="328.75" height="186" filterUnits="userSpaceOnUse" color-interpolation-filters="sRGB">
<feFlood flood-opacity="0" result="BackgroundImageFix"/>
<feColorMatrix in="SourceAlpha" type="matrix" values="0 0 0 0 0 0 0 0 0 0 0 0 0 0 0 0 0 0 127 0" result="hardAlpha"/>
<feOffset dy="1"/>
<feGaussianBlur stdDeviation="1.5"/>
<feColorMatrix type="matrix" values="0 0 0 0 0 0 0 0 0 0 0 0 0 0 0 0 0 0 0.1 0"/>
<feBlend mode="normal" in2="BackgroundImageFix" result="effect1_dropShadow_25_13129"/>
<feColorMatrix in="SourceAlpha" type="matrix" values="0 0 0 0 0 0 0 0 0 0 0 0 0 0 0 0 0 0 127 0" result="hardAlpha"/>
<feOffset dy="1"/>
<feGaussianBlur stdDeviation="1"/>
<feColorMatrix type="matrix" values="0 0 0 0 0 0 0 0 0 0 0 0 0 0 0 0 0 0 0.06 0"/>
<feBlend mode="normal" in2="effect1_dropShadow_25_13129" result="effect2_dropShadow_25_13129"/>
<feBlend mode="normal" in="SourceGraphic" in2="effect2_dropShadow_25_13129" result="shape"/>
</filter>
</defs>
</svg>
