
<svg width="329" height="186" viewBox="0 0 329 186" fill="none" xmlns="http://www.w3.org/2000/svg">
<g filter="url(#filter0_dd_25_13136)">
<rect x="3" y="2" width="322.75" height="180" rx="16" fill="white"/>
</g>
<path d="M240.061 125V123.006L244.721 118.691C245.117 118.308 245.45 117.962 245.718 117.656C245.991 117.349 246.197 117.048 246.338 116.754C246.479 116.456 246.549 116.134 246.549 115.789C246.549 115.406 246.462 115.075 246.287 114.798C246.112 114.517 245.874 114.302 245.571 114.153C245.268 113.999 244.925 113.923 244.542 113.923C244.141 113.923 243.792 114.004 243.494 114.165C243.195 114.327 242.965 114.56 242.803 114.862C242.641 115.165 242.56 115.525 242.56 115.942H239.933C239.933 115.086 240.127 114.342 240.515 113.712C240.903 113.081 241.446 112.593 242.145 112.248C242.844 111.903 243.649 111.73 244.561 111.73C245.499 111.73 246.315 111.896 247.009 112.229C247.708 112.557 248.251 113.013 248.639 113.597C249.027 114.18 249.221 114.849 249.221 115.604C249.221 116.098 249.123 116.586 248.927 117.067C248.735 117.549 248.392 118.084 247.898 118.672C247.403 119.256 246.707 119.957 245.808 120.775L243.896 122.648V122.737H249.393V125H240.061ZM256.282 125.179C255.298 125.179 254.422 125.019 253.655 124.7C252.893 124.376 252.294 123.935 251.859 123.376C251.425 122.818 251.207 122.185 251.207 121.478C251.207 120.933 251.331 120.432 251.578 119.976C251.829 119.516 252.17 119.134 252.601 118.832C253.031 118.525 253.513 118.329 254.045 118.244V118.154C253.346 118.013 252.78 117.675 252.345 117.138C251.91 116.597 251.693 115.968 251.693 115.252C251.693 114.575 251.891 113.972 252.287 113.443C252.684 112.911 253.227 112.493 253.917 112.19C254.612 111.884 255.4 111.73 256.282 111.73C257.165 111.73 257.951 111.884 258.641 112.19C259.336 112.497 259.881 112.917 260.278 113.45C260.674 113.978 260.874 114.579 260.878 115.252C260.874 115.972 260.653 116.601 260.214 117.138C259.775 117.675 259.212 118.013 258.526 118.154V118.244C259.05 118.329 259.525 118.525 259.952 118.832C260.382 119.134 260.723 119.516 260.974 119.976C261.23 120.432 261.36 120.933 261.364 121.478C261.36 122.185 261.14 122.818 260.706 123.376C260.271 123.935 259.67 124.376 258.903 124.7C258.14 125.019 257.267 125.179 256.282 125.179ZM256.282 123.146C256.721 123.146 257.105 123.067 257.433 122.91C257.761 122.748 258.017 122.526 258.2 122.245C258.388 121.96 258.481 121.631 258.481 121.261C258.481 120.881 258.385 120.547 258.194 120.257C258.002 119.963 257.742 119.733 257.414 119.567C257.086 119.396 256.709 119.311 256.282 119.311C255.861 119.311 255.483 119.396 255.151 119.567C254.819 119.733 254.557 119.963 254.365 120.257C254.177 120.547 254.084 120.881 254.084 121.261C254.084 121.631 254.175 121.96 254.358 122.245C254.542 122.526 254.8 122.748 255.132 122.91C255.464 123.067 255.848 123.146 256.282 123.146ZM256.282 117.298C256.649 117.298 256.975 117.223 257.26 117.074C257.546 116.925 257.77 116.718 257.932 116.454C258.094 116.19 258.175 115.885 258.175 115.54C258.175 115.199 258.094 114.901 257.932 114.645C257.77 114.385 257.548 114.183 257.267 114.038C256.986 113.888 256.657 113.814 256.282 113.814C255.912 113.814 255.584 113.888 255.298 114.038C255.013 114.183 254.789 114.385 254.627 114.645C254.469 114.901 254.39 115.199 254.39 115.54C254.39 115.885 254.471 116.19 254.633 116.454C254.795 116.718 255.019 116.925 255.305 117.074C255.59 117.223 255.916 117.298 256.282 117.298ZM270.465 122.545V121.855C270.465 121.331 270.576 120.849 270.797 120.411C271.023 119.967 271.349 119.614 271.775 119.349C272.206 119.081 272.73 118.947 273.348 118.947C273.974 118.947 274.5 119.079 274.926 119.343C275.357 119.607 275.681 119.961 275.898 120.404C276.12 120.843 276.23 121.327 276.23 121.855V122.545C276.23 123.07 276.12 123.553 275.898 123.996C275.676 124.435 275.35 124.787 274.92 125.051C274.49 125.32 273.966 125.454 273.348 125.454C272.721 125.454 272.195 125.32 271.769 125.051C271.343 124.787 271.019 124.435 270.797 123.996C270.576 123.553 270.465 123.07 270.465 122.545ZM272.325 121.855V122.545C272.325 122.848 272.397 123.134 272.542 123.402C272.691 123.67 272.96 123.805 273.348 123.805C273.735 123.805 274 123.673 274.14 123.408C274.285 123.144 274.358 122.857 274.358 122.545V121.855C274.358 121.544 274.289 121.254 274.153 120.986C274.017 120.717 273.748 120.583 273.348 120.583C272.964 120.583 272.698 120.717 272.549 120.986C272.4 121.254 272.325 121.544 272.325 121.855ZM263.747 115.054V114.364C263.747 113.835 263.86 113.352 264.086 112.913C264.311 112.469 264.637 112.116 265.064 111.852C265.494 111.587 266.014 111.455 266.623 111.455C267.254 111.455 267.782 111.587 268.208 111.852C268.635 112.116 268.958 112.469 269.18 112.913C269.402 113.352 269.512 113.835 269.512 114.364V115.054C269.512 115.582 269.4 116.066 269.174 116.505C268.952 116.944 268.626 117.295 268.196 117.56C267.77 117.82 267.245 117.95 266.623 117.95C266.001 117.95 265.475 117.817 265.044 117.553C264.618 117.285 264.294 116.933 264.073 116.499C263.855 116.06 263.747 115.578 263.747 115.054ZM265.62 114.364V115.054C265.62 115.365 265.692 115.653 265.837 115.917C265.986 116.181 266.248 116.313 266.623 116.313C267.015 116.313 267.282 116.181 267.422 115.917C267.567 115.653 267.64 115.365 267.64 115.054V114.364C267.64 114.053 267.571 113.763 267.435 113.494C267.299 113.226 267.028 113.092 266.623 113.092C266.244 113.092 265.982 113.228 265.837 113.501C265.692 113.773 265.62 114.061 265.62 114.364ZM264.591 125L273.591 111.909H275.265L266.265 125H264.591Z" fill="#111928"/>
<path d="M297 118C297 140.091 279.091 158 257 158C234.909 158 217 140.091 217 118C217 95.9086 234.909 78 257 78C279.091 78 297 95.9086 297 118ZM221 118C221 137.882 237.118 154 257 154C276.882 154 293 137.882 293 118C293 98.1177 276.882 82 257 82C237.118 82 221 98.1177 221 118Z" fill="#F3F4F6"/>
<path d="M295 118C296.105 118 297.005 118.896 296.95 119.999C296.69 125.2 295.416 130.308 293.193 135.031C290.686 140.359 287.034 145.067 282.497 148.821C277.96 152.574 272.651 155.279 266.948 156.743C261.891 158.042 256.636 158.336 251.478 157.617C250.384 157.465 249.673 156.412 249.88 155.327V155.327C250.086 154.242 251.133 153.536 252.228 153.682C256.807 154.295 261.467 154.021 265.953 152.869C271.086 151.551 275.864 149.116 279.947 145.738C284.03 142.361 287.317 138.123 289.574 133.328C291.546 129.137 292.688 124.611 292.944 119.999C293.006 118.896 293.895 118 295 118V118Z" fill="#0E9F6E"/>
<path d="M28.2912 46V32.9091H30.6626V38.451H36.7287V32.9091H39.1065V46H36.7287V40.4389H30.6626V46H28.2912ZM45.93 46.1918C44.9457 46.1918 44.0955 45.9872 43.3796 45.5781C42.668 45.1648 42.1204 44.581 41.7369 43.8267C41.3533 43.0682 41.1616 42.1754 41.1616 41.1484C41.1616 40.1385 41.3533 39.2521 41.7369 38.4893C42.1246 37.7223 42.6658 37.1257 43.3604 36.6996C44.055 36.2692 44.8711 36.054 45.8086 36.054C46.4137 36.054 46.9847 36.152 47.5217 36.348C48.0629 36.5398 48.5401 36.8381 48.9535 37.2429C49.3711 37.6477 49.6992 38.1634 49.9379 38.7898C50.1765 39.4119 50.2958 40.1534 50.2958 41.0142V41.7237H42.2482V40.1641H48.0778C48.0735 39.7209 47.9776 39.3267 47.7901 38.9815C47.6026 38.6321 47.3406 38.3572 47.0039 38.157C46.6715 37.9567 46.2837 37.8565 45.8406 37.8565C45.3675 37.8565 44.9521 37.9716 44.5941 38.2017C44.2362 38.4276 43.957 38.7259 43.7567 39.0966C43.5607 39.4631 43.4606 39.8658 43.4563 40.3047V41.6662C43.4563 42.2372 43.5607 42.7273 43.7695 43.1364C43.9783 43.5412 44.2702 43.8523 44.6452 44.0696C45.0202 44.2827 45.4592 44.3892 45.962 44.3892C46.2987 44.3892 46.6033 44.3423 46.8761 44.2486C47.1488 44.1506 47.3853 44.0078 47.5856 43.8203C47.7859 43.6328 47.9371 43.4006 48.0394 43.1236L50.1999 43.3665C50.0636 43.9375 49.8036 44.4361 49.4201 44.8622C49.0408 45.2841 48.555 45.6122 47.9627 45.8466C47.3704 46.0767 46.6928 46.1918 45.93 46.1918ZM55.0787 46.1982C54.4565 46.1982 53.8961 46.0874 53.3975 45.8658C52.9032 45.6399 52.5112 45.3075 52.2214 44.8686C51.9359 44.4297 51.7931 43.8885 51.7931 43.245C51.7931 42.6911 51.8954 42.233 52.1 41.8707C52.3045 41.5085 52.5836 41.2188 52.9373 41.0014C53.291 40.7841 53.6895 40.62 54.1326 40.5092C54.5801 40.3942 55.0424 40.3111 55.5197 40.2599C56.095 40.2003 56.5616 40.147 56.9196 40.1001C57.2775 40.049 57.5375 39.9723 57.6994 39.87C57.8656 39.7635 57.9487 39.5994 57.9487 39.3778V39.3395C57.9487 38.858 57.8059 38.4851 57.5204 38.2209C57.2349 37.9567 56.8237 37.8246 56.2868 37.8246C55.72 37.8246 55.2704 37.9482 54.938 38.1953C54.6099 38.4425 54.3883 38.7344 54.2733 39.071L52.1127 38.7642C52.2832 38.1676 52.5645 37.669 52.9565 37.2685C53.3485 36.8636 53.8279 36.5611 54.3947 36.3608C54.9615 36.1562 55.5879 36.054 56.274 36.054C56.747 36.054 57.2179 36.1094 57.6866 36.2202C58.1554 36.331 58.5836 36.5142 58.9714 36.7699C59.3592 37.0213 59.6703 37.3643 59.9047 37.799C60.1433 38.2337 60.2626 38.777 60.2626 39.429V46H58.0382V44.6513H57.9615C57.8208 44.924 57.6227 45.1797 57.367 45.4183C57.1156 45.6527 56.7981 45.8423 56.4146 45.9872C56.0353 46.1278 55.59 46.1982 55.0787 46.1982ZM55.6795 44.4979C56.144 44.4979 56.5467 44.4062 56.8876 44.223C57.2285 44.0355 57.4906 43.7884 57.6738 43.4815C57.8613 43.1747 57.9551 42.8402 57.9551 42.478V41.321C57.8826 41.3807 57.7591 41.4361 57.5843 41.4872C57.4139 41.5384 57.2221 41.5831 57.0091 41.6214C56.796 41.6598 56.585 41.6939 56.3762 41.7237C56.1674 41.7536 55.9863 41.7791 55.8329 41.8004C55.4877 41.8473 55.1788 41.924 54.9061 42.0305C54.6333 42.1371 54.4181 42.2862 54.2605 42.478C54.1028 42.6655 54.024 42.9084 54.024 43.2067C54.024 43.6328 54.1795 43.9545 54.4906 44.1719C54.8017 44.3892 55.198 44.4979 55.6795 44.4979ZM62.5893 46V36.1818H64.8329V37.8182H64.9352C65.1142 37.2514 65.421 36.8146 65.8556 36.5078C66.2946 36.1967 66.7953 36.0412 67.3578 36.0412C67.4856 36.0412 67.6284 36.0476 67.786 36.0604C67.948 36.0689 68.0822 36.0838 68.1887 36.1051V38.2337C68.0907 38.1996 67.9352 38.1697 67.7221 38.1442C67.5133 38.1143 67.3109 38.0994 67.1149 38.0994C66.693 38.0994 66.3137 38.1911 65.9771 38.3743C65.6447 38.5533 65.3826 38.8026 65.1909 39.1222C64.9991 39.4418 64.9032 39.8104 64.9032 40.228V46H62.5893ZM75.1561 36.1818V37.9716H69.5119V36.1818H75.1561ZM70.9054 33.8295H73.2193V43.0469C73.2193 43.358 73.2662 43.5966 73.3599 43.7628C73.4579 43.9247 73.5858 44.0355 73.7434 44.0952C73.9011 44.1548 74.0758 44.1847 74.2676 44.1847C74.4125 44.1847 74.5446 44.174 74.6639 44.1527C74.7875 44.1314 74.8812 44.1122 74.9451 44.0952L75.3351 45.9041C75.2115 45.9467 75.0346 45.9936 74.8045 46.0447C74.5787 46.0959 74.3017 46.1257 73.9735 46.1342C73.394 46.1513 72.872 46.0639 72.4075 45.8722C71.943 45.6761 71.5744 45.3736 71.3017 44.9645C71.0332 44.5554 70.9011 44.044 70.9054 43.4304V33.8295ZM81.6584 46V32.9091H86.5675C87.5732 32.9091 88.4169 33.0838 89.0987 33.4332C89.7848 33.7827 90.3026 34.2727 90.652 34.9034C91.0057 35.5298 91.1825 36.2607 91.1825 37.0959C91.1825 37.9354 91.0036 38.6641 90.6456 39.282C90.2919 39.8956 89.7699 40.3707 89.0795 40.7074C88.3892 41.0398 87.5412 41.206 86.5355 41.206H83.0391V39.2372H86.2159C86.804 39.2372 87.2855 39.1562 87.6605 38.9943C88.0355 38.8281 88.3125 38.5874 88.4915 38.272C88.6747 37.9524 88.7663 37.5604 88.7663 37.0959C88.7663 36.6314 88.6747 36.2351 88.4915 35.907C88.3082 35.5746 88.0291 35.3232 87.6541 35.1527C87.2791 34.978 86.7955 34.8906 86.2031 34.8906H84.0298V46H81.6584ZM88.4212 40.0682L91.6619 46H89.0156L85.8324 40.0682H88.4212ZM96.0884 46.1982C95.4663 46.1982 94.9059 46.0874 94.4073 45.8658C93.913 45.6399 93.521 45.3075 93.2312 44.8686C92.9457 44.4297 92.8029 43.8885 92.8029 43.245C92.8029 42.6911 92.9052 42.233 93.1097 41.8707C93.3143 41.5085 93.5934 41.2188 93.9471 41.0014C94.3008 40.7841 94.6992 40.62 95.1424 40.5092C95.5898 40.3942 96.0522 40.3111 96.5295 40.2599C97.1048 40.2003 97.5714 40.147 97.9293 40.1001C98.2873 40.049 98.5472 39.9723 98.7092 39.87C98.8754 39.7635 98.9585 39.5994 98.9585 39.3778V39.3395C98.9585 38.858 98.8157 38.4851 98.5302 38.2209C98.2447 37.9567 97.8335 37.8246 97.2965 37.8246C96.7298 37.8246 96.2802 37.9482 95.9478 38.1953C95.6197 38.4425 95.3981 38.7344 95.283 39.071L93.1225 38.7642C93.293 38.1676 93.5742 37.669 93.9663 37.2685C94.3583 36.8636 94.8377 36.5611 95.4045 36.3608C95.9712 36.1562 96.5977 36.054 97.2837 36.054C97.7567 36.054 98.2276 36.1094 98.6964 36.2202C99.1651 36.331 99.5934 36.5142 99.9812 36.7699C100.369 37.0213 100.68 37.3643 100.914 37.799C101.153 38.2337 101.272 38.777 101.272 39.429V46H99.0479V44.6513H98.9712C98.8306 44.924 98.6325 45.1797 98.3768 45.4183C98.1254 45.6527 97.8079 45.8423 97.4244 45.9872C97.0451 46.1278 96.5998 46.1982 96.0884 46.1982ZM96.6893 44.4979C97.1538 44.4979 97.5565 44.4062 97.8974 44.223C98.2383 44.0355 98.5004 43.7884 98.6836 43.4815C98.8711 43.1747 98.9648 42.8402 98.9648 42.478V41.321C98.8924 41.3807 98.7688 41.4361 98.5941 41.4872C98.4237 41.5384 98.2319 41.5831 98.0188 41.6214C97.8058 41.6598 97.5948 41.6939 97.386 41.7237C97.1772 41.7536 96.9961 41.7791 96.8427 41.8004C96.4975 41.8473 96.1886 41.924 95.9158 42.0305C95.6431 42.1371 95.4279 42.2862 95.2702 42.478C95.1126 42.6655 95.0337 42.9084 95.0337 43.2067C95.0337 43.6328 95.1893 43.9545 95.5004 44.1719C95.8114 44.3892 96.2077 44.4979 96.6893 44.4979ZM108.502 36.1818V37.9716H102.858V36.1818H108.502ZM104.251 33.8295H106.565V43.0469C106.565 43.358 106.612 43.5966 106.706 43.7628C106.804 43.9247 106.931 44.0355 107.089 44.0952C107.247 44.1548 107.422 44.1847 107.613 44.1847C107.758 44.1847 107.89 44.174 108.01 44.1527C108.133 44.1314 108.227 44.1122 108.291 44.0952L108.681 45.9041C108.557 45.9467 108.38 45.9936 108.15 46.0447C107.924 46.0959 107.647 46.1257 107.319 46.1342C106.74 46.1513 106.218 46.0639 105.753 45.8722C105.289 45.6761 104.92 45.3736 104.647 44.9645C104.379 44.5554 104.247 44.044 104.251 43.4304V33.8295ZM114.678 46.1918C113.694 46.1918 112.844 45.9872 112.128 45.5781C111.416 45.1648 110.868 44.581 110.485 43.8267C110.101 43.0682 109.91 42.1754 109.91 41.1484C109.91 40.1385 110.101 39.2521 110.485 38.4893C110.873 37.7223 111.414 37.1257 112.108 36.6996C112.803 36.2692 113.619 36.054 114.557 36.054C115.162 36.054 115.733 36.152 116.27 36.348C116.811 36.5398 117.288 36.8381 117.702 37.2429C118.119 37.6477 118.447 38.1634 118.686 38.7898C118.925 39.4119 119.044 40.1534 119.044 41.0142V41.7237H110.996V40.1641H116.826C116.822 39.7209 116.726 39.3267 116.538 38.9815C116.351 38.6321 116.089 38.3572 115.752 38.157C115.42 37.9567 115.032 37.8565 114.589 37.8565C114.116 37.8565 113.7 37.9716 113.342 38.2017C112.984 38.4276 112.705 38.7259 112.505 39.0966C112.309 39.4631 112.209 39.8658 112.204 40.3047V41.6662C112.204 42.2372 112.309 42.7273 112.518 43.1364C112.726 43.5412 113.018 43.8523 113.393 44.0696C113.768 44.2827 114.207 44.3892 114.71 44.3892C115.047 44.3892 115.351 44.3423 115.624 44.2486C115.897 44.1506 116.133 44.0078 116.334 43.8203C116.534 43.6328 116.685 43.4006 116.787 43.1236L118.948 43.3665C118.812 43.9375 118.552 44.4361 118.168 44.8622C117.789 45.2841 117.303 45.6122 116.711 45.8466C116.118 46.0767 115.441 46.1918 114.678 46.1918Z" fill="#111928"/>
<path d="M28.7685 129V125.676L36.5348 118.485C37.1953 117.846 37.7493 117.271 38.1967 116.759C38.6513 116.248 38.9957 115.747 39.2301 115.257C39.4645 114.76 39.5817 114.224 39.5817 113.648C39.5817 113.009 39.4361 112.459 39.1449 111.997C38.8537 111.528 38.456 111.17 37.9517 110.921C37.4474 110.665 36.8757 110.538 36.2365 110.538C35.5689 110.538 34.9865 110.673 34.4893 110.942C33.9922 111.212 33.6087 111.599 33.3388 112.104C33.0689 112.608 32.9339 113.208 32.9339 113.904H28.5554C28.5554 112.477 28.8786 111.237 29.5249 110.186C30.1712 109.135 31.0767 108.322 32.2415 107.746C33.4063 107.171 34.7486 106.884 36.2685 106.884C37.831 106.884 39.1911 107.161 40.3487 107.714C41.5135 108.261 42.419 109.021 43.0653 109.994C43.7116 110.967 44.0348 112.082 44.0348 113.339C44.0348 114.163 43.8714 114.977 43.5447 115.779C43.2251 116.582 42.6534 117.473 41.8295 118.453C41.0057 119.426 39.8445 120.594 38.3459 121.958L35.1605 125.08V125.229H44.3224V129H28.7685ZM52.6401 126.017L52.5229 127.189C52.4306 128.126 52.253 129.06 51.9902 129.991C51.7346 130.928 51.4647 131.777 51.1806 132.537C50.9036 133.297 50.6799 133.893 50.5094 134.327H47.5691C47.6756 133.908 47.8212 133.322 48.0059 132.569C48.1905 131.823 48.3645 130.985 48.5279 130.055C48.6912 129.124 48.7942 128.176 48.8368 127.21L48.8901 126.017H52.6401ZM64.1085 129.298C62.5176 129.298 61.1007 129.025 59.8578 128.478C58.622 127.924 57.6454 127.164 56.9281 126.198C56.2179 125.225 55.8521 124.103 55.8308 122.832H60.4757C60.5041 123.364 60.6781 123.833 60.9977 124.238C61.3244 124.636 61.7576 124.945 62.2974 125.165C62.8372 125.385 63.4444 125.495 64.1191 125.495C64.8223 125.495 65.4437 125.371 65.9835 125.122C66.5233 124.874 66.9458 124.529 67.2512 124.089C67.5566 123.648 67.7093 123.141 67.7093 122.565C67.7093 121.983 67.546 121.468 67.2193 121.021C66.8997 120.566 66.438 120.211 65.8343 119.955C65.2377 119.7 64.5275 119.572 63.7037 119.572H61.6689V116.184H63.7037C64.3997 116.184 65.014 116.063 65.5467 115.822C66.0865 115.58 66.5055 115.246 66.8038 114.82C67.1021 114.387 67.2512 113.883 67.2512 113.308C67.2512 112.761 67.1199 112.281 66.8571 111.869C66.6014 111.45 66.2392 111.124 65.7704 110.889C65.3088 110.655 64.769 110.538 64.1511 110.538C63.5261 110.538 62.9544 110.651 62.4359 110.879C61.9174 111.099 61.502 111.415 61.1895 111.827C60.877 112.239 60.71 112.722 60.6887 113.276H56.2676C56.2889 112.018 56.6475 110.911 57.3436 109.952C58.0396 108.993 58.9771 108.244 60.1561 107.704C61.3422 107.157 62.6809 106.884 64.1724 106.884C65.6781 106.884 66.9956 107.157 68.1248 107.704C69.2541 108.251 70.1312 108.989 70.7562 109.92C71.3883 110.843 71.7008 111.88 71.6937 113.031C71.7008 114.252 71.3208 115.271 70.5538 116.088C69.7939 116.905 68.8031 117.423 67.5815 117.643V117.814C69.1866 118.02 70.4082 118.577 71.2463 119.487C72.0914 120.388 72.5105 121.518 72.5034 122.874C72.5105 124.117 72.1518 125.222 71.4274 126.188C70.7101 127.153 69.7193 127.913 68.4551 128.467C67.1909 129.021 65.742 129.298 64.1085 129.298ZM83.8839 129.298C82.293 129.298 80.8761 129.025 79.6332 128.478C78.3974 127.924 77.4208 127.164 76.7035 126.198C75.9933 125.225 75.6275 124.103 75.6062 122.832H80.2511C80.2795 123.364 80.4535 123.833 80.7731 124.238C81.0998 124.636 81.533 124.945 82.0728 125.165C82.6126 125.385 83.2198 125.495 83.8945 125.495C84.5977 125.495 85.2191 125.371 85.7589 125.122C86.2987 124.874 86.7212 124.529 87.0266 124.089C87.332 123.648 87.4847 123.141 87.4847 122.565C87.4847 121.983 87.3214 121.468 86.9947 121.021C86.6751 120.566 86.2134 120.211 85.6097 119.955C85.0131 119.7 84.3029 119.572 83.479 119.572H81.4442V116.184H83.479C84.1751 116.184 84.7894 116.063 85.3221 115.822C85.8619 115.58 86.2809 115.246 86.5792 114.82C86.8775 114.387 87.0266 113.883 87.0266 113.308C87.0266 112.761 86.8952 112.281 86.6325 111.869C86.3768 111.45 86.0146 111.124 85.5458 110.889C85.0842 110.655 84.5444 110.538 83.9265 110.538C83.3015 110.538 82.7298 110.651 82.2113 110.879C81.6928 111.099 81.2773 111.415 80.9648 111.827C80.6523 112.239 80.4854 112.722 80.4641 113.276H76.043C76.0643 112.018 76.4229 110.911 77.119 109.952C77.815 108.993 78.7525 108.244 79.9315 107.704C81.1175 107.157 82.4563 106.884 83.9478 106.884C85.4535 106.884 86.771 107.157 87.9002 107.704C89.0295 108.251 89.9066 108.989 90.5316 109.92C91.1637 110.843 91.4762 111.88 91.4691 113.031C91.4762 114.252 91.0962 115.271 90.3292 116.088C89.5692 116.905 88.5785 117.423 87.3569 117.643V117.814C88.962 118.02 90.1836 118.577 91.0217 119.487C91.8668 120.388 92.2859 121.518 92.2788 122.874C92.2859 124.117 91.9272 125.222 91.2028 126.188C90.4854 127.153 89.4947 127.913 88.2305 128.467C86.9663 129.021 85.5174 129.298 83.8839 129.298ZM103.659 129.298C102.068 129.298 100.651 129.025 99.4086 128.478C98.1728 127.924 97.1962 127.164 96.4789 126.198C95.7686 125.225 95.4029 124.103 95.3816 122.832H100.026C100.055 123.364 100.229 123.833 100.548 124.238C100.875 124.636 101.308 124.945 101.848 125.165C102.388 125.385 102.995 125.495 103.67 125.495C104.373 125.495 104.994 125.371 105.534 125.122C106.074 124.874 106.497 124.529 106.802 124.089C107.107 123.648 107.26 123.141 107.26 122.565C107.26 121.983 107.097 121.468 106.77 121.021C106.45 120.566 105.989 120.211 105.385 119.955C104.789 119.7 104.078 119.572 103.254 119.572H101.22V116.184H103.254C103.95 116.184 104.565 116.063 105.097 115.822C105.637 115.58 106.056 115.246 106.355 114.82C106.653 114.387 106.802 113.883 106.802 113.308C106.802 112.761 106.671 112.281 106.408 111.869C106.152 111.45 105.79 111.124 105.321 110.889C104.86 110.655 104.32 110.538 103.702 110.538C103.077 110.538 102.505 110.651 101.987 110.879C101.468 111.099 101.053 111.415 100.74 111.827C100.428 112.239 100.261 112.722 100.24 113.276H95.8184C95.8397 112.018 96.1983 110.911 96.8944 109.952C97.5904 108.993 98.5279 108.244 99.7069 107.704C100.893 107.157 102.232 106.884 103.723 106.884C105.229 106.884 106.546 107.157 107.676 107.704C108.805 108.251 109.682 108.989 110.307 109.92C110.939 110.843 111.252 111.88 111.244 113.031C111.252 114.252 110.872 115.271 110.105 116.088C109.345 116.905 108.354 117.423 107.132 117.643V117.814C108.737 118.02 109.959 118.577 110.797 119.487C111.642 120.388 112.061 121.518 112.054 122.874C112.061 124.117 111.703 125.222 110.978 126.188C110.261 127.153 109.27 127.913 108.006 128.467C106.742 129.021 105.293 129.298 103.659 129.298Z" fill="#0E9F6E"/>
<path d="M270.095 35.2727H268.36L271.433 44H273.385L276.461 35.2727H274.723L272.456 42.142H272.366L270.095 35.2727ZM277.543 44H279.085V37.4545H277.543V44ZM278.318 36.5256C278.808 36.5256 279.209 36.1506 279.209 35.6903C279.209 35.2259 278.808 34.8509 278.318 34.8509C277.824 34.8509 277.423 35.2259 277.423 35.6903C277.423 36.1506 277.824 36.5256 278.318 36.5256ZM283.569 44.1278C285.095 44.1278 286.143 43.3821 286.416 42.2443L284.975 42.0824C284.767 42.6364 284.255 42.9261 283.591 42.9261C282.593 42.9261 281.933 42.2699 281.92 41.1491H286.48V40.6761C286.48 38.3793 285.099 37.3693 283.488 37.3693C281.613 37.3693 280.39 38.7457 280.39 40.7656C280.39 42.8196 281.596 44.1278 283.569 44.1278ZM281.924 40.1094C281.971 39.2741 282.589 38.571 283.51 38.571C284.396 38.571 284.993 39.2188 285.001 40.1094H281.924ZM289.1 44H290.711L291.939 39.5767H292.028L293.255 44H294.862L296.716 37.4545H295.139L294.005 42.0312H293.941L292.765 37.4545H291.21L290.034 42.0568H289.974L288.824 37.4545H287.251L289.1 44Z" fill="#1C64F2"/>
<path d="M208 36V40M208 44H208.01M217 40C217 41.1819 216.767 42.3522 216.315 43.4442C215.863 44.5361 215.2 45.5282 214.364 46.364C213.528 47.1997 212.536 47.8626 211.444 48.3149C210.352 48.7672 209.182 49 208 49C206.818 49 205.648 48.7672 204.556 48.3149C203.464 47.8626 202.472 47.1997 201.636 46.364C200.8 45.5282 200.137 44.5361 199.685 43.4442C199.233 42.3522 199 41.1819 199 40C199 37.6131 199.948 35.3239 201.636 33.636C203.324 31.9482 205.613 31 208 31C210.387 31 212.676 31.9482 214.364 33.636C216.052 35.3239 217 37.6131 217 40Z" stroke="#9CA3AF" stroke-width="2" stroke-linecap="round" stroke-linejoin="round"/>
<defs>
<filter id="filter0_dd_25_13136" x="0" y="0" width="328.75" height="186" filterUnits="userSpaceOnUse" color-interpolation-filters="sRGB">
<feFlood flood-opacity="0" result="BackgroundImageFix"/>
<feColorMatrix in="SourceAlpha" type="matrix" values="0 0 0 0 0 0 0 0 0 0 0 0 0 0 0 0 0 0 127 0" result="hardAlpha"/>
<feOffset dy="1"/>
<feGaussianBlur stdDeviation="1.5"/>
<feColorMatrix type="matrix" values="0 0 0 0 0 0 0 0 0 0 0 0 0 0 0 0 0 0 0.1 0"/>
<feBlend mode="normal" in2="BackgroundImageFix" result="effect1_dropShadow_25_13136"/>
<feColorMatrix in="SourceAlpha" type="matrix" values="0 0 0 0 0 0 0 0 0 0 0 0 0 0 0 0 0 0 127 0" result="hardAlpha"/>
<feOffset dy="1"/>
<feGaussianBlur stdDeviation="1"/>
<feColorMatrix type="matrix" values="0 0 0 0 0 0 0 0 0 0 0 0 0 0 0 0 0 0 0.06 0"/>
<feBlend mode="normal" in2="effect1_dropShadow_25_13136" result="effect2_dropShadow_25_13136"/>
<feBlend mode="normal" in="SourceGraphic" in2="effect2_dropShadow_25_13136" result="shape"/>
</filter>
</defs>
</svg>
