<svg width="329" height="186" viewBox="0 0 329 186" fill="none" xmlns="http://www.w3.org/2000/svg">
<g filter="url(#filter0_dd_25_13148)">
<rect x="3" y="2" width="322.75" height="180" rx="16" fill="white"/>
</g>
<path d="M243.945 125.179C242.96 125.179 242.085 125.019 241.317 124.7C240.555 124.376 239.956 123.935 239.521 123.376C239.087 122.818 238.869 122.185 238.869 121.478C238.869 120.933 238.993 120.432 239.24 119.976C239.491 119.516 239.832 119.134 240.263 118.832C240.693 118.525 241.175 118.329 241.707 118.244V118.154C241.009 118.013 240.442 117.675 240.007 117.138C239.572 116.597 239.355 115.968 239.355 115.252C239.355 114.575 239.553 113.972 239.95 113.443C240.346 112.911 240.889 112.493 241.58 112.19C242.274 111.884 243.062 111.73 243.945 111.73C244.827 111.73 245.613 111.884 246.303 112.19C246.998 112.497 247.543 112.917 247.94 113.45C248.336 113.978 248.536 114.579 248.54 115.252C248.536 115.972 248.315 116.601 247.876 117.138C247.437 117.675 246.874 118.013 246.188 118.154V118.244C246.712 118.329 247.188 118.525 247.614 118.832C248.044 119.134 248.385 119.516 248.636 119.976C248.892 120.432 249.022 120.933 249.026 121.478C249.022 122.185 248.803 122.818 248.368 123.376C247.933 123.935 247.332 124.376 246.565 124.7C245.803 125.019 244.929 125.179 243.945 125.179ZM243.945 123.146C244.384 123.146 244.767 123.067 245.095 122.91C245.423 122.748 245.679 122.526 245.862 122.245C246.05 121.96 246.143 121.631 246.143 121.261C246.143 120.881 246.048 120.547 245.856 120.257C245.664 119.963 245.404 119.733 245.076 119.567C244.748 119.396 244.371 119.311 243.945 119.311C243.523 119.311 243.146 119.396 242.813 119.567C242.481 119.733 242.219 119.963 242.027 120.257C241.839 120.547 241.746 120.881 241.746 121.261C241.746 121.631 241.837 121.96 242.021 122.245C242.204 122.526 242.462 122.748 242.794 122.91C243.126 123.067 243.51 123.146 243.945 123.146ZM243.945 117.298C244.311 117.298 244.637 117.223 244.923 117.074C245.208 116.925 245.432 116.718 245.594 116.454C245.756 116.19 245.837 115.885 245.837 115.54C245.837 115.199 245.756 114.901 245.594 114.645C245.432 114.385 245.21 114.183 244.929 114.038C244.648 113.888 244.32 113.814 243.945 113.814C243.574 113.814 243.246 113.888 242.96 114.038C242.675 114.183 242.451 114.385 242.289 114.645C242.131 114.901 242.053 115.199 242.053 115.54C242.053 115.885 242.134 116.19 242.295 116.454C242.457 116.718 242.681 116.925 242.967 117.074C243.252 117.223 243.578 117.298 243.945 117.298ZM251.479 125L256.906 114.261V114.172H250.584V111.909H259.77V114.204L254.336 125H251.479ZM268.832 122.545V121.855C268.832 121.331 268.943 120.849 269.164 120.411C269.39 119.967 269.716 119.614 270.142 119.349C270.573 119.081 271.097 118.947 271.715 118.947C272.341 118.947 272.868 119.079 273.294 119.343C273.724 119.607 274.048 119.961 274.265 120.404C274.487 120.843 274.598 121.327 274.598 121.855V122.545C274.598 123.07 274.487 123.553 274.265 123.996C274.044 124.435 273.718 124.787 273.287 125.051C272.857 125.32 272.333 125.454 271.715 125.454C271.088 125.454 270.562 125.32 270.136 125.051C269.71 124.787 269.386 124.435 269.164 123.996C268.943 123.553 268.832 123.07 268.832 122.545ZM270.692 121.855V122.545C270.692 122.848 270.765 123.134 270.909 123.402C271.059 123.67 271.327 123.805 271.715 123.805C272.103 123.805 272.367 123.673 272.507 123.408C272.652 123.144 272.725 122.857 272.725 122.545V121.855C272.725 121.544 272.657 121.254 272.52 120.986C272.384 120.717 272.115 120.583 271.715 120.583C271.331 120.583 271.065 120.717 270.916 120.986C270.767 121.254 270.692 121.544 270.692 121.855ZM262.114 115.054V114.364C262.114 113.835 262.227 113.352 262.453 112.913C262.679 112.469 263.005 112.116 263.431 111.852C263.861 111.587 264.381 111.455 264.99 111.455C265.621 111.455 266.15 111.587 266.576 111.852C267.002 112.116 267.326 112.469 267.547 112.913C267.769 113.352 267.88 113.835 267.88 114.364V115.054C267.88 115.582 267.767 116.066 267.541 116.505C267.319 116.944 266.993 117.295 266.563 117.56C266.137 117.82 265.613 117.95 264.99 117.95C264.368 117.95 263.842 117.817 263.412 117.553C262.985 117.285 262.662 116.933 262.44 116.499C262.223 116.06 262.114 115.578 262.114 115.054ZM263.987 114.364V115.054C263.987 115.365 264.059 115.653 264.204 115.917C264.353 116.181 264.615 116.313 264.99 116.313C265.382 116.313 265.649 116.181 265.789 115.917C265.934 115.653 266.007 115.365 266.007 115.054V114.364C266.007 114.053 265.939 113.763 265.802 113.494C265.666 113.226 265.395 113.092 264.99 113.092C264.611 113.092 264.349 113.228 264.204 113.501C264.059 113.773 263.987 114.061 263.987 114.364ZM262.958 125L271.958 111.909H273.632L264.632 125H262.958Z" fill="#111928"/>
<path d="M297 118C297 140.091 279.091 158 257 158C234.909 158 217 140.091 217 118C217 95.9086 234.909 78 257 78C279.091 78 297 95.9086 297 118ZM221 118C221 137.882 237.118 154 257 154C276.882 154 293 137.882 293 118C293 98.1177 276.882 82 257 82C237.118 82 221 98.1177 221 118Z" fill="#F3F4F6"/>
<path d="M295 118C296.105 118 297.005 118.896 296.95 119.999C296.525 128.486 293.407 136.637 288.02 143.254C282.211 150.389 274.121 155.303 265.111 157.169C256.102 159.035 246.725 157.738 238.561 153.497C230.397 149.255 223.944 142.33 220.29 133.886C216.636 125.442 216.004 115.997 218.502 107.142C220.999 98.2875 226.473 90.5642 234 85.274C241.527 79.9838 250.648 77.4501 259.825 78.0999C268.336 78.7025 276.413 82.0088 282.89 87.509C283.732 88.224 283.769 89.494 283.013 90.2992C282.257 91.1044 280.994 91.1393 280.148 90.4291C274.345 85.5562 267.136 82.6275 259.543 82.0899C251.283 81.5051 243.074 83.7854 236.3 88.5466C229.525 93.3078 224.599 100.259 222.352 108.228C220.104 116.198 220.672 124.698 223.961 132.297C227.249 139.897 233.057 146.13 240.405 149.947C247.753 153.764 256.192 154.931 264.3 153.252C272.409 151.573 279.69 147.15 284.918 140.729C289.724 134.826 292.524 127.565 292.944 119.999C293.006 118.896 293.895 118 295 118Z" fill="#1C64F2"/>
<path d="M28.2912 42V28.9091H33.2003C34.206 28.9091 35.0497 29.0838 35.7315 29.4332C36.4176 29.7827 36.9354 30.2727 37.2848 30.9034C37.6385 31.5298 37.8153 32.2607 37.8153 33.0959C37.8153 33.9354 37.6364 34.6641 37.2784 35.282C36.9247 35.8956 36.4027 36.3707 35.7124 36.7074C35.022 37.0398 34.174 37.206 33.1683 37.206H29.6719V35.2372H32.8487C33.4368 35.2372 33.9183 35.1562 34.2933 34.9943C34.6683 34.8281 34.9453 34.5874 35.1243 34.272C35.3075 33.9524 35.3991 33.5604 35.3991 33.0959C35.3991 32.6314 35.3075 32.2351 35.1243 31.907C34.9411 31.5746 34.6619 31.3232 34.2869 31.1527C33.9119 30.978 33.4283 30.8906 32.8359 30.8906H30.6626V42H28.2912ZM35.054 36.0682L38.2947 42H35.6484L32.4652 36.0682H35.054ZM44.1019 42.1918C43.1175 42.1918 42.2674 41.9872 41.5515 41.5781C40.8398 41.1648 40.2923 40.581 39.9087 39.8267C39.5252 39.0682 39.3335 38.1754 39.3335 37.1484C39.3335 36.1385 39.5252 35.2521 39.9087 34.4893C40.2965 33.7223 40.8377 33.1257 41.5323 32.6996C42.2269 32.2692 43.043 32.054 43.9805 32.054C44.5856 32.054 45.1566 32.152 45.6935 32.348C46.2347 32.5398 46.712 32.8381 47.1254 33.2429C47.543 33.6477 47.8711 34.1634 48.1097 34.7898C48.3484 35.4119 48.4677 36.1534 48.4677 37.0142V37.7237H40.4201V36.1641H46.2496C46.2454 35.7209 46.1495 35.3267 45.962 34.9815C45.7745 34.6321 45.5124 34.3572 45.1758 34.157C44.8434 33.9567 44.4556 33.8565 44.0124 33.8565C43.5394 33.8565 43.1239 33.9716 42.766 34.2017C42.408 34.4276 42.1289 34.7259 41.9286 35.0966C41.7326 35.4631 41.6325 35.8658 41.6282 36.3047V37.6662C41.6282 38.2372 41.7326 38.7273 41.9414 39.1364C42.1502 39.5412 42.4421 39.8523 42.8171 40.0696C43.1921 40.2827 43.631 40.3892 44.1339 40.3892C44.4705 40.3892 44.7752 40.3423 45.0479 40.2486C45.3207 40.1506 45.5572 40.0078 45.7575 39.8203C45.9577 39.6328 46.109 39.4006 46.2113 39.1236L48.3718 39.3665C48.2354 39.9375 47.9755 40.4361 47.592 40.8622C47.2127 41.2841 46.7269 41.6122 46.1346 41.8466C45.5423 42.0767 44.8647 42.1918 44.1019 42.1918ZM58.1852 34.777L56.0758 35.0071C56.0162 34.794 55.9118 34.5938 55.7626 34.4062C55.6177 34.2188 55.4217 34.0675 55.1745 33.9524C54.9274 33.8374 54.6248 33.7798 54.2669 33.7798C53.7853 33.7798 53.3805 33.8842 53.0524 34.093C52.7285 34.3018 52.5687 34.5724 52.573 34.9048C52.5687 35.1903 52.6731 35.4226 52.8862 35.6016C53.1035 35.7805 53.4615 35.9276 53.9601 36.0426L55.6348 36.4006C56.5637 36.6009 57.2541 36.9183 57.7058 37.353C58.1618 37.7876 58.3919 38.3565 58.3961 39.0597C58.3919 39.6776 58.2108 40.223 57.8528 40.696C57.4991 41.1648 57.0069 41.5312 56.3762 41.7955C55.7456 42.0597 55.0211 42.1918 54.2029 42.1918C53.0012 42.1918 52.0339 41.9403 51.301 41.4375C50.568 40.9304 50.1312 40.2251 49.9906 39.3217L52.247 39.1044C52.3493 39.5476 52.5666 39.8821 52.899 40.108C53.2314 40.3338 53.6639 40.4467 54.1966 40.4467C54.7463 40.4467 55.1873 40.3338 55.5197 40.108C55.8564 39.8821 56.0247 39.603 56.0247 39.2706C56.0247 38.9893 55.916 38.7571 55.6987 38.5739C55.4856 38.3906 55.1532 38.25 54.7015 38.152L53.0268 37.8004C52.085 37.6044 51.3883 37.2741 50.9366 36.8097C50.4849 36.3409 50.2612 35.7486 50.2654 35.0327C50.2612 34.4276 50.4252 33.9034 50.7576 33.4602C51.0943 33.0128 51.5609 32.6676 52.1575 32.4247C52.7583 32.1776 53.4508 32.054 54.2349 32.054C55.3855 32.054 56.291 32.299 56.9515 32.7891C57.6163 33.2791 58.0275 33.9418 58.1852 34.777ZM60.3042 45.6818V32.1818H62.5797V33.8054H62.714C62.8333 33.5668 63.0016 33.3132 63.2189 33.0447C63.4363 32.772 63.7303 32.5398 64.101 32.348C64.4718 32.152 64.9448 32.054 65.5201 32.054C66.2786 32.054 66.9625 32.2479 67.5719 32.6357C68.1855 33.0192 68.6713 33.5881 69.0293 34.3423C69.3915 35.0923 69.5726 36.0128 69.5726 37.1037C69.5726 38.1818 69.3958 39.098 69.0421 39.8523C68.6884 40.6065 68.2069 41.1818 67.5975 41.5781C66.9881 41.9744 66.2978 42.1726 65.5265 42.1726C64.964 42.1726 64.4973 42.0788 64.1266 41.8913C63.7559 41.7038 63.4576 41.478 63.2317 41.2138C63.0101 40.9453 62.8375 40.6918 62.714 40.4531H62.6181V45.6818H60.3042ZM62.5733 37.0909C62.5733 37.7259 62.6628 38.282 62.8418 38.7592C63.025 39.2365 63.2871 39.6094 63.628 39.8778C63.9732 40.142 64.3908 40.2741 64.8809 40.2741C65.3922 40.2741 65.8205 40.1378 66.1657 39.8651C66.5108 39.5881 66.7708 39.2109 66.9455 38.7337C67.1245 38.2521 67.214 37.7045 67.214 37.0909C67.214 36.4815 67.1266 35.9403 66.9519 35.4673C66.7772 34.9943 66.5172 34.6236 66.1721 34.3551C65.8269 34.0866 65.3965 33.9524 64.8809 33.9524C64.3865 33.9524 63.9668 34.0824 63.6216 34.3423C63.2765 34.6023 63.0144 34.9666 62.8354 35.4354C62.6607 35.9041 62.5733 36.456 62.5733 37.0909ZM71.5542 42V32.1818H73.8681V42H71.5542ZM72.7175 30.7884C72.351 30.7884 72.0357 30.6669 71.7715 30.424C71.5073 30.1768 71.3752 29.8807 71.3752 29.5355C71.3752 29.1861 71.5073 28.8899 71.7715 28.647C72.0357 28.3999 72.351 28.2763 72.7175 28.2763C73.0882 28.2763 73.4036 28.3999 73.6635 28.647C73.9277 28.8899 74.0598 29.1861 74.0598 29.5355C74.0598 29.8807 73.9277 30.1768 73.6635 30.424C73.4036 30.6669 73.0882 30.7884 72.7175 30.7884ZM76.2475 42V32.1818H78.4911V33.8182H78.5934C78.7724 33.2514 79.0792 32.8146 79.5138 32.5078C79.9528 32.1967 80.4535 32.0412 81.016 32.0412C81.1438 32.0412 81.2866 32.0476 81.4442 32.0604C81.6062 32.0689 81.7404 32.0838 81.8469 32.1051V34.2337C81.7489 34.1996 81.5934 34.1697 81.3803 34.1442C81.1715 34.1143 80.9691 34.0994 80.7731 34.0994C80.3512 34.0994 79.9719 34.1911 79.6353 34.3743C79.3029 34.5533 79.0408 34.8026 78.8491 35.1222C78.6573 35.4418 78.5614 35.8104 78.5614 36.228V42H76.2475ZM86.0337 42.1982C85.4116 42.1982 84.8512 42.0874 84.3526 41.8658C83.8583 41.6399 83.4663 41.3075 83.1765 40.8686C82.891 40.4297 82.7482 39.8885 82.7482 39.245C82.7482 38.6911 82.8505 38.233 83.055 37.8707C83.2596 37.5085 83.5387 37.2188 83.8924 37.0014C84.2461 36.7841 84.6445 36.62 85.0877 36.5092C85.5352 36.3942 85.9975 36.3111 86.4748 36.2599C87.0501 36.2003 87.5167 36.147 87.8746 36.1001C88.2326 36.049 88.4925 35.9723 88.6545 35.87C88.8207 35.7635 88.9038 35.5994 88.9038 35.3778V35.3395C88.9038 34.858 88.761 34.4851 88.4755 34.2209C88.19 33.9567 87.7788 33.8246 87.2418 33.8246C86.6751 33.8246 86.2255 33.9482 85.8931 34.1953C85.565 34.4425 85.3434 34.7344 85.2283 35.071L83.0678 34.7642C83.2383 34.1676 83.5195 33.669 83.9116 33.2685C84.3036 32.8636 84.783 32.5611 85.3498 32.3608C85.9165 32.1562 86.543 32.054 87.229 32.054C87.7021 32.054 88.1729 32.1094 88.6417 32.2202C89.1104 32.331 89.5387 32.5142 89.9265 32.7699C90.3143 33.0213 90.6254 33.3643 90.8597 33.799C91.0984 34.2337 91.2177 34.777 91.2177 35.429V42H88.9933V40.6513H88.9165C88.7759 40.924 88.5778 41.1797 88.3221 41.4183C88.0707 41.6527 87.7532 41.8423 87.3697 41.9872C86.9904 42.1278 86.5451 42.1982 86.0337 42.1982ZM86.6346 40.4979C87.0991 40.4979 87.5018 40.4062 87.8427 40.223C88.1836 40.0355 88.4457 39.7884 88.6289 39.4815C88.8164 39.1747 88.9102 38.8402 88.9102 38.478V37.321C88.8377 37.3807 88.7141 37.4361 88.5394 37.4872C88.369 37.5384 88.1772 37.5831 87.9641 37.6214C87.7511 37.6598 87.5401 37.6939 87.3313 37.7237C87.1225 37.7536 86.9414 37.7791 86.788 37.8004C86.4428 37.8473 86.1339 37.924 85.8612 38.0305C85.5884 38.1371 85.3732 38.2862 85.2156 38.478C85.0579 38.6655 84.979 38.9084 84.979 39.2067C84.979 39.6328 85.1346 39.9545 85.4457 40.1719C85.7567 40.3892 86.1531 40.4979 86.6346 40.4979ZM98.4471 32.1818V33.9716H92.8029V32.1818H98.4471ZM94.1964 29.8295H96.5103V39.0469C96.5103 39.358 96.5572 39.5966 96.6509 39.7628C96.7489 39.9247 96.8768 40.0355 97.0344 40.0952C97.1921 40.1548 97.3668 40.1847 97.5586 40.1847C97.7035 40.1847 97.8356 40.174 97.9549 40.1527C98.0785 40.1314 98.1722 40.1122 98.2362 40.0952L98.6261 41.9041C98.5025 41.9467 98.3256 41.9936 98.0955 42.0447C97.8697 42.0959 97.5927 42.1257 97.2646 42.1342C96.685 42.1513 96.163 42.0639 95.6985 41.8722C95.234 41.6761 94.8654 41.3736 94.5927 40.9645C94.3242 40.5554 94.1921 40.044 94.1964 39.4304V29.8295ZM104.559 42.1918C103.601 42.1918 102.77 41.9808 102.067 41.5589C101.363 41.1371 100.818 40.5469 100.43 39.7884C100.047 39.0298 99.8549 38.1435 99.8549 37.1293C99.8549 36.1151 100.047 35.2266 100.43 34.4638C100.818 33.701 101.363 33.1087 102.067 32.6868C102.77 32.2649 103.601 32.054 104.559 32.054C105.518 32.054 106.349 32.2649 107.052 32.6868C107.756 33.1087 108.299 33.701 108.682 34.4638C109.07 35.2266 109.264 36.1151 109.264 37.1293C109.264 38.1435 109.07 39.0298 108.682 39.7884C108.299 40.5469 107.756 41.1371 107.052 41.5589C106.349 41.9808 105.518 42.1918 104.559 42.1918ZM104.572 40.3381C105.092 40.3381 105.527 40.1953 105.876 39.9098C106.226 39.62 106.486 39.2322 106.656 38.7464C106.831 38.2607 106.918 37.7195 106.918 37.1229C106.918 36.522 106.831 35.9787 106.656 35.4929C106.486 35.0028 106.226 34.6129 105.876 34.3232C105.527 34.0334 105.092 33.8885 104.572 33.8885C104.04 33.8885 103.596 34.0334 103.243 34.3232C102.893 34.6129 102.631 35.0028 102.456 35.4929C102.286 35.9787 102.201 36.522 102.201 37.1229C102.201 37.7195 102.286 38.2607 102.456 38.7464C102.631 39.2322 102.893 39.62 103.243 39.9098C103.596 40.1953 104.04 40.3381 104.572 40.3381ZM111.228 42V32.1818H113.472V33.8182H113.574C113.753 33.2514 114.06 32.8146 114.494 32.5078C114.933 32.1967 115.434 32.0412 115.996 32.0412C116.124 32.0412 116.267 32.0476 116.425 32.0604C116.587 32.0689 116.721 32.0838 116.827 32.1051V34.2337C116.729 34.1996 116.574 34.1697 116.361 34.1442C116.152 34.1143 115.95 34.0994 115.754 34.0994C115.332 34.0994 114.952 34.1911 114.616 34.3743C114.283 34.5533 114.021 34.8026 113.83 35.1222C113.638 35.4418 113.542 35.8104 113.542 36.228V42H111.228ZM120.102 45.6818C119.786 45.6818 119.494 45.6563 119.226 45.6051C118.962 45.5582 118.751 45.5028 118.593 45.4389L119.13 43.6364C119.467 43.7344 119.767 43.7813 120.031 43.777C120.296 43.7727 120.528 43.6896 120.728 43.5277C120.933 43.37 121.105 43.1058 121.246 42.7351L121.444 42.2045L117.884 32.1818H120.338L122.601 39.5966H122.703L124.972 32.1818H127.433L123.502 43.1889C123.319 43.7088 123.076 44.1541 122.774 44.5249C122.471 44.8999 122.1 45.1854 121.661 45.3814C121.227 45.5817 120.707 45.6818 120.102 45.6818ZM133.602 42V28.9091H138.511C139.517 28.9091 140.36 29.0838 141.042 29.4332C141.728 29.7827 142.246 30.2727 142.595 30.9034C142.949 31.5298 143.126 32.2607 143.126 33.0959C143.126 33.9354 142.947 34.6641 142.589 35.282C142.235 35.8956 141.713 36.3707 141.023 36.7074C140.333 37.0398 139.485 37.206 138.479 37.206H134.982V35.2372H138.159C138.747 35.2372 139.229 35.1562 139.604 34.9943C139.979 34.8281 140.256 34.5874 140.435 34.272C140.618 33.9524 140.71 33.5604 140.71 33.0959C140.71 32.6314 140.618 32.2351 140.435 31.907C140.252 31.5746 139.972 31.3232 139.597 31.1527C139.222 30.978 138.739 30.8906 138.146 30.8906H135.973V42H133.602ZM140.365 36.0682L143.605 42H140.959L137.776 36.0682H140.365ZM148.032 42.1982C147.41 42.1982 146.849 42.0874 146.351 41.8658C145.856 41.6399 145.464 41.3075 145.175 40.8686C144.889 40.4297 144.746 39.8885 144.746 39.245C144.746 38.6911 144.849 38.233 145.053 37.8707C145.258 37.5085 145.537 37.2188 145.89 37.0014C146.244 36.7841 146.643 36.62 147.086 36.5092C147.533 36.3942 147.996 36.3111 148.473 36.2599C149.048 36.2003 149.515 36.147 149.873 36.1001C150.231 36.049 150.491 35.9723 150.653 35.87C150.819 35.7635 150.902 35.5994 150.902 35.3778V35.3395C150.902 34.858 150.759 34.4851 150.474 34.2209C150.188 33.9567 149.777 33.8246 149.24 33.8246C148.673 33.8246 148.224 33.9482 147.891 34.1953C147.563 34.4425 147.341 34.7344 147.226 35.071L145.066 34.7642C145.236 34.1676 145.518 33.669 145.91 33.2685C146.302 32.8636 146.781 32.5611 147.348 32.3608C147.915 32.1562 148.541 32.054 149.227 32.054C149.7 32.054 150.171 32.1094 150.64 32.2202C151.108 32.331 151.537 32.5142 151.925 32.7699C152.312 33.0213 152.623 33.3643 152.858 33.799C153.096 34.2337 153.216 34.777 153.216 35.429V42H150.991V40.6513H150.915C150.774 40.924 150.576 41.1797 150.32 41.4183C150.069 41.6527 149.751 41.8423 149.368 41.9872C148.988 42.1278 148.543 42.1982 148.032 42.1982ZM148.633 40.4979C149.097 40.4979 149.5 40.4062 149.841 40.223C150.182 40.0355 150.444 39.7884 150.627 39.4815C150.814 39.1747 150.908 38.8402 150.908 38.478V37.321C150.836 37.3807 150.712 37.4361 150.537 37.4872C150.367 37.5384 150.175 37.5831 149.962 37.6214C149.749 37.6598 149.538 37.6939 149.329 37.7237C149.121 37.7536 148.939 37.7791 148.786 37.8004C148.441 37.8473 148.132 37.924 147.859 38.0305C147.586 38.1371 147.371 38.2862 147.214 38.478C147.056 38.6655 146.977 38.9084 146.977 39.2067C146.977 39.6328 147.133 39.9545 147.444 40.1719C147.755 40.3892 148.151 40.4979 148.633 40.4979ZM160.445 32.1818V33.9716H154.801V32.1818H160.445ZM156.194 29.8295H158.508V39.0469C158.508 39.358 158.555 39.5966 158.649 39.7628C158.747 39.9247 158.875 40.0355 159.032 40.0952C159.19 40.1548 159.365 40.1847 159.557 40.1847C159.702 40.1847 159.834 40.174 159.953 40.1527C160.077 40.1314 160.17 40.1122 160.234 40.0952L160.624 41.9041C160.501 41.9467 160.324 41.9936 160.094 42.0447C159.868 42.0959 159.591 42.1257 159.263 42.1342C158.683 42.1513 158.161 42.0639 157.697 41.8722C157.232 41.6761 156.863 41.3736 156.591 40.9645C156.322 40.5554 156.19 40.044 156.194 39.4304V29.8295ZM166.621 42.1918C165.637 42.1918 164.787 41.9872 164.071 41.5781C163.359 41.1648 162.812 40.581 162.428 39.8267C162.045 39.0682 161.853 38.1754 161.853 37.1484C161.853 36.1385 162.045 35.2521 162.428 34.4893C162.816 33.7223 163.357 33.1257 164.052 32.6996C164.746 32.2692 165.562 32.054 166.5 32.054C167.105 32.054 167.676 32.152 168.213 32.348C168.754 32.5398 169.232 32.8381 169.645 33.2429C170.063 33.6477 170.391 34.1634 170.629 34.7898C170.868 35.4119 170.987 36.1534 170.987 37.0142V37.7237H162.94V36.1641H168.769C168.765 35.7209 168.669 35.3267 168.482 34.9815C168.294 34.6321 168.032 34.3572 167.695 34.157C167.363 33.9567 166.975 33.8565 166.532 33.8565C166.059 33.8565 165.643 33.9716 165.286 34.2017C164.928 34.4276 164.648 34.7259 164.448 35.0966C164.252 35.4631 164.152 35.8658 164.148 36.3047V37.6662C164.148 38.2372 164.252 38.7273 164.461 39.1364C164.67 39.5412 164.962 39.8523 165.337 40.0696C165.712 40.2827 166.151 40.3892 166.653 40.3892C166.99 40.3892 167.295 40.3423 167.567 40.2486C167.84 40.1506 168.077 40.0078 168.277 39.8203C168.477 39.6328 168.629 39.4006 168.731 39.1236L170.891 39.3665C170.755 39.9375 170.495 40.4361 170.112 40.8622C169.732 41.2841 169.246 41.6122 168.654 41.8466C168.062 42.0767 167.384 42.1918 166.621 42.1918Z" fill="#111928"/>
<path d="M34.2607 107.182V129H29.6477V111.56H29.5199L24.5234 114.692V110.602L29.9247 107.182H34.2607ZM43.2495 126.017L43.1323 127.189C43.04 128.126 42.8624 129.06 42.5996 129.991C42.3439 130.928 42.074 131.777 41.79 132.537C41.513 133.297 41.2892 133.893 41.1188 134.327H38.1784C38.285 133.908 38.4306 133.322 38.6152 132.569C38.7999 131.823 38.9739 130.985 39.1373 130.055C39.3006 129.124 39.4036 128.176 39.4462 127.21L39.4995 126.017H43.2495ZM47.3564 129V125.676L55.1227 118.485C55.7832 117.846 56.3372 117.271 56.7846 116.759C57.2392 116.248 57.5836 115.747 57.818 115.257C58.0524 114.76 58.1696 114.224 58.1696 113.648C58.1696 113.009 58.024 112.459 57.7328 111.997C57.4416 111.528 57.0439 111.17 56.5396 110.921C56.0353 110.665 55.4636 110.538 54.8244 110.538C54.1568 110.538 53.5744 110.673 53.0772 110.942C52.5801 111.212 52.1966 111.599 51.9267 112.104C51.6568 112.608 51.5218 113.208 51.5218 113.904H47.1433C47.1433 112.477 47.4664 111.237 48.1127 110.186C48.7591 109.135 49.6646 108.322 50.8294 107.746C51.9941 107.171 53.3365 106.884 54.8564 106.884C56.4189 106.884 57.7789 107.161 58.9366 107.714C60.1014 108.261 61.0069 109.021 61.6532 109.994C62.2995 110.967 62.6227 112.082 62.6227 113.339C62.6227 114.163 62.4593 114.977 62.1326 115.779C61.813 116.582 61.2413 117.473 60.4174 118.453C59.5936 119.426 58.4324 120.594 56.9338 121.958L53.7484 125.08V125.229H62.9103V129H47.3564ZM74.3175 129.298C72.7266 129.298 71.3097 129.025 70.0668 128.478C68.831 127.924 67.8544 127.164 67.1371 126.198C66.4268 125.225 66.0611 124.103 66.0398 122.832H70.6847C70.7131 123.364 70.8871 123.833 71.2067 124.238C71.5334 124.636 71.9666 124.945 72.5064 125.165C73.0462 125.385 73.6534 125.495 74.3281 125.495C75.0312 125.495 75.6527 125.371 76.1925 125.122C76.7322 124.874 77.1548 124.529 77.4602 124.089C77.7656 123.648 77.9183 123.141 77.9183 122.565C77.9183 121.983 77.755 121.468 77.4283 121.021C77.1087 120.566 76.647 120.211 76.0433 119.955C75.4467 119.7 74.7365 119.572 73.9126 119.572H71.8778V116.184H73.9126C74.6087 116.184 75.223 116.063 75.7557 115.822C76.2955 115.58 76.7145 115.246 77.0128 114.82C77.3111 114.387 77.4602 113.883 77.4602 113.308C77.4602 112.761 77.3288 112.281 77.0661 111.869C76.8104 111.45 76.4482 111.124 75.9794 110.889C75.5178 110.655 74.978 110.538 74.3601 110.538C73.7351 110.538 73.1634 110.651 72.6449 110.879C72.1264 111.099 71.7109 111.415 71.3984 111.827C71.0859 112.239 70.919 112.722 70.8977 113.276H66.4766C66.4979 112.018 66.8565 110.911 67.5526 109.952C68.2486 108.993 69.1861 108.244 70.3651 107.704C71.5511 107.157 72.8899 106.884 74.3814 106.884C75.8871 106.884 77.2045 107.157 78.3338 107.704C79.4631 108.251 80.3402 108.989 80.9652 109.92C81.5973 110.843 81.9098 111.88 81.9027 113.031C81.9098 114.252 81.5298 115.271 80.7628 116.088C80.0028 116.905 79.0121 117.423 77.7905 117.643V117.814C79.3956 118.02 80.6172 118.577 81.4553 119.487C82.3004 120.388 82.7195 121.518 82.7124 122.874C82.7195 124.117 82.3608 125.222 81.6364 126.188C80.919 127.153 79.9283 127.913 78.6641 128.467C77.3999 129.021 75.951 129.298 74.3175 129.298ZM93.9224 106.884C95.0446 106.884 96.1241 107.072 97.161 107.448C98.2051 107.825 99.1355 108.425 99.9522 109.249C100.776 110.072 101.426 111.166 101.902 112.53C102.385 113.886 102.63 115.552 102.637 117.526C102.637 119.38 102.427 121.035 102.008 122.491C101.596 123.94 101.003 125.172 100.229 126.188C99.4551 127.203 98.5211 127.977 97.4274 128.51C96.3336 129.036 95.112 129.298 93.7626 129.298C92.3066 129.298 91.0211 129.018 89.9061 128.457C88.791 127.888 87.8926 127.118 87.2108 126.145C86.536 125.165 86.1277 124.064 85.9856 122.842H90.5346C90.7122 123.638 91.085 124.256 91.6532 124.696C92.2214 125.129 92.9245 125.346 93.7626 125.346C95.1831 125.346 96.2626 124.728 97.0012 123.492C97.7399 122.249 98.1127 120.548 98.1199 118.389H97.9707C97.644 119.028 97.2037 119.579 96.6497 120.04C96.0957 120.495 95.4601 120.847 94.7427 121.095C94.0325 121.344 93.2761 121.468 92.4735 121.468C91.188 121.468 90.041 121.166 89.0325 120.562C88.024 119.959 87.2285 119.128 86.6461 118.07C86.0637 117.011 85.7725 115.804 85.7725 114.447C85.7654 112.984 86.1028 111.681 86.7846 110.538C87.4664 109.394 88.4181 108.499 89.6397 107.853C90.8684 107.2 92.296 106.876 93.9224 106.884ZM93.9544 110.506C93.237 110.506 92.5978 110.676 92.0368 111.017C91.4828 111.358 91.0424 111.816 90.7157 112.391C90.3961 112.967 90.2399 113.609 90.247 114.32C90.247 115.037 90.4032 115.683 90.7157 116.259C91.0353 116.827 91.4686 117.281 92.0154 117.622C92.5694 117.956 93.2015 118.123 93.9118 118.123C94.4444 118.123 94.938 118.023 95.3926 117.825C95.8471 117.626 96.2413 117.352 96.5751 117.004C96.916 116.649 97.1824 116.241 97.3741 115.779C97.5659 115.317 97.6618 114.827 97.6618 114.309C97.6547 113.62 97.4913 112.988 97.1717 112.413C96.8521 111.837 96.4118 111.376 95.8507 111.028C95.2896 110.68 94.6575 110.506 93.9544 110.506Z" fill="#1C64F2"/>
<path d="M270.095 31.2727H268.36L271.433 40H273.385L276.461 31.2727H274.723L272.456 38.142H272.366L270.095 31.2727ZM277.543 40H279.085V33.4545H277.543V40ZM278.318 32.5256C278.808 32.5256 279.209 32.1506 279.209 31.6903C279.209 31.2259 278.808 30.8509 278.318 30.8509C277.824 30.8509 277.423 31.2259 277.423 31.6903C277.423 32.1506 277.824 32.5256 278.318 32.5256ZM283.569 40.1278C285.095 40.1278 286.143 39.3821 286.416 38.2443L284.975 38.0824C284.767 38.6364 284.255 38.9261 283.591 38.9261C282.593 38.9261 281.933 38.2699 281.92 37.1491H286.48V36.6761C286.48 34.3793 285.099 33.3693 283.488 33.3693C281.613 33.3693 280.39 34.7457 280.39 36.7656C280.39 38.8196 281.596 40.1278 283.569 40.1278ZM281.924 36.1094C281.971 35.2741 282.589 34.571 283.51 34.571C284.396 34.571 284.993 35.2188 285.001 36.1094H281.924ZM289.1 40H290.711L291.939 35.5767H292.028L293.255 40H294.862L296.716 33.4545H295.139L294.005 38.0312H293.941L292.765 33.4545H291.21L290.034 38.0568H289.974L288.824 33.4545H287.251L289.1 40Z" fill="#1C64F2"/>
<defs>
<filter id="filter0_dd_25_13148" x="0" y="0" width="328.75" height="186" filterUnits="userSpaceOnUse" color-interpolation-filters="sRGB">
<feFlood flood-opacity="0" result="BackgroundImageFix"/>
<feColorMatrix in="SourceAlpha" type="matrix" values="0 0 0 0 0 0 0 0 0 0 0 0 0 0 0 0 0 0 127 0" result="hardAlpha"/>
<feOffset dy="1"/>
<feGaussianBlur stdDeviation="1.5"/>
<feColorMatrix type="matrix" values="0 0 0 0 0 0 0 0 0 0 0 0 0 0 0 0 0 0 0.1 0"/>
<feBlend mode="normal" in2="BackgroundImageFix" result="effect1_dropShadow_25_13148"/>
<feColorMatrix in="SourceAlpha" type="matrix" values="0 0 0 0 0 0 0 0 0 0 0 0 0 0 0 0 0 0 127 0" result="hardAlpha"/>
<feOffset dy="1"/>
<feGaussianBlur stdDeviation="1"/>
<feColorMatrix type="matrix" values="0 0 0 0 0 0 0 0 0 0 0 0 0 0 0 0 0 0 0.06 0"/>
<feBlend mode="normal" in2="effect1_dropShadow_25_13148" result="effect2_dropShadow_25_13148"/>
<feBlend mode="normal" in="SourceGraphic" in2="effect2_dropShadow_25_13148" result="shape"/>
</filter>
</defs>
</svg>
