
<svg width="329" height="186" viewBox="0 0 329 186" fill="none" xmlns="http://www.w3.org/2000/svg">
<g filter="url(#filter0_dd_25_13159)">
<rect x="3" y="2" width="322.75" height="180" rx="16" fill="white"/>
</g>
<path d="M243.798 111.73C244.471 111.73 245.119 111.843 245.741 112.069C246.367 112.295 246.925 112.655 247.415 113.149C247.91 113.643 248.3 114.3 248.585 115.118C248.875 115.932 249.022 116.931 249.026 118.116C249.026 119.228 248.901 120.221 248.649 121.094C248.402 121.964 248.046 122.703 247.582 123.312C247.117 123.922 246.557 124.386 245.901 124.706C245.244 125.021 244.511 125.179 243.702 125.179C242.828 125.179 242.057 125.011 241.388 124.674C240.719 124.333 240.18 123.871 239.771 123.287C239.366 122.699 239.121 122.038 239.036 121.305H241.765C241.871 121.783 242.095 122.153 242.436 122.418C242.777 122.678 243.199 122.808 243.702 122.808C244.554 122.808 245.202 122.437 245.645 121.695C246.088 120.95 246.312 119.929 246.316 118.634H246.227C246.031 119.017 245.766 119.347 245.434 119.624C245.102 119.897 244.72 120.108 244.29 120.257C243.864 120.406 243.41 120.481 242.928 120.481C242.157 120.481 241.469 120.3 240.864 119.938C240.259 119.575 239.781 119.077 239.432 118.442C239.082 117.807 238.908 117.082 238.908 116.268C238.903 115.391 239.106 114.609 239.515 113.923C239.924 113.237 240.495 112.7 241.228 112.312C241.965 111.92 242.822 111.726 243.798 111.73ZM243.817 113.903C243.386 113.903 243.003 114.006 242.666 114.21C242.334 114.415 242.07 114.69 241.874 115.035C241.682 115.38 241.588 115.766 241.592 116.192C241.592 116.622 241.686 117.01 241.874 117.355C242.065 117.696 242.325 117.969 242.653 118.173C242.986 118.374 243.365 118.474 243.791 118.474C244.111 118.474 244.407 118.414 244.68 118.295C244.952 118.175 245.189 118.011 245.389 117.803C245.594 117.589 245.754 117.344 245.869 117.067C245.984 116.79 246.041 116.496 246.041 116.185C246.037 115.772 245.939 115.393 245.747 115.048C245.555 114.702 245.291 114.425 244.955 114.217C244.618 114.008 244.239 113.903 243.817 113.903ZM255.827 125.179C254.843 125.179 253.967 125.019 253.2 124.7C252.438 124.376 251.839 123.935 251.404 123.376C250.969 122.818 250.752 122.185 250.752 121.478C250.752 120.933 250.876 120.432 251.123 119.976C251.374 119.516 251.715 119.134 252.146 118.832C252.576 118.525 253.058 118.329 253.59 118.244V118.154C252.891 118.013 252.325 117.675 251.89 117.138C251.455 116.597 251.238 115.968 251.238 115.252C251.238 114.575 251.436 113.972 251.832 113.443C252.229 112.911 252.772 112.493 253.462 112.19C254.157 111.884 254.945 111.73 255.827 111.73C256.71 111.73 257.496 111.884 258.186 112.19C258.881 112.497 259.426 112.917 259.822 113.45C260.219 113.978 260.419 114.579 260.423 115.252C260.419 115.972 260.197 116.601 259.759 117.138C259.32 117.675 258.757 118.013 258.071 118.154V118.244C258.595 118.329 259.07 118.525 259.496 118.832C259.927 119.134 260.268 119.516 260.519 119.976C260.775 120.432 260.905 120.933 260.909 121.478C260.905 122.185 260.685 122.818 260.251 123.376C259.816 123.935 259.215 124.376 258.448 124.7C257.685 125.019 256.812 125.179 255.827 125.179ZM255.827 123.146C256.266 123.146 256.65 123.067 256.978 122.91C257.306 122.748 257.562 122.526 257.745 122.245C257.933 121.96 258.026 121.631 258.026 121.261C258.026 120.881 257.93 120.547 257.739 120.257C257.547 119.963 257.287 119.733 256.959 119.567C256.631 119.396 256.254 119.311 255.827 119.311C255.406 119.311 255.028 119.396 254.696 119.567C254.364 119.733 254.102 119.963 253.91 120.257C253.722 120.547 253.629 120.881 253.629 121.261C253.629 121.631 253.72 121.96 253.903 122.245C254.087 122.526 254.344 122.748 254.677 122.91C255.009 123.067 255.393 123.146 255.827 123.146ZM255.827 117.298C256.194 117.298 256.52 117.223 256.805 117.074C257.091 116.925 257.315 116.718 257.477 116.454C257.638 116.19 257.719 115.885 257.719 115.54C257.719 115.199 257.638 114.901 257.477 114.645C257.315 114.385 257.093 114.183 256.812 114.038C256.531 113.888 256.202 113.814 255.827 113.814C255.457 113.814 255.129 113.888 254.843 114.038C254.558 114.183 254.334 114.385 254.172 114.645C254.014 114.901 253.935 115.199 253.935 115.54C253.935 115.885 254.016 116.19 254.178 116.454C254.34 116.718 254.564 116.925 254.849 117.074C255.135 117.223 255.461 117.298 255.827 117.298ZM270.01 122.545V121.855C270.01 121.331 270.121 120.849 270.342 120.411C270.568 119.967 270.894 119.614 271.32 119.349C271.751 119.081 272.275 118.947 272.893 118.947C273.519 118.947 274.045 119.079 274.471 119.343C274.902 119.607 275.226 119.961 275.443 120.404C275.665 120.843 275.775 121.327 275.775 121.855V122.545C275.775 123.07 275.665 123.553 275.443 123.996C275.221 124.435 274.895 124.787 274.465 125.051C274.035 125.32 273.51 125.454 272.893 125.454C272.266 125.454 271.74 125.32 271.314 125.051C270.888 124.787 270.564 124.435 270.342 123.996C270.121 123.553 270.01 123.07 270.01 122.545ZM271.87 121.855V122.545C271.87 122.848 271.942 123.134 272.087 123.402C272.236 123.67 272.505 123.805 272.893 123.805C273.28 123.805 273.545 123.673 273.685 123.408C273.83 123.144 273.903 122.857 273.903 122.545V121.855C273.903 121.544 273.834 121.254 273.698 120.986C273.562 120.717 273.293 120.583 272.893 120.583C272.509 120.583 272.243 120.717 272.094 120.986C271.944 121.254 271.87 121.544 271.87 121.855ZM263.292 115.054V114.364C263.292 113.835 263.405 113.352 263.631 112.913C263.856 112.469 264.182 112.116 264.608 111.852C265.039 111.587 265.559 111.455 266.168 111.455C266.799 111.455 267.327 111.587 267.753 111.852C268.18 112.116 268.503 112.469 268.725 112.913C268.947 113.352 269.057 113.835 269.057 114.364V115.054C269.057 115.582 268.944 116.066 268.719 116.505C268.497 116.944 268.171 117.295 267.741 117.56C267.314 117.82 266.79 117.95 266.168 117.95C265.546 117.95 265.02 117.817 264.589 117.553C264.163 117.285 263.839 116.933 263.618 116.499C263.4 116.06 263.292 115.578 263.292 115.054ZM265.165 114.364V115.054C265.165 115.365 265.237 115.653 265.382 115.917C265.531 116.181 265.793 116.313 266.168 116.313C266.56 116.313 266.827 116.181 266.967 115.917C267.112 115.653 267.184 115.365 267.184 115.054V114.364C267.184 114.053 267.116 113.763 266.98 113.494C266.844 113.226 266.573 113.092 266.168 113.092C265.789 113.092 265.527 113.228 265.382 113.501C265.237 113.773 265.165 114.061 265.165 114.364ZM264.135 125L273.135 111.909H274.81L265.81 125H264.135Z" fill="#111928"/>
<path d="M297 118C297 140.091 279.091 158 257 158C234.909 158 217 140.091 217 118C217 95.9086 234.909 78 257 78C279.091 78 297 95.9086 297 118ZM221 118C221 137.882 237.118 154 257 154C276.882 154 293 137.882 293 118C293 98.1177 276.882 82 257 82C237.118 82 221 98.1177 221 118Z" fill="#F3F4F6"/>
<path d="M295 118C296.105 118 297.005 118.896 296.95 119.999C296.467 129.665 292.491 138.854 285.725 145.837C278.494 153.299 268.642 157.654 258.256 157.98C247.87 158.307 237.765 154.579 230.079 147.585C222.394 140.592 217.731 130.882 217.079 120.512C216.426 110.141 219.835 99.9235 226.584 92.0221C233.332 84.1206 242.891 79.1554 253.236 78.1775C263.581 77.1996 273.9 80.2858 282.01 86.7828C289.598 92.8619 294.693 101.481 296.384 111.009C296.577 112.097 295.796 113.099 294.7 113.237V113.237C293.604 113.376 292.61 112.598 292.41 111.512C290.854 103.014 286.286 95.3338 279.509 89.9045C272.21 84.0572 262.923 81.2797 253.612 82.1598C244.302 83.0399 235.699 87.5086 229.625 94.6199C223.552 101.731 220.484 110.927 221.071 120.26C221.658 129.594 225.855 138.333 232.772 144.627C239.689 150.921 248.783 154.276 258.131 153.982C267.478 153.688 276.344 149.769 282.853 143.053C288.895 136.817 292.465 128.625 292.944 119.999C293.006 118.896 293.895 118 295 118V118Z" fill="#FF8A4C"/>
<path d="M28.2912 46V32.9091H33.3026C34.2486 32.9091 35.0348 33.0582 35.6612 33.3565C36.2919 33.6506 36.7628 34.0533 37.0739 34.5646C37.3892 35.076 37.5469 35.6555 37.5469 36.3033C37.5469 36.8359 37.4446 37.2919 37.2401 37.6712C37.0355 38.0462 36.7607 38.3509 36.4155 38.5852C36.0703 38.8196 35.6847 38.9879 35.2585 39.0902V39.218C35.723 39.2436 36.1683 39.3864 36.5945 39.6463C37.0249 39.902 37.3764 40.2642 37.6491 40.733C37.9219 41.2017 38.0582 41.7685 38.0582 42.4332C38.0582 43.1108 37.8942 43.7202 37.5661 44.2614C37.2379 44.7983 36.7436 45.2223 36.0831 45.5334C35.4226 45.8445 34.5916 46 33.5902 46H28.2912ZM30.6626 44.0185H33.2131C34.0739 44.0185 34.6939 43.8544 35.0732 43.5263C35.4567 43.1939 35.6484 42.7678 35.6484 42.2479C35.6484 41.8601 35.5526 41.5107 35.3608 41.1996C35.169 40.8842 34.8963 40.6371 34.5426 40.4581C34.1889 40.2749 33.767 40.1832 33.277 40.1832H30.6626V44.0185ZM30.6626 38.4766H33.0085C33.4176 38.4766 33.7862 38.402 34.1143 38.2528C34.4425 38.0994 34.7003 37.8842 34.8878 37.6072C35.0795 37.326 35.1754 36.9936 35.1754 36.6101C35.1754 36.103 34.9964 35.6854 34.6385 35.3572C34.2848 35.0291 33.7585 34.8651 33.0597 34.8651H30.6626V38.4766ZM42.3329 32.9091V46H40.019V32.9091H42.3329ZM48.995 46.1918C48.0362 46.1918 47.2053 45.9808 46.5021 45.5589C45.799 45.1371 45.2536 44.5469 44.8658 43.7884C44.4822 43.0298 44.2905 42.1435 44.2905 41.1293C44.2905 40.1151 44.4822 39.2266 44.8658 38.4638C45.2536 37.701 45.799 37.1087 46.5021 36.6868C47.2053 36.2649 48.0362 36.054 48.995 36.054C49.9538 36.054 50.7848 36.2649 51.4879 36.6868C52.1911 37.1087 52.7344 37.701 53.1179 38.4638C53.5057 39.2266 53.6996 40.1151 53.6996 41.1293C53.6996 42.1435 53.5057 43.0298 53.1179 43.7884C52.7344 44.5469 52.1911 45.1371 51.4879 45.5589C50.7848 45.9808 49.9538 46.1918 48.995 46.1918ZM49.0078 44.3381C49.5277 44.3381 49.9624 44.1953 50.3118 43.9098C50.6612 43.62 50.9212 43.2322 51.0916 42.7464C51.2663 42.2607 51.3537 41.7195 51.3537 41.1229C51.3537 40.522 51.2663 39.9787 51.0916 39.4929C50.9212 39.0028 50.6612 38.6129 50.3118 38.3232C49.9624 38.0334 49.5277 37.8885 49.0078 37.8885C48.4751 37.8885 48.032 38.0334 47.6783 38.3232C47.3288 38.6129 47.0668 39.0028 46.892 39.4929C46.7216 39.9787 46.6364 40.522 46.6364 41.1229C46.6364 41.7195 46.7216 42.2607 46.892 42.7464C47.0668 43.2322 47.3288 43.62 47.6783 43.9098C48.032 44.1953 48.4751 44.3381 49.0078 44.3381ZM59.9462 46.1918C58.9874 46.1918 58.1564 45.9808 57.4533 45.5589C56.7502 45.1371 56.2047 44.5469 55.8169 43.7884C55.4334 43.0298 55.2417 42.1435 55.2417 41.1293C55.2417 40.1151 55.4334 39.2266 55.8169 38.4638C56.2047 37.701 56.7502 37.1087 57.4533 36.6868C58.1564 36.2649 58.9874 36.054 59.9462 36.054C60.905 36.054 61.736 36.2649 62.4391 36.6868C63.1422 37.1087 63.6855 37.701 64.0691 38.4638C64.4569 39.2266 64.6507 40.1151 64.6507 41.1293C64.6507 42.1435 64.4569 43.0298 64.0691 43.7884C63.6855 44.5469 63.1422 45.1371 62.4391 45.5589C61.736 45.9808 60.905 46.1918 59.9462 46.1918ZM59.959 44.3381C60.4789 44.3381 60.9135 44.1953 61.263 43.9098C61.6124 43.62 61.8723 43.2322 62.0428 42.7464C62.2175 42.2607 62.3049 41.7195 62.3049 41.1229C62.3049 40.522 62.2175 39.9787 62.0428 39.4929C61.8723 39.0028 61.6124 38.6129 61.263 38.3232C60.9135 38.0334 60.4789 37.8885 59.959 37.8885C59.4263 37.8885 58.9831 38.0334 58.6294 38.3232C58.28 38.6129 58.0179 39.0028 57.8432 39.4929C57.6728 39.9787 57.5875 40.522 57.5875 41.1229C57.5875 41.7195 57.6728 42.2607 57.8432 42.7464C58.0179 43.2322 58.28 43.62 58.6294 43.9098C58.9831 44.1953 59.4263 44.3381 59.959 44.3381ZM70.2582 46.1726C69.4869 46.1726 68.7965 45.9744 68.1871 45.5781C67.5778 45.1818 67.0962 44.6065 66.7425 43.8523C66.3888 43.098 66.212 42.1818 66.212 41.1037C66.212 40.0128 66.391 39.0923 66.7489 38.3423C67.1112 37.5881 67.5991 37.0192 68.2127 36.6357C68.8263 36.2479 69.5103 36.054 70.2646 36.054C70.8398 36.054 71.3129 36.152 71.6836 36.348C72.0543 36.5398 72.3484 36.772 72.5657 37.0447C72.783 37.3132 72.9513 37.5668 73.0707 37.8054H73.1665V32.9091H75.4869V46H73.2113V44.4531H73.0707C72.9513 44.6918 72.7788 44.9453 72.5529 45.2138C72.3271 45.478 72.0288 45.7038 71.658 45.8913C71.2873 46.0788 70.8207 46.1726 70.2582 46.1726ZM70.9038 44.2741C71.3938 44.2741 71.8114 44.142 72.1566 43.8778C72.5018 43.6094 72.7638 43.2365 72.9428 42.7592C73.1218 42.282 73.2113 41.7259 73.2113 41.0909C73.2113 40.456 73.1218 39.9041 72.9428 39.4354C72.7681 38.9666 72.5082 38.6023 72.163 38.3423C71.8221 38.0824 71.4023 37.9524 70.9038 37.9524C70.3881 37.9524 69.9577 38.0866 69.6126 38.3551C69.2674 38.6236 69.0075 38.9943 68.8327 39.4673C68.658 39.9403 68.5707 40.4815 68.5707 41.0909C68.5707 41.7045 68.658 42.2521 68.8327 42.7337C69.0117 43.2109 69.2738 43.5881 69.619 43.8651C69.9684 44.1378 70.3967 44.2741 70.9038 44.2741ZM82.5197 46V32.9091H87.4288C88.4345 32.9091 89.2782 33.0966 89.9601 33.4716C90.6461 33.8466 91.1639 34.3622 91.5133 35.0185C91.867 35.6705 92.0439 36.4119 92.0439 37.2429C92.0439 38.0824 91.867 38.8281 91.5133 39.4801C91.1596 40.1321 90.6376 40.6456 89.9473 41.0206C89.2569 41.3913 88.4068 41.5767 87.3968 41.5767H84.1433V39.6271H87.0772C87.6653 39.6271 88.1468 39.5249 88.5218 39.3203C88.8968 39.1158 89.1738 38.8345 89.3528 38.4766C89.536 38.1186 89.6277 37.7074 89.6277 37.2429C89.6277 36.7784 89.536 36.3693 89.3528 36.0156C89.1738 35.6619 88.8947 35.3871 88.5154 35.1911C88.1404 34.9908 87.6568 34.8906 87.0645 34.8906H84.8912V46H82.5197ZM94.0014 46V36.1818H96.245V37.8182H96.3473C96.5263 37.2514 96.8331 36.8146 97.2678 36.5078C97.7067 36.1967 98.2074 36.0412 98.7699 36.0412C98.8977 36.0412 99.0405 36.0476 99.1982 36.0604C99.3601 36.0689 99.4943 36.0838 99.6009 36.1051V38.2337C99.5028 38.1996 99.3473 38.1697 99.1342 38.1442C98.9254 38.1143 98.723 38.0994 98.527 38.0994C98.1051 38.0994 97.7259 38.1911 97.3892 38.3743C97.0568 38.5533 96.7947 38.8026 96.603 39.1222C96.4112 39.4418 96.3153 39.8104 96.3153 40.228V46H94.0014ZM105.08 46.1918C104.096 46.1918 103.246 45.9872 102.53 45.5781C101.818 45.1648 101.271 44.581 100.887 43.8267C100.504 43.0682 100.312 42.1754 100.312 41.1484C100.312 40.1385 100.504 39.2521 100.887 38.4893C101.275 37.7223 101.816 37.1257 102.511 36.6996C103.205 36.2692 104.021 36.054 104.959 36.054C105.564 36.054 106.135 36.152 106.672 36.348C107.213 36.5398 107.691 36.8381 108.104 37.2429C108.521 37.6477 108.85 38.1634 109.088 38.7898C109.327 39.4119 109.446 40.1534 109.446 41.0142V41.7237H101.399V40.1641H107.228C107.224 39.7209 107.128 39.3267 106.941 38.9815C106.753 38.6321 106.491 38.3572 106.154 38.157C105.822 37.9567 105.434 37.8565 104.991 37.8565C104.518 37.8565 104.102 37.9716 103.744 38.2017C103.387 38.4276 103.107 38.7259 102.907 39.0966C102.711 39.4631 102.611 39.8658 102.607 40.3047V41.6662C102.607 42.2372 102.711 42.7273 102.92 43.1364C103.129 43.5412 103.421 43.8523 103.796 44.0696C104.171 44.2827 104.61 44.3892 105.112 44.3892C105.449 44.3892 105.754 44.3423 106.026 44.2486C106.299 44.1506 106.536 44.0078 106.736 43.8203C106.936 43.6328 107.088 43.4006 107.19 43.1236L109.35 43.3665C109.214 43.9375 108.954 44.4361 108.57 44.8622C108.191 45.2841 107.705 45.6122 107.113 45.8466C106.521 46.0767 105.843 46.1918 105.08 46.1918ZM119.164 38.777L117.054 39.0071C116.995 38.794 116.89 38.5938 116.741 38.4062C116.596 38.2188 116.4 38.0675 116.153 37.9524C115.906 37.8374 115.603 37.7798 115.245 37.7798C114.764 37.7798 114.359 37.8842 114.031 38.093C113.707 38.3018 113.547 38.5724 113.551 38.9048C113.547 39.1903 113.652 39.4226 113.865 39.6016C114.082 39.7805 114.44 39.9276 114.939 40.0426L116.613 40.4006C117.542 40.6009 118.233 40.9183 118.684 41.353C119.14 41.7876 119.37 42.3565 119.375 43.0597C119.37 43.6776 119.189 44.223 118.831 44.696C118.478 45.1648 117.985 45.5312 117.355 45.7955C116.724 46.0597 116 46.1918 115.181 46.1918C113.98 46.1918 113.012 45.9403 112.279 45.4375C111.547 44.9304 111.11 44.2251 110.969 43.3217L113.225 43.1044C113.328 43.5476 113.545 43.8821 113.877 44.108C114.21 44.3338 114.642 44.4467 115.175 44.4467C115.725 44.4467 116.166 44.3338 116.498 44.108C116.835 43.8821 117.003 43.603 117.003 43.2706C117.003 42.9893 116.895 42.7571 116.677 42.5739C116.464 42.3906 116.132 42.25 115.68 42.152L114.005 41.8004C113.064 41.6044 112.367 41.2741 111.915 40.8097C111.463 40.3409 111.24 39.7486 111.244 39.0327C111.24 38.4276 111.404 37.9034 111.736 37.4602C112.073 37.0128 112.539 36.6676 113.136 36.4247C113.737 36.1776 114.429 36.054 115.213 36.054C116.364 36.054 117.27 36.299 117.93 36.7891C118.595 37.2791 119.006 37.9418 119.164 38.777ZM129.043 38.777L126.933 39.0071C126.874 38.794 126.769 38.5938 126.62 38.4062C126.475 38.2188 126.279 38.0675 126.032 37.9524C125.785 37.8374 125.482 37.7798 125.124 37.7798C124.643 37.7798 124.238 37.8842 123.91 38.093C123.586 38.3018 123.426 38.5724 123.43 38.9048C123.426 39.1903 123.531 39.4226 123.744 39.6016C123.961 39.7805 124.319 39.9276 124.817 40.0426L126.492 40.4006C127.421 40.6009 128.112 40.9183 128.563 41.353C129.019 41.7876 129.249 42.3565 129.254 43.0597C129.249 43.6776 129.068 44.223 128.71 44.696C128.357 45.1648 127.864 45.5312 127.234 45.7955C126.603 46.0597 125.879 46.1918 125.06 46.1918C123.859 46.1918 122.891 45.9403 122.158 45.4375C121.425 44.9304 120.989 44.2251 120.848 43.3217L123.104 43.1044C123.207 43.5476 123.424 43.8821 123.756 44.108C124.089 44.3338 124.521 44.4467 125.054 44.4467C125.604 44.4467 126.045 44.3338 126.377 44.108C126.714 43.8821 126.882 43.603 126.882 43.2706C126.882 42.9893 126.773 42.7571 126.556 42.5739C126.343 42.3906 126.011 42.25 125.559 42.152L123.884 41.8004C122.942 41.6044 122.246 41.2741 121.794 40.8097C121.342 40.3409 121.119 39.7486 121.123 39.0327C121.119 38.4276 121.283 37.9034 121.615 37.4602C121.952 37.0128 122.418 36.6676 123.015 36.4247C123.616 36.1776 124.308 36.054 125.092 36.054C126.243 36.054 127.148 36.299 127.809 36.7891C128.474 37.2791 128.885 37.9418 129.043 38.777ZM137.419 41.8707V36.1818H139.733V46H137.49V44.255H137.387C137.166 44.8047 136.801 45.2543 136.294 45.6037C135.792 45.9531 135.172 46.1278 134.434 46.1278C133.791 46.1278 133.222 45.9851 132.728 45.6996C132.238 45.4098 131.854 44.9901 131.577 44.4403C131.3 43.8864 131.162 43.2173 131.162 42.4332V36.1818H133.475V42.0753C133.475 42.6974 133.646 43.1918 133.987 43.5582C134.328 43.9247 134.775 44.108 135.329 44.108C135.67 44.108 136 44.0249 136.32 43.8587C136.64 43.6925 136.902 43.4453 137.106 43.1172C137.315 42.7848 137.419 42.3693 137.419 41.8707ZM142.113 46V36.1818H144.356V37.8182H144.459C144.638 37.2514 144.944 36.8146 145.379 36.5078C145.818 36.1967 146.319 36.0412 146.881 36.0412C147.009 36.0412 147.152 36.0476 147.309 36.0604C147.471 36.0689 147.606 36.0838 147.712 36.1051V38.2337C147.614 38.1996 147.459 38.1697 147.246 38.1442C147.037 38.1143 146.834 38.0994 146.638 38.0994C146.216 38.0994 145.837 38.1911 145.501 38.3743C145.168 38.5533 144.906 38.8026 144.714 39.1222C144.523 39.4418 144.427 39.8104 144.427 40.228V46H142.113ZM153.192 46.1918C152.207 46.1918 151.357 45.9872 150.641 45.5781C149.93 45.1648 149.382 44.581 148.999 43.8267C148.615 43.0682 148.423 42.1754 148.423 41.1484C148.423 40.1385 148.615 39.2521 148.999 38.4893C149.386 37.7223 149.928 37.1257 150.622 36.6996C151.317 36.2692 152.133 36.054 153.07 36.054C153.675 36.054 154.246 36.152 154.783 36.348C155.325 36.5398 155.802 36.8381 156.215 37.2429C156.633 37.6477 156.961 38.1634 157.2 38.7898C157.438 39.4119 157.558 40.1534 157.558 41.0142V41.7237H149.51V40.1641H155.339C155.335 39.7209 155.239 39.3267 155.052 38.9815C154.864 38.6321 154.602 38.3572 154.266 38.157C153.933 37.9567 153.545 37.8565 153.102 37.8565C152.629 37.8565 152.214 37.9716 151.856 38.2017C151.498 38.4276 151.219 38.7259 151.018 39.0966C150.822 39.4631 150.722 39.8658 150.718 40.3047V41.6662C150.718 42.2372 150.822 42.7273 151.031 43.1364C151.24 43.5412 151.532 43.8523 151.907 44.0696C152.282 44.2827 152.721 44.3892 153.224 44.3892C153.56 44.3892 153.865 44.3423 154.138 44.2486C154.411 44.1506 154.647 44.0078 154.847 43.8203C155.048 43.6328 155.199 43.4006 155.301 43.1236L157.462 43.3665C157.325 43.9375 157.065 44.4361 156.682 44.8622C156.303 45.2841 155.817 45.6122 155.224 45.8466C154.632 46.0767 153.955 46.1918 153.192 46.1918Z" fill="#111928"/>
<path d="M36.6626 106.884C37.7848 106.884 38.8643 107.072 39.9013 107.448C40.9453 107.825 41.8757 108.425 42.6925 109.249C43.5163 110.072 44.1662 111.166 44.642 112.53C45.125 113.886 45.37 115.552 45.3771 117.526C45.3771 119.38 45.1676 121.035 44.7486 122.491C44.3366 123.94 43.7436 125.172 42.9695 126.188C42.1953 127.203 41.2614 127.977 40.1676 128.51C39.0739 129.036 37.8523 129.298 36.5028 129.298C35.0469 129.298 33.7614 129.018 32.6463 128.457C31.5313 127.888 30.6328 127.118 29.951 126.145C29.2763 125.165 28.8679 124.064 28.7259 122.842H33.2749C33.4524 123.638 33.8253 124.256 34.3935 124.696C34.9616 125.129 35.6648 125.346 36.5028 125.346C37.9233 125.346 39.0028 124.728 39.7415 123.492C40.4801 122.249 40.853 120.548 40.8601 118.389H40.7109C40.3842 119.028 39.9439 119.579 39.3899 120.04C38.8359 120.495 38.2003 120.847 37.483 121.095C36.7727 121.344 36.0163 121.468 35.2138 121.468C33.9283 121.468 32.7812 121.166 31.7727 120.562C30.7642 119.959 29.9688 119.128 29.3864 118.07C28.804 117.011 28.5128 115.804 28.5128 114.447C28.5057 112.984 28.843 111.681 29.5249 110.538C30.2067 109.394 31.1584 108.499 32.38 107.853C33.6087 107.2 35.0362 106.876 36.6626 106.884ZM36.6946 110.506C35.9773 110.506 35.3381 110.676 34.777 111.017C34.223 111.358 33.7827 111.816 33.456 112.391C33.1364 112.967 32.9801 113.609 32.9872 114.32C32.9872 115.037 33.1435 115.683 33.456 116.259C33.7756 116.827 34.2088 117.281 34.7557 117.622C35.3097 117.956 35.9418 118.123 36.652 118.123C37.1847 118.123 37.6783 118.023 38.1328 117.825C38.5874 117.626 38.9815 117.352 39.3153 117.004C39.6563 116.649 39.9226 116.241 40.1143 115.779C40.3061 115.317 40.402 114.827 40.402 114.309C40.3949 113.62 40.2315 112.988 39.9119 112.413C39.5923 111.837 39.152 111.376 38.5909 111.028C38.0298 110.68 37.3977 110.506 36.6946 110.506ZM56.4673 106.884C57.5895 106.884 58.669 107.072 59.706 107.448C60.75 107.825 61.6804 108.425 62.4972 109.249C63.321 110.072 63.9709 111.166 64.4467 112.53C64.9297 113.886 65.1747 115.552 65.1818 117.526C65.1818 119.38 64.9723 121.035 64.5533 122.491C64.1413 123.94 63.5483 125.172 62.7741 126.188C62 127.203 61.0661 127.977 59.9723 128.51C58.8786 129.036 57.657 129.298 56.3075 129.298C54.8516 129.298 53.5661 129.018 52.451 128.457C51.3359 127.888 50.4375 127.118 49.7557 126.145C49.081 125.165 48.6726 124.064 48.5305 122.842H53.0795C53.2571 123.638 53.63 124.256 54.1982 124.696C54.7663 125.129 55.4695 125.346 56.3075 125.346C57.728 125.346 58.8075 124.728 59.5462 123.492C60.2848 122.249 60.6577 120.548 60.6648 118.389H60.5156C60.1889 119.028 59.7486 119.579 59.1946 120.04C58.6406 120.495 58.005 120.847 57.2876 121.095C56.5774 121.344 55.821 121.468 55.0185 121.468C53.733 121.468 52.5859 121.166 51.5774 120.562C50.5689 119.959 49.7734 119.128 49.1911 118.07C48.6087 117.011 48.3175 115.804 48.3175 114.447C48.3104 112.984 48.6477 111.681 49.3295 110.538C50.0114 109.394 50.9631 108.499 52.1847 107.853C53.4134 107.2 54.8409 106.876 56.4673 106.884ZM56.4993 110.506C55.782 110.506 55.1428 110.676 54.5817 111.017C54.0277 111.358 53.5874 111.816 53.2607 112.391C52.9411 112.967 52.7848 113.609 52.7919 114.32C52.7919 115.037 52.9482 115.683 53.2607 116.259C53.5803 116.827 54.0135 117.281 54.5604 117.622C55.1143 117.956 55.7464 118.123 56.4567 118.123C56.9893 118.123 57.483 118.023 57.9375 117.825C58.392 117.626 58.7862 117.352 59.12 117.004C59.4609 116.649 59.7273 116.241 59.919 115.779C60.1108 115.317 60.2067 114.827 60.2067 114.309C60.1996 113.62 60.0362 112.988 59.7166 112.413C59.397 111.837 58.9567 111.376 58.3956 111.028C57.8345 110.68 57.2024 110.506 56.4993 110.506ZM76.517 129.298C74.8764 129.298 73.4169 129.032 72.1385 128.499C70.8672 127.96 69.8693 127.224 69.1449 126.294C68.4205 125.364 68.0582 124.309 68.0582 123.13C68.0582 122.221 68.2642 121.386 68.6761 120.626C69.0952 119.859 69.6634 119.224 70.3807 118.719C71.098 118.208 71.9006 117.881 72.7884 117.739V117.59C71.6236 117.356 70.679 116.791 69.9545 115.896C69.2301 114.994 68.8679 113.947 68.8679 112.754C68.8679 111.624 69.1982 110.619 69.8587 109.739C70.5192 108.851 71.4247 108.155 72.5753 107.651C73.733 107.139 75.0469 106.884 76.517 106.884C77.9872 106.884 79.2976 107.139 80.4482 107.651C81.6058 108.162 82.5149 108.862 83.1754 109.749C83.8359 110.63 84.1697 111.631 84.1768 112.754C84.1697 113.954 83.8004 115.001 83.0689 115.896C82.3374 116.791 81.3999 117.356 80.2564 117.59V117.739C81.13 117.881 81.9219 118.208 82.6321 118.719C83.3494 119.224 83.9176 119.859 84.3366 120.626C84.7628 121.386 84.9794 122.221 84.9865 123.13C84.9794 124.309 84.6136 125.364 83.8892 126.294C83.1648 127.224 82.1634 127.96 80.8849 128.499C79.6136 129.032 78.1577 129.298 76.517 129.298ZM76.517 125.911C77.2486 125.911 77.8878 125.779 78.4347 125.516C78.9815 125.246 79.4077 124.877 79.7131 124.408C80.0256 123.933 80.1818 123.386 80.1818 122.768C80.1818 122.136 80.022 121.578 79.7024 121.095C79.3828 120.605 78.9496 120.222 78.4027 119.945C77.8558 119.661 77.2273 119.518 76.517 119.518C75.8139 119.518 75.1854 119.661 74.6314 119.945C74.0774 120.222 73.6406 120.605 73.321 121.095C73.0085 121.578 72.8523 122.136 72.8523 122.768C72.8523 123.386 73.005 123.933 73.3104 124.408C73.6158 124.877 74.0455 125.246 74.5994 125.516C75.1534 125.779 75.7926 125.911 76.517 125.911ZM76.517 116.163C77.1278 116.163 77.6712 116.038 78.147 115.79C78.6229 115.541 78.9957 115.197 79.2656 114.756C79.5355 114.316 79.6705 113.808 79.6705 113.233C79.6705 112.665 79.5355 112.168 79.2656 111.741C78.9957 111.308 78.6264 110.971 78.1577 110.729C77.6889 110.481 77.142 110.357 76.517 110.357C75.8991 110.357 75.3523 110.481 74.8764 110.729C74.4006 110.971 74.0277 111.308 73.7578 111.741C73.495 112.168 73.3636 112.665 73.3636 113.233C73.3636 113.808 73.4986 114.316 73.7685 114.756C74.0384 115.197 74.4112 115.541 74.8871 115.79C75.3629 116.038 75.9062 116.163 76.517 116.163Z" fill="#FF8A4C"/>
<path d="M270.095 35.2727H268.36L271.433 44H273.385L276.461 35.2727H274.723L272.456 42.142H272.366L270.095 35.2727ZM277.543 44H279.085V37.4545H277.543V44ZM278.318 36.5256C278.808 36.5256 279.209 36.1506 279.209 35.6903C279.209 35.2259 278.808 34.8509 278.318 34.8509C277.824 34.8509 277.423 35.2259 277.423 35.6903C277.423 36.1506 277.824 36.5256 278.318 36.5256ZM283.569 44.1278C285.095 44.1278 286.143 43.3821 286.416 42.2443L284.975 42.0824C284.767 42.6364 284.255 42.9261 283.591 42.9261C282.593 42.9261 281.933 42.2699 281.92 41.1491H286.48V40.6761C286.48 38.3793 285.099 37.3693 283.488 37.3693C281.613 37.3693 280.39 38.7457 280.39 40.7656C280.39 42.8196 281.596 44.1278 283.569 44.1278ZM281.924 40.1094C281.971 39.2741 282.589 38.571 283.51 38.571C284.396 38.571 284.993 39.2188 285.001 40.1094H281.924ZM289.1 44H290.711L291.939 39.5767H292.028L293.255 44H294.862L296.716 37.4545H295.139L294.005 42.0312H293.941L292.765 37.4545H291.21L290.034 42.0568H289.974L288.824 37.4545H287.251L289.1 44Z" fill="#1C64F2"/>
<path d="M191 36V40M191 44H191.01M200 40C200 41.1819 199.767 42.3522 199.315 43.4442C198.863 44.5361 198.2 45.5282 197.364 46.364C196.528 47.1997 195.536 47.8626 194.444 48.3149C193.352 48.7672 192.182 49 191 49C189.818 49 188.648 48.7672 187.556 48.3149C186.464 47.8626 185.472 47.1997 184.636 46.364C183.8 45.5282 183.137 44.5361 182.685 43.4442C182.233 42.3522 182 41.1819 182 40C182 37.6131 182.948 35.3239 184.636 33.636C186.324 31.9482 188.613 31 191 31C193.387 31 195.676 31.9482 197.364 33.636C199.052 35.3239 200 37.6131 200 40Z" stroke="#9CA3AF" stroke-width="2" stroke-linecap="round" stroke-linejoin="round"/>
<defs>
<filter id="filter0_dd_25_13159" x="0" y="0" width="328.75" height="186" filterUnits="userSpaceOnUse" color-interpolation-filters="sRGB">
<feFlood flood-opacity="0" result="BackgroundImageFix"/>
<feColorMatrix in="SourceAlpha" type="matrix" values="0 0 0 0 0 0 0 0 0 0 0 0 0 0 0 0 0 0 127 0" result="hardAlpha"/>
<feOffset dy="1"/>
<feGaussianBlur stdDeviation="1.5"/>
<feColorMatrix type="matrix" values="0 0 0 0 0 0 0 0 0 0 0 0 0 0 0 0 0 0 0.1 0"/>
<feBlend mode="normal" in2="BackgroundImageFix" result="effect1_dropShadow_25_13159"/>
<feColorMatrix in="SourceAlpha" type="matrix" values="0 0 0 0 0 0 0 0 0 0 0 0 0 0 0 0 0 0 127 0" result="hardAlpha"/>
<feOffset dy="1"/>
<feGaussianBlur stdDeviation="1"/>
<feColorMatrix type="matrix" values="0 0 0 0 0 0 0 0 0 0 0 0 0 0 0 0 0 0 0.06 0"/>
<feBlend mode="normal" in2="effect1_dropShadow_25_13159" result="effect2_dropShadow_25_13159"/>
<feBlend mode="normal" in="SourceGraphic" in2="effect2_dropShadow_25_13159" result="shape"/>
</filter>
</defs>
</svg>
