
<svg width="329" height="186" viewBox="0 0 329 186" fill="none" xmlns="http://www.w3.org/2000/svg">
<g filter="url(#filter0_dd_25_13174)">
<rect x="3" y="2" width="318" height="180" rx="16" fill="white"/>
</g>
<g filter="url(#filter1_dd_25_13174)">
<rect x="3" y="2" width="322.75" height="180" rx="16" fill="white"/>
</g>
<path d="M29.9723 46H27.4411L32.0497 32.9091H34.9773L39.5923 46H37.0611L33.5646 35.5938H33.4624L29.9723 46ZM30.0554 40.8672H36.9588V42.772H30.0554V40.8672ZM45.1982 46.1918C44.218 46.1918 43.3764 45.9766 42.6733 45.5462C41.9744 45.1158 41.4354 44.5213 41.0561 43.7628C40.6811 43 40.4936 42.1222 40.4936 41.1293C40.4936 40.1321 40.6854 39.2521 41.0689 38.4893C41.4524 37.7223 41.9936 37.1257 42.6925 36.6996C43.3956 36.2692 44.2266 36.054 45.1854 36.054C45.9822 36.054 46.6875 36.201 47.3011 36.495C47.919 36.7848 48.4112 37.196 48.7777 37.7287C49.1442 38.2571 49.353 38.875 49.4041 39.5824H47.1925C47.103 39.1094 46.8899 38.7152 46.5533 38.3999C46.2209 38.0803 45.7756 37.9205 45.2173 37.9205C44.7443 37.9205 44.3288 38.0483 43.9709 38.304C43.6129 38.5554 43.3338 38.9176 43.1335 39.3906C42.9375 39.8636 42.8395 40.4304 42.8395 41.0909C42.8395 41.7599 42.9375 42.3352 43.1335 42.8168C43.3295 43.294 43.6044 43.6626 43.9581 43.9226C44.3161 44.1783 44.7358 44.3061 45.2173 44.3061C45.5582 44.3061 45.8629 44.2422 46.1314 44.1143C46.4041 43.9822 46.6321 43.7926 46.8153 43.5455C46.9986 43.2983 47.1243 42.9979 47.1925 42.6442H49.4041C49.3487 43.3388 49.1442 43.9545 48.7905 44.4915C48.4368 45.0241 47.9553 45.4418 47.3459 45.7443C46.7365 46.0426 46.0206 46.1918 45.1982 46.1918ZM56.2069 36.1818V37.9716H50.5627V36.1818H56.2069ZM51.9561 33.8295H54.2701V43.0469C54.2701 43.358 54.3169 43.5966 54.4107 43.7628C54.5087 43.9247 54.6365 44.0355 54.7942 44.0952C54.9519 44.1548 55.1266 44.1847 55.3184 44.1847C55.4632 44.1847 55.5953 44.174 55.7147 44.1527C55.8382 44.1314 55.932 44.1122 55.9959 44.0952L56.3858 45.9041C56.2623 45.9467 56.0854 45.9936 55.8553 46.0447C55.6294 46.0959 55.3525 46.1257 55.0243 46.1342C54.4448 46.1513 53.9228 46.0639 53.4583 45.8722C52.9938 45.6761 52.6252 45.3736 52.3525 44.9645C52.084 44.5554 51.9519 44.044 51.9561 43.4304V33.8295ZM58.142 46V36.1818H60.456V46H58.142ZM59.3054 34.7884C58.9389 34.7884 58.6236 34.6669 58.3594 34.424C58.0952 34.1768 57.9631 33.8807 57.9631 33.5355C57.9631 33.1861 58.0952 32.8899 58.3594 32.647C58.6236 32.3999 58.9389 32.2763 59.3054 32.2763C59.6761 32.2763 59.9915 32.3999 60.2514 32.647C60.5156 32.8899 60.6477 33.1861 60.6477 33.5355C60.6477 33.8807 60.5156 34.1768 60.2514 34.424C59.9915 34.6669 59.6761 34.7884 59.3054 34.7884ZM71.6053 36.1818L68.1088 46H65.552L62.0556 36.1818H64.5229L66.7793 43.4751H66.8816L69.1444 36.1818H71.6053ZM73.2065 46V36.1818H75.5204V46H73.2065ZM74.3699 34.7884C74.0034 34.7884 73.688 34.6669 73.4238 34.424C73.1596 34.1768 73.0275 33.8807 73.0275 33.5355C73.0275 33.1861 73.1596 32.8899 73.4238 32.647C73.688 32.3999 74.0034 32.2763 74.3699 32.2763C74.7406 32.2763 75.0559 32.3999 75.3159 32.647C75.5801 32.8899 75.7122 33.1861 75.7122 33.5355C75.7122 33.8807 75.5801 34.1768 75.3159 34.424C75.0559 34.6669 74.7406 34.7884 74.3699 34.7884ZM82.8026 36.1818V37.9716H77.1584V36.1818H82.8026ZM78.5518 33.8295H80.8658V43.0469C80.8658 43.358 80.9126 43.5966 81.0064 43.7628C81.1044 43.9247 81.2322 44.0355 81.3899 44.0952C81.5476 44.1548 81.7223 44.1847 81.9141 44.1847C82.0589 44.1847 82.1911 44.174 82.3104 44.1527C82.4339 44.1314 82.5277 44.1122 82.5916 44.0952L82.9815 45.9041C82.858 45.9467 82.6811 45.9936 82.451 46.0447C82.2251 46.0959 81.9482 46.1257 81.62 46.1342C81.0405 46.1513 80.5185 46.0639 80.054 45.8722C79.5895 45.6761 79.2209 45.3736 78.9482 44.9645C78.6797 44.5554 78.5476 44.044 78.5518 43.4304V33.8295ZM86.176 49.6818C85.8606 49.6818 85.5687 49.6563 85.3002 49.6051C85.036 49.5582 84.8251 49.5028 84.6674 49.4389L85.2044 47.6364C85.541 47.7344 85.8414 47.7813 86.1056 47.777C86.3699 47.7727 86.6021 47.6896 86.8024 47.5277C87.0069 47.37 87.1795 47.1058 87.3201 46.7351L87.5183 46.2045L83.9579 36.1818H86.4125L88.6752 43.5966H88.7775L91.0467 36.1818H93.5076L89.5765 47.1889C89.3933 47.7088 89.1504 48.1541 88.8478 48.5249C88.5453 48.8999 88.1745 49.1854 87.7356 49.3814C87.301 49.5817 86.7811 49.6818 86.176 49.6818Z" fill="#111928"/>
<path d="M28.4382 129.165V125.532L37.5469 111.182H40.679V116.21H38.8253L33.0831 125.298V125.468H46.027V129.165H28.4382ZM38.9105 133V128.057L38.9957 126.448V111.182H43.321V133H38.9105ZM53.6655 130.017L53.5483 131.189C53.456 132.126 53.2784 133.06 53.0156 133.991C52.7599 134.928 52.4901 135.777 52.206 136.537C51.929 137.297 51.7053 137.893 51.5348 138.327H48.5945C48.701 137.908 48.8466 137.322 49.0312 136.569C49.2159 135.823 49.3899 134.985 49.5533 134.055C49.7166 133.124 49.8196 132.176 49.8622 131.21L49.9155 130.017H53.6655ZM65.5653 133.298C64.0597 133.298 62.7173 133.021 61.5384 132.467C60.3665 131.913 59.4361 131.15 58.7472 130.177C58.0582 129.204 57.6996 128.089 57.6712 126.832H62.1456C62.1953 127.677 62.5504 128.362 63.2109 128.888C63.8714 129.413 64.6562 129.676 65.5653 129.676C66.2898 129.676 66.929 129.516 67.483 129.197C68.044 128.87 68.4808 128.419 68.7933 127.844C69.1129 127.261 69.2727 126.594 69.2727 125.841C69.2727 125.074 69.1094 124.399 68.7827 123.817C68.4631 123.234 68.0192 122.78 67.451 122.453C66.8828 122.126 66.233 121.96 65.5014 121.952C64.8622 121.952 64.2408 122.084 63.6371 122.347C63.0405 122.609 62.5753 122.968 62.2415 123.423L58.1399 122.688L59.1733 111.182H72.5114V114.953H62.9766L62.4119 120.418H62.5398C62.9233 119.879 63.5021 119.431 64.2763 119.076C65.0504 118.721 65.9169 118.543 66.8757 118.543C68.1896 118.543 69.3615 118.852 70.3913 119.47C71.4212 120.088 72.2344 120.937 72.831 122.016C73.4276 123.089 73.7223 124.325 73.7152 125.724C73.7223 127.194 73.3814 128.501 72.6925 129.644C72.0107 130.781 71.0554 131.675 69.8267 132.329C68.6051 132.975 67.1847 133.298 65.5653 133.298ZM85.4872 133.479C83.6548 133.472 82.0781 133.021 80.7571 132.126C79.4432 131.232 78.4311 129.935 77.7209 128.238C77.0178 126.54 76.6697 124.499 76.6768 122.112C76.6768 119.733 77.0284 117.705 77.7315 116.029C78.4418 114.353 79.4538 113.078 80.7678 112.205C82.0888 111.324 83.6619 110.884 85.4872 110.884C87.3125 110.884 88.8821 111.324 90.196 112.205C91.517 113.085 92.5327 114.364 93.2429 116.04C93.9531 117.709 94.3047 119.733 94.2976 122.112C94.2976 124.506 93.9425 126.551 93.2322 128.249C92.5291 129.946 91.5206 131.242 90.2067 132.137C88.8928 133.032 87.3196 133.479 85.4872 133.479ZM85.4872 129.655C86.7372 129.655 87.7351 129.026 88.4808 127.769C89.2266 126.512 89.5959 124.626 89.5888 122.112C89.5888 120.457 89.4183 119.08 89.0774 117.979C88.7436 116.878 88.2678 116.05 87.6499 115.496C87.0391 114.942 86.3182 114.665 85.4872 114.665C84.2443 114.665 83.25 115.287 82.5043 116.53C81.7585 117.773 81.3821 119.634 81.375 122.112C81.375 123.788 81.5419 125.188 81.8757 126.31C82.2166 127.425 82.696 128.263 83.3139 128.824C83.9318 129.378 84.6562 129.655 85.4872 129.655ZM106.142 133.479C104.309 133.472 102.732 133.021 101.411 132.126C100.097 131.232 99.0854 129.935 98.3752 128.238C97.6721 126.54 97.324 124.499 97.3311 122.112C97.3311 119.733 97.6827 117.705 98.3858 116.029C99.0961 114.353 100.108 113.078 101.422 112.205C102.743 111.324 104.316 110.884 106.142 110.884C107.967 110.884 109.536 111.324 110.85 112.205C112.171 113.085 113.187 114.364 113.897 116.04C114.607 117.709 114.959 119.733 114.952 122.112C114.952 124.506 114.597 126.551 113.887 128.249C113.183 129.946 112.175 131.242 110.861 132.137C109.547 133.032 107.974 133.479 106.142 133.479ZM106.142 129.655C107.392 129.655 108.389 129.026 109.135 127.769C109.881 126.512 110.25 124.626 110.243 122.112C110.243 120.457 110.073 119.08 109.732 117.979C109.398 116.878 108.922 116.05 108.304 115.496C107.693 114.942 106.972 114.665 106.142 114.665C104.899 114.665 103.904 115.287 103.159 116.53C102.413 117.773 102.036 119.634 102.029 122.112C102.029 123.788 102.196 125.188 102.53 126.31C102.871 127.425 103.35 128.263 103.968 128.824C104.586 129.378 105.311 129.655 106.142 129.655Z" fill="#E3A008"/>
<path d="M270.095 35.2727H268.36L271.433 44H273.385L276.461 35.2727H274.723L272.456 42.142H272.366L270.095 35.2727ZM277.543 44H279.085V37.4545H277.543V44ZM278.318 36.5256C278.808 36.5256 279.209 36.1506 279.209 35.6903C279.209 35.2259 278.808 34.8509 278.318 34.8509C277.824 34.8509 277.423 35.2259 277.423 35.6903C277.423 36.1506 277.824 36.5256 278.318 36.5256ZM283.569 44.1278C285.095 44.1278 286.143 43.3821 286.416 42.2443L284.975 42.0824C284.767 42.6364 284.255 42.9261 283.591 42.9261C282.593 42.9261 281.933 42.2699 281.92 41.1491H286.48V40.6761C286.48 38.3793 285.099 37.3693 283.488 37.3693C281.613 37.3693 280.39 38.7457 280.39 40.7656C280.39 42.8196 281.596 44.1278 283.569 44.1278ZM281.924 40.1094C281.971 39.2741 282.589 38.571 283.51 38.571C284.396 38.571 284.993 39.2188 285.001 40.1094H281.924ZM289.1 44H290.711L291.939 39.5767H292.028L293.255 44H294.862L296.716 37.4545H295.139L294.005 42.0312H293.941L292.765 37.4545H291.21L290.034 42.0568H289.974L288.824 37.4545H287.251L289.1 44Z" fill="#1C64F2"/>
<path d="M171 36V40M171 44H171.01M180 40C180 41.1819 179.767 42.3522 179.315 43.4442C178.863 44.5361 178.2 45.5282 177.364 46.364C176.528 47.1997 175.536 47.8626 174.444 48.3149C173.352 48.7672 172.182 49 171 49C169.818 49 168.648 48.7672 167.556 48.3149C166.464 47.8626 165.472 47.1997 164.636 46.364C163.8 45.5282 163.137 44.5361 162.685 43.4442C162.233 42.3522 162 41.1819 162 40C162 37.6131 162.948 35.3239 164.636 33.636C166.324 31.9482 168.613 31 171 31C173.387 31 175.676 31.9482 177.364 33.636C179.052 35.3239 180 37.6131 180 40Z" stroke="#9CA3AF" stroke-width="2" stroke-linecap="round" stroke-linejoin="round"/>
<defs>
<filter id="filter0_dd_25_13174" x="0" y="0" width="324" height="186" filterUnits="userSpaceOnUse" color-interpolation-filters="sRGB">
<feFlood flood-opacity="0" result="BackgroundImageFix"/>
<feColorMatrix in="SourceAlpha" type="matrix" values="0 0 0 0 0 0 0 0 0 0 0 0 0 0 0 0 0 0 127 0" result="hardAlpha"/>
<feOffset dy="1"/>
<feGaussianBlur stdDeviation="1.5"/>
<feColorMatrix type="matrix" values="0 0 0 0 0 0 0 0 0 0 0 0 0 0 0 0 0 0 0.1 0"/>
<feBlend mode="normal" in2="BackgroundImageFix" result="effect1_dropShadow_25_13174"/>
<feColorMatrix in="SourceAlpha" type="matrix" values="0 0 0 0 0 0 0 0 0 0 0 0 0 0 0 0 0 0 127 0" result="hardAlpha"/>
<feOffset dy="1"/>
<feGaussianBlur stdDeviation="1"/>
<feColorMatrix type="matrix" values="0 0 0 0 0 0 0 0 0 0 0 0 0 0 0 0 0 0 0.06 0"/>
<feBlend mode="normal" in2="effect1_dropShadow_25_13174" result="effect2_dropShadow_25_13174"/>
<feBlend mode="normal" in="SourceGraphic" in2="effect2_dropShadow_25_13174" result="shape"/>
</filter>
<filter id="filter1_dd_25_13174" x="0" y="0" width="328.75" height="186" filterUnits="userSpaceOnUse" color-interpolation-filters="sRGB">
<feFlood flood-opacity="0" result="BackgroundImageFix"/>
<feColorMatrix in="SourceAlpha" type="matrix" values="0 0 0 0 0 0 0 0 0 0 0 0 0 0 0 0 0 0 127 0" result="hardAlpha"/>
<feOffset dy="1"/>
<feGaussianBlur stdDeviation="1.5"/>
<feColorMatrix type="matrix" values="0 0 0 0 0 0 0 0 0 0 0 0 0 0 0 0 0 0 0.1 0"/>
<feBlend mode="normal" in2="BackgroundImageFix" result="effect1_dropShadow_25_13174"/>
<feColorMatrix in="SourceAlpha" type="matrix" values="0 0 0 0 0 0 0 0 0 0 0 0 0 0 0 0 0 0 127 0" result="hardAlpha"/>
<feOffset dy="1"/>
<feGaussianBlur stdDeviation="1"/>
<feColorMatrix type="matrix" values="0 0 0 0 0 0 0 0 0 0 0 0 0 0 0 0 0 0 0.06 0"/>
<feBlend mode="normal" in2="effect1_dropShadow_25_13174" result="effect2_dropShadow_25_13174"/>
<feBlend mode="normal" in="SourceGraphic" in2="effect2_dropShadow_25_13174" result="shape"/>
</filter>
</defs>
</svg>
