
<svg width="1040" height="196" viewBox="0 0 1040 196" fill="none" xmlns="http://www.w3.org/2000/svg">
<rect width="1040" height="196" fill="white"/>
<rect width="1040" height="46" transform="translate(0 86)" fill="#F3F4F6"/>
<path d="M29.7195 107.754H27.8601C27.8071 107.449 27.7093 107.179 27.5668 106.943C27.4242 106.705 27.2469 106.502 27.0348 106.337C26.8227 106.171 26.5807 106.047 26.3089 105.964C26.0405 105.878 25.7505 105.835 25.4389 105.835C24.8854 105.835 24.3949 105.974 23.9673 106.252C23.5398 106.527 23.205 106.932 22.9631 107.465C22.7211 107.996 22.6001 108.643 22.6001 109.409C22.6001 110.188 22.7211 110.844 22.9631 111.378C23.2083 111.908 23.5431 112.309 23.9673 112.581C24.3949 112.849 24.8838 112.984 25.4339 112.984C25.7389 112.984 26.0239 112.944 26.2891 112.864C26.5575 112.781 26.7978 112.661 27.0099 112.501C27.2254 112.342 27.406 112.147 27.5518 111.915C27.701 111.683 27.8037 111.418 27.8601 111.119L29.7195 111.129C29.6499 111.613 29.4991 112.067 29.267 112.491C29.0384 112.916 28.7384 113.29 28.3672 113.615C27.996 113.937 27.5618 114.188 27.0646 114.371C26.5675 114.55 26.0156 114.639 25.4091 114.639C24.5142 114.639 23.7154 114.432 23.0128 114.018C22.3101 113.603 21.7566 113.005 21.3523 112.223C20.9479 111.441 20.7457 110.503 20.7457 109.409C20.7457 108.312 20.9496 107.374 21.3572 106.595C21.7649 105.813 22.3201 105.215 23.0227 104.8C23.7254 104.386 24.5208 104.179 25.4091 104.179C25.9759 104.179 26.5028 104.259 26.9901 104.418C27.4773 104.577 27.9115 104.81 28.2926 105.119C28.6738 105.424 28.987 105.798 29.2322 106.242C29.4808 106.683 29.6432 107.187 29.7195 107.754ZM34.66 114.649C33.9142 114.649 33.2679 114.485 32.7211 114.157C32.1742 113.829 31.7499 113.37 31.4483 112.78C31.15 112.19 31.0009 111.5 31.0009 110.712C31.0009 109.923 31.15 109.232 31.4483 108.638C31.7499 108.045 32.1742 107.585 32.7211 107.256C33.2679 106.928 33.9142 106.764 34.66 106.764C35.4057 106.764 36.052 106.928 36.5989 107.256C37.1458 107.585 37.5684 108.045 37.8667 108.638C38.1683 109.232 38.3191 109.923 38.3191 110.712C38.3191 111.5 38.1683 112.19 37.8667 112.78C37.5684 113.37 37.1458 113.829 36.5989 114.157C36.052 114.485 35.4057 114.649 34.66 114.649ZM34.6699 113.207C35.0743 113.207 35.4123 113.096 35.6841 112.874C35.9559 112.649 36.1581 112.347 36.2907 111.969C36.4266 111.592 36.4945 111.171 36.4945 110.707C36.4945 110.239 36.4266 109.817 36.2907 109.439C36.1581 109.058 35.9559 108.754 35.6841 108.529C35.4123 108.304 35.0743 108.191 34.6699 108.191C34.2556 108.191 33.9109 108.304 33.6358 108.529C33.3641 108.754 33.1602 109.058 33.0243 109.439C32.8917 109.817 32.8255 110.239 32.8255 110.707C32.8255 111.171 32.8917 111.592 33.0243 111.969C33.1602 112.347 33.3641 112.649 33.6358 112.874C33.9109 113.096 34.2556 113.207 34.6699 113.207ZM41.6463 110.026V114.5H39.8466V106.864H41.5668V108.161H41.6562C41.8319 107.734 42.112 107.394 42.4964 107.142C42.8842 106.89 43.3632 106.764 43.9332 106.764C44.4602 106.764 44.9193 106.877 45.3104 107.102C45.7048 107.328 46.0097 107.654 46.2251 108.082C46.4439 108.509 46.5516 109.028 46.5483 109.638V114.5H44.7486V109.916C44.7486 109.406 44.616 109.006 44.3509 108.718C44.089 108.43 43.7261 108.286 43.2621 108.286C42.9472 108.286 42.6671 108.355 42.4219 108.494C42.1799 108.63 41.9893 108.827 41.8501 109.086C41.7143 109.344 41.6463 109.658 41.6463 110.026ZM54.4134 108.882L52.7727 109.061C52.7263 108.895 52.6451 108.74 52.5291 108.594C52.4164 108.448 52.264 108.33 52.0717 108.241C51.8795 108.151 51.6442 108.107 51.3658 108.107C50.9912 108.107 50.6764 108.188 50.4212 108.35C50.1693 108.513 50.045 108.723 50.0483 108.982C50.045 109.204 50.1262 109.384 50.2919 109.523C50.4609 109.663 50.7393 109.777 51.1271 109.866L52.4297 110.145C53.1522 110.301 53.6892 110.548 54.0405 110.886C54.3951 111.224 54.5741 111.666 54.5774 112.213C54.5741 112.694 54.4332 113.118 54.1548 113.486C53.8797 113.85 53.4969 114.135 53.0064 114.341C52.5159 114.546 51.9524 114.649 51.3161 114.649C50.3814 114.649 49.629 114.454 49.0589 114.062C48.4889 113.668 48.1491 113.12 48.0398 112.417L49.7947 112.248C49.8743 112.593 50.0433 112.853 50.3018 113.028C50.5604 113.204 50.8968 113.292 51.3111 113.292C51.7386 113.292 52.0817 113.204 52.3402 113.028C52.602 112.853 52.733 112.636 52.733 112.377C52.733 112.158 52.6484 111.978 52.4794 111.835C52.3137 111.693 52.0552 111.583 51.7038 111.507L50.4013 111.234C49.6688 111.081 49.1269 110.824 48.7756 110.463C48.4242 110.098 48.2502 109.638 48.2536 109.081C48.2502 108.61 48.3778 108.203 48.6364 107.858C48.8982 107.51 49.2611 107.241 49.7251 107.053C50.1925 106.86 50.7311 106.764 51.3409 106.764C52.2358 106.764 52.9401 106.955 53.4538 107.336C53.9709 107.717 54.2907 108.232 54.4134 108.882ZM59.4421 114.649C58.6765 114.649 58.0153 114.49 57.4585 114.172C56.9049 113.85 56.479 113.396 56.1808 112.81C55.8825 112.22 55.7333 111.525 55.7333 110.727C55.7333 109.941 55.8825 109.252 56.1808 108.658C56.4824 108.062 56.9033 107.598 57.4435 107.266C57.9838 106.932 58.6185 106.764 59.3477 106.764C59.8183 106.764 60.2624 106.84 60.68 106.993C61.101 107.142 61.4722 107.374 61.7937 107.689C62.1185 108.004 62.3737 108.405 62.5593 108.892C62.7449 109.376 62.8377 109.953 62.8377 110.622V111.174H56.5785V109.961H61.1126C61.1093 109.616 61.0347 109.31 60.8888 109.041C60.743 108.769 60.5392 108.556 60.2773 108.4C60.0188 108.244 59.7172 108.166 59.3725 108.166C59.0046 108.166 58.6815 108.256 58.4031 108.435C58.1246 108.61 57.9076 108.842 57.7518 109.131C57.5993 109.416 57.5214 109.729 57.5181 110.07V111.129C57.5181 111.573 57.5993 111.955 57.7617 112.273C57.9241 112.588 58.1512 112.83 58.4428 112.999C58.7345 113.164 59.0759 113.247 59.467 113.247C59.7288 113.247 59.9658 113.211 60.1779 113.138C60.39 113.062 60.574 112.951 60.7298 112.805C60.8855 112.659 61.0032 112.478 61.0827 112.263L62.7631 112.452C62.6571 112.896 62.4549 113.284 62.1566 113.615C61.8616 113.943 61.4838 114.198 61.0231 114.381C60.5624 114.56 60.0354 114.649 59.4421 114.649ZM66.16 110.026V114.5H64.3603V106.864H66.0804V108.161H66.1699C66.3456 107.734 66.6257 107.394 67.0101 107.142C67.3979 106.89 67.8768 106.764 68.4469 106.764C68.9739 106.764 69.4329 106.877 69.824 107.102C70.2185 107.328 70.5234 107.654 70.7388 108.082C70.9576 108.509 71.0653 109.028 71.062 109.638V114.5H69.2623V109.916C69.2623 109.406 69.1297 109.006 68.8645 108.718C68.6027 108.43 68.2398 108.286 67.7757 108.286C67.4609 108.286 67.1808 108.355 66.9355 108.494C66.6936 108.63 66.503 108.827 66.3638 109.086C66.2279 109.344 66.16 109.658 66.16 110.026ZM76.7047 106.864V108.256H72.3148V106.864H76.7047ZM73.3986 105.034H75.1983V112.203C75.1983 112.445 75.2348 112.631 75.3077 112.76C75.3839 112.886 75.4834 112.972 75.606 113.018C75.7286 113.065 75.8645 113.088 76.0137 113.088C76.1264 113.088 76.2291 113.08 76.3219 113.063C76.418 113.047 76.4909 113.032 76.5407 113.018L76.8439 114.425C76.7478 114.459 76.6103 114.495 76.4313 114.535C76.2556 114.575 76.0402 114.598 75.785 114.604C75.3342 114.618 74.9282 114.55 74.5669 114.401C74.2057 114.248 73.919 114.013 73.7069 113.695C73.498 113.376 73.3953 112.979 73.3986 112.501V105.034ZM81.7621 114.5V104.318H88.2848V105.864H83.6065V108.629H87.8374V110.175H83.6065V114.5H81.7621ZM92.6561 114.649C91.9103 114.649 91.264 114.485 90.7172 114.157C90.1703 113.829 89.746 113.37 89.4444 112.78C89.1461 112.19 88.997 111.5 88.997 110.712C88.997 109.923 89.1461 109.232 89.4444 108.638C89.746 108.045 90.1703 107.585 90.7172 107.256C91.264 106.928 91.9103 106.764 92.6561 106.764C93.4018 106.764 94.0481 106.928 94.595 107.256C95.1419 107.585 95.5645 108.045 95.8627 108.638C96.1644 109.232 96.3152 109.923 96.3152 110.712C96.3152 111.5 96.1644 112.19 95.8627 112.78C95.5645 113.37 95.1419 113.829 94.595 114.157C94.0481 114.485 93.4018 114.649 92.6561 114.649ZM92.666 113.207C93.0704 113.207 93.4084 113.096 93.6802 112.874C93.952 112.649 94.1542 112.347 94.2868 111.969C94.4226 111.592 94.4906 111.171 94.4906 110.707C94.4906 110.239 94.4226 109.817 94.2868 109.439C94.1542 109.058 93.952 108.754 93.6802 108.529C93.4084 108.304 93.0704 108.191 92.666 108.191C92.2517 108.191 91.907 108.304 91.6319 108.529C91.3601 108.754 91.1563 109.058 91.0204 109.439C90.8878 109.817 90.8216 110.239 90.8216 110.707C90.8216 111.171 90.8878 111.592 91.0204 111.969C91.1563 112.347 91.3601 112.649 91.6319 112.874C91.907 113.096 92.2517 113.207 92.666 113.207ZM97.8427 114.5V106.864H99.5877V108.136H99.6673C99.8065 107.696 100.045 107.356 100.383 107.117C100.725 106.875 101.114 106.754 101.551 106.754C101.651 106.754 101.762 106.759 101.885 106.769C102.011 106.776 102.115 106.787 102.198 106.804V108.46C102.122 108.433 102.001 108.41 101.835 108.39C101.672 108.367 101.515 108.355 101.363 108.355C101.034 108.355 100.739 108.426 100.478 108.569C100.219 108.708 100.015 108.902 99.8661 109.151C99.717 109.399 99.6424 109.686 99.6424 110.011V114.5H97.8427ZM103.393 114.5V106.864H105.114V108.161H105.203C105.362 107.724 105.626 107.382 105.994 107.137C106.362 106.888 106.801 106.764 107.311 106.764C107.828 106.764 108.264 106.89 108.619 107.142C108.977 107.391 109.228 107.73 109.374 108.161H109.454C109.623 107.737 109.908 107.399 110.309 107.147C110.713 106.892 111.192 106.764 111.746 106.764C112.448 106.764 113.022 106.986 113.466 107.43C113.91 107.875 114.132 108.522 114.132 109.374V114.5H112.327V109.653C112.327 109.179 112.201 108.832 111.95 108.614C111.698 108.392 111.389 108.281 111.025 108.281C110.591 108.281 110.251 108.416 110.006 108.688C109.764 108.957 109.643 109.306 109.643 109.737V114.5H107.878V109.578C107.878 109.184 107.759 108.869 107.52 108.634C107.285 108.398 106.976 108.281 106.595 108.281C106.337 108.281 106.101 108.347 105.889 108.479C105.677 108.609 105.508 108.793 105.382 109.031C105.256 109.267 105.193 109.542 105.193 109.857V114.5H103.393Z" fill="#4B5563"/>
<path d="M339.455 115H336.004V104.818H339.524C340.535 104.818 341.403 105.022 342.129 105.43C342.858 105.834 343.419 106.416 343.81 107.175C344.201 107.934 344.396 108.842 344.396 109.899C344.396 110.96 344.199 111.871 343.805 112.634C343.414 113.396 342.848 113.981 342.109 114.388C341.374 114.796 340.489 115 339.455 115ZM337.849 113.404H339.365C340.074 113.404 340.666 113.275 341.14 113.016C341.614 112.754 341.97 112.365 342.209 111.848C342.447 111.328 342.567 110.678 342.567 109.899C342.567 109.12 342.447 108.474 342.209 107.96C341.97 107.443 341.617 107.057 341.15 106.802C340.686 106.543 340.109 106.414 339.42 106.414H337.849V113.404ZM348.267 115.154C347.783 115.154 347.347 115.068 346.959 114.896C346.575 114.72 346.27 114.461 346.044 114.12C345.822 113.779 345.711 113.358 345.711 112.857C345.711 112.426 345.791 112.07 345.95 111.788C346.109 111.507 346.326 111.281 346.601 111.112C346.876 110.943 347.186 110.816 347.531 110.729C347.879 110.64 348.239 110.575 348.61 110.536C349.057 110.489 349.42 110.448 349.699 110.411C349.977 110.371 350.179 110.312 350.305 110.232C350.434 110.149 350.499 110.022 350.499 109.849V109.82C350.499 109.445 350.388 109.155 350.166 108.95C349.944 108.744 349.624 108.641 349.206 108.641C348.766 108.641 348.416 108.737 348.157 108.93C347.902 109.122 347.73 109.349 347.64 109.611L345.96 109.372C346.092 108.908 346.311 108.52 346.616 108.209C346.921 107.894 347.294 107.659 347.735 107.503C348.176 107.344 348.663 107.264 349.196 107.264C349.564 107.264 349.931 107.307 350.295 107.393C350.66 107.48 350.993 107.622 351.294 107.821C351.596 108.017 351.838 108.283 352.02 108.621C352.206 108.96 352.299 109.382 352.299 109.889V115H350.569V113.951H350.509C350.4 114.163 350.245 114.362 350.047 114.548C349.851 114.73 349.604 114.877 349.306 114.99C349.011 115.099 348.664 115.154 348.267 115.154ZM348.734 113.832C349.095 113.832 349.408 113.76 349.674 113.618C349.939 113.472 350.143 113.28 350.285 113.041C350.431 112.803 350.504 112.542 350.504 112.261V111.361C350.448 111.407 350.351 111.45 350.216 111.49C350.083 111.53 349.934 111.565 349.768 111.594C349.602 111.624 349.438 111.651 349.276 111.674C349.114 111.697 348.973 111.717 348.853 111.734C348.585 111.77 348.345 111.83 348.132 111.913C347.92 111.996 347.753 112.112 347.63 112.261C347.508 112.406 347.446 112.595 347.446 112.827C347.446 113.159 347.567 113.409 347.809 113.578C348.051 113.747 348.359 113.832 348.734 113.832ZM357.922 107.364V108.756H353.532V107.364H357.922ZM354.615 105.534H356.415V112.703C356.415 112.945 356.452 113.131 356.525 113.26C356.601 113.386 356.7 113.472 356.823 113.518C356.945 113.565 357.081 113.588 357.23 113.588C357.343 113.588 357.446 113.58 357.539 113.563C357.635 113.547 357.708 113.532 357.757 113.518L358.061 114.925C357.965 114.959 357.827 114.995 357.648 115.035C357.472 115.075 357.257 115.098 357.002 115.104C356.551 115.118 356.145 115.05 355.784 114.901C355.422 114.748 355.136 114.513 354.924 114.195C354.715 113.876 354.612 113.479 354.615 113.001V105.534ZM362.725 115.149C361.96 115.149 361.298 114.99 360.742 114.672C360.188 114.35 359.762 113.896 359.464 113.31C359.166 112.72 359.017 112.025 359.017 111.227C359.017 110.441 359.166 109.752 359.464 109.158C359.766 108.562 360.186 108.098 360.727 107.766C361.267 107.432 361.902 107.264 362.631 107.264C363.102 107.264 363.546 107.34 363.963 107.493C364.384 107.642 364.755 107.874 365.077 108.189C365.402 108.504 365.657 108.905 365.843 109.392C366.028 109.876 366.121 110.453 366.121 111.122V111.674H359.862V110.461H364.396C364.392 110.116 364.318 109.81 364.172 109.541C364.026 109.269 363.822 109.056 363.561 108.9C363.302 108.744 363 108.666 362.656 108.666C362.288 108.666 361.965 108.756 361.686 108.935C361.408 109.11 361.191 109.342 361.035 109.631C360.883 109.916 360.805 110.229 360.801 110.57V111.629C360.801 112.073 360.883 112.455 361.045 112.773C361.207 113.088 361.434 113.33 361.726 113.499C362.018 113.664 362.359 113.747 362.75 113.747C363.012 113.747 363.249 113.711 363.461 113.638C363.673 113.562 363.857 113.451 364.013 113.305C364.169 113.159 364.286 112.978 364.366 112.763L366.046 112.952C365.94 113.396 365.738 113.784 365.44 114.115C365.145 114.443 364.767 114.698 364.306 114.881C363.846 115.06 363.319 115.149 362.725 115.149ZM377.614 104.818H379.458V111.47C379.458 112.199 379.286 112.841 378.941 113.394C378.6 113.948 378.119 114.38 377.5 114.692C376.88 115 376.156 115.154 375.327 115.154C374.495 115.154 373.769 115 373.15 114.692C372.53 114.38 372.049 113.948 371.708 113.394C371.366 112.841 371.196 112.199 371.196 111.47V104.818H373.04V111.316C373.04 111.74 373.133 112.118 373.319 112.45C373.507 112.781 373.773 113.041 374.114 113.23C374.455 113.416 374.86 113.509 375.327 113.509C375.794 113.509 376.199 113.416 376.54 113.23C376.885 113.041 377.15 112.781 377.336 112.45C377.521 112.118 377.614 111.74 377.614 111.316V104.818ZM381.384 117.864V107.364H383.154V108.626H383.258C383.351 108.441 383.482 108.244 383.651 108.035C383.82 107.823 384.048 107.642 384.337 107.493C384.625 107.34 384.993 107.264 385.441 107.264C386.03 107.264 386.562 107.415 387.036 107.717C387.514 108.015 387.892 108.457 388.17 109.044C388.452 109.627 388.593 110.343 388.593 111.192C388.593 112.03 388.455 112.743 388.18 113.33C387.905 113.916 387.53 114.364 387.056 114.672C386.582 114.98 386.045 115.134 385.445 115.134C385.008 115.134 384.645 115.061 384.357 114.915C384.068 114.77 383.836 114.594 383.661 114.388C383.488 114.18 383.354 113.982 383.258 113.797H383.183V117.864H381.384ZM383.149 111.182C383.149 111.676 383.218 112.108 383.357 112.479C383.5 112.851 383.704 113.141 383.969 113.349C384.237 113.555 384.562 113.658 384.943 113.658C385.341 113.658 385.674 113.552 385.943 113.339C386.211 113.124 386.413 112.831 386.549 112.46C386.688 112.085 386.758 111.659 386.758 111.182C386.758 110.708 386.69 110.287 386.554 109.919C386.418 109.551 386.216 109.263 385.948 109.054C385.679 108.845 385.344 108.741 384.943 108.741C384.559 108.741 384.232 108.842 383.964 109.044C383.695 109.246 383.492 109.53 383.352 109.894C383.217 110.259 383.149 110.688 383.149 111.182ZM391.933 104.818V115H390.134V104.818H391.933ZM397.115 115.149C396.369 115.149 395.723 114.985 395.176 114.657C394.629 114.329 394.205 113.87 393.903 113.28C393.605 112.69 393.456 112 393.456 111.212C393.456 110.423 393.605 109.732 393.903 109.138C394.205 108.545 394.629 108.085 395.176 107.756C395.723 107.428 396.369 107.264 397.115 107.264C397.861 107.264 398.507 107.428 399.054 107.756C399.601 108.085 400.023 108.545 400.322 109.138C400.623 109.732 400.774 110.423 400.774 111.212C400.774 112 400.623 112.69 400.322 113.28C400.023 113.87 399.601 114.329 399.054 114.657C398.507 114.985 397.861 115.149 397.115 115.149ZM397.125 113.707C397.529 113.707 397.867 113.596 398.139 113.374C398.411 113.149 398.613 112.847 398.746 112.469C398.882 112.092 398.95 111.671 398.95 111.207C398.95 110.739 398.882 110.317 398.746 109.939C398.613 109.558 398.411 109.254 398.139 109.029C397.867 108.804 397.529 108.691 397.125 108.691C396.711 108.691 396.366 108.804 396.091 109.029C395.819 109.254 395.615 109.558 395.479 109.939C395.347 110.317 395.281 110.739 395.281 111.207C395.281 111.671 395.347 112.092 395.479 112.469C395.615 112.847 395.819 113.149 396.091 113.374C396.366 113.596 396.711 113.707 397.125 113.707ZM404.499 115.154C404.015 115.154 403.579 115.068 403.192 114.896C402.807 114.72 402.502 114.461 402.277 114.12C402.055 113.779 401.944 113.358 401.944 112.857C401.944 112.426 402.023 112.07 402.182 111.788C402.341 111.507 402.559 111.281 402.834 111.112C403.109 110.943 403.419 110.816 403.763 110.729C404.111 110.64 404.471 110.575 404.842 110.536C405.29 110.489 405.653 110.448 405.931 110.411C406.209 110.371 406.412 110.312 406.537 110.232C406.667 110.149 406.731 110.022 406.731 109.849V109.82C406.731 109.445 406.62 109.155 406.398 108.95C406.176 108.744 405.856 108.641 405.439 108.641C404.998 108.641 404.648 108.737 404.39 108.93C404.135 109.122 403.962 109.349 403.873 109.611L402.192 109.372C402.325 108.908 402.544 108.52 402.849 108.209C403.153 107.894 403.526 107.659 403.967 107.503C404.408 107.344 404.895 107.264 405.429 107.264C405.797 107.264 406.163 107.307 406.528 107.393C406.892 107.48 407.225 107.622 407.527 107.821C407.828 108.017 408.07 108.283 408.253 108.621C408.438 108.96 408.531 109.382 408.531 109.889V115H406.801V113.951H406.741C406.632 114.163 406.478 114.362 406.279 114.548C406.083 114.73 405.836 114.877 405.538 114.99C405.243 115.099 404.897 115.154 404.499 115.154ZM404.966 113.832C405.328 113.832 405.641 113.76 405.906 113.618C406.171 113.472 406.375 113.28 406.518 113.041C406.663 112.803 406.736 112.542 406.736 112.261V111.361C406.68 111.407 406.584 111.45 406.448 111.49C406.315 111.53 406.166 111.565 406.001 111.594C405.835 111.624 405.671 111.651 405.508 111.674C405.346 111.697 405.205 111.717 405.086 111.734C404.817 111.77 404.577 111.83 404.365 111.913C404.153 111.996 403.985 112.112 403.863 112.261C403.74 112.406 403.679 112.595 403.679 112.827C403.679 113.159 403.8 113.409 404.042 113.578C404.284 113.747 404.592 113.832 404.966 113.832ZM413.175 115.134C412.575 115.134 412.038 114.98 411.564 114.672C411.09 114.364 410.715 113.916 410.44 113.33C410.165 112.743 410.028 112.03 410.028 111.192C410.028 110.343 410.167 109.627 410.445 109.044C410.727 108.457 411.106 108.015 411.584 107.717C412.061 107.415 412.593 107.264 413.18 107.264C413.627 107.264 413.995 107.34 414.283 107.493C414.572 107.642 414.8 107.823 414.969 108.035C415.138 108.244 415.269 108.441 415.362 108.626H415.437V104.818H417.241V115H415.471V113.797H415.362C415.269 113.982 415.135 114.18 414.959 114.388C414.784 114.594 414.552 114.77 414.263 114.915C413.975 115.061 413.612 115.134 413.175 115.134ZM413.677 113.658C414.058 113.658 414.383 113.555 414.651 113.349C414.92 113.141 415.123 112.851 415.263 112.479C415.402 112.108 415.471 111.676 415.471 111.182C415.471 110.688 415.402 110.259 415.263 109.894C415.127 109.53 414.925 109.246 414.656 109.044C414.391 108.842 414.064 108.741 413.677 108.741C413.276 108.741 412.941 108.845 412.672 109.054C412.404 109.263 412.202 109.551 412.066 109.919C411.93 110.287 411.862 110.708 411.862 111.182C411.862 111.659 411.93 112.085 412.066 112.46C412.205 112.831 412.409 113.124 412.677 113.339C412.949 113.552 413.282 113.658 413.677 113.658ZM422.54 115.149C421.774 115.149 421.113 114.99 420.556 114.672C420.003 114.35 419.577 113.896 419.278 113.31C418.98 112.72 418.831 112.025 418.831 111.227C418.831 110.441 418.98 109.752 419.278 109.158C419.58 108.562 420.001 108.098 420.541 107.766C421.081 107.432 421.716 107.264 422.445 107.264C422.916 107.264 423.36 107.34 423.778 107.493C424.199 107.642 424.57 107.874 424.891 108.189C425.216 108.504 425.471 108.905 425.657 109.392C425.843 109.876 425.935 110.453 425.935 111.122V111.674H419.676V110.461H424.21C424.207 110.116 424.132 109.81 423.987 109.541C423.841 109.269 423.637 109.056 423.375 108.9C423.116 108.744 422.815 108.666 422.47 108.666C422.102 108.666 421.779 108.756 421.501 108.935C421.222 109.11 421.005 109.342 420.849 109.631C420.697 109.916 420.619 110.229 420.616 110.57V111.629C420.616 112.073 420.697 112.455 420.859 112.773C421.022 113.088 421.249 113.33 421.54 113.499C421.832 113.664 422.174 113.747 422.565 113.747C422.826 113.747 423.063 113.711 423.276 113.638C423.488 113.562 423.672 113.451 423.827 113.305C423.983 113.159 424.101 112.978 424.18 112.763L425.861 112.952C425.755 113.396 425.553 113.784 425.254 114.115C424.959 114.443 424.581 114.698 424.121 114.881C423.66 115.06 423.133 115.149 422.54 115.149ZM430.292 115.134C429.692 115.134 429.155 114.98 428.681 114.672C428.207 114.364 427.832 113.916 427.557 113.33C427.282 112.743 427.145 112.03 427.145 111.192C427.145 110.343 427.284 109.627 427.562 109.044C427.844 108.457 428.224 108.015 428.701 107.717C429.178 107.415 429.71 107.264 430.297 107.264C430.744 107.264 431.112 107.34 431.4 107.493C431.689 107.642 431.917 107.823 432.086 108.035C432.256 108.244 432.386 108.441 432.479 108.626H432.554V104.818H434.358V115H432.589V113.797H432.479C432.386 113.982 432.252 114.18 432.077 114.388C431.901 114.594 431.669 114.77 431.381 114.915C431.092 115.061 430.729 115.134 430.292 115.134ZM430.794 113.658C431.175 113.658 431.5 113.555 431.768 113.349C432.037 113.141 432.241 112.851 432.38 112.479C432.519 112.108 432.589 111.676 432.589 111.182C432.589 110.688 432.519 110.259 432.38 109.894C432.244 109.53 432.042 109.246 431.773 109.044C431.508 108.842 431.182 108.741 430.794 108.741C430.393 108.741 430.058 108.845 429.79 109.054C429.521 109.263 429.319 109.551 429.183 109.919C429.047 110.287 428.979 110.708 428.979 111.182C428.979 111.659 429.047 112.085 429.183 112.46C429.322 112.831 429.526 113.124 429.795 113.339C430.066 113.552 430.399 113.658 430.794 113.658Z" fill="#4B5563"/>
<path d="M21.2784 170V158.364H25.4261C26.3277 158.364 27.0758 158.519 27.6705 158.83C28.2689 159.14 28.7159 159.57 29.0114 160.119C29.3068 160.665 29.4545 161.295 29.4545 162.011C29.4545 162.723 29.3049 163.35 29.0057 163.892C28.7102 164.43 28.2633 164.848 27.6648 165.148C27.0701 165.447 26.322 165.597 25.4205 165.597H22.2784V164.085H25.2614C25.8295 164.085 26.2917 164.004 26.6477 163.841C27.0076 163.678 27.2708 163.441 27.4375 163.131C27.6042 162.82 27.6875 162.447 27.6875 162.011C27.6875 161.572 27.6023 161.191 27.4318 160.869C27.2652 160.547 27.0019 160.301 26.642 160.131C26.286 159.956 25.8182 159.869 25.2386 159.869H23.0341V170H21.2784ZM27.0227 164.75L29.8977 170H27.8977L25.0795 164.75H27.0227ZM35.1065 170.176C34.2467 170.176 33.5062 169.992 32.8849 169.625C32.2675 169.254 31.7902 168.733 31.4531 168.062C31.1198 167.388 30.9531 166.598 30.9531 165.693C30.9531 164.799 31.1198 164.011 31.4531 163.33C31.7902 162.648 32.2599 162.116 32.8622 161.733C33.4683 161.35 34.1766 161.159 34.9872 161.159C35.4796 161.159 35.9569 161.241 36.419 161.403C36.8812 161.566 37.2959 161.822 37.6634 162.17C38.0308 162.519 38.3205 162.972 38.5327 163.528C38.7448 164.081 38.8509 164.754 38.8509 165.545V166.148H31.9134V164.875H37.1861C37.1861 164.428 37.0952 164.032 36.9134 163.688C36.7315 163.339 36.4759 163.064 36.1463 162.864C35.8205 162.663 35.438 162.562 34.9986 162.562C34.5213 162.562 34.1046 162.68 33.7486 162.915C33.3963 163.146 33.1236 163.449 32.9304 163.824C32.741 164.195 32.6463 164.598 32.6463 165.034V166.028C32.6463 166.612 32.7486 167.108 32.9531 167.517C33.1615 167.926 33.4512 168.239 33.8224 168.455C34.1937 168.667 34.6274 168.773 35.1236 168.773C35.4455 168.773 35.7391 168.727 36.0043 168.636C36.2694 168.542 36.4986 168.402 36.6918 168.216C36.8849 168.03 37.0327 167.801 37.1349 167.528L38.7429 167.818C38.6141 168.292 38.383 168.706 38.0497 169.062C37.7202 169.415 37.3054 169.689 36.8054 169.886C36.3092 170.08 35.7429 170.176 35.1065 170.176ZM44.0028 170.17C43.2983 170.17 42.6695 169.991 42.1165 169.631C41.5672 169.267 41.1354 168.75 40.821 168.08C40.5104 167.405 40.3551 166.597 40.3551 165.653C40.3551 164.71 40.5123 163.903 40.8267 163.233C41.1449 162.562 41.5805 162.049 42.1335 161.693C42.6866 161.337 43.3134 161.159 44.0142 161.159C44.5559 161.159 44.9915 161.25 45.321 161.432C45.6544 161.61 45.9119 161.818 46.0938 162.057C46.2794 162.295 46.4233 162.506 46.5256 162.688H46.6278V158.364H48.3267V170H46.6676V168.642H46.5256C46.4233 168.828 46.2756 169.04 46.0824 169.278C45.893 169.517 45.6316 169.725 45.2983 169.903C44.965 170.081 44.5331 170.17 44.0028 170.17ZM44.3778 168.722C44.8665 168.722 45.2794 168.593 45.6165 168.335C45.9574 168.074 46.215 167.712 46.3892 167.25C46.5672 166.788 46.6562 166.25 46.6562 165.636C46.6562 165.03 46.5691 164.5 46.3949 164.045C46.2206 163.591 45.965 163.237 45.6278 162.983C45.2907 162.729 44.8741 162.602 44.3778 162.602C43.8665 162.602 43.4403 162.735 43.0994 163C42.7585 163.265 42.5009 163.627 42.3267 164.085C42.1563 164.544 42.071 165.061 42.071 165.636C42.071 166.22 42.1581 166.744 42.3324 167.21C42.5066 167.676 42.7642 168.045 43.1051 168.318C43.4498 168.587 43.8741 168.722 44.3778 168.722ZM56.2798 166.381V161.273H57.9844V170H56.3139V168.489H56.223C56.0223 168.955 55.7003 169.343 55.2571 169.653C54.8177 169.96 54.2704 170.114 53.6151 170.114C53.0545 170.114 52.5582 169.991 52.1264 169.744C51.6984 169.494 51.3613 169.125 51.1151 168.636C50.8726 168.148 50.7514 167.544 50.7514 166.824V161.273H52.4503V166.619C52.4503 167.214 52.6151 167.687 52.9446 168.04C53.2741 168.392 53.7022 168.568 54.2287 168.568C54.5469 168.568 54.8632 168.489 55.1776 168.33C55.4957 168.17 55.759 167.93 55.9673 167.608C56.1795 167.286 56.2836 166.877 56.2798 166.381ZM63.9432 170.176C63.0985 170.176 62.3712 169.985 61.7614 169.602C61.1553 169.216 60.6894 168.684 60.3636 168.006C60.0379 167.328 59.875 166.551 59.875 165.676C59.875 164.79 60.0417 164.008 60.375 163.33C60.7083 162.648 61.178 162.116 61.7841 161.733C62.3902 161.35 63.1042 161.159 63.9261 161.159C64.589 161.159 65.1799 161.282 65.6989 161.528C66.2178 161.771 66.6364 162.112 66.9545 162.551C67.2765 162.991 67.4678 163.504 67.5284 164.091H65.875C65.7841 163.682 65.5758 163.33 65.25 163.034C64.928 162.739 64.4962 162.591 63.9545 162.591C63.4811 162.591 63.0663 162.716 62.7102 162.966C62.358 163.212 62.0833 163.564 61.8864 164.023C61.6894 164.477 61.5909 165.015 61.5909 165.636C61.5909 166.273 61.6875 166.822 61.8807 167.284C62.0739 167.746 62.3466 168.104 62.6989 168.358C63.0549 168.612 63.4735 168.739 63.9545 168.739C64.2765 168.739 64.5682 168.68 64.8295 168.562C65.0947 168.441 65.3163 168.269 65.4943 168.045C65.6761 167.822 65.803 167.553 65.875 167.239H67.5284C67.4678 167.803 67.2841 168.307 66.9773 168.75C66.6705 169.193 66.2595 169.542 65.7443 169.795C65.233 170.049 64.6326 170.176 63.9432 170.176ZM73.1065 170.176C72.2467 170.176 71.5062 169.992 70.8849 169.625C70.2675 169.254 69.7902 168.733 69.4531 168.062C69.1198 167.388 68.9531 166.598 68.9531 165.693C68.9531 164.799 69.1198 164.011 69.4531 163.33C69.7902 162.648 70.2599 162.116 70.8622 161.733C71.4683 161.35 72.1766 161.159 72.9872 161.159C73.4796 161.159 73.9569 161.241 74.419 161.403C74.8812 161.566 75.2959 161.822 75.6634 162.17C76.0308 162.519 76.3205 162.972 76.5327 163.528C76.7448 164.081 76.8509 164.754 76.8509 165.545V166.148H69.9134V164.875H75.1861C75.1861 164.428 75.0952 164.032 74.9134 163.688C74.7315 163.339 74.4759 163.064 74.1463 162.864C73.8205 162.663 73.438 162.562 72.9986 162.562C72.5213 162.562 72.1046 162.68 71.7486 162.915C71.3963 163.146 71.1236 163.449 70.9304 163.824C70.741 164.195 70.6463 164.598 70.6463 165.034V166.028C70.6463 166.612 70.7486 167.108 70.9531 167.517C71.1615 167.926 71.4512 168.239 71.8224 168.455C72.1937 168.667 72.6274 168.773 73.1236 168.773C73.4455 168.773 73.7391 168.727 74.0043 168.636C74.2694 168.542 74.4986 168.402 74.6918 168.216C74.8849 168.03 75.0327 167.801 75.1349 167.528L76.7429 167.818C76.6141 168.292 76.383 168.706 76.0497 169.062C75.7202 169.415 75.3054 169.689 74.8054 169.886C74.3092 170.08 73.7429 170.176 73.1065 170.176ZM89.5099 163.403L87.9702 163.676C87.9058 163.479 87.8035 163.292 87.6634 163.114C87.527 162.936 87.3414 162.79 87.1065 162.676C86.8717 162.562 86.5781 162.506 86.2259 162.506C85.7448 162.506 85.3433 162.614 85.0213 162.83C84.6993 163.042 84.5384 163.316 84.5384 163.653C84.5384 163.945 84.6463 164.18 84.8622 164.358C85.0781 164.536 85.4266 164.682 85.9077 164.795L87.294 165.114C88.0971 165.299 88.6955 165.585 89.0895 165.972C89.4834 166.358 89.6804 166.86 89.6804 167.477C89.6804 168 89.5289 168.466 89.2259 168.875C88.9266 169.28 88.508 169.598 87.9702 169.83C87.4361 170.061 86.8168 170.176 86.1122 170.176C85.1349 170.176 84.3376 169.968 83.7202 169.551C83.1027 169.131 82.724 168.534 82.5838 167.761L84.2259 167.511C84.3281 167.939 84.5384 168.263 84.8565 168.483C85.1747 168.699 85.5895 168.807 86.1009 168.807C86.6577 168.807 87.1027 168.691 87.4361 168.46C87.7694 168.225 87.9361 167.939 87.9361 167.602C87.9361 167.33 87.8338 167.1 87.6293 166.915C87.4285 166.729 87.1198 166.589 86.7031 166.494L85.2259 166.17C84.4115 165.985 83.8092 165.689 83.419 165.284C83.0327 164.879 82.8395 164.366 82.8395 163.744C82.8395 163.229 82.9834 162.778 83.2713 162.392C83.5592 162.006 83.9569 161.705 84.4645 161.489C84.9721 161.269 85.5535 161.159 86.2088 161.159C87.152 161.159 87.8944 161.364 88.4361 161.773C88.9777 162.178 89.3357 162.722 89.5099 163.403ZM95.2244 170.176C94.4063 170.176 93.6922 169.989 93.0824 169.614C92.4725 169.239 91.9991 168.714 91.6619 168.04C91.3248 167.366 91.1562 166.578 91.1562 165.676C91.1562 164.771 91.3248 163.979 91.6619 163.301C91.9991 162.623 92.4725 162.097 93.0824 161.722C93.6922 161.347 94.4063 161.159 95.2244 161.159C96.0426 161.159 96.7566 161.347 97.3665 161.722C97.9763 162.097 98.4498 162.623 98.7869 163.301C99.1241 163.979 99.2926 164.771 99.2926 165.676C99.2926 166.578 99.1241 167.366 98.7869 168.04C98.4498 168.714 97.9763 169.239 97.3665 169.614C96.7566 169.989 96.0426 170.176 95.2244 170.176ZM95.2301 168.75C95.7604 168.75 96.1998 168.61 96.5483 168.33C96.8968 168.049 97.1544 167.676 97.321 167.21C97.4915 166.744 97.5767 166.231 97.5767 165.67C97.5767 165.114 97.4915 164.602 97.321 164.136C97.1544 163.667 96.8968 163.29 96.5483 163.006C96.1998 162.722 95.7604 162.58 95.2301 162.58C94.696 162.58 94.2528 162.722 93.9006 163.006C93.5521 163.29 93.2926 163.667 93.1222 164.136C92.9555 164.602 92.8722 165.114 92.8722 165.67C92.8722 166.231 92.9555 166.744 93.1222 167.21C93.2926 167.676 93.5521 168.049 93.9006 168.33C94.2528 168.61 94.696 168.75 95.2301 168.75ZM101.189 170V161.273H102.82V162.693H102.928C103.109 162.212 103.407 161.837 103.82 161.568C104.232 161.295 104.727 161.159 105.303 161.159C105.886 161.159 106.375 161.295 106.768 161.568C107.166 161.841 107.46 162.216 107.649 162.693H107.74C107.948 162.227 108.28 161.856 108.734 161.58C109.189 161.299 109.731 161.159 110.359 161.159C111.151 161.159 111.797 161.407 112.297 161.903C112.801 162.4 113.053 163.148 113.053 164.148V170H111.354V164.307C111.354 163.716 111.193 163.288 110.871 163.023C110.549 162.758 110.164 162.625 109.717 162.625C109.164 162.625 108.734 162.795 108.428 163.136C108.121 163.473 107.967 163.907 107.967 164.438V170H106.274V164.199C106.274 163.725 106.126 163.345 105.831 163.057C105.536 162.769 105.151 162.625 104.678 162.625C104.356 162.625 104.058 162.71 103.786 162.881C103.517 163.047 103.299 163.28 103.132 163.58C102.969 163.879 102.888 164.225 102.888 164.619V170H101.189ZM119.091 170.176C118.231 170.176 117.491 169.992 116.869 169.625C116.252 169.254 115.775 168.733 115.438 168.062C115.104 167.388 114.938 166.598 114.938 165.693C114.938 164.799 115.104 164.011 115.438 163.33C115.775 162.648 116.244 162.116 116.847 161.733C117.453 161.35 118.161 161.159 118.972 161.159C119.464 161.159 119.941 161.241 120.403 161.403C120.866 161.566 121.28 161.822 121.648 162.17C122.015 162.519 122.305 162.972 122.517 163.528C122.729 164.081 122.835 164.754 122.835 165.545V166.148H115.898V164.875H121.17C121.17 164.428 121.08 164.032 120.898 163.688C120.716 163.339 120.46 163.064 120.131 162.864C119.805 162.663 119.422 162.562 118.983 162.562C118.506 162.562 118.089 162.68 117.733 162.915C117.381 163.146 117.108 163.449 116.915 163.824C116.725 164.195 116.631 164.598 116.631 165.034V166.028C116.631 166.612 116.733 167.108 116.938 167.517C117.146 167.926 117.436 168.239 117.807 168.455C118.178 168.667 118.612 168.773 119.108 168.773C119.43 168.773 119.723 168.727 119.989 168.636C120.254 168.542 120.483 168.402 120.676 168.216C120.869 168.03 121.017 167.801 121.119 167.528L122.727 167.818C122.598 168.292 122.367 168.706 122.034 169.062C121.705 169.415 121.29 169.689 120.79 169.886C120.294 170.08 119.727 170.176 119.091 170.176ZM130.847 170L128.278 161.273H130.034L131.744 167.682H131.83L133.545 161.273H135.301L137.006 167.653H137.091L138.79 161.273H140.545L137.983 170H136.25L134.477 163.699H134.347L132.574 170H130.847ZM145.653 170.176C144.794 170.176 144.053 169.992 143.432 169.625C142.814 169.254 142.337 168.733 142 168.062C141.667 167.388 141.5 166.598 141.5 165.693C141.5 164.799 141.667 164.011 142 163.33C142.337 162.648 142.807 162.116 143.409 161.733C144.015 161.35 144.723 161.159 145.534 161.159C146.027 161.159 146.504 161.241 146.966 161.403C147.428 161.566 147.843 161.822 148.21 162.17C148.578 162.519 148.867 162.972 149.08 163.528C149.292 164.081 149.398 164.754 149.398 165.545V166.148H142.46V164.875H147.733C147.733 164.428 147.642 164.032 147.46 163.688C147.278 163.339 147.023 163.064 146.693 162.864C146.367 162.663 145.985 162.562 145.545 162.562C145.068 162.562 144.652 162.68 144.295 162.915C143.943 163.146 143.67 163.449 143.477 163.824C143.288 164.195 143.193 164.598 143.193 165.034V166.028C143.193 166.612 143.295 167.108 143.5 167.517C143.708 167.926 143.998 168.239 144.369 168.455C144.741 168.667 145.174 168.773 145.67 168.773C145.992 168.773 146.286 168.727 146.551 168.636C146.816 168.542 147.045 168.402 147.239 168.216C147.432 168.03 147.58 167.801 147.682 167.528L149.29 167.818C149.161 168.292 148.93 168.706 148.597 169.062C148.267 169.415 147.852 169.689 147.352 169.886C146.856 170.08 146.29 170.176 145.653 170.176ZM151.283 170V161.273H152.982V170H151.283ZM152.141 159.926C151.845 159.926 151.591 159.828 151.379 159.631C151.171 159.43 151.067 159.191 151.067 158.915C151.067 158.634 151.171 158.396 151.379 158.199C151.591 157.998 151.845 157.898 152.141 157.898C152.436 157.898 152.688 157.998 152.896 158.199C153.108 158.396 153.214 158.634 153.214 158.915C153.214 159.191 153.108 159.43 152.896 159.631C152.688 159.828 152.436 159.926 152.141 159.926ZM158.926 173.455C158.233 173.455 157.636 173.364 157.136 173.182C156.64 173 156.235 172.759 155.92 172.46C155.606 172.161 155.371 171.833 155.216 171.477L156.676 170.875C156.778 171.042 156.915 171.218 157.085 171.403C157.259 171.593 157.494 171.754 157.79 171.886C158.089 172.019 158.473 172.085 158.943 172.085C159.587 172.085 160.119 171.928 160.54 171.614C160.96 171.303 161.17 170.807 161.17 170.125V168.409H161.062C160.96 168.595 160.813 168.801 160.619 169.028C160.43 169.256 160.169 169.453 159.835 169.619C159.502 169.786 159.068 169.869 158.534 169.869C157.845 169.869 157.223 169.708 156.67 169.386C156.121 169.061 155.686 168.581 155.364 167.949C155.045 167.312 154.886 166.53 154.886 165.602C154.886 164.674 155.044 163.879 155.358 163.216C155.676 162.553 156.112 162.045 156.665 161.693C157.218 161.337 157.845 161.159 158.545 161.159C159.087 161.159 159.525 161.25 159.858 161.432C160.191 161.61 160.451 161.818 160.636 162.057C160.826 162.295 160.972 162.506 161.074 162.688H161.199V161.273H162.864V170.193C162.864 170.943 162.689 171.559 162.341 172.04C161.992 172.521 161.521 172.877 160.926 173.108C160.335 173.339 159.669 173.455 158.926 173.455ZM158.909 168.46C159.398 168.46 159.811 168.347 160.148 168.119C160.489 167.888 160.746 167.559 160.92 167.131C161.098 166.699 161.188 166.182 161.188 165.58C161.188 164.992 161.1 164.475 160.926 164.028C160.752 163.581 160.496 163.233 160.159 162.983C159.822 162.729 159.405 162.602 158.909 162.602C158.398 162.602 157.972 162.735 157.631 163C157.29 163.261 157.032 163.617 156.858 164.068C156.688 164.519 156.602 165.023 156.602 165.58C156.602 166.152 156.689 166.653 156.864 167.085C157.038 167.517 157.295 167.854 157.636 168.097C157.981 168.339 158.405 168.46 158.909 168.46ZM166.841 164.818V170H165.142V158.364H166.818V162.693H166.926C167.131 162.223 167.443 161.85 167.864 161.574C168.284 161.297 168.833 161.159 169.511 161.159C170.11 161.159 170.633 161.282 171.08 161.528C171.53 161.775 171.879 162.142 172.125 162.631C172.375 163.116 172.5 163.722 172.5 164.449V170H170.801V164.653C170.801 164.013 170.636 163.517 170.307 163.165C169.977 162.809 169.519 162.631 168.932 162.631C168.53 162.631 168.17 162.716 167.852 162.886C167.538 163.057 167.29 163.307 167.108 163.636C166.93 163.962 166.841 164.356 166.841 164.818ZM178.841 161.273V162.636H174.074V161.273H178.841ZM175.352 159.182H177.051V167.438C177.051 167.767 177.1 168.015 177.199 168.182C177.297 168.345 177.424 168.456 177.58 168.517C177.739 168.574 177.911 168.602 178.097 168.602C178.233 168.602 178.352 168.593 178.455 168.574C178.557 168.555 178.636 168.54 178.693 168.528L179 169.932C178.902 169.97 178.761 170.008 178.58 170.045C178.398 170.087 178.17 170.11 177.898 170.114C177.451 170.121 177.034 170.042 176.648 169.875C176.261 169.708 175.949 169.451 175.71 169.102C175.472 168.754 175.352 168.316 175.352 167.79V159.182Z" fill="#111928"/>
<path d="M339.801 158.364H341.551V166.614C341.551 167.36 341.403 167.998 341.108 168.528C340.816 169.059 340.405 169.464 339.875 169.744C339.345 170.021 338.723 170.159 338.011 170.159C337.356 170.159 336.767 170.04 336.244 169.801C335.725 169.562 335.314 169.216 335.011 168.761C334.712 168.303 334.562 167.746 334.562 167.091H336.307C336.307 167.413 336.381 167.691 336.528 167.926C336.68 168.161 336.886 168.345 337.148 168.477C337.413 168.606 337.716 168.67 338.057 168.67C338.428 168.67 338.742 168.593 339 168.438C339.261 168.278 339.46 168.045 339.597 167.739C339.733 167.432 339.801 167.057 339.801 166.614V158.364ZM349.499 166.381V161.273H351.203V170H349.533V168.489H349.442C349.241 168.955 348.919 169.343 348.476 169.653C348.036 169.96 347.489 170.114 346.834 170.114C346.273 170.114 345.777 169.991 345.345 169.744C344.917 169.494 344.58 169.125 344.334 168.636C344.091 168.148 343.97 167.544 343.97 166.824V161.273H345.669V166.619C345.669 167.214 345.834 167.687 346.163 168.04C346.493 168.392 346.921 168.568 347.447 168.568C347.766 168.568 348.082 168.489 348.396 168.33C348.714 168.17 348.978 167.93 349.186 167.608C349.398 167.286 349.502 166.877 349.499 166.381ZM355.185 164.818V170H353.486V161.273H355.116V162.693H355.224C355.425 162.231 355.74 161.86 356.168 161.58C356.599 161.299 357.143 161.159 357.798 161.159C358.393 161.159 358.914 161.284 359.361 161.534C359.808 161.78 360.154 162.148 360.401 162.636C360.647 163.125 360.77 163.729 360.77 164.449V170H359.071V164.653C359.071 164.021 358.906 163.527 358.577 163.17C358.247 162.811 357.795 162.631 357.219 162.631C356.825 162.631 356.474 162.716 356.168 162.886C355.865 163.057 355.624 163.307 355.446 163.636C355.272 163.962 355.185 164.356 355.185 164.818ZM366.81 170.176C365.95 170.176 365.209 169.992 364.588 169.625C363.971 169.254 363.493 168.733 363.156 168.062C362.823 167.388 362.656 166.598 362.656 165.693C362.656 164.799 362.823 164.011 363.156 163.33C363.493 162.648 363.963 162.116 364.565 161.733C365.171 161.35 365.88 161.159 366.69 161.159C367.183 161.159 367.66 161.241 368.122 161.403C368.584 161.566 368.999 161.822 369.366 162.17C369.734 162.519 370.024 162.972 370.236 163.528C370.448 164.081 370.554 164.754 370.554 165.545V166.148H363.616V164.875H368.889C368.889 164.428 368.798 164.032 368.616 163.688C368.435 163.339 368.179 163.064 367.849 162.864C367.524 162.663 367.141 162.562 366.702 162.562C366.224 162.562 365.808 162.68 365.452 162.915C365.099 163.146 364.827 163.449 364.634 163.824C364.444 164.195 364.349 164.598 364.349 165.034V166.028C364.349 166.612 364.452 167.108 364.656 167.517C364.865 167.926 365.154 168.239 365.526 168.455C365.897 168.667 366.33 168.773 366.827 168.773C367.149 168.773 367.442 168.727 367.707 168.636C367.973 168.542 368.202 168.402 368.395 168.216C368.588 168.03 368.736 167.801 368.838 167.528L370.446 167.818C370.317 168.292 370.086 168.706 369.753 169.062C369.423 169.415 369.009 169.689 368.509 169.886C368.012 170.08 367.446 170.176 366.81 170.176ZM376.651 170V168.727L380.588 164.648C381.009 164.205 381.355 163.816 381.628 163.483C381.904 163.146 382.111 162.826 382.247 162.523C382.384 162.22 382.452 161.898 382.452 161.557C382.452 161.17 382.361 160.837 382.179 160.557C381.997 160.273 381.749 160.055 381.435 159.903C381.12 159.748 380.766 159.67 380.372 159.67C379.955 159.67 379.592 159.756 379.281 159.926C378.971 160.097 378.732 160.337 378.565 160.648C378.399 160.958 378.315 161.322 378.315 161.739H376.639C376.639 161.03 376.802 160.411 377.128 159.881C377.454 159.35 377.901 158.939 378.469 158.648C379.037 158.352 379.683 158.205 380.406 158.205C381.137 158.205 381.781 158.35 382.338 158.642C382.899 158.93 383.336 159.324 383.651 159.824C383.965 160.32 384.122 160.881 384.122 161.506C384.122 161.938 384.041 162.36 383.878 162.773C383.719 163.186 383.44 163.646 383.043 164.153C382.645 164.657 382.092 165.269 381.384 165.989L379.071 168.409V168.494H384.31V170H376.651ZM386.463 170V168.727L390.401 164.648C390.821 164.205 391.168 163.816 391.44 163.483C391.717 163.146 391.923 162.826 392.06 162.523C392.196 162.22 392.264 161.898 392.264 161.557C392.264 161.17 392.173 160.837 391.991 160.557C391.81 160.273 391.562 160.055 391.247 159.903C390.933 159.748 390.579 159.67 390.185 159.67C389.768 159.67 389.404 159.756 389.094 159.926C388.783 160.097 388.545 160.337 388.378 160.648C388.211 160.958 388.128 161.322 388.128 161.739H386.452C386.452 161.03 386.615 160.411 386.94 159.881C387.266 159.35 387.713 158.939 388.281 158.648C388.849 158.352 389.495 158.205 390.219 158.205C390.95 158.205 391.594 158.35 392.151 158.642C392.711 158.93 393.149 159.324 393.463 159.824C393.777 160.32 393.935 160.881 393.935 161.506C393.935 161.938 393.853 162.36 393.69 162.773C393.531 163.186 393.253 163.646 392.855 164.153C392.457 164.657 391.904 165.269 391.196 165.989L388.884 168.409V168.494H394.122V170H386.463ZM398.509 168.409L398.423 169.028C398.366 169.483 398.27 169.956 398.134 170.449C398.001 170.945 397.863 171.405 397.719 171.83C397.579 172.254 397.463 172.591 397.372 172.841H396.168C396.217 172.606 396.285 172.288 396.372 171.886C396.459 171.489 396.545 171.044 396.628 170.551C396.711 170.059 396.774 169.557 396.815 169.045L396.872 168.409H398.509ZM400.885 170V168.727L404.822 164.648C405.243 164.205 405.589 163.816 405.862 163.483C406.139 163.146 406.345 162.826 406.482 162.523C406.618 162.22 406.686 161.898 406.686 161.557C406.686 161.17 406.595 160.837 406.413 160.557C406.232 160.273 405.983 160.055 405.669 159.903C405.355 159.748 405 159.67 404.607 159.67C404.19 159.67 403.826 159.756 403.516 159.926C403.205 160.097 402.966 160.337 402.8 160.648C402.633 160.958 402.55 161.322 402.55 161.739H400.874C400.874 161.03 401.036 160.411 401.362 159.881C401.688 159.35 402.135 158.939 402.703 158.648C403.271 158.352 403.917 158.205 404.641 158.205C405.372 158.205 406.016 158.35 406.572 158.642C407.133 158.93 407.571 159.324 407.885 159.824C408.199 160.32 408.357 160.881 408.357 161.506C408.357 161.938 408.275 162.36 408.112 162.773C407.953 163.186 407.675 163.646 407.277 164.153C406.879 164.657 406.326 165.269 405.618 165.989L403.305 168.409V168.494H408.544V170H400.885ZM414.749 170.193C413.851 170.189 413.084 169.953 412.447 169.483C411.811 169.013 411.324 168.33 410.987 167.432C410.65 166.534 410.482 165.453 410.482 164.188C410.482 162.926 410.65 161.848 410.987 160.955C411.328 160.061 411.817 159.379 412.453 158.909C413.093 158.439 413.858 158.205 414.749 158.205C415.639 158.205 416.402 158.441 417.038 158.915C417.675 159.384 418.161 160.066 418.499 160.96C418.839 161.85 419.01 162.926 419.01 164.188C419.01 165.456 418.841 166.54 418.504 167.438C418.167 168.331 417.68 169.015 417.044 169.489C416.408 169.958 415.643 170.193 414.749 170.193ZM414.749 168.676C415.536 168.676 416.152 168.292 416.595 167.523C417.042 166.754 417.266 165.642 417.266 164.188C417.266 163.222 417.163 162.405 416.959 161.739C416.758 161.068 416.468 160.561 416.089 160.216C415.714 159.867 415.268 159.693 414.749 159.693C413.964 159.693 413.349 160.08 412.902 160.852C412.455 161.625 412.23 162.737 412.226 164.188C412.226 165.157 412.326 165.977 412.527 166.648C412.732 167.314 413.021 167.82 413.396 168.165C413.771 168.506 414.222 168.676 414.749 168.676ZM421.026 170V168.727L424.963 164.648C425.384 164.205 425.73 163.816 426.003 163.483C426.279 163.146 426.486 162.826 426.622 162.523C426.759 162.22 426.827 161.898 426.827 161.557C426.827 161.17 426.736 160.837 426.554 160.557C426.372 160.273 426.124 160.055 425.81 159.903C425.495 159.748 425.141 159.67 424.747 159.67C424.33 159.67 423.967 159.756 423.656 159.926C423.346 160.097 423.107 160.337 422.94 160.648C422.774 160.958 422.69 161.322 422.69 161.739H421.014C421.014 161.03 421.177 160.411 421.503 159.881C421.829 159.35 422.276 158.939 422.844 158.648C423.412 158.352 424.058 158.205 424.781 158.205C425.512 158.205 426.156 158.35 426.713 158.642C427.274 158.93 427.711 159.324 428.026 159.824C428.34 160.32 428.497 160.881 428.497 161.506C428.497 161.938 428.416 162.36 428.253 162.773C428.094 163.186 427.815 163.646 427.418 164.153C427.02 164.657 426.467 165.269 425.759 165.989L423.446 168.409V168.494H428.685V170H421.026ZM435.253 158.364V170H433.491V160.125H433.423L430.639 161.943V160.261L433.543 158.364H435.253Z" fill="#111928"/>
<path d="M865 36C865 29.3726 870.373 24 877 24H1008C1014.63 24 1020 29.3726 1020 36V44C1020 50.6274 1014.63 56 1008 56H877C870.373 56 865 50.6274 865 44V36Z" fill="#1C64F2"/>
<path fill-rule="evenodd" clip-rule="evenodd" d="M884 36C884.212 36 884.416 36.0843 884.566 36.2343C884.716 36.3843 884.8 36.5878 884.8 36.8V39.2H887.2C887.412 39.2 887.616 39.2843 887.766 39.4343C887.916 39.5843 888 39.7878 888 40C888 40.2122 887.916 40.4157 887.766 40.5657C887.616 40.7157 887.412 40.8 887.2 40.8H884.8V43.2C884.8 43.4122 884.716 43.6157 884.566 43.7657C884.416 43.9157 884.212 44 884 44C883.788 44 883.584 43.9157 883.434 43.7657C883.284 43.6157 883.2 43.4122 883.2 43.2V40.8H880.8C880.588 40.8 880.384 40.7157 880.234 40.5657C880.084 40.4157 880 40.2122 880 40C880 39.7878 880.084 39.5843 880.234 39.4343C880.384 39.2843 880.588 39.2 880.8 39.2H883.2V36.8C883.2 36.5878 883.284 36.3843 883.434 36.2343C883.584 36.0843 883.788 36 884 36Z" fill="white"/>
<path d="M901.982 44H900.294L903.366 35.2727H905.318L908.395 44H906.707L904.376 37.0625H904.308L901.982 44ZM902.037 40.5781H906.639V41.848H902.037V40.5781ZM911.706 44.1151C911.192 44.1151 910.732 43.983 910.325 43.7188C909.919 43.4545 909.598 43.071 909.362 42.5682C909.126 42.0653 909.009 41.4545 909.009 40.7358C909.009 40.0085 909.128 39.3949 909.366 38.8949C909.608 38.392 909.933 38.0128 910.342 37.7571C910.751 37.4986 911.207 37.3693 911.71 37.3693C912.094 37.3693 912.409 37.4347 912.656 37.5653C912.903 37.6932 913.099 37.848 913.244 38.0298C913.389 38.2088 913.501 38.3778 913.581 38.5369H913.645V35.2727H915.192V44H913.675V42.9688H913.581C913.501 43.1278 913.386 43.2969 913.236 43.4759C913.085 43.652 912.886 43.8026 912.639 43.9276C912.392 44.0526 912.081 44.1151 911.706 44.1151ZM912.136 42.8494C912.463 42.8494 912.741 42.7614 912.972 42.5852C913.202 42.4062 913.376 42.1577 913.496 41.8395C913.615 41.5213 913.675 41.1506 913.675 40.7273C913.675 40.304 913.615 39.9361 913.496 39.6236C913.379 39.3111 913.206 39.0682 912.976 38.8949C912.749 38.7216 912.469 38.6349 912.136 38.6349C911.793 38.6349 911.506 38.7244 911.276 38.9034C911.045 39.0824 910.872 39.3295 910.756 39.6449C910.639 39.9602 910.581 40.321 910.581 40.7273C910.581 41.1364 910.639 41.5014 910.756 41.8224C910.875 42.1406 911.05 42.392 911.28 42.5767C911.513 42.7585 911.798 42.8494 912.136 42.8494ZM919.265 44.1151C918.75 44.1151 918.29 43.983 917.884 43.7188C917.478 43.4545 917.157 43.071 916.921 42.5682C916.685 42.0653 916.567 41.4545 916.567 40.7358C916.567 40.0085 916.686 39.3949 916.925 38.8949C917.167 38.392 917.492 38.0128 917.901 37.7571C918.31 37.4986 918.766 37.3693 919.269 37.3693C919.652 37.3693 919.968 37.4347 920.215 37.5653C920.462 37.6932 920.658 37.848 920.803 38.0298C920.948 38.2088 921.06 38.3778 921.14 38.5369H921.203V35.2727H922.75V44H921.233V42.9688H921.14C921.06 43.1278 920.945 43.2969 920.794 43.4759C920.644 43.652 920.445 43.8026 920.198 43.9276C919.951 44.0526 919.64 44.1151 919.265 44.1151ZM919.695 42.8494C920.022 42.8494 920.3 42.7614 920.53 42.5852C920.76 42.4062 920.935 42.1577 921.054 41.8395C921.174 41.5213 921.233 41.1506 921.233 40.7273C921.233 40.304 921.174 39.9361 921.054 39.6236C920.938 39.3111 920.765 39.0682 920.534 38.8949C920.307 38.7216 920.027 38.6349 919.695 38.6349C919.351 38.6349 919.064 38.7244 918.834 38.9034C918.604 39.0824 918.431 39.3295 918.314 39.6449C918.198 39.9602 918.14 40.321 918.14 40.7273C918.14 41.1364 918.198 41.5014 918.314 41.8224C918.434 42.1406 918.608 42.392 918.838 42.5767C919.071 42.7585 919.357 42.8494 919.695 42.8494ZM934.909 38.2173H933.315C933.27 37.956 933.186 37.7244 933.064 37.5227C932.942 37.3182 932.79 37.1449 932.608 37.0028C932.426 36.8608 932.219 36.7543 931.986 36.6832C931.756 36.6094 931.507 36.5724 931.24 36.5724C930.766 36.5724 930.345 36.6918 929.979 36.9304C929.612 37.1662 929.325 37.5128 929.118 37.9702C928.911 38.4247 928.807 38.9801 928.807 39.6364C928.807 40.304 928.911 40.8665 929.118 41.3239C929.328 41.7784 929.615 42.1222 929.979 42.3551C930.345 42.5852 930.764 42.7003 931.236 42.7003C931.497 42.7003 931.741 42.6662 931.969 42.598C932.199 42.527 932.405 42.4233 932.587 42.2869C932.771 42.1506 932.926 41.983 933.051 41.7841C933.179 41.5852 933.267 41.358 933.315 41.1023L934.909 41.1108C934.849 41.5256 934.72 41.9148 934.521 42.2784C934.325 42.642 934.068 42.9631 933.75 43.2415C933.432 43.517 933.06 43.733 932.634 43.8892C932.207 44.0426 931.734 44.1193 931.214 44.1193C930.447 44.1193 929.763 43.9418 929.161 43.5866C928.558 43.2315 928.084 42.7188 927.737 42.0483C927.391 41.3778 927.217 40.5739 927.217 39.6364C927.217 38.696 927.392 37.892 927.741 37.2244C928.091 36.554 928.567 36.0412 929.169 35.6861C929.771 35.331 930.453 35.1534 931.214 35.1534C931.7 35.1534 932.152 35.2216 932.57 35.358C932.987 35.4943 933.359 35.6946 933.686 35.9588C934.013 36.2202 934.281 36.5412 934.491 36.9219C934.705 37.2997 934.844 37.7315 934.909 38.2173ZM939.144 44.1278C938.505 44.1278 937.951 43.9872 937.482 43.706C937.013 43.4247 936.65 43.0312 936.391 42.5256C936.135 42.0199 936.007 41.429 936.007 40.7528C936.007 40.0767 936.135 39.4844 936.391 38.9759C936.65 38.4673 937.013 38.0724 937.482 37.7912C937.951 37.5099 938.505 37.3693 939.144 37.3693C939.783 37.3693 940.337 37.5099 940.806 37.7912C941.275 38.0724 941.637 38.4673 941.892 38.9759C942.151 39.4844 942.28 40.0767 942.28 40.7528C942.28 41.429 942.151 42.0199 941.892 42.5256C941.637 43.0312 941.275 43.4247 940.806 43.706C940.337 43.9872 939.783 44.1278 939.144 44.1278ZM939.152 42.892C939.499 42.892 939.789 42.7969 940.022 42.6065C940.255 42.4134 940.428 42.1548 940.542 41.831C940.658 41.5071 940.716 41.1463 940.716 40.7486C940.716 40.348 940.658 39.9858 940.542 39.6619C940.428 39.3352 940.255 39.0753 940.022 38.8821C939.789 38.6889 939.499 38.5923 939.152 38.5923C938.797 38.5923 938.502 38.6889 938.266 38.8821C938.033 39.0753 937.858 39.3352 937.742 39.6619C937.628 39.9858 937.571 40.348 937.571 40.7486C937.571 41.1463 937.628 41.5071 937.742 41.831C937.858 42.1548 938.033 42.4134 938.266 42.6065C938.502 42.7969 938.797 42.892 939.152 42.892ZM945.132 40.1648V44H943.589V37.4545H945.064V38.5668H945.141C945.291 38.2003 945.531 37.9091 945.861 37.6932C946.193 37.4773 946.604 37.3693 947.092 37.3693C947.544 37.3693 947.938 37.4659 948.273 37.6591C948.611 37.8523 948.872 38.1321 949.057 38.4986C949.244 38.8651 949.337 39.3097 949.334 39.8324V44H947.791V40.071C947.791 39.6335 947.678 39.2912 947.45 39.044C947.226 38.7969 946.915 38.6733 946.517 38.6733C946.247 38.6733 946.007 38.733 945.797 38.8523C945.589 38.9687 945.426 39.1378 945.307 39.3594C945.19 39.581 945.132 39.8494 945.132 40.1648ZM956.075 39.1847L954.669 39.3381C954.629 39.196 954.56 39.0625 954.46 38.9375C954.364 38.8125 954.233 38.7116 954.068 38.6349C953.903 38.5582 953.702 38.5199 953.463 38.5199C953.142 38.5199 952.872 38.5895 952.653 38.7287C952.438 38.8679 952.331 39.0483 952.334 39.2699C952.331 39.4602 952.401 39.6151 952.543 39.7344C952.688 39.8537 952.926 39.9517 953.259 40.0284L954.375 40.267C954.994 40.4006 955.455 40.6122 955.756 40.902C956.06 41.1918 956.213 41.571 956.216 42.0398C956.213 42.4517 956.092 42.8153 955.854 43.1307C955.618 43.4432 955.29 43.6875 954.869 43.8636C954.449 44.0398 953.966 44.1278 953.42 44.1278C952.619 44.1278 951.974 43.9602 951.486 43.625C950.997 43.2869 950.706 42.8168 950.612 42.2145L952.116 42.0696C952.185 42.3651 952.33 42.5881 952.551 42.7386C952.773 42.8892 953.061 42.9645 953.416 42.9645C953.783 42.9645 954.077 42.8892 954.298 42.7386C954.523 42.5881 954.635 42.402 954.635 42.1804C954.635 41.9929 954.563 41.8381 954.418 41.7159C954.276 41.5937 954.054 41.5 953.753 41.4347L952.636 41.2003C952.009 41.0696 951.544 40.8494 951.243 40.5398C950.942 40.2273 950.793 39.8324 950.795 39.3551C950.793 38.9517 950.902 38.6023 951.124 38.3068C951.348 38.0085 951.659 37.7784 952.057 37.6165C952.457 37.4517 952.919 37.3693 953.442 37.3693C954.209 37.3693 954.813 37.5327 955.253 37.8594C955.696 38.1861 955.97 38.6278 956.075 39.1847ZM960.386 44.1278C959.729 44.1278 959.163 43.9915 958.685 43.7188C958.211 43.4432 957.846 43.054 957.59 42.5511C957.335 42.0455 957.207 41.4503 957.207 40.7656C957.207 40.0923 957.335 39.5014 957.59 38.9929C957.849 38.4815 958.21 38.0838 958.673 37.7997C959.136 37.5128 959.68 37.3693 960.305 37.3693C960.708 37.3693 961.089 37.4347 961.447 37.5653C961.808 37.6932 962.126 37.892 962.401 38.1619C962.68 38.4318 962.898 38.7756 963.058 39.1932C963.217 39.608 963.296 40.1023 963.296 40.6761V41.1491H957.931V40.1094H961.817C961.815 39.8139 961.751 39.5511 961.626 39.321C961.501 39.0881 961.326 38.9048 961.102 38.7713C960.88 38.6378 960.621 38.571 960.326 38.571C960.011 38.571 959.734 38.6477 959.495 38.8011C959.256 38.9517 959.07 39.1506 958.937 39.3977C958.806 39.642 958.739 39.9105 958.737 40.2031V41.1108C958.737 41.4915 958.806 41.8182 958.945 42.0909C959.085 42.3608 959.279 42.5682 959.529 42.7131C959.779 42.8551 960.072 42.9261 960.407 42.9261C960.631 42.9261 960.835 42.8949 961.016 42.8324C961.198 42.767 961.356 42.6719 961.489 42.5469C961.623 42.4219 961.724 42.267 961.792 42.0824L963.232 42.2443C963.141 42.625 962.968 42.9574 962.712 43.2415C962.46 43.5227 962.136 43.7415 961.741 43.8977C961.346 44.0511 960.894 44.1278 960.386 44.1278ZM966.144 40.1648V44H964.601V37.4545H966.076V38.5668H966.152C966.303 38.2003 966.543 37.9091 966.873 37.6932C967.205 37.4773 967.615 37.3693 968.104 37.3693C968.556 37.3693 968.949 37.4659 969.284 37.6591C969.623 37.8523 969.884 38.1321 970.069 38.4986C970.256 38.8651 970.348 39.3097 970.346 39.8324V44H968.803V40.071C968.803 39.6335 968.689 39.2912 968.462 39.044C968.238 38.7969 967.926 38.6733 967.529 38.6733C967.259 38.6733 967.019 38.733 966.809 38.8523C966.601 38.9687 966.438 39.1378 966.319 39.3594C966.202 39.581 966.144 39.8494 966.144 40.1648ZM975.182 37.4545V38.6477H971.419V37.4545H975.182ZM972.348 35.8864H973.891V42.0312C973.891 42.2386 973.922 42.3977 973.985 42.5085C974.05 42.6165 974.135 42.6903 974.24 42.7301C974.346 42.7699 974.462 42.7898 974.59 42.7898C974.686 42.7898 974.775 42.7827 974.854 42.7685C974.936 42.7543 974.999 42.7415 975.042 42.7301L975.301 43.9361C975.219 43.9645 975.101 43.9957 974.948 44.0298C974.797 44.0639 974.613 44.0838 974.394 44.0895C974.007 44.1009 973.659 44.0426 973.35 43.9148C973.04 43.7841 972.794 43.5824 972.613 43.3097C972.434 43.0369 972.346 42.696 972.348 42.2869V35.8864ZM979.517 44V35.2727H985.108V36.598H981.098V38.9673H984.724V40.2926H981.098V44H979.517ZM988.855 44.1278C988.216 44.1278 987.662 43.9872 987.193 43.706C986.724 43.4247 986.36 43.0312 986.102 42.5256C985.846 42.0199 985.718 41.429 985.718 40.7528C985.718 40.0767 985.846 39.4844 986.102 38.9759C986.36 38.4673 986.724 38.0724 987.193 37.7912C987.662 37.5099 988.216 37.3693 988.855 37.3693C989.494 37.3693 990.048 37.5099 990.517 37.7912C990.985 38.0724 991.348 38.4673 991.603 38.9759C991.862 39.4844 991.991 40.0767 991.991 40.7528C991.991 41.429 991.862 42.0199 991.603 42.5256C991.348 43.0312 990.985 43.4247 990.517 43.706C990.048 43.9872 989.494 44.1278 988.855 44.1278ZM988.863 42.892C989.21 42.892 989.5 42.7969 989.733 42.6065C989.966 42.4134 990.139 42.1548 990.252 41.831C990.369 41.5071 990.427 41.1463 990.427 40.7486C990.427 40.348 990.369 39.9858 990.252 39.6619C990.139 39.3352 989.966 39.0753 989.733 38.8821C989.5 38.6889 989.21 38.5923 988.863 38.5923C988.508 38.5923 988.213 38.6889 987.977 38.8821C987.744 39.0753 987.569 39.3352 987.453 39.6619C987.339 39.9858 987.282 40.348 987.282 40.7486C987.282 41.1463 987.339 41.5071 987.453 41.831C987.569 42.1548 987.744 42.4134 987.977 42.6065C988.213 42.7969 988.508 42.892 988.863 42.892ZM993.3 44V37.4545H994.796V38.5455H994.864C994.984 38.1676 995.188 37.8764 995.478 37.6719C995.771 37.4645 996.104 37.3608 996.479 37.3608C996.565 37.3608 996.66 37.3651 996.765 37.3736C996.873 37.3793 996.962 37.3892 997.033 37.4034V38.8224C996.968 38.7997 996.864 38.7798 996.722 38.7628C996.583 38.7429 996.448 38.733 996.317 38.733C996.036 38.733 995.783 38.794 995.559 38.9162C995.337 39.0355 995.163 39.2017 995.035 39.4148C994.907 39.6278 994.843 39.8736 994.843 40.152V44H993.3ZM998.058 44V37.4545H999.533V38.5668H999.609C999.746 38.1918 999.972 37.8991 1000.29 37.6889C1000.6 37.4759 1000.98 37.3693 1001.42 37.3693C1001.86 37.3693 1002.23 37.4773 1002.54 37.6932C1002.84 37.9062 1003.06 38.1974 1003.18 38.5668H1003.25C1003.4 38.2031 1003.64 37.9134 1003.99 37.6974C1004.33 37.4787 1004.74 37.3693 1005.22 37.3693C1005.82 37.3693 1006.31 37.5597 1006.69 37.9403C1007.07 38.321 1007.26 38.8764 1007.26 39.6065V44H1005.72V39.8452C1005.72 39.4389 1005.61 39.142 1005.39 38.9545C1005.18 38.7642 1004.91 38.669 1004.6 38.669C1004.23 38.669 1003.94 38.7855 1003.73 39.0185C1003.52 39.2486 1003.41 39.5483 1003.41 39.9176V44H1001.9V39.7812C1001.9 39.4432 1001.8 39.1733 1001.6 38.9716C1001.39 38.7699 1001.13 38.669 1000.8 38.669C1000.58 38.669 1000.38 38.7259 1000.2 38.8395C1000.02 38.9503 999.871 39.108 999.763 39.3125C999.655 39.5142 999.601 39.75 999.601 40.0199V44H998.058Z" fill="white"/>
<path d="M32.4964 37.326H30.1058C30.0376 36.9339 29.9119 36.5866 29.7287 36.2841C29.5455 35.9773 29.3175 35.7173 29.0447 35.5043C28.772 35.2912 28.4609 35.1314 28.1115 35.0249C27.7663 34.9141 27.3935 34.8587 26.9929 34.8587C26.2813 34.8587 25.6506 35.0376 25.1009 35.3956C24.5511 35.7493 24.1207 36.2692 23.8097 36.9553C23.4986 37.6371 23.343 38.4702 23.343 39.4545C23.343 40.456 23.4986 41.2997 23.8097 41.9858C24.125 42.6676 24.5554 43.1832 25.1009 43.5327C25.6506 43.8778 26.2791 44.0504 26.9865 44.0504C27.3786 44.0504 27.745 43.9993 28.0859 43.897C28.4311 43.7905 28.7401 43.6349 29.0128 43.4304C29.2898 43.2259 29.522 42.9744 29.7095 42.6761C29.9013 42.3778 30.0334 42.0369 30.1058 41.6534L32.4964 41.6662C32.407 42.2884 32.2131 42.8722 31.9148 43.4176C31.6207 43.9631 31.2351 44.4446 30.7578 44.8622C30.2805 45.2756 29.7223 45.5994 29.0831 45.8338C28.4439 46.0639 27.7344 46.179 26.9545 46.179C25.804 46.179 24.777 45.9126 23.8736 45.38C22.9702 44.8473 22.2585 44.0781 21.7386 43.0724C21.2188 42.0668 20.9588 40.8608 20.9588 39.4545C20.9588 38.044 21.2209 36.8381 21.745 35.8366C22.2692 34.831 22.983 34.0618 23.8864 33.5291C24.7898 32.9964 25.8125 32.7301 26.9545 32.7301C27.6832 32.7301 28.3608 32.8324 28.9872 33.0369C29.6136 33.2415 30.1719 33.5419 30.6619 33.9382C31.152 34.3303 31.5547 34.8118 31.87 35.3828C32.1896 35.9496 32.3984 36.5973 32.4964 37.326ZM38.8485 46.1918C37.8897 46.1918 37.0588 45.9808 36.3556 45.5589C35.6525 45.1371 35.1071 44.5469 34.7193 43.7884C34.3358 43.0298 34.144 42.1435 34.144 41.1293C34.144 40.1151 34.3358 39.2266 34.7193 38.4638C35.1071 37.701 35.6525 37.1087 36.3556 36.6868C37.0588 36.2649 37.8897 36.054 38.8485 36.054C39.8074 36.054 40.6383 36.2649 41.3414 36.6868C42.0446 37.1087 42.5879 37.701 42.9714 38.4638C43.3592 39.2266 43.5531 40.1151 43.5531 41.1293C43.5531 42.1435 43.3592 43.0298 42.9714 43.7884C42.5879 44.5469 42.0446 45.1371 41.3414 45.5589C40.6383 45.9808 39.8074 46.1918 38.8485 46.1918ZM38.8613 44.3381C39.3812 44.3381 39.8159 44.1953 40.1653 43.9098C40.5147 43.62 40.7747 43.2322 40.9451 42.7464C41.1199 42.2607 41.2072 41.7195 41.2072 41.1229C41.2072 40.522 41.1199 39.9787 40.9451 39.4929C40.7747 39.0028 40.5147 38.6129 40.1653 38.3232C39.8159 38.0334 39.3812 37.8885 38.8613 37.8885C38.3287 37.8885 37.8855 38.0334 37.5318 38.3232C37.1824 38.6129 36.9203 39.0028 36.7456 39.4929C36.5751 39.9787 36.4899 40.522 36.4899 41.1229C36.4899 41.7195 36.5751 42.2607 36.7456 42.7464C36.9203 43.2322 37.1824 43.62 37.5318 43.9098C37.8855 44.1953 38.3287 44.3381 38.8613 44.3381ZM47.831 40.2472V46H45.517V36.1818H47.7287V37.8501H47.8438C48.0696 37.3004 48.4297 36.8636 48.924 36.5398C49.4226 36.2159 50.0384 36.054 50.7713 36.054C51.4489 36.054 52.0391 36.1989 52.5419 36.4886C53.049 36.7784 53.4411 37.1982 53.718 37.7479C53.9993 38.2976 54.1378 38.9645 54.1335 39.7486V46H51.8196V40.1065C51.8196 39.4503 51.6491 38.9368 51.3082 38.5661C50.9716 38.1953 50.505 38.0099 49.9084 38.0099C49.5036 38.0099 49.1435 38.0994 48.8281 38.2784C48.517 38.4531 48.272 38.7067 48.093 39.0391C47.9183 39.3714 47.831 39.7741 47.831 40.2472ZM64.2457 38.777L62.1364 39.0071C62.0767 38.794 61.9723 38.5938 61.8232 38.4062C61.6783 38.2188 61.4822 38.0675 61.2351 37.9524C60.9879 37.8374 60.6854 37.7798 60.3274 37.7798C59.8459 37.7798 59.4411 37.8842 59.1129 38.093C58.7891 38.3018 58.6293 38.5724 58.6335 38.9048C58.6293 39.1903 58.7337 39.4226 58.9467 39.6016C59.1641 39.7805 59.522 39.9276 60.0206 40.0426L61.6953 40.4006C62.6243 40.6009 63.3146 40.9183 63.7663 41.353C64.2223 41.7876 64.4524 42.3565 64.4567 43.0597C64.4524 43.6776 64.2713 44.223 63.9134 44.696C63.5597 45.1648 63.0675 45.5312 62.4368 45.7955C61.8061 46.0597 61.0817 46.1918 60.2635 46.1918C59.0618 46.1918 58.0945 45.9403 57.3615 45.4375C56.6286 44.9304 56.1918 44.2251 56.0511 43.3217L58.3075 43.1044C58.4098 43.5476 58.6271 43.8821 58.9595 44.108C59.2919 44.3338 59.7244 44.4467 60.2571 44.4467C60.8068 44.4467 61.2479 44.3338 61.5803 44.108C61.9169 43.8821 62.0852 43.603 62.0852 43.2706C62.0852 42.9893 61.9766 42.7571 61.7592 42.5739C61.5462 42.3906 61.2138 42.25 60.7621 42.152L59.0874 41.8004C58.1456 41.6044 57.4489 41.2741 56.9972 40.8097C56.5455 40.3409 56.3217 39.7486 56.326 39.0327C56.3217 38.4276 56.4858 37.9034 56.8182 37.4602C57.1548 37.0128 57.6214 36.6676 58.218 36.4247C58.8189 36.1776 59.5114 36.054 60.2955 36.054C61.446 36.054 62.3516 36.299 63.0121 36.7891C63.6768 37.2791 64.0881 37.9418 64.2457 38.777ZM70.7113 46.1918C69.7269 46.1918 68.8768 45.9872 68.1609 45.5781C67.4492 45.1648 66.9016 44.581 66.5181 43.8267C66.1346 43.0682 65.9428 42.1754 65.9428 41.1484C65.9428 40.1385 66.1346 39.2521 66.5181 38.4893C66.9059 37.7223 67.4471 37.1257 68.1417 36.6996C68.8363 36.2692 69.6523 36.054 70.5898 36.054C71.195 36.054 71.766 36.152 72.3029 36.348C72.8441 36.5398 73.3214 36.8381 73.7347 37.2429C74.1523 37.6477 74.4805 38.1634 74.7191 38.7898C74.9577 39.4119 75.0771 40.1534 75.0771 41.0142V41.7237H67.0295V40.1641H72.859C72.8548 39.7209 72.7589 39.3267 72.5714 38.9815C72.3839 38.6321 72.1218 38.3572 71.7852 38.157C71.4528 37.9567 71.065 37.8565 70.6218 37.8565C70.1488 37.8565 69.7333 37.9716 69.3754 38.2017C69.0174 38.4276 68.7383 38.7259 68.538 39.0966C68.342 39.4631 68.2418 39.8658 68.2376 40.3047V41.6662C68.2376 42.2372 68.342 42.7273 68.5508 43.1364C68.7596 43.5412 69.0515 43.8523 69.4265 44.0696C69.8015 44.2827 70.2404 44.3892 70.7433 44.3892C71.0799 44.3892 71.3846 44.3423 71.6573 44.2486C71.93 44.1506 72.1665 44.0078 72.3668 43.8203C72.5671 43.6328 72.7184 43.4006 72.8207 43.1236L74.9812 43.3665C74.8448 43.9375 74.5849 44.4361 74.2014 44.8622C73.8221 45.2841 73.3363 45.6122 72.744 45.8466C72.1516 46.0767 71.4741 46.1918 70.7113 46.1918ZM79.3485 40.2472V46H77.0346V36.1818H79.2463V37.8501H79.3613C79.5872 37.3004 79.9473 36.8636 80.4416 36.5398C80.9402 36.2159 81.5559 36.054 82.2889 36.054C82.9664 36.054 83.5566 36.1989 84.0595 36.4886C84.5666 36.7784 84.9586 37.1982 85.2356 37.7479C85.5169 38.2976 85.6554 38.9645 85.6511 39.7486V46H83.3372V40.1065C83.3372 39.4503 83.1667 38.9368 82.8258 38.5661C82.4892 38.1953 82.0225 38.0099 81.426 38.0099C81.0211 38.0099 80.661 38.0994 80.3457 38.2784C80.0346 38.4531 79.7896 38.7067 79.6106 39.0391C79.4359 39.3714 79.3485 39.7741 79.3485 40.2472ZM92.9061 36.1818V37.9716H87.2619V36.1818H92.9061ZM88.6554 33.8295H90.9693V43.0469C90.9693 43.358 91.0162 43.5966 91.1099 43.7628C91.2079 43.9247 91.3358 44.0355 91.4934 44.0952C91.6511 44.1548 91.8258 44.1847 92.0176 44.1847C92.1625 44.1847 92.2946 44.174 92.4139 44.1527C92.5375 44.1314 92.6312 44.1122 92.6951 44.0952L93.0851 45.9041C92.9615 45.9467 92.7846 45.9936 92.5545 46.0447C92.3287 46.0959 92.0517 46.1257 91.7235 46.1342C91.144 46.1513 90.622 46.0639 90.1575 45.8722C89.693 45.6761 89.3244 45.3736 89.0517 44.9645C88.7832 44.5554 88.6511 44.044 88.6554 43.4304V33.8295ZM99.4084 46V32.9091H107.795V34.897H101.78V38.451H107.219V40.4389H101.78V46H99.4084ZM113.415 46.1918C112.456 46.1918 111.625 45.9808 110.922 45.5589C110.219 45.1371 109.673 44.5469 109.286 43.7884C108.902 43.0298 108.71 42.1435 108.71 41.1293C108.71 40.1151 108.902 39.2266 109.286 38.4638C109.673 37.701 110.219 37.1087 110.922 36.6868C111.625 36.2649 112.456 36.054 113.415 36.054C114.374 36.054 115.205 36.2649 115.908 36.6868C116.611 37.1087 117.154 37.701 117.538 38.4638C117.926 39.2266 118.119 40.1151 118.119 41.1293C118.119 42.1435 117.926 43.0298 117.538 43.7884C117.154 44.5469 116.611 45.1371 115.908 45.5589C115.205 45.9808 114.374 46.1918 113.415 46.1918ZM113.428 44.3381C113.948 44.3381 114.382 44.1953 114.732 43.9098C115.081 43.62 115.341 43.2322 115.512 42.7464C115.686 42.2607 115.774 41.7195 115.774 41.1229C115.774 40.522 115.686 39.9787 115.512 39.4929C115.341 39.0028 115.081 38.6129 114.732 38.3232C114.382 38.0334 113.948 37.8885 113.428 37.8885C112.895 37.8885 112.452 38.0334 112.098 38.3232C111.749 38.6129 111.487 39.0028 111.312 39.4929C111.142 39.9787 111.056 40.522 111.056 41.1229C111.056 41.7195 111.142 42.2607 111.312 42.7464C111.487 43.2322 111.749 43.62 112.098 43.9098C112.452 44.1953 112.895 44.3381 113.428 44.3381ZM120.083 46V36.1818H122.327V37.8182H122.429C122.608 37.2514 122.915 36.8146 123.35 36.5078C123.789 36.1967 124.289 36.0412 124.852 36.0412C124.98 36.0412 125.123 36.0476 125.28 36.0604C125.442 36.0689 125.576 36.0838 125.683 36.1051V38.2337C125.585 38.1996 125.429 38.1697 125.216 38.1442C125.007 38.1143 124.805 38.0994 124.609 38.0994C124.187 38.0994 123.808 38.1911 123.471 38.3743C123.139 38.5533 122.877 38.8026 122.685 39.1222C122.493 39.4418 122.397 39.8104 122.397 40.228V46H120.083ZM127.22 46V36.1818H129.432V37.8501H129.547C129.751 37.2876 130.09 36.8487 130.563 36.5334C131.036 36.2138 131.601 36.054 132.257 36.054C132.922 36.054 133.482 36.2159 133.938 36.5398C134.398 36.8594 134.722 37.2962 134.91 37.8501H135.012C135.229 37.3047 135.596 36.87 136.112 36.5462C136.631 36.218 137.247 36.054 137.959 36.054C138.862 36.054 139.599 36.3395 140.17 36.9105C140.741 37.4815 141.027 38.3146 141.027 39.4098V46H138.707V39.7678C138.707 39.1584 138.545 38.7131 138.221 38.4318C137.897 38.1463 137.501 38.0036 137.032 38.0036C136.474 38.0036 136.037 38.1783 135.722 38.5277C135.411 38.8729 135.255 39.3224 135.255 39.8764V46H132.986V39.6719C132.986 39.1648 132.832 38.7599 132.526 38.4574C132.223 38.1548 131.827 38.0036 131.337 38.0036C131.004 38.0036 130.702 38.0888 130.429 38.2592C130.156 38.4254 129.939 38.6619 129.777 38.9688C129.615 39.2713 129.534 39.625 129.534 40.0298V46H127.22Z" fill="#111928"/>
<path d="M1010 160C1009.47 160 1008.96 159.789 1008.59 159.414C1008.21 159.039 1008 158.53 1008 158C1008 157.47 1008.21 156.961 1008.59 156.586C1008.96 156.211 1009.47 156 1010 156C1010.53 156 1011.04 156.211 1011.41 156.586C1011.79 156.961 1012 157.47 1012 158C1012 158.53 1011.79 159.039 1011.41 159.414C1011.04 159.789 1010.53 160 1010 160ZM1010 166C1009.47 166 1008.96 165.789 1008.59 165.414C1008.21 165.039 1008 164.53 1008 164C1008 163.47 1008.21 162.961 1008.59 162.586C1008.96 162.211 1009.47 162 1010 162C1010.53 162 1011.04 162.211 1011.41 162.586C1011.79 162.961 1012 163.47 1012 164C1012 164.53 1011.79 165.039 1011.41 165.414C1011.04 165.789 1010.53 166 1010 166ZM1010 172C1009.47 172 1008.96 171.789 1008.59 171.414C1008.21 171.039 1008 170.53 1008 170C1008 169.47 1008.21 168.961 1008.59 168.586C1008.96 168.211 1009.47 168 1010 168C1010.53 168 1011.04 168.211 1011.41 168.586C1011.79 168.961 1012 169.47 1012 170C1012 170.53 1011.79 171.039 1011.41 171.414C1011.04 171.789 1010.53 172 1010 172Z" fill="black"/>
</svg>
