
<svg width="1040" height="261" viewBox="0 0 1040 261" fill="none" xmlns="http://www.w3.org/2000/svg">
<rect width="1040" height="261" fill="white"/>
<rect y="196" width="1040" height="1" fill="#E5E7EB"/>
<rect width="1040" height="46" transform="translate(0 86)" fill="#F3F4F6"/>
<path d="M22.3665 104.318L25.0163 112.332H25.1207L27.7656 104.318H29.794L26.2045 114.5H23.9276L20.343 104.318H22.3665ZM31.0556 114.5V106.864H32.8553V114.5H31.0556ZM31.9604 105.78C31.6754 105.78 31.4301 105.685 31.2246 105.496C31.0191 105.304 30.9164 105.074 30.9164 104.805C30.9164 104.534 31.0191 104.303 31.2246 104.114C31.4301 103.922 31.6754 103.826 31.9604 103.826C32.2488 103.826 32.494 103.922 32.6962 104.114C32.9017 104.303 33.0044 104.534 33.0044 104.805C33.0044 105.074 32.9017 105.304 32.6962 105.496C32.494 105.685 32.2488 105.78 31.9604 105.78ZM38.5192 106.864V108.256H34.1293V106.864H38.5192ZM35.2131 105.034H37.0128V112.203C37.0128 112.445 37.0492 112.631 37.1222 112.76C37.1984 112.886 37.2978 112.972 37.4205 113.018C37.5431 113.065 37.679 113.088 37.8281 113.088C37.9408 113.088 38.0436 113.08 38.1364 113.063C38.2325 113.047 38.3054 113.032 38.3551 113.018L38.6584 114.425C38.5623 114.459 38.4247 114.495 38.2457 114.535C38.0701 114.575 37.8546 114.598 37.5994 114.604C37.1487 114.618 36.7427 114.55 36.3814 114.401C36.0201 114.248 35.7334 114.013 35.5213 113.695C35.3125 113.376 35.2098 112.979 35.2131 112.501V105.034ZM42.2218 114.654C41.7379 114.654 41.302 114.568 40.9142 114.396C40.5298 114.22 40.2248 113.961 39.9995 113.62C39.7774 113.279 39.6664 112.858 39.6664 112.357C39.6664 111.926 39.7459 111.57 39.905 111.288C40.0641 111.007 40.2812 110.781 40.5563 110.612C40.8314 110.443 41.1413 110.316 41.486 110.229C41.834 110.14 42.1936 110.075 42.5648 110.036C43.0123 109.989 43.3752 109.948 43.6536 109.911C43.932 109.871 44.1342 109.812 44.2601 109.732C44.3894 109.649 44.454 109.522 44.454 109.349V109.32C44.454 108.945 44.343 108.655 44.1209 108.45C43.8989 108.244 43.579 108.141 43.1614 108.141C42.7206 108.141 42.3709 108.237 42.1124 108.43C41.8572 108.622 41.6848 108.849 41.5953 109.111L39.915 108.872C40.0475 108.408 40.2663 108.02 40.5712 107.709C40.8761 107.394 41.249 107.159 41.6898 107.003C42.1306 106.844 42.6178 106.764 43.1515 106.764C43.5194 106.764 43.8856 106.807 44.2502 106.893C44.6148 106.98 44.9479 107.122 45.2495 107.321C45.5511 107.517 45.793 107.783 45.9753 108.121C46.1609 108.46 46.2537 108.882 46.2537 109.389V114.5H44.5236V113.451H44.464C44.3546 113.663 44.2005 113.862 44.0016 114.048C43.806 114.23 43.5591 114.377 43.2608 114.49C42.9658 114.599 42.6195 114.654 42.2218 114.654ZM42.6891 113.332C43.0504 113.332 43.3636 113.26 43.6287 113.118C43.8939 112.972 44.0977 112.78 44.2402 112.541C44.3861 112.303 44.459 112.042 44.459 111.761V110.861C44.4026 110.907 44.3065 110.95 44.1706 110.99C44.0381 111.03 43.8889 111.065 43.7232 111.094C43.5575 111.124 43.3934 111.151 43.231 111.174C43.0686 111.197 42.9277 111.217 42.8084 111.234C42.54 111.27 42.2997 111.33 42.0875 111.413C41.8754 111.496 41.708 111.612 41.5854 111.761C41.4628 111.906 41.4015 112.095 41.4015 112.327C41.4015 112.659 41.5224 112.909 41.7644 113.078C42.0063 113.247 42.3146 113.332 42.6891 113.332ZM49.8631 104.318V114.5H48.0634V104.318H49.8631ZM63.6332 104.318V114.5H61.9925L57.195 107.565H57.1104V114.5H55.266V104.318H56.9165L61.7092 111.259H61.7987V104.318H63.6332ZM67.7608 114.654C67.2769 114.654 66.8411 114.568 66.4533 114.396C66.0688 114.22 65.7639 113.961 65.5385 113.62C65.3165 113.279 65.2054 112.858 65.2054 112.357C65.2054 111.926 65.285 111.57 65.4441 111.288C65.6032 111.007 65.8203 110.781 66.0953 110.612C66.3704 110.443 66.6803 110.316 67.025 110.229C67.373 110.14 67.7327 110.075 68.1039 110.036C68.5513 109.989 68.9142 109.948 69.1926 109.911C69.4711 109.871 69.6732 109.812 69.7992 109.732C69.9284 109.649 69.9931 109.522 69.9931 109.349V109.32C69.9931 108.945 69.882 108.655 69.66 108.45C69.4379 108.244 69.1181 108.141 68.7005 108.141C68.2596 108.141 67.91 108.237 67.6515 108.43C67.3962 108.622 67.2239 108.849 67.1344 109.111L65.454 108.872C65.5866 108.408 65.8053 108.02 66.1103 107.709C66.4152 107.394 66.7881 107.159 67.2289 107.003C67.6697 106.844 68.1569 106.764 68.6905 106.764C69.0584 106.764 69.4247 106.807 69.7892 106.893C70.1538 106.98 70.4869 107.122 70.7885 107.321C71.0901 107.517 71.3321 107.783 71.5144 108.121C71.7 108.46 71.7928 108.882 71.7928 109.389V114.5H70.0627V113.451H70.003C69.8936 113.663 69.7395 113.862 69.5407 114.048C69.3451 114.23 69.0982 114.377 68.7999 114.49C68.5049 114.599 68.1586 114.654 67.7608 114.654ZM68.2282 113.332C68.5894 113.332 68.9026 113.26 69.1678 113.118C69.4329 112.972 69.6368 112.78 69.7793 112.541C69.9251 112.303 69.998 112.042 69.998 111.761V110.861C69.9417 110.907 69.8456 110.95 69.7097 110.99C69.5771 111.03 69.428 111.065 69.2623 111.094C69.0965 111.124 68.9325 111.151 68.7701 111.174C68.6077 111.197 68.4668 111.217 68.3475 111.234C68.079 111.27 67.8387 111.33 67.6266 111.413C67.4145 111.496 67.2471 111.612 67.1245 111.761C67.0018 111.906 66.9405 112.095 66.9405 112.327C66.9405 112.659 67.0615 112.909 67.3034 113.078C67.5454 113.247 67.8536 113.332 68.2282 113.332ZM73.6025 114.5V106.864H75.3226V108.161H75.4121C75.5712 107.724 75.8347 107.382 76.2026 107.137C76.5705 106.888 77.0096 106.764 77.5201 106.764C78.0371 106.764 78.473 106.89 78.8276 107.142C79.1855 107.391 79.4374 107.73 79.5833 108.161H79.6628C79.8319 107.737 80.1169 107.399 80.5179 107.147C80.9223 106.892 81.4012 106.764 81.9547 106.764C82.6574 106.764 83.2308 106.986 83.6749 107.43C84.119 107.875 84.3411 108.522 84.3411 109.374V114.5H82.5364V109.653C82.5364 109.179 82.4105 108.832 82.1586 108.614C81.9067 108.392 81.5984 108.281 81.2338 108.281C80.7997 108.281 80.4599 108.416 80.2147 108.688C79.9727 108.957 79.8517 109.306 79.8517 109.737V114.5H78.0868V109.578C78.0868 109.184 77.9675 108.869 77.7289 108.634C77.4935 108.398 77.1853 108.281 76.8042 108.281C76.5456 108.281 76.3103 108.347 76.0982 108.479C75.8861 108.609 75.717 108.793 75.5911 109.031C75.4651 109.267 75.4022 109.542 75.4022 109.857V114.5H73.6025ZM89.5476 114.649C88.782 114.649 88.1207 114.49 87.5639 114.172C87.0104 113.85 86.5845 113.396 86.2862 112.81C85.9879 112.22 85.8388 111.525 85.8388 110.727C85.8388 109.941 85.9879 109.252 86.2862 108.658C86.5878 108.062 87.0088 107.598 87.549 107.266C88.0893 106.932 88.724 106.764 89.4531 106.764C89.9238 106.764 90.3679 106.84 90.7855 106.993C91.2064 107.142 91.5777 107.374 91.8991 107.689C92.224 108.004 92.4792 108.405 92.6648 108.892C92.8504 109.376 92.9432 109.953 92.9432 110.622V111.174H86.6839V109.961H91.218C91.2147 109.616 91.1402 109.31 90.9943 109.041C90.8485 108.769 90.6446 108.556 90.3828 108.4C90.1243 108.244 89.8227 108.166 89.478 108.166C89.1101 108.166 88.7869 108.256 88.5085 108.435C88.2301 108.61 88.013 108.842 87.8572 109.131C87.7048 109.416 87.6269 109.729 87.6236 110.07V111.129C87.6236 111.573 87.7048 111.955 87.8672 112.273C88.0296 112.588 88.2566 112.83 88.5483 112.999C88.84 113.164 89.1813 113.247 89.5724 113.247C89.8343 113.247 90.0713 113.211 90.2834 113.138C90.4955 113.062 90.6795 112.951 90.8352 112.805C90.991 112.659 91.1087 112.478 91.1882 112.263L92.8686 112.452C92.7625 112.896 92.5604 113.284 92.2621 113.615C91.9671 113.943 91.5893 114.198 91.1286 114.381C90.6679 114.56 90.1409 114.649 89.5476 114.649Z" fill="#4B5563"/>
<path d="M376.004 115V104.818H377.849V109.129H382.567V104.818H384.416V115H382.567V110.675H377.849V115H376.004ZM386.343 115V107.364H388.142V115H386.343ZM387.248 106.28C386.962 106.28 386.717 106.185 386.512 105.996C386.306 105.804 386.203 105.574 386.203 105.305C386.203 105.034 386.306 104.803 386.512 104.614C386.717 104.422 386.962 104.326 387.248 104.326C387.536 104.326 387.781 104.422 387.983 104.614C388.189 104.803 388.292 105.034 388.292 105.305C388.292 105.574 388.189 105.804 387.983 105.996C387.781 106.185 387.536 106.28 387.248 106.28ZM393.314 118.023C392.668 118.023 392.113 117.935 391.649 117.759C391.185 117.587 390.812 117.355 390.53 117.063C390.248 116.772 390.053 116.448 389.943 116.094L391.564 115.701C391.637 115.85 391.743 115.998 391.882 116.143C392.021 116.293 392.209 116.415 392.444 116.511C392.683 116.611 392.983 116.661 393.344 116.661C393.854 116.661 394.277 116.536 394.612 116.288C394.946 116.042 395.114 115.638 395.114 115.075V113.628H395.024C394.932 113.813 394.796 114.004 394.617 114.2C394.441 114.395 394.207 114.559 393.916 114.692C393.627 114.824 393.264 114.891 392.827 114.891C392.24 114.891 391.708 114.753 391.231 114.478C390.757 114.2 390.379 113.785 390.097 113.235C389.819 112.682 389.68 111.989 389.68 111.157C389.68 110.318 389.819 109.611 390.097 109.034C390.379 108.454 390.759 108.015 391.236 107.717C391.713 107.415 392.245 107.264 392.832 107.264C393.279 107.264 393.647 107.34 393.936 107.493C394.227 107.642 394.459 107.823 394.632 108.035C394.804 108.244 394.935 108.441 395.024 108.626H395.124V107.364H396.899V115.124C396.899 115.777 396.743 116.317 396.431 116.745C396.12 117.173 395.694 117.492 395.154 117.705C394.613 117.917 394 118.023 393.314 118.023ZM393.329 113.479C393.71 113.479 394.035 113.386 394.303 113.2C394.572 113.015 394.776 112.748 394.915 112.4C395.054 112.052 395.124 111.634 395.124 111.147C395.124 110.666 395.054 110.246 394.915 109.884C394.779 109.523 394.577 109.243 394.308 109.044C394.043 108.842 393.717 108.741 393.329 108.741C392.928 108.741 392.593 108.845 392.325 109.054C392.056 109.263 391.854 109.549 391.718 109.914C391.582 110.275 391.514 110.686 391.514 111.147C391.514 111.614 391.582 112.024 391.718 112.375C391.857 112.723 392.061 112.995 392.33 113.19C392.602 113.383 392.935 113.479 393.329 113.479ZM400.543 110.526V115H398.743V104.818H400.503V108.661H400.593C400.771 108.23 401.048 107.891 401.423 107.642C401.801 107.39 402.281 107.264 402.865 107.264C403.395 107.264 403.857 107.375 404.252 107.597C404.646 107.819 404.951 108.144 405.166 108.572C405.385 108.999 405.494 109.521 405.494 110.138V115H403.695V110.416C403.695 109.902 403.562 109.503 403.297 109.218C403.035 108.93 402.667 108.786 402.193 108.786C401.875 108.786 401.59 108.855 401.338 108.994C401.09 109.13 400.894 109.327 400.752 109.586C400.612 109.844 400.543 110.158 400.543 110.526ZM410.71 115.149C409.944 115.149 409.283 114.99 408.726 114.672C408.173 114.35 407.747 113.896 407.448 113.31C407.15 112.72 407.001 112.025 407.001 111.227C407.001 110.441 407.15 109.752 407.448 109.158C407.75 108.562 408.171 108.098 408.711 107.766C409.251 107.432 409.886 107.264 410.615 107.264C411.086 107.264 411.53 107.34 411.948 107.493C412.369 107.642 412.74 107.874 413.061 108.189C413.386 108.504 413.641 108.905 413.827 109.392C414.012 109.876 414.105 110.453 414.105 111.122V111.674H407.846V110.461H412.38C412.377 110.116 412.302 109.81 412.156 109.541C412.011 109.269 411.807 109.056 411.545 108.9C411.286 108.744 410.985 108.666 410.64 108.666C410.272 108.666 409.949 108.756 409.671 108.935C409.392 109.11 409.175 109.342 409.019 109.631C408.867 109.916 408.789 110.229 408.786 110.57V111.629C408.786 112.073 408.867 112.455 409.029 112.773C409.192 113.088 409.419 113.33 409.71 113.499C410.002 113.664 410.343 113.747 410.735 113.747C410.996 113.747 411.233 113.711 411.445 113.638C411.658 113.562 411.842 113.451 411.997 113.305C412.153 113.159 412.271 112.978 412.35 112.763L414.031 112.952C413.925 113.396 413.722 113.784 413.424 114.115C413.129 114.443 412.751 114.698 412.291 114.881C411.83 115.06 411.303 115.149 410.71 115.149ZM415.628 115V107.364H417.373V108.636H417.452C417.592 108.196 417.83 107.856 418.168 107.617C418.51 107.375 418.899 107.254 419.337 107.254C419.436 107.254 419.547 107.259 419.67 107.269C419.796 107.276 419.9 107.287 419.983 107.304V108.96C419.907 108.933 419.786 108.91 419.62 108.89C419.458 108.867 419.3 108.855 419.148 108.855C418.82 108.855 418.525 108.926 418.263 109.069C418.004 109.208 417.8 109.402 417.651 109.651C417.502 109.899 417.428 110.186 417.428 110.511V115H415.628ZM426.093 104.818L428.743 112.832H428.847L431.492 104.818H433.521L429.931 115H427.654L424.07 104.818H426.093ZM436.187 115.154C435.703 115.154 435.267 115.068 434.879 114.896C434.495 114.72 434.19 114.461 433.964 114.12C433.742 113.779 433.631 113.358 433.631 112.857C433.631 112.426 433.711 112.07 433.87 111.788C434.029 111.507 434.246 111.281 434.521 111.112C434.796 110.943 435.106 110.816 435.451 110.729C435.799 110.64 436.158 110.575 436.53 110.536C436.977 110.489 437.34 110.448 437.618 110.411C437.897 110.371 438.099 110.312 438.225 110.232C438.354 110.149 438.419 110.022 438.419 109.849V109.82C438.419 109.445 438.308 109.155 438.086 108.95C437.864 108.744 437.544 108.641 437.126 108.641C436.685 108.641 436.336 108.737 436.077 108.93C435.822 109.122 435.65 109.349 435.56 109.611L433.88 109.372C434.012 108.908 434.231 108.52 434.536 108.209C434.841 107.894 435.214 107.659 435.655 107.503C436.095 107.344 436.583 107.264 437.116 107.264C437.484 107.264 437.85 107.307 438.215 107.393C438.58 107.48 438.913 107.622 439.214 107.821C439.516 108.017 439.758 108.283 439.94 108.621C440.126 108.96 440.219 109.382 440.219 109.889V115H438.488V113.951H438.429C438.319 114.163 438.165 114.362 437.966 114.548C437.771 114.73 437.524 114.877 437.226 114.99C436.931 115.099 436.584 115.154 436.187 115.154ZM436.654 113.832C437.015 113.832 437.328 113.76 437.594 113.618C437.859 113.472 438.063 113.28 438.205 113.041C438.351 112.803 438.424 112.542 438.424 112.261V111.361C438.367 111.407 438.271 111.45 438.135 111.49C438.003 111.53 437.854 111.565 437.688 111.594C437.522 111.624 437.358 111.651 437.196 111.674C437.033 111.697 436.893 111.717 436.773 111.734C436.505 111.77 436.265 111.83 436.052 111.913C435.84 111.996 435.673 112.112 435.55 112.261C435.428 112.406 435.366 112.595 435.366 112.827C435.366 113.159 435.487 113.409 435.729 113.578C435.971 113.747 436.279 113.832 436.654 113.832ZM443.828 104.818V115H442.028V104.818H443.828ZM450.546 111.788V107.364H452.346V115H450.6V113.643H450.521C450.349 114.07 450.065 114.42 449.671 114.692C449.28 114.964 448.797 115.099 448.224 115.099C447.724 115.099 447.281 114.988 446.897 114.766C446.516 114.541 446.217 114.214 446.002 113.787C445.786 113.356 445.679 112.836 445.679 112.226V107.364H447.478V111.947C447.478 112.431 447.611 112.816 447.876 113.101C448.141 113.386 448.489 113.528 448.92 113.528C449.185 113.528 449.442 113.464 449.691 113.335C449.939 113.205 450.143 113.013 450.302 112.758C450.465 112.499 450.546 112.176 450.546 111.788ZM457.577 115.149C456.811 115.149 456.15 114.99 455.593 114.672C455.04 114.35 454.614 113.896 454.316 113.31C454.017 112.72 453.868 112.025 453.868 111.227C453.868 110.441 454.017 109.752 454.316 109.158C454.617 108.562 455.038 108.098 455.578 107.766C456.119 107.432 456.753 107.264 457.482 107.264C457.953 107.264 458.397 107.34 458.815 107.493C459.236 107.642 459.607 107.874 459.928 108.189C460.253 108.504 460.508 108.905 460.694 109.392C460.88 109.876 460.972 110.453 460.972 111.122V111.674H454.713V110.461H459.247C459.244 110.116 459.169 109.81 459.024 109.541C458.878 109.269 458.674 109.056 458.412 108.9C458.154 108.744 457.852 108.666 457.507 108.666C457.139 108.666 456.816 108.756 456.538 108.935C456.259 109.11 456.042 109.342 455.887 109.631C455.734 109.916 455.656 110.229 455.653 110.57V111.629C455.653 112.073 455.734 112.455 455.896 112.773C456.059 113.088 456.286 113.33 456.578 113.499C456.869 113.664 457.211 113.747 457.602 113.747C457.864 113.747 458.101 113.711 458.313 113.638C458.525 113.562 458.709 113.451 458.865 113.305C459.02 113.159 459.138 112.978 459.218 112.763L460.898 112.952C460.792 113.396 460.59 113.784 460.291 114.115C459.996 114.443 459.619 114.698 459.158 114.881C458.697 115.06 458.17 115.149 457.577 115.149Z" fill="#4B5563"/>
<path d="M646.004 115V104.818H647.849V113.454H652.333V115H646.004ZM657.185 115.149C656.44 115.149 655.793 114.985 655.246 114.657C654.7 114.329 654.275 113.87 653.974 113.28C653.675 112.69 653.526 112 653.526 111.212C653.526 110.423 653.675 109.732 653.974 109.138C654.275 108.545 654.7 108.085 655.246 107.756C655.793 107.428 656.44 107.264 657.185 107.264C657.931 107.264 658.577 107.428 659.124 107.756C659.671 108.085 660.094 108.545 660.392 109.138C660.694 109.732 660.844 110.423 660.844 111.212C660.844 112 660.694 112.69 660.392 113.28C660.094 113.87 659.671 114.329 659.124 114.657C658.577 114.985 657.931 115.149 657.185 115.149ZM657.195 113.707C657.6 113.707 657.938 113.596 658.21 113.374C658.481 113.149 658.683 112.847 658.816 112.469C658.952 112.092 659.02 111.671 659.02 111.207C659.02 110.739 658.952 110.317 658.816 109.939C658.683 109.558 658.481 109.254 658.21 109.029C657.938 108.804 657.6 108.691 657.195 108.691C656.781 108.691 656.436 108.804 656.161 109.029C655.889 109.254 655.686 109.558 655.55 109.939C655.417 110.317 655.351 110.739 655.351 111.207C655.351 111.671 655.417 112.092 655.55 112.469C655.686 112.847 655.889 113.149 656.161 113.374C656.436 113.596 656.781 113.707 657.195 113.707ZM663.729 115L661.572 107.364H663.406L664.748 112.733H664.818L666.19 107.364H668.005L669.377 112.703H669.452L670.774 107.364H672.613L670.451 115H668.577L667.145 109.839H667.04L665.608 115H663.729ZM677.032 115.149C676.266 115.149 675.605 114.99 675.048 114.672C674.495 114.35 674.069 113.896 673.771 113.31C673.472 112.72 673.323 112.025 673.323 111.227C673.323 110.441 673.472 109.752 673.771 109.158C674.072 108.562 674.493 108.098 675.033 107.766C675.574 107.432 676.208 107.264 676.938 107.264C677.408 107.264 677.852 107.34 678.27 107.493C678.691 107.642 679.062 107.874 679.384 108.189C679.708 108.504 679.964 108.905 680.149 109.392C680.335 109.876 680.428 110.453 680.428 111.122V111.674H674.168V110.461H678.702C678.699 110.116 678.625 109.81 678.479 109.541C678.333 109.269 678.129 109.056 677.867 108.9C677.609 108.744 677.307 108.666 676.962 108.666C676.594 108.666 676.271 108.756 675.993 108.935C675.714 109.11 675.497 109.342 675.342 109.631C675.189 109.916 675.111 110.229 675.108 110.57V111.629C675.108 112.073 675.189 112.455 675.352 112.773C675.514 113.088 675.741 113.33 676.033 113.499C676.324 113.664 676.666 113.747 677.057 113.747C677.319 113.747 677.556 113.711 677.768 113.638C677.98 113.562 678.164 113.451 678.32 113.305C678.475 113.159 678.593 112.978 678.673 112.763L680.353 112.952C680.247 113.396 680.045 113.784 679.746 114.115C679.451 114.443 679.074 114.698 678.613 114.881C678.152 115.06 677.625 115.149 677.032 115.149ZM681.95 115V107.364H683.695V108.636H683.775C683.914 108.196 684.153 107.856 684.491 107.617C684.832 107.375 685.221 107.254 685.659 107.254C685.758 107.254 685.869 107.259 685.992 107.269C686.118 107.276 686.222 107.287 686.305 107.304V108.96C686.229 108.933 686.108 108.91 685.942 108.89C685.78 108.867 685.622 108.855 685.47 108.855C685.142 108.855 684.847 108.926 684.585 109.069C684.327 109.208 684.123 109.402 683.974 109.651C683.824 109.899 683.75 110.186 683.75 110.511V115H681.95ZM692.415 104.818L695.065 112.832H695.17L697.814 104.818H699.843L696.253 115H693.976L690.392 104.818H692.415ZM702.509 115.154C702.025 115.154 701.589 115.068 701.201 114.896C700.817 114.72 700.512 114.461 700.287 114.12C700.065 113.779 699.953 113.358 699.953 112.857C699.953 112.426 700.033 112.07 700.192 111.788C700.351 111.507 700.568 111.281 700.843 111.112C701.118 110.943 701.428 110.816 701.773 110.729C702.121 110.64 702.481 110.575 702.852 110.536C703.299 110.489 703.662 110.448 703.941 110.411C704.219 110.371 704.421 110.312 704.547 110.232C704.676 110.149 704.741 110.022 704.741 109.849V109.82C704.741 109.445 704.63 109.155 704.408 108.95C704.186 108.744 703.866 108.641 703.449 108.641C703.008 108.641 702.658 108.737 702.4 108.93C702.144 109.122 701.972 109.349 701.882 109.611L700.202 109.372C700.335 108.908 700.553 108.52 700.858 108.209C701.163 107.894 701.536 107.659 701.977 107.503C702.418 107.344 702.905 107.264 703.439 107.264C703.806 107.264 704.173 107.307 704.537 107.393C704.902 107.48 705.235 107.622 705.537 107.821C705.838 108.017 706.08 108.283 706.262 108.621C706.448 108.96 706.541 109.382 706.541 109.889V115H704.811V113.951H704.751C704.642 114.163 704.488 114.362 704.289 114.548C704.093 114.73 703.846 114.877 703.548 114.99C703.253 115.099 702.907 115.154 702.509 115.154ZM702.976 113.832C703.337 113.832 703.651 113.76 703.916 113.618C704.181 113.472 704.385 113.28 704.527 113.041C704.673 112.803 704.746 112.542 704.746 112.261V111.361C704.69 111.407 704.594 111.45 704.458 111.49C704.325 111.53 704.176 111.565 704.01 111.594C703.845 111.624 703.681 111.651 703.518 111.674C703.356 111.697 703.215 111.717 703.096 111.734C702.827 111.77 702.587 111.83 702.375 111.913C702.163 111.996 701.995 112.112 701.873 112.261C701.75 112.406 701.689 112.595 701.689 112.827C701.689 113.159 701.81 113.409 702.051 113.578C702.293 113.747 702.602 113.832 702.976 113.832ZM710.15 104.818V115H708.35V104.818H710.15ZM716.868 111.788V107.364H718.668V115H716.923V113.643H716.843C716.671 114.07 716.387 114.42 715.993 114.692C715.602 114.964 715.12 115.099 714.546 115.099C714.046 115.099 713.603 114.988 713.219 114.766C712.838 114.541 712.539 114.214 712.324 113.787C712.109 113.356 712.001 112.836 712.001 112.226V107.364H713.801V111.947C713.801 112.431 713.933 112.816 714.198 113.101C714.463 113.386 714.811 113.528 715.242 113.528C715.508 113.528 715.764 113.464 716.013 113.335C716.262 113.205 716.465 113.013 716.624 112.758C716.787 112.499 716.868 112.176 716.868 111.788ZM723.899 115.149C723.134 115.149 722.472 114.99 721.915 114.672C721.362 114.35 720.936 113.896 720.638 113.31C720.339 112.72 720.19 112.025 720.19 111.227C720.19 110.441 720.339 109.752 720.638 109.158C720.939 108.562 721.36 108.098 721.901 107.766C722.441 107.432 723.076 107.264 723.805 107.264C724.275 107.264 724.719 107.34 725.137 107.493C725.558 107.642 725.929 107.874 726.251 108.189C726.576 108.504 726.831 108.905 727.016 109.392C727.202 109.876 727.295 110.453 727.295 111.122V111.674H721.036V110.461H725.57C725.566 110.116 725.492 109.81 725.346 109.541C725.2 109.269 724.996 109.056 724.734 108.9C724.476 108.744 724.174 108.666 723.83 108.666C723.462 108.666 723.138 108.756 722.86 108.935C722.582 109.11 722.365 109.342 722.209 109.631C722.056 109.916 721.978 110.229 721.975 110.57V111.629C721.975 112.073 722.056 112.455 722.219 112.773C722.381 113.088 722.608 113.33 722.9 113.499C723.192 113.664 723.533 113.747 723.924 113.747C724.186 113.747 724.423 113.711 724.635 113.638C724.847 113.562 725.031 113.451 725.187 113.305C725.343 113.159 725.46 112.978 725.54 112.763L727.22 112.952C727.114 113.396 726.912 113.784 726.614 114.115C726.319 114.443 725.941 114.698 725.48 114.881C725.019 115.06 724.492 115.149 723.899 115.149Z" fill="#4B5563"/>
<path d="M21.2784 170V158.364H23.0341V163.42H28.8352V158.364H30.5966V170H28.8352V164.926H23.0341V170H21.2784ZM36.7784 170.176C35.9186 170.176 35.178 169.992 34.5568 169.625C33.9394 169.254 33.4621 168.733 33.125 168.062C32.7917 167.388 32.625 166.598 32.625 165.693C32.625 164.799 32.7917 164.011 33.125 163.33C33.4621 162.648 33.9318 162.116 34.5341 161.733C35.1402 161.35 35.8485 161.159 36.6591 161.159C37.1515 161.159 37.6288 161.241 38.0909 161.403C38.553 161.566 38.9678 161.822 39.3352 162.17C39.7027 162.519 39.9924 162.972 40.2045 163.528C40.4167 164.081 40.5227 164.754 40.5227 165.545V166.148H33.5852V164.875H38.858C38.858 164.428 38.767 164.032 38.5852 163.688C38.4034 163.339 38.1477 163.064 37.8182 162.864C37.4924 162.663 37.1098 162.562 36.6705 162.562C36.1932 162.562 35.7765 162.68 35.4205 162.915C35.0682 163.146 34.7955 163.449 34.6023 163.824C34.4129 164.195 34.3182 164.598 34.3182 165.034V166.028C34.3182 166.612 34.4205 167.108 34.625 167.517C34.8333 167.926 35.1231 168.239 35.4943 168.455C35.8655 168.667 36.2992 168.773 36.7955 168.773C37.1174 168.773 37.411 168.727 37.6761 168.636C37.9413 168.542 38.1705 168.402 38.3636 168.216C38.5568 168.03 38.7045 167.801 38.8068 167.528L40.4148 167.818C40.286 168.292 40.0549 168.706 39.7216 169.062C39.392 169.415 38.9773 169.689 38.4773 169.886C37.9811 170.08 37.4148 170.176 36.7784 170.176ZM44.9474 170.193C44.3944 170.193 43.8944 170.091 43.4474 169.886C43.0005 169.678 42.6463 169.377 42.3849 168.983C42.1274 168.589 41.9986 168.106 41.9986 167.534C41.9986 167.042 42.0933 166.636 42.2827 166.318C42.4721 166 42.7277 165.748 43.0497 165.562C43.3717 165.377 43.7315 165.237 44.1293 165.142C44.527 165.047 44.9323 164.975 45.3452 164.926C45.8679 164.866 46.2921 164.816 46.6179 164.778C46.9437 164.737 47.1804 164.67 47.3281 164.58C47.4759 164.489 47.5497 164.341 47.5497 164.136V164.097C47.5497 163.6 47.4096 163.216 47.1293 162.943C46.8527 162.67 46.4399 162.534 45.8906 162.534C45.3187 162.534 44.8679 162.661 44.5384 162.915C44.2126 163.165 43.9872 163.443 43.8622 163.75L42.2656 163.386C42.455 162.856 42.7315 162.428 43.0952 162.102C43.4626 161.773 43.8849 161.534 44.3622 161.386C44.8395 161.235 45.3414 161.159 45.8679 161.159C46.2164 161.159 46.5857 161.201 46.9759 161.284C47.3698 161.364 47.7372 161.511 48.0781 161.727C48.4228 161.943 48.705 162.252 48.9247 162.653C49.1444 163.051 49.2543 163.568 49.2543 164.205V170H47.5952V168.807H47.527C47.4171 169.027 47.2524 169.242 47.0327 169.455C46.813 169.667 46.5308 169.843 46.1861 169.983C45.8414 170.123 45.4285 170.193 44.9474 170.193ZM45.3168 168.83C45.7865 168.83 46.188 168.737 46.5213 168.551C46.8584 168.366 47.1141 168.123 47.2884 167.824C47.4664 167.521 47.5554 167.197 47.5554 166.852V165.727C47.4948 165.788 47.3774 165.845 47.2031 165.898C47.0327 165.947 46.8376 165.991 46.6179 166.028C46.3982 166.062 46.1842 166.095 45.9759 166.125C45.7675 166.152 45.5933 166.174 45.4531 166.193C45.1236 166.235 44.8224 166.305 44.5497 166.403C44.2808 166.502 44.0649 166.644 43.902 166.83C43.7429 167.011 43.6634 167.254 43.6634 167.557C43.6634 167.977 43.8187 168.295 44.1293 168.511C44.4399 168.723 44.8357 168.83 45.3168 168.83ZM51.517 170V161.273H53.1591V162.659H53.25C53.4091 162.189 53.6894 161.82 54.0909 161.551C54.4962 161.278 54.9545 161.142 55.4659 161.142C55.572 161.142 55.697 161.146 55.8409 161.153C55.9886 161.161 56.1042 161.17 56.1875 161.182V162.807C56.1193 162.788 55.9981 162.767 55.8239 162.744C55.6496 162.718 55.4754 162.705 55.3011 162.705C54.8996 162.705 54.5417 162.79 54.2273 162.96C53.9167 163.127 53.6705 163.36 53.4886 163.659C53.3068 163.955 53.2159 164.292 53.2159 164.67V170H51.517ZM62.2472 161.273V162.636H57.4801V161.273H62.2472ZM58.7585 159.182H60.4574V167.438C60.4574 167.767 60.5066 168.015 60.6051 168.182C60.7036 168.345 60.8305 168.456 60.9858 168.517C61.1449 168.574 61.3172 168.602 61.5028 168.602C61.6392 168.602 61.7585 168.593 61.8608 168.574C61.9631 168.555 62.0426 168.54 62.0994 168.528L62.4062 169.932C62.3078 169.97 62.1676 170.008 61.9858 170.045C61.804 170.087 61.5767 170.11 61.304 170.114C60.857 170.121 60.4403 170.042 60.054 169.875C59.6676 169.708 59.3551 169.451 59.1165 169.102C58.8778 168.754 58.7585 168.316 58.7585 167.79V159.182ZM68.4972 170V158.364H72.6449C73.5464 158.364 74.2945 158.519 74.8892 158.83C75.4877 159.14 75.9347 159.57 76.2301 160.119C76.5256 160.665 76.6733 161.295 76.6733 162.011C76.6733 162.723 76.5237 163.35 76.2244 163.892C75.929 164.43 75.482 164.848 74.8835 165.148C74.2888 165.447 73.5407 165.597 72.6392 165.597H69.4972V164.085H72.4801C73.0483 164.085 73.5104 164.004 73.8665 163.841C74.2263 163.678 74.4896 163.441 74.6562 163.131C74.8229 162.82 74.9062 162.447 74.9062 162.011C74.9062 161.572 74.821 161.191 74.6506 160.869C74.4839 160.547 74.2206 160.301 73.8608 160.131C73.5047 159.956 73.0369 159.869 72.4574 159.869H70.2528V170H68.4972ZM74.2415 164.75L77.1165 170H75.1165L72.2983 164.75H74.2415ZM81.2131 170.193C80.66 170.193 80.16 170.091 79.7131 169.886C79.2661 169.678 78.9119 169.377 78.6506 168.983C78.393 168.589 78.2642 168.106 78.2642 167.534C78.2642 167.042 78.3589 166.636 78.5483 166.318C78.7377 166 78.9934 165.748 79.3153 165.562C79.6373 165.377 79.9972 165.237 80.3949 165.142C80.7926 165.047 81.1979 164.975 81.6108 164.926C82.1335 164.866 82.5578 164.816 82.8835 164.778C83.2093 164.737 83.446 164.67 83.5938 164.58C83.7415 164.489 83.8153 164.341 83.8153 164.136V164.097C83.8153 163.6 83.6752 163.216 83.3949 162.943C83.1184 162.67 82.7055 162.534 82.1562 162.534C81.5843 162.534 81.1335 162.661 80.804 162.915C80.4782 163.165 80.2528 163.443 80.1278 163.75L78.5312 163.386C78.7206 162.856 78.9972 162.428 79.3608 162.102C79.7282 161.773 80.1506 161.534 80.6278 161.386C81.1051 161.235 81.607 161.159 82.1335 161.159C82.482 161.159 82.8513 161.201 83.2415 161.284C83.6354 161.364 84.0028 161.511 84.3438 161.727C84.6884 161.943 84.9706 162.252 85.1903 162.653C85.41 163.051 85.5199 163.568 85.5199 164.205V170H83.8608V168.807H83.7926C83.6828 169.027 83.518 169.242 83.2983 169.455C83.0786 169.667 82.7964 169.843 82.4517 169.983C82.107 170.123 81.6941 170.193 81.2131 170.193ZM81.5824 168.83C82.0521 168.83 82.4536 168.737 82.7869 168.551C83.1241 168.366 83.3797 168.123 83.554 167.824C83.732 167.521 83.821 167.197 83.821 166.852V165.727C83.7604 165.788 83.643 165.845 83.4688 165.898C83.2983 165.947 83.1032 165.991 82.8835 166.028C82.6638 166.062 82.4498 166.095 82.2415 166.125C82.0331 166.152 81.8589 166.174 81.7188 166.193C81.3892 166.235 81.0881 166.305 80.8153 166.403C80.5464 166.502 80.3305 166.644 80.1676 166.83C80.0085 167.011 79.929 167.254 79.929 167.557C79.929 167.977 80.0843 168.295 80.3949 168.511C80.7055 168.723 81.1013 168.83 81.5824 168.83ZM91.8565 161.273V162.636H87.0895V161.273H91.8565ZM88.3679 159.182H90.0668V167.438C90.0668 167.767 90.116 168.015 90.2145 168.182C90.313 168.345 90.4399 168.456 90.5952 168.517C90.7543 168.574 90.9266 168.602 91.1122 168.602C91.2486 168.602 91.3679 168.593 91.4702 168.574C91.5724 168.555 91.652 168.54 91.7088 168.528L92.0156 169.932C91.9171 169.97 91.777 170.008 91.5952 170.045C91.4134 170.087 91.1861 170.11 90.9134 170.114C90.4664 170.121 90.0497 170.042 89.6634 169.875C89.277 169.708 88.9645 169.451 88.7259 169.102C88.4872 168.754 88.3679 168.316 88.3679 167.79V159.182ZM97.4034 170.176C96.5436 170.176 95.803 169.992 95.1818 169.625C94.5644 169.254 94.0871 168.733 93.75 168.062C93.4167 167.388 93.25 166.598 93.25 165.693C93.25 164.799 93.4167 164.011 93.75 163.33C94.0871 162.648 94.5568 162.116 95.1591 161.733C95.7652 161.35 96.4735 161.159 97.2841 161.159C97.7765 161.159 98.2538 161.241 98.7159 161.403C99.178 161.566 99.5928 161.822 99.9602 162.17C100.328 162.519 100.617 162.972 100.83 163.528C101.042 164.081 101.148 164.754 101.148 165.545V166.148H94.2102V164.875H99.483C99.483 164.428 99.392 164.032 99.2102 163.688C99.0284 163.339 98.7727 163.064 98.4432 162.864C98.1174 162.663 97.7348 162.562 97.2955 162.562C96.8182 162.562 96.4015 162.68 96.0455 162.915C95.6932 163.146 95.4205 163.449 95.2273 163.824C95.0379 164.195 94.9432 164.598 94.9432 165.034V166.028C94.9432 166.612 95.0455 167.108 95.25 167.517C95.4583 167.926 95.7481 168.239 96.1193 168.455C96.4905 168.667 96.9242 168.773 97.4205 168.773C97.7424 168.773 98.036 168.727 98.3011 168.636C98.5663 168.542 98.7955 168.402 98.9886 168.216C99.1818 168.03 99.3295 167.801 99.4318 167.528L101.04 167.818C100.911 168.292 100.68 168.706 100.347 169.062C100.017 169.415 99.6023 169.689 99.1023 169.886C98.6061 170.08 98.0398 170.176 97.4034 170.176Z" fill="#111928"/>
<path d="M21.2784 235V223.364H25.5398C26.3655 223.364 27.0492 223.5 27.5909 223.773C28.1326 224.042 28.5379 224.407 28.8068 224.869C29.0758 225.328 29.2102 225.845 29.2102 226.42C29.2102 226.905 29.1212 227.314 28.9432 227.648C28.7652 227.977 28.5265 228.242 28.2273 228.443C27.9318 228.64 27.6061 228.784 27.25 228.875V228.989C27.6364 229.008 28.0133 229.133 28.3807 229.364C28.7519 229.591 29.0587 229.915 29.3011 230.335C29.5436 230.756 29.6648 231.267 29.6648 231.869C29.6648 232.464 29.5246 232.998 29.2443 233.472C28.9678 233.941 28.5398 234.314 27.9602 234.591C27.3807 234.864 26.6402 235 25.7386 235H21.2784ZM23.0341 233.494H25.5682C26.4091 233.494 27.0114 233.331 27.375 233.006C27.7386 232.68 27.9205 232.273 27.9205 231.784C27.9205 231.417 27.8277 231.08 27.642 230.773C27.4564 230.466 27.1913 230.222 26.8466 230.04C26.5057 229.858 26.1004 229.767 25.6307 229.767H23.0341V233.494ZM23.0341 228.398H25.3864C25.7803 228.398 26.1345 228.322 26.4489 228.17C26.767 228.019 27.0189 227.807 27.2045 227.534C27.3939 227.258 27.4886 226.932 27.4886 226.557C27.4886 226.076 27.3201 225.672 26.983 225.347C26.6458 225.021 26.1288 224.858 25.4318 224.858H23.0341V228.398ZM33.3097 223.364V235H31.6108V223.364H33.3097ZM39.2713 235.176C38.4531 235.176 37.7391 234.989 37.1293 234.614C36.5194 234.239 36.0459 233.714 35.7088 233.04C35.3717 232.366 35.2031 231.578 35.2031 230.676C35.2031 229.771 35.3717 228.979 35.7088 228.301C36.0459 227.623 36.5194 227.097 37.1293 226.722C37.7391 226.347 38.4531 226.159 39.2713 226.159C40.0895 226.159 40.8035 226.347 41.4134 226.722C42.0232 227.097 42.4967 227.623 42.8338 228.301C43.1709 228.979 43.3395 229.771 43.3395 230.676C43.3395 231.578 43.1709 232.366 42.8338 233.04C42.4967 233.714 42.0232 234.239 41.4134 234.614C40.8035 234.989 40.0895 235.176 39.2713 235.176ZM39.277 233.75C39.8073 233.75 40.2467 233.61 40.5952 233.33C40.9437 233.049 41.2012 232.676 41.3679 232.21C41.5384 231.744 41.6236 231.231 41.6236 230.67C41.6236 230.114 41.5384 229.602 41.3679 229.136C41.2012 228.667 40.9437 228.29 40.5952 228.006C40.2467 227.722 39.8073 227.58 39.277 227.58C38.7429 227.58 38.2997 227.722 37.9474 228.006C37.599 228.29 37.3395 228.667 37.169 229.136C37.0024 229.602 36.919 230.114 36.919 230.67C36.919 231.231 37.0024 231.744 37.169 232.21C37.3395 232.676 37.599 233.049 37.9474 233.33C38.2997 233.61 38.7429 233.75 39.277 233.75ZM48.9119 235.176C48.0938 235.176 47.3797 234.989 46.7699 234.614C46.16 234.239 45.6866 233.714 45.3494 233.04C45.0123 232.366 44.8438 231.578 44.8438 230.676C44.8438 229.771 45.0123 228.979 45.3494 228.301C45.6866 227.623 46.16 227.097 46.7699 226.722C47.3797 226.347 48.0938 226.159 48.9119 226.159C49.7301 226.159 50.4441 226.347 51.054 226.722C51.6638 227.097 52.1373 227.623 52.4744 228.301C52.8116 228.979 52.9801 229.771 52.9801 230.676C52.9801 231.578 52.8116 232.366 52.4744 233.04C52.1373 233.714 51.6638 234.239 51.054 234.614C50.4441 234.989 49.7301 235.176 48.9119 235.176ZM48.9176 233.75C49.4479 233.75 49.8873 233.61 50.2358 233.33C50.5843 233.049 50.8419 232.676 51.0085 232.21C51.179 231.744 51.2642 231.231 51.2642 230.67C51.2642 230.114 51.179 229.602 51.0085 229.136C50.8419 228.667 50.5843 228.29 50.2358 228.006C49.8873 227.722 49.4479 227.58 48.9176 227.58C48.3835 227.58 47.9403 227.722 47.5881 228.006C47.2396 228.29 46.9801 228.667 46.8097 229.136C46.643 229.602 46.5597 230.114 46.5597 230.67C46.5597 231.231 46.643 231.744 46.8097 232.21C46.9801 232.676 47.2396 233.049 47.5881 233.33C47.9403 233.61 48.3835 233.75 48.9176 233.75ZM58.1435 235.17C57.4389 235.17 56.8101 234.991 56.2571 234.631C55.7079 234.267 55.276 233.75 54.9616 233.08C54.651 232.405 54.4957 231.597 54.4957 230.653C54.4957 229.71 54.6529 228.903 54.9673 228.233C55.2855 227.562 55.7211 227.049 56.2741 226.693C56.8272 226.337 57.4541 226.159 58.1548 226.159C58.6965 226.159 59.1321 226.25 59.4616 226.432C59.795 226.61 60.0526 226.818 60.2344 227.057C60.42 227.295 60.5639 227.506 60.6662 227.688H60.7685V223.364H62.4673V235H60.8082V233.642H60.6662C60.5639 233.828 60.4162 234.04 60.223 234.278C60.0336 234.517 59.7723 234.725 59.4389 234.903C59.1056 235.081 58.6738 235.17 58.1435 235.17ZM58.5185 233.722C59.0071 233.722 59.42 233.593 59.7571 233.335C60.098 233.074 60.3556 232.712 60.5298 232.25C60.7079 231.788 60.7969 231.25 60.7969 230.636C60.7969 230.03 60.7098 229.5 60.5355 229.045C60.3613 228.591 60.1056 228.237 59.7685 227.983C59.4313 227.729 59.0147 227.602 58.5185 227.602C58.0071 227.602 57.581 227.735 57.2401 228C56.8991 228.265 56.6416 228.627 56.4673 229.085C56.2969 229.544 56.2116 230.061 56.2116 230.636C56.2116 231.22 56.2988 231.744 56.473 232.21C56.6473 232.676 56.9048 233.045 57.2457 233.318C57.5904 233.587 58.0147 233.722 58.5185 233.722ZM69.2628 235V223.364H73.4105C74.3158 223.364 75.0658 223.528 75.6605 223.858C76.2552 224.187 76.7003 224.638 76.9957 225.21C77.2912 225.778 77.4389 226.419 77.4389 227.131C77.4389 227.847 77.2893 228.491 76.9901 229.062C76.6946 229.631 76.2476 230.081 75.6491 230.415C75.0545 230.744 74.3063 230.909 73.4048 230.909H70.5526V229.42H73.2457C73.8177 229.42 74.2817 229.322 74.6378 229.125C74.9938 228.924 75.2552 228.652 75.4219 228.307C75.5885 227.962 75.6719 227.57 75.6719 227.131C75.6719 226.691 75.5885 226.301 75.4219 225.96C75.2552 225.619 74.992 225.352 74.6321 225.159C74.276 224.966 73.8063 224.869 73.223 224.869H71.0185V235H69.2628ZM79.3608 235V226.273H81.0028V227.659H81.0938C81.2528 227.189 81.5331 226.82 81.9347 226.551C82.34 226.278 82.7983 226.142 83.3097 226.142C83.4157 226.142 83.5407 226.146 83.6847 226.153C83.8324 226.161 83.9479 226.17 84.0312 226.182V227.807C83.9631 227.788 83.8419 227.767 83.6676 227.744C83.4934 227.718 83.3191 227.705 83.1449 227.705C82.7434 227.705 82.3854 227.79 82.071 227.96C81.7604 228.127 81.5142 228.36 81.3324 228.659C81.1506 228.955 81.0597 229.292 81.0597 229.67V235H79.3608ZM88.9503 235.176C88.0904 235.176 87.3499 234.992 86.7287 234.625C86.1113 234.254 85.634 233.733 85.2969 233.062C84.9635 232.388 84.7969 231.598 84.7969 230.693C84.7969 229.799 84.9635 229.011 85.2969 228.33C85.634 227.648 86.1037 227.116 86.706 226.733C87.312 226.35 88.0204 226.159 88.831 226.159C89.3234 226.159 89.8007 226.241 90.2628 226.403C90.7249 226.566 91.1397 226.822 91.5071 227.17C91.8745 227.519 92.1643 227.972 92.3764 228.528C92.5885 229.081 92.6946 229.754 92.6946 230.545V231.148H85.7571V229.875H91.0298C91.0298 229.428 90.9389 229.032 90.7571 228.688C90.5753 228.339 90.3196 228.064 89.9901 227.864C89.6643 227.663 89.2817 227.562 88.8423 227.562C88.3651 227.562 87.9484 227.68 87.5923 227.915C87.2401 228.146 86.9673 228.449 86.7741 228.824C86.5848 229.195 86.4901 229.598 86.4901 230.034V231.028C86.4901 231.612 86.5923 232.108 86.7969 232.517C87.0052 232.926 87.295 233.239 87.6662 233.455C88.0374 233.667 88.4711 233.773 88.9673 233.773C89.2893 233.773 89.5829 233.727 89.848 233.636C90.1132 233.542 90.3423 233.402 90.5355 233.216C90.7287 233.03 90.8764 232.801 90.9787 232.528L92.5866 232.818C92.4579 233.292 92.2268 233.706 91.8935 234.062C91.5639 234.415 91.1491 234.689 90.6491 234.886C90.1529 235.08 89.5866 235.176 88.9503 235.176ZM101.119 228.403L99.5795 228.676C99.5152 228.479 99.4129 228.292 99.2727 228.114C99.1364 227.936 98.9508 227.79 98.7159 227.676C98.4811 227.562 98.1875 227.506 97.8352 227.506C97.3542 227.506 96.9527 227.614 96.6307 227.83C96.3087 228.042 96.1477 228.316 96.1477 228.653C96.1477 228.945 96.2557 229.18 96.4716 229.358C96.6875 229.536 97.036 229.682 97.517 229.795L98.9034 230.114C99.7064 230.299 100.305 230.585 100.699 230.972C101.093 231.358 101.29 231.86 101.29 232.477C101.29 233 101.138 233.466 100.835 233.875C100.536 234.28 100.117 234.598 99.5795 234.83C99.0455 235.061 98.4261 235.176 97.7216 235.176C96.7443 235.176 95.947 234.968 95.3295 234.551C94.7121 234.131 94.3333 233.534 94.1932 232.761L95.8352 232.511C95.9375 232.939 96.1477 233.263 96.4659 233.483C96.7841 233.699 97.1989 233.807 97.7102 233.807C98.267 233.807 98.7121 233.691 99.0455 233.46C99.3788 233.225 99.5455 232.939 99.5455 232.602C99.5455 232.33 99.4432 232.1 99.2386 231.915C99.0379 231.729 98.7292 231.589 98.3125 231.494L96.8352 231.17C96.0208 230.985 95.4186 230.689 95.0284 230.284C94.642 229.879 94.4489 229.366 94.4489 228.744C94.4489 228.229 94.5928 227.778 94.8807 227.392C95.1686 227.006 95.5663 226.705 96.0739 226.489C96.5814 226.269 97.1629 226.159 97.8182 226.159C98.7614 226.159 99.5038 226.364 100.045 226.773C100.587 227.178 100.945 227.722 101.119 228.403ZM109.697 228.403L108.158 228.676C108.093 228.479 107.991 228.292 107.851 228.114C107.714 227.936 107.529 227.79 107.294 227.676C107.059 227.562 106.766 227.506 106.413 227.506C105.932 227.506 105.531 227.614 105.209 227.83C104.887 228.042 104.726 228.316 104.726 228.653C104.726 228.945 104.834 229.18 105.05 229.358C105.266 229.536 105.614 229.682 106.095 229.795L107.482 230.114C108.285 230.299 108.883 230.585 109.277 230.972C109.671 231.358 109.868 231.86 109.868 232.477C109.868 233 109.716 233.466 109.413 233.875C109.114 234.28 108.696 234.598 108.158 234.83C107.624 235.061 107.004 235.176 106.3 235.176C105.322 235.176 104.525 234.968 103.908 234.551C103.29 234.131 102.911 233.534 102.771 232.761L104.413 232.511C104.516 232.939 104.726 233.263 105.044 233.483C105.362 233.699 105.777 233.807 106.288 233.807C106.845 233.807 107.29 233.691 107.624 233.46C107.957 233.225 108.124 232.939 108.124 232.602C108.124 232.33 108.021 232.1 107.817 231.915C107.616 231.729 107.307 231.589 106.891 231.494L105.413 231.17C104.599 230.985 103.997 230.689 103.607 230.284C103.22 229.879 103.027 229.366 103.027 228.744C103.027 228.229 103.171 227.778 103.459 227.392C103.747 227.006 104.144 226.705 104.652 226.489C105.16 226.269 105.741 226.159 106.396 226.159C107.339 226.159 108.082 226.364 108.624 226.773C109.165 227.178 109.523 227.722 109.697 228.403ZM117.264 231.381V226.273H118.969V235H117.298V233.489H117.207C117.007 233.955 116.685 234.343 116.241 234.653C115.802 234.96 115.255 235.114 114.599 235.114C114.039 235.114 113.543 234.991 113.111 234.744C112.683 234.494 112.346 234.125 112.099 233.636C111.857 233.148 111.736 232.544 111.736 231.824V226.273H113.435V231.619C113.435 232.214 113.599 232.687 113.929 233.04C114.259 233.392 114.687 233.568 115.213 233.568C115.531 233.568 115.848 233.489 116.162 233.33C116.48 233.17 116.743 232.93 116.952 232.608C117.164 232.286 117.268 231.877 117.264 231.381ZM121.251 235V226.273H122.893V227.659H122.984C123.143 227.189 123.424 226.82 123.825 226.551C124.231 226.278 124.689 226.142 125.2 226.142C125.306 226.142 125.431 226.146 125.575 226.153C125.723 226.161 125.839 226.17 125.922 226.182V227.807C125.854 227.788 125.732 227.767 125.558 227.744C125.384 227.718 125.21 227.705 125.036 227.705C124.634 227.705 124.276 227.79 123.962 227.96C123.651 228.127 123.405 228.36 123.223 228.659C123.041 228.955 122.95 229.292 122.95 229.67V235H121.251ZM130.841 235.176C129.981 235.176 129.241 234.992 128.619 234.625C128.002 234.254 127.525 233.733 127.188 233.062C126.854 232.388 126.688 231.598 126.688 230.693C126.688 229.799 126.854 229.011 127.188 228.33C127.525 227.648 127.994 227.116 128.597 226.733C129.203 226.35 129.911 226.159 130.722 226.159C131.214 226.159 131.691 226.241 132.153 226.403C132.616 226.566 133.03 226.822 133.398 227.17C133.765 227.519 134.055 227.972 134.267 228.528C134.479 229.081 134.585 229.754 134.585 230.545V231.148H127.648V229.875H132.92C132.92 229.428 132.83 229.032 132.648 228.688C132.466 228.339 132.21 228.064 131.881 227.864C131.555 227.663 131.172 227.562 130.733 227.562C130.256 227.562 129.839 227.68 129.483 227.915C129.131 228.146 128.858 228.449 128.665 228.824C128.475 229.195 128.381 229.598 128.381 230.034V231.028C128.381 231.612 128.483 232.108 128.688 232.517C128.896 232.926 129.186 233.239 129.557 233.455C129.928 233.667 130.362 233.773 130.858 233.773C131.18 233.773 131.473 233.727 131.739 233.636C132.004 233.542 132.233 233.402 132.426 233.216C132.619 233.03 132.767 232.801 132.869 232.528L134.477 232.818C134.348 233.292 134.117 233.706 133.784 234.062C133.455 234.415 133.04 234.689 132.54 234.886C132.044 235.08 131.477 235.176 130.841 235.176Z" fill="#111928"/>
<path d="M379.534 158.364V170H377.773V160.125H377.705L374.92 161.943V160.261L377.824 158.364H379.534ZM382.682 170V168.727L386.619 164.648C387.04 164.205 387.386 163.816 387.659 163.483C387.936 163.146 388.142 162.826 388.278 162.523C388.415 162.22 388.483 161.898 388.483 161.557C388.483 161.17 388.392 160.837 388.21 160.557C388.028 160.273 387.78 160.055 387.466 159.903C387.152 159.748 386.797 159.67 386.403 159.67C385.987 159.67 385.623 159.756 385.312 159.926C385.002 160.097 384.763 160.337 384.597 160.648C384.43 160.958 384.347 161.322 384.347 161.739H382.67C382.67 161.03 382.833 160.411 383.159 159.881C383.485 159.35 383.932 158.939 384.5 158.648C385.068 158.352 385.714 158.205 386.438 158.205C387.169 158.205 387.813 158.35 388.369 158.642C388.93 158.93 389.367 159.324 389.682 159.824C389.996 160.32 390.153 160.881 390.153 161.506C390.153 161.938 390.072 162.36 389.909 162.773C389.75 163.186 389.472 163.646 389.074 164.153C388.676 164.657 388.123 165.269 387.415 165.989L385.102 168.409V168.494H390.341V170H382.682ZM396.545 170.193C395.648 170.189 394.881 169.953 394.244 169.483C393.608 169.013 393.121 168.33 392.784 167.432C392.447 166.534 392.278 165.453 392.278 164.188C392.278 162.926 392.447 161.848 392.784 160.955C393.125 160.061 393.614 159.379 394.25 158.909C394.89 158.439 395.655 158.205 396.545 158.205C397.436 158.205 398.199 158.441 398.835 158.915C399.472 159.384 399.958 160.066 400.295 160.96C400.636 161.85 400.807 162.926 400.807 164.188C400.807 165.456 400.638 166.54 400.301 167.438C399.964 168.331 399.477 169.015 398.841 169.489C398.205 169.958 397.439 170.193 396.545 170.193ZM396.545 168.676C397.333 168.676 397.949 168.292 398.392 167.523C398.839 166.754 399.062 165.642 399.062 164.188C399.062 163.222 398.96 162.405 398.756 161.739C398.555 161.068 398.265 160.561 397.886 160.216C397.511 159.867 397.064 159.693 396.545 159.693C395.761 159.693 395.146 160.08 394.699 160.852C394.252 161.625 394.027 162.737 394.023 164.188C394.023 165.157 394.123 165.977 394.324 166.648C394.528 167.314 394.818 167.82 395.193 168.165C395.568 168.506 396.019 168.676 396.545 168.676Z" fill="#111928"/>
<path d="M650.182 170.159C649.663 170.152 649.152 170.057 648.648 169.875C648.148 169.693 647.693 169.39 647.284 168.966C646.875 168.542 646.547 167.972 646.301 167.256C646.059 166.54 645.938 165.646 645.938 164.574C645.938 163.559 646.038 162.657 646.239 161.869C646.443 161.081 646.737 160.417 647.119 159.875C647.502 159.33 647.964 158.915 648.506 158.631C649.047 158.347 649.655 158.205 650.33 158.205C651.023 158.205 651.638 158.341 652.176 158.614C652.714 158.886 653.15 159.263 653.483 159.744C653.82 160.225 654.034 160.773 654.125 161.386H652.392C652.275 160.902 652.042 160.506 651.693 160.199C651.345 159.892 650.89 159.739 650.33 159.739C649.477 159.739 648.813 160.11 648.335 160.852C647.862 161.595 647.623 162.627 647.619 163.949H647.705C647.905 163.619 648.152 163.339 648.443 163.108C648.739 162.873 649.068 162.693 649.432 162.568C649.799 162.439 650.186 162.375 650.591 162.375C651.265 162.375 651.875 162.54 652.42 162.869C652.97 163.195 653.407 163.646 653.733 164.222C654.059 164.797 654.222 165.456 654.222 166.199C654.222 166.941 654.053 167.614 653.716 168.216C653.383 168.818 652.913 169.295 652.307 169.648C651.701 169.996 650.992 170.167 650.182 170.159ZM650.176 168.682C650.623 168.682 651.023 168.572 651.375 168.352C651.727 168.133 652.006 167.837 652.21 167.466C652.415 167.095 652.517 166.68 652.517 166.222C652.517 165.775 652.417 165.367 652.216 165C652.019 164.633 651.746 164.341 651.398 164.125C651.053 163.909 650.659 163.801 650.216 163.801C649.879 163.801 649.566 163.866 649.278 163.994C648.994 164.123 648.744 164.301 648.528 164.528C648.313 164.756 648.142 165.017 648.017 165.312C647.896 165.604 647.835 165.913 647.835 166.239C647.835 166.674 647.936 167.078 648.136 167.449C648.341 167.82 648.619 168.119 648.972 168.347C649.328 168.57 649.729 168.682 650.176 168.682ZM660.342 170.193C659.445 170.189 658.678 169.953 658.041 169.483C657.405 169.013 656.918 168.33 656.581 167.432C656.244 166.534 656.075 165.453 656.075 164.188C656.075 162.926 656.244 161.848 656.581 160.955C656.922 160.061 657.411 159.379 658.047 158.909C658.687 158.439 659.452 158.205 660.342 158.205C661.232 158.205 661.996 158.441 662.632 158.915C663.268 159.384 663.755 160.066 664.092 160.96C664.433 161.85 664.604 162.926 664.604 164.188C664.604 165.456 664.435 166.54 664.098 167.438C663.761 168.331 663.274 169.015 662.638 169.489C662.001 169.958 661.236 170.193 660.342 170.193ZM660.342 168.676C661.13 168.676 661.746 168.292 662.189 167.523C662.636 166.754 662.859 165.642 662.859 164.188C662.859 163.222 662.757 162.405 662.553 161.739C662.352 161.068 662.062 160.561 661.683 160.216C661.308 159.867 660.861 159.693 660.342 159.693C659.558 159.693 658.943 160.08 658.496 160.852C658.049 161.625 657.823 162.737 657.82 164.188C657.82 165.157 657.92 165.977 658.121 166.648C658.325 167.314 658.615 167.82 658.99 168.165C659.365 168.506 659.816 168.676 660.342 168.676Z" fill="#111928"/>
<path d="M379.534 223.364V235H377.773V225.125H377.705L374.92 226.943V225.261L377.824 223.364H379.534ZM386.523 235.159C385.811 235.159 385.17 235.023 384.602 234.75C384.038 234.473 383.587 234.095 383.25 233.614C382.913 233.133 382.733 232.583 382.71 231.966H384.415C384.456 232.466 384.678 232.877 385.08 233.199C385.481 233.521 385.962 233.682 386.523 233.682C386.97 233.682 387.366 233.58 387.71 233.375C388.059 233.167 388.331 232.881 388.528 232.517C388.729 232.153 388.83 231.739 388.83 231.273C388.83 230.799 388.727 230.377 388.523 230.006C388.318 229.634 388.036 229.343 387.676 229.131C387.32 228.919 386.911 228.811 386.449 228.807C386.097 228.807 385.742 228.867 385.386 228.989C385.03 229.11 384.742 229.269 384.523 229.466L382.915 229.227L383.568 223.364H389.966V224.869H385.028L384.659 228.125H384.727C384.955 227.905 385.256 227.722 385.631 227.574C386.009 227.426 386.415 227.352 386.847 227.352C387.555 227.352 388.186 227.521 388.739 227.858C389.295 228.195 389.733 228.655 390.051 229.239C390.373 229.818 390.532 230.485 390.528 231.239C390.532 231.992 390.362 232.665 390.017 233.256C389.676 233.847 389.203 234.312 388.597 234.653C387.994 234.991 387.303 235.159 386.523 235.159ZM396.655 235.193C395.757 235.189 394.99 234.953 394.354 234.483C393.717 234.013 393.231 233.33 392.893 232.432C392.556 231.534 392.388 230.453 392.388 229.188C392.388 227.926 392.556 226.848 392.893 225.955C393.234 225.061 393.723 224.379 394.359 223.909C395 223.439 395.765 223.205 396.655 223.205C397.545 223.205 398.308 223.441 398.945 223.915C399.581 224.384 400.068 225.066 400.405 225.96C400.746 226.85 400.916 227.926 400.916 229.188C400.916 230.456 400.748 231.54 400.411 232.438C400.073 233.331 399.587 234.015 398.95 234.489C398.314 234.958 397.549 235.193 396.655 235.193ZM396.655 233.676C397.443 233.676 398.058 233.292 398.501 232.523C398.948 231.754 399.172 230.642 399.172 229.188C399.172 228.222 399.07 227.405 398.865 226.739C398.664 226.068 398.375 225.561 397.996 225.216C397.621 224.867 397.174 224.693 396.655 224.693C395.871 224.693 395.255 225.08 394.808 225.852C394.361 226.625 394.136 227.737 394.132 229.188C394.132 230.157 394.232 230.977 394.433 231.648C394.638 232.314 394.928 232.82 395.303 233.165C395.678 233.506 396.128 233.676 396.655 233.676Z" fill="#111928"/>
<path d="M650.182 235.159C649.663 235.152 649.152 235.057 648.648 234.875C648.148 234.693 647.693 234.39 647.284 233.966C646.875 233.542 646.547 232.972 646.301 232.256C646.059 231.54 645.938 230.646 645.938 229.574C645.938 228.559 646.038 227.657 646.239 226.869C646.443 226.081 646.737 225.417 647.119 224.875C647.502 224.33 647.964 223.915 648.506 223.631C649.047 223.347 649.655 223.205 650.33 223.205C651.023 223.205 651.638 223.341 652.176 223.614C652.714 223.886 653.15 224.263 653.483 224.744C653.82 225.225 654.034 225.773 654.125 226.386H652.392C652.275 225.902 652.042 225.506 651.693 225.199C651.345 224.892 650.89 224.739 650.33 224.739C649.477 224.739 648.813 225.11 648.335 225.852C647.862 226.595 647.623 227.627 647.619 228.949H647.705C647.905 228.619 648.152 228.339 648.443 228.108C648.739 227.873 649.068 227.693 649.432 227.568C649.799 227.439 650.186 227.375 650.591 227.375C651.265 227.375 651.875 227.54 652.42 227.869C652.97 228.195 653.407 228.646 653.733 229.222C654.059 229.797 654.222 230.456 654.222 231.199C654.222 231.941 654.053 232.614 653.716 233.216C653.383 233.818 652.913 234.295 652.307 234.648C651.701 234.996 650.992 235.167 650.182 235.159ZM650.176 233.682C650.623 233.682 651.023 233.572 651.375 233.352C651.727 233.133 652.006 232.837 652.21 232.466C652.415 232.095 652.517 231.68 652.517 231.222C652.517 230.775 652.417 230.367 652.216 230C652.019 229.633 651.746 229.341 651.398 229.125C651.053 228.909 650.659 228.801 650.216 228.801C649.879 228.801 649.566 228.866 649.278 228.994C648.994 229.123 648.744 229.301 648.528 229.528C648.313 229.756 648.142 230.017 648.017 230.312C647.896 230.604 647.835 230.913 647.835 231.239C647.835 231.674 647.936 232.078 648.136 232.449C648.341 232.82 648.619 233.119 648.972 233.347C649.328 233.57 649.729 233.682 650.176 233.682ZM660.354 235.159C659.835 235.152 659.323 235.057 658.82 234.875C658.32 234.693 657.865 234.39 657.456 233.966C657.047 233.542 656.719 232.972 656.473 232.256C656.231 231.54 656.109 230.646 656.109 229.574C656.109 228.559 656.21 227.657 656.411 226.869C656.615 226.081 656.909 225.417 657.291 224.875C657.674 224.33 658.136 223.915 658.678 223.631C659.219 223.347 659.827 223.205 660.501 223.205C661.195 223.205 661.81 223.341 662.348 223.614C662.886 223.886 663.321 224.263 663.655 224.744C663.992 225.225 664.206 225.773 664.297 226.386H662.564C662.446 225.902 662.214 225.506 661.865 225.199C661.517 224.892 661.062 224.739 660.501 224.739C659.649 224.739 658.984 225.11 658.507 225.852C658.034 226.595 657.795 227.627 657.791 228.949H657.876C658.077 228.619 658.323 228.339 658.615 228.108C658.911 227.873 659.24 227.693 659.604 227.568C659.971 227.439 660.357 227.375 660.763 227.375C661.437 227.375 662.047 227.54 662.592 227.869C663.142 228.195 663.579 228.646 663.905 229.222C664.231 229.797 664.393 230.456 664.393 231.199C664.393 231.941 664.225 232.614 663.888 233.216C663.554 233.818 663.085 234.295 662.479 234.648C661.873 234.996 661.164 235.167 660.354 235.159ZM660.348 233.682C660.795 233.682 661.195 233.572 661.547 233.352C661.899 233.133 662.178 232.837 662.382 232.466C662.587 232.095 662.689 231.68 662.689 231.222C662.689 230.775 662.589 230.367 662.388 230C662.191 229.633 661.918 229.341 661.57 229.125C661.225 228.909 660.831 228.801 660.388 228.801C660.051 228.801 659.738 228.866 659.45 228.994C659.166 229.123 658.916 229.301 658.7 229.528C658.484 229.756 658.314 230.017 658.189 230.312C658.068 230.604 658.007 230.913 658.007 231.239C658.007 231.674 658.107 232.078 658.308 232.449C658.513 232.82 658.791 233.119 659.143 233.347C659.5 233.57 659.901 233.682 660.348 233.682Z" fill="#111928"/>
<path d="M921 36C921 29.3726 926.373 24 933 24H1008C1014.63 24 1020 29.3726 1020 36V44C1020 50.6274 1014.63 56 1008 56H933C926.373 56 921 50.6274 921 44V36Z" fill="#1C64F2"/>
<path fill-rule="evenodd" clip-rule="evenodd" d="M940 36C940.212 36 940.416 36.0843 940.566 36.2343C940.716 36.3843 940.8 36.5878 940.8 36.8V39.2H943.2C943.412 39.2 943.616 39.2843 943.766 39.4343C943.916 39.5843 944 39.7878 944 40C944 40.2122 943.916 40.4157 943.766 40.5657C943.616 40.7157 943.412 40.8 943.2 40.8H940.8V43.2C940.8 43.4122 940.716 43.6157 940.566 43.7657C940.416 43.9157 940.212 44 940 44C939.788 44 939.584 43.9157 939.434 43.7657C939.284 43.6157 939.2 43.4122 939.2 43.2V40.8H936.8C936.588 40.8 936.384 40.7157 936.234 40.5657C936.084 40.4157 936 40.2122 936 40C936 39.7878 936.084 39.5843 936.234 39.4343C936.384 39.2843 936.588 39.2 936.8 39.2H939.2V36.8C939.2 36.5878 939.284 36.3843 939.434 36.2343C939.584 36.0843 939.788 36 940 36V36Z" fill="white"/>
<path d="M957.982 44H956.294L959.366 35.2727H961.318L964.395 44H962.707L960.376 37.0625H960.308L957.982 44ZM958.037 40.5781H962.639V41.848H958.037V40.5781ZM967.706 44.1151C967.192 44.1151 966.732 43.983 966.325 43.7188C965.919 43.4545 965.598 43.071 965.362 42.5682C965.126 42.0653 965.009 41.4545 965.009 40.7358C965.009 40.0085 965.128 39.3949 965.366 38.8949C965.608 38.392 965.933 38.0128 966.342 37.7571C966.751 37.4986 967.207 37.3693 967.71 37.3693C968.094 37.3693 968.409 37.4347 968.656 37.5653C968.903 37.6932 969.099 37.848 969.244 38.0298C969.389 38.2088 969.501 38.3778 969.581 38.5369H969.645V35.2727H971.192V44H969.675V42.9688H969.581C969.501 43.1278 969.386 43.2969 969.236 43.4759C969.085 43.652 968.886 43.8026 968.639 43.9276C968.392 44.0526 968.081 44.1151 967.706 44.1151ZM968.136 42.8494C968.463 42.8494 968.741 42.7614 968.972 42.5852C969.202 42.4062 969.376 42.1577 969.496 41.8395C969.615 41.5213 969.675 41.1506 969.675 40.7273C969.675 40.304 969.615 39.9361 969.496 39.6236C969.379 39.3111 969.206 39.0682 968.976 38.8949C968.749 38.7216 968.469 38.6349 968.136 38.6349C967.793 38.6349 967.506 38.7244 967.276 38.9034C967.045 39.0824 966.872 39.3295 966.756 39.6449C966.639 39.9602 966.581 40.321 966.581 40.7273C966.581 41.1364 966.639 41.5014 966.756 41.8224C966.875 42.1406 967.05 42.392 967.28 42.5767C967.513 42.7585 967.798 42.8494 968.136 42.8494ZM975.265 44.1151C974.75 44.1151 974.29 43.983 973.884 43.7188C973.478 43.4545 973.157 43.071 972.921 42.5682C972.685 42.0653 972.567 41.4545 972.567 40.7358C972.567 40.0085 972.686 39.3949 972.925 38.8949C973.167 38.392 973.492 38.0128 973.901 37.7571C974.31 37.4986 974.766 37.3693 975.269 37.3693C975.652 37.3693 975.968 37.4347 976.215 37.5653C976.462 37.6932 976.658 37.848 976.803 38.0298C976.948 38.2088 977.06 38.3778 977.14 38.5369H977.203V35.2727H978.75V44H977.233V42.9688H977.14C977.06 43.1278 976.945 43.2969 976.794 43.4759C976.644 43.652 976.445 43.8026 976.198 43.9276C975.951 44.0526 975.64 44.1151 975.265 44.1151ZM975.695 42.8494C976.022 42.8494 976.3 42.7614 976.53 42.5852C976.76 42.4062 976.935 42.1577 977.054 41.8395C977.174 41.5213 977.233 41.1506 977.233 40.7273C977.233 40.304 977.174 39.9361 977.054 39.6236C976.938 39.3111 976.765 39.0682 976.534 38.8949C976.307 38.7216 976.027 38.6349 975.695 38.6349C975.351 38.6349 975.064 38.7244 974.834 38.9034C974.604 39.0824 974.431 39.3295 974.314 39.6449C974.198 39.9602 974.14 40.321 974.14 40.7273C974.14 41.1364 974.198 41.5014 974.314 41.8224C974.434 42.1406 974.608 42.392 974.838 42.5767C975.071 42.7585 975.357 42.8494 975.695 42.8494ZM984.607 35.2727L986.878 42.142H986.967L989.234 35.2727H990.973L987.896 44H985.945L982.872 35.2727H984.607ZM992.054 44V37.4545H993.597V44H992.054ZM992.83 36.5256C992.586 36.5256 992.375 36.4446 992.199 36.2827C992.023 36.1179 991.935 35.9205 991.935 35.6903C991.935 35.4574 992.023 35.2599 992.199 35.098C992.375 34.9332 992.586 34.8509 992.83 34.8509C993.077 34.8509 993.287 34.9332 993.461 35.098C993.637 35.2599 993.725 35.4574 993.725 35.6903C993.725 35.9205 993.637 36.1179 993.461 36.2827C993.287 36.4446 993.077 36.5256 992.83 36.5256ZM998.452 37.4545V38.6477H994.689V37.4545H998.452ZM995.618 35.8864H997.161V42.0312C997.161 42.2386 997.192 42.3977 997.254 42.5085C997.32 42.6165 997.405 42.6903 997.51 42.7301C997.615 42.7699 997.732 42.7898 997.859 42.7898C997.956 42.7898 998.044 42.7827 998.124 42.7685C998.206 42.7543 998.268 42.7415 998.311 42.7301L998.571 43.9361C998.489 43.9645 998.371 43.9957 998.217 44.0298C998.067 44.0639 997.882 44.0838 997.663 44.0895C997.277 44.1009 996.929 44.0426 996.619 43.9148C996.31 43.7841 996.064 43.5824 995.882 43.3097C995.703 43.0369 995.615 42.696 995.618 42.2869V35.8864ZM1001.63 44.1321C1001.21 44.1321 1000.84 44.0582 1000.5 43.9105C1000.18 43.7599 999.914 43.5384 999.721 43.2457C999.53 42.9531 999.435 42.5923 999.435 42.1634C999.435 41.794 999.503 41.4886 999.64 41.2472C999.776 41.0057 999.962 40.8125 1000.2 40.6676C1000.43 40.5227 1000.7 40.4134 1000.99 40.3395C1001.29 40.2628 1001.6 40.2074 1001.92 40.1733C1002.3 40.1335 1002.61 40.098 1002.85 40.0668C1003.09 40.0327 1003.26 39.9815 1003.37 39.9134C1003.48 39.8423 1003.54 39.733 1003.54 39.5852V39.5597C1003.54 39.2386 1003.44 38.9901 1003.25 38.8139C1003.06 38.6378 1002.79 38.5497 1002.43 38.5497C1002.05 38.5497 1001.75 38.6321 1001.53 38.7969C1001.31 38.9616 1001.17 39.1562 1001.09 39.3807L999.648 39.1761C999.762 38.7784 999.949 38.446 1000.21 38.179C1000.47 37.9091 1000.79 37.7074 1001.17 37.5739C1001.55 37.4375 1001.96 37.3693 1002.42 37.3693C1002.74 37.3693 1003.05 37.4062 1003.36 37.4801C1003.68 37.554 1003.96 37.6761 1004.22 37.8466C1004.48 38.0142 1004.69 38.2429 1004.84 38.5327C1005 38.8224 1005.08 39.1847 1005.08 39.6193V44H1003.6V43.1009H1003.55C1003.45 43.2827 1003.32 43.4531 1003.15 43.6122C1002.98 43.7685 1002.77 43.8949 1002.52 43.9915C1002.26 44.0852 1001.97 44.1321 1001.63 44.1321ZM1002.03 42.9986C1002.34 42.9986 1002.6 42.9375 1002.83 42.8153C1003.06 42.6903 1003.23 42.5256 1003.36 42.321C1003.48 42.1165 1003.54 41.8935 1003.54 41.652V40.8807C1003.49 40.9205 1003.41 40.9574 1003.3 40.9915C1003.18 41.0256 1003.05 41.0554 1002.91 41.081C1002.77 41.1065 1002.63 41.1293 1002.49 41.1491C1002.35 41.169 1002.23 41.1861 1002.13 41.2003C1001.9 41.2315 1001.69 41.2827 1001.51 41.3537C1001.33 41.4247 1001.19 41.5241 1001.08 41.652C1000.97 41.777 1000.92 41.9389 1000.92 42.1378C1000.92 42.4219 1001.03 42.6364 1001.23 42.7812C1001.44 42.9261 1001.7 42.9986 1002.03 42.9986ZM1008.18 35.2727V44H1006.63V35.2727H1008.18Z" fill="white"/>
<path d="M23.0426 32.9091L26.4496 43.2131H26.5838L29.9844 32.9091H32.5923L27.9773 46H25.0497L20.4411 32.9091H23.0426ZM34.2143 46V36.1818H36.5282V46H34.2143ZM35.3777 34.7884C35.0112 34.7884 34.6958 34.6669 34.4316 34.424C34.1674 34.1768 34.0353 33.8807 34.0353 33.5355C34.0353 33.1861 34.1674 32.8899 34.4316 32.647C34.6958 32.3999 35.0112 32.2763 35.3777 32.2763C35.7484 32.2763 36.0637 32.3999 36.3237 32.647C36.5879 32.8899 36.72 33.1861 36.72 33.5355C36.72 33.8807 36.5879 34.1768 36.3237 34.424C36.0637 34.6669 35.7484 34.7884 35.3777 34.7884ZM43.8104 36.1818V37.9716H38.1662V36.1818H43.8104ZM39.5597 33.8295H41.8736V43.0469C41.8736 43.358 41.9205 43.5966 42.0142 43.7628C42.1122 43.9247 42.2401 44.0355 42.3977 44.0952C42.5554 44.1548 42.7301 44.1847 42.9219 44.1847C43.0668 44.1847 43.1989 44.174 43.3182 44.1527C43.4418 44.1314 43.5355 44.1122 43.5994 44.0952L43.9893 45.9041C43.8658 45.9467 43.6889 45.9936 43.4588 46.0447C43.233 46.0959 42.956 46.1257 42.6278 46.1342C42.0483 46.1513 41.5263 46.0639 41.0618 45.8722C40.5973 45.6761 40.2287 45.3736 39.956 44.9645C39.6875 44.5554 39.5554 44.044 39.5597 43.4304V33.8295ZM48.5708 46.1982C47.9487 46.1982 47.3883 46.0874 46.8897 45.8658C46.3954 45.6399 46.0034 45.3075 45.7136 44.8686C45.4281 44.4297 45.2853 43.8885 45.2853 43.245C45.2853 42.6911 45.3876 42.233 45.5922 41.8707C45.7967 41.5085 46.0758 41.2188 46.4295 41.0014C46.7832 40.7841 47.1816 40.62 47.6248 40.5092C48.0723 40.3942 48.5346 40.3111 49.0119 40.2599C49.5872 40.2003 50.0538 40.147 50.4118 40.1001C50.7697 40.049 51.0297 39.9723 51.1916 39.87C51.3578 39.7635 51.4409 39.5994 51.4409 39.3778V39.3395C51.4409 38.858 51.2981 38.4851 51.0126 38.2209C50.7271 37.9567 50.3159 37.8246 49.7789 37.8246C49.2122 37.8246 48.7626 37.9482 48.4302 38.1953C48.1021 38.4425 47.8805 38.7344 47.7654 39.071L45.6049 38.7642C45.7754 38.1676 46.0566 37.669 46.4487 37.2685C46.8407 36.8636 47.3201 36.5611 47.8869 36.3608C48.4537 36.1562 49.0801 36.054 49.7662 36.054C50.2392 36.054 50.7101 36.1094 51.1788 36.2202C51.6476 36.331 52.0758 36.5142 52.4636 36.7699C52.8514 37.0213 53.1625 37.3643 53.3968 37.799C53.6355 38.2337 53.7548 38.777 53.7548 39.429V46H51.5304V44.6513H51.4537C51.313 44.924 51.1149 45.1797 50.8592 45.4183C50.6078 45.6527 50.2903 45.8423 49.9068 45.9872C49.5275 46.1278 49.0822 46.1982 48.5708 46.1982ZM49.1717 44.4979C49.6362 44.4979 50.0389 44.4062 50.3798 44.223C50.7207 44.0355 50.9828 43.7884 51.166 43.4815C51.3535 43.1747 51.4473 42.8402 51.4473 42.478V41.321C51.3748 41.3807 51.2512 41.4361 51.0765 41.4872C50.9061 41.5384 50.7143 41.5831 50.5012 41.6214C50.2882 41.6598 50.0772 41.6939 49.8684 41.7237C49.6596 41.7536 49.4785 41.7791 49.3251 41.8004C48.9799 41.8473 48.671 41.924 48.3983 42.0305C48.1255 42.1371 47.9103 42.2862 47.7527 42.478C47.595 42.6655 47.5162 42.9084 47.5162 43.2067C47.5162 43.6328 47.6717 43.9545 47.9828 44.1719C48.2939 44.3892 48.6902 44.4979 49.1717 44.4979ZM58.3954 32.9091V46H56.0815V32.9091H58.3954ZM68.5348 38.777L66.4254 39.0071C66.3658 38.794 66.2614 38.5938 66.1122 38.4062C65.9673 38.2188 65.7713 38.0675 65.5241 37.9524C65.277 37.8374 64.9744 37.7798 64.6165 37.7798C64.1349 37.7798 63.7301 37.8842 63.402 38.093C63.0781 38.3018 62.9183 38.5724 62.9226 38.9048C62.9183 39.1903 63.0227 39.4226 63.2358 39.6016C63.4531 39.7805 63.8111 39.9276 64.3097 40.0426L65.9844 40.4006C66.9134 40.6009 67.6037 40.9183 68.0554 41.353C68.5114 41.7876 68.7415 42.3565 68.7457 43.0597C68.7415 43.6776 68.5604 44.223 68.2024 44.696C67.8487 45.1648 67.3565 45.5312 66.7259 45.7955C66.0952 46.0597 65.3707 46.1918 64.5526 46.1918C63.3509 46.1918 62.3835 45.9403 61.6506 45.4375C60.9176 44.9304 60.4808 44.2251 60.3402 43.3217L62.5966 43.1044C62.6989 43.5476 62.9162 43.8821 63.2486 44.108C63.581 44.3338 64.0135 44.4467 64.5462 44.4467C65.0959 44.4467 65.5369 44.3338 65.8693 44.108C66.206 43.8821 66.3743 43.603 66.3743 43.2706C66.3743 42.9893 66.2656 42.7571 66.0483 42.5739C65.8352 42.3906 65.5028 42.25 65.0511 42.152L63.3764 41.8004C62.4347 41.6044 61.7379 41.2741 61.2862 40.8097C60.8345 40.3409 60.6108 39.7486 60.6151 39.0327C60.6108 38.4276 60.7749 37.9034 61.1072 37.4602C61.4439 37.0128 61.9105 36.6676 62.5071 36.4247C63.108 36.1776 63.8004 36.054 64.5845 36.054C65.7351 36.054 66.6406 36.299 67.3011 36.7891C67.9659 37.2791 68.3771 37.9418 68.5348 38.777Z" fill="#111928"/>
<path d="M1010 160C1009.47 160 1008.96 159.789 1008.59 159.414C1008.21 159.039 1008 158.53 1008 158C1008 157.47 1008.21 156.961 1008.59 156.586C1008.96 156.211 1009.47 156 1010 156C1010.53 156 1011.04 156.211 1011.41 156.586C1011.79 156.961 1012 157.47 1012 158C1012 158.53 1011.79 159.039 1011.41 159.414C1011.04 159.789 1010.53 160 1010 160ZM1010 166C1009.47 166 1008.96 165.789 1008.59 165.414C1008.21 165.039 1008 164.53 1008 164C1008 163.47 1008.21 162.961 1008.59 162.586C1008.96 162.211 1009.47 162 1010 162C1010.53 162 1011.04 162.211 1011.41 162.586C1011.79 162.961 1012 163.47 1012 164C1012 164.53 1011.79 165.039 1011.41 165.414C1011.04 165.789 1010.53 166 1010 166ZM1010 172C1009.47 172 1008.96 171.789 1008.59 171.414C1008.21 171.039 1008 170.53 1008 170C1008 169.47 1008.21 168.961 1008.59 168.586C1008.96 168.211 1009.47 168 1010 168C1010.53 168 1011.04 168.211 1011.41 168.586C1011.79 168.961 1012 169.47 1012 170C1012 170.53 1011.79 171.039 1011.41 171.414C1011.04 171.789 1010.53 172 1010 172Z" fill="black"/>
<path d="M1010 225C1009.47 225 1008.96 224.789 1008.59 224.414C1008.21 224.039 1008 223.53 1008 223C1008 222.47 1008.21 221.961 1008.59 221.586C1008.96 221.211 1009.47 221 1010 221C1010.53 221 1011.04 221.211 1011.41 221.586C1011.79 221.961 1012 222.47 1012 223C1012 223.53 1011.79 224.039 1011.41 224.414C1011.04 224.789 1010.53 225 1010 225ZM1010 231C1009.47 231 1008.96 230.789 1008.59 230.414C1008.21 230.039 1008 229.53 1008 229C1008 228.47 1008.21 227.961 1008.59 227.586C1008.96 227.211 1009.47 227 1010 227C1010.53 227 1011.04 227.211 1011.41 227.586C1011.79 227.961 1012 228.47 1012 229C1012 229.53 1011.79 230.039 1011.41 230.414C1011.04 230.789 1010.53 231 1010 231ZM1010 237C1009.47 237 1008.96 236.789 1008.59 236.414C1008.21 236.039 1008 235.53 1008 235C1008 234.47 1008.21 233.961 1008.59 233.586C1008.96 233.211 1009.47 233 1010 233C1010.53 233 1011.04 233.211 1011.41 233.586C1011.79 233.961 1012 234.47 1012 235C1012 235.53 1011.79 236.039 1011.41 236.414C1011.04 236.789 1010.53 237 1010 237Z" fill="black"/>
</svg>
