
<svg width="1040" height="261" viewBox="0 0 1040 261" fill="none" xmlns="http://www.w3.org/2000/svg">
<rect width="1040" height="261" fill="white"/>
<rect y="196" width="1040" height="1" fill="#E5E7EB"/>
<rect width="1040" height="46" transform="translate(0 86)" fill="#F3F4F6"/>
<path d="M21.0043 114.5V104.318H22.8487V112.954H27.3331V114.5H21.0043ZM32.2351 114.649C31.4695 114.649 30.8082 114.49 30.2514 114.172C29.6979 113.85 29.272 113.396 28.9737 112.81C28.6754 112.22 28.5263 111.525 28.5263 110.727C28.5263 109.941 28.6754 109.252 28.9737 108.658C29.2753 108.062 29.6963 107.598 30.2365 107.266C30.7768 106.932 31.4115 106.764 32.1406 106.764C32.6113 106.764 33.0554 106.84 33.473 106.993C33.8939 107.142 34.2652 107.374 34.5866 107.689C34.9115 108.004 35.1667 108.405 35.3523 108.892C35.5379 109.376 35.6307 109.953 35.6307 110.622V111.174H29.3714V109.961H33.9055C33.9022 109.616 33.8277 109.31 33.6818 109.041C33.536 108.769 33.3321 108.556 33.0703 108.4C32.8118 108.244 32.5102 108.166 32.1655 108.166C31.7976 108.166 31.4744 108.256 31.196 108.435C30.9176 108.61 30.7005 108.842 30.5447 109.131C30.3923 109.416 30.3144 109.729 30.3111 110.07V111.129C30.3111 111.573 30.3923 111.955 30.5547 112.273C30.7171 112.588 30.9441 112.83 31.2358 112.999C31.5275 113.164 31.8688 113.247 32.2599 113.247C32.5218 113.247 32.7588 113.211 32.9709 113.138C33.183 113.062 33.367 112.951 33.5227 112.805C33.6785 112.659 33.7962 112.478 33.8757 112.263L35.5561 112.452C35.45 112.896 35.2479 113.284 34.9496 113.615C34.6546 113.943 34.2768 114.198 33.8161 114.381C33.3554 114.56 32.8284 114.649 32.2351 114.649ZM43.1887 108.882L41.5481 109.061C41.5017 108.895 41.4205 108.74 41.3045 108.594C41.1918 108.448 41.0394 108.33 40.8471 108.241C40.6549 108.151 40.4196 108.107 40.1412 108.107C39.7666 108.107 39.4518 108.188 39.1966 108.35C38.9447 108.513 38.8204 108.723 38.8237 108.982C38.8204 109.204 38.9016 109.384 39.0673 109.523C39.2363 109.663 39.5147 109.777 39.9025 109.866L41.2051 110.145C41.9276 110.301 42.4645 110.548 42.8159 110.886C43.1705 111.224 43.3495 111.666 43.3528 112.213C43.3495 112.694 43.2086 113.118 42.9302 113.486C42.6551 113.85 42.2723 114.135 41.7818 114.341C41.2913 114.546 40.7278 114.649 40.0914 114.649C39.1568 114.649 38.4044 114.454 37.8343 114.062C37.2643 113.668 36.9245 113.12 36.8152 112.417L38.5701 112.248C38.6497 112.593 38.8187 112.853 39.0772 113.028C39.3358 113.204 39.6722 113.292 40.0865 113.292C40.514 113.292 40.8571 113.204 41.1156 113.028C41.3774 112.853 41.5083 112.636 41.5083 112.377C41.5083 112.158 41.4238 111.978 41.2548 111.835C41.0891 111.693 40.8306 111.583 40.4792 111.507L39.1767 111.234C38.4442 111.081 37.9023 110.824 37.551 110.463C37.1996 110.098 37.0256 109.638 37.0289 109.081C37.0256 108.61 37.1532 108.203 37.4118 107.858C37.6736 107.51 38.0365 107.241 38.5005 107.053C38.9679 106.86 39.5065 106.764 40.1163 106.764C41.0112 106.764 41.7155 106.955 42.2292 107.336C42.7463 107.717 43.0661 108.232 43.1887 108.882ZM50.8723 108.882L49.2317 109.061C49.1853 108.895 49.1041 108.74 48.9881 108.594C48.8754 108.448 48.723 108.33 48.5307 108.241C48.3385 108.151 48.1032 108.107 47.8248 108.107C47.4502 108.107 47.1354 108.188 46.8801 108.35C46.6283 108.513 46.504 108.723 46.5073 108.982C46.504 109.204 46.5852 109.384 46.7509 109.523C46.9199 109.663 47.1983 109.777 47.5861 109.866L48.8887 110.145C49.6112 110.301 50.1481 110.548 50.4995 110.886C50.8541 111.224 51.0331 111.666 51.0364 112.213C51.0331 112.694 50.8922 113.118 50.6138 113.486C50.3387 113.85 49.9559 114.135 49.4654 114.341C48.9748 114.546 48.4114 114.649 47.775 114.649C46.8404 114.649 46.088 114.454 45.5179 114.062C44.9479 113.668 44.6081 113.12 44.4988 112.417L46.2537 112.248C46.3333 112.593 46.5023 112.853 46.7608 113.028C47.0194 113.204 47.3558 113.292 47.7701 113.292C48.1976 113.292 48.5407 113.204 48.7992 113.028C49.061 112.853 49.1919 112.636 49.1919 112.377C49.1919 112.158 49.1074 111.978 48.9384 111.835C48.7727 111.693 48.5141 111.583 48.1628 111.507L46.8603 111.234C46.1278 111.081 45.5859 110.824 45.2346 110.463C44.8832 110.098 44.7092 109.638 44.7125 109.081C44.7092 108.61 44.8368 108.203 45.0953 107.858C45.3572 107.51 45.7201 107.241 46.1841 107.053C46.6515 106.86 47.19 106.764 47.7999 106.764C48.6948 106.764 49.3991 106.955 49.9128 107.336C50.4299 107.717 50.7497 108.232 50.8723 108.882ZM55.8514 114.649C55.1056 114.649 54.4593 114.485 53.9125 114.157C53.3656 113.829 52.9413 113.37 52.6397 112.78C52.3414 112.19 52.1923 111.5 52.1923 110.712C52.1923 109.923 52.3414 109.232 52.6397 108.638C52.9413 108.045 53.3656 107.585 53.9125 107.256C54.4593 106.928 55.1056 106.764 55.8514 106.764C56.5971 106.764 57.2434 106.928 57.7903 107.256C58.3372 107.585 58.7598 108.045 59.0581 108.638C59.3597 109.232 59.5105 109.923 59.5105 110.712C59.5105 111.5 59.3597 112.19 59.0581 112.78C58.7598 113.37 58.3372 113.829 57.7903 114.157C57.2434 114.485 56.5971 114.649 55.8514 114.649ZM55.8613 113.207C56.2657 113.207 56.6038 113.096 56.8755 112.874C57.1473 112.649 57.3495 112.347 57.4821 111.969C57.618 111.592 57.6859 111.171 57.6859 110.707C57.6859 110.239 57.618 109.817 57.4821 109.439C57.3495 109.058 57.1473 108.754 56.8755 108.529C56.6038 108.304 56.2657 108.191 55.8613 108.191C55.447 108.191 55.1023 108.304 54.8272 108.529C54.5555 108.754 54.3516 109.058 54.2157 109.439C54.0832 109.817 54.0169 110.239 54.0169 110.707C54.0169 111.171 54.0832 111.592 54.2157 111.969C54.3516 112.347 54.5555 112.649 54.8272 112.874C55.1023 113.096 55.447 113.207 55.8613 113.207ZM62.8377 110.026V114.5H61.038V106.864H62.7582V108.161H62.8477C63.0233 107.734 63.3034 107.394 63.6879 107.142C64.0756 106.89 64.5546 106.764 65.1246 106.764C65.6516 106.764 66.1107 106.877 66.5018 107.102C66.8962 107.328 67.2011 107.654 67.4165 108.082C67.6353 108.509 67.743 109.028 67.7397 109.638V114.5H65.94V109.916C65.94 109.406 65.8074 109.006 65.5423 108.718C65.2804 108.43 64.9175 108.286 64.4535 108.286C64.1386 108.286 63.8585 108.355 63.6133 108.494C63.3713 108.63 63.1808 108.827 63.0415 109.086C62.9057 109.344 62.8377 109.658 62.8377 110.026Z" fill="#4B5563"/>
<path d="M427.312 115H425.343L428.928 104.818H431.205L434.794 115H432.825L430.106 106.906H430.026L427.312 115ZM427.376 111.008H432.746V112.489H427.376V111.008ZM441.92 107.364L439.2 115H437.211L434.492 107.364H436.411L438.166 113.036H438.246L440.006 107.364H441.92ZM445.144 115.154C444.66 115.154 444.224 115.068 443.836 114.896C443.452 114.72 443.147 114.461 442.921 114.12C442.699 113.779 442.588 113.358 442.588 112.857C442.588 112.426 442.668 112.07 442.827 111.788C442.986 111.507 443.203 111.281 443.478 111.112C443.753 110.943 444.063 110.816 444.408 110.729C444.756 110.64 445.115 110.575 445.487 110.536C445.934 110.489 446.297 110.448 446.575 110.411C446.854 110.371 447.056 110.312 447.182 110.232C447.311 110.149 447.376 110.022 447.376 109.849V109.82C447.376 109.445 447.265 109.155 447.043 108.95C446.821 108.744 446.501 108.641 446.083 108.641C445.642 108.641 445.293 108.737 445.034 108.93C444.779 109.122 444.607 109.349 444.517 109.611L442.837 109.372C442.969 108.908 443.188 108.52 443.493 108.209C443.798 107.894 444.171 107.659 444.612 107.503C445.052 107.344 445.54 107.264 446.073 107.264C446.441 107.264 446.807 107.307 447.172 107.393C447.537 107.48 447.87 107.622 448.171 107.821C448.473 108.017 448.715 108.283 448.897 108.621C449.083 108.96 449.176 109.382 449.176 109.889V115H447.445V113.951H447.386C447.276 114.163 447.122 114.362 446.923 114.548C446.728 114.73 446.481 114.877 446.183 114.99C445.888 115.099 445.541 115.154 445.144 115.154ZM445.611 113.832C445.972 113.832 446.285 113.76 446.551 113.618C446.816 113.472 447.02 113.28 447.162 113.041C447.308 112.803 447.381 112.542 447.381 112.261V111.361C447.325 111.407 447.228 111.45 447.093 111.49C446.96 111.53 446.811 111.565 446.645 111.594C446.479 111.624 446.315 111.651 446.153 111.674C445.99 111.697 445.85 111.717 445.73 111.734C445.462 111.77 445.222 111.83 445.009 111.913C444.797 111.996 444.63 112.112 444.507 112.261C444.385 112.406 444.323 112.595 444.323 112.827C444.323 113.159 444.444 113.409 444.686 113.578C444.928 113.747 445.236 113.832 445.611 113.832ZM450.985 115V107.364H452.785V115H450.985ZM451.89 106.28C451.605 106.28 451.36 106.185 451.154 105.996C450.949 105.804 450.846 105.574 450.846 105.305C450.846 105.034 450.949 104.803 451.154 104.614C451.36 104.422 451.605 104.326 451.89 104.326C452.178 104.326 452.424 104.422 452.626 104.614C452.831 104.803 452.934 105.034 452.934 105.305C452.934 105.574 452.831 105.804 452.626 105.996C452.424 106.185 452.178 106.28 451.89 106.28ZM456.435 104.818V115H454.636V104.818H456.435ZM460.483 115.154C460 115.154 459.564 115.068 459.176 114.896C458.791 114.72 458.487 114.461 458.261 114.12C458.039 113.779 457.928 113.358 457.928 112.857C457.928 112.426 458.008 112.07 458.167 111.788C458.326 111.507 458.543 111.281 458.818 111.112C459.093 110.943 459.403 110.816 459.748 110.729C460.096 110.64 460.455 110.575 460.827 110.536C461.274 110.489 461.637 110.448 461.915 110.411C462.194 110.371 462.396 110.312 462.522 110.232C462.651 110.149 462.716 110.022 462.716 109.849V109.82C462.716 109.445 462.605 109.155 462.383 108.95C462.161 108.744 461.841 108.641 461.423 108.641C460.982 108.641 460.633 108.737 460.374 108.93C460.119 109.122 459.947 109.349 459.857 109.611L458.177 109.372C458.309 108.908 458.528 108.52 458.833 108.209C459.138 107.894 459.511 107.659 459.952 107.503C460.392 107.344 460.88 107.264 461.413 107.264C461.781 107.264 462.147 107.307 462.512 107.393C462.876 107.48 463.21 107.622 463.511 107.821C463.813 108.017 464.055 108.283 464.237 108.621C464.423 108.96 464.515 109.382 464.515 109.889V115H462.785V113.951H462.726C462.616 114.163 462.462 114.362 462.263 114.548C462.068 114.73 461.821 114.877 461.523 114.99C461.228 115.099 460.881 115.154 460.483 115.154ZM460.951 113.832C461.312 113.832 461.625 113.76 461.89 113.618C462.156 113.472 462.359 113.28 462.502 113.041C462.648 112.803 462.721 112.542 462.721 112.261V111.361C462.664 111.407 462.568 111.45 462.432 111.49C462.3 111.53 462.151 111.565 461.985 111.594C461.819 111.624 461.655 111.651 461.493 111.674C461.33 111.697 461.189 111.717 461.07 111.734C460.802 111.77 460.561 111.83 460.349 111.913C460.137 111.996 459.97 112.112 459.847 112.261C459.724 112.406 459.663 112.595 459.663 112.827C459.663 113.159 459.784 113.409 460.026 113.578C460.268 113.747 460.576 113.832 460.951 113.832ZM466.405 115V104.818H468.204V108.626H468.279C468.372 108.441 468.503 108.244 468.672 108.035C468.841 107.823 469.069 107.642 469.358 107.493C469.646 107.34 470.014 107.264 470.461 107.264C471.051 107.264 471.583 107.415 472.057 107.717C472.535 108.015 472.912 108.457 473.191 109.044C473.473 109.627 473.613 110.343 473.613 111.192C473.613 112.03 473.476 112.743 473.201 113.33C472.926 113.916 472.551 114.364 472.077 114.672C471.603 114.98 471.066 115.134 470.466 115.134C470.029 115.134 469.666 115.061 469.378 114.915C469.089 114.77 468.857 114.594 468.682 114.388C468.509 114.18 468.375 113.982 468.279 113.797H468.175V115H466.405ZM468.17 111.182C468.17 111.676 468.239 112.108 468.378 112.479C468.521 112.851 468.725 113.141 468.99 113.349C469.258 113.555 469.583 113.658 469.964 113.658C470.362 113.658 470.695 113.552 470.964 113.339C471.232 113.124 471.434 112.831 471.57 112.46C471.709 112.085 471.779 111.659 471.779 111.182C471.779 110.708 471.711 110.287 471.575 109.919C471.439 109.551 471.237 109.263 470.969 109.054C470.7 108.845 470.365 108.741 469.964 108.741C469.58 108.741 469.253 108.842 468.985 109.044C468.716 109.246 468.513 109.53 468.373 109.894C468.238 110.259 468.17 110.688 468.17 111.182ZM476.943 104.818V115H475.143V104.818H476.943ZM482.175 115.149C481.409 115.149 480.748 114.99 480.191 114.672C479.637 114.35 479.211 113.896 478.913 113.31C478.615 112.72 478.466 112.025 478.466 111.227C478.466 110.441 478.615 109.752 478.913 109.158C479.215 108.562 479.636 108.098 480.176 107.766C480.716 107.432 481.351 107.264 482.08 107.264C482.551 107.264 482.995 107.34 483.412 107.493C483.833 107.642 484.205 107.874 484.526 108.189C484.851 108.504 485.106 108.905 485.292 109.392C485.477 109.876 485.57 110.453 485.57 111.122V111.674H479.311V110.461H483.845C483.842 110.116 483.767 109.81 483.621 109.541C483.475 109.269 483.272 109.056 483.01 108.9C482.751 108.744 482.45 108.666 482.105 108.666C481.737 108.666 481.414 108.756 481.135 108.935C480.857 109.11 480.64 109.342 480.484 109.631C480.332 109.916 480.254 110.229 480.251 110.57V111.629C480.251 112.073 480.332 112.455 480.494 112.773C480.657 113.088 480.884 113.33 481.175 113.499C481.467 113.664 481.808 113.747 482.199 113.747C482.461 113.747 482.698 113.711 482.91 113.638C483.122 113.562 483.306 113.451 483.462 113.305C483.618 113.159 483.736 112.978 483.815 112.763L485.496 112.952C485.39 113.396 485.187 113.784 484.889 114.115C484.594 114.443 484.216 114.698 483.756 114.881C483.295 115.06 482.768 115.149 482.175 115.149ZM494.095 115H490.645V104.818H494.165C495.176 104.818 496.044 105.022 496.77 105.43C497.499 105.834 498.059 106.416 498.45 107.175C498.841 107.934 499.037 108.842 499.037 109.899C499.037 110.96 498.84 111.871 498.445 112.634C498.054 113.396 497.489 113.981 496.75 114.388C496.014 114.796 495.129 115 494.095 115ZM492.489 113.404H494.006C494.715 113.404 495.307 113.275 495.781 113.016C496.254 112.754 496.611 112.365 496.849 111.848C497.088 111.328 497.207 110.678 497.207 109.899C497.207 109.12 497.088 108.474 496.849 107.96C496.611 107.443 496.258 107.057 495.79 106.802C495.326 106.543 494.75 106.414 494.06 106.414H492.489V113.404ZM502.907 115.154C502.423 115.154 501.988 115.068 501.6 114.896C501.215 114.72 500.91 114.461 500.685 114.12C500.463 113.779 500.352 113.358 500.352 112.857C500.352 112.426 500.431 112.07 500.591 111.788C500.75 111.507 500.967 111.281 501.242 111.112C501.517 110.943 501.827 110.816 502.172 110.729C502.52 110.64 502.879 110.575 503.25 110.536C503.698 110.489 504.061 110.448 504.339 110.411C504.618 110.371 504.82 110.312 504.946 110.232C505.075 110.149 505.14 110.022 505.14 109.849V109.82C505.14 109.445 505.029 109.155 504.806 108.95C504.584 108.744 504.265 108.641 503.847 108.641C503.406 108.641 503.056 108.737 502.798 108.93C502.543 109.122 502.37 109.349 502.281 109.611L500.6 109.372C500.733 108.908 500.952 108.52 501.257 108.209C501.562 107.894 501.935 107.659 502.375 107.503C502.816 107.344 503.303 107.264 503.837 107.264C504.205 107.264 504.571 107.307 504.936 107.393C505.3 107.48 505.633 107.622 505.935 107.821C506.237 108.017 506.479 108.283 506.661 108.621C506.846 108.96 506.939 109.382 506.939 109.889V115H505.209V113.951H505.15C505.04 114.163 504.886 114.362 504.687 114.548C504.492 114.73 504.245 114.877 503.946 114.99C503.651 115.099 503.305 115.154 502.907 115.154ZM503.375 113.832C503.736 113.832 504.049 113.76 504.314 113.618C504.579 113.472 504.783 113.28 504.926 113.041C505.072 112.803 505.145 112.542 505.145 112.261V111.361C505.088 111.407 504.992 111.45 504.856 111.49C504.724 111.53 504.574 111.565 504.409 111.594C504.243 111.624 504.079 111.651 503.917 111.674C503.754 111.697 503.613 111.717 503.494 111.734C503.225 111.77 502.985 111.83 502.773 111.913C502.561 111.996 502.394 112.112 502.271 112.261C502.148 112.406 502.087 112.595 502.087 112.827C502.087 113.159 502.208 113.409 502.45 113.578C502.692 113.747 503 113.832 503.375 113.832ZM512.562 107.364V108.756H508.172V107.364H512.562ZM509.256 105.534H511.056V112.703C511.056 112.945 511.092 113.131 511.165 113.26C511.241 113.386 511.341 113.472 511.463 113.518C511.586 113.565 511.722 113.588 511.871 113.588C511.984 113.588 512.087 113.58 512.179 113.563C512.275 113.547 512.348 113.532 512.398 113.518L512.701 114.925C512.605 114.959 512.468 114.995 512.289 115.035C512.113 115.075 511.898 115.098 511.642 115.104C511.192 115.118 510.786 115.05 510.424 114.901C510.063 114.748 509.776 114.513 509.564 114.195C509.355 113.876 509.253 113.479 509.256 113.001V105.534ZM517.366 115.149C516.6 115.149 515.939 114.99 515.382 114.672C514.829 114.35 514.403 113.896 514.105 113.31C513.806 112.72 513.657 112.025 513.657 111.227C513.657 110.441 513.806 109.752 514.105 109.158C514.406 108.562 514.827 108.098 515.367 107.766C515.908 107.432 516.542 107.264 517.271 107.264C517.742 107.264 518.186 107.34 518.604 107.493C519.025 107.642 519.396 107.874 519.718 108.189C520.042 108.504 520.298 108.905 520.483 109.392C520.669 109.876 520.762 110.453 520.762 111.122V111.674H514.502V110.461H519.036C519.033 110.116 518.959 109.81 518.813 109.541C518.667 109.269 518.463 109.056 518.201 108.9C517.943 108.744 517.641 108.666 517.296 108.666C516.928 108.666 516.605 108.756 516.327 108.935C516.048 109.11 515.831 109.342 515.676 109.631C515.523 109.916 515.445 110.229 515.442 110.57V111.629C515.442 112.073 515.523 112.455 515.686 112.773C515.848 113.088 516.075 113.33 516.367 113.499C516.658 113.664 517 113.747 517.391 113.747C517.653 113.747 517.89 113.711 518.102 113.638C518.314 113.562 518.498 113.451 518.654 113.305C518.809 113.159 518.927 112.978 519.007 112.763L520.687 112.952C520.581 113.396 520.379 113.784 520.08 114.115C519.785 114.443 519.408 114.698 518.947 114.881C518.486 115.06 517.959 115.149 517.366 115.149Z" fill="#4B5563"/>
<path d="M20.3807 158.364H22.375L25.4148 163.653H25.5398L28.5795 158.364H30.5739L26.3523 165.432V170H24.6023V165.432L20.3807 158.364ZM34.3338 170.176C33.5156 170.176 32.8016 169.989 32.1918 169.614C31.5819 169.239 31.1084 168.714 30.7713 168.04C30.4342 167.366 30.2656 166.578 30.2656 165.676C30.2656 164.771 30.4342 163.979 30.7713 163.301C31.1084 162.623 31.5819 162.097 32.1918 161.722C32.8016 161.347 33.5156 161.159 34.3338 161.159C35.152 161.159 35.866 161.347 36.4759 161.722C37.0857 162.097 37.5592 162.623 37.8963 163.301C38.2334 163.979 38.402 164.771 38.402 165.676C38.402 166.578 38.2334 167.366 37.8963 168.04C37.5592 168.714 37.0857 169.239 36.4759 169.614C35.866 169.989 35.152 170.176 34.3338 170.176ZM34.3395 168.75C34.8698 168.75 35.3092 168.61 35.6577 168.33C36.0062 168.049 36.2637 167.676 36.4304 167.21C36.6009 166.744 36.6861 166.231 36.6861 165.67C36.6861 165.114 36.6009 164.602 36.4304 164.136C36.2637 163.667 36.0062 163.29 35.6577 163.006C35.3092 162.722 34.8698 162.58 34.3395 162.58C33.8054 162.58 33.3622 162.722 33.0099 163.006C32.6615 163.29 32.402 163.667 32.2315 164.136C32.0649 164.602 31.9815 165.114 31.9815 165.67C31.9815 166.231 32.0649 166.744 32.2315 167.21C32.402 167.676 32.6615 168.049 33.0099 168.33C33.3622 168.61 33.8054 168.75 34.3395 168.75ZM45.8267 166.381V161.273H47.5312V170H45.8608V168.489H45.7699C45.5691 168.955 45.2472 169.343 44.804 169.653C44.3646 169.96 43.8172 170.114 43.1619 170.114C42.6013 170.114 42.1051 169.991 41.6733 169.744C41.2453 169.494 40.9081 169.125 40.6619 168.636C40.4195 168.148 40.2983 167.544 40.2983 166.824V161.273H41.9972V166.619C41.9972 167.214 42.1619 167.687 42.4915 168.04C42.821 168.392 43.2491 168.568 43.7756 168.568C44.0938 168.568 44.41 168.489 44.7244 168.33C45.0426 168.17 45.3059 167.93 45.5142 167.608C45.7263 167.286 45.8305 166.877 45.8267 166.381ZM51.5085 158.364V159.455C51.5085 159.777 51.4479 160.116 51.3267 160.472C51.2093 160.824 51.0426 161.163 50.8267 161.489C50.6108 161.814 50.357 162.095 50.0653 162.33L49.2244 161.727C49.4479 161.402 49.6411 161.055 49.804 160.688C49.9706 160.32 50.054 159.915 50.054 159.472V158.364H51.5085ZM52.892 170V161.273H54.5341V162.659H54.625C54.7841 162.189 55.0644 161.82 55.4659 161.551C55.8712 161.278 56.3295 161.142 56.8409 161.142C56.947 161.142 57.072 161.146 57.2159 161.153C57.3636 161.161 57.4792 161.17 57.5625 161.182V162.807C57.4943 162.788 57.3731 162.767 57.1989 162.744C57.0246 162.718 56.8504 162.705 56.6761 162.705C56.2746 162.705 55.9167 162.79 55.6023 162.96C55.2917 163.127 55.0455 163.36 54.8636 163.659C54.6818 163.955 54.5909 164.292 54.5909 164.67V170H52.892ZM62.4815 170.176C61.6217 170.176 60.8812 169.992 60.2599 169.625C59.6425 169.254 59.1652 168.733 58.8281 168.062C58.4948 167.388 58.3281 166.598 58.3281 165.693C58.3281 164.799 58.4948 164.011 58.8281 163.33C59.1652 162.648 59.6349 162.116 60.2372 161.733C60.8433 161.35 61.5516 161.159 62.3622 161.159C62.8546 161.159 63.3319 161.241 63.794 161.403C64.2562 161.566 64.6709 161.822 65.0384 162.17C65.4058 162.519 65.6955 162.972 65.9077 163.528C66.1198 164.081 66.2259 164.754 66.2259 165.545V166.148H59.2884V164.875H64.5611C64.5611 164.428 64.4702 164.032 64.2884 163.688C64.1065 163.339 63.8509 163.064 63.5213 162.864C63.1955 162.663 62.813 162.562 62.3736 162.562C61.8963 162.562 61.4796 162.68 61.1236 162.915C60.7713 163.146 60.4986 163.449 60.3054 163.824C60.116 164.195 60.0213 164.598 60.0213 165.034V166.028C60.0213 166.612 60.1236 167.108 60.3281 167.517C60.5365 167.926 60.8262 168.239 61.1974 168.455C61.5687 168.667 62.0024 168.773 62.4986 168.773C62.8205 168.773 63.1141 168.727 63.3793 168.636C63.6444 168.542 63.8736 168.402 64.0668 168.216C64.2599 168.03 64.4077 167.801 64.5099 167.528L66.1179 167.818C65.9891 168.292 65.758 168.706 65.4247 169.062C65.0952 169.415 64.6804 169.689 64.1804 169.886C63.6842 170.08 63.1179 170.176 62.4815 170.176ZM82.5895 164.182C82.5895 165.424 82.3622 166.492 81.9077 167.386C81.4531 168.277 80.83 168.962 80.0384 169.443C79.2505 169.92 78.3546 170.159 77.3509 170.159C76.3433 170.159 75.4437 169.92 74.652 169.443C73.8641 168.962 73.2429 168.275 72.7884 167.381C72.3338 166.487 72.1065 165.42 72.1065 164.182C72.1065 162.939 72.3338 161.873 72.7884 160.983C73.2429 160.089 73.8641 159.403 74.652 158.926C75.4437 158.445 76.3433 158.205 77.3509 158.205C78.3546 158.205 79.2505 158.445 80.0384 158.926C80.83 159.403 81.4531 160.089 81.9077 160.983C82.3622 161.873 82.5895 162.939 82.5895 164.182ZM80.8509 164.182C80.8509 163.235 80.6974 162.437 80.3906 161.79C80.0876 161.138 79.6709 160.646 79.1406 160.312C78.6141 159.975 78.0175 159.807 77.3509 159.807C76.6804 159.807 76.0819 159.975 75.5554 160.312C75.0289 160.646 74.6122 161.138 74.3054 161.79C74.0024 162.437 73.8509 163.235 73.8509 164.182C73.8509 165.129 74.0024 165.928 74.3054 166.58C74.6122 167.227 75.0289 167.72 75.5554 168.057C76.0819 168.39 76.6804 168.557 77.3509 168.557C78.0175 168.557 78.6141 168.39 79.1406 168.057C79.6709 167.72 80.0876 167.227 80.3906 166.58C80.6974 165.928 80.8509 165.129 80.8509 164.182ZM86.3409 164.818V170H84.642V161.273H86.2727V162.693H86.3807C86.5814 162.231 86.8958 161.86 87.3239 161.58C87.7557 161.299 88.2992 161.159 88.9545 161.159C89.5492 161.159 90.0701 161.284 90.517 161.534C90.964 161.78 91.3106 162.148 91.5568 162.636C91.803 163.125 91.9261 163.729 91.9261 164.449V170H90.2273V164.653C90.2273 164.021 90.0625 163.527 89.733 163.17C89.4034 162.811 88.9508 162.631 88.375 162.631C87.9811 162.631 87.6307 162.716 87.3239 162.886C87.0208 163.057 86.7803 163.307 86.6023 163.636C86.428 163.962 86.3409 164.356 86.3409 164.818ZM97.6776 158.364H99.6719L102.712 163.653H102.837L105.876 158.364H107.871L103.649 165.432V170H101.899V165.432L97.6776 158.364ZM111.631 170.176C110.813 170.176 110.098 169.989 109.489 169.614C108.879 169.239 108.405 168.714 108.068 168.04C107.731 167.366 107.562 166.578 107.562 165.676C107.562 164.771 107.731 163.979 108.068 163.301C108.405 162.623 108.879 162.097 109.489 161.722C110.098 161.347 110.813 161.159 111.631 161.159C112.449 161.159 113.163 161.347 113.773 161.722C114.383 162.097 114.856 162.623 115.193 163.301C115.53 163.979 115.699 164.771 115.699 165.676C115.699 166.578 115.53 167.366 115.193 168.04C114.856 168.714 114.383 169.239 113.773 169.614C113.163 169.989 112.449 170.176 111.631 170.176ZM111.636 168.75C112.167 168.75 112.606 168.61 112.955 168.33C113.303 168.049 113.561 167.676 113.727 167.21C113.898 166.744 113.983 166.231 113.983 165.67C113.983 165.114 113.898 164.602 113.727 164.136C113.561 163.667 113.303 163.29 112.955 163.006C112.606 162.722 112.167 162.58 111.636 162.58C111.102 162.58 110.659 162.722 110.307 163.006C109.958 163.29 109.699 163.667 109.528 164.136C109.362 164.602 109.278 165.114 109.278 165.67C109.278 166.231 109.362 166.744 109.528 167.21C109.699 167.676 109.958 168.049 110.307 168.33C110.659 168.61 111.102 168.75 111.636 168.75ZM123.124 166.381V161.273H124.828V170H123.158V168.489H123.067C122.866 168.955 122.544 169.343 122.101 169.653C121.661 169.96 121.114 170.114 120.459 170.114C119.898 170.114 119.402 169.991 118.97 169.744C118.542 169.494 118.205 169.125 117.959 168.636C117.716 168.148 117.595 167.544 117.595 166.824V161.273H119.294V166.619C119.294 167.214 119.459 167.687 119.788 168.04C120.118 168.392 120.546 168.568 121.072 168.568C121.391 168.568 121.707 168.489 122.021 168.33C122.339 168.17 122.603 167.93 122.811 167.608C123.023 167.286 123.127 166.877 123.124 166.381ZM127.111 170V161.273H128.753V162.659H128.844C129.003 162.189 129.283 161.82 129.685 161.551C130.09 161.278 130.548 161.142 131.06 161.142C131.166 161.142 131.291 161.146 131.435 161.153C131.582 161.161 131.698 161.17 131.781 161.182V162.807C131.713 162.788 131.592 162.767 131.418 162.744C131.243 162.718 131.069 162.705 130.895 162.705C130.493 162.705 130.135 162.79 129.821 162.96C129.51 163.127 129.264 163.36 129.082 163.659C128.901 163.955 128.81 164.292 128.81 164.67V170H127.111ZM139.901 170L136.673 158.364H138.52L140.787 167.375H140.895L143.253 158.364H145.082L147.44 167.381H147.548L149.81 158.364H151.662L148.429 170H146.662L144.213 161.284H144.122L141.673 170H139.901ZM154.807 170.193C154.254 170.193 153.754 170.091 153.307 169.886C152.86 169.678 152.506 169.377 152.244 168.983C151.987 168.589 151.858 168.106 151.858 167.534C151.858 167.042 151.953 166.636 152.142 166.318C152.331 166 152.587 165.748 152.909 165.562C153.231 165.377 153.591 165.237 153.989 165.142C154.386 165.047 154.792 164.975 155.205 164.926C155.727 164.866 156.152 164.816 156.477 164.778C156.803 164.737 157.04 164.67 157.188 164.58C157.335 164.489 157.409 164.341 157.409 164.136V164.097C157.409 163.6 157.269 163.216 156.989 162.943C156.712 162.67 156.299 162.534 155.75 162.534C155.178 162.534 154.727 162.661 154.398 162.915C154.072 163.165 153.847 163.443 153.722 163.75L152.125 163.386C152.314 162.856 152.591 162.428 152.955 162.102C153.322 161.773 153.744 161.534 154.222 161.386C154.699 161.235 155.201 161.159 155.727 161.159C156.076 161.159 156.445 161.201 156.835 161.284C157.229 161.364 157.597 161.511 157.938 161.727C158.282 161.943 158.564 162.252 158.784 162.653C159.004 163.051 159.114 163.568 159.114 164.205V170H157.455V168.807H157.386C157.277 169.027 157.112 169.242 156.892 169.455C156.672 169.667 156.39 169.843 156.045 169.983C155.701 170.123 155.288 170.193 154.807 170.193ZM155.176 168.83C155.646 168.83 156.047 168.737 156.381 168.551C156.718 168.366 156.973 168.123 157.148 167.824C157.326 167.521 157.415 167.197 157.415 166.852V165.727C157.354 165.788 157.237 165.845 157.062 165.898C156.892 165.947 156.697 165.991 156.477 166.028C156.258 166.062 156.044 166.095 155.835 166.125C155.627 166.152 155.453 166.174 155.312 166.193C154.983 166.235 154.682 166.305 154.409 166.403C154.14 166.502 153.924 166.644 153.761 166.83C153.602 167.011 153.523 167.254 153.523 167.557C153.523 167.977 153.678 168.295 153.989 168.511C154.299 168.723 154.695 168.83 155.176 168.83ZM162.138 173.273C161.884 173.273 161.653 173.252 161.445 173.21C161.236 173.172 161.081 173.131 160.979 173.085L161.388 171.693C161.698 171.777 161.975 171.813 162.217 171.801C162.46 171.79 162.674 171.699 162.859 171.528C163.049 171.358 163.215 171.08 163.359 170.693L163.57 170.114L160.376 161.273H162.195L164.405 168.045H164.496L166.706 161.273H168.53L164.933 171.165C164.767 171.619 164.554 172.004 164.297 172.318C164.039 172.636 163.732 172.875 163.376 173.034C163.02 173.193 162.607 173.273 162.138 173.273Z" fill="#111928"/>
<path d="M21.2784 235V223.364H28.4943V224.875H23.0341V228.42H27.9773V229.926H23.0341V235H21.2784ZM33.5526 235.176C32.7344 235.176 32.0204 234.989 31.4105 234.614C30.8007 234.239 30.3272 233.714 29.9901 233.04C29.6529 232.366 29.4844 231.578 29.4844 230.676C29.4844 229.771 29.6529 228.979 29.9901 228.301C30.3272 227.623 30.8007 227.097 31.4105 226.722C32.0204 226.347 32.7344 226.159 33.5526 226.159C34.3707 226.159 35.0848 226.347 35.6946 226.722C36.3045 227.097 36.7779 227.623 37.1151 228.301C37.4522 228.979 37.6207 229.771 37.6207 230.676C37.6207 231.578 37.4522 232.366 37.1151 233.04C36.7779 233.714 36.3045 234.239 35.6946 234.614C35.0848 234.989 34.3707 235.176 33.5526 235.176ZM33.5582 233.75C34.0885 233.75 34.5279 233.61 34.8764 233.33C35.2249 233.049 35.4825 232.676 35.6491 232.21C35.8196 231.744 35.9048 231.231 35.9048 230.67C35.9048 230.114 35.8196 229.602 35.6491 229.136C35.4825 228.667 35.2249 228.29 34.8764 228.006C34.5279 227.722 34.0885 227.58 33.5582 227.58C33.0241 227.58 32.581 227.722 32.2287 228.006C31.8802 228.29 31.6207 228.667 31.4503 229.136C31.2836 229.602 31.2003 230.114 31.2003 230.67C31.2003 231.231 31.2836 231.744 31.4503 232.21C31.6207 232.676 31.8802 233.049 32.2287 233.33C32.581 233.61 33.0241 233.75 33.5582 233.75ZM43.1932 235.176C42.3485 235.176 41.6212 234.985 41.0114 234.602C40.4053 234.216 39.9394 233.684 39.6136 233.006C39.2879 232.328 39.125 231.551 39.125 230.676C39.125 229.79 39.2917 229.008 39.625 228.33C39.9583 227.648 40.428 227.116 41.0341 226.733C41.6402 226.35 42.3542 226.159 43.1761 226.159C43.839 226.159 44.4299 226.282 44.9489 226.528C45.4678 226.771 45.8864 227.112 46.2045 227.551C46.5265 227.991 46.7178 228.504 46.7784 229.091H45.125C45.0341 228.682 44.8258 228.33 44.5 228.034C44.178 227.739 43.7462 227.591 43.2045 227.591C42.7311 227.591 42.3163 227.716 41.9602 227.966C41.608 228.212 41.3333 228.564 41.1364 229.023C40.9394 229.477 40.8409 230.015 40.8409 230.636C40.8409 231.273 40.9375 231.822 41.1307 232.284C41.3239 232.746 41.5966 233.104 41.9489 233.358C42.3049 233.612 42.7235 233.739 43.2045 233.739C43.5265 233.739 43.8182 233.68 44.0795 233.562C44.3447 233.441 44.5663 233.269 44.7443 233.045C44.9261 232.822 45.053 232.553 45.125 232.239H46.7784C46.7178 232.803 46.5341 233.307 46.2273 233.75C45.9205 234.193 45.5095 234.542 44.9943 234.795C44.483 235.049 43.8826 235.176 43.1932 235.176ZM54.1236 231.381V226.273H55.8281V235H54.1577V233.489H54.0668C53.866 233.955 53.544 234.343 53.1009 234.653C52.6615 234.96 52.1141 235.114 51.4588 235.114C50.8982 235.114 50.402 234.991 49.9702 234.744C49.5421 234.494 49.205 234.125 48.9588 233.636C48.7164 233.148 48.5952 232.544 48.5952 231.824V226.273H50.294V231.619C50.294 232.214 50.4588 232.687 50.7884 233.04C51.1179 233.392 51.5459 233.568 52.0724 233.568C52.3906 233.568 52.7069 233.489 53.0213 233.33C53.3395 233.17 53.6027 232.93 53.8111 232.608C54.0232 232.286 54.1274 231.877 54.1236 231.381ZM64.6506 228.403L63.1108 228.676C63.0464 228.479 62.9441 228.292 62.804 228.114C62.6676 227.936 62.482 227.79 62.2472 227.676C62.0123 227.562 61.7188 227.506 61.3665 227.506C60.8854 227.506 60.4839 227.614 60.1619 227.83C59.84 228.042 59.679 228.316 59.679 228.653C59.679 228.945 59.7869 229.18 60.0028 229.358C60.2188 229.536 60.5672 229.682 61.0483 229.795L62.4347 230.114C63.2377 230.299 63.8362 230.585 64.2301 230.972C64.6241 231.358 64.821 231.86 64.821 232.477C64.821 233 64.6695 233.466 64.3665 233.875C64.0672 234.28 63.6487 234.598 63.1108 234.83C62.5767 235.061 61.9574 235.176 61.2528 235.176C60.2756 235.176 59.4782 234.968 58.8608 234.551C58.2434 234.131 57.8646 233.534 57.7244 232.761L59.3665 232.511C59.4688 232.939 59.679 233.263 59.9972 233.483C60.3153 233.699 60.7301 233.807 61.2415 233.807C61.7983 233.807 62.2434 233.691 62.5767 233.46C62.91 233.225 63.0767 232.939 63.0767 232.602C63.0767 232.33 62.9744 232.1 62.7699 231.915C62.5691 231.729 62.2604 231.589 61.8438 231.494L60.3665 231.17C59.5521 230.985 58.9498 230.689 58.5597 230.284C58.1733 229.879 57.9801 229.366 57.9801 228.744C57.9801 228.229 58.1241 227.778 58.4119 227.392C58.6998 227.006 59.0975 226.705 59.6051 226.489C60.1127 226.269 60.6941 226.159 61.3494 226.159C62.2926 226.159 63.035 226.364 63.5767 226.773C64.1184 227.178 64.4763 227.722 64.6506 228.403ZM74.5994 235.176C73.7813 235.176 73.0672 234.989 72.4574 234.614C71.8475 234.239 71.3741 233.714 71.0369 233.04C70.6998 232.366 70.5312 231.578 70.5312 230.676C70.5312 229.771 70.6998 228.979 71.0369 228.301C71.3741 227.623 71.8475 227.097 72.4574 226.722C73.0672 226.347 73.7813 226.159 74.5994 226.159C75.4176 226.159 76.1316 226.347 76.7415 226.722C77.3513 227.097 77.8248 227.623 78.1619 228.301C78.4991 228.979 78.6676 229.771 78.6676 230.676C78.6676 231.578 78.4991 232.366 78.1619 233.04C77.8248 233.714 77.3513 234.239 76.7415 234.614C76.1316 234.989 75.4176 235.176 74.5994 235.176ZM74.6051 233.75C75.1354 233.75 75.5748 233.61 75.9233 233.33C76.2718 233.049 76.5294 232.676 76.696 232.21C76.8665 231.744 76.9517 231.231 76.9517 230.67C76.9517 230.114 76.8665 229.602 76.696 229.136C76.5294 228.667 76.2718 228.29 75.9233 228.006C75.5748 227.722 75.1354 227.58 74.6051 227.58C74.071 227.58 73.6278 227.722 73.2756 228.006C72.9271 228.29 72.6676 228.667 72.4972 229.136C72.3305 229.602 72.2472 230.114 72.2472 230.67C72.2472 231.231 72.3305 231.744 72.4972 232.21C72.6676 232.676 72.9271 233.049 73.2756 233.33C73.6278 233.61 74.071 233.75 74.6051 233.75ZM82.2628 229.818V235H80.5639V226.273H82.1946V227.693H82.3026C82.5033 227.231 82.8177 226.86 83.2457 226.58C83.6776 226.299 84.2211 226.159 84.8764 226.159C85.4711 226.159 85.992 226.284 86.4389 226.534C86.8859 226.78 87.2325 227.148 87.4787 227.636C87.7249 228.125 87.848 228.729 87.848 229.449V235H86.1491V229.653C86.1491 229.021 85.9844 228.527 85.6548 228.17C85.3253 227.811 84.8726 227.631 84.2969 227.631C83.9029 227.631 83.5526 227.716 83.2457 227.886C82.9427 228.057 82.7022 228.307 82.5241 228.636C82.3499 228.962 82.2628 229.356 82.2628 229.818ZM103.889 223.364V235H102.276L96.3608 226.466H96.2528V235H94.4972V223.364H96.1222L102.043 231.909H102.151V223.364H103.889ZM111.842 231.381V226.273H113.547V235H111.876V233.489H111.786C111.585 233.955 111.263 234.343 110.82 234.653C110.38 234.96 109.833 235.114 109.178 235.114C108.617 235.114 108.121 234.991 107.689 234.744C107.261 234.494 106.924 234.125 106.678 233.636C106.435 233.148 106.314 232.544 106.314 231.824V226.273H108.013V231.619C108.013 232.214 108.178 232.687 108.507 233.04C108.837 233.392 109.265 233.568 109.791 233.568C110.109 233.568 110.426 233.489 110.74 233.33C111.058 233.17 111.321 232.93 111.53 232.608C111.742 232.286 111.846 231.877 111.842 231.381ZM119.903 226.273V227.636H115.136V226.273H119.903ZM116.415 224.182H118.114V232.438C118.114 232.767 118.163 233.015 118.261 233.182C118.36 233.345 118.487 233.456 118.642 233.517C118.801 233.574 118.973 233.602 119.159 233.602C119.295 233.602 119.415 233.593 119.517 233.574C119.619 233.555 119.699 233.54 119.756 233.528L120.062 234.932C119.964 234.97 119.824 235.008 119.642 235.045C119.46 235.087 119.233 235.11 118.96 235.114C118.513 235.121 118.097 235.042 117.71 234.875C117.324 234.708 117.011 234.451 116.773 234.102C116.534 233.754 116.415 233.316 116.415 232.79V224.182ZM121.783 235V226.273H123.425V227.659H123.516C123.675 227.189 123.955 226.82 124.357 226.551C124.762 226.278 125.22 226.142 125.732 226.142C125.838 226.142 125.963 226.146 126.107 226.153C126.254 226.161 126.37 226.17 126.453 226.182V227.807C126.385 227.788 126.264 227.767 126.089 227.744C125.915 227.718 125.741 227.705 125.567 227.705C125.165 227.705 124.807 227.79 124.493 227.96C124.182 228.127 123.936 228.36 123.754 228.659C123.572 228.955 123.482 229.292 123.482 229.67V235H121.783ZM127.923 235V226.273H129.622V235H127.923ZM128.781 224.926C128.486 224.926 128.232 224.828 128.02 224.631C127.812 224.43 127.707 224.191 127.707 223.915C127.707 223.634 127.812 223.396 128.02 223.199C128.232 222.998 128.486 222.898 128.781 222.898C129.077 222.898 129.329 222.998 129.537 223.199C129.749 223.396 129.855 223.634 129.855 223.915C129.855 224.191 129.749 224.43 129.537 224.631C129.329 224.828 129.077 224.926 128.781 224.926ZM135.982 226.273V227.636H131.214V226.273H135.982ZM132.493 224.182H134.192V232.438C134.192 232.767 134.241 233.015 134.339 233.182C134.438 233.345 134.565 233.456 134.72 233.517C134.879 233.574 135.052 233.602 135.237 233.602C135.374 233.602 135.493 233.593 135.595 233.574C135.697 233.555 135.777 233.54 135.834 233.528L136.141 234.932C136.042 234.97 135.902 235.008 135.72 235.045C135.538 235.087 135.311 235.11 135.038 235.114C134.591 235.121 134.175 235.042 133.788 234.875C133.402 234.708 133.089 234.451 132.851 234.102C132.612 233.754 132.493 233.316 132.493 232.79V224.182ZM137.861 235V226.273H139.56V235H137.861ZM138.719 224.926C138.423 224.926 138.17 224.828 137.957 224.631C137.749 224.43 137.645 224.191 137.645 223.915C137.645 223.634 137.749 223.396 137.957 223.199C138.17 222.998 138.423 222.898 138.719 222.898C139.014 222.898 139.266 222.998 139.474 223.199C139.687 223.396 139.793 223.634 139.793 223.915C139.793 224.191 139.687 224.43 139.474 224.631C139.266 224.828 139.014 224.926 138.719 224.926ZM145.521 235.176C144.703 235.176 143.989 234.989 143.379 234.614C142.769 234.239 142.296 233.714 141.959 233.04C141.622 232.366 141.453 231.578 141.453 230.676C141.453 229.771 141.622 228.979 141.959 228.301C142.296 227.623 142.769 227.097 143.379 226.722C143.989 226.347 144.703 226.159 145.521 226.159C146.339 226.159 147.054 226.347 147.663 226.722C148.273 227.097 148.747 227.623 149.084 228.301C149.421 228.979 149.589 229.771 149.589 230.676C149.589 231.578 149.421 232.366 149.084 233.04C148.747 233.714 148.273 234.239 147.663 234.614C147.054 234.989 146.339 235.176 145.521 235.176ZM145.527 233.75C146.057 233.75 146.497 233.61 146.845 233.33C147.194 233.049 147.451 232.676 147.618 232.21C147.788 231.744 147.874 231.231 147.874 230.67C147.874 230.114 147.788 229.602 147.618 229.136C147.451 228.667 147.194 228.29 146.845 228.006C146.497 227.722 146.057 227.58 145.527 227.58C144.993 227.58 144.55 227.722 144.197 228.006C143.849 228.29 143.589 228.667 143.419 229.136C143.252 229.602 143.169 230.114 143.169 230.67C143.169 231.231 143.252 231.744 143.419 232.21C143.589 232.676 143.849 233.049 144.197 233.33C144.55 233.61 144.993 233.75 145.527 233.75ZM153.185 229.818V235H151.486V226.273H153.116V227.693H153.224C153.425 227.231 153.74 226.86 154.168 226.58C154.599 226.299 155.143 226.159 155.798 226.159C156.393 226.159 156.914 226.284 157.361 226.534C157.808 226.78 158.154 227.148 158.401 227.636C158.647 228.125 158.77 228.729 158.77 229.449V235H157.071V229.653C157.071 229.021 156.906 228.527 156.577 228.17C156.247 227.811 155.795 227.631 155.219 227.631C154.825 227.631 154.474 227.716 154.168 227.886C153.865 228.057 153.624 228.307 153.446 228.636C153.272 228.962 153.185 229.356 153.185 229.818Z" fill="#111928"/>
<path d="M429.801 158.364H431.551V166.614C431.551 167.36 431.403 167.998 431.108 168.528C430.816 169.059 430.405 169.464 429.875 169.744C429.345 170.021 428.723 170.159 428.011 170.159C427.356 170.159 426.767 170.04 426.244 169.801C425.725 169.562 425.314 169.216 425.011 168.761C424.712 168.303 424.562 167.746 424.562 167.091H426.307C426.307 167.413 426.381 167.691 426.528 167.926C426.68 168.161 426.886 168.345 427.148 168.477C427.413 168.606 427.716 168.67 428.057 168.67C428.428 168.67 428.742 168.593 429 168.438C429.261 168.278 429.46 168.045 429.597 167.739C429.733 167.432 429.801 167.057 429.801 166.614V158.364ZM439.499 166.381V161.273H441.203V170H439.533V168.489H439.442C439.241 168.955 438.919 169.343 438.476 169.653C438.036 169.96 437.489 170.114 436.834 170.114C436.273 170.114 435.777 169.991 435.345 169.744C434.917 169.494 434.58 169.125 434.334 168.636C434.091 168.148 433.97 167.544 433.97 166.824V161.273H435.669V166.619C435.669 167.214 435.834 167.687 436.163 168.04C436.493 168.392 436.921 168.568 437.447 168.568C437.766 168.568 438.082 168.489 438.396 168.33C438.714 168.17 438.978 167.93 439.186 167.608C439.398 167.286 439.502 166.877 439.499 166.381ZM445.185 164.818V170H443.486V161.273H445.116V162.693H445.224C445.425 162.231 445.74 161.86 446.168 161.58C446.599 161.299 447.143 161.159 447.798 161.159C448.393 161.159 448.914 161.284 449.361 161.534C449.808 161.78 450.154 162.148 450.401 162.636C450.647 163.125 450.77 163.729 450.77 164.449V170H449.071V164.653C449.071 164.021 448.906 163.527 448.577 163.17C448.247 162.811 447.795 162.631 447.219 162.631C446.825 162.631 446.474 162.716 446.168 162.886C445.865 163.057 445.624 163.307 445.446 163.636C445.272 163.962 445.185 164.356 445.185 164.818ZM456.81 170.176C455.95 170.176 455.209 169.992 454.588 169.625C453.971 169.254 453.493 168.733 453.156 168.062C452.823 167.388 452.656 166.598 452.656 165.693C452.656 164.799 452.823 164.011 453.156 163.33C453.493 162.648 453.963 162.116 454.565 161.733C455.171 161.35 455.88 161.159 456.69 161.159C457.183 161.159 457.66 161.241 458.122 161.403C458.584 161.566 458.999 161.822 459.366 162.17C459.734 162.519 460.024 162.972 460.236 163.528C460.448 164.081 460.554 164.754 460.554 165.545V166.148H453.616V164.875H458.889C458.889 164.428 458.798 164.032 458.616 163.688C458.435 163.339 458.179 163.064 457.849 162.864C457.524 162.663 457.141 162.562 456.702 162.562C456.224 162.562 455.808 162.68 455.452 162.915C455.099 163.146 454.827 163.449 454.634 163.824C454.444 164.195 454.349 164.598 454.349 165.034V166.028C454.349 166.612 454.452 167.108 454.656 167.517C454.865 167.926 455.154 168.239 455.526 168.455C455.897 168.667 456.33 168.773 456.827 168.773C457.149 168.773 457.442 168.727 457.707 168.636C457.973 168.542 458.202 168.402 458.395 168.216C458.588 168.03 458.736 167.801 458.838 167.528L460.446 167.818C460.317 168.292 460.086 168.706 459.753 169.062C459.423 169.415 459.009 169.689 458.509 169.886C458.012 170.08 457.446 170.176 456.81 170.176ZM466.651 170V168.727L470.588 164.648C471.009 164.205 471.355 163.816 471.628 163.483C471.904 163.146 472.111 162.826 472.247 162.523C472.384 162.22 472.452 161.898 472.452 161.557C472.452 161.17 472.361 160.837 472.179 160.557C471.997 160.273 471.749 160.055 471.435 159.903C471.12 159.748 470.766 159.67 470.372 159.67C469.955 159.67 469.592 159.756 469.281 159.926C468.971 160.097 468.732 160.337 468.565 160.648C468.399 160.958 468.315 161.322 468.315 161.739H466.639C466.639 161.03 466.802 160.411 467.128 159.881C467.454 159.35 467.901 158.939 468.469 158.648C469.037 158.352 469.683 158.205 470.406 158.205C471.137 158.205 471.781 158.35 472.338 158.642C472.899 158.93 473.336 159.324 473.651 159.824C473.965 160.32 474.122 160.881 474.122 161.506C474.122 161.938 474.041 162.36 473.878 162.773C473.719 163.186 473.44 163.646 473.043 164.153C472.645 164.657 472.092 165.269 471.384 165.989L469.071 168.409V168.494H474.31V170H466.651ZM476.463 170V168.727L480.401 164.648C480.821 164.205 481.168 163.816 481.44 163.483C481.717 163.146 481.923 162.826 482.06 162.523C482.196 162.22 482.264 161.898 482.264 161.557C482.264 161.17 482.173 160.837 481.991 160.557C481.81 160.273 481.562 160.055 481.247 159.903C480.933 159.748 480.579 159.67 480.185 159.67C479.768 159.67 479.404 159.756 479.094 159.926C478.783 160.097 478.545 160.337 478.378 160.648C478.211 160.958 478.128 161.322 478.128 161.739H476.452C476.452 161.03 476.615 160.411 476.94 159.881C477.266 159.35 477.713 158.939 478.281 158.648C478.849 158.352 479.495 158.205 480.219 158.205C480.95 158.205 481.594 158.35 482.151 158.642C482.711 158.93 483.149 159.324 483.463 159.824C483.777 160.32 483.935 160.881 483.935 161.506C483.935 161.938 483.853 162.36 483.69 162.773C483.531 163.186 483.253 163.646 482.855 164.153C482.457 164.657 481.904 165.269 481.196 165.989L478.884 168.409V168.494H484.122V170H476.463ZM488.509 168.409L488.423 169.028C488.366 169.483 488.27 169.956 488.134 170.449C488.001 170.945 487.863 171.405 487.719 171.83C487.579 172.254 487.463 172.591 487.372 172.841H486.168C486.217 172.606 486.285 172.288 486.372 171.886C486.459 171.489 486.545 171.044 486.628 170.551C486.711 170.059 486.774 169.557 486.815 169.045L486.872 168.409H488.509ZM490.885 170V168.727L494.822 164.648C495.243 164.205 495.589 163.816 495.862 163.483C496.139 163.146 496.345 162.826 496.482 162.523C496.618 162.22 496.686 161.898 496.686 161.557C496.686 161.17 496.595 160.837 496.413 160.557C496.232 160.273 495.983 160.055 495.669 159.903C495.355 159.748 495 159.67 494.607 159.67C494.19 159.67 493.826 159.756 493.516 159.926C493.205 160.097 492.966 160.337 492.8 160.648C492.633 160.958 492.55 161.322 492.55 161.739H490.874C490.874 161.03 491.036 160.411 491.362 159.881C491.688 159.35 492.135 158.939 492.703 158.648C493.271 158.352 493.917 158.205 494.641 158.205C495.372 158.205 496.016 158.35 496.572 158.642C497.133 158.93 497.571 159.324 497.885 159.824C498.199 160.32 498.357 160.881 498.357 161.506C498.357 161.938 498.275 162.36 498.112 162.773C497.953 163.186 497.675 163.646 497.277 164.153C496.879 164.657 496.326 165.269 495.618 165.989L493.305 168.409V168.494H498.544V170H490.885ZM504.749 170.193C503.851 170.189 503.084 169.953 502.447 169.483C501.811 169.013 501.324 168.33 500.987 167.432C500.65 166.534 500.482 165.453 500.482 164.188C500.482 162.926 500.65 161.848 500.987 160.955C501.328 160.061 501.817 159.379 502.453 158.909C503.093 158.439 503.858 158.205 504.749 158.205C505.639 158.205 506.402 158.441 507.038 158.915C507.675 159.384 508.161 160.066 508.499 160.96C508.839 161.85 509.01 162.926 509.01 164.188C509.01 165.456 508.841 166.54 508.504 167.438C508.167 168.331 507.68 169.015 507.044 169.489C506.408 169.958 505.643 170.193 504.749 170.193ZM504.749 168.676C505.536 168.676 506.152 168.292 506.595 167.523C507.042 166.754 507.266 165.642 507.266 164.188C507.266 163.222 507.163 162.405 506.959 161.739C506.758 161.068 506.468 160.561 506.089 160.216C505.714 159.867 505.268 159.693 504.749 159.693C503.964 159.693 503.349 160.08 502.902 160.852C502.455 161.625 502.23 162.737 502.226 164.188C502.226 165.157 502.326 165.977 502.527 166.648C502.732 167.314 503.021 167.82 503.396 168.165C503.771 168.506 504.222 168.676 504.749 168.676ZM511.026 170V168.727L514.963 164.648C515.384 164.205 515.73 163.816 516.003 163.483C516.279 163.146 516.486 162.826 516.622 162.523C516.759 162.22 516.827 161.898 516.827 161.557C516.827 161.17 516.736 160.837 516.554 160.557C516.372 160.273 516.124 160.055 515.81 159.903C515.495 159.748 515.141 159.67 514.747 159.67C514.33 159.67 513.967 159.756 513.656 159.926C513.346 160.097 513.107 160.337 512.94 160.648C512.774 160.958 512.69 161.322 512.69 161.739H511.014C511.014 161.03 511.177 160.411 511.503 159.881C511.829 159.35 512.276 158.939 512.844 158.648C513.412 158.352 514.058 158.205 514.781 158.205C515.512 158.205 516.156 158.35 516.713 158.642C517.274 158.93 517.711 159.324 518.026 159.824C518.34 160.32 518.497 160.881 518.497 161.506C518.497 161.938 518.416 162.36 518.253 162.773C518.094 163.186 517.815 163.646 517.418 164.153C517.02 164.657 516.467 165.269 515.759 165.989L513.446 168.409V168.494H518.685V170H511.026ZM525.253 158.364V170H523.491V160.125H523.423L520.639 161.943V160.261L523.543 158.364H525.253Z" fill="#111928"/>
<path d="M429.801 223.364H431.551V231.614C431.551 232.36 431.403 232.998 431.108 233.528C430.816 234.059 430.405 234.464 429.875 234.744C429.345 235.021 428.723 235.159 428.011 235.159C427.356 235.159 426.767 235.04 426.244 234.801C425.725 234.562 425.314 234.216 425.011 233.761C424.712 233.303 424.562 232.746 424.562 232.091H426.307C426.307 232.413 426.381 232.691 426.528 232.926C426.68 233.161 426.886 233.345 427.148 233.477C427.413 233.606 427.716 233.67 428.057 233.67C428.428 233.67 428.742 233.593 429 233.438C429.261 233.278 429.46 233.045 429.597 232.739C429.733 232.432 429.801 232.057 429.801 231.614V223.364ZM439.499 231.381V226.273H441.203V235H439.533V233.489H439.442C439.241 233.955 438.919 234.343 438.476 234.653C438.036 234.96 437.489 235.114 436.834 235.114C436.273 235.114 435.777 234.991 435.345 234.744C434.917 234.494 434.58 234.125 434.334 233.636C434.091 233.148 433.97 232.544 433.97 231.824V226.273H435.669V231.619C435.669 232.214 435.834 232.687 436.163 233.04C436.493 233.392 436.921 233.568 437.447 233.568C437.766 233.568 438.082 233.489 438.396 233.33C438.714 233.17 438.978 232.93 439.186 232.608C439.398 232.286 439.502 231.877 439.499 231.381ZM445.185 229.818V235H443.486V226.273H445.116V227.693H445.224C445.425 227.231 445.74 226.86 446.168 226.58C446.599 226.299 447.143 226.159 447.798 226.159C448.393 226.159 448.914 226.284 449.361 226.534C449.808 226.78 450.154 227.148 450.401 227.636C450.647 228.125 450.77 228.729 450.77 229.449V235H449.071V229.653C449.071 229.021 448.906 228.527 448.577 228.17C448.247 227.811 447.795 227.631 447.219 227.631C446.825 227.631 446.474 227.716 446.168 227.886C445.865 228.057 445.624 228.307 445.446 228.636C445.272 228.962 445.185 229.356 445.185 229.818ZM456.81 235.176C455.95 235.176 455.209 234.992 454.588 234.625C453.971 234.254 453.493 233.733 453.156 233.062C452.823 232.388 452.656 231.598 452.656 230.693C452.656 229.799 452.823 229.011 453.156 228.33C453.493 227.648 453.963 227.116 454.565 226.733C455.171 226.35 455.88 226.159 456.69 226.159C457.183 226.159 457.66 226.241 458.122 226.403C458.584 226.566 458.999 226.822 459.366 227.17C459.734 227.519 460.024 227.972 460.236 228.528C460.448 229.081 460.554 229.754 460.554 230.545V231.148H453.616V229.875H458.889C458.889 229.428 458.798 229.032 458.616 228.688C458.435 228.339 458.179 228.064 457.849 227.864C457.524 227.663 457.141 227.562 456.702 227.562C456.224 227.562 455.808 227.68 455.452 227.915C455.099 228.146 454.827 228.449 454.634 228.824C454.444 229.195 454.349 229.598 454.349 230.034V231.028C454.349 231.612 454.452 232.108 454.656 232.517C454.865 232.926 455.154 233.239 455.526 233.455C455.897 233.667 456.33 233.773 456.827 233.773C457.149 233.773 457.442 233.727 457.707 233.636C457.973 233.542 458.202 233.402 458.395 233.216C458.588 233.03 458.736 232.801 458.838 232.528L460.446 232.818C460.317 233.292 460.086 233.706 459.753 234.062C459.423 234.415 459.009 234.689 458.509 234.886C458.012 235.08 457.446 235.176 456.81 235.176ZM470.702 235.159C469.921 235.159 469.224 235.025 468.611 234.756C468.001 234.487 467.518 234.114 467.162 233.636C466.81 233.155 466.62 232.598 466.594 231.966H468.378C468.401 232.311 468.516 232.61 468.724 232.864C468.937 233.114 469.213 233.307 469.554 233.443C469.895 233.58 470.274 233.648 470.69 233.648C471.149 233.648 471.554 233.568 471.906 233.409C472.262 233.25 472.541 233.028 472.741 232.744C472.942 232.456 473.043 232.125 473.043 231.75C473.043 231.36 472.942 231.017 472.741 230.722C472.545 230.422 472.255 230.187 471.872 230.017C471.493 229.847 471.035 229.761 470.497 229.761H469.514V228.33H470.497C470.929 228.33 471.308 228.252 471.634 228.097C471.963 227.941 472.221 227.725 472.406 227.449C472.592 227.169 472.685 226.841 472.685 226.466C472.685 226.106 472.603 225.794 472.44 225.528C472.281 225.259 472.054 225.049 471.759 224.898C471.467 224.746 471.122 224.67 470.724 224.67C470.346 224.67 469.991 224.741 469.662 224.881C469.336 225.017 469.071 225.214 468.866 225.472C468.662 225.725 468.552 226.03 468.537 226.386H466.838C466.857 225.758 467.043 225.205 467.395 224.727C467.751 224.25 468.221 223.877 468.804 223.608C469.387 223.339 470.035 223.205 470.747 223.205C471.493 223.205 472.137 223.35 472.679 223.642C473.224 223.93 473.645 224.314 473.94 224.795C474.24 225.277 474.387 225.803 474.384 226.375C474.387 227.027 474.205 227.58 473.838 228.034C473.474 228.489 472.99 228.794 472.384 228.949V229.04C473.156 229.157 473.755 229.464 474.179 229.96C474.607 230.456 474.819 231.072 474.815 231.807C474.819 232.447 474.641 233.021 474.281 233.528C473.925 234.036 473.438 234.436 472.821 234.727C472.204 235.015 471.497 235.159 470.702 235.159ZM481.014 235.193C480.116 235.189 479.349 234.953 478.713 234.483C478.077 234.013 477.59 233.33 477.253 232.432C476.916 231.534 476.747 230.453 476.747 229.188C476.747 227.926 476.916 226.848 477.253 225.955C477.594 225.061 478.082 224.379 478.719 223.909C479.359 223.439 480.124 223.205 481.014 223.205C481.904 223.205 482.668 223.441 483.304 223.915C483.94 224.384 484.427 225.066 484.764 225.96C485.105 226.85 485.276 227.926 485.276 229.188C485.276 230.456 485.107 231.54 484.77 232.438C484.433 233.331 483.946 234.015 483.31 234.489C482.673 234.958 481.908 235.193 481.014 235.193ZM481.014 233.676C481.802 233.676 482.418 233.292 482.861 232.523C483.308 231.754 483.531 230.642 483.531 229.188C483.531 228.222 483.429 227.405 483.224 226.739C483.024 226.068 482.734 225.561 482.355 225.216C481.98 224.867 481.533 224.693 481.014 224.693C480.23 224.693 479.615 225.08 479.168 225.852C478.721 226.625 478.495 227.737 478.491 229.188C478.491 230.157 478.592 230.977 478.793 231.648C478.997 232.314 479.287 232.82 479.662 233.165C480.037 233.506 480.488 233.676 481.014 233.676ZM489.102 233.409L489.017 234.028C488.96 234.483 488.864 234.956 488.727 235.449C488.595 235.945 488.456 236.405 488.312 236.83C488.172 237.254 488.057 237.591 487.966 237.841H486.761C486.811 237.606 486.879 237.288 486.966 236.886C487.053 236.489 487.138 236.044 487.222 235.551C487.305 235.059 487.367 234.557 487.409 234.045L487.466 233.409H489.102ZM491.479 235V233.727L495.416 229.648C495.837 229.205 496.183 228.816 496.456 228.483C496.732 228.146 496.939 227.826 497.075 227.523C497.212 227.22 497.28 226.898 497.28 226.557C497.28 226.17 497.189 225.837 497.007 225.557C496.825 225.273 496.577 225.055 496.263 224.903C495.948 224.748 495.594 224.67 495.2 224.67C494.784 224.67 494.42 224.756 494.109 224.926C493.799 225.097 493.56 225.337 493.393 225.648C493.227 225.958 493.143 226.322 493.143 226.739H491.467C491.467 226.03 491.63 225.411 491.956 224.881C492.282 224.35 492.729 223.939 493.297 223.648C493.865 223.352 494.511 223.205 495.234 223.205C495.965 223.205 496.609 223.35 497.166 223.642C497.727 223.93 498.164 224.324 498.479 224.824C498.793 225.32 498.95 225.881 498.95 226.506C498.95 226.938 498.869 227.36 498.706 227.773C498.547 228.186 498.268 228.646 497.871 229.153C497.473 229.657 496.92 230.269 496.212 230.989L493.899 233.409V233.494H499.138V235H491.479ZM505.342 235.193C504.445 235.189 503.678 234.953 503.041 234.483C502.405 234.013 501.918 233.33 501.581 232.432C501.244 231.534 501.075 230.453 501.075 229.188C501.075 227.926 501.244 226.848 501.581 225.955C501.922 225.061 502.411 224.379 503.047 223.909C503.687 223.439 504.452 223.205 505.342 223.205C506.232 223.205 506.996 223.441 507.632 223.915C508.268 224.384 508.755 225.066 509.092 225.96C509.433 226.85 509.604 227.926 509.604 229.188C509.604 230.456 509.435 231.54 509.098 232.438C508.761 233.331 508.274 234.015 507.638 234.489C507.001 234.958 506.236 235.193 505.342 235.193ZM505.342 233.676C506.13 233.676 506.746 233.292 507.189 232.523C507.636 231.754 507.859 230.642 507.859 229.188C507.859 228.222 507.757 227.405 507.553 226.739C507.352 226.068 507.062 225.561 506.683 225.216C506.308 224.867 505.861 224.693 505.342 224.693C504.558 224.693 503.943 225.08 503.496 225.852C503.049 226.625 502.823 227.737 502.82 229.188C502.82 230.157 502.92 230.977 503.121 231.648C503.325 232.314 503.615 232.82 503.99 233.165C504.365 233.506 504.816 233.676 505.342 233.676ZM511.619 235V233.727L515.557 229.648C515.977 229.205 516.324 228.816 516.597 228.483C516.873 228.146 517.08 227.826 517.216 227.523C517.352 227.22 517.42 226.898 517.42 226.557C517.42 226.17 517.33 225.837 517.148 225.557C516.966 225.273 516.718 225.055 516.403 224.903C516.089 224.748 515.735 224.67 515.341 224.67C514.924 224.67 514.561 224.756 514.25 224.926C513.939 225.097 513.701 225.337 513.534 225.648C513.367 225.958 513.284 226.322 513.284 226.739H511.608C511.608 226.03 511.771 225.411 512.097 224.881C512.422 224.35 512.869 223.939 513.438 223.648C514.006 223.352 514.652 223.205 515.375 223.205C516.106 223.205 516.75 223.35 517.307 223.642C517.867 223.93 518.305 224.324 518.619 224.824C518.934 225.32 519.091 225.881 519.091 226.506C519.091 226.938 519.009 227.36 518.847 227.773C518.688 228.186 518.409 228.646 518.011 229.153C517.614 229.657 517.061 230.269 516.352 230.989L514.04 233.409V233.494H519.278V235H511.619ZM525.847 223.364V235H524.085V225.125H524.017L521.233 226.943V225.261L524.136 223.364H525.847Z" fill="#111928"/>
<path d="M900 36C900 29.3726 905.373 24 912 24H1008C1014.63 24 1020 29.3726 1020 36V44C1020 50.6274 1014.63 56 1008 56H912C905.373 56 900 50.6274 900 44V36Z" fill="#1C64F2"/>
<path fill-rule="evenodd" clip-rule="evenodd" d="M919 36C919.212 36 919.416 36.0843 919.566 36.2343C919.716 36.3843 919.8 36.5878 919.8 36.8V39.2H922.2C922.412 39.2 922.616 39.2843 922.766 39.4343C922.916 39.5843 923 39.7878 923 40C923 40.2122 922.916 40.4157 922.766 40.5657C922.616 40.7157 922.412 40.8 922.2 40.8H919.8V43.2C919.8 43.4122 919.716 43.6157 919.566 43.7657C919.416 43.9157 919.212 44 919 44C918.788 44 918.584 43.9157 918.434 43.7657C918.284 43.6157 918.2 43.4122 918.2 43.2V40.8H915.8C915.588 40.8 915.384 40.7157 915.234 40.5657C915.084 40.4157 915 40.2122 915 40C915 39.7878 915.084 39.5843 915.234 39.4343C915.384 39.2843 915.588 39.2 915.8 39.2H918.2V36.8C918.2 36.5878 918.284 36.3843 918.434 36.2343C918.584 36.0843 918.788 36 919 36Z" fill="white"/>
<path d="M936.982 44H935.294L938.366 35.2727H940.318L943.395 44H941.707L939.376 37.0625H939.308L936.982 44ZM937.037 40.5781H941.639V41.848H937.037V40.5781ZM946.706 44.1151C946.192 44.1151 945.732 43.983 945.325 43.7188C944.919 43.4545 944.598 43.071 944.362 42.5682C944.126 42.0653 944.009 41.4545 944.009 40.7358C944.009 40.0085 944.128 39.3949 944.366 38.8949C944.608 38.392 944.933 38.0128 945.342 37.7571C945.751 37.4986 946.207 37.3693 946.71 37.3693C947.094 37.3693 947.409 37.4347 947.656 37.5653C947.903 37.6932 948.099 37.848 948.244 38.0298C948.389 38.2088 948.501 38.3778 948.581 38.5369H948.645V35.2727H950.192V44H948.675V42.9688H948.581C948.501 43.1278 948.386 43.2969 948.236 43.4759C948.085 43.652 947.886 43.8026 947.639 43.9276C947.392 44.0526 947.081 44.1151 946.706 44.1151ZM947.136 42.8494C947.463 42.8494 947.741 42.7614 947.972 42.5852C948.202 42.4062 948.376 42.1577 948.496 41.8395C948.615 41.5213 948.675 41.1506 948.675 40.7273C948.675 40.304 948.615 39.9361 948.496 39.6236C948.379 39.3111 948.206 39.0682 947.976 38.8949C947.749 38.7216 947.469 38.6349 947.136 38.6349C946.793 38.6349 946.506 38.7244 946.276 38.9034C946.045 39.0824 945.872 39.3295 945.756 39.6449C945.639 39.9602 945.581 40.321 945.581 40.7273C945.581 41.1364 945.639 41.5014 945.756 41.8224C945.875 42.1406 946.05 42.392 946.28 42.5767C946.513 42.7585 946.798 42.8494 947.136 42.8494ZM954.265 44.1151C953.75 44.1151 953.29 43.983 952.884 43.7188C952.478 43.4545 952.157 43.071 951.921 42.5682C951.685 42.0653 951.567 41.4545 951.567 40.7358C951.567 40.0085 951.686 39.3949 951.925 38.8949C952.167 38.392 952.492 38.0128 952.901 37.7571C953.31 37.4986 953.766 37.3693 954.269 37.3693C954.652 37.3693 954.968 37.4347 955.215 37.5653C955.462 37.6932 955.658 37.848 955.803 38.0298C955.948 38.2088 956.06 38.3778 956.14 38.5369H956.203V35.2727H957.75V44H956.233V42.9688H956.14C956.06 43.1278 955.945 43.2969 955.794 43.4759C955.644 43.652 955.445 43.8026 955.198 43.9276C954.951 44.0526 954.64 44.1151 954.265 44.1151ZM954.695 42.8494C955.022 42.8494 955.3 42.7614 955.53 42.5852C955.76 42.4062 955.935 42.1577 956.054 41.8395C956.174 41.5213 956.233 41.1506 956.233 40.7273C956.233 40.304 956.174 39.9361 956.054 39.6236C955.938 39.3111 955.765 39.0682 955.534 38.8949C955.307 38.7216 955.027 38.6349 954.695 38.6349C954.351 38.6349 954.064 38.7244 953.834 38.9034C953.604 39.0824 953.431 39.3295 953.314 39.6449C953.198 39.9602 953.14 40.321 953.14 40.7273C953.14 41.1364 953.198 41.5014 953.314 41.8224C953.434 42.1406 953.608 42.392 953.838 42.5767C954.071 42.7585 954.357 42.8494 954.695 42.8494ZM969.909 38.2173H968.315C968.27 37.956 968.186 37.7244 968.064 37.5227C967.942 37.3182 967.79 37.1449 967.608 37.0028C967.426 36.8608 967.219 36.7543 966.986 36.6832C966.756 36.6094 966.507 36.5724 966.24 36.5724C965.766 36.5724 965.345 36.6918 964.979 36.9304C964.612 37.1662 964.325 37.5128 964.118 37.9702C963.911 38.4247 963.807 38.9801 963.807 39.6364C963.807 40.304 963.911 40.8665 964.118 41.3239C964.328 41.7784 964.615 42.1222 964.979 42.3551C965.345 42.5852 965.764 42.7003 966.236 42.7003C966.497 42.7003 966.741 42.6662 966.969 42.598C967.199 42.527 967.405 42.4233 967.587 42.2869C967.771 42.1506 967.926 41.983 968.051 41.7841C968.179 41.5852 968.267 41.358 968.315 41.1023L969.909 41.1108C969.849 41.5256 969.72 41.9148 969.521 42.2784C969.325 42.642 969.068 42.9631 968.75 43.2415C968.432 43.517 968.06 43.733 967.634 43.8892C967.207 44.0426 966.734 44.1193 966.214 44.1193C965.447 44.1193 964.763 43.9418 964.161 43.5866C963.558 43.2315 963.084 42.7188 962.737 42.0483C962.391 41.3778 962.217 40.5739 962.217 39.6364C962.217 38.696 962.392 37.892 962.741 37.2244C963.091 36.554 963.567 36.0412 964.169 35.6861C964.771 35.331 965.453 35.1534 966.214 35.1534C966.7 35.1534 967.152 35.2216 967.57 35.358C967.987 35.4943 968.359 35.6946 968.686 35.9588C969.013 36.2202 969.281 36.5412 969.491 36.9219C969.705 37.2997 969.844 37.7315 969.909 38.2173ZM974.144 44.1278C973.505 44.1278 972.951 43.9872 972.482 43.706C972.013 43.4247 971.65 43.0312 971.391 42.5256C971.135 42.0199 971.007 41.429 971.007 40.7528C971.007 40.0767 971.135 39.4844 971.391 38.9759C971.65 38.4673 972.013 38.0724 972.482 37.7912C972.951 37.5099 973.505 37.3693 974.144 37.3693C974.783 37.3693 975.337 37.5099 975.806 37.7912C976.275 38.0724 976.637 38.4673 976.892 38.9759C977.151 39.4844 977.28 40.0767 977.28 40.7528C977.28 41.429 977.151 42.0199 976.892 42.5256C976.637 43.0312 976.275 43.4247 975.806 43.706C975.337 43.9872 974.783 44.1278 974.144 44.1278ZM974.152 42.892C974.499 42.892 974.789 42.7969 975.022 42.6065C975.255 42.4134 975.428 42.1548 975.542 41.831C975.658 41.5071 975.716 41.1463 975.716 40.7486C975.716 40.348 975.658 39.9858 975.542 39.6619C975.428 39.3352 975.255 39.0753 975.022 38.8821C974.789 38.6889 974.499 38.5923 974.152 38.5923C973.797 38.5923 973.502 38.6889 973.266 38.8821C973.033 39.0753 972.858 39.3352 972.742 39.6619C972.628 39.9858 972.571 40.348 972.571 40.7486C972.571 41.1463 972.628 41.5071 972.742 41.831C972.858 42.1548 973.033 42.4134 973.266 42.6065C973.502 42.7969 973.797 42.892 974.152 42.892ZM980.132 40.1648V44H978.589V37.4545H980.064V38.5668H980.141C980.291 38.2003 980.531 37.9091 980.861 37.6932C981.193 37.4773 981.604 37.3693 982.092 37.3693C982.544 37.3693 982.938 37.4659 983.273 37.6591C983.611 37.8523 983.872 38.1321 984.057 38.4986C984.244 38.8651 984.337 39.3097 984.334 39.8324V44H982.791V40.071C982.791 39.6335 982.678 39.2912 982.45 39.044C982.226 38.7969 981.915 38.6733 981.517 38.6733C981.247 38.6733 981.007 38.733 980.797 38.8523C980.589 38.9687 980.426 39.1378 980.307 39.3594C980.19 39.581 980.132 39.8494 980.132 40.1648ZM989.17 37.4545V38.6477H985.408V37.4545H989.17ZM986.337 35.8864H987.879V42.0312C987.879 42.2386 987.911 42.3977 987.973 42.5085C988.038 42.6165 988.124 42.6903 988.229 42.7301C988.334 42.7699 988.45 42.7898 988.578 42.7898C988.675 42.7898 988.763 42.7827 988.842 42.7685C988.925 42.7543 988.987 42.7415 989.03 42.7301L989.29 43.9361C989.207 43.9645 989.089 43.9957 988.936 44.0298C988.786 44.0639 988.601 44.0838 988.382 44.0895C987.996 44.1009 987.648 44.0426 987.338 43.9148C987.028 43.7841 986.783 43.5824 986.601 43.3097C986.422 43.0369 986.334 42.696 986.337 42.2869V35.8864ZM993.288 44.1278C992.632 44.1278 992.065 43.9915 991.588 43.7188C991.113 43.4432 990.748 43.054 990.493 42.5511C990.237 42.0455 990.109 41.4503 990.109 40.7656C990.109 40.0923 990.237 39.5014 990.493 38.9929C990.751 38.4815 991.112 38.0838 991.575 37.7997C992.038 37.5128 992.582 37.3693 993.207 37.3693C993.61 37.3693 993.991 37.4347 994.349 37.5653C994.71 37.6932 995.028 37.892 995.304 38.1619C995.582 38.4318 995.801 38.7756 995.96 39.1932C996.119 39.608 996.199 40.1023 996.199 40.6761V41.1491H990.833V40.1094H994.72C994.717 39.8139 994.653 39.5511 994.528 39.321C994.403 39.0881 994.228 38.9048 994.004 38.7713C993.782 38.6378 993.524 38.571 993.228 38.571C992.913 38.571 992.636 38.6477 992.397 38.8011C992.159 38.9517 991.973 39.1506 991.839 39.3977C991.708 39.642 991.642 39.9105 991.639 40.2031V41.1108C991.639 41.4915 991.708 41.8182 991.848 42.0909C991.987 42.3608 992.181 42.5682 992.431 42.7131C992.681 42.8551 992.974 42.9261 993.309 42.9261C993.534 42.9261 993.737 42.8949 993.919 42.8324C994.1 42.767 994.258 42.6719 994.392 42.5469C994.525 42.4219 994.626 42.267 994.694 42.0824L996.135 42.2443C996.044 42.625 995.87 42.9574 995.615 43.2415C995.362 43.5227 995.038 43.7415 994.643 43.8977C994.248 44.0511 993.797 44.1278 993.288 44.1278ZM999.046 40.1648V44H997.504V37.4545H998.978V38.5668H999.055C999.205 38.2003 999.445 37.9091 999.775 37.6932C1000.11 37.4773 1000.52 37.3693 1001.01 37.3693C1001.46 37.3693 1001.85 37.4659 1002.19 37.6591C1002.52 37.8523 1002.79 38.1321 1002.97 38.4986C1003.16 38.8651 1003.25 39.3097 1003.25 39.8324V44H1001.71V40.071C1001.71 39.6335 1001.59 39.2912 1001.36 39.044C1001.14 38.7969 1000.83 38.6733 1000.43 38.6733C1000.16 38.6733 999.921 38.733 999.711 38.8523C999.504 38.9687 999.34 39.1378 999.221 39.3594C999.104 39.581 999.046 39.8494 999.046 40.1648ZM1008.08 37.4545V38.6477H1004.32V37.4545H1008.08ZM1005.25 35.8864H1006.79V42.0312C1006.79 42.2386 1006.82 42.3977 1006.89 42.5085C1006.95 42.6165 1007.04 42.6903 1007.14 42.7301C1007.25 42.7699 1007.36 42.7898 1007.49 42.7898C1007.59 42.7898 1007.68 42.7827 1007.76 42.7685C1007.84 42.7543 1007.9 42.7415 1007.94 42.7301L1008.2 43.9361C1008.12 43.9645 1008 43.9957 1007.85 44.0298C1007.7 44.0639 1007.51 44.0838 1007.3 44.0895C1006.91 44.1009 1006.56 44.0426 1006.25 43.9148C1005.94 43.7841 1005.7 43.5824 1005.51 43.3097C1005.34 43.0369 1005.25 42.696 1005.25 42.2869V35.8864Z" fill="white"/>
<path d="M32.4964 37.326H30.1058C30.0376 36.9339 29.9119 36.5866 29.7287 36.2841C29.5455 35.9773 29.3175 35.7173 29.0447 35.5043C28.772 35.2912 28.4609 35.1314 28.1115 35.0249C27.7663 34.9141 27.3935 34.8587 26.9929 34.8587C26.2813 34.8587 25.6506 35.0376 25.1009 35.3956C24.5511 35.7493 24.1207 36.2692 23.8097 36.9553C23.4986 37.6371 23.343 38.4702 23.343 39.4545C23.343 40.456 23.4986 41.2997 23.8097 41.9858C24.125 42.6676 24.5554 43.1832 25.1009 43.5327C25.6506 43.8778 26.2791 44.0504 26.9865 44.0504C27.3786 44.0504 27.745 43.9993 28.0859 43.897C28.4311 43.7905 28.7401 43.6349 29.0128 43.4304C29.2898 43.2259 29.522 42.9744 29.7095 42.6761C29.9013 42.3778 30.0334 42.0369 30.1058 41.6534L32.4964 41.6662C32.407 42.2884 32.2131 42.8722 31.9148 43.4176C31.6207 43.9631 31.2351 44.4446 30.7578 44.8622C30.2805 45.2756 29.7223 45.5994 29.0831 45.8338C28.4439 46.0639 27.7344 46.179 26.9545 46.179C25.804 46.179 24.777 45.9126 23.8736 45.38C22.9702 44.8473 22.2585 44.0781 21.7386 43.0724C21.2188 42.0668 20.9588 40.8608 20.9588 39.4545C20.9588 38.044 21.2209 36.8381 21.745 35.8366C22.2692 34.831 22.983 34.0618 23.8864 33.5291C24.7898 32.9964 25.8125 32.7301 26.9545 32.7301C27.6832 32.7301 28.3608 32.8324 28.9872 33.0369C29.6136 33.2415 30.1719 33.5419 30.6619 33.9382C31.152 34.3303 31.5547 34.8118 31.87 35.3828C32.1896 35.9496 32.3984 36.5973 32.4964 37.326ZM38.8485 46.1918C37.8897 46.1918 37.0588 45.9808 36.3556 45.5589C35.6525 45.1371 35.1071 44.5469 34.7193 43.7884C34.3358 43.0298 34.144 42.1435 34.144 41.1293C34.144 40.1151 34.3358 39.2266 34.7193 38.4638C35.1071 37.701 35.6525 37.1087 36.3556 36.6868C37.0588 36.2649 37.8897 36.054 38.8485 36.054C39.8074 36.054 40.6383 36.2649 41.3414 36.6868C42.0446 37.1087 42.5879 37.701 42.9714 38.4638C43.3592 39.2266 43.5531 40.1151 43.5531 41.1293C43.5531 42.1435 43.3592 43.0298 42.9714 43.7884C42.5879 44.5469 42.0446 45.1371 41.3414 45.5589C40.6383 45.9808 39.8074 46.1918 38.8485 46.1918ZM38.8613 44.3381C39.3812 44.3381 39.8159 44.1953 40.1653 43.9098C40.5147 43.62 40.7747 43.2322 40.9451 42.7464C41.1199 42.2607 41.2072 41.7195 41.2072 41.1229C41.2072 40.522 41.1199 39.9787 40.9451 39.4929C40.7747 39.0028 40.5147 38.6129 40.1653 38.3232C39.8159 38.0334 39.3812 37.8885 38.8613 37.8885C38.3287 37.8885 37.8855 38.0334 37.5318 38.3232C37.1824 38.6129 36.9203 39.0028 36.7456 39.4929C36.5751 39.9787 36.4899 40.522 36.4899 41.1229C36.4899 41.7195 36.5751 42.2607 36.7456 42.7464C36.9203 43.2322 37.1824 43.62 37.5318 43.9098C37.8855 44.1953 38.3287 44.3381 38.8613 44.3381ZM47.831 40.2472V46H45.517V36.1818H47.7287V37.8501H47.8438C48.0696 37.3004 48.4297 36.8636 48.924 36.5398C49.4226 36.2159 50.0384 36.054 50.7713 36.054C51.4489 36.054 52.0391 36.1989 52.5419 36.4886C53.049 36.7784 53.4411 37.1982 53.718 37.7479C53.9993 38.2976 54.1378 38.9645 54.1335 39.7486V46H51.8196V40.1065C51.8196 39.4503 51.6491 38.9368 51.3082 38.5661C50.9716 38.1953 50.505 38.0099 49.9084 38.0099C49.5036 38.0099 49.1435 38.0994 48.8281 38.2784C48.517 38.4531 48.272 38.7067 48.093 39.0391C47.9183 39.3714 47.831 39.7741 47.831 40.2472ZM61.3885 36.1818V37.9716H55.7443V36.1818H61.3885ZM57.1378 33.8295H59.4517V43.0469C59.4517 43.358 59.4986 43.5966 59.5923 43.7628C59.6903 43.9247 59.8182 44.0355 59.9759 44.0952C60.1335 44.1548 60.3082 44.1847 60.5 44.1847C60.6449 44.1847 60.777 44.174 60.8963 44.1527C61.0199 44.1314 61.1136 44.1122 61.1776 44.0952L61.5675 45.9041C61.4439 45.9467 61.267 45.9936 61.0369 46.0447C60.8111 46.0959 60.5341 46.1257 60.206 46.1342C59.6264 46.1513 59.1044 46.0639 58.6399 45.8722C58.1754 45.6761 57.8068 45.3736 57.5341 44.9645C57.2656 44.5554 57.1335 44.044 57.1378 43.4304V33.8295ZM67.5648 46.1918C66.5804 46.1918 65.7303 45.9872 65.0144 45.5781C64.3027 45.1648 63.7551 44.581 63.3716 43.8267C62.9881 43.0682 62.7963 42.1754 62.7963 41.1484C62.7963 40.1385 62.9881 39.2521 63.3716 38.4893C63.7594 37.7223 64.3006 37.1257 64.9952 36.6996C65.6898 36.2692 66.5059 36.054 67.4434 36.054C68.0485 36.054 68.6195 36.152 69.1564 36.348C69.6976 36.5398 70.1749 36.8381 70.5882 37.2429C71.0059 37.6477 71.334 38.1634 71.5726 38.7898C71.8113 39.4119 71.9306 40.1534 71.9306 41.0142V41.7237H63.883V40.1641H69.7125C69.7083 39.7209 69.6124 39.3267 69.4249 38.9815C69.2374 38.6321 68.9753 38.3572 68.6387 38.157C68.3063 37.9567 67.9185 37.8565 67.4753 37.8565C67.0023 37.8565 66.5868 37.9716 66.2289 38.2017C65.8709 38.4276 65.5918 38.7259 65.3915 39.0966C65.1955 39.4631 65.0953 39.8658 65.0911 40.3047V41.6662C65.0911 42.2372 65.1955 42.7273 65.4043 43.1364C65.6131 43.5412 65.905 43.8523 66.28 44.0696C66.655 44.2827 67.0939 44.3892 67.5968 44.3892C67.9334 44.3892 68.2381 44.3423 68.5108 44.2486C68.7836 44.1506 69.0201 44.0078 69.2203 43.8203C69.4206 43.6328 69.5719 43.4006 69.6742 43.1236L71.8347 43.3665C71.6983 43.9375 71.4384 44.4361 71.0549 44.8622C70.6756 45.2841 70.1898 45.6122 69.5975 45.8466C69.0051 46.0767 68.3276 46.1918 67.5648 46.1918ZM76.2021 40.2472V46H73.8881V36.1818H76.0998V37.8501H76.2148C76.4407 37.3004 76.8008 36.8636 77.2951 36.5398C77.7937 36.2159 78.4094 36.054 79.1424 36.054C79.82 36.054 80.4102 36.1989 80.913 36.4886C81.4201 36.7784 81.8121 37.1982 82.0891 37.7479C82.3704 38.2976 82.5089 38.9645 82.5046 39.7486V46H80.1907V40.1065C80.1907 39.4503 80.0202 38.9368 79.6793 38.5661C79.3427 38.1953 78.8761 38.0099 78.2795 38.0099C77.8746 38.0099 77.5146 38.0994 77.1992 38.2784C76.8881 38.4531 76.6431 38.7067 76.4641 39.0391C76.2894 39.3714 76.2021 39.7741 76.2021 40.2472ZM89.7596 36.1818V37.9716H84.1154V36.1818H89.7596ZM85.5089 33.8295H87.8228V43.0469C87.8228 43.358 87.8697 43.5966 87.9634 43.7628C88.0614 43.9247 88.1893 44.0355 88.3469 44.0952C88.5046 44.1548 88.6793 44.1847 88.8711 44.1847C89.016 44.1847 89.1481 44.174 89.2674 44.1527C89.391 44.1314 89.4847 44.1122 89.5487 44.0952L89.9386 45.9041C89.815 45.9467 89.6381 45.9936 89.408 46.0447C89.1822 46.0959 88.9052 46.1257 88.5771 46.1342C87.9975 46.1513 87.4755 46.0639 87.011 45.8722C86.5465 45.6761 86.1779 45.3736 85.9052 44.9645C85.6367 44.5554 85.5046 44.044 85.5089 43.4304V33.8295Z" fill="#111928"/>
<path d="M1010 160C1009.47 160 1008.96 159.789 1008.59 159.414C1008.21 159.039 1008 158.53 1008 158C1008 157.47 1008.21 156.961 1008.59 156.586C1008.96 156.211 1009.47 156 1010 156C1010.53 156 1011.04 156.211 1011.41 156.586C1011.79 156.961 1012 157.47 1012 158C1012 158.53 1011.79 159.039 1011.41 159.414C1011.04 159.789 1010.53 160 1010 160ZM1010 166C1009.47 166 1008.96 165.789 1008.59 165.414C1008.21 165.039 1008 164.53 1008 164C1008 163.47 1008.21 162.961 1008.59 162.586C1008.96 162.211 1009.47 162 1010 162C1010.53 162 1011.04 162.211 1011.41 162.586C1011.79 162.961 1012 163.47 1012 164C1012 164.53 1011.79 165.039 1011.41 165.414C1011.04 165.789 1010.53 166 1010 166ZM1010 172C1009.47 172 1008.96 171.789 1008.59 171.414C1008.21 171.039 1008 170.53 1008 170C1008 169.47 1008.21 168.961 1008.59 168.586C1008.96 168.211 1009.47 168 1010 168C1010.53 168 1011.04 168.211 1011.41 168.586C1011.79 168.961 1012 169.47 1012 170C1012 170.53 1011.79 171.039 1011.41 171.414C1011.04 171.789 1010.53 172 1010 172Z" fill="black"/>
<path d="M1010 225C1009.47 225 1008.96 224.789 1008.59 224.414C1008.21 224.039 1008 223.53 1008 223C1008 222.47 1008.21 221.961 1008.59 221.586C1008.96 221.211 1009.47 221 1010 221C1010.53 221 1011.04 221.211 1011.41 221.586C1011.79 221.961 1012 222.47 1012 223C1012 223.53 1011.79 224.039 1011.41 224.414C1011.04 224.789 1010.53 225 1010 225ZM1010 231C1009.47 231 1008.96 230.789 1008.59 230.414C1008.21 230.039 1008 229.53 1008 229C1008 228.47 1008.21 227.961 1008.59 227.586C1008.96 227.211 1009.47 227 1010 227C1010.53 227 1011.04 227.211 1011.41 227.586C1011.79 227.961 1012 228.47 1012 229C1012 229.53 1011.79 230.039 1011.41 230.414C1011.04 230.789 1010.53 231 1010 231ZM1010 237C1009.47 237 1008.96 236.789 1008.59 236.414C1008.21 236.039 1008 235.53 1008 235C1008 234.47 1008.21 233.961 1008.59 233.586C1008.96 233.211 1009.47 233 1010 233C1010.53 233 1011.04 233.211 1011.41 233.586C1011.79 233.961 1012 234.47 1012 235C1012 235.53 1011.79 236.039 1011.41 236.414C1011.04 236.789 1010.53 237 1010 237Z" fill="black"/>
</svg>
