
<svg width="686" height="126" viewBox="0 0 686 126" fill="none" xmlns="http://www.w3.org/2000/svg">
<rect x="1" y="1" width="684" height="124" rx="20" fill="#EBF5FF"/>
<path d="M260.167 69.667L267.81 62.0237C268.435 61.3988 269.283 61.0477 270.167 61.0477C271.051 61.0477 271.898 61.3988 272.523 62.0237L280.167 69.667M276.833 66.3337L279.477 63.6903C280.102 63.0654 280.949 62.7144 281.833 62.7144C282.717 62.7144 283.565 63.0654 284.19 63.6903L286.833 66.3337M276.833 56.3337H276.85M263.5 76.3337H283.5C284.384 76.3337 285.232 75.9825 285.857 75.3573C286.482 74.7322 286.833 73.8844 286.833 73.0003V53.0003C286.833 52.1163 286.482 51.2684 285.857 50.6433C285.232 50.0182 284.384 49.667 283.5 49.667H263.5C262.616 49.667 261.768 50.0182 261.143 50.6433C260.518 51.2684 260.167 52.1163 260.167 53.0003V73.0003C260.167 73.8844 260.518 74.7322 261.143 75.3573C261.768 75.9825 262.616 76.3337 263.5 76.3337Z" stroke="#1C64F2" stroke-width="2" stroke-linecap="round" stroke-linejoin="round"/>
<path d="M305.118 68C308.22 68 310.059 66.081 310.059 62.8991C310.059 59.7273 308.22 57.8182 305.187 57.8182H301.667V68H305.118ZM303.512 66.4041V59.4141H305.083C307.151 59.4141 308.23 60.5675 308.23 62.8991C308.23 65.2408 307.151 66.4041 305.028 66.4041H303.512ZM311.732 68H313.532V63.5107C313.532 62.5412 314.263 61.8551 315.252 61.8551C315.555 61.8551 315.933 61.9098 316.087 61.9595V60.304C315.923 60.2741 315.64 60.2543 315.441 60.2543C314.566 60.2543 313.835 60.7514 313.557 61.6364H313.477V60.3636H311.732V68ZM320.3 68.1491C322.537 68.1491 323.959 66.5732 323.959 64.2116C323.959 61.8452 322.537 60.2642 320.3 60.2642C318.062 60.2642 316.641 61.8452 316.641 64.2116C316.641 66.5732 318.062 68.1491 320.3 68.1491ZM320.31 66.7074C319.072 66.7074 318.465 65.6037 318.465 64.2067C318.465 62.8097 319.072 61.6911 320.31 61.6911C321.528 61.6911 322.134 62.8097 322.134 64.2067C322.134 65.6037 321.528 66.7074 320.31 66.7074ZM325.486 70.8636H327.286V66.7969H327.361C327.644 67.3537 328.236 68.1342 329.548 68.1342C331.348 68.1342 332.695 66.7074 332.695 64.1918C332.695 61.6463 331.308 60.2642 329.543 60.2642C328.196 60.2642 327.634 61.0746 327.361 61.6264H327.256V60.3636H325.486V70.8636ZM327.251 64.1818C327.251 62.7003 327.888 61.7408 329.046 61.7408C330.244 61.7408 330.861 62.7599 330.861 64.1818C330.861 65.6136 330.234 66.6577 329.046 66.6577C327.897 66.6577 327.251 65.6634 327.251 64.1818ZM341.577 60.3636H339.991V59.7621C339.991 59.1655 340.239 58.8324 340.911 58.8324C341.194 58.8324 341.433 58.897 341.582 58.9418L341.945 57.5497C341.711 57.4702 341.199 57.3409 340.578 57.3409C339.25 57.3409 338.191 58.1016 338.191 59.6428V60.3636H337.063V61.7557H338.191V68H339.991V61.7557H341.577V60.3636ZM342.986 68H344.786V60.3636H342.986V68ZM343.891 59.2798C344.463 59.2798 344.93 58.8423 344.93 58.3054C344.93 57.7635 344.463 57.326 343.891 57.326C343.314 57.326 342.847 57.7635 342.847 58.3054C342.847 58.8423 343.314 59.2798 343.891 59.2798ZM348.436 57.8182H346.637V68H348.436V57.8182ZM353.668 68.1491C355.448 68.1491 356.671 67.2791 356.989 65.9517L355.308 65.7628C355.065 66.4091 354.468 66.7472 353.693 66.7472C352.529 66.7472 351.759 65.9815 351.744 64.674H357.063V64.1222C357.063 61.4425 355.453 60.2642 353.573 60.2642C351.386 60.2642 349.959 61.87 349.959 64.2266C349.959 66.6229 351.366 68.1491 353.668 68.1491ZM351.749 63.4609C351.803 62.4865 352.524 61.6662 353.598 61.6662C354.632 61.6662 355.328 62.4219 355.338 63.4609H351.749ZM364.621 62.3821C364.373 61.0895 363.339 60.2642 361.549 60.2642C359.709 60.2642 358.457 61.169 358.462 62.581C358.457 63.6946 359.143 64.4304 360.609 64.7337L361.912 65.0071C362.613 65.1612 362.941 65.4446 362.941 65.8771C362.941 66.3991 362.374 66.7919 361.519 66.7919C360.694 66.7919 360.157 66.4339 360.003 65.7479L358.248 65.9169C358.472 67.3189 359.65 68.1491 361.524 68.1491C363.433 68.1491 364.78 67.1598 364.785 65.7131C364.78 64.6243 364.079 63.9581 362.638 63.6449L361.335 63.3665C360.56 63.1925 360.251 62.924 360.256 62.4815C360.251 61.9645 360.823 61.6065 361.574 61.6065C362.404 61.6065 362.842 62.0589 362.981 62.5611L364.621 62.3821ZM373.555 60.3636H372.049V58.5341H370.249V60.3636H369.165V61.7557H370.249V66.0014C370.239 67.4382 371.283 68.1442 372.636 68.1044C373.148 68.0895 373.501 67.9901 373.695 67.9254L373.391 66.5185C373.292 66.5433 373.088 66.5881 372.864 66.5881C372.412 66.5881 372.049 66.429 372.049 65.7031V61.7557H373.555V60.3636ZM378.309 68.1491C380.547 68.1491 381.968 66.5732 381.968 64.2116C381.968 61.8452 380.547 60.2642 378.309 60.2642C376.072 60.2642 374.65 61.8452 374.65 64.2116C374.65 66.5732 376.072 68.1491 378.309 68.1491ZM378.319 66.7074C377.081 66.7074 376.475 65.6037 376.475 64.2067C376.475 62.8097 377.081 61.6911 378.319 61.6911C379.537 61.6911 380.144 62.8097 380.144 64.2067C380.144 65.6037 379.537 66.7074 378.319 66.7074ZM391.836 64.7884C391.836 65.9517 391.006 66.5284 390.21 66.5284C389.345 66.5284 388.768 65.9169 388.768 64.9474V60.3636H386.969V65.2259C386.969 67.0604 388.013 68.0994 389.514 68.0994C390.658 68.0994 391.463 67.4979 391.811 66.6428H391.891V68H393.636V60.3636H391.836V64.7884ZM395.486 70.8636H397.286V66.7969H397.361C397.644 67.3537 398.236 68.1342 399.548 68.1342C401.348 68.1342 402.695 66.7074 402.695 64.1918C402.695 61.6463 401.308 60.2642 399.543 60.2642C398.196 60.2642 397.634 61.0746 397.361 61.6264H397.256V60.3636H395.486V70.8636ZM397.251 64.1818C397.251 62.7003 397.888 61.7408 399.046 61.7408C400.244 61.7408 400.861 62.7599 400.861 64.1818C400.861 65.6136 400.234 66.6577 399.046 66.6577C397.897 66.6577 397.251 65.6634 397.251 64.1818ZM406.036 57.8182H404.236V68H406.036V57.8182ZM411.218 68.1491C413.455 68.1491 414.877 66.5732 414.877 64.2116C414.877 61.8452 413.455 60.2642 411.218 60.2642C408.98 60.2642 407.559 61.8452 407.559 64.2116C407.559 66.5732 408.98 68.1491 411.218 68.1491ZM411.228 66.7074C409.99 66.7074 409.383 65.6037 409.383 64.2067C409.383 62.8097 409.99 61.6911 411.228 61.6911C412.446 61.6911 413.052 62.8097 413.052 64.2067C413.052 65.6037 412.446 66.7074 411.228 66.7074ZM418.602 68.1541C419.8 68.1541 420.516 67.5923 420.844 66.951H420.903V68H422.634V62.8892C422.634 60.8707 420.988 60.2642 419.531 60.2642C417.926 60.2642 416.693 60.9801 416.295 62.3722L417.975 62.6108C418.154 62.0888 418.661 61.6413 419.541 61.6413C420.377 61.6413 420.834 62.0689 420.834 62.8196V62.8494C420.834 63.3665 420.292 63.3913 418.945 63.5355C417.463 63.6946 416.046 64.1371 416.046 65.8572C416.046 67.3587 417.145 68.1541 418.602 68.1541ZM419.069 66.8317C418.318 66.8317 417.781 66.4886 417.781 65.8274C417.781 65.1364 418.383 64.848 419.188 64.7337C419.661 64.669 420.605 64.5497 420.839 64.3608V65.2607C420.839 66.1108 420.153 66.8317 419.069 66.8317ZM427.277 68.1342C428.59 68.1342 429.181 67.3537 429.465 66.7969H429.574V68H431.344V57.8182H429.539V61.6264H429.465C429.191 61.0746 428.629 60.2642 427.282 60.2642C425.517 60.2642 424.13 61.6463 424.13 64.1918C424.13 66.7074 425.477 68.1342 427.277 68.1342ZM427.779 66.6577C426.591 66.6577 425.965 65.6136 425.965 64.1818C425.965 62.7599 426.581 61.7408 427.779 61.7408C428.938 61.7408 429.574 62.7003 429.574 64.1818C429.574 65.6634 428.928 66.6577 427.779 66.6577Z" fill="#1C64F2"/>
<rect x="1" y="1" width="684" height="124" rx="20" stroke="#1C64F2" stroke-width="2" stroke-linecap="round" stroke-dasharray="5 5"/>
</svg>
