
<svg width="321" height="74" viewBox="0 0 321 74" fill="none" xmlns="http://www.w3.org/2000/svg">
<mask id="path-1-inside-1_216_37805" fill="white">
<path d="M240 0.500002C240 0.22386 240.224 0 240.5 0C240.776 0 241 0.223858 241 0.5V73.5C241 73.7761 240.776 74 240.5 74C240.224 74 240 73.7761 240 73.5V0.500002Z"/>
</mask>
<path d="M240 0.500002C240 0.22386 240.224 0 240.5 0C240.776 0 241 0.223858 241 0.5V73.5C241 73.7761 240.776 74 240.5 74C240.224 74 240 73.7761 240 73.5V0.500002Z" fill="white"/>
<path d="M240 0.5V73.5H242V0.5H240ZM241 73.5V0.500002H239V73.5H241ZM240.5 73C240.776 73 241 73.2239 241 73.5H239C239 74.3284 239.672 75 240.5 75V73ZM240 73.5C240 73.2239 240.224 73 240.5 73V75C241.328 75 242 74.3284 242 73.5H240ZM240.5 1C240.224 1 240 0.776142 240 0.5H242C242 -0.328427 241.328 -1 240.5 -1V1ZM240.5 -1C239.672 -1 239 -0.32842 239 0.500002H241C241 0.776139 240.776 1 240.5 1V-1Z" fill="#E5E7EB" mask="url(#path-1-inside-1_216_37805)"/>
<path d="M20.1811 31.1591C19.4235 31.1591 18.7455 31.017 18.147 30.733C17.5485 30.4451 17.0732 30.0511 16.7209 29.5511C16.3724 29.0511 16.1868 28.4792 16.1641 27.8352H18.2095C18.2474 28.3125 18.4538 28.7027 18.8288 29.0057C19.2038 29.3049 19.6546 29.4545 20.1811 29.4545C20.594 29.4545 20.9614 29.3598 21.2834 29.1705C21.6054 28.9811 21.8591 28.7178 22.0447 28.3807C22.2304 28.0436 22.3213 27.6591 22.3175 27.2273C22.3213 26.7879 22.2285 26.3977 22.0391 26.0568C21.8497 25.7159 21.5902 25.4489 21.2607 25.2557C20.9311 25.0587 20.5523 24.9602 20.1243 24.9602C19.7758 24.9564 19.433 25.0208 19.0959 25.1534C18.7588 25.286 18.4917 25.4602 18.2947 25.6761L16.3913 25.3636L16.9993 19.3636H23.7493V21.125H18.7436L18.4084 24.2102H18.4766C18.6925 23.9564 18.9974 23.7462 19.3913 23.5795C19.7853 23.4091 20.2171 23.3239 20.6868 23.3239C21.3913 23.3239 22.0201 23.4905 22.5732 23.8239C23.1262 24.1534 23.5618 24.608 23.88 25.1875C24.1982 25.767 24.3572 26.4299 24.3572 27.1761C24.3572 27.9451 24.1792 28.6307 23.8232 29.233C23.4709 29.8314 22.9804 30.303 22.3516 30.6477C21.7266 30.9886 21.0031 31.1591 20.1811 31.1591ZM30.5618 31.2216C29.6262 31.2216 28.8232 30.9848 28.1527 30.5114C27.486 30.0341 26.9728 29.3466 26.6129 28.4489C26.2569 27.5473 26.0788 26.4621 26.0788 25.1932C26.0826 23.9242 26.2625 22.8447 26.6186 21.9545C26.9785 21.0606 27.4917 20.3788 28.1584 19.9091C28.8288 19.4394 29.63 19.2045 30.5618 19.2045C31.4936 19.2045 32.2947 19.4394 32.9652 19.9091C33.6357 20.3788 34.1489 21.0606 34.505 21.9545C34.8648 22.8485 35.0447 23.928 35.0447 25.1932C35.0447 26.4659 34.8648 27.553 34.505 28.4545C34.1489 29.3523 33.6357 30.0379 32.9652 30.5114C32.2985 30.9848 31.4974 31.2216 30.5618 31.2216ZM30.5618 29.4432C31.2891 29.4432 31.8629 29.0852 32.2834 28.3693C32.7076 27.6496 32.9197 26.5909 32.9197 25.1932C32.9197 24.2689 32.8232 23.4924 32.63 22.8636C32.4368 22.2348 32.1641 21.7614 31.8118 21.4432C31.4595 21.1212 31.0429 20.9602 30.5618 20.9602C29.8383 20.9602 29.2663 21.3201 28.8459 22.0398C28.4254 22.7557 28.2133 23.8068 28.2095 25.1932C28.2057 26.1212 28.2985 26.9015 28.4879 27.5341C28.6811 28.1667 28.9538 28.6439 29.3061 28.9659C29.6584 29.2841 30.0769 29.4432 30.5618 29.4432Z" fill="#6B7280"/>
<path d="M8.12056 60.2727H10.0552L12.6461 66.5966H12.7484L15.3393 60.2727H17.274V69H15.7569V63.0043H15.676L13.264 68.9744H12.1305L9.71857 62.9915H9.63761V69H8.12056V60.2727ZM20.8109 69.1321C20.3961 69.1321 20.0225 69.0582 19.6902 68.9105C19.3606 68.7599 19.0993 68.5384 18.9061 68.2457C18.7157 67.9531 18.6206 67.5923 18.6206 67.1634C18.6206 66.794 18.6887 66.4886 18.8251 66.2472C18.9615 66.0057 19.1475 65.8125 19.3833 65.6676C19.6191 65.5227 19.8848 65.4134 20.1802 65.3395C20.4785 65.2628 20.7868 65.2074 21.1049 65.1733C21.4885 65.1335 21.7995 65.098 22.0382 65.0668C22.2768 65.0327 22.4501 64.9815 22.5581 64.9134C22.6689 64.8423 22.7243 64.733 22.7243 64.5852V64.5597C22.7243 64.2386 22.6291 63.9901 22.4387 63.8139C22.2484 63.6378 21.9743 63.5497 21.6163 63.5497C21.2385 63.5497 20.9387 63.6321 20.7172 63.7969C20.4984 63.9616 20.3507 64.1562 20.274 64.3807L18.8336 64.1761C18.9473 63.7784 19.1348 63.446 19.3961 63.179C19.6575 62.9091 19.9771 62.7074 20.3549 62.5739C20.7328 62.4375 21.1504 62.3693 21.6078 62.3693C21.9231 62.3693 22.237 62.4062 22.5495 62.4801C22.862 62.554 23.1475 62.6761 23.4061 62.8466C23.6646 63.0142 23.872 63.2429 24.0282 63.5327C24.1873 63.8224 24.2669 64.1847 24.2669 64.6193V69H22.7839V68.1009H22.7328C22.639 68.2827 22.5069 68.4531 22.3365 68.6122C22.1689 68.7685 21.9572 68.8949 21.7015 68.9915C21.4487 69.0852 21.1518 69.1321 20.8109 69.1321ZM21.2115 67.9986C21.5211 67.9986 21.7896 67.9375 22.0169 67.8153C22.2441 67.6903 22.4189 67.5256 22.541 67.321C22.666 67.1165 22.7285 66.8935 22.7285 66.652V65.8807C22.6802 65.9205 22.5978 65.9574 22.4814 65.9915C22.3677 66.0256 22.2399 66.0554 22.0978 66.081C21.9558 66.1065 21.8152 66.1293 21.676 66.1491C21.5368 66.169 21.416 66.1861 21.3137 66.2003C21.0836 66.2315 20.8777 66.2827 20.6958 66.3537C20.514 66.4247 20.3706 66.5241 20.2654 66.652C20.1603 66.777 20.1078 66.9389 20.1078 67.1378C20.1078 67.4219 20.2115 67.6364 20.4189 67.7812C20.6262 67.9261 20.8904 67.9986 21.2115 67.9986ZM28.6731 69.1278C28.0197 69.1278 27.4586 68.9844 26.9899 68.6974C26.524 68.4105 26.1646 68.0142 25.9118 67.5085C25.6618 67 25.5368 66.4148 25.5368 65.7528C25.5368 65.0881 25.6646 64.5014 25.9203 63.9929C26.176 63.4815 26.5368 63.0838 27.0027 62.7997C27.4714 62.5128 28.0254 62.3693 28.6646 62.3693C29.1958 62.3693 29.666 62.4673 30.0751 62.6634C30.487 62.8565 30.8152 63.1307 31.0595 63.4858C31.3038 63.8381 31.443 64.25 31.4771 64.7216H30.0027C29.943 64.4062 29.801 64.1435 29.5765 63.9332C29.3549 63.7202 29.0581 63.6136 28.6859 63.6136C28.3706 63.6136 28.0936 63.6989 27.8549 63.8693C27.6163 64.0369 27.4302 64.2784 27.2967 64.5938C27.166 64.9091 27.1007 65.2869 27.1007 65.7273C27.1007 66.1733 27.166 66.5568 27.2967 66.8778C27.4274 67.196 27.6106 67.4418 27.8464 67.6151C28.085 67.7855 28.3649 67.8707 28.6859 67.8707C28.9132 67.8707 29.1163 67.8281 29.2953 67.7429C29.4771 67.6548 29.6291 67.5284 29.7512 67.3636C29.8734 67.1989 29.9572 66.9986 30.0027 66.7628H31.4771C31.4402 67.2259 31.3038 67.6364 31.068 67.9943C30.8322 68.3494 30.5112 68.6278 30.1049 68.8295C29.6987 69.0284 29.2214 69.1278 28.6731 69.1278ZM32.7438 69V62.4545H34.2395V63.5455H34.3077C34.427 63.1676 34.6316 62.8764 34.9213 62.6719C35.214 62.4645 35.5478 62.3608 35.9228 62.3608C36.008 62.3608 36.1032 62.3651 36.2083 62.3736C36.3162 62.3793 36.4057 62.3892 36.4767 62.4034V63.8224C36.4114 63.7997 36.3077 63.7798 36.1657 63.7628C36.0265 63.7429 35.8915 63.733 35.7608 63.733C35.4796 63.733 35.2267 63.794 35.0023 63.9162C34.7807 64.0355 34.606 64.2017 34.4782 64.4148C34.3503 64.6278 34.2864 64.8736 34.2864 65.152V69H32.7438ZM40.0872 69.1278C39.448 69.1278 38.894 68.9872 38.4252 68.706C37.9565 68.4247 37.5929 68.0312 37.3343 67.5256C37.0787 67.0199 36.9508 66.429 36.9508 65.7528C36.9508 65.0767 37.0787 64.4844 37.3343 63.9759C37.5929 63.4673 37.9565 63.0724 38.4252 62.7912C38.894 62.5099 39.448 62.3693 40.0872 62.3693C40.7264 62.3693 41.2804 62.5099 41.7491 62.7912C42.2179 63.0724 42.5801 63.4673 42.8358 63.9759C43.0943 64.4844 43.2235 65.0767 43.2235 65.7528C43.2235 66.429 43.0943 67.0199 42.8358 67.5256C42.5801 68.0312 42.2179 68.4247 41.7491 68.706C41.2804 68.9872 40.7264 69.1278 40.0872 69.1278ZM40.0957 67.892C40.4423 67.892 40.7321 67.7969 40.965 67.6065C41.198 67.4134 41.3713 67.1548 41.4849 66.831C41.6014 66.5071 41.6596 66.1463 41.6596 65.7486C41.6596 65.348 41.6014 64.9858 41.4849 64.6619C41.3713 64.3352 41.198 64.0753 40.965 63.8821C40.7321 63.6889 40.4423 63.5923 40.0957 63.5923C39.7406 63.5923 39.4451 63.6889 39.2093 63.8821C38.9764 64.0753 38.8017 64.3352 38.6852 64.6619C38.5716 64.9858 38.5147 65.348 38.5147 65.7486C38.5147 66.1463 38.5716 66.5071 38.6852 66.831C38.8017 67.1548 38.9764 67.4134 39.2093 67.6065C39.4451 67.7969 39.7406 67.892 40.0957 67.892Z" fill="#6B7280"/>
<path d="M50 25C50 38.8071 38.8071 50 25 50C11.1929 50 0 38.8071 0 25C0 11.1929 11.1929 0 25 0C38.8071 0 50 11.1929 50 25ZM3.75 25C3.75 36.736 13.2639 46.25 25 46.25C36.736 46.25 46.25 36.736 46.25 25C46.25 13.2639 36.736 3.75 25 3.75C13.2639 3.75 3.75 13.2639 3.75 25Z" fill="#E5E7EB"/>
<path d="M25 1.875C25 0.839466 25.8406 -0.00731349 26.8733 0.0702792C29.5149 0.268776 32.1123 0.886211 34.5671 1.90301C37.6002 3.15938 40.3562 5.00087 42.6777 7.32234C44.9991 9.6438 46.8406 12.3998 48.097 15.4329C49.3534 18.4661 50 21.717 50 25C50 28.2831 49.3534 31.534 48.097 34.5671C46.8406 37.6002 44.9991 40.3562 42.6777 42.6777C40.3562 44.9991 37.6002 46.8406 34.5671 48.097C32.1123 49.1138 29.5149 49.7312 26.8732 49.9297C25.8406 50.0073 25 49.1605 25 48.125C25 47.0895 25.8411 46.2586 26.8726 46.1673C29.0213 45.9772 31.1323 45.4607 33.132 44.6325C35.7102 43.5645 38.0528 41.9993 40.026 40.026C41.9993 38.0528 43.5645 35.7102 44.6324 33.132C45.7003 30.5539 46.25 27.7906 46.25 25C46.25 22.2094 45.7004 19.4462 44.6324 16.868C43.5645 14.2898 41.9993 11.9472 40.026 9.97399C38.0528 8.00074 35.7102 6.43547 33.132 5.36756C31.1324 4.53927 29.0213 4.02276 26.8726 3.83267C25.8411 3.74141 25 2.91053 25 1.875Z" fill="#FACA15"/>
<path d="M100.311 31.1591C99.4664 31.1591 98.7164 31.017 98.0611 30.733C97.4096 30.4489 96.8982 30.0606 96.527 29.5682C96.1596 29.072 95.9777 28.5095 95.9815 27.8807C95.9777 27.392 96.0838 26.9432 96.2997 26.5341C96.5156 26.125 96.8073 25.7841 97.1747 25.5114C97.5459 25.2348 97.9588 25.0587 98.4134 24.983V24.9034C97.8149 24.7708 97.33 24.4659 96.9588 23.9886C96.5914 23.5076 96.4096 22.9527 96.4134 22.3239C96.4096 21.7254 96.5762 21.1913 96.9134 20.7216C97.2505 20.2519 97.7126 19.8826 98.2997 19.6136C98.8868 19.3409 99.5573 19.2045 100.311 19.2045C101.057 19.2045 101.722 19.3409 102.305 19.6136C102.893 19.8826 103.355 20.2519 103.692 20.7216C104.033 21.1913 104.203 21.7254 104.203 22.3239C104.203 22.9527 104.016 23.5076 103.641 23.9886C103.269 24.4659 102.79 24.7708 102.203 24.9034V24.983C102.658 25.0587 103.067 25.2348 103.43 25.5114C103.798 25.7841 104.089 26.125 104.305 26.5341C104.525 26.9432 104.635 27.392 104.635 27.8807C104.635 28.5095 104.449 29.072 104.078 29.5682C103.707 30.0606 103.196 30.4489 102.544 30.733C101.896 31.017 101.152 31.1591 100.311 31.1591ZM100.311 29.5341C100.747 29.5341 101.125 29.4602 101.447 29.3125C101.769 29.161 102.019 28.9489 102.197 28.6761C102.375 28.4034 102.466 28.089 102.47 27.733C102.466 27.3617 102.37 27.0341 102.18 26.75C101.995 26.4621 101.739 26.2367 101.413 26.0739C101.091 25.911 100.724 25.8295 100.311 25.8295C99.8944 25.8295 99.5232 25.911 99.1974 26.0739C98.8717 26.2367 98.6141 26.4621 98.4247 26.75C98.2391 27.0341 98.1482 27.3617 98.152 27.733C98.1482 28.089 98.2353 28.4034 98.4134 28.6761C98.5914 28.9451 98.8414 29.1553 99.1634 29.3068C99.4891 29.4583 99.8717 29.5341 100.311 29.5341ZM100.311 24.233C100.667 24.233 100.982 24.161 101.254 24.017C101.531 23.8731 101.749 23.6723 101.908 23.4148C102.067 23.1572 102.148 22.8598 102.152 22.5227C102.148 22.1894 102.069 21.8977 101.913 21.6477C101.758 21.3939 101.542 21.1989 101.266 21.0625C100.989 20.9223 100.671 20.8523 100.311 20.8523C99.9437 20.8523 99.6198 20.9223 99.3395 21.0625C99.063 21.1989 98.8471 21.3939 98.6918 21.6477C98.5402 21.8977 98.4664 22.1894 98.4702 22.5227C98.4664 22.8598 98.5421 23.1572 98.6974 23.4148C98.8565 23.6686 99.0743 23.8693 99.3509 24.017C99.6312 24.161 99.9512 24.233 100.311 24.233ZM106.929 31L111.878 21.2045V21.125H106.134V19.3636H114.06V21.1648L109.116 31H106.929Z" fill="#6B7280"/>
<path d="M90.0014 60.2727H91.9361L94.527 66.5966H94.6293L97.2202 60.2727H99.1548V69H97.6378V63.0043H97.5568L95.1449 68.9744H94.0114L91.5994 62.9915H91.5185V69H90.0014V60.2727ZM100.808 69V62.4545H102.351V69H100.808ZM101.584 61.5256C101.339 61.5256 101.129 61.4446 100.953 61.2827C100.777 61.1179 100.689 60.9205 100.689 60.6903C100.689 60.4574 100.777 60.2599 100.953 60.098C101.129 59.9332 101.339 59.8509 101.584 59.8509C101.831 59.8509 102.041 59.9332 102.214 60.098C102.391 60.2599 102.479 60.4574 102.479 60.6903C102.479 60.9205 102.391 61.1179 102.214 61.2827C102.041 61.4446 101.831 61.5256 101.584 61.5256ZM106.792 69.1278C106.139 69.1278 105.578 68.9844 105.109 68.6974C104.643 68.4105 104.284 68.0142 104.031 67.5085C103.781 67 103.656 66.4148 103.656 65.7528C103.656 65.0881 103.784 64.5014 104.039 63.9929C104.295 63.4815 104.656 63.0838 105.122 62.7997C105.591 62.5128 106.145 62.3693 106.784 62.3693C107.315 62.3693 107.785 62.4673 108.194 62.6634C108.606 62.8565 108.934 63.1307 109.179 63.4858C109.423 63.8381 109.562 64.25 109.596 64.7216H108.122C108.062 64.4062 107.92 64.1435 107.696 63.9332C107.474 63.7202 107.177 63.6136 106.805 63.6136C106.49 63.6136 106.213 63.6989 105.974 63.8693C105.735 64.0369 105.549 64.2784 105.416 64.5938C105.285 64.9091 105.22 65.2869 105.22 65.7273C105.22 66.1733 105.285 66.5568 105.416 66.8778C105.547 67.196 105.73 67.4418 105.966 67.6151C106.204 67.7855 106.484 67.8707 106.805 67.8707C107.032 67.8707 107.235 67.8281 107.414 67.7429C107.596 67.6548 107.748 67.5284 107.87 67.3636C107.993 67.1989 108.076 66.9986 108.122 66.7628H109.596C109.559 67.2259 109.423 67.6364 109.187 67.9943C108.951 68.3494 108.63 68.6278 108.224 68.8295C107.818 69.0284 107.341 69.1278 106.792 69.1278ZM110.863 69V62.4545H112.359V63.5455H112.427C112.546 63.1676 112.751 62.8764 113.04 62.6719C113.333 62.4645 113.667 62.3608 114.042 62.3608C114.127 62.3608 114.222 62.3651 114.327 62.3736C114.435 62.3793 114.525 62.3892 114.596 62.4034V63.8224C114.531 63.7997 114.427 63.7798 114.285 63.7628C114.146 63.7429 114.011 63.733 113.88 63.733C113.599 63.733 113.346 63.794 113.121 63.9162C112.9 64.0355 112.725 64.2017 112.597 64.4148C112.469 64.6278 112.406 64.8736 112.406 65.152V69H110.863ZM118.206 69.1278C117.567 69.1278 117.013 68.9872 116.544 68.706C116.076 68.4247 115.712 68.0312 115.453 67.5256C115.198 67.0199 115.07 66.429 115.07 65.7528C115.07 65.0767 115.198 64.4844 115.453 63.9759C115.712 63.4673 116.076 63.0724 116.544 62.7912C117.013 62.5099 117.567 62.3693 118.206 62.3693C118.846 62.3693 119.4 62.5099 119.868 62.7912C120.337 63.0724 120.699 63.4673 120.955 63.9759C121.213 64.4844 121.343 65.0767 121.343 65.7528C121.343 66.429 121.213 67.0199 120.955 67.5256C120.699 68.0312 120.337 68.4247 119.868 68.706C119.4 68.9872 118.846 69.1278 118.206 69.1278ZM118.215 67.892C118.561 67.892 118.851 67.7969 119.084 67.6065C119.317 67.4134 119.49 67.1548 119.604 66.831C119.721 66.5071 119.779 66.1463 119.779 65.7486C119.779 65.348 119.721 64.9858 119.604 64.6619C119.49 64.3352 119.317 64.0753 119.084 63.8821C118.851 63.6889 118.561 63.5923 118.215 63.5923C117.86 63.5923 117.564 63.6889 117.328 63.8821C117.096 64.0753 116.921 64.3352 116.804 64.6619C116.691 64.9858 116.634 65.348 116.634 65.7486C116.634 66.1463 116.691 66.5071 116.804 66.831C116.921 67.1548 117.096 67.4134 117.328 67.6065C117.564 67.7969 117.86 67.892 118.215 67.892Z" fill="#6B7280"/>
<path d="M130 25C130 38.8071 118.807 50 105 50C91.1929 50 80 38.8071 80 25C80 11.1929 91.1929 0 105 0C118.807 0 130 11.1929 130 25ZM83.75 25C83.75 36.736 93.2639 46.25 105 46.25C116.736 46.25 126.25 36.736 126.25 25C126.25 13.2639 116.736 3.75 105 3.75C93.2639 3.75 83.75 13.2639 83.75 25Z" fill="#E5E7EB"/>
<path d="M105 1.875C105 0.839466 105.841 -0.0073179 106.873 0.0702608C111.952 0.451844 116.811 2.37805 120.784 5.61261C125.243 9.243 128.315 14.2996 129.481 19.9303C130.647 25.561 129.836 31.4216 127.185 36.5244C124.535 41.6271 120.206 45.6602 114.929 47.9439C109.651 50.2275 103.748 50.6222 98.214 49.0614C92.6797 47.5005 87.8526 44.0796 84.5463 39.3751C81.2399 34.6706 79.6563 28.9701 80.0624 23.2343C80.4243 18.1239 82.3459 13.2638 85.5446 9.30005C86.1949 8.49419 87.3877 8.46097 88.1426 9.16984C88.8975 9.87871 88.9274 11.0606 88.2878 11.875C85.6738 15.2033 84.104 19.2494 83.8031 23.4992C83.4579 28.3746 84.8039 33.22 87.6143 37.2189C90.4247 41.2177 94.5277 44.1255 99.2319 45.4522C103.936 46.7789 108.954 46.4434 113.439 44.5023C117.925 42.5612 121.604 39.1331 123.858 34.7957C126.111 30.4583 126.8 25.4769 125.808 20.6908C124.817 15.9047 122.207 11.6065 118.416 8.52072C115.112 5.83089 111.088 4.20552 106.873 3.83264C105.841 3.7414 105 2.91053 105 1.875Z" fill="#31C48D"/>
<path d="M179.55 19.2045C180.107 19.2083 180.649 19.3068 181.175 19.5C181.706 19.6894 182.183 20 182.607 20.4318C183.031 20.8598 183.369 21.4337 183.619 22.1534C183.869 22.8731 183.994 23.7633 183.994 24.8239C183.997 25.8239 183.891 26.7178 183.675 27.5057C183.463 28.2898 183.158 28.9527 182.761 29.4943C182.363 30.036 181.884 30.4489 181.323 30.733C180.763 31.017 180.132 31.1591 179.431 31.1591C178.696 31.1591 178.045 31.0152 177.477 30.7273C176.912 30.4394 176.456 30.0455 176.107 29.5455C175.759 29.0455 175.545 28.4735 175.465 27.8295H177.539C177.645 28.2917 177.861 28.6591 178.187 28.9318C178.516 29.2008 178.931 29.3352 179.431 29.3352C180.238 29.3352 180.859 28.9848 181.295 28.2841C181.73 27.5833 181.948 26.6098 181.948 25.3636H181.869C181.683 25.697 181.442 25.9848 181.147 26.2273C180.852 26.4659 180.516 26.6496 180.141 26.7784C179.77 26.9072 179.376 26.9716 178.96 26.9716C178.278 26.9716 177.664 26.8087 177.119 26.483C176.577 26.1572 176.147 25.7102 175.829 25.142C175.514 24.5739 175.355 23.9242 175.352 23.1932C175.352 22.4356 175.526 21.7557 175.874 21.1534C176.227 20.5473 176.717 20.0701 177.346 19.7216C177.975 19.3693 178.71 19.197 179.55 19.2045ZM179.556 20.9091C179.147 20.9091 178.778 21.0095 178.448 21.2102C178.122 21.4072 177.865 21.6761 177.675 22.017C177.49 22.3542 177.397 22.7311 177.397 23.1477C177.401 23.5606 177.494 23.9356 177.675 24.2727C177.861 24.6098 178.113 24.8769 178.431 25.0739C178.753 25.2708 179.121 25.3693 179.533 25.3693C179.84 25.3693 180.126 25.3106 180.391 25.1932C180.656 25.0758 180.888 24.9129 181.085 24.7045C181.285 24.4924 181.441 24.2519 181.55 23.983C181.664 23.714 181.719 23.4299 181.715 23.1307C181.715 22.733 181.621 22.3655 181.431 22.0284C181.246 21.6913 180.99 21.4205 180.664 21.2159C180.342 21.0114 179.973 20.9091 179.556 20.9091ZM190.187 31.2216C189.251 31.2216 188.448 30.9848 187.778 30.5114C187.111 30.0341 186.598 29.3466 186.238 28.4489C185.882 27.5473 185.704 26.4621 185.704 25.1932C185.708 23.9242 185.888 22.8447 186.244 21.9545C186.603 21.0606 187.117 20.3788 187.783 19.9091C188.454 19.4394 189.255 19.2045 190.187 19.2045C191.119 19.2045 191.92 19.4394 192.59 19.9091C193.261 20.3788 193.774 21.0606 194.13 21.9545C194.49 22.8485 194.67 23.928 194.67 25.1932C194.67 26.4659 194.49 27.553 194.13 28.4545C193.774 29.3523 193.261 30.0379 192.59 30.5114C191.924 30.9848 191.122 31.2216 190.187 31.2216ZM190.187 29.4432C190.914 29.4432 191.488 29.0852 191.908 28.3693C192.333 27.6496 192.545 26.5909 192.545 25.1932C192.545 24.2689 192.448 23.4924 192.255 22.8636C192.062 22.2348 191.789 21.7614 191.437 21.4432C191.085 21.1212 190.668 20.9602 190.187 20.9602C189.463 20.9602 188.891 21.3201 188.471 22.0398C188.05 22.7557 187.838 23.8068 187.835 25.1932C187.831 26.1212 187.924 26.9015 188.113 27.5341C188.306 28.1667 188.579 28.6439 188.931 28.9659C189.283 29.2841 189.702 29.4432 190.187 29.4432Z" fill="#6B7280"/>
<path d="M170.978 69V60.2727H174.319C174.95 60.2727 175.474 60.3722 175.891 60.571C176.312 60.767 176.626 61.0355 176.833 61.3764C177.043 61.7173 177.148 62.1037 177.148 62.5355C177.148 62.8906 177.08 63.1946 176.944 63.4474C176.808 63.6974 176.624 63.9006 176.394 64.0568C176.164 64.2131 175.907 64.3253 175.623 64.3935V64.4787C175.933 64.4957 176.229 64.5909 176.513 64.7642C176.8 64.9347 177.035 65.1761 177.217 65.4886C177.398 65.8011 177.489 66.179 177.489 66.6222C177.489 67.0739 177.38 67.4801 177.161 67.8409C176.942 68.1989 176.613 68.4815 176.173 68.6889C175.732 68.8963 175.178 69 174.511 69H170.978ZM172.559 67.679H174.259C174.833 67.679 175.246 67.5696 175.499 67.3509C175.755 67.1293 175.883 66.8452 175.883 66.4986C175.883 66.2401 175.819 66.0071 175.691 65.7997C175.563 65.5895 175.381 65.4247 175.146 65.3054C174.91 65.1832 174.629 65.1222 174.302 65.1222H172.559V67.679ZM172.559 63.9844H174.123C174.396 63.9844 174.641 63.9347 174.86 63.8352C175.079 63.733 175.251 63.5895 175.376 63.4048C175.504 63.2173 175.567 62.9957 175.567 62.7401C175.567 62.402 175.448 62.1236 175.21 61.9048C174.974 61.6861 174.623 61.5767 174.157 61.5767H172.559V63.9844ZM178.797 69V62.4545H180.339V69H178.797ZM179.572 61.5256C179.328 61.5256 179.118 61.4446 178.941 61.2827C178.765 61.1179 178.677 60.9205 178.677 60.6903C178.677 60.4574 178.765 60.2599 178.941 60.098C179.118 59.9332 179.328 59.8509 179.572 59.8509C179.819 59.8509 180.029 59.9332 180.203 60.098C180.379 60.2599 180.467 60.4574 180.467 60.6903C180.467 60.9205 180.379 61.1179 180.203 61.2827C180.029 61.4446 179.819 61.5256 179.572 61.5256ZM184.781 69.1278C184.141 69.1278 183.587 68.9872 183.119 68.706C182.65 68.4247 182.286 68.0312 182.028 67.5256C181.772 67.0199 181.644 66.429 181.644 65.7528C181.644 65.0767 181.772 64.4844 182.028 63.9759C182.286 63.4673 182.65 63.0724 183.119 62.7912C183.587 62.5099 184.141 62.3693 184.781 62.3693C185.42 62.3693 185.974 62.5099 186.442 62.7912C186.911 63.0724 187.273 63.4673 187.529 63.9759C187.788 64.4844 187.917 65.0767 187.917 65.7528C187.917 66.429 187.788 67.0199 187.529 67.5256C187.273 68.0312 186.911 68.4247 186.442 68.706C185.974 68.9872 185.42 69.1278 184.781 69.1278ZM184.789 67.892C185.136 67.892 185.425 67.7969 185.658 67.6065C185.891 67.4134 186.065 67.1548 186.178 66.831C186.295 66.5071 186.353 66.1463 186.353 65.7486C186.353 65.348 186.295 64.9858 186.178 64.6619C186.065 64.3352 185.891 64.0753 185.658 63.8821C185.425 63.6889 185.136 63.5923 184.789 63.5923C184.434 63.5923 184.138 63.6889 183.903 63.8821C183.67 64.0753 183.495 64.3352 183.379 64.6619C183.265 64.9858 183.208 65.348 183.208 65.7486C183.208 66.1463 183.265 66.5071 183.379 66.831C183.495 67.1548 183.67 67.4134 183.903 67.6065C184.138 67.7969 184.434 67.892 184.789 67.892ZM192.495 62.4545V63.6477H188.732V62.4545H192.495ZM189.661 60.8864H191.203V67.0312C191.203 67.2386 191.235 67.3977 191.297 67.5085C191.363 67.6165 191.448 67.6903 191.553 67.7301C191.658 67.7699 191.775 67.7898 191.902 67.7898C191.999 67.7898 192.087 67.7827 192.167 67.7685C192.249 67.7543 192.311 67.7415 192.354 67.7301L192.614 68.9361C192.532 68.9645 192.414 68.9957 192.26 69.0298C192.11 69.0639 191.925 69.0838 191.706 69.0895C191.32 69.1009 190.972 69.0426 190.662 68.9148C190.353 68.7841 190.107 68.5824 189.925 68.3097C189.746 68.0369 189.658 67.696 189.661 67.2869V60.8864ZM195.668 69.1321C195.254 69.1321 194.88 69.0582 194.548 68.9105C194.218 68.7599 193.957 68.5384 193.763 68.2457C193.573 67.9531 193.478 67.5923 193.478 67.1634C193.478 66.794 193.546 66.4886 193.683 66.2472C193.819 66.0057 194.005 65.8125 194.241 65.6676C194.477 65.5227 194.742 65.4134 195.038 65.3395C195.336 65.2628 195.644 65.2074 195.962 65.1733C196.346 65.1335 196.657 65.098 196.896 65.0668C197.134 65.0327 197.308 64.9815 197.415 64.9134C197.526 64.8423 197.582 64.733 197.582 64.5852V64.5597C197.582 64.2386 197.487 63.9901 197.296 63.8139C197.106 63.6378 196.832 63.5497 196.474 63.5497C196.096 63.5497 195.796 63.6321 195.575 63.7969C195.356 63.9616 195.208 64.1562 195.131 64.3807L193.691 64.1761C193.805 63.7784 193.992 63.446 194.254 63.179C194.515 62.9091 194.835 62.7074 195.212 62.5739C195.59 62.4375 196.008 62.3693 196.465 62.3693C196.781 62.3693 197.094 62.4062 197.407 62.4801C197.719 62.554 198.005 62.6761 198.263 62.8466C198.522 63.0142 198.729 63.2429 198.886 63.5327C199.045 63.8224 199.124 64.1847 199.124 64.6193V69H197.641V68.1009H197.59C197.496 68.2827 197.364 68.4531 197.194 68.6122C197.026 68.7685 196.815 68.8949 196.559 68.9915C196.306 69.0852 196.009 69.1321 195.668 69.1321ZM196.069 67.9986C196.379 67.9986 196.647 67.9375 196.874 67.8153C197.102 67.6903 197.276 67.5256 197.398 67.321C197.523 67.1165 197.586 66.8935 197.586 66.652V65.8807C197.538 65.9205 197.455 65.9574 197.339 65.9915C197.225 66.0256 197.097 66.0554 196.955 66.081C196.813 66.1065 196.673 66.1293 196.533 66.1491C196.394 66.169 196.273 66.1861 196.171 66.2003C195.941 66.2315 195.735 66.2827 195.553 66.3537C195.371 66.4247 195.228 66.5241 195.123 66.652C195.018 66.777 194.965 66.9389 194.965 67.1378C194.965 67.4219 195.069 67.6364 195.276 67.7812C195.484 67.9261 195.748 67.9986 196.069 67.9986Z" fill="#6B7280"/>
<path d="M210 25C210 38.8071 198.807 50 185 50C171.193 50 160 38.8071 160 25C160 11.1929 171.193 0 185 0C198.807 0 210 11.1929 210 25ZM163.75 25C163.75 36.736 173.264 46.25 185 46.25C196.736 46.25 206.25 36.736 206.25 25C206.25 13.2639 196.736 3.75 185 3.75C173.264 3.75 163.75 13.2639 163.75 25Z" fill="#E5E7EB"/>
<path d="M185 1.875C185 0.839466 185.841 -0.00731876 186.873 0.0702563C192.152 0.466796 197.187 2.53119 201.236 5.98985C205.763 9.85574 208.761 15.2098 209.692 21.0891C210.623 26.9684 209.426 32.9871 206.316 38.0625C203.206 43.1379 198.387 46.937 192.725 48.7764C187.064 50.6159 180.932 50.3749 175.433 48.097C169.933 45.819 165.427 41.6535 162.725 36.3498C160.022 31.046 159.301 24.952 160.691 19.1639C161.934 13.9855 164.794 9.35595 168.831 5.93255C169.621 5.26283 170.799 5.45371 171.407 6.29148C172.016 7.12924 171.824 8.29582 171.043 8.97594C167.724 11.8668 165.372 15.7294 164.337 20.0393C163.156 24.9592 163.769 30.1391 166.066 34.6473C168.363 39.1555 172.193 42.6962 176.868 44.6324C181.543 46.5687 186.755 46.7735 191.567 45.21C196.379 43.6464 200.475 40.4172 203.119 36.1031C205.762 31.789 206.78 26.6732 205.988 21.6758C205.197 16.6784 202.648 12.1274 198.801 8.84137C195.43 5.96278 191.257 4.22043 186.873 3.83264C185.841 3.7414 185 2.91053 185 1.875Z" fill="#31C48D"/>
<path d="M291.17 31.1591C290.326 31.1591 289.576 31.017 288.92 30.733C288.269 30.4489 287.758 30.0606 287.386 29.5682C287.019 29.072 286.837 28.5095 286.841 27.8807C286.837 27.392 286.943 26.9432 287.159 26.5341C287.375 26.125 287.667 25.7841 288.034 25.5114C288.405 25.2348 288.818 25.0587 289.273 24.983V24.9034C288.674 24.7708 288.189 24.4659 287.818 23.9886C287.451 23.5076 287.269 22.9527 287.273 22.3239C287.269 21.7254 287.436 21.1913 287.773 20.7216C288.11 20.2519 288.572 19.8826 289.159 19.6136C289.746 19.3409 290.417 19.2045 291.17 19.2045C291.917 19.2045 292.581 19.3409 293.165 19.6136C293.752 19.8826 294.214 20.2519 294.551 20.7216C294.892 21.1913 295.062 21.7254 295.062 22.3239C295.062 22.9527 294.875 23.5076 294.5 23.9886C294.129 24.4659 293.65 24.7708 293.062 24.9034V24.983C293.517 25.0587 293.926 25.2348 294.29 25.5114C294.657 25.7841 294.949 26.125 295.165 26.5341C295.384 26.9432 295.494 27.392 295.494 27.8807C295.494 28.5095 295.309 29.072 294.938 29.5682C294.566 30.0606 294.055 30.4489 293.403 30.733C292.756 31.017 292.011 31.1591 291.17 31.1591ZM291.17 29.5341C291.606 29.5341 291.985 29.4602 292.307 29.3125C292.629 29.161 292.879 28.9489 293.057 28.6761C293.235 28.4034 293.326 28.089 293.33 27.733C293.326 27.3617 293.229 27.0341 293.04 26.75C292.854 26.4621 292.598 26.2367 292.273 26.0739C291.951 25.911 291.583 25.8295 291.17 25.8295C290.754 25.8295 290.383 25.911 290.057 26.0739C289.731 26.2367 289.473 26.4621 289.284 26.75C289.098 27.0341 289.008 27.3617 289.011 27.733C289.008 28.089 289.095 28.4034 289.273 28.6761C289.451 28.9451 289.701 29.1553 290.023 29.3068C290.348 29.4583 290.731 29.5341 291.17 29.5341ZM291.17 24.233C291.527 24.233 291.841 24.161 292.114 24.017C292.39 23.8731 292.608 23.6723 292.767 23.4148C292.926 23.1572 293.008 22.8598 293.011 22.5227C293.008 22.1894 292.928 21.8977 292.773 21.6477C292.617 21.3939 292.402 21.1989 292.125 21.0625C291.848 20.9223 291.53 20.8523 291.17 20.8523C290.803 20.8523 290.479 20.9223 290.199 21.0625C289.922 21.1989 289.706 21.3939 289.551 21.6477C289.4 21.8977 289.326 22.1894 289.33 22.5227C289.326 22.8598 289.402 23.1572 289.557 23.4148C289.716 23.6686 289.934 23.8693 290.21 24.017C290.491 24.161 290.811 24.233 291.17 24.233ZM301.663 31.2216C300.728 31.2216 299.925 30.9848 299.254 30.5114C298.588 30.0341 298.074 29.3466 297.714 28.4489C297.358 27.5473 297.18 26.4621 297.18 25.1932C297.184 23.9242 297.364 22.8447 297.72 21.9545C298.08 21.0606 298.593 20.3788 299.26 19.9091C299.93 19.4394 300.732 19.2045 301.663 19.2045C302.595 19.2045 303.396 19.4394 304.067 19.9091C304.737 20.3788 305.25 21.0606 305.607 21.9545C305.966 22.8485 306.146 23.928 306.146 25.1932C306.146 26.4659 305.966 27.553 305.607 28.4545C305.25 29.3523 304.737 30.0379 304.067 30.5114C303.4 30.9848 302.599 31.2216 301.663 31.2216ZM301.663 29.4432C302.391 29.4432 302.964 29.0852 303.385 28.3693C303.809 27.6496 304.021 26.5909 304.021 25.1932C304.021 24.2689 303.925 23.4924 303.732 22.8636C303.538 22.2348 303.266 21.7614 302.913 21.4432C302.561 21.1212 302.144 20.9602 301.663 20.9602C300.94 20.9602 300.368 21.3201 299.947 22.0398C299.527 22.7557 299.315 23.8068 299.311 25.1932C299.307 26.1212 299.4 26.9015 299.589 27.5341C299.783 28.1667 300.055 28.6439 300.408 28.9659C300.76 29.2841 301.179 29.4432 301.663 29.4432Z" fill="#6B7280"/>
<path d="M280.923 61.598V60.2727H287.886V61.598H285.188V69H283.62V61.598H280.923ZM290.153 69.1321C289.738 69.1321 289.364 69.0582 289.032 68.9105C288.702 68.7599 288.441 68.5384 288.248 68.2457C288.058 67.9531 287.962 67.5923 287.962 67.1634C287.962 66.794 288.031 66.4886 288.167 66.2472C288.303 66.0057 288.489 65.8125 288.725 65.6676C288.961 65.5227 289.227 65.4134 289.522 65.3395C289.82 65.2628 290.129 65.2074 290.447 65.1733C290.83 65.1335 291.141 65.098 291.38 65.0668C291.619 65.0327 291.792 64.9815 291.9 64.9134C292.011 64.8423 292.066 64.733 292.066 64.5852V64.5597C292.066 64.2386 291.971 63.9901 291.781 63.8139C291.59 63.6378 291.316 63.5497 290.958 63.5497C290.58 63.5497 290.281 63.6321 290.059 63.7969C289.84 63.9616 289.692 64.1562 289.616 64.3807L288.175 64.1761C288.289 63.7784 288.477 63.446 288.738 63.179C288.999 62.9091 289.319 62.7074 289.697 62.5739C290.075 62.4375 290.492 62.3693 290.95 62.3693C291.265 62.3693 291.579 62.4062 291.891 62.4801C292.204 62.554 292.489 62.6761 292.748 62.8466C293.006 63.0142 293.214 63.2429 293.37 63.5327C293.529 63.8224 293.609 64.1847 293.609 64.6193V69H292.126V68.1009H292.075C291.981 68.2827 291.849 68.4531 291.678 68.6122C291.511 68.7685 291.299 68.8949 291.043 68.9915C290.79 69.0852 290.494 69.1321 290.153 69.1321ZM290.553 67.9986C290.863 67.9986 291.131 67.9375 291.359 67.8153C291.586 67.6903 291.761 67.5256 291.883 67.321C292.008 67.1165 292.07 66.8935 292.07 66.652V65.8807C292.022 65.9205 291.94 65.9574 291.823 65.9915C291.71 66.0256 291.582 66.0554 291.44 66.081C291.298 66.1065 291.157 66.1293 291.018 66.1491C290.879 66.169 290.758 66.1861 290.656 66.2003C290.425 66.2315 290.219 66.2827 290.038 66.3537C289.856 66.4247 289.712 66.5241 289.607 66.652C289.502 66.777 289.45 66.9389 289.45 67.1378C289.45 67.4219 289.553 67.6364 289.761 67.7812C289.968 67.9261 290.232 67.9986 290.553 67.9986ZM300.333 64.1847L298.927 64.3381C298.887 64.196 298.817 64.0625 298.718 63.9375C298.621 63.8125 298.491 63.7116 298.326 63.6349C298.161 63.5582 297.96 63.5199 297.721 63.5199C297.4 63.5199 297.13 63.5895 296.911 63.7287C296.695 63.8679 296.589 64.0483 296.592 64.2699C296.589 64.4602 296.658 64.6151 296.8 64.7344C296.945 64.8537 297.184 64.9517 297.516 65.0284L298.633 65.267C299.252 65.4006 299.712 65.6122 300.013 65.902C300.317 66.1918 300.471 66.571 300.474 67.0398C300.471 67.4517 300.35 67.8153 300.112 68.1307C299.876 68.4432 299.548 68.6875 299.127 68.8636C298.707 69.0398 298.224 69.1278 297.678 69.1278C296.877 69.1278 296.232 68.9602 295.744 68.625C295.255 68.2869 294.964 67.8168 294.87 67.2145L296.374 67.0696C296.442 67.3651 296.587 67.5881 296.809 67.7386C297.031 67.8892 297.319 67.9645 297.674 67.9645C298.04 67.9645 298.335 67.8892 298.556 67.7386C298.781 67.5881 298.893 67.402 298.893 67.1804C298.893 66.9929 298.82 66.8381 298.675 66.7159C298.533 66.5937 298.312 66.5 298.011 66.4347L296.894 66.2003C296.266 66.0696 295.802 65.8494 295.501 65.5398C295.2 65.2273 295.05 64.8324 295.053 64.3551C295.05 63.9517 295.16 63.6023 295.381 63.3068C295.606 63.0085 295.917 62.7784 296.315 62.6165C296.715 62.4517 297.177 62.3693 297.7 62.3693C298.467 62.3693 299.07 62.5327 299.511 62.8594C299.954 63.1861 300.228 63.6278 300.333 64.1847ZM305.014 62.4545V63.6477H301.251V62.4545H305.014ZM302.18 60.8864H303.723V67.0312C303.723 67.2386 303.754 67.3977 303.817 67.5085C303.882 67.6165 303.967 67.6903 304.072 67.7301C304.178 67.7699 304.294 67.7898 304.422 67.7898C304.518 67.7898 304.607 67.7827 304.686 67.7685C304.768 67.7543 304.831 67.7415 304.874 67.7301L305.134 68.9361C305.051 68.9645 304.933 68.9957 304.78 69.0298C304.629 69.0639 304.445 69.0838 304.226 69.0895C303.839 69.1009 303.491 69.0426 303.182 68.9148C302.872 68.7841 302.626 68.5824 302.445 68.3097C302.266 68.0369 302.178 67.696 302.18 67.2869V60.8864ZM309.132 69.1278C308.475 69.1278 307.909 68.9915 307.431 68.7188C306.957 68.4432 306.592 68.054 306.336 67.5511C306.081 67.0455 305.953 66.4503 305.953 65.7656C305.953 65.0923 306.081 64.5014 306.336 63.9929C306.595 63.4815 306.956 63.0838 307.419 62.7997C307.882 62.5128 308.426 62.3693 309.051 62.3693C309.454 62.3693 309.835 62.4347 310.193 62.5653C310.554 62.6932 310.872 62.892 311.147 63.1619C311.426 63.4318 311.645 63.7756 311.804 64.1932C311.963 64.608 312.042 65.1023 312.042 65.6761V66.1491H306.677V65.1094H310.564C310.561 64.8139 310.497 64.5511 310.372 64.321C310.247 64.0881 310.072 63.9048 309.848 63.7713C309.626 63.6378 309.368 63.571 309.072 63.571C308.757 63.571 308.48 63.6477 308.241 63.8011C308.002 63.9517 307.816 64.1506 307.683 64.3977C307.552 64.642 307.485 64.9105 307.483 65.2031V66.1108C307.483 66.4915 307.552 66.8182 307.691 67.0909C307.831 67.3608 308.025 67.5682 308.275 67.7131C308.525 67.8551 308.818 67.9261 309.153 67.9261C309.377 67.9261 309.581 67.8949 309.762 67.8324C309.944 67.767 310.102 67.6719 310.235 67.5469C310.369 67.4219 310.47 67.267 310.538 67.0824L311.978 67.2443C311.887 67.625 311.714 67.9574 311.458 68.2415C311.206 68.5227 310.882 68.7415 310.487 68.8977C310.092 69.0511 309.64 69.1278 309.132 69.1278Z" fill="#6B7280"/>
<path d="M321 25C321 38.8071 309.807 50 296 50C282.193 50 271 38.8071 271 25C271 11.1929 282.193 0 296 0C309.807 0 321 11.1929 321 25ZM274.75 25C274.75 36.736 284.264 46.25 296 46.25C307.736 46.25 317.25 36.736 317.25 25C317.25 13.2639 307.736 3.75 296 3.75C284.264 3.75 274.75 13.2639 274.75 25Z" fill="#E5E7EB"/>
<path d="M296 1.875C296 0.839466 296.841 -0.00731746 297.873 0.0702663C302.489 0.417019 306.931 2.03978 310.695 4.77458C314.966 7.87778 318.145 12.2535 319.776 17.2746C321.408 22.2957 321.408 27.7043 319.776 32.7254C318.145 37.7465 314.966 42.1222 310.695 45.2254C306.423 48.3286 301.279 50 296 50C290.721 50 285.577 48.3286 281.305 45.2254C277.034 42.1222 273.855 37.7465 272.224 32.7254C270.786 28.3004 270.615 23.5744 271.712 19.0779C271.957 18.0719 273.022 17.534 274.007 17.854C274.992 18.174 275.522 19.2307 275.29 20.2399C274.43 23.9796 274.597 27.895 275.79 31.5666C277.177 35.8345 279.879 39.5539 283.51 42.1916C287.14 44.8293 291.512 46.25 296 46.25C300.488 46.25 304.86 44.8293 308.49 42.1916C312.121 39.5539 314.823 35.8345 316.21 31.5666C317.597 27.2987 317.597 22.7013 316.21 18.4334C314.823 14.1655 312.121 10.4461 308.49 7.80839C305.367 5.53923 301.695 4.17078 297.873 3.83266C296.841 3.74141 296 2.91053 296 1.875Z" fill="#31C48D"/>
</svg>
