
<svg width="971" height="447" viewBox="0 0 971 447" fill="none" xmlns="http://www.w3.org/2000/svg">
<g filter="url(#filter0_dd_1_42)">
<rect x="3" y="2" width="965" height="441" rx="16" fill="white"/>
<rect x="3.5" y="2.5" width="964" height="440" rx="15.5" stroke="#E4E4E7"/>
</g>
<path d="M40.2501 77.8182V88H38.4057V79.6129H38.346L35.9646 81.1342V79.4439L38.4952 77.8182H40.2501ZM46.4547 88.1392C45.7156 88.1392 45.0593 88.0149 44.4859 87.7663C43.9159 87.5178 43.4684 87.178 43.1436 86.7472C42.8221 86.313 42.663 85.8208 42.6663 85.2706C42.663 84.843 42.7558 84.4503 42.9448 84.0923C43.1337 83.7344 43.3889 83.4361 43.7104 83.1974C44.0352 82.9555 44.3965 82.8014 44.7942 82.7351V82.6655C44.2705 82.5495 43.8463 82.2827 43.5215 81.8651C43.2 81.4441 43.0409 80.9586 43.0442 80.4084C43.0409 79.8847 43.1867 79.4174 43.4817 79.0064C43.7767 78.5954 44.181 78.2723 44.6948 78.0369C45.2085 77.7983 45.7951 77.679 46.4547 77.679C47.1076 77.679 47.6893 77.7983 48.1997 78.0369C48.7135 78.2723 49.1178 78.5954 49.4128 79.0064C49.7111 79.4174 49.8602 79.8847 49.8602 80.4084C49.8602 80.9586 49.6962 81.4441 49.368 81.8651C49.0432 82.2827 48.624 82.5495 48.1102 82.6655V82.7351C48.508 82.8014 48.8659 82.9555 49.1841 83.1974C49.5056 83.4361 49.7608 83.7344 49.9497 84.0923C50.142 84.4503 50.2381 84.843 50.2381 85.2706C50.2381 85.8208 50.0757 86.313 49.7509 86.7472C49.426 87.178 48.9786 87.5178 48.4085 87.7663C47.8418 88.0149 47.1905 88.1392 46.4547 88.1392ZM46.4547 86.7173C46.8358 86.7173 47.1673 86.6527 47.449 86.5234C47.7307 86.3909 47.9495 86.2053 48.1053 85.9666C48.261 85.728 48.3406 85.4529 48.3439 85.1413C48.3406 84.8165 48.2561 84.5298 48.0903 84.2812C47.9279 84.0294 47.7042 83.8321 47.4192 83.6896C47.1375 83.5471 46.816 83.4759 46.4547 83.4759C46.0901 83.4759 45.7653 83.5471 45.4803 83.6896C45.1952 83.8321 44.9698 84.0294 44.8041 84.2812C44.6417 84.5298 44.5622 84.8165 44.5655 85.1413C44.5622 85.4529 44.6384 85.728 44.7942 85.9666C44.95 86.2019 45.1687 86.3859 45.4504 86.5185C45.7355 86.651 46.0702 86.7173 46.4547 86.7173ZM46.4547 82.0788C46.7662 82.0788 47.0413 82.0159 47.28 81.8899C47.5219 81.764 47.7125 81.5883 47.8517 81.3629C47.9909 81.1375 48.0622 80.8774 48.0655 80.5824C48.0622 80.2907 47.9926 80.0355 47.8567 79.8168C47.7208 79.5947 47.5319 79.424 47.2899 79.3047C47.048 79.1821 46.7696 79.1207 46.4547 79.1207C46.1332 79.1207 45.8498 79.1821 45.6046 79.3047C45.3626 79.424 45.1737 79.5947 45.0378 79.8168C44.9052 80.0355 44.8406 80.2907 44.8439 80.5824C44.8406 80.8774 44.9069 81.1375 45.0428 81.3629C45.182 81.585 45.3725 81.7607 45.6145 81.8899C45.8598 82.0159 46.1398 82.0788 46.4547 82.0788ZM55.636 88.1939C54.8173 88.1939 54.1147 87.9867 53.528 87.5724C52.9447 87.1548 52.4956 86.5533 52.1807 85.7678C51.8692 84.9789 51.7134 84.0294 51.7134 82.919C51.7167 81.8087 51.8741 80.8641 52.1857 80.0852C52.5006 79.303 52.9497 78.7064 53.533 78.2955C54.1196 77.8845 54.8206 77.679 55.636 77.679C56.4513 77.679 57.1523 77.8845 57.739 78.2955C58.3256 78.7064 58.7747 79.303 59.0863 80.0852C59.4011 80.8674 59.5586 81.812 59.5586 82.919C59.5586 84.0327 59.4011 84.9839 59.0863 85.7727C58.7747 86.5582 58.3256 87.1581 57.739 87.5724C57.1556 87.9867 56.4546 88.1939 55.636 88.1939ZM55.636 86.6378C56.2723 86.6378 56.7745 86.3246 57.1424 85.6982C57.5136 85.0684 57.6992 84.142 57.6992 82.919C57.6992 82.1103 57.6147 81.4309 57.4456 80.8807C57.2766 80.3305 57.038 79.9162 56.7297 79.6378C56.4215 79.3561 56.0569 79.2152 55.636 79.2152C55.0029 79.2152 54.5025 79.5301 54.1346 80.1598C53.7667 80.7862 53.5811 81.706 53.5777 82.919C53.5744 83.7311 53.6556 84.4138 53.8213 84.9673C53.9904 85.5208 54.229 85.9384 54.5373 86.2202C54.8455 86.4986 55.2117 86.6378 55.636 86.6378Z" fill="#6B7280"/>
<path d="M40.704 132.279V142.461H38.8595V134.074H38.7999L36.4185 135.595V133.905L38.949 132.279H40.704ZM43.6621 142.461L47.9923 133.89V133.82H42.966V132.279H49.9014V133.855L45.5761 142.461H43.6621ZM54.9091 142.6C54.2462 142.6 53.6529 142.476 53.1292 142.227C52.6055 141.975 52.1896 141.631 51.8814 141.193C51.5764 140.756 51.414 140.255 51.3941 139.692H53.1839C53.2171 140.109 53.3977 140.451 53.7258 140.716C54.0539 140.978 54.4484 141.109 54.9091 141.109C55.2703 141.109 55.5918 141.026 55.8735 140.86C56.1553 140.694 56.3773 140.464 56.5397 140.169C56.7021 139.874 56.7817 139.538 56.7784 139.16C56.7817 138.775 56.7005 138.434 56.5348 138.136C56.369 137.837 56.142 137.604 55.8537 137.435C55.5653 137.262 55.2339 137.176 54.8593 137.176C54.5544 137.173 54.2545 137.229 53.9595 137.345C53.6645 137.461 53.4308 137.614 53.2585 137.803L51.593 137.529L52.125 132.279H58.0312V133.82H53.6512L53.3579 136.52H53.4176C53.6065 136.298 53.8733 136.114 54.218 135.968C54.5627 135.819 54.9405 135.744 55.3515 135.744C55.968 135.744 56.5182 135.89 57.0021 136.182C57.486 136.47 57.8672 136.868 58.1456 137.375C58.424 137.882 58.5632 138.462 58.5632 139.115C58.5632 139.788 58.4074 140.388 58.0958 140.915C57.7876 141.438 57.3584 141.851 56.8082 142.153C56.2613 142.451 55.6283 142.6 54.9091 142.6Z" fill="#6B7280"/>
<path d="M38.344 186.742V196.924H36.4996V188.537H36.4399L34.0585 190.058V188.368L36.5891 186.742H38.344ZM41.3021 196.924L45.6324 188.353V188.283H40.6061V186.742H47.5415V188.318L43.2162 196.924H41.3021ZM52.6908 197.118C51.8722 197.118 51.1695 196.911 50.5829 196.496C49.9995 196.079 49.5504 195.477 49.2356 194.692C48.924 193.903 48.7682 192.953 48.7682 191.843C48.7715 190.733 48.929 189.788 49.2405 189.009C49.5554 188.227 50.0045 187.63 50.5878 187.219C51.1745 186.808 51.8755 186.603 52.6908 186.603C53.5061 186.603 54.2071 186.808 54.7938 187.219C55.3804 187.63 55.8295 188.227 56.1411 189.009C56.456 189.791 56.6134 190.736 56.6134 191.843C56.6134 192.956 56.456 193.908 56.1411 194.697C55.8295 195.482 55.3804 196.082 54.7938 196.496C54.2105 196.911 53.5095 197.118 52.6908 197.118ZM52.6908 195.562C53.3272 195.562 53.8293 195.248 54.1972 194.622C54.5684 193.992 54.754 193.066 54.754 191.843C54.754 191.034 54.6695 190.355 54.5005 189.805C54.3314 189.254 54.0928 188.84 53.7846 188.562C53.4763 188.28 53.1117 188.139 52.6908 188.139C52.0578 188.139 51.5573 188.454 51.1894 189.084C50.8215 189.71 50.6359 190.63 50.6326 191.843C50.6293 192.655 50.7105 193.338 50.8762 193.891C51.0452 194.445 51.2838 194.862 51.5921 195.144C51.9003 195.422 52.2666 195.562 52.6908 195.562Z" fill="#6B7280"/>
<path d="M37.7425 241.203V251.385H35.898V242.998H35.8384L33.457 244.519V242.829L35.9875 241.203H37.7425ZM44.0564 251.524C43.5692 251.521 43.0936 251.436 42.6296 251.27C42.1655 251.101 41.7479 250.828 41.3767 250.45C41.0055 250.069 40.7105 249.564 40.4918 248.934C40.273 248.301 40.1653 247.517 40.1686 246.582C40.1686 245.711 40.2614 244.933 40.447 244.251C40.6326 243.568 40.8994 242.991 41.2474 242.52C41.5955 242.046 42.0147 241.685 42.5053 241.437C42.9991 241.188 43.551 241.064 44.1608 241.064C44.8005 241.064 45.3672 241.19 45.8611 241.442C46.3582 241.693 46.7593 242.038 47.0642 242.476C47.3691 242.91 47.5581 243.4 47.631 243.947H45.8163C45.7235 243.556 45.533 243.245 45.2446 243.013C44.9596 242.777 44.5983 242.66 44.1608 242.66C43.4548 242.66 42.9113 242.966 42.5301 243.579C42.1523 244.193 41.9617 245.034 41.9584 246.105H42.028C42.1904 245.813 42.4009 245.563 42.6594 245.354C42.9179 245.145 43.2096 244.985 43.5344 244.872C43.8625 244.756 44.2089 244.698 44.5734 244.698C45.17 244.698 45.7053 244.84 46.1793 245.126C46.6565 245.411 47.0344 245.803 47.3128 246.304C47.5912 246.801 47.7287 247.371 47.7254 248.014C47.7287 248.684 47.5763 249.285 47.268 249.819C46.9598 250.349 46.5306 250.767 45.9804 251.072C45.4302 251.376 44.7889 251.527 44.0564 251.524ZM44.0465 250.032C44.4077 250.032 44.7309 249.945 45.0159 249.769C45.301 249.593 45.5263 249.356 45.6921 249.058C45.8578 248.76 45.939 248.425 45.9357 248.054C45.939 247.689 45.8594 247.359 45.697 247.064C45.5379 246.769 45.3175 246.536 45.0358 246.363C44.7541 246.191 44.4326 246.105 44.0713 246.105C43.8028 246.105 43.5526 246.156 43.3206 246.259C43.0886 246.362 42.8864 246.504 42.7141 246.687C42.5417 246.866 42.4058 247.074 42.3064 247.313C42.2103 247.548 42.1606 247.8 42.1572 248.069C42.1606 248.423 42.2434 248.75 42.4058 249.048C42.5682 249.346 42.792 249.585 43.077 249.764C43.362 249.943 43.6852 250.032 44.0465 250.032ZM52.9456 251.524C52.2827 251.524 51.6894 251.4 51.1658 251.151C50.6421 250.899 50.2261 250.555 49.9179 250.117C49.613 249.68 49.4506 249.179 49.4307 248.616H51.2205C51.2536 249.033 51.4342 249.375 51.7624 249.64C52.0905 249.902 52.4849 250.032 52.9456 250.032C53.3069 250.032 53.6284 249.95 53.9101 249.784C54.1918 249.618 54.4139 249.388 54.5763 249.093C54.7387 248.798 54.8182 248.461 54.8149 248.084C54.8182 247.699 54.737 247.358 54.5713 247.059C54.4056 246.761 54.1786 246.528 53.8902 246.358C53.6019 246.186 53.2704 246.1 52.8959 246.1C52.591 246.097 52.291 246.153 51.996 246.269C51.701 246.385 51.4674 246.537 51.295 246.726L49.6296 246.453L50.1615 241.203H56.0678V242.744H51.6878L51.3945 245.444H51.4541C51.643 245.222 51.9099 245.038 52.2546 244.892C52.5992 244.743 52.9771 244.668 53.3881 244.668C54.0046 244.668 54.5547 244.814 55.0386 245.106C55.5225 245.394 55.9037 245.792 56.1821 246.299C56.4605 246.806 56.5997 247.386 56.5997 248.039C56.5997 248.712 56.4439 249.312 56.1324 249.839C55.8242 250.362 55.3949 250.775 54.8447 251.077C54.2979 251.375 53.6648 251.524 52.9456 251.524Z" fill="#6B7280"/>
<path d="M37.264 295.666V305.848H35.4195V297.461H35.3598L32.9784 298.982V297.292L35.509 295.666H37.264ZM43.5779 305.987C43.0907 305.984 42.6151 305.899 42.151 305.733C41.687 305.564 41.2694 305.291 40.8982 304.913C40.527 304.532 40.232 304.026 40.0133 303.397C39.7945 302.764 39.6868 301.98 39.6901 301.045C39.6901 300.173 39.7829 299.396 39.9685 298.713C40.1541 298.031 40.4209 297.454 40.7689 296.983C41.1169 296.509 41.5362 296.148 42.0267 295.9C42.5206 295.651 43.0724 295.527 43.6823 295.527C44.322 295.527 44.8887 295.653 45.3826 295.904C45.8797 296.156 46.2808 296.501 46.5857 296.939C46.8906 297.373 47.0795 297.863 47.1525 298.41H45.3378C45.245 298.019 45.0544 297.708 44.7661 297.475C44.4811 297.24 44.1198 297.123 43.6823 297.123C42.9763 297.123 42.4328 297.429 42.0516 298.042C41.6738 298.655 41.4832 299.497 41.4799 300.568H41.5495C41.7119 300.276 41.9223 300.026 42.1809 299.817C42.4394 299.608 42.7311 299.448 43.0559 299.335C43.384 299.219 43.7303 299.161 44.0949 299.161C44.6915 299.161 45.2268 299.303 45.7008 299.588C46.178 299.873 46.5559 300.266 46.8343 300.767C47.1127 301.264 47.2502 301.834 47.2469 302.477C47.2502 303.146 47.0978 303.748 46.7895 304.282C46.4813 304.812 46.0521 305.23 45.5019 305.534C44.9517 305.839 44.3104 305.99 43.5779 305.987ZM43.5679 304.495C43.9292 304.495 44.2524 304.408 44.5374 304.232C44.8224 304.056 45.0478 303.819 45.2135 303.521C45.3793 303.223 45.4605 302.888 45.4571 302.517C45.4605 302.152 45.3809 301.822 45.2185 301.527C45.0594 301.232 44.839 300.999 44.5573 300.826C44.2756 300.654 43.9541 300.568 43.5928 300.568C43.3243 300.568 43.0741 300.619 42.8421 300.722C42.6101 300.825 42.4079 300.967 42.2356 301.15C42.0632 301.328 41.9273 301.537 41.8279 301.776C41.7318 302.011 41.682 302.263 41.6787 302.532C41.682 302.886 41.7649 303.213 41.9273 303.511C42.0897 303.809 42.3134 304.048 42.5985 304.227C42.8835 304.406 43.2067 304.495 43.5679 304.495ZM52.6908 306.042C51.8722 306.042 51.1695 305.834 50.5829 305.42C49.9995 305.002 49.5504 304.401 49.2356 303.615C48.924 302.827 48.7682 301.877 48.7682 300.767C48.7715 299.656 48.929 298.712 49.2405 297.933C49.5554 297.151 50.0045 296.554 50.5878 296.143C51.1745 295.732 51.8755 295.527 52.6908 295.527C53.5061 295.527 54.2071 295.732 54.7938 296.143C55.3804 296.554 55.8295 297.151 56.1411 297.933C56.456 298.715 56.6134 299.66 56.6134 300.767C56.6134 301.88 56.456 302.832 56.1411 303.62C55.8295 304.406 55.3804 305.006 54.7938 305.42C54.2105 305.834 53.5095 306.042 52.6908 306.042ZM52.6908 304.485C53.3272 304.485 53.8293 304.172 54.1972 303.546C54.5684 302.916 54.754 301.99 54.754 300.767C54.754 299.958 54.6695 299.279 54.5005 298.728C54.3314 298.178 54.0928 297.764 53.7846 297.485C53.4763 297.204 53.1117 297.063 52.6908 297.063C52.0578 297.063 51.5573 297.378 51.1894 298.007C50.8215 298.634 50.6359 299.554 50.6326 300.767C50.6293 301.579 50.7105 302.261 50.8762 302.815C51.0452 303.368 51.2838 303.786 51.5921 304.068C51.9003 304.346 52.2666 304.485 52.6908 304.485Z" fill="#6B7280"/>
<path d="M52.6908 360.502C51.8722 360.502 51.1695 360.295 50.5829 359.881C49.9995 359.463 49.5504 358.862 49.2356 358.076C48.924 357.288 48.7682 356.338 48.7682 355.228C48.7715 354.117 48.929 353.173 49.2405 352.394C49.5554 351.612 50.0045 351.015 50.5878 350.604C51.1745 350.193 51.8755 349.988 52.6908 349.988C53.5061 349.988 54.2071 350.193 54.7938 350.604C55.3804 351.015 55.8295 351.612 56.1411 352.394C56.456 353.176 56.6134 354.121 56.6134 355.228C56.6134 356.341 56.456 357.292 56.1411 358.081C55.8295 358.867 55.3804 359.467 54.7938 359.881C54.2105 360.295 53.5095 360.502 52.6908 360.502ZM52.6908 358.946C53.3272 358.946 53.8293 358.633 54.1972 358.007C54.5684 357.377 54.754 356.451 54.754 355.228C54.754 354.419 54.6695 353.739 54.5005 353.189C54.3314 352.639 54.0928 352.225 53.7846 351.946C53.4763 351.665 53.1117 351.524 52.6908 351.524C52.0578 351.524 51.5573 351.839 51.1894 352.468C50.8215 353.095 50.6359 354.015 50.6326 355.228C50.6293 356.04 50.7105 356.722 50.8762 357.276C51.0452 357.829 51.2838 358.247 51.5921 358.529C51.9003 358.807 52.2666 358.946 52.6908 358.946Z" fill="#6B7280"/>
<line x1="88.1992" y1="79.8203" x2="947.199" y2="79.8203" stroke="#F3F4F6"/>
<line x1="88.1992" y1="125.846" x2="947.199" y2="125.846" stroke="#F3F4F6"/>
<line x1="88.1992" y1="171.871" x2="947.199" y2="171.871" stroke="#F3F4F6"/>
<line x1="88.4531" y1="217.895" x2="947.453" y2="217.895" stroke="#F3F4F6"/>
<line x1="88.1992" y1="263.918" x2="947.199" y2="263.918" stroke="#F3F4F6"/>
<line x1="88.1992" y1="309.943" x2="947.199" y2="309.943" stroke="#F3F4F6"/>
<line x1="88.1992" y1="355.967" x2="947.199" y2="355.967" stroke="#F3F4F6"/>
<path d="M922.127 383.574H924.782L927.586 390.415H927.705L930.509 383.574H933.164V393.756H931.076V387.129H930.991L928.356 393.706H926.934L924.3 387.104H924.215V393.756H922.127V383.574ZM938.348 393.905C937.576 393.905 936.908 393.741 936.344 393.413C935.784 393.081 935.352 392.621 935.047 392.031C934.742 391.437 934.589 390.75 934.589 389.968C934.589 389.179 934.742 388.489 935.047 387.899C935.352 387.306 935.784 386.845 936.344 386.517C936.908 386.186 937.576 386.02 938.348 386.02C939.12 386.02 939.786 386.186 940.347 386.517C940.91 386.845 941.344 387.306 941.649 387.899C941.954 388.489 942.107 389.179 942.107 389.968C942.107 390.75 941.954 391.437 941.649 392.031C941.344 392.621 940.91 393.081 940.347 393.413C939.786 393.741 939.12 393.905 938.348 393.905ZM938.358 392.264C938.709 392.264 939.003 392.165 939.238 391.966C939.473 391.764 939.651 391.489 939.77 391.141C939.892 390.793 939.954 390.397 939.954 389.953C939.954 389.508 939.892 389.112 939.77 388.764C939.651 388.416 939.473 388.141 939.238 387.939C939.003 387.737 938.709 387.636 938.358 387.636C938.003 387.636 937.705 387.737 937.463 387.939C937.224 388.141 937.044 388.416 936.921 388.764C936.802 389.112 936.742 389.508 936.742 389.953C936.742 390.397 936.802 390.793 936.921 391.141C937.044 391.489 937.224 391.764 937.463 391.966C937.705 392.165 938.003 392.264 938.358 392.264ZM945.602 389.341V393.756H943.484V386.119H945.502V387.467H945.592C945.761 387.023 946.044 386.671 946.442 386.413C946.839 386.151 947.322 386.02 947.888 386.02C948.419 386.02 948.881 386.136 949.276 386.368C949.67 386.6 949.977 386.932 950.195 387.362C950.414 387.79 950.523 388.3 950.523 388.894V393.756H948.406V389.271C948.409 388.804 948.29 388.44 948.048 388.178C947.806 387.913 947.473 387.78 947.048 387.78C946.763 387.78 946.511 387.841 946.293 387.964C946.077 388.087 945.908 388.266 945.785 388.501C945.666 388.733 945.605 389.013 945.602 389.341Z" fill="#4B5563"/>
<path d="M789.407 386.502C789.367 386.101 789.197 385.79 788.895 385.568C788.593 385.346 788.184 385.235 787.667 385.235C787.316 385.235 787.019 385.284 786.777 385.384C786.535 385.48 786.35 385.614 786.22 385.786C786.094 385.959 786.031 386.154 786.031 386.373C786.025 386.555 786.063 386.714 786.146 386.85C786.232 386.986 786.35 387.104 786.499 387.203C786.648 387.299 786.82 387.384 787.016 387.457C787.211 387.526 787.42 387.586 787.642 387.636L788.557 387.855C789.001 387.954 789.409 388.087 789.78 388.252C790.151 388.418 790.473 388.622 790.745 388.864C791.016 389.106 791.227 389.391 791.376 389.719C791.528 390.047 791.606 390.423 791.61 390.847C791.606 391.471 791.447 392.011 791.132 392.468C790.821 392.922 790.37 393.275 789.78 393.527C789.193 393.776 788.486 393.9 787.657 393.9C786.835 393.9 786.119 393.774 785.509 393.522C784.903 393.27 784.429 392.897 784.088 392.404C783.749 391.906 783.572 391.292 783.556 390.559H785.639C785.662 390.901 785.76 391.186 785.932 391.414C786.108 391.64 786.341 391.81 786.633 391.926C786.928 392.039 787.261 392.095 787.632 392.095C787.997 392.095 788.313 392.042 788.582 391.936C788.854 391.83 789.064 391.683 789.213 391.494C789.362 391.305 789.437 391.088 789.437 390.843C789.437 390.614 789.369 390.422 789.233 390.266C789.101 390.11 788.905 389.977 788.647 389.868C788.391 389.759 788.078 389.659 787.707 389.57L786.598 389.291C785.74 389.083 785.062 388.756 784.565 388.312C784.068 387.868 783.821 387.27 783.824 386.517C783.821 385.901 783.985 385.362 784.316 384.901C784.651 384.441 785.11 384.081 785.693 383.823C786.277 383.564 786.94 383.435 787.682 383.435C788.438 383.435 789.097 383.564 789.661 383.823C790.227 384.081 790.668 384.441 790.983 384.901C791.298 385.362 791.46 385.896 791.47 386.502H789.407ZM797.915 390.504V386.119H800.033V393.756H797.999V392.369H797.92C797.747 392.816 797.461 393.176 797.06 393.448C796.662 393.719 796.176 393.855 795.603 393.855C795.093 393.855 794.643 393.739 794.256 393.507C793.868 393.275 793.565 392.945 793.346 392.518C793.13 392.09 793.021 391.578 793.018 390.982V386.119H795.136V390.604C795.139 391.055 795.26 391.411 795.499 391.673C795.737 391.935 796.057 392.066 796.458 392.066C796.713 392.066 796.952 392.008 797.174 391.892C797.396 391.772 797.575 391.597 797.711 391.365C797.85 391.133 797.918 390.846 797.915 390.504ZM803.845 389.341V393.756H801.727V386.119H803.745V387.467H803.835C804.004 387.023 804.287 386.671 804.685 386.413C805.083 386.151 805.565 386.02 806.132 386.02C806.662 386.02 807.124 386.136 807.519 386.368C807.913 386.6 808.22 386.932 808.438 387.362C808.657 387.79 808.767 388.3 808.767 388.894V393.756H806.649V389.271C806.652 388.804 806.533 388.44 806.291 388.178C806.049 387.913 805.716 387.78 805.291 387.78C805.006 387.78 804.754 387.841 804.536 387.964C804.32 388.087 804.151 388.266 804.029 388.501C803.909 388.733 803.848 389.013 803.845 389.341Z" fill="#4B5563"/>
<path d="M651.335 386.502C651.295 386.101 651.124 385.79 650.823 385.568C650.521 385.346 650.112 385.235 649.595 385.235C649.244 385.235 648.947 385.284 648.705 385.384C648.463 385.48 648.277 385.614 648.148 385.786C648.022 385.959 647.959 386.154 647.959 386.373C647.953 386.555 647.991 386.714 648.074 386.85C648.16 386.986 648.277 387.104 648.427 387.203C648.576 387.299 648.748 387.384 648.944 387.457C649.139 387.526 649.348 387.586 649.57 387.636L650.485 387.855C650.929 387.954 651.337 388.087 651.708 388.252C652.079 388.418 652.401 388.622 652.672 388.864C652.944 389.106 653.155 389.391 653.304 389.719C653.456 390.047 653.534 390.423 653.537 390.847C653.534 391.471 653.375 392.011 653.06 392.468C652.749 392.922 652.298 393.275 651.708 393.527C651.121 393.776 650.414 393.9 649.585 393.9C648.763 393.9 648.047 393.774 647.437 393.522C646.831 393.27 646.357 392.897 646.015 392.404C645.677 391.906 645.5 391.292 645.483 390.559H647.566C647.59 390.901 647.687 391.186 647.86 391.414C648.035 391.64 648.269 391.81 648.561 391.926C648.856 392.039 649.189 392.095 649.56 392.095C649.925 392.095 650.241 392.042 650.51 391.936C650.781 391.83 650.992 391.683 651.141 391.494C651.29 391.305 651.365 391.088 651.365 390.843C651.365 390.614 651.297 390.422 651.161 390.266C651.028 390.11 650.833 389.977 650.574 389.868C650.319 389.759 650.006 389.659 649.635 389.57L648.526 389.291C647.668 389.083 646.99 388.756 646.493 388.312C645.995 387.868 645.749 387.27 645.752 386.517C645.749 385.901 645.913 385.362 646.244 384.901C646.579 384.441 647.038 384.081 647.621 383.823C648.205 383.564 648.867 383.435 649.61 383.435C650.366 383.435 651.025 383.564 651.589 383.823C652.155 384.081 652.596 384.441 652.911 384.901C653.226 385.362 653.388 385.896 653.398 386.502H651.335ZM657.123 393.9C656.636 393.9 656.202 393.816 655.821 393.646C655.439 393.474 655.138 393.221 654.916 392.886C654.697 392.548 654.588 392.127 654.588 391.623C654.588 391.199 654.666 390.843 654.821 390.554C654.977 390.266 655.189 390.034 655.458 389.858C655.726 389.682 656.031 389.55 656.372 389.46C656.717 389.371 657.078 389.308 657.456 389.271C657.9 389.225 658.258 389.182 658.53 389.142C658.802 389.099 658.999 389.036 659.122 388.953C659.244 388.87 659.306 388.748 659.306 388.585V388.556C659.306 388.241 659.206 387.997 659.007 387.825C658.812 387.652 658.533 387.566 658.172 387.566C657.791 387.566 657.488 387.651 657.262 387.82C657.037 387.985 656.888 388.194 656.815 388.446L654.856 388.287C654.956 387.823 655.151 387.422 655.443 387.084C655.734 386.743 656.111 386.481 656.571 386.298C657.035 386.113 657.572 386.02 658.182 386.02C658.606 386.02 659.012 386.07 659.4 386.169C659.791 386.269 660.138 386.423 660.439 386.632C660.744 386.84 660.984 387.109 661.16 387.437C661.336 387.762 661.424 388.151 661.424 388.605V393.756H659.415V392.697H659.355C659.233 392.936 659.069 393.146 658.863 393.328C658.658 393.507 658.411 393.648 658.122 393.751C657.834 393.85 657.501 393.9 657.123 393.9ZM657.73 392.438C658.041 392.438 658.316 392.377 658.555 392.254C658.794 392.128 658.981 391.959 659.117 391.747C659.253 391.535 659.321 391.295 659.321 391.026V390.216C659.254 390.259 659.163 390.299 659.047 390.335C658.934 390.369 658.807 390.4 658.664 390.43C658.522 390.456 658.379 390.481 658.237 390.504C658.094 390.524 657.965 390.543 657.849 390.559C657.6 390.596 657.383 390.654 657.198 390.733C657.012 390.813 656.868 390.92 656.765 391.056C656.662 391.189 656.611 391.355 656.611 391.553C656.611 391.842 656.715 392.062 656.924 392.215C657.136 392.364 657.405 392.438 657.73 392.438ZM667.128 386.119V387.71H662.53V386.119H667.128ZM663.574 384.29H665.692V391.409C665.692 391.605 665.722 391.757 665.781 391.867C665.841 391.973 665.924 392.047 666.03 392.09C666.139 392.133 666.265 392.155 666.408 392.155C666.507 392.155 666.606 392.147 666.706 392.13C666.805 392.11 666.882 392.095 666.935 392.085L667.268 393.661C667.162 393.695 667.012 393.733 666.82 393.776C666.628 393.822 666.394 393.85 666.119 393.86C665.609 393.88 665.161 393.812 664.777 393.656C664.396 393.501 664.099 393.259 663.887 392.931C663.675 392.602 663.57 392.188 663.574 391.688V384.29Z" fill="#4B5563"/>
<path d="M508.375 393.756V383.574H515.116V385.349H510.528V387.775H514.669V389.55H510.528V393.756H508.375ZM516.402 393.756V386.119H518.455V387.452H518.534C518.674 386.978 518.907 386.62 519.235 386.378C519.564 386.133 519.941 386.01 520.369 386.01C520.475 386.01 520.589 386.017 520.712 386.03C520.835 386.043 520.942 386.061 521.035 386.085V387.964C520.936 387.934 520.798 387.908 520.622 387.884C520.447 387.861 520.286 387.85 520.14 387.85C519.829 387.85 519.55 387.918 519.305 388.053C519.063 388.186 518.871 388.372 518.728 388.61C518.589 388.849 518.52 389.124 518.52 389.436V393.756H516.402ZM522.13 393.756V386.119H524.248V393.756H522.13ZM523.194 385.135C522.879 385.135 522.609 385.031 522.384 384.822C522.162 384.61 522.051 384.356 522.051 384.061C522.051 383.77 522.162 383.519 522.384 383.311C522.609 383.098 522.879 382.992 523.194 382.992C523.509 382.992 523.777 383.098 523.999 383.311C524.225 383.519 524.338 383.77 524.338 384.061C524.338 384.356 524.225 384.61 523.999 384.822C523.777 385.031 523.509 385.135 523.194 385.135Z" fill="#4B5563"/>
<path d="M366.053 385.349V383.574H374.415V385.349H371.298V393.756H369.17V385.349H366.053ZM377.871 389.341V393.756H375.753V383.574H377.811V387.467H377.901C378.073 387.016 378.351 386.663 378.736 386.408C379.12 386.149 379.603 386.02 380.183 386.02C380.713 386.02 381.175 386.136 381.57 386.368C381.967 386.597 382.276 386.927 382.494 387.357C382.716 387.785 382.826 388.297 382.822 388.894V393.756H380.705V389.271C380.708 388.801 380.589 388.435 380.347 388.173C380.108 387.911 379.773 387.78 379.342 387.78C379.054 387.78 378.799 387.841 378.577 387.964C378.358 388.087 378.186 388.266 378.06 388.501C377.937 388.733 377.874 389.013 377.871 389.341ZM389.386 390.504V386.119H391.504V393.756H389.471V392.369H389.391C389.219 392.816 388.932 393.176 388.531 393.448C388.133 393.719 387.648 393.855 387.074 393.855C386.564 393.855 386.115 393.739 385.727 393.507C385.339 393.275 385.036 392.945 384.817 392.518C384.602 392.09 384.492 391.578 384.489 390.982V386.119H386.607V390.604C386.61 391.055 386.731 391.411 386.97 391.673C387.209 391.935 387.528 392.066 387.93 392.066C388.185 392.066 388.423 392.008 388.645 391.892C388.867 391.772 389.046 391.597 389.182 391.365C389.322 391.133 389.389 390.846 389.386 390.504Z" fill="#4B5563"/>
<path d="M228.995 393.756L226.082 383.574H228.433L230.119 390.649H230.203L232.062 383.574H234.076L235.93 390.664H236.02L237.705 383.574H240.057L237.143 393.756H235.045L233.107 387.099H233.027L231.093 393.756H228.995ZM243.829 393.905C243.043 393.905 242.367 393.746 241.801 393.428C241.237 393.106 240.803 392.652 240.498 392.066C240.193 391.476 240.041 390.778 240.041 389.972C240.041 389.187 240.193 388.498 240.498 387.904C240.803 387.311 241.232 386.849 241.786 386.517C242.342 386.186 242.995 386.02 243.744 386.02C244.248 386.02 244.717 386.101 245.151 386.264C245.589 386.423 245.97 386.663 246.295 386.985C246.623 387.306 246.878 387.71 247.061 388.198C247.243 388.682 247.334 389.248 247.334 389.898V390.48H240.886V389.167H245.34C245.34 388.862 245.274 388.592 245.141 388.357C245.009 388.121 244.825 387.937 244.59 387.805C244.358 387.669 244.088 387.601 243.779 387.601C243.458 387.601 243.173 387.676 242.924 387.825C242.679 387.971 242.487 388.168 242.347 388.416C242.208 388.662 242.137 388.935 242.134 389.237V390.485C242.134 390.862 242.203 391.189 242.342 391.464C242.485 391.739 242.686 391.951 242.944 392.1C243.203 392.249 243.509 392.324 243.864 392.324C244.099 392.324 244.315 392.291 244.51 392.225C244.706 392.158 244.873 392.059 245.012 391.926C245.151 391.794 245.257 391.631 245.33 391.439L247.289 391.568C247.19 392.039 246.986 392.45 246.678 392.801C246.373 393.149 245.978 393.421 245.494 393.617C245.014 393.809 244.459 393.905 243.829 393.905ZM251.53 393.88C250.95 393.88 250.425 393.731 249.954 393.433C249.487 393.131 249.115 392.689 248.84 392.105C248.569 391.519 248.433 390.799 248.433 389.948C248.433 389.073 248.574 388.345 248.855 387.765C249.137 387.182 249.512 386.746 249.979 386.458C250.449 386.166 250.965 386.02 251.525 386.02C251.953 386.02 252.309 386.093 252.594 386.239C252.882 386.381 253.114 386.56 253.29 386.776C253.469 386.988 253.605 387.197 253.698 387.402H253.762V383.574H255.875V393.756H253.787V392.533H253.698C253.598 392.745 253.457 392.955 253.275 393.164C253.096 393.37 252.862 393.54 252.574 393.676C252.289 393.812 251.941 393.88 251.53 393.88ZM252.201 392.195C252.543 392.195 252.831 392.102 253.066 391.916C253.305 391.727 253.487 391.464 253.613 391.126C253.742 390.788 253.807 390.392 253.807 389.938C253.807 389.484 253.744 389.089 253.618 388.754C253.492 388.42 253.31 388.161 253.071 387.979C252.833 387.797 252.543 387.705 252.201 387.705C251.853 387.705 251.56 387.8 251.321 387.989C251.083 388.178 250.902 388.44 250.779 388.774C250.657 389.109 250.595 389.497 250.595 389.938C250.595 390.382 250.657 390.775 250.779 391.116C250.905 391.454 251.086 391.719 251.321 391.911C251.56 392.1 251.853 392.195 252.201 392.195Z" fill="#4B5563"/>
<path d="M89.0975 385.349V383.574H97.4597V385.349H94.3426V393.756H92.2147V385.349H89.0975ZM102.655 390.504V386.119H104.773V393.756H102.74V392.369H102.66C102.488 392.816 102.201 393.176 101.8 393.448C101.402 393.719 100.917 393.855 100.343 393.855C99.8329 393.855 99.3838 393.739 98.996 393.507C98.6082 393.275 98.3049 392.945 98.0862 392.518C97.8707 392.09 97.7614 391.578 97.758 390.982V386.119H99.8759V390.604C99.8793 391.055 100 391.411 100.239 391.673C100.478 391.935 100.797 392.066 101.198 392.066C101.454 392.066 101.692 392.008 101.914 391.892C102.136 391.772 102.315 391.597 102.451 391.365C102.59 391.133 102.658 390.846 102.655 390.504ZM109.947 393.905C109.162 393.905 108.485 393.746 107.919 393.428C107.355 393.106 106.921 392.652 106.616 392.066C106.311 391.476 106.159 390.778 106.159 389.972C106.159 389.187 106.311 388.498 106.616 387.904C106.921 387.311 107.35 386.849 107.904 386.517C108.461 386.186 109.114 386.02 109.863 386.02C110.366 386.02 110.835 386.101 111.27 386.264C111.707 386.423 112.088 386.663 112.413 386.985C112.741 387.306 112.996 387.71 113.179 388.198C113.361 388.682 113.452 389.248 113.452 389.898V390.48H107.004V389.167H111.459C111.459 388.862 111.392 388.592 111.26 388.357C111.127 388.121 110.943 387.937 110.708 387.805C110.476 387.669 110.206 387.601 109.897 387.601C109.576 387.601 109.291 387.676 109.042 387.825C108.797 387.971 108.605 388.168 108.466 388.416C108.326 388.662 108.255 388.935 108.252 389.237V390.485C108.252 390.862 108.321 391.189 108.461 391.464C108.603 391.739 108.804 391.951 109.062 392.1C109.321 392.249 109.627 392.324 109.982 392.324C110.217 392.324 110.433 392.291 110.628 392.225C110.824 392.158 110.991 392.059 111.13 391.926C111.27 391.794 111.376 391.631 111.449 391.439L113.407 391.568C113.308 392.039 113.104 392.45 112.796 392.801C112.491 393.149 112.097 393.421 111.613 393.617C111.132 393.809 110.577 393.905 109.947 393.905Z" fill="#4B5563"/>
<path d="M947 153.174H805.179H498.927C330.386 141.946 94.7025 214.256 81 243" stroke="#4DCEFB" stroke-width="2"/>
<circle r="5" transform="matrix(-1 0 0 1 805.453 153.219)" fill="white" stroke="#4DCEFB" stroke-width="2"/>
<circle r="5" transform="matrix(-1 0 0 1 406.465 153.219)" fill="white" stroke="#4DCEFB" stroke-width="2"/>
<circle r="5" transform="matrix(-1 0 0 1 240.875 183.219)" fill="white" stroke="#4DCEFB" stroke-width="2"/>
<circle r="5" transform="matrix(-1 0 0 1 103.615 226.594)" fill="white" stroke="#4DCEFB" stroke-width="2"/>
<g filter="url(#filter1_dd_1_42)">
<g clip-path="url(#clip0_1_42)">
<path d="M758 34C758 27.3726 763.373 22 770 22H936C942.627 22 948 27.3726 948 34V40C948 46.6274 942.627 52 936 52H770C763.373 52 758 46.6274 758 40V34Z" fill="white"/>
<path d="M758 29.5C758 22.8726 763.373 17.5 770 17.5H815.5V56.5H770C763.373 56.5 758 51.1274 758 44.5V29.5Z" fill="white"/>
<path d="M772.083 32.3182H773.828L776.488 36.9467H776.597L779.257 32.3182H781.002L777.308 38.5028V42.5H775.777V38.5028L772.083 32.3182ZM784.367 42.6541C783.614 42.6541 782.966 42.4934 782.423 42.1719C781.883 41.8471 781.465 41.3913 781.17 40.8047C780.878 40.2147 780.732 39.5237 780.732 38.7315C780.732 37.9493 780.878 37.2599 781.17 36.6634C781.465 36.0668 781.876 35.6011 782.403 35.2663C782.933 34.9316 783.553 34.7642 784.262 34.7642C784.693 34.7642 785.111 34.8355 785.515 34.978C785.919 35.1205 786.282 35.3442 786.604 35.6491C786.925 35.9541 787.179 36.3501 787.365 36.8374C787.55 37.3213 787.643 37.9096 787.643 38.6023V39.1293H781.573V38.0156H786.186C786.186 37.6245 786.107 37.2782 785.948 36.9766C785.789 36.6716 785.565 36.4313 785.276 36.2557C784.991 36.08 784.657 35.9922 784.272 35.9922C783.855 35.9922 783.49 36.0949 783.178 36.3004C782.87 36.5026 782.632 36.7678 782.463 37.0959C782.297 37.4207 782.214 37.7737 782.214 38.1548V39.0249C782.214 39.5353 782.303 39.9695 782.482 40.3274C782.665 40.6854 782.918 40.9588 783.243 41.1477C783.568 41.3333 783.947 41.4261 784.382 41.4261C784.663 41.4261 784.92 41.3864 785.152 41.3068C785.384 41.224 785.585 41.1013 785.754 40.9389C785.923 40.7765 786.052 40.576 786.142 40.3374L787.548 40.5909C787.436 41.0052 787.234 41.3681 786.942 41.6797C786.654 41.9879 786.291 42.2282 785.853 42.4006C785.419 42.5696 784.923 42.6541 784.367 42.6541ZM791.515 42.669C791.031 42.669 790.593 42.5795 790.202 42.4006C789.811 42.2183 789.501 41.9548 789.272 41.6101C789.047 41.2654 788.934 40.8428 788.934 40.3423C788.934 39.9115 789.017 39.5568 789.183 39.2784C789.349 39 789.572 38.7796 789.854 38.6172C790.136 38.4548 790.451 38.3321 790.799 38.2493C791.147 38.1664 791.501 38.1035 791.863 38.0604C792.32 38.0073 792.691 37.9643 792.976 37.9311C793.261 37.8946 793.468 37.8366 793.598 37.7571C793.727 37.6776 793.792 37.5483 793.792 37.3693V37.3345C793.792 36.9003 793.669 36.5639 793.424 36.3253C793.182 36.0866 792.82 35.9673 792.34 35.9673C791.839 35.9673 791.445 36.0784 791.157 36.3004C790.872 36.5192 790.674 36.7628 790.565 37.0312L789.168 36.7131C789.334 36.2491 789.576 35.8745 789.894 35.5895C790.215 35.3011 790.585 35.0923 791.002 34.9631C791.42 34.8305 791.859 34.7642 792.32 34.7642C792.625 34.7642 792.948 34.8007 793.289 34.8736C793.634 34.9432 793.956 35.0724 794.254 35.2614C794.556 35.4503 794.802 35.7204 794.995 36.0717C795.187 36.4197 795.283 36.8722 795.283 37.429V42.5H793.831V41.456H793.772C793.676 41.6482 793.531 41.8371 793.339 42.0227C793.147 42.2083 792.9 42.3625 792.598 42.4851C792.297 42.6077 791.935 42.669 791.515 42.669ZM791.838 41.4759C792.249 41.4759 792.6 41.3946 792.892 41.2322C793.187 41.0698 793.41 40.8577 793.563 40.5959C793.719 40.3307 793.797 40.0473 793.797 39.7457V38.7614C793.743 38.8144 793.641 38.8641 793.488 38.9105C793.339 38.9536 793.168 38.9917 792.976 39.0249C792.784 39.0547 792.597 39.0829 792.414 39.1094C792.232 39.1326 792.08 39.1525 791.957 39.169C791.669 39.2055 791.405 39.2668 791.167 39.353C790.931 39.4392 790.742 39.5634 790.6 39.7259C790.461 39.8849 790.391 40.0971 790.391 40.3622C790.391 40.7301 790.527 41.0085 790.799 41.1974C791.07 41.383 791.417 41.4759 791.838 41.4759ZM797.263 42.5V34.8636H798.7V36.0767H798.779C798.919 35.6657 799.164 35.3426 799.515 35.1072C799.87 34.8686 800.271 34.7493 800.718 34.7493C800.811 34.7493 800.92 34.7526 801.046 34.7592C801.176 34.7659 801.277 34.7741 801.35 34.7841V36.206C801.29 36.1894 801.184 36.1712 801.031 36.1513C800.879 36.1281 800.727 36.1165 800.574 36.1165C800.223 36.1165 799.91 36.1911 799.634 36.3402C799.363 36.486 799.147 36.6899 798.988 36.9517C798.829 37.2102 798.749 37.5052 798.749 37.8366V42.5H797.263Z" fill="#111928"/>
<path d="M758 29.5C758 22.8726 763.373 17.5 770 17.5H815.5V56.5H770C763.373 56.5 758 51.1274 758 44.5V29.5Z" stroke="#E5E7EB"/>
<path d="M815.5 17.5H890.5V56.5H815.5V17.5Z" fill="white"/>
<path d="M832.119 32.3182H833.983L837.224 40.233H837.344L840.585 32.3182H842.45V42.5H840.988V35.1321H840.893L837.891 42.4851H836.678L833.675 35.1271H833.58V42.5H832.119V32.3182ZM847.78 42.6541C847.064 42.6541 846.44 42.4901 845.906 42.1619C845.372 41.8338 844.958 41.3748 844.663 40.7848C844.368 40.1948 844.221 39.5054 844.221 38.7166C844.221 37.9245 844.368 37.2318 844.663 36.6385C844.958 36.0452 845.372 35.5845 845.906 35.2564C846.44 34.9283 847.064 34.7642 847.78 34.7642C848.496 34.7642 849.121 34.9283 849.655 35.2564C850.188 35.5845 850.603 36.0452 850.898 36.6385C851.193 37.2318 851.34 37.9245 851.34 38.7166C851.34 39.5054 851.193 40.1948 850.898 40.7848C850.603 41.3748 850.188 41.8338 849.655 42.1619C849.121 42.4901 848.496 42.6541 847.78 42.6541ZM847.785 41.4062C848.249 41.4062 848.634 41.2836 848.939 41.0384C849.244 40.7931 849.469 40.4666 849.615 40.0589C849.764 39.6513 849.839 39.2022 849.839 38.7116C849.839 38.2244 849.764 37.777 849.615 37.3693C849.469 36.9583 849.244 36.6286 848.939 36.38C848.634 36.1314 848.249 36.0071 847.785 36.0071C847.318 36.0071 846.93 36.1314 846.622 36.38C846.317 36.6286 846.09 36.9583 845.941 37.3693C845.795 37.777 845.722 38.2244 845.722 38.7116C845.722 39.2022 845.795 39.6513 845.941 40.0589C846.09 40.4666 846.317 40.7931 846.622 41.0384C846.93 41.2836 847.318 41.4062 847.785 41.4062ZM854.486 37.9659V42.5H852.999V34.8636H854.426V36.1065H854.521C854.696 35.7022 854.971 35.3774 855.346 35.1321C855.724 34.8868 856.199 34.7642 856.773 34.7642C857.293 34.7642 857.749 34.8736 858.14 35.0923C858.531 35.3078 858.834 35.6293 859.05 36.0568C859.265 36.4844 859.373 37.013 859.373 37.6428V42.5H857.886V37.8217C857.886 37.2682 857.742 36.8357 857.454 36.5241C857.165 36.2093 856.769 36.0518 856.266 36.0518C855.921 36.0518 855.614 36.1264 855.346 36.2756C855.081 36.4247 854.87 36.6435 854.714 36.9318C854.562 37.2169 854.486 37.5616 854.486 37.9659ZM864.931 34.8636V36.0568H860.76V34.8636H864.931ZM861.879 33.0341H863.365V40.2578C863.365 40.5462 863.408 40.7633 863.494 40.9091C863.58 41.0516 863.692 41.1494 863.827 41.2024C863.967 41.2521 864.117 41.277 864.28 41.277C864.399 41.277 864.504 41.2687 864.593 41.2521C864.683 41.2356 864.752 41.2223 864.802 41.2124L865.07 42.4403C864.984 42.4735 864.862 42.5066 864.702 42.5398C864.543 42.5762 864.344 42.5961 864.106 42.5994C863.715 42.6061 863.35 42.5365 863.012 42.3906C862.674 42.2448 862.401 42.0194 862.192 41.7145C861.983 41.4096 861.879 41.0268 861.879 40.5661V33.0341ZM868.226 37.9659V42.5H866.74V32.3182H868.206V36.1065H868.301C868.48 35.6955 868.753 35.3691 869.121 35.1271C869.489 34.8852 869.969 34.7642 870.563 34.7642C871.086 34.7642 871.544 34.8719 871.935 35.0874C872.329 35.3028 872.634 35.6243 872.85 36.0518C873.068 36.4761 873.178 37.0064 873.178 37.6428V42.5H871.691V37.8217C871.691 37.2616 871.547 36.8274 871.259 36.5192C870.97 36.2076 870.569 36.0518 870.056 36.0518C869.704 36.0518 869.389 36.1264 869.111 36.2756C868.836 36.4247 868.619 36.6435 868.46 36.9318C868.304 37.2169 868.226 37.5616 868.226 37.9659Z" fill="#111928"/>
<path d="M815.5 17.5H890.5V56.5H815.5V17.5Z" stroke="#E5E7EB"/>
<path d="M890.5 17.5H936C942.627 17.5 948 22.8726 948 29.5V44.5C948 51.1274 942.627 56.5 936 56.5H890.5V17.5Z" fill="#1C64F2"/>
<path d="M903.362 42.5L900.538 32.3182H902.154L904.138 40.2031H904.232L906.295 32.3182H907.896L909.96 40.2081H910.054L912.033 32.3182H913.653L910.825 42.5H909.278L907.136 34.8736H907.056L904.913 42.5H903.362ZM917.474 42.6541C916.722 42.6541 916.074 42.4934 915.53 42.1719C914.99 41.8471 914.572 41.3913 914.277 40.8047C913.986 40.2147 913.84 39.5237 913.84 38.7315C913.84 37.9493 913.986 37.2599 914.277 36.6634C914.572 36.0668 914.983 35.6011 915.51 35.2663C916.041 34.9316 916.66 34.7642 917.37 34.7642C917.801 34.7642 918.218 34.8355 918.623 34.978C919.027 35.1205 919.39 35.3442 919.711 35.6491C920.033 35.9541 920.286 36.3501 920.472 36.8374C920.658 37.3213 920.75 37.9096 920.75 38.6023V39.1293H914.68V38.0156H919.294C919.294 37.6245 919.214 37.2782 919.055 36.9766C918.896 36.6716 918.672 36.4313 918.384 36.2557C918.099 36.08 917.764 35.9922 917.38 35.9922C916.962 35.9922 916.597 36.0949 916.286 36.3004C915.978 36.5026 915.739 36.7678 915.57 37.0959C915.404 37.4207 915.321 37.7737 915.321 38.1548V39.0249C915.321 39.5353 915.411 39.9695 915.59 40.3274C915.772 40.6854 916.026 40.9588 916.35 41.1477C916.675 41.3333 917.055 41.4261 917.489 41.4261C917.771 41.4261 918.028 41.3864 918.26 41.3068C918.492 41.224 918.692 41.1013 918.861 40.9389C919.03 40.7765 919.159 40.576 919.249 40.3374L920.656 40.5909C920.543 41.0052 920.341 41.3681 920.049 41.6797C919.761 41.9879 919.398 42.2282 918.961 42.4006C918.526 42.5696 918.031 42.6541 917.474 42.6541ZM925.691 42.6541C924.939 42.6541 924.291 42.4934 923.747 42.1719C923.207 41.8471 922.789 41.3913 922.494 40.8047C922.202 40.2147 922.057 39.5237 922.057 38.7315C922.057 37.9493 922.202 37.2599 922.494 36.6634C922.789 36.0668 923.2 35.6011 923.727 35.2663C924.257 34.9316 924.877 34.7642 925.586 34.7642C926.017 34.7642 926.435 34.8355 926.839 34.978C927.244 35.1205 927.607 35.3442 927.928 35.6491C928.25 35.9541 928.503 36.3501 928.689 36.8374C928.874 37.3213 928.967 37.9096 928.967 38.6023V39.1293H922.897V38.0156H927.51C927.51 37.6245 927.431 37.2782 927.272 36.9766C927.113 36.6716 926.889 36.4313 926.601 36.2557C926.316 36.08 925.981 35.9922 925.596 35.9922C925.179 35.9922 924.814 36.0949 924.503 36.3004C924.194 36.5026 923.956 36.7678 923.787 37.0959C923.621 37.4207 923.538 37.7737 923.538 38.1548V39.0249C923.538 39.5353 923.628 39.9695 923.807 40.3274C923.989 40.6854 924.242 40.9588 924.567 41.1477C924.892 41.3333 925.272 41.4261 925.706 41.4261C925.988 41.4261 926.244 41.3864 926.476 41.3068C926.708 41.224 926.909 41.1013 927.078 40.9389C927.247 40.7765 927.376 40.576 927.466 40.3374L928.873 40.5909C928.76 41.0052 928.558 41.3681 928.266 41.6797C927.978 41.9879 927.615 42.2282 927.177 42.4006C926.743 42.5696 926.248 42.6541 925.691 42.6541ZM931.984 39.9098L931.974 38.0952H932.232L935.275 34.8636H937.055L933.585 38.5426H933.351L931.984 39.9098ZM930.616 42.5V32.3182H932.103V42.5H930.616ZM935.439 42.5L932.705 38.8707L933.729 37.8317L937.263 42.5H935.439Z" fill="white"/>
<path d="M890.5 17.5H936C942.627 17.5 948 22.8726 948 29.5V44.5C948 51.1274 942.627 56.5 936 56.5H890.5V17.5Z" stroke="#E5E7EB"/>
</g>
</g>
<defs>
<filter id="filter0_dd_1_42" x="0" y="0" width="971" height="447" filterUnits="userSpaceOnUse" color-interpolation-filters="sRGB">
<feFlood flood-opacity="0" result="BackgroundImageFix"/>
<feColorMatrix in="SourceAlpha" type="matrix" values="0 0 0 0 0 0 0 0 0 0 0 0 0 0 0 0 0 0 127 0" result="hardAlpha"/>
<feOffset dy="1"/>
<feGaussianBlur stdDeviation="1.5"/>
<feColorMatrix type="matrix" values="0 0 0 0 0 0 0 0 0 0 0 0 0 0 0 0 0 0 0.1 0"/>
<feBlend mode="normal" in2="BackgroundImageFix" result="effect1_dropShadow_1_42"/>
<feColorMatrix in="SourceAlpha" type="matrix" values="0 0 0 0 0 0 0 0 0 0 0 0 0 0 0 0 0 0 127 0" result="hardAlpha"/>
<feOffset dy="1"/>
<feGaussianBlur stdDeviation="1"/>
<feColorMatrix type="matrix" values="0 0 0 0 0 0 0 0 0 0 0 0 0 0 0 0 0 0 0.06 0"/>
<feBlend mode="normal" in2="effect1_dropShadow_1_42" result="effect2_dropShadow_1_42"/>
<feBlend mode="normal" in="SourceGraphic" in2="effect2_dropShadow_1_42" result="shape"/>
</filter>
<filter id="filter1_dd_1_42" x="755" y="20" width="196" height="36" filterUnits="userSpaceOnUse" color-interpolation-filters="sRGB">
<feFlood flood-opacity="0" result="BackgroundImageFix"/>
<feColorMatrix in="SourceAlpha" type="matrix" values="0 0 0 0 0 0 0 0 0 0 0 0 0 0 0 0 0 0 127 0" result="hardAlpha"/>
<feOffset dy="1"/>
<feGaussianBlur stdDeviation="1.5"/>
<feColorMatrix type="matrix" values="0 0 0 0 0 0 0 0 0 0 0 0 0 0 0 0 0 0 0.1 0"/>
<feBlend mode="normal" in2="BackgroundImageFix" result="effect1_dropShadow_1_42"/>
<feColorMatrix in="SourceAlpha" type="matrix" values="0 0 0 0 0 0 0 0 0 0 0 0 0 0 0 0 0 0 127 0" result="hardAlpha"/>
<feOffset dy="1"/>
<feGaussianBlur stdDeviation="1"/>
<feColorMatrix type="matrix" values="0 0 0 0 0 0 0 0 0 0 0 0 0 0 0 0 0 0 0.06 0"/>
<feBlend mode="normal" in2="effect1_dropShadow_1_42" result="effect2_dropShadow_1_42"/>
<feBlend mode="normal" in="SourceGraphic" in2="effect2_dropShadow_1_42" result="shape"/>
</filter>
<clipPath id="clip0_1_42">
<path d="M758 34C758 27.3726 763.373 22 770 22H936C942.627 22 948 27.3726 948 34V40C948 46.6274 942.627 52 936 52H770C763.373 52 758 46.6274 758 40V34Z" fill="white"/>
</clipPath>
</defs>
</svg>
