
<svg width="971" height="447" viewBox="0 0 971 447" fill="none" xmlns="http://www.w3.org/2000/svg">
<g filter="url(#filter0_dd_155_20353)">
<rect x="3" y="2" width="965" height="441" rx="16" fill="white"/>
<rect x="3.5" y="2.5" width="964" height="440" rx="15.5" stroke="#E4E4E7"/>
</g>
<path d="M37.0696 88.1392C36.3537 88.1392 35.7173 88.0166 35.1605 87.7713C34.607 87.526 34.1695 87.1847 33.848 86.7472C33.5265 86.3097 33.3558 85.8042 33.3359 85.2308H35.2052C35.2218 85.5059 35.3129 85.7462 35.4787 85.9517C35.6444 86.1539 35.8648 86.3113 36.1399 86.424C36.415 86.5367 36.7232 86.593 37.0646 86.593C37.4292 86.593 37.7523 86.5301 38.0341 86.4041C38.3158 86.2749 38.5362 86.0959 38.6953 85.8672C38.8544 85.6385 38.9323 85.375 38.9289 85.0767C38.9323 84.7685 38.8527 84.4967 38.6903 84.2614C38.5279 84.026 38.2926 83.8421 37.9843 83.7095C37.6794 83.5769 37.3115 83.5107 36.8807 83.5107H35.9808V82.0888H36.8807C37.2353 82.0888 37.5452 82.0275 37.8103 81.9048C38.0788 81.7822 38.2893 81.6098 38.4417 81.3878C38.5942 81.1624 38.6688 80.9022 38.6655 80.6072C38.6688 80.3189 38.6041 80.0687 38.4716 79.8565C38.3423 79.6411 38.1584 79.4737 37.9197 79.3544C37.6844 79.2351 37.4076 79.1754 37.0895 79.1754C36.7779 79.1754 36.4896 79.2318 36.2244 79.3445C35.9593 79.4571 35.7455 79.6179 35.5831 79.8267C35.4207 80.0322 35.3345 80.2775 35.3245 80.5625H33.5497C33.5629 79.9924 33.727 79.492 34.0419 79.0611C34.3601 78.6269 34.7843 78.2888 35.3146 78.0469C35.8449 77.8016 36.4398 77.679 37.0994 77.679C37.7789 77.679 38.3688 77.8066 38.8693 78.0618C39.3731 78.3137 39.7625 78.6534 40.0376 79.081C40.3127 79.5085 40.4503 79.9808 40.4503 80.4979C40.4536 81.0713 40.2845 81.5518 39.9432 81.9396C39.6051 82.3274 39.161 82.581 38.6108 82.7003V82.7798C39.3267 82.8793 39.8752 83.1444 40.2564 83.5753C40.6408 84.0028 40.8314 84.5348 40.8281 85.1712C40.8281 85.7412 40.6657 86.2517 40.3409 86.7024C40.0194 87.1499 39.5753 87.5012 39.0085 87.7564C38.445 88.0116 37.7987 88.1392 37.0696 88.1392ZM46.2981 88.1939C45.4794 88.1939 44.7768 87.9867 44.1901 87.5724C43.6068 87.1548 43.1577 86.5533 42.8428 85.7678C42.5313 84.9789 42.3755 84.0294 42.3755 82.919C42.3788 81.8087 42.5363 80.8641 42.8478 80.0852C43.1627 79.303 43.6118 78.7064 44.1951 78.2955C44.7818 77.8845 45.4827 77.679 46.2981 77.679C47.1134 77.679 47.8144 77.8845 48.4011 78.2955C48.9877 78.7064 49.4368 79.303 49.7484 80.0852C50.0632 80.8674 50.2207 81.812 50.2207 82.919C50.2207 84.0327 50.0632 84.9839 49.7484 85.7727C49.4368 86.5582 48.9877 87.1581 48.4011 87.5724C47.8177 87.9867 47.1167 88.1939 46.2981 88.1939ZM46.2981 86.6378C46.9345 86.6378 47.4366 86.3246 47.8045 85.6982C48.1757 85.0684 48.3613 84.142 48.3613 82.919C48.3613 82.1103 48.2768 81.4309 48.1077 80.8807C47.9387 80.3305 47.7001 79.9162 47.3918 79.6378C47.0836 79.3561 46.719 79.2152 46.2981 79.2152C45.665 79.2152 45.1646 79.5301 44.7967 80.1598C44.4288 80.7862 44.2432 81.706 44.2398 82.919C44.2365 83.7311 44.3177 84.4138 44.4835 84.9673C44.6525 85.5208 44.8911 85.9384 45.1994 86.2202C45.5076 86.4986 45.8738 86.6378 46.2981 86.6378ZM55.636 88.1939C54.8173 88.1939 54.1147 87.9867 53.528 87.5724C52.9447 87.1548 52.4956 86.5533 52.1807 85.7678C51.8692 84.9789 51.7134 84.0294 51.7134 82.919C51.7167 81.8087 51.8741 80.8641 52.1857 80.0852C52.5006 79.303 52.9497 78.7064 53.533 78.2955C54.1196 77.8845 54.8206 77.679 55.636 77.679C56.4513 77.679 57.1523 77.8845 57.739 78.2955C58.3256 78.7064 58.7747 79.303 59.0863 80.0852C59.4011 80.8674 59.5586 81.812 59.5586 82.919C59.5586 84.0327 59.4011 84.9839 59.0863 85.7727C58.7747 86.5582 58.3256 87.1581 57.739 87.5724C57.1556 87.9867 56.4546 88.1939 55.636 88.1939ZM55.636 86.6378C56.2723 86.6378 56.7745 86.3246 57.1424 85.6982C57.5136 85.0684 57.6992 84.142 57.6992 82.919C57.6992 82.1103 57.6147 81.4309 57.4456 80.8807C57.2766 80.3305 57.038 79.9162 56.7297 79.6378C56.4215 79.3561 56.0569 79.2152 55.636 79.2152C55.0029 79.2152 54.5025 79.5301 54.1346 80.1598C53.7667 80.7862 53.5811 81.706 53.5777 82.919C53.5744 83.7311 53.6556 84.4138 53.8213 84.9673C53.9904 85.5208 54.229 85.9384 54.5373 86.2202C54.8455 86.4986 55.2117 86.6378 55.636 86.6378Z" fill="#6B7280"/>
<path d="M33.09 142.461V141.129L36.6248 137.663C36.9629 137.322 37.2446 137.019 37.47 136.754C37.6953 136.488 37.8644 136.232 37.9771 135.983C38.0897 135.734 38.1461 135.469 38.1461 135.188C38.1461 134.866 38.0732 134.591 37.9273 134.362C37.7815 134.13 37.581 133.951 37.3258 133.825C37.0706 133.699 36.7806 133.636 36.4558 133.636C36.121 133.636 35.8277 133.706 35.5758 133.845C35.3239 133.981 35.1283 134.175 34.9891 134.427C34.8532 134.679 34.7853 134.979 34.7853 135.327H33.0303C33.0303 134.68 33.1778 134.119 33.4728 133.641C33.7678 133.164 34.1738 132.795 34.6908 132.533C35.2112 132.271 35.8078 132.14 36.4806 132.14C37.1634 132.14 37.7633 132.268 38.2803 132.523C38.7974 132.778 39.1984 133.128 39.4834 133.572C39.7718 134.016 39.916 134.523 39.916 135.093C39.916 135.474 39.8431 135.849 39.6972 136.217C39.5514 136.585 39.2945 136.992 38.9266 137.44C38.562 137.887 38.05 138.429 37.3904 139.065L35.6354 140.85V140.92H40.0701V142.461H33.09ZM41.3826 140.572V139.105L45.7029 132.279H46.9259V134.367H46.1802L43.2718 138.976V139.055H49.3023V140.572H41.3826ZM46.2398 142.461V140.124L46.2597 139.468V132.279H47.9998V142.461H46.2398ZM54.6543 142.655C53.8356 142.655 53.133 142.448 52.5463 142.033C51.963 141.616 51.5139 141.014 51.199 140.229C50.8875 139.44 50.7317 138.49 50.7317 137.38C50.735 136.27 50.8924 135.325 51.204 134.546C51.5188 133.764 51.9679 133.167 52.5513 132.756C53.1379 132.345 53.8389 132.14 54.6543 132.14C55.4696 132.14 56.1706 132.345 56.7572 132.756C57.3439 133.167 57.793 133.764 58.1045 134.546C58.4194 135.328 58.5768 136.273 58.5768 137.38C58.5768 138.494 58.4194 139.445 58.1045 140.234C57.793 141.019 57.3439 141.619 56.7572 142.033C56.1739 142.448 55.4729 142.655 54.6543 142.655ZM54.6543 141.099C55.2906 141.099 55.7928 140.786 56.1607 140.159C56.5319 139.529 56.7175 138.603 56.7175 137.38C56.7175 136.571 56.633 135.892 56.4639 135.342C56.2949 134.791 56.0562 134.377 55.748 134.099C55.4398 133.817 55.0752 133.676 54.6543 133.676C54.0212 133.676 53.5207 133.991 53.1528 134.621C52.7849 135.247 52.5993 136.167 52.596 137.38C52.5927 138.192 52.6739 138.875 52.8396 139.428C53.0087 139.982 53.2473 140.399 53.5555 140.681C53.8638 140.96 54.23 141.099 54.6543 141.099Z" fill="#6B7280"/>
<path d="M37.305 186.742V196.924H35.4605V188.537H35.4009L33.0195 190.058V188.368L35.55 186.742H37.305ZM43.5095 197.063C42.7704 197.063 42.1142 196.939 41.5408 196.69C40.9707 196.442 40.5233 196.102 40.1984 195.671C39.8769 195.237 39.7179 194.745 39.7212 194.194C39.7179 193.767 39.8107 193.374 39.9996 193.016C40.1885 192.658 40.4437 192.36 40.7652 192.121C41.09 191.879 41.4513 191.725 41.849 191.659V191.589C41.3253 191.473 40.9011 191.206 40.5763 190.789C40.2548 190.368 40.0957 189.882 40.099 189.332C40.0957 188.809 40.2415 188.341 40.5365 187.93C40.8315 187.519 41.2358 187.196 41.7496 186.961C42.2633 186.722 42.85 186.603 43.5095 186.603C44.1625 186.603 44.7441 186.722 45.2546 186.961C45.7683 187.196 46.1726 187.519 46.4676 187.93C46.7659 188.341 46.9151 188.809 46.9151 189.332C46.9151 189.882 46.751 190.368 46.4229 190.789C46.0981 191.206 45.6788 191.473 45.1651 191.589V191.659C45.5628 191.725 45.9207 191.879 46.2389 192.121C46.5604 192.36 46.8156 192.658 47.0046 193.016C47.1968 193.374 47.2929 193.767 47.2929 194.194C47.2929 194.745 47.1305 195.237 46.8057 195.671C46.4809 196.102 46.0334 196.442 45.4634 196.69C44.8966 196.939 44.2453 197.063 43.5095 197.063ZM43.5095 195.641C43.8907 195.641 44.2221 195.577 44.5038 195.447C44.7856 195.315 45.0043 195.129 45.1601 194.89C45.3159 194.652 45.3954 194.377 45.3987 194.065C45.3954 193.74 45.3109 193.454 45.1452 193.205C44.9828 192.953 44.759 192.756 44.474 192.613C44.1923 192.471 43.8708 192.4 43.5095 192.4C43.1449 192.4 42.8201 192.471 42.5351 192.613C42.2501 192.756 42.0247 192.953 41.859 193.205C41.6965 193.454 41.617 193.74 41.6203 194.065C41.617 194.377 41.6932 194.652 41.849 194.89C42.0048 195.126 42.2235 195.31 42.5053 195.442C42.7903 195.575 43.1251 195.641 43.5095 195.641ZM43.5095 191.003C43.8211 191.003 44.0962 190.94 44.3348 190.814C44.5768 190.688 44.7673 190.512 44.9065 190.287C45.0457 190.061 45.117 189.801 45.1203 189.506C45.117 189.215 45.0474 188.959 44.9115 188.741C44.7756 188.519 44.5867 188.348 44.3447 188.229C44.1028 188.106 43.8244 188.045 43.5095 188.045C43.188 188.045 42.9046 188.106 42.6594 188.229C42.4174 188.348 42.2285 188.519 42.0926 188.741C41.96 188.959 41.8954 189.215 41.8987 189.506C41.8954 189.801 41.9617 190.061 42.0976 190.287C42.2368 190.509 42.4274 190.684 42.6693 190.814C42.9146 190.94 43.1947 191.003 43.5095 191.003ZM52.6908 197.118C51.8722 197.118 51.1695 196.911 50.5829 196.496C49.9995 196.079 49.5504 195.477 49.2356 194.692C48.924 193.903 48.7682 192.953 48.7682 191.843C48.7715 190.733 48.929 189.788 49.2405 189.009C49.5554 188.227 50.0045 187.63 50.5878 187.219C51.1745 186.808 51.8755 186.603 52.6908 186.603C53.5061 186.603 54.2071 186.808 54.7938 187.219C55.3804 187.63 55.8295 188.227 56.1411 189.009C56.456 189.791 56.6134 190.736 56.6134 191.843C56.6134 192.956 56.456 193.908 56.1411 194.697C55.8295 195.482 55.3804 196.082 54.7938 196.496C54.2105 196.911 53.5095 197.118 52.6908 197.118ZM52.6908 195.562C53.3272 195.562 53.8293 195.248 54.1972 194.622C54.5684 193.992 54.754 193.066 54.754 191.843C54.754 191.034 54.6695 190.355 54.5005 189.805C54.3314 189.254 54.0928 188.84 53.7846 188.562C53.4763 188.28 53.1117 188.139 52.6908 188.139C52.0578 188.139 51.5573 188.454 51.1894 189.084C50.8215 189.71 50.6359 190.63 50.6326 191.843C50.6293 192.655 50.7105 193.338 50.8762 193.891C51.0452 194.445 51.2838 194.862 51.5921 195.144C51.9003 195.422 52.2666 195.562 52.6908 195.562Z" fill="#6B7280"/>
<path d="M37.6468 241.203V251.385H35.8023V242.998H35.7427L33.3613 244.519V242.829L35.8918 241.203H37.6468ZM40.232 251.385V250.052L43.7668 246.587C44.1049 246.246 44.3866 245.943 44.612 245.677C44.8374 245.412 45.0064 245.155 45.1191 244.907C45.2318 244.658 45.2881 244.393 45.2881 244.111C45.2881 243.79 45.2152 243.515 45.0694 243.286C44.9235 243.054 44.723 242.875 44.4678 242.749C44.2126 242.623 43.9226 242.56 43.5978 242.56C43.263 242.56 42.9697 242.63 42.7178 242.769C42.4659 242.905 42.2704 243.099 42.1311 243.351C41.9953 243.603 41.9273 243.903 41.9273 244.251H40.1723C40.1723 243.604 40.3198 243.042 40.6148 242.565C40.9098 242.088 41.3158 241.718 41.8329 241.456C42.3532 241.195 42.9498 241.064 43.6226 241.064C44.3054 241.064 44.9053 241.191 45.4223 241.447C45.9394 241.702 46.3404 242.051 46.6255 242.496C46.9138 242.94 47.058 243.447 47.058 244.017C47.058 244.398 46.9851 244.773 46.8392 245.14C46.6934 245.508 46.4365 245.916 46.0686 246.363C45.7041 246.811 45.192 247.353 44.5324 247.989L42.7775 249.774V249.844H47.2121V251.385H40.232ZM52.6908 251.579C51.8722 251.579 51.1695 251.372 50.5829 250.957C49.9995 250.54 49.5504 249.938 49.2356 249.153C48.924 248.364 48.7682 247.414 48.7682 246.304C48.7715 245.193 48.929 244.249 49.2405 243.47C49.5554 242.688 50.0045 242.091 50.5878 241.68C51.1745 241.269 51.8755 241.064 52.6908 241.064C53.5061 241.064 54.2071 241.269 54.7938 241.68C55.3804 242.091 55.8295 242.688 56.1411 243.47C56.456 244.252 56.6134 245.197 56.6134 246.304C56.6134 247.417 56.456 248.369 56.1411 249.157C55.8295 249.943 55.3804 250.543 54.7938 250.957C54.2105 251.372 53.5095 251.579 52.6908 251.579ZM52.6908 250.023C53.3272 250.023 53.8293 249.709 54.1972 249.083C54.5684 248.453 54.754 247.527 54.754 246.304C54.754 245.495 54.6695 244.816 54.5005 244.265C54.3314 243.715 54.0928 243.301 53.7846 243.023C53.4763 242.741 53.1117 242.6 52.6908 242.6C52.0578 242.6 51.5573 242.915 51.1894 243.545C50.8215 244.171 50.6359 245.091 50.6326 246.304C50.6293 247.116 50.7105 247.799 50.8762 248.352C51.0452 248.906 51.2838 249.323 51.5921 249.605C51.9003 249.883 52.2666 250.023 52.6908 250.023Z" fill="#6B7280"/>
<path d="M43.5779 305.987C43.0907 305.984 42.6151 305.899 42.151 305.733C41.687 305.564 41.2694 305.291 40.8982 304.913C40.527 304.532 40.232 304.026 40.0133 303.397C39.7945 302.764 39.6868 301.98 39.6901 301.045C39.6901 300.173 39.7829 299.396 39.9685 298.713C40.1541 298.031 40.4209 297.454 40.7689 296.983C41.1169 296.509 41.5362 296.148 42.0267 295.9C42.5206 295.651 43.0724 295.527 43.6823 295.527C44.322 295.527 44.8887 295.653 45.3826 295.904C45.8797 296.156 46.2808 296.501 46.5857 296.939C46.8906 297.373 47.0795 297.863 47.1525 298.41H45.3378C45.245 298.019 45.0544 297.708 44.7661 297.475C44.4811 297.24 44.1198 297.123 43.6823 297.123C42.9763 297.123 42.4328 297.429 42.0516 298.042C41.6738 298.655 41.4832 299.497 41.4799 300.568H41.5495C41.7119 300.276 41.9223 300.026 42.1809 299.817C42.4394 299.608 42.7311 299.448 43.0559 299.335C43.384 299.219 43.7303 299.161 44.0949 299.161C44.6915 299.161 45.2268 299.303 45.7008 299.588C46.178 299.873 46.5559 300.266 46.8343 300.767C47.1127 301.264 47.2502 301.834 47.2469 302.477C47.2502 303.146 47.0978 303.748 46.7895 304.282C46.4813 304.812 46.0521 305.23 45.5019 305.534C44.9517 305.839 44.3104 305.99 43.5779 305.987ZM43.5679 304.495C43.9292 304.495 44.2524 304.408 44.5374 304.232C44.8224 304.056 45.0478 303.819 45.2135 303.521C45.3793 303.223 45.4605 302.888 45.4571 302.517C45.4605 302.152 45.3809 301.822 45.2185 301.527C45.0594 301.232 44.839 300.999 44.5573 300.826C44.2756 300.654 43.9541 300.568 43.5928 300.568C43.3243 300.568 43.0741 300.619 42.8421 300.722C42.6101 300.825 42.4079 300.967 42.2356 301.15C42.0632 301.328 41.9273 301.537 41.8279 301.776C41.7318 302.011 41.682 302.263 41.6787 302.532C41.682 302.886 41.7649 303.213 41.9273 303.511C42.0897 303.809 42.3134 304.048 42.5985 304.227C42.8835 304.406 43.2067 304.495 43.5679 304.495ZM52.6908 306.042C51.8722 306.042 51.1695 305.834 50.5829 305.42C49.9995 305.002 49.5504 304.401 49.2356 303.615C48.924 302.827 48.7682 301.877 48.7682 300.767C48.7715 299.656 48.929 298.712 49.2405 297.933C49.5554 297.151 50.0045 296.554 50.5878 296.143C51.1745 295.732 51.8755 295.527 52.6908 295.527C53.5061 295.527 54.2071 295.732 54.7938 296.143C55.3804 296.554 55.8295 297.151 56.1411 297.933C56.456 298.715 56.6134 299.66 56.6134 300.767C56.6134 301.88 56.456 302.832 56.1411 303.62C55.8295 304.406 55.3804 305.006 54.7938 305.42C54.2105 305.834 53.5095 306.042 52.6908 306.042ZM52.6908 304.485C53.3272 304.485 53.8293 304.172 54.1972 303.546C54.5684 302.916 54.754 301.99 54.754 300.767C54.754 299.958 54.6695 299.279 54.5005 298.728C54.3314 298.178 54.0928 297.764 53.7846 297.485C53.4763 297.204 53.1117 297.063 52.6908 297.063C52.0578 297.063 51.5573 297.378 51.1894 298.007C50.8215 298.634 50.6359 299.554 50.6326 300.767C50.6293 301.579 50.7105 302.261 50.8762 302.815C51.0452 303.368 51.2838 303.786 51.5921 304.068C51.9003 304.346 52.2666 304.485 52.6908 304.485Z" fill="#6B7280"/>
<path d="M52.6908 360.502C51.8722 360.502 51.1695 360.295 50.5829 359.881C49.9995 359.463 49.5504 358.862 49.2356 358.076C48.924 357.288 48.7682 356.338 48.7682 355.228C48.7715 354.117 48.929 353.173 49.2405 352.394C49.5554 351.612 50.0045 351.015 50.5878 350.604C51.1745 350.193 51.8755 349.988 52.6908 349.988C53.5061 349.988 54.2071 350.193 54.7938 350.604C55.3804 351.015 55.8295 351.612 56.1411 352.394C56.456 353.176 56.6134 354.121 56.6134 355.228C56.6134 356.341 56.456 357.292 56.1411 358.081C55.8295 358.867 55.3804 359.467 54.7938 359.881C54.2105 360.295 53.5095 360.502 52.6908 360.502ZM52.6908 358.946C53.3272 358.946 53.8293 358.633 54.1972 358.007C54.5684 357.377 54.754 356.451 54.754 355.228C54.754 354.419 54.6695 353.739 54.5005 353.189C54.3314 352.639 54.0928 352.225 53.7846 351.946C53.4763 351.665 53.1117 351.524 52.6908 351.524C52.0578 351.524 51.5573 351.839 51.1894 352.468C50.8215 353.095 50.6359 354.015 50.6326 355.228C50.6293 356.04 50.7105 356.722 50.8762 357.276C51.0452 357.829 51.2838 358.247 51.5921 358.529C51.9003 358.807 52.2666 358.946 52.6908 358.946Z" fill="#6B7280"/>
<line x1="88.1992" y1="79.8203" x2="947.199" y2="79.8203" stroke="#F3F4F6"/>
<line x1="88.1992" y1="125.846" x2="947.199" y2="125.846" stroke="#F3F4F6"/>
<line x1="88.1992" y1="171.871" x2="947.199" y2="171.871" stroke="#F3F4F6"/>
<path d="M96 180L242.5 161L366 186.5L529.5 165L678 179L804.5 165L929.5 179" stroke="#4176FF" stroke-width="3"/>
<line x1="88.4531" y1="217.895" x2="947.453" y2="217.895" stroke="#F3F4F6"/>
<line x1="88.1992" y1="263.918" x2="947.199" y2="263.918" stroke="#F3F4F6"/>
<path d="M96 256L235 291.5L385.5 264L538.5 306.5L668 283.5L812 276L930.5 265" stroke="#FF38D3" stroke-width="3"/>
<line x1="88.1992" y1="309.943" x2="947.199" y2="309.943" stroke="#F3F4F6"/>
<line x1="88.1992" y1="355.967" x2="947.199" y2="355.967" stroke="#F3F4F6"/>
<path d="M922.127 383.574H924.782L927.586 390.415H927.705L930.509 383.574H933.164V393.756H931.076V387.129H930.991L928.356 393.706H926.934L924.3 387.104H924.215V393.756H922.127V383.574ZM938.348 393.905C937.576 393.905 936.908 393.741 936.344 393.413C935.784 393.081 935.352 392.621 935.047 392.031C934.742 391.437 934.589 390.75 934.589 389.968C934.589 389.179 934.742 388.489 935.047 387.899C935.352 387.306 935.784 386.845 936.344 386.517C936.908 386.186 937.576 386.02 938.348 386.02C939.12 386.02 939.786 386.186 940.347 386.517C940.91 386.845 941.344 387.306 941.649 387.899C941.954 388.489 942.107 389.179 942.107 389.968C942.107 390.75 941.954 391.437 941.649 392.031C941.344 392.621 940.91 393.081 940.347 393.413C939.786 393.741 939.12 393.905 938.348 393.905ZM938.358 392.264C938.709 392.264 939.003 392.165 939.238 391.966C939.473 391.764 939.651 391.489 939.77 391.141C939.892 390.793 939.954 390.397 939.954 389.953C939.954 389.508 939.892 389.112 939.77 388.764C939.651 388.416 939.473 388.141 939.238 387.939C939.003 387.737 938.709 387.636 938.358 387.636C938.003 387.636 937.705 387.737 937.463 387.939C937.224 388.141 937.044 388.416 936.921 388.764C936.802 389.112 936.742 389.508 936.742 389.953C936.742 390.397 936.802 390.793 936.921 391.141C937.044 391.489 937.224 391.764 937.463 391.966C937.705 392.165 938.003 392.264 938.358 392.264ZM945.602 389.341V393.756H943.484V386.119H945.502V387.467H945.592C945.761 387.023 946.044 386.671 946.442 386.413C946.839 386.151 947.322 386.02 947.888 386.02C948.419 386.02 948.881 386.136 949.276 386.368C949.67 386.6 949.977 386.932 950.195 387.362C950.414 387.79 950.523 388.3 950.523 388.894V393.756H948.406V389.271C948.409 388.804 948.29 388.44 948.048 388.178C947.806 387.913 947.473 387.78 947.048 387.78C946.763 387.78 946.511 387.841 946.293 387.964C946.077 388.087 945.908 388.266 945.785 388.501C945.666 388.733 945.605 389.013 945.602 389.341Z" fill="#4B5563"/>
<path d="M789.407 386.502C789.367 386.101 789.197 385.79 788.895 385.568C788.593 385.346 788.184 385.235 787.667 385.235C787.316 385.235 787.019 385.284 786.777 385.384C786.535 385.48 786.35 385.614 786.22 385.786C786.094 385.959 786.031 386.154 786.031 386.373C786.025 386.555 786.063 386.714 786.146 386.85C786.232 386.986 786.35 387.104 786.499 387.203C786.648 387.299 786.82 387.384 787.016 387.457C787.211 387.526 787.42 387.586 787.642 387.636L788.557 387.855C789.001 387.954 789.409 388.087 789.78 388.252C790.151 388.418 790.473 388.622 790.745 388.864C791.016 389.106 791.227 389.391 791.376 389.719C791.528 390.047 791.606 390.423 791.61 390.847C791.606 391.471 791.447 392.011 791.132 392.468C790.821 392.922 790.37 393.275 789.78 393.527C789.193 393.776 788.486 393.9 787.657 393.9C786.835 393.9 786.119 393.774 785.509 393.522C784.903 393.27 784.429 392.897 784.088 392.404C783.749 391.906 783.572 391.292 783.556 390.559H785.639C785.662 390.901 785.76 391.186 785.932 391.414C786.108 391.64 786.341 391.81 786.633 391.926C786.928 392.039 787.261 392.095 787.632 392.095C787.997 392.095 788.313 392.042 788.582 391.936C788.854 391.83 789.064 391.683 789.213 391.494C789.362 391.305 789.437 391.088 789.437 390.843C789.437 390.614 789.369 390.422 789.233 390.266C789.101 390.11 788.905 389.977 788.647 389.868C788.391 389.759 788.078 389.659 787.707 389.57L786.598 389.291C785.74 389.083 785.062 388.756 784.565 388.312C784.068 387.868 783.821 387.27 783.824 386.517C783.821 385.901 783.985 385.362 784.316 384.901C784.651 384.441 785.11 384.081 785.693 383.823C786.277 383.564 786.94 383.435 787.682 383.435C788.438 383.435 789.097 383.564 789.661 383.823C790.227 384.081 790.668 384.441 790.983 384.901C791.298 385.362 791.46 385.896 791.47 386.502H789.407ZM797.915 390.504V386.119H800.033V393.756H797.999V392.369H797.92C797.747 392.816 797.461 393.176 797.06 393.448C796.662 393.719 796.176 393.855 795.603 393.855C795.093 393.855 794.643 393.739 794.256 393.507C793.868 393.275 793.565 392.945 793.346 392.518C793.13 392.09 793.021 391.578 793.018 390.982V386.119H795.136V390.604C795.139 391.055 795.26 391.411 795.499 391.673C795.737 391.935 796.057 392.066 796.458 392.066C796.713 392.066 796.952 392.008 797.174 391.892C797.396 391.772 797.575 391.597 797.711 391.365C797.85 391.133 797.918 390.846 797.915 390.504ZM803.845 389.341V393.756H801.727V386.119H803.745V387.467H803.835C804.004 387.023 804.287 386.671 804.685 386.413C805.083 386.151 805.565 386.02 806.132 386.02C806.662 386.02 807.124 386.136 807.519 386.368C807.913 386.6 808.22 386.932 808.438 387.362C808.657 387.79 808.767 388.3 808.767 388.894V393.756H806.649V389.271C806.652 388.804 806.533 388.44 806.291 388.178C806.049 387.913 805.716 387.78 805.291 387.78C805.006 387.78 804.754 387.841 804.536 387.964C804.32 388.087 804.151 388.266 804.029 388.501C803.909 388.733 803.848 389.013 803.845 389.341Z" fill="#4B5563"/>
<path d="M651.335 386.502C651.295 386.101 651.124 385.79 650.823 385.568C650.521 385.346 650.112 385.235 649.595 385.235C649.244 385.235 648.947 385.284 648.705 385.384C648.463 385.48 648.277 385.614 648.148 385.786C648.022 385.959 647.959 386.154 647.959 386.373C647.953 386.555 647.991 386.714 648.074 386.85C648.16 386.986 648.277 387.104 648.427 387.203C648.576 387.299 648.748 387.384 648.944 387.457C649.139 387.526 649.348 387.586 649.57 387.636L650.485 387.855C650.929 387.954 651.337 388.087 651.708 388.252C652.079 388.418 652.401 388.622 652.672 388.864C652.944 389.106 653.155 389.391 653.304 389.719C653.456 390.047 653.534 390.423 653.537 390.847C653.534 391.471 653.375 392.011 653.06 392.468C652.749 392.922 652.298 393.275 651.708 393.527C651.121 393.776 650.414 393.9 649.585 393.9C648.763 393.9 648.047 393.774 647.437 393.522C646.831 393.27 646.357 392.897 646.015 392.404C645.677 391.906 645.5 391.292 645.483 390.559H647.566C647.59 390.901 647.687 391.186 647.86 391.414C648.035 391.64 648.269 391.81 648.561 391.926C648.856 392.039 649.189 392.095 649.56 392.095C649.925 392.095 650.241 392.042 650.51 391.936C650.781 391.83 650.992 391.683 651.141 391.494C651.29 391.305 651.365 391.088 651.365 390.843C651.365 390.614 651.297 390.422 651.161 390.266C651.028 390.11 650.833 389.977 650.574 389.868C650.319 389.759 650.006 389.659 649.635 389.57L648.526 389.291C647.668 389.083 646.99 388.756 646.493 388.312C645.995 387.868 645.749 387.27 645.752 386.517C645.749 385.901 645.913 385.362 646.244 384.901C646.579 384.441 647.038 384.081 647.621 383.823C648.205 383.564 648.867 383.435 649.61 383.435C650.366 383.435 651.025 383.564 651.589 383.823C652.155 384.081 652.596 384.441 652.911 384.901C653.226 385.362 653.388 385.896 653.398 386.502H651.335ZM657.123 393.9C656.636 393.9 656.202 393.816 655.821 393.646C655.439 393.474 655.138 393.221 654.916 392.886C654.697 392.548 654.588 392.127 654.588 391.623C654.588 391.199 654.666 390.843 654.821 390.554C654.977 390.266 655.189 390.034 655.458 389.858C655.726 389.682 656.031 389.55 656.372 389.46C656.717 389.371 657.078 389.308 657.456 389.271C657.9 389.225 658.258 389.182 658.53 389.142C658.802 389.099 658.999 389.036 659.122 388.953C659.244 388.87 659.306 388.748 659.306 388.585V388.556C659.306 388.241 659.206 387.997 659.007 387.825C658.812 387.652 658.533 387.566 658.172 387.566C657.791 387.566 657.488 387.651 657.262 387.82C657.037 387.985 656.888 388.194 656.815 388.446L654.856 388.287C654.956 387.823 655.151 387.422 655.443 387.084C655.734 386.743 656.111 386.481 656.571 386.298C657.035 386.113 657.572 386.02 658.182 386.02C658.606 386.02 659.012 386.07 659.4 386.169C659.791 386.269 660.138 386.423 660.439 386.632C660.744 386.84 660.984 387.109 661.16 387.437C661.336 387.762 661.424 388.151 661.424 388.605V393.756H659.415V392.697H659.355C659.233 392.936 659.069 393.146 658.863 393.328C658.658 393.507 658.411 393.648 658.122 393.751C657.834 393.85 657.501 393.9 657.123 393.9ZM657.73 392.438C658.041 392.438 658.316 392.377 658.555 392.254C658.794 392.128 658.981 391.959 659.117 391.747C659.253 391.535 659.321 391.295 659.321 391.026V390.216C659.254 390.259 659.163 390.299 659.047 390.335C658.934 390.369 658.807 390.4 658.664 390.43C658.522 390.456 658.379 390.481 658.237 390.504C658.094 390.524 657.965 390.543 657.849 390.559C657.6 390.596 657.383 390.654 657.198 390.733C657.012 390.813 656.868 390.92 656.765 391.056C656.662 391.189 656.611 391.355 656.611 391.553C656.611 391.842 656.715 392.062 656.924 392.215C657.136 392.364 657.405 392.438 657.73 392.438ZM667.128 386.119V387.71H662.53V386.119H667.128ZM663.574 384.29H665.692V391.409C665.692 391.605 665.722 391.757 665.781 391.867C665.841 391.973 665.924 392.047 666.03 392.09C666.139 392.133 666.265 392.155 666.408 392.155C666.507 392.155 666.606 392.147 666.706 392.13C666.805 392.11 666.882 392.095 666.935 392.085L667.268 393.661C667.162 393.695 667.012 393.733 666.82 393.776C666.628 393.822 666.394 393.85 666.119 393.86C665.609 393.88 665.161 393.812 664.777 393.656C664.396 393.501 664.099 393.259 663.887 392.931C663.675 392.602 663.57 392.188 663.574 391.688V384.29Z" fill="#4B5563"/>
<path d="M508.375 393.756V383.574H515.116V385.349H510.528V387.775H514.669V389.55H510.528V393.756H508.375ZM516.402 393.756V386.119H518.455V387.452H518.534C518.674 386.978 518.907 386.62 519.235 386.378C519.564 386.133 519.941 386.01 520.369 386.01C520.475 386.01 520.589 386.017 520.712 386.03C520.835 386.043 520.942 386.061 521.035 386.085V387.964C520.936 387.934 520.798 387.908 520.622 387.884C520.447 387.861 520.286 387.85 520.14 387.85C519.829 387.85 519.55 387.918 519.305 388.053C519.063 388.186 518.871 388.372 518.728 388.61C518.589 388.849 518.52 389.124 518.52 389.436V393.756H516.402ZM522.13 393.756V386.119H524.248V393.756H522.13ZM523.194 385.135C522.879 385.135 522.609 385.031 522.384 384.822C522.162 384.61 522.051 384.356 522.051 384.061C522.051 383.77 522.162 383.519 522.384 383.311C522.609 383.098 522.879 382.992 523.194 382.992C523.509 382.992 523.777 383.098 523.999 383.311C524.225 383.519 524.338 383.77 524.338 384.061C524.338 384.356 524.225 384.61 523.999 384.822C523.777 385.031 523.509 385.135 523.194 385.135Z" fill="#4B5563"/>
<path d="M366.053 385.349V383.574H374.415V385.349H371.298V393.756H369.17V385.349H366.053ZM377.871 389.341V393.756H375.753V383.574H377.811V387.467H377.901C378.073 387.016 378.351 386.663 378.736 386.408C379.12 386.149 379.603 386.02 380.183 386.02C380.713 386.02 381.175 386.136 381.57 386.368C381.967 386.597 382.276 386.927 382.494 387.357C382.716 387.785 382.826 388.297 382.822 388.894V393.756H380.705V389.271C380.708 388.801 380.589 388.435 380.347 388.173C380.108 387.911 379.773 387.78 379.342 387.78C379.054 387.78 378.799 387.841 378.577 387.964C378.358 388.087 378.186 388.266 378.06 388.501C377.937 388.733 377.874 389.013 377.871 389.341ZM389.386 390.504V386.119H391.504V393.756H389.471V392.369H389.391C389.219 392.816 388.932 393.176 388.531 393.448C388.133 393.719 387.648 393.855 387.074 393.855C386.564 393.855 386.115 393.739 385.727 393.507C385.339 393.275 385.036 392.945 384.817 392.518C384.602 392.09 384.492 391.578 384.489 390.982V386.119H386.607V390.604C386.61 391.055 386.731 391.411 386.97 391.673C387.209 391.935 387.528 392.066 387.93 392.066C388.185 392.066 388.423 392.008 388.645 391.892C388.867 391.772 389.046 391.597 389.182 391.365C389.322 391.133 389.389 390.846 389.386 390.504Z" fill="#4B5563"/>
<path d="M228.995 393.756L226.082 383.574H228.433L230.119 390.649H230.203L232.062 383.574H234.076L235.93 390.664H236.02L237.705 383.574H240.057L237.143 393.756H235.045L233.107 387.099H233.027L231.093 393.756H228.995ZM243.829 393.905C243.043 393.905 242.367 393.746 241.801 393.428C241.237 393.106 240.803 392.652 240.498 392.066C240.193 391.476 240.041 390.778 240.041 389.972C240.041 389.187 240.193 388.498 240.498 387.904C240.803 387.311 241.232 386.849 241.786 386.517C242.342 386.186 242.995 386.02 243.744 386.02C244.248 386.02 244.717 386.101 245.151 386.264C245.589 386.423 245.97 386.663 246.295 386.985C246.623 387.306 246.878 387.71 247.061 388.198C247.243 388.682 247.334 389.248 247.334 389.898V390.48H240.886V389.167H245.34C245.34 388.862 245.274 388.592 245.141 388.357C245.009 388.121 244.825 387.937 244.59 387.805C244.358 387.669 244.088 387.601 243.779 387.601C243.458 387.601 243.173 387.676 242.924 387.825C242.679 387.971 242.487 388.168 242.347 388.416C242.208 388.662 242.137 388.935 242.134 389.237V390.485C242.134 390.862 242.203 391.189 242.342 391.464C242.485 391.739 242.686 391.951 242.944 392.1C243.203 392.249 243.509 392.324 243.864 392.324C244.099 392.324 244.315 392.291 244.51 392.225C244.706 392.158 244.873 392.059 245.012 391.926C245.151 391.794 245.257 391.631 245.33 391.439L247.289 391.568C247.19 392.039 246.986 392.45 246.678 392.801C246.373 393.149 245.978 393.421 245.494 393.617C245.014 393.809 244.459 393.905 243.829 393.905ZM251.53 393.88C250.95 393.88 250.425 393.731 249.954 393.433C249.487 393.131 249.115 392.689 248.84 392.105C248.569 391.519 248.433 390.799 248.433 389.948C248.433 389.073 248.574 388.345 248.855 387.765C249.137 387.182 249.512 386.746 249.979 386.458C250.449 386.166 250.965 386.02 251.525 386.02C251.953 386.02 252.309 386.093 252.594 386.239C252.882 386.381 253.114 386.56 253.29 386.776C253.469 386.988 253.605 387.197 253.698 387.402H253.762V383.574H255.875V393.756H253.787V392.533H253.698C253.598 392.745 253.457 392.955 253.275 393.164C253.096 393.37 252.862 393.54 252.574 393.676C252.289 393.812 251.941 393.88 251.53 393.88ZM252.201 392.195C252.543 392.195 252.831 392.102 253.066 391.916C253.305 391.727 253.487 391.464 253.613 391.126C253.742 390.788 253.807 390.392 253.807 389.938C253.807 389.484 253.744 389.089 253.618 388.754C253.492 388.42 253.31 388.161 253.071 387.979C252.833 387.797 252.543 387.705 252.201 387.705C251.853 387.705 251.56 387.8 251.321 387.989C251.083 388.178 250.902 388.44 250.779 388.774C250.657 389.109 250.595 389.497 250.595 389.938C250.595 390.382 250.657 390.775 250.779 391.116C250.905 391.454 251.086 391.719 251.321 391.911C251.56 392.1 251.853 392.195 252.201 392.195Z" fill="#4B5563"/>
<path d="M89.0975 385.349V383.574H97.4597V385.349H94.3426V393.756H92.2147V385.349H89.0975ZM102.655 390.504V386.119H104.773V393.756H102.74V392.369H102.66C102.488 392.816 102.201 393.176 101.8 393.448C101.402 393.719 100.917 393.855 100.343 393.855C99.8329 393.855 99.3838 393.739 98.996 393.507C98.6082 393.275 98.3049 392.945 98.0862 392.518C97.8707 392.09 97.7614 391.578 97.758 390.982V386.119H99.8759V390.604C99.8793 391.055 100 391.411 100.239 391.673C100.478 391.935 100.797 392.066 101.198 392.066C101.454 392.066 101.692 392.008 101.914 391.892C102.136 391.772 102.315 391.597 102.451 391.365C102.59 391.133 102.658 390.846 102.655 390.504ZM109.947 393.905C109.162 393.905 108.485 393.746 107.919 393.428C107.355 393.106 106.921 392.652 106.616 392.066C106.311 391.476 106.159 390.778 106.159 389.972C106.159 389.187 106.311 388.498 106.616 387.904C106.921 387.311 107.35 386.849 107.904 386.517C108.461 386.186 109.114 386.02 109.863 386.02C110.366 386.02 110.835 386.101 111.27 386.264C111.707 386.423 112.088 386.663 112.413 386.985C112.741 387.306 112.996 387.71 113.179 388.198C113.361 388.682 113.452 389.248 113.452 389.898V390.48H107.004V389.167H111.459C111.459 388.862 111.392 388.592 111.26 388.357C111.127 388.121 110.943 387.937 110.708 387.805C110.476 387.669 110.206 387.601 109.897 387.601C109.576 387.601 109.291 387.676 109.042 387.825C108.797 387.971 108.605 388.168 108.466 388.416C108.326 388.662 108.255 388.935 108.252 389.237V390.485C108.252 390.862 108.321 391.189 108.461 391.464C108.603 391.739 108.804 391.951 109.062 392.1C109.321 392.249 109.627 392.324 109.982 392.324C110.217 392.324 110.433 392.291 110.628 392.225C110.824 392.158 110.991 392.059 111.13 391.926C111.27 391.794 111.376 391.631 111.449 391.439L113.407 391.568C113.308 392.039 113.104 392.45 112.796 392.801C112.491 393.149 112.097 393.421 111.613 393.617C111.132 393.809 110.577 393.905 109.947 393.905Z" fill="#4B5563"/>
<g filter="url(#filter1_dd_155_20353)">
<g clip-path="url(#clip0_155_20353)">
<path d="M758 44C758 37.3726 763.373 32 770 32H936C942.627 32 948 37.3726 948 44V50C948 56.6274 942.627 62 936 62H770C763.373 62 758 56.6274 758 50V44Z" fill="white"/>
<path d="M758 39.5C758 32.8726 763.373 27.5 770 27.5H815.5V66.5H770C763.373 66.5 758 61.1274 758 54.5V39.5Z" fill="white"/>
<path d="M772.083 42.3182H773.828L776.488 46.9467H776.597L779.257 42.3182H781.002L777.308 48.5028V52.5H775.777V48.5028L772.083 42.3182ZM784.367 52.6541C783.614 52.6541 782.966 52.4934 782.423 52.1719C781.883 51.8471 781.465 51.3913 781.17 50.8047C780.878 50.2147 780.732 49.5237 780.732 48.7315C780.732 47.9493 780.878 47.2599 781.17 46.6634C781.465 46.0668 781.876 45.6011 782.403 45.2663C782.933 44.9316 783.553 44.7642 784.262 44.7642C784.693 44.7642 785.111 44.8355 785.515 44.978C785.919 45.1205 786.282 45.3442 786.604 45.6491C786.925 45.9541 787.179 46.3501 787.365 46.8374C787.55 47.3213 787.643 47.9096 787.643 48.6023V49.1293H781.573V48.0156H786.186C786.186 47.6245 786.107 47.2782 785.948 46.9766C785.789 46.6716 785.565 46.4313 785.276 46.2557C784.991 46.08 784.657 45.9922 784.272 45.9922C783.855 45.9922 783.49 46.0949 783.178 46.3004C782.87 46.5026 782.632 46.7678 782.463 47.0959C782.297 47.4207 782.214 47.7737 782.214 48.1548V49.0249C782.214 49.5353 782.303 49.9695 782.482 50.3274C782.665 50.6854 782.918 50.9588 783.243 51.1477C783.568 51.3333 783.947 51.4261 784.382 51.4261C784.663 51.4261 784.92 51.3864 785.152 51.3068C785.384 51.224 785.585 51.1013 785.754 50.9389C785.923 50.7765 786.052 50.576 786.142 50.3374L787.548 50.5909C787.436 51.0052 787.234 51.3681 786.942 51.6797C786.654 51.9879 786.291 52.2282 785.853 52.4006C785.419 52.5696 784.923 52.6541 784.367 52.6541ZM791.515 52.669C791.031 52.669 790.593 52.5795 790.202 52.4006C789.811 52.2183 789.501 51.9548 789.272 51.6101C789.047 51.2654 788.934 50.8428 788.934 50.3423C788.934 49.9115 789.017 49.5568 789.183 49.2784C789.349 49 789.572 48.7796 789.854 48.6172C790.136 48.4548 790.451 48.3321 790.799 48.2493C791.147 48.1664 791.501 48.1035 791.863 48.0604C792.32 48.0073 792.691 47.9643 792.976 47.9311C793.261 47.8946 793.468 47.8366 793.598 47.7571C793.727 47.6776 793.792 47.5483 793.792 47.3693V47.3345C793.792 46.9003 793.669 46.5639 793.424 46.3253C793.182 46.0866 792.82 45.9673 792.34 45.9673C791.839 45.9673 791.445 46.0784 791.157 46.3004C790.872 46.5192 790.674 46.7628 790.565 47.0312L789.168 46.7131C789.334 46.2491 789.576 45.8745 789.894 45.5895C790.215 45.3011 790.585 45.0923 791.002 44.9631C791.42 44.8305 791.859 44.7642 792.32 44.7642C792.625 44.7642 792.948 44.8007 793.289 44.8736C793.634 44.9432 793.956 45.0724 794.254 45.2614C794.556 45.4503 794.802 45.7204 794.995 46.0717C795.187 46.4197 795.283 46.8722 795.283 47.429V52.5H793.831V51.456H793.772C793.676 51.6482 793.531 51.8371 793.339 52.0227C793.147 52.2083 792.9 52.3625 792.598 52.4851C792.297 52.6077 791.935 52.669 791.515 52.669ZM791.838 51.4759C792.249 51.4759 792.6 51.3946 792.892 51.2322C793.187 51.0698 793.41 50.8577 793.563 50.5959C793.719 50.3307 793.797 50.0473 793.797 49.7457V48.7614C793.743 48.8144 793.641 48.8641 793.488 48.9105C793.339 48.9536 793.168 48.9917 792.976 49.0249C792.784 49.0547 792.597 49.0829 792.414 49.1094C792.232 49.1326 792.08 49.1525 791.957 49.169C791.669 49.2055 791.405 49.2668 791.167 49.353C790.931 49.4392 790.742 49.5634 790.6 49.7259C790.461 49.8849 790.391 50.0971 790.391 50.3622C790.391 50.7301 790.527 51.0085 790.799 51.1974C791.07 51.383 791.417 51.4759 791.838 51.4759ZM797.263 52.5V44.8636H798.7V46.0767H798.779C798.919 45.6657 799.164 45.3426 799.515 45.1072C799.87 44.8686 800.271 44.7493 800.718 44.7493C800.811 44.7493 800.92 44.7526 801.046 44.7592C801.176 44.7659 801.277 44.7741 801.35 44.7841V46.206C801.29 46.1894 801.184 46.1712 801.031 46.1513C800.879 46.1281 800.727 46.1165 800.574 46.1165C800.223 46.1165 799.91 46.1911 799.634 46.3402C799.363 46.486 799.147 46.6899 798.988 46.9517C798.829 47.2102 798.749 47.5052 798.749 47.8366V52.5H797.263Z" fill="#111928"/>
<path d="M758 39.5C758 32.8726 763.373 27.5 770 27.5H815.5V66.5H770C763.373 66.5 758 61.1274 758 54.5V39.5Z" stroke="#E5E7EB"/>
<path d="M815.5 27.5H890.5V66.5H815.5V27.5Z" fill="white"/>
<path d="M832.119 42.3182H833.983L837.224 50.233H837.344L840.585 42.3182H842.45V52.5H840.988V45.1321H840.893L837.891 52.4851H836.678L833.675 45.1271H833.58V52.5H832.119V42.3182ZM847.78 52.6541C847.064 52.6541 846.44 52.4901 845.906 52.1619C845.372 51.8338 844.958 51.3748 844.663 50.7848C844.368 50.1948 844.221 49.5054 844.221 48.7166C844.221 47.9245 844.368 47.2318 844.663 46.6385C844.958 46.0452 845.372 45.5845 845.906 45.2564C846.44 44.9283 847.064 44.7642 847.78 44.7642C848.496 44.7642 849.121 44.9283 849.655 45.2564C850.188 45.5845 850.603 46.0452 850.898 46.6385C851.193 47.2318 851.34 47.9245 851.34 48.7166C851.34 49.5054 851.193 50.1948 850.898 50.7848C850.603 51.3748 850.188 51.8338 849.655 52.1619C849.121 52.4901 848.496 52.6541 847.78 52.6541ZM847.785 51.4062C848.249 51.4062 848.634 51.2836 848.939 51.0384C849.244 50.7931 849.469 50.4666 849.615 50.0589C849.764 49.6513 849.839 49.2022 849.839 48.7116C849.839 48.2244 849.764 47.777 849.615 47.3693C849.469 46.9583 849.244 46.6286 848.939 46.38C848.634 46.1314 848.249 46.0071 847.785 46.0071C847.318 46.0071 846.93 46.1314 846.622 46.38C846.317 46.6286 846.09 46.9583 845.941 47.3693C845.795 47.777 845.722 48.2244 845.722 48.7116C845.722 49.2022 845.795 49.6513 845.941 50.0589C846.09 50.4666 846.317 50.7931 846.622 51.0384C846.93 51.2836 847.318 51.4062 847.785 51.4062ZM854.486 47.9659V52.5H852.999V44.8636H854.426V46.1065H854.521C854.696 45.7022 854.971 45.3774 855.346 45.1321C855.724 44.8868 856.199 44.7642 856.773 44.7642C857.293 44.7642 857.749 44.8736 858.14 45.0923C858.531 45.3078 858.834 45.6293 859.05 46.0568C859.265 46.4844 859.373 47.013 859.373 47.6428V52.5H857.886V47.8217C857.886 47.2682 857.742 46.8357 857.454 46.5241C857.165 46.2093 856.769 46.0518 856.266 46.0518C855.921 46.0518 855.614 46.1264 855.346 46.2756C855.081 46.4247 854.87 46.6435 854.714 46.9318C854.562 47.2169 854.486 47.5616 854.486 47.9659ZM864.931 44.8636V46.0568H860.76V44.8636H864.931ZM861.879 43.0341H863.365V50.2578C863.365 50.5462 863.408 50.7633 863.494 50.9091C863.58 51.0516 863.692 51.1494 863.827 51.2024C863.967 51.2521 864.117 51.277 864.28 51.277C864.399 51.277 864.504 51.2687 864.593 51.2521C864.683 51.2356 864.752 51.2223 864.802 51.2124L865.07 52.4403C864.984 52.4735 864.862 52.5066 864.702 52.5398C864.543 52.5762 864.344 52.5961 864.106 52.5994C863.715 52.6061 863.35 52.5365 863.012 52.3906C862.674 52.2448 862.401 52.0194 862.192 51.7145C861.983 51.4096 861.879 51.0268 861.879 50.5661V43.0341ZM868.226 47.9659V52.5H866.74V42.3182H868.206V46.1065H868.301C868.48 45.6955 868.753 45.3691 869.121 45.1271C869.489 44.8852 869.969 44.7642 870.563 44.7642C871.086 44.7642 871.544 44.8719 871.935 45.0874C872.329 45.3028 872.634 45.6243 872.85 46.0518C873.068 46.4761 873.178 47.0064 873.178 47.6428V52.5H871.691V47.8217C871.691 47.2616 871.547 46.8274 871.259 46.5192C870.97 46.2076 870.569 46.0518 870.056 46.0518C869.704 46.0518 869.389 46.1264 869.111 46.2756C868.836 46.4247 868.619 46.6435 868.46 46.9318C868.304 47.2169 868.226 47.5616 868.226 47.9659Z" fill="#111928"/>
<path d="M815.5 27.5H890.5V66.5H815.5V27.5Z" stroke="#E5E7EB"/>
<path d="M890.5 27.5H936C942.627 27.5 948 32.8726 948 39.5V54.5C948 61.1274 942.627 66.5 936 66.5H890.5V27.5Z" fill="#1C64F2"/>
<path d="M903.362 52.5L900.538 42.3182H902.154L904.138 50.2031H904.232L906.295 42.3182H907.896L909.96 50.2081H910.054L912.033 42.3182H913.653L910.825 52.5H909.278L907.136 44.8736H907.056L904.913 52.5H903.362ZM917.474 52.6541C916.722 52.6541 916.074 52.4934 915.53 52.1719C914.99 51.8471 914.572 51.3913 914.277 50.8047C913.986 50.2147 913.84 49.5237 913.84 48.7315C913.84 47.9493 913.986 47.2599 914.277 46.6634C914.572 46.0668 914.983 45.6011 915.51 45.2663C916.041 44.9316 916.66 44.7642 917.37 44.7642C917.801 44.7642 918.218 44.8355 918.623 44.978C919.027 45.1205 919.39 45.3442 919.711 45.6491C920.033 45.9541 920.286 46.3501 920.472 46.8374C920.658 47.3213 920.75 47.9096 920.75 48.6023V49.1293H914.68V48.0156H919.294C919.294 47.6245 919.214 47.2782 919.055 46.9766C918.896 46.6716 918.672 46.4313 918.384 46.2557C918.099 46.08 917.764 45.9922 917.38 45.9922C916.962 45.9922 916.597 46.0949 916.286 46.3004C915.978 46.5026 915.739 46.7678 915.57 47.0959C915.404 47.4207 915.321 47.7737 915.321 48.1548V49.0249C915.321 49.5353 915.411 49.9695 915.59 50.3274C915.772 50.6854 916.026 50.9588 916.35 51.1477C916.675 51.3333 917.055 51.4261 917.489 51.4261C917.771 51.4261 918.028 51.3864 918.26 51.3068C918.492 51.224 918.692 51.1013 918.861 50.9389C919.03 50.7765 919.159 50.576 919.249 50.3374L920.656 50.5909C920.543 51.0052 920.341 51.3681 920.049 51.6797C919.761 51.9879 919.398 52.2282 918.961 52.4006C918.526 52.5696 918.031 52.6541 917.474 52.6541ZM925.691 52.6541C924.939 52.6541 924.291 52.4934 923.747 52.1719C923.207 51.8471 922.789 51.3913 922.494 50.8047C922.202 50.2147 922.057 49.5237 922.057 48.7315C922.057 47.9493 922.202 47.2599 922.494 46.6634C922.789 46.0668 923.2 45.6011 923.727 45.2663C924.257 44.9316 924.877 44.7642 925.586 44.7642C926.017 44.7642 926.435 44.8355 926.839 44.978C927.244 45.1205 927.607 45.3442 927.928 45.6491C928.25 45.9541 928.503 46.3501 928.689 46.8374C928.874 47.3213 928.967 47.9096 928.967 48.6023V49.1293H922.897V48.0156H927.51C927.51 47.6245 927.431 47.2782 927.272 46.9766C927.113 46.6716 926.889 46.4313 926.601 46.2557C926.316 46.08 925.981 45.9922 925.596 45.9922C925.179 45.9922 924.814 46.0949 924.503 46.3004C924.194 46.5026 923.956 46.7678 923.787 47.0959C923.621 47.4207 923.538 47.7737 923.538 48.1548V49.0249C923.538 49.5353 923.628 49.9695 923.807 50.3274C923.989 50.6854 924.242 50.9588 924.567 51.1477C924.892 51.3333 925.272 51.4261 925.706 51.4261C925.988 51.4261 926.244 51.3864 926.476 51.3068C926.708 51.224 926.909 51.1013 927.078 50.9389C927.247 50.7765 927.376 50.576 927.466 50.3374L928.873 50.5909C928.76 51.0052 928.558 51.3681 928.266 51.6797C927.978 51.9879 927.615 52.2282 927.177 52.4006C926.743 52.5696 926.248 52.6541 925.691 52.6541ZM931.984 49.9098L931.974 48.0952H932.232L935.275 44.8636H937.055L933.585 48.5426H933.351L931.984 49.9098ZM930.616 52.5V42.3182H932.103V52.5H930.616ZM935.439 52.5L932.705 48.8707L933.729 47.8317L937.263 52.5H935.439Z" fill="white"/>
<path d="M890.5 27.5H936C942.627 27.5 948 32.8726 948 39.5V54.5C948 61.1274 942.627 66.5 936 66.5H890.5V27.5Z" stroke="#E5E7EB"/>
</g>
</g>
<defs>
<filter id="filter0_dd_155_20353" x="0" y="0" width="971" height="447" filterUnits="userSpaceOnUse" color-interpolation-filters="sRGB">
<feFlood flood-opacity="0" result="BackgroundImageFix"/>
<feColorMatrix in="SourceAlpha" type="matrix" values="0 0 0 0 0 0 0 0 0 0 0 0 0 0 0 0 0 0 127 0" result="hardAlpha"/>
<feOffset dy="1"/>
<feGaussianBlur stdDeviation="1.5"/>
<feColorMatrix type="matrix" values="0 0 0 0 0 0 0 0 0 0 0 0 0 0 0 0 0 0 0.1 0"/>
<feBlend mode="normal" in2="BackgroundImageFix" result="effect1_dropShadow_155_20353"/>
<feColorMatrix in="SourceAlpha" type="matrix" values="0 0 0 0 0 0 0 0 0 0 0 0 0 0 0 0 0 0 127 0" result="hardAlpha"/>
<feOffset dy="1"/>
<feGaussianBlur stdDeviation="1"/>
<feColorMatrix type="matrix" values="0 0 0 0 0 0 0 0 0 0 0 0 0 0 0 0 0 0 0.06 0"/>
<feBlend mode="normal" in2="effect1_dropShadow_155_20353" result="effect2_dropShadow_155_20353"/>
<feBlend mode="normal" in="SourceGraphic" in2="effect2_dropShadow_155_20353" result="shape"/>
</filter>
<filter id="filter1_dd_155_20353" x="755" y="30" width="196" height="36" filterUnits="userSpaceOnUse" color-interpolation-filters="sRGB">
<feFlood flood-opacity="0" result="BackgroundImageFix"/>
<feColorMatrix in="SourceAlpha" type="matrix" values="0 0 0 0 0 0 0 0 0 0 0 0 0 0 0 0 0 0 127 0" result="hardAlpha"/>
<feOffset dy="1"/>
<feGaussianBlur stdDeviation="1.5"/>
<feColorMatrix type="matrix" values="0 0 0 0 0 0 0 0 0 0 0 0 0 0 0 0 0 0 0.1 0"/>
<feBlend mode="normal" in2="BackgroundImageFix" result="effect1_dropShadow_155_20353"/>
<feColorMatrix in="SourceAlpha" type="matrix" values="0 0 0 0 0 0 0 0 0 0 0 0 0 0 0 0 0 0 127 0" result="hardAlpha"/>
<feOffset dy="1"/>
<feGaussianBlur stdDeviation="1"/>
<feColorMatrix type="matrix" values="0 0 0 0 0 0 0 0 0 0 0 0 0 0 0 0 0 0 0.06 0"/>
<feBlend mode="normal" in2="effect1_dropShadow_155_20353" result="effect2_dropShadow_155_20353"/>
<feBlend mode="normal" in="SourceGraphic" in2="effect2_dropShadow_155_20353" result="shape"/>
</filter>
<clipPath id="clip0_155_20353">
<path d="M758 44C758 37.3726 763.373 32 770 32H936C942.627 32 948 37.3726 948 44V50C948 56.6274 942.627 62 936 62H770C763.373 62 758 56.6274 758 50V44Z" fill="white"/>
</clipPath>
</defs>
</svg>
