
<svg width="971" height="549" viewBox="0 0 971 549" fill="none" xmlns="http://www.w3.org/2000/svg">
<g filter="url(#filter0_dd_2_76)">
<rect x="3" y="2" width="965" height="543" rx="16" fill="white"/>
<rect x="3.5" y="2.5" width="964" height="542" rx="15.5" stroke="#E4E4E7"/>
</g>
<path d="M49.9298 179.818V190H48.0854V181.613H48.0257L45.6443 183.134V181.444L48.1749 179.818H49.9298ZM52.5151 190V188.668L56.0499 185.202C56.3879 184.861 56.6697 184.558 56.895 184.293C57.1204 184.027 57.2894 183.771 57.4021 183.522C57.5148 183.273 57.5712 183.008 57.5712 182.727C57.5712 182.405 57.4983 182.13 57.3524 181.901C57.2066 181.669 57.0061 181.49 56.7509 181.364C56.4956 181.238 56.2056 181.175 55.8808 181.175C55.5461 181.175 55.2528 181.245 55.0009 181.384C54.749 181.52 54.5534 181.714 54.4142 181.966C54.2783 182.218 54.2104 182.518 54.2104 182.866H52.4554C52.4554 182.219 52.6029 181.658 52.8979 181.18C53.1929 180.703 53.5989 180.334 54.1159 180.072C54.6363 179.81 55.2329 179.679 55.9057 179.679C56.5885 179.679 57.1884 179.807 57.7054 180.062C58.2224 180.317 58.6235 180.667 58.9085 181.111C59.1969 181.555 59.3411 182.062 59.3411 182.632C59.3411 183.013 59.2681 183.388 59.1223 183.756C58.9765 184.124 58.7196 184.531 58.3517 184.979C57.9871 185.426 57.4751 185.968 56.8155 186.604L55.0605 188.389V188.459H59.4952V190H52.5151Z" fill="#6B7280"/>
<path d="M49.3009 133.818V144H47.4565V135.613H47.3968L45.0154 137.134V135.444L47.546 133.818H49.3009ZM51.7022 142.111V140.644L56.0225 133.818H57.2455V135.906H56.4998L53.5914 140.515V140.594H59.622V142.111H51.7022ZM56.5595 144V141.663L56.5793 141.007V133.818H58.3194V144H56.5595Z" fill="#6B7280"/>
<path d="M49.547 87.8182V98H47.7026V89.6129H47.6429L45.2615 91.1342V89.4439L47.7921 87.8182H49.547ZM55.8609 98.1392C55.3737 98.1359 54.8981 98.0514 54.4341 97.8857C53.9701 97.7166 53.5525 97.4432 53.1813 97.0653C52.81 96.6842 52.5151 96.1787 52.2963 95.549C52.0776 94.916 51.9698 94.1321 51.9732 93.1974C51.9732 92.3258 52.066 91.5485 52.2516 90.8658C52.4372 90.183 52.704 89.6063 53.052 89.1357C53.4 88.6617 53.8193 88.3004 54.3098 88.0518C54.8037 87.8033 55.3555 87.679 55.9653 87.679C56.605 87.679 57.1718 87.8049 57.6656 88.0568C58.1628 88.3087 58.5638 88.6534 58.8688 89.0909C59.1737 89.5251 59.3626 90.0156 59.4355 90.5625H57.6209C57.5281 90.1714 57.3375 89.8598 57.0492 89.6278C56.7641 89.3925 56.4028 89.2749 55.9653 89.2749C55.2594 89.2749 54.7158 89.5814 54.3347 90.1946C53.9568 90.8078 53.7662 91.6496 53.7629 92.7202H53.8325C53.9949 92.4285 54.2054 92.1783 54.4639 91.9695C54.7224 91.7607 55.0141 91.5999 55.3389 91.4872C55.6671 91.3712 56.0134 91.3132 56.378 91.3132C56.9746 91.3132 57.5099 91.4557 57.9838 91.7408C58.4611 92.0258 58.8389 92.4186 59.1173 92.919C59.3957 93.4162 59.5333 93.9863 59.53 94.6293C59.5333 95.2988 59.3808 95.9003 59.0726 96.4339C58.7644 96.9643 58.3351 97.3819 57.7849 97.6868C57.2348 97.9917 56.5934 98.1425 55.8609 98.1392ZM55.851 96.6477C56.2123 96.6477 56.5354 96.5599 56.8205 96.3842C57.1055 96.2086 57.3309 95.9716 57.4966 95.6733C57.6623 95.375 57.7435 95.0402 57.7402 94.669C57.7435 94.3045 57.664 93.9747 57.5016 93.6797C57.3425 93.3847 57.1221 93.151 56.8403 92.9787C56.5586 92.8063 56.2371 92.7202 55.8759 92.7202C55.6074 92.7202 55.3572 92.7715 55.1251 92.8743C54.8931 92.977 54.691 93.1196 54.5186 93.3018C54.3463 93.4808 54.2104 93.6896 54.1109 93.9283C54.0148 94.1636 53.9651 94.4155 53.9618 94.6839C53.9651 95.0386 54.048 95.3651 54.2104 95.6634C54.3728 95.9616 54.5965 96.2003 54.8815 96.3793C55.1666 96.5582 55.4897 96.6477 55.851 96.6477Z" fill="#6B7280"/>
<path d="M54.6853 234.14C55.1725 234.143 55.6465 234.229 56.1072 234.398C56.5712 234.564 56.9888 234.836 57.36 235.214C57.7313 235.588 58.0262 236.09 58.245 236.72C58.4637 237.35 58.5731 238.129 58.5731 239.057C58.5764 239.932 58.4836 240.714 58.2947 241.403C58.1091 242.089 57.8423 242.67 57.4943 243.143C57.1463 243.617 56.727 243.979 56.2365 244.227C55.7459 244.476 55.1941 244.6 54.5809 244.6C53.9379 244.6 53.3679 244.474 52.8707 244.222C52.3769 243.97 51.9775 243.626 51.6725 243.188C51.3676 242.751 51.1804 242.25 51.1108 241.687H52.9254C53.0182 242.091 53.2071 242.413 53.4921 242.651C53.7805 242.887 54.1434 243.004 54.5809 243.004C55.2869 243.004 55.8305 242.698 56.2116 242.085C56.5928 241.471 56.7833 240.62 56.7833 239.529H56.7137C56.5513 239.821 56.3409 240.073 56.0823 240.285C55.8238 240.494 55.5305 240.654 55.2024 240.767C54.8776 240.88 54.5329 240.936 54.1683 240.936C53.5717 240.936 53.0348 240.794 52.5575 240.509C52.0835 240.223 51.7073 239.832 51.4289 239.335C51.1538 238.838 51.0146 238.27 51.0113 237.63C51.0113 236.967 51.1638 236.372 51.4687 235.845C51.777 235.315 52.2062 234.897 52.7564 234.592C53.3065 234.284 53.9495 234.133 54.6853 234.14ZM54.6903 235.631C54.3323 235.631 54.0092 235.719 53.7208 235.895C53.4358 236.067 53.2104 236.303 53.0447 236.601C52.8823 236.896 52.8011 237.226 52.8011 237.59C52.8044 237.951 52.8856 238.28 53.0447 238.575C53.2071 238.87 53.4275 239.103 53.7059 239.276C53.9877 239.448 54.3091 239.534 54.6704 239.534C54.9389 239.534 55.1891 239.483 55.4211 239.38C55.6531 239.277 55.8553 239.135 56.0277 238.952C56.2033 238.767 56.3392 238.556 56.4353 238.321C56.5348 238.086 56.5828 237.837 56.5795 237.575C56.5795 237.227 56.4966 236.906 56.3309 236.611C56.1685 236.316 55.9448 236.079 55.6598 235.9C55.378 235.721 55.0549 235.631 54.6903 235.631Z" fill="#6B7280"/>
<path d="M50.4213 298.924L54.7515 290.353V290.283H49.7253V288.742H56.6606V290.318L52.3353 298.924H50.4213Z" fill="#6B7280"/>
<path d="M52.9456 353.524C52.2827 353.524 51.6894 353.4 51.1658 353.151C50.6421 352.899 50.2261 352.555 49.9179 352.117C49.613 351.68 49.4506 351.179 49.4307 350.616H51.2205C51.2536 351.033 51.4342 351.375 51.7624 351.64C52.0905 351.902 52.4849 352.032 52.9456 352.032C53.3069 352.032 53.6284 351.95 53.9101 351.784C54.1918 351.618 54.4139 351.388 54.5763 351.093C54.7387 350.798 54.8182 350.461 54.8149 350.084C54.8182 349.699 54.737 349.358 54.5713 349.059C54.4056 348.761 54.1786 348.528 53.8902 348.358C53.6019 348.186 53.2704 348.1 52.8959 348.1C52.591 348.097 52.291 348.153 51.996 348.269C51.701 348.385 51.4674 348.537 51.295 348.726L49.6296 348.453L50.1615 343.203H56.0678V344.744H51.6878L51.3945 347.444H51.4541C51.643 347.222 51.9099 347.038 52.2546 346.892C52.5992 346.743 52.9771 346.668 53.3881 346.668C54.0046 346.668 54.5547 346.814 55.0386 347.106C55.5225 347.394 55.9037 347.792 56.1821 348.299C56.4605 348.806 56.5997 349.386 56.5997 350.039C56.5997 350.712 56.4439 351.312 56.1324 351.839C55.8242 352.362 55.3949 352.775 54.8447 353.077C54.2979 353.375 53.6648 353.524 52.9456 353.524Z" fill="#6B7280"/>
<path d="M49.5699 407.848V406.515L53.1047 403.05C53.4428 402.709 53.7245 402.405 53.9499 402.14C54.1752 401.875 54.3443 401.618 54.457 401.37C54.5697 401.121 54.626 400.856 54.626 400.574C54.626 400.253 54.5531 399.978 54.4072 399.749C54.2614 399.517 54.0609 399.338 53.8057 399.212C53.5505 399.086 53.2605 399.023 52.9357 399.023C52.6009 399.023 52.3076 399.093 52.0557 399.232C51.8038 399.368 51.6082 399.562 51.469 399.814C51.3331 400.065 51.2652 400.365 51.2652 400.713H49.5102C49.5102 400.067 49.6577 399.505 49.9527 399.028C50.2477 398.551 50.6537 398.181 51.1707 397.919C51.6911 397.658 52.2877 397.527 52.9605 397.527C53.6433 397.527 54.2432 397.654 54.7602 397.909C55.2773 398.165 55.6783 398.514 55.9634 398.958C56.2517 399.403 56.3959 399.91 56.3959 400.48C56.3959 400.861 56.323 401.235 56.1771 401.603C56.0313 401.971 55.7744 402.379 55.4065 402.826C55.042 403.274 54.5299 403.816 53.8703 404.452L52.1153 406.237V406.306H56.55V407.848H49.5699Z" fill="#6B7280"/>
<path d="M52.6908 462.502C51.8722 462.502 51.1695 462.295 50.5829 461.881C49.9995 461.463 49.5504 460.862 49.2356 460.076C48.924 459.288 48.7682 458.338 48.7682 457.228C48.7715 456.117 48.929 455.173 49.2405 454.394C49.5554 453.612 50.0045 453.015 50.5878 452.604C51.1745 452.193 51.8755 451.988 52.6908 451.988C53.5061 451.988 54.2071 452.193 54.7938 452.604C55.3804 453.015 55.8295 453.612 56.1411 454.394C56.456 455.176 56.6134 456.121 56.6134 457.228C56.6134 458.341 56.456 459.292 56.1411 460.081C55.8295 460.867 55.3804 461.467 54.7938 461.881C54.2105 462.295 53.5095 462.502 52.6908 462.502ZM52.6908 460.946C53.3272 460.946 53.8293 460.633 54.1972 460.007C54.5684 459.377 54.754 458.451 54.754 457.228C54.754 456.419 54.6695 455.739 54.5005 455.189C54.3314 454.639 54.0928 454.225 53.7846 453.946C53.4763 453.665 53.1117 453.524 52.6908 453.524C52.0578 453.524 51.5573 453.839 51.1894 454.468C50.8215 455.095 50.6359 456.015 50.6326 457.228C50.6293 458.04 50.7105 458.722 50.8762 459.276C51.0452 459.829 51.2838 460.247 51.5921 460.529C51.9003 460.807 52.2666 460.946 52.6908 460.946Z" fill="#6B7280"/>
<line x1="88.1992" y1="181.82" x2="947.199" y2="181.82" stroke="#F3F4F6"/>
<line x1="88.1992" y1="135.82" x2="947.199" y2="135.82" stroke="#F3F4F6"/>
<line x1="88.1992" y1="89.8203" x2="947.199" y2="89.8203" stroke="#F3F4F6"/>
<line x1="88.1992" y1="227.846" x2="947.199" y2="227.846" stroke="#F3F4F6"/>
<line x1="88.1992" y1="273.871" x2="947.199" y2="273.871" stroke="#F3F4F6"/>
<line x1="88.4531" y1="319.895" x2="947.453" y2="319.895" stroke="#F3F4F6"/>
<line x1="88.1992" y1="365.918" x2="947.199" y2="365.918" stroke="#F3F4F6"/>
<line x1="88.1992" y1="411.943" x2="947.199" y2="411.943" stroke="#F3F4F6"/>
<line x1="88.1992" y1="457.967" x2="947.199" y2="457.967" stroke="#F3F4F6"/>
<path d="M922.127 485.574H924.782L927.586 492.415H927.705L930.509 485.574H933.164V495.756H931.076V489.129H930.991L928.356 495.706H926.934L924.3 489.104H924.215V495.756H922.127V485.574ZM938.348 495.905C937.576 495.905 936.908 495.741 936.344 495.413C935.784 495.081 935.352 494.621 935.047 494.031C934.742 493.437 934.589 492.75 934.589 491.968C934.589 491.179 934.742 490.489 935.047 489.899C935.352 489.306 935.784 488.845 936.344 488.517C936.908 488.186 937.576 488.02 938.348 488.02C939.12 488.02 939.786 488.186 940.347 488.517C940.91 488.845 941.344 489.306 941.649 489.899C941.954 490.489 942.107 491.179 942.107 491.968C942.107 492.75 941.954 493.437 941.649 494.031C941.344 494.621 940.91 495.081 940.347 495.413C939.786 495.741 939.12 495.905 938.348 495.905ZM938.358 494.264C938.709 494.264 939.003 494.165 939.238 493.966C939.473 493.764 939.651 493.489 939.77 493.141C939.892 492.793 939.954 492.397 939.954 491.953C939.954 491.508 939.892 491.112 939.77 490.764C939.651 490.416 939.473 490.141 939.238 489.939C939.003 489.737 938.709 489.636 938.358 489.636C938.003 489.636 937.705 489.737 937.463 489.939C937.224 490.141 937.044 490.416 936.921 490.764C936.802 491.112 936.742 491.508 936.742 491.953C936.742 492.397 936.802 492.793 936.921 493.141C937.044 493.489 937.224 493.764 937.463 493.966C937.705 494.165 938.003 494.264 938.358 494.264ZM945.602 491.341V495.756H943.484V488.119H945.502V489.467H945.592C945.761 489.023 946.044 488.671 946.442 488.413C946.839 488.151 947.322 488.02 947.888 488.02C948.419 488.02 948.881 488.136 949.276 488.368C949.67 488.6 949.977 488.932 950.195 489.362C950.414 489.79 950.523 490.3 950.523 490.894V495.756H948.406V491.271C948.409 490.804 948.29 490.44 948.048 490.178C947.806 489.913 947.473 489.78 947.048 489.78C946.763 489.78 946.511 489.841 946.293 489.964C946.077 490.087 945.908 490.266 945.785 490.501C945.666 490.733 945.605 491.013 945.602 491.341Z" fill="#4B5563"/>
<path d="M789.407 488.502C789.367 488.101 789.197 487.79 788.895 487.568C788.593 487.346 788.184 487.235 787.667 487.235C787.316 487.235 787.019 487.284 786.777 487.384C786.535 487.48 786.35 487.614 786.22 487.786C786.094 487.959 786.031 488.154 786.031 488.373C786.025 488.555 786.063 488.714 786.146 488.85C786.232 488.986 786.35 489.104 786.499 489.203C786.648 489.299 786.82 489.384 787.016 489.457C787.211 489.526 787.42 489.586 787.642 489.636L788.557 489.855C789.001 489.954 789.409 490.087 789.78 490.252C790.151 490.418 790.473 490.622 790.745 490.864C791.016 491.106 791.227 491.391 791.376 491.719C791.528 492.047 791.606 492.423 791.61 492.847C791.606 493.471 791.447 494.011 791.132 494.468C790.821 494.922 790.37 495.275 789.78 495.527C789.193 495.776 788.486 495.9 787.657 495.9C786.835 495.9 786.119 495.774 785.509 495.522C784.903 495.27 784.429 494.897 784.088 494.404C783.749 493.906 783.572 493.292 783.556 492.559H785.639C785.662 492.901 785.76 493.186 785.932 493.414C786.108 493.64 786.341 493.81 786.633 493.926C786.928 494.039 787.261 494.095 787.632 494.095C787.997 494.095 788.313 494.042 788.582 493.936C788.854 493.83 789.064 493.683 789.213 493.494C789.362 493.305 789.437 493.088 789.437 492.843C789.437 492.614 789.369 492.422 789.233 492.266C789.101 492.11 788.905 491.977 788.647 491.868C788.391 491.759 788.078 491.659 787.707 491.57L786.598 491.291C785.74 491.083 785.062 490.756 784.565 490.312C784.068 489.868 783.821 489.27 783.824 488.517C783.821 487.901 783.985 487.362 784.316 486.901C784.651 486.441 785.11 486.081 785.693 485.823C786.277 485.564 786.94 485.435 787.682 485.435C788.438 485.435 789.097 485.564 789.661 485.823C790.227 486.081 790.668 486.441 790.983 486.901C791.298 487.362 791.46 487.896 791.47 488.502H789.407ZM797.915 492.504V488.119H800.033V495.756H797.999V494.369H797.92C797.747 494.816 797.461 495.176 797.06 495.448C796.662 495.719 796.176 495.855 795.603 495.855C795.093 495.855 794.643 495.739 794.256 495.507C793.868 495.275 793.565 494.945 793.346 494.518C793.13 494.09 793.021 493.578 793.018 492.982V488.119H795.136V492.604C795.139 493.055 795.26 493.411 795.499 493.673C795.737 493.935 796.057 494.066 796.458 494.066C796.713 494.066 796.952 494.008 797.174 493.892C797.396 493.772 797.575 493.597 797.711 493.365C797.85 493.133 797.918 492.846 797.915 492.504ZM803.845 491.341V495.756H801.727V488.119H803.745V489.467H803.835C804.004 489.023 804.287 488.671 804.685 488.413C805.083 488.151 805.565 488.02 806.132 488.02C806.662 488.02 807.124 488.136 807.519 488.368C807.913 488.6 808.22 488.932 808.438 489.362C808.657 489.79 808.767 490.3 808.767 490.894V495.756H806.649V491.271C806.652 490.804 806.533 490.44 806.291 490.178C806.049 489.913 805.716 489.78 805.291 489.78C805.006 489.78 804.754 489.841 804.536 489.964C804.32 490.087 804.151 490.266 804.029 490.501C803.909 490.733 803.848 491.013 803.845 491.341Z" fill="#4B5563"/>
<path d="M651.335 488.502C651.295 488.101 651.124 487.79 650.823 487.568C650.521 487.346 650.112 487.235 649.595 487.235C649.244 487.235 648.947 487.284 648.705 487.384C648.463 487.48 648.277 487.614 648.148 487.786C648.022 487.959 647.959 488.154 647.959 488.373C647.953 488.555 647.991 488.714 648.074 488.85C648.16 488.986 648.277 489.104 648.427 489.203C648.576 489.299 648.748 489.384 648.944 489.457C649.139 489.526 649.348 489.586 649.57 489.636L650.485 489.855C650.929 489.954 651.337 490.087 651.708 490.252C652.079 490.418 652.401 490.622 652.672 490.864C652.944 491.106 653.155 491.391 653.304 491.719C653.456 492.047 653.534 492.423 653.537 492.847C653.534 493.471 653.375 494.011 653.06 494.468C652.749 494.922 652.298 495.275 651.708 495.527C651.121 495.776 650.414 495.9 649.585 495.9C648.763 495.9 648.047 495.774 647.437 495.522C646.831 495.27 646.357 494.897 646.015 494.404C645.677 493.906 645.5 493.292 645.483 492.559H647.566C647.59 492.901 647.687 493.186 647.86 493.414C648.035 493.64 648.269 493.81 648.561 493.926C648.856 494.039 649.189 494.095 649.56 494.095C649.925 494.095 650.241 494.042 650.51 493.936C650.781 493.83 650.992 493.683 651.141 493.494C651.29 493.305 651.365 493.088 651.365 492.843C651.365 492.614 651.297 492.422 651.161 492.266C651.028 492.11 650.833 491.977 650.574 491.868C650.319 491.759 650.006 491.659 649.635 491.57L648.526 491.291C647.668 491.083 646.99 490.756 646.493 490.312C645.995 489.868 645.749 489.27 645.752 488.517C645.749 487.901 645.913 487.362 646.244 486.901C646.579 486.441 647.038 486.081 647.621 485.823C648.205 485.564 648.867 485.435 649.61 485.435C650.366 485.435 651.025 485.564 651.589 485.823C652.155 486.081 652.596 486.441 652.911 486.901C653.226 487.362 653.388 487.896 653.398 488.502H651.335ZM657.123 495.9C656.636 495.9 656.202 495.816 655.821 495.646C655.439 495.474 655.138 495.221 654.916 494.886C654.697 494.548 654.588 494.127 654.588 493.623C654.588 493.199 654.666 492.843 654.821 492.554C654.977 492.266 655.189 492.034 655.458 491.858C655.726 491.682 656.031 491.55 656.372 491.46C656.717 491.371 657.078 491.308 657.456 491.271C657.9 491.225 658.258 491.182 658.53 491.142C658.802 491.099 658.999 491.036 659.122 490.953C659.244 490.87 659.306 490.748 659.306 490.585V490.556C659.306 490.241 659.206 489.997 659.007 489.825C658.812 489.652 658.533 489.566 658.172 489.566C657.791 489.566 657.488 489.651 657.262 489.82C657.037 489.985 656.888 490.194 656.815 490.446L654.856 490.287C654.956 489.823 655.151 489.422 655.443 489.084C655.734 488.743 656.111 488.481 656.571 488.298C657.035 488.113 657.572 488.02 658.182 488.02C658.606 488.02 659.012 488.07 659.4 488.169C659.791 488.269 660.138 488.423 660.439 488.632C660.744 488.84 660.984 489.109 661.16 489.437C661.336 489.762 661.424 490.151 661.424 490.605V495.756H659.415V494.697H659.355C659.233 494.936 659.069 495.146 658.863 495.328C658.658 495.507 658.411 495.648 658.122 495.751C657.834 495.85 657.501 495.9 657.123 495.9ZM657.73 494.438C658.041 494.438 658.316 494.377 658.555 494.254C658.794 494.128 658.981 493.959 659.117 493.747C659.253 493.535 659.321 493.295 659.321 493.026V492.216C659.254 492.259 659.163 492.299 659.047 492.335C658.934 492.369 658.807 492.4 658.664 492.43C658.522 492.456 658.379 492.481 658.237 492.504C658.094 492.524 657.965 492.543 657.849 492.559C657.6 492.596 657.383 492.654 657.198 492.733C657.012 492.813 656.868 492.92 656.765 493.056C656.662 493.189 656.611 493.355 656.611 493.553C656.611 493.842 656.715 494.062 656.924 494.215C657.136 494.364 657.405 494.438 657.73 494.438ZM667.128 488.119V489.71H662.53V488.119H667.128ZM663.574 486.29H665.692V493.409C665.692 493.605 665.722 493.757 665.781 493.867C665.841 493.973 665.924 494.047 666.03 494.09C666.139 494.133 666.265 494.155 666.408 494.155C666.507 494.155 666.606 494.147 666.706 494.13C666.805 494.11 666.882 494.095 666.935 494.085L667.268 495.661C667.162 495.695 667.012 495.733 666.82 495.776C666.628 495.822 666.394 495.85 666.119 495.86C665.609 495.88 665.161 495.812 664.777 495.656C664.396 495.501 664.099 495.259 663.887 494.931C663.675 494.602 663.57 494.188 663.574 493.688V486.29Z" fill="#4B5563"/>
<path d="M508.375 495.756V485.574H515.116V487.349H510.528V489.775H514.669V491.55H510.528V495.756H508.375ZM516.402 495.756V488.119H518.455V489.452H518.534C518.674 488.978 518.907 488.62 519.235 488.378C519.564 488.133 519.941 488.01 520.369 488.01C520.475 488.01 520.589 488.017 520.712 488.03C520.835 488.043 520.942 488.061 521.035 488.085V489.964C520.936 489.934 520.798 489.908 520.622 489.884C520.447 489.861 520.286 489.85 520.14 489.85C519.829 489.85 519.55 489.918 519.305 490.053C519.063 490.186 518.871 490.372 518.728 490.61C518.589 490.849 518.52 491.124 518.52 491.436V495.756H516.402ZM522.13 495.756V488.119H524.248V495.756H522.13ZM523.194 487.135C522.879 487.135 522.609 487.031 522.384 486.822C522.162 486.61 522.051 486.356 522.051 486.061C522.051 485.77 522.162 485.519 522.384 485.311C522.609 485.098 522.879 484.992 523.194 484.992C523.509 484.992 523.777 485.098 523.999 485.311C524.225 485.519 524.338 485.77 524.338 486.061C524.338 486.356 524.225 486.61 523.999 486.822C523.777 487.031 523.509 487.135 523.194 487.135Z" fill="#4B5563"/>
<path d="M366.053 487.349V485.574H374.415V487.349H371.298V495.756H369.17V487.349H366.053ZM377.871 491.341V495.756H375.753V485.574H377.811V489.467H377.901C378.073 489.016 378.351 488.663 378.736 488.408C379.12 488.149 379.603 488.02 380.183 488.02C380.713 488.02 381.175 488.136 381.57 488.368C381.967 488.597 382.276 488.927 382.494 489.357C382.716 489.785 382.826 490.297 382.822 490.894V495.756H380.705V491.271C380.708 490.801 380.589 490.435 380.347 490.173C380.108 489.911 379.773 489.78 379.342 489.78C379.054 489.78 378.799 489.841 378.577 489.964C378.358 490.087 378.186 490.266 378.06 490.501C377.937 490.733 377.874 491.013 377.871 491.341ZM389.386 492.504V488.119H391.504V495.756H389.471V494.369H389.391C389.219 494.816 388.932 495.176 388.531 495.448C388.133 495.719 387.648 495.855 387.074 495.855C386.564 495.855 386.115 495.739 385.727 495.507C385.339 495.275 385.036 494.945 384.817 494.518C384.602 494.09 384.492 493.578 384.489 492.982V488.119H386.607V492.604C386.61 493.055 386.731 493.411 386.97 493.673C387.209 493.935 387.528 494.066 387.93 494.066C388.185 494.066 388.423 494.008 388.645 493.892C388.867 493.772 389.046 493.597 389.182 493.365C389.322 493.133 389.389 492.846 389.386 492.504Z" fill="#4B5563"/>
<path d="M228.995 495.756L226.082 485.574H228.433L230.119 492.649H230.203L232.062 485.574H234.076L235.93 492.664H236.02L237.705 485.574H240.057L237.143 495.756H235.045L233.107 489.099H233.027L231.093 495.756H228.995ZM243.829 495.905C243.043 495.905 242.367 495.746 241.801 495.428C241.237 495.106 240.803 494.652 240.498 494.066C240.193 493.476 240.041 492.778 240.041 491.972C240.041 491.187 240.193 490.498 240.498 489.904C240.803 489.311 241.232 488.849 241.786 488.517C242.342 488.186 242.995 488.02 243.744 488.02C244.248 488.02 244.717 488.101 245.151 488.264C245.589 488.423 245.97 488.663 246.295 488.985C246.623 489.306 246.878 489.71 247.061 490.198C247.243 490.682 247.334 491.248 247.334 491.898V492.48H240.886V491.167H245.34C245.34 490.862 245.274 490.592 245.141 490.357C245.009 490.121 244.825 489.937 244.59 489.805C244.358 489.669 244.088 489.601 243.779 489.601C243.458 489.601 243.173 489.676 242.924 489.825C242.679 489.971 242.487 490.168 242.347 490.416C242.208 490.662 242.137 490.935 242.134 491.237V492.485C242.134 492.862 242.203 493.189 242.342 493.464C242.485 493.739 242.686 493.951 242.944 494.1C243.203 494.249 243.509 494.324 243.864 494.324C244.099 494.324 244.315 494.291 244.51 494.225C244.706 494.158 244.873 494.059 245.012 493.926C245.151 493.794 245.257 493.631 245.33 493.439L247.289 493.568C247.19 494.039 246.986 494.45 246.678 494.801C246.373 495.149 245.978 495.421 245.494 495.617C245.014 495.809 244.459 495.905 243.829 495.905ZM251.53 495.88C250.95 495.88 250.425 495.731 249.954 495.433C249.487 495.131 249.115 494.689 248.84 494.105C248.569 493.519 248.433 492.799 248.433 491.948C248.433 491.073 248.574 490.345 248.855 489.765C249.137 489.182 249.512 488.746 249.979 488.458C250.449 488.166 250.965 488.02 251.525 488.02C251.953 488.02 252.309 488.093 252.594 488.239C252.882 488.381 253.114 488.56 253.29 488.776C253.469 488.988 253.605 489.197 253.698 489.402H253.762V485.574H255.875V495.756H253.787V494.533H253.698C253.598 494.745 253.457 494.955 253.275 495.164C253.096 495.37 252.862 495.54 252.574 495.676C252.289 495.812 251.941 495.88 251.53 495.88ZM252.201 494.195C252.543 494.195 252.831 494.102 253.066 493.916C253.305 493.727 253.487 493.464 253.613 493.126C253.742 492.788 253.807 492.392 253.807 491.938C253.807 491.484 253.744 491.089 253.618 490.754C253.492 490.42 253.31 490.161 253.071 489.979C252.833 489.797 252.543 489.705 252.201 489.705C251.853 489.705 251.56 489.8 251.321 489.989C251.083 490.178 250.902 490.44 250.779 490.774C250.657 491.109 250.595 491.497 250.595 491.938C250.595 492.382 250.657 492.775 250.779 493.116C250.905 493.454 251.086 493.719 251.321 493.911C251.56 494.1 251.853 494.195 252.201 494.195Z" fill="#4B5563"/>
<path d="M89.0975 487.349V485.574H97.4597V487.349H94.3426V495.756H92.2147V487.349H89.0975ZM102.655 492.504V488.119H104.773V495.756H102.74V494.369H102.66C102.488 494.816 102.201 495.176 101.8 495.448C101.402 495.719 100.917 495.855 100.343 495.855C99.8329 495.855 99.3838 495.739 98.996 495.507C98.6082 495.275 98.3049 494.945 98.0862 494.518C97.8707 494.09 97.7614 493.578 97.758 492.982V488.119H99.8759V492.604C99.8793 493.055 100 493.411 100.239 493.673C100.478 493.935 100.797 494.066 101.198 494.066C101.454 494.066 101.692 494.008 101.914 493.892C102.136 493.772 102.315 493.597 102.451 493.365C102.59 493.133 102.658 492.846 102.655 492.504ZM109.947 495.905C109.162 495.905 108.485 495.746 107.919 495.428C107.355 495.106 106.921 494.652 106.616 494.066C106.311 493.476 106.159 492.778 106.159 491.972C106.159 491.187 106.311 490.498 106.616 489.904C106.921 489.311 107.35 488.849 107.904 488.517C108.461 488.186 109.114 488.02 109.863 488.02C110.366 488.02 110.835 488.101 111.27 488.264C111.707 488.423 112.088 488.663 112.413 488.985C112.741 489.306 112.996 489.71 113.179 490.198C113.361 490.682 113.452 491.248 113.452 491.898V492.48H107.004V491.167H111.459C111.459 490.862 111.392 490.592 111.26 490.357C111.127 490.121 110.943 489.937 110.708 489.805C110.476 489.669 110.206 489.601 109.897 489.601C109.576 489.601 109.291 489.676 109.042 489.825C108.797 489.971 108.605 490.168 108.466 490.416C108.326 490.662 108.255 490.935 108.252 491.237V492.485C108.252 492.862 108.321 493.189 108.461 493.464C108.603 493.739 108.804 493.951 109.062 494.1C109.321 494.249 109.627 494.324 109.982 494.324C110.217 494.324 110.433 494.291 110.628 494.225C110.824 494.158 110.991 494.059 111.13 493.926C111.27 493.794 111.376 493.631 111.449 493.439L113.407 493.568C113.308 494.039 113.104 494.45 112.796 494.801C112.491 495.149 112.097 495.421 111.613 495.617C111.132 495.809 110.577 495.905 109.947 495.905Z" fill="#4B5563"/>
<path d="M94 340.5C97 336.5 105 329.7 113 334.5C121 339.3 131.667 328.167 136 322C138.667 328.167 146.9 340.5 158.5 340.5C173 340.5 176 314 180.5 322C184.1 328.4 202.333 319 211 313.5C214.333 315.5 222.3 321.6 227.5 330C234 340.5 260.5 322 267 322C273.5 322 284 328.5 297 334.5C307.4 339.3 320.667 336.5 326 334.5L353.5 313.5C359.167 310.667 372 306.7 378 313.5C385.5 322 395 334.5 399.5 334.5C403.1 334.5 413 326.167 417.5 322L449 266C450.833 276.333 457.2 293.9 468 281.5C478.8 269.1 488.5 263 492 261.5C490.833 283.833 491.4 329.7 503 334.5C514.6 339.3 518.5 328.167 519 322H539.5L560 340.5L598 261.5L622.5 330L644.5 313.5L672 330L695.5 313.5C700.333 322 711.5 338.099 717.5 334.5C723.5 330.9 752 319 765.5 313.5C769.667 319 779.8 330 787 330C794.2 330 804.333 319 808.5 313.5C811.5 310.667 819.6 306.7 828 313.5C836.4 320.3 851.167 327.333 857.5 330C869.833 324.667 896.6 315.6 905 322C913.4 328.4 931.833 333 940 334.5" stroke="#6FFCB8" stroke-width="3"/>
<g filter="url(#filter1_dd_2_76)">
<g clip-path="url(#clip0_2_76)">
<path d="M758 44C758 37.3726 763.373 32 770 32H936C942.627 32 948 37.3726 948 44V50C948 56.6274 942.627 62 936 62H770C763.373 62 758 56.6274 758 50V44Z" fill="white"/>
<path d="M758 39.5C758 32.8726 763.373 27.5 770 27.5H815.5V66.5H770C763.373 66.5 758 61.1274 758 54.5V39.5Z" fill="white"/>
<path d="M772.083 42.3182H773.828L776.488 46.9467H776.597L779.257 42.3182H781.002L777.308 48.5028V52.5H775.777V48.5028L772.083 42.3182ZM784.367 52.6541C783.614 52.6541 782.966 52.4934 782.423 52.1719C781.883 51.8471 781.465 51.3913 781.17 50.8047C780.878 50.2147 780.732 49.5237 780.732 48.7315C780.732 47.9493 780.878 47.2599 781.17 46.6634C781.465 46.0668 781.876 45.6011 782.403 45.2663C782.933 44.9316 783.553 44.7642 784.262 44.7642C784.693 44.7642 785.111 44.8355 785.515 44.978C785.919 45.1205 786.282 45.3442 786.604 45.6491C786.925 45.9541 787.179 46.3501 787.365 46.8374C787.55 47.3213 787.643 47.9096 787.643 48.6023V49.1293H781.573V48.0156H786.186C786.186 47.6245 786.107 47.2782 785.948 46.9766C785.789 46.6716 785.565 46.4313 785.276 46.2557C784.991 46.08 784.657 45.9922 784.272 45.9922C783.855 45.9922 783.49 46.0949 783.178 46.3004C782.87 46.5026 782.632 46.7678 782.463 47.0959C782.297 47.4207 782.214 47.7737 782.214 48.1548V49.0249C782.214 49.5353 782.303 49.9695 782.482 50.3274C782.665 50.6854 782.918 50.9588 783.243 51.1477C783.568 51.3333 783.947 51.4261 784.382 51.4261C784.663 51.4261 784.92 51.3864 785.152 51.3068C785.384 51.224 785.585 51.1013 785.754 50.9389C785.923 50.7765 786.052 50.576 786.142 50.3374L787.548 50.5909C787.436 51.0052 787.234 51.3681 786.942 51.6797C786.654 51.9879 786.291 52.2282 785.853 52.4006C785.419 52.5696 784.923 52.6541 784.367 52.6541ZM791.515 52.669C791.031 52.669 790.593 52.5795 790.202 52.4006C789.811 52.2183 789.501 51.9548 789.272 51.6101C789.047 51.2654 788.934 50.8428 788.934 50.3423C788.934 49.9115 789.017 49.5568 789.183 49.2784C789.349 49 789.572 48.7796 789.854 48.6172C790.136 48.4548 790.451 48.3321 790.799 48.2493C791.147 48.1664 791.501 48.1035 791.863 48.0604C792.32 48.0073 792.691 47.9643 792.976 47.9311C793.261 47.8946 793.468 47.8366 793.598 47.7571C793.727 47.6776 793.792 47.5483 793.792 47.3693V47.3345C793.792 46.9003 793.669 46.5639 793.424 46.3253C793.182 46.0866 792.82 45.9673 792.34 45.9673C791.839 45.9673 791.445 46.0784 791.157 46.3004C790.872 46.5192 790.674 46.7628 790.565 47.0312L789.168 46.7131C789.334 46.2491 789.576 45.8745 789.894 45.5895C790.215 45.3011 790.585 45.0923 791.002 44.9631C791.42 44.8305 791.859 44.7642 792.32 44.7642C792.625 44.7642 792.948 44.8007 793.289 44.8736C793.634 44.9432 793.956 45.0724 794.254 45.2614C794.556 45.4503 794.802 45.7204 794.995 46.0717C795.187 46.4197 795.283 46.8722 795.283 47.429V52.5H793.831V51.456H793.772C793.676 51.6482 793.531 51.8371 793.339 52.0227C793.147 52.2083 792.9 52.3625 792.598 52.4851C792.297 52.6077 791.935 52.669 791.515 52.669ZM791.838 51.4759C792.249 51.4759 792.6 51.3946 792.892 51.2322C793.187 51.0698 793.41 50.8577 793.563 50.5959C793.719 50.3307 793.797 50.0473 793.797 49.7457V48.7614C793.743 48.8144 793.641 48.8641 793.488 48.9105C793.339 48.9536 793.168 48.9917 792.976 49.0249C792.784 49.0547 792.597 49.0829 792.414 49.1094C792.232 49.1326 792.08 49.1525 791.957 49.169C791.669 49.2055 791.405 49.2668 791.167 49.353C790.931 49.4392 790.742 49.5634 790.6 49.7259C790.461 49.8849 790.391 50.0971 790.391 50.3622C790.391 50.7301 790.527 51.0085 790.799 51.1974C791.07 51.383 791.417 51.4759 791.838 51.4759ZM797.263 52.5V44.8636H798.7V46.0767H798.779C798.919 45.6657 799.164 45.3426 799.515 45.1072C799.87 44.8686 800.271 44.7493 800.718 44.7493C800.811 44.7493 800.92 44.7526 801.046 44.7592C801.176 44.7659 801.277 44.7741 801.35 44.7841V46.206C801.29 46.1894 801.184 46.1712 801.031 46.1513C800.879 46.1281 800.727 46.1165 800.574 46.1165C800.223 46.1165 799.91 46.1911 799.634 46.3402C799.363 46.486 799.147 46.6899 798.988 46.9517C798.829 47.2102 798.749 47.5052 798.749 47.8366V52.5H797.263Z" fill="#111928"/>
<path d="M758 39.5C758 32.8726 763.373 27.5 770 27.5H815.5V66.5H770C763.373 66.5 758 61.1274 758 54.5V39.5Z" stroke="#E5E7EB"/>
<path d="M815.5 27.5H890.5V66.5H815.5V27.5Z" fill="white"/>
<path d="M832.119 42.3182H833.983L837.224 50.233H837.344L840.585 42.3182H842.45V52.5H840.988V45.1321H840.893L837.891 52.4851H836.678L833.675 45.1271H833.58V52.5H832.119V42.3182ZM847.78 52.6541C847.064 52.6541 846.44 52.4901 845.906 52.1619C845.372 51.8338 844.958 51.3748 844.663 50.7848C844.368 50.1948 844.221 49.5054 844.221 48.7166C844.221 47.9245 844.368 47.2318 844.663 46.6385C844.958 46.0452 845.372 45.5845 845.906 45.2564C846.44 44.9283 847.064 44.7642 847.78 44.7642C848.496 44.7642 849.121 44.9283 849.655 45.2564C850.188 45.5845 850.603 46.0452 850.898 46.6385C851.193 47.2318 851.34 47.9245 851.34 48.7166C851.34 49.5054 851.193 50.1948 850.898 50.7848C850.603 51.3748 850.188 51.8338 849.655 52.1619C849.121 52.4901 848.496 52.6541 847.78 52.6541ZM847.785 51.4062C848.249 51.4062 848.634 51.2836 848.939 51.0384C849.244 50.7931 849.469 50.4666 849.615 50.0589C849.764 49.6513 849.839 49.2022 849.839 48.7116C849.839 48.2244 849.764 47.777 849.615 47.3693C849.469 46.9583 849.244 46.6286 848.939 46.38C848.634 46.1314 848.249 46.0071 847.785 46.0071C847.318 46.0071 846.93 46.1314 846.622 46.38C846.317 46.6286 846.09 46.9583 845.941 47.3693C845.795 47.777 845.722 48.2244 845.722 48.7116C845.722 49.2022 845.795 49.6513 845.941 50.0589C846.09 50.4666 846.317 50.7931 846.622 51.0384C846.93 51.2836 847.318 51.4062 847.785 51.4062ZM854.486 47.9659V52.5H852.999V44.8636H854.426V46.1065H854.521C854.696 45.7022 854.971 45.3774 855.346 45.1321C855.724 44.8868 856.199 44.7642 856.773 44.7642C857.293 44.7642 857.749 44.8736 858.14 45.0923C858.531 45.3078 858.834 45.6293 859.05 46.0568C859.265 46.4844 859.373 47.013 859.373 47.6428V52.5H857.886V47.8217C857.886 47.2682 857.742 46.8357 857.454 46.5241C857.165 46.2093 856.769 46.0518 856.266 46.0518C855.921 46.0518 855.614 46.1264 855.346 46.2756C855.081 46.4247 854.87 46.6435 854.714 46.9318C854.562 47.2169 854.486 47.5616 854.486 47.9659ZM864.931 44.8636V46.0568H860.76V44.8636H864.931ZM861.879 43.0341H863.365V50.2578C863.365 50.5462 863.408 50.7633 863.494 50.9091C863.58 51.0516 863.692 51.1494 863.827 51.2024C863.967 51.2521 864.117 51.277 864.28 51.277C864.399 51.277 864.504 51.2687 864.593 51.2521C864.683 51.2356 864.752 51.2223 864.802 51.2124L865.07 52.4403C864.984 52.4735 864.862 52.5066 864.702 52.5398C864.543 52.5762 864.344 52.5961 864.106 52.5994C863.715 52.6061 863.35 52.5365 863.012 52.3906C862.674 52.2448 862.401 52.0194 862.192 51.7145C861.983 51.4096 861.879 51.0268 861.879 50.5661V43.0341ZM868.226 47.9659V52.5H866.74V42.3182H868.206V46.1065H868.301C868.48 45.6955 868.753 45.3691 869.121 45.1271C869.489 44.8852 869.969 44.7642 870.563 44.7642C871.086 44.7642 871.544 44.8719 871.935 45.0874C872.329 45.3028 872.634 45.6243 872.85 46.0518C873.068 46.4761 873.178 47.0064 873.178 47.6428V52.5H871.691V47.8217C871.691 47.2616 871.547 46.8274 871.259 46.5192C870.97 46.2076 870.569 46.0518 870.056 46.0518C869.704 46.0518 869.389 46.1264 869.111 46.2756C868.836 46.4247 868.619 46.6435 868.46 46.9318C868.304 47.2169 868.226 47.5616 868.226 47.9659Z" fill="#111928"/>
<path d="M815.5 27.5H890.5V66.5H815.5V27.5Z" stroke="#E5E7EB"/>
<path d="M890.5 27.5H936C942.627 27.5 948 32.8726 948 39.5V54.5C948 61.1274 942.627 66.5 936 66.5H890.5V27.5Z" fill="#1C64F2"/>
<path d="M903.362 52.5L900.538 42.3182H902.154L904.138 50.2031H904.232L906.295 42.3182H907.896L909.96 50.2081H910.054L912.033 42.3182H913.653L910.825 52.5H909.278L907.136 44.8736H907.056L904.913 52.5H903.362ZM917.474 52.6541C916.722 52.6541 916.074 52.4934 915.53 52.1719C914.99 51.8471 914.572 51.3913 914.277 50.8047C913.986 50.2147 913.84 49.5237 913.84 48.7315C913.84 47.9493 913.986 47.2599 914.277 46.6634C914.572 46.0668 914.983 45.6011 915.51 45.2663C916.041 44.9316 916.66 44.7642 917.37 44.7642C917.801 44.7642 918.218 44.8355 918.623 44.978C919.027 45.1205 919.39 45.3442 919.711 45.6491C920.033 45.9541 920.286 46.3501 920.472 46.8374C920.658 47.3213 920.75 47.9096 920.75 48.6023V49.1293H914.68V48.0156H919.294C919.294 47.6245 919.214 47.2782 919.055 46.9766C918.896 46.6716 918.672 46.4313 918.384 46.2557C918.099 46.08 917.764 45.9922 917.38 45.9922C916.962 45.9922 916.597 46.0949 916.286 46.3004C915.978 46.5026 915.739 46.7678 915.57 47.0959C915.404 47.4207 915.321 47.7737 915.321 48.1548V49.0249C915.321 49.5353 915.411 49.9695 915.59 50.3274C915.772 50.6854 916.026 50.9588 916.35 51.1477C916.675 51.3333 917.055 51.4261 917.489 51.4261C917.771 51.4261 918.028 51.3864 918.26 51.3068C918.492 51.224 918.692 51.1013 918.861 50.9389C919.03 50.7765 919.159 50.576 919.249 50.3374L920.656 50.5909C920.543 51.0052 920.341 51.3681 920.049 51.6797C919.761 51.9879 919.398 52.2282 918.961 52.4006C918.526 52.5696 918.031 52.6541 917.474 52.6541ZM925.691 52.6541C924.939 52.6541 924.291 52.4934 923.747 52.1719C923.207 51.8471 922.789 51.3913 922.494 50.8047C922.202 50.2147 922.057 49.5237 922.057 48.7315C922.057 47.9493 922.202 47.2599 922.494 46.6634C922.789 46.0668 923.2 45.6011 923.727 45.2663C924.257 44.9316 924.877 44.7642 925.586 44.7642C926.017 44.7642 926.435 44.8355 926.839 44.978C927.244 45.1205 927.607 45.3442 927.928 45.6491C928.25 45.9541 928.503 46.3501 928.689 46.8374C928.874 47.3213 928.967 47.9096 928.967 48.6023V49.1293H922.897V48.0156H927.51C927.51 47.6245 927.431 47.2782 927.272 46.9766C927.113 46.6716 926.889 46.4313 926.601 46.2557C926.316 46.08 925.981 45.9922 925.596 45.9922C925.179 45.9922 924.814 46.0949 924.503 46.3004C924.194 46.5026 923.956 46.7678 923.787 47.0959C923.621 47.4207 923.538 47.7737 923.538 48.1548V49.0249C923.538 49.5353 923.628 49.9695 923.807 50.3274C923.989 50.6854 924.242 50.9588 924.567 51.1477C924.892 51.3333 925.272 51.4261 925.706 51.4261C925.988 51.4261 926.244 51.3864 926.476 51.3068C926.708 51.224 926.909 51.1013 927.078 50.9389C927.247 50.7765 927.376 50.576 927.466 50.3374L928.873 50.5909C928.76 51.0052 928.558 51.3681 928.266 51.6797C927.978 51.9879 927.615 52.2282 927.177 52.4006C926.743 52.5696 926.248 52.6541 925.691 52.6541ZM931.984 49.9098L931.974 48.0952H932.232L935.275 44.8636H937.055L933.585 48.5426H933.351L931.984 49.9098ZM930.616 52.5V42.3182H932.103V52.5H930.616ZM935.439 52.5L932.705 48.8707L933.729 47.8317L937.263 52.5H935.439Z" fill="white"/>
<path d="M890.5 27.5H936C942.627 27.5 948 32.8726 948 39.5V54.5C948 61.1274 942.627 66.5 936 66.5H890.5V27.5Z" stroke="#E5E7EB"/>
</g>
</g>
<defs>
<filter id="filter0_dd_2_76" x="0" y="0" width="971" height="549" filterUnits="userSpaceOnUse" color-interpolation-filters="sRGB">
<feFlood flood-opacity="0" result="BackgroundImageFix"/>
<feColorMatrix in="SourceAlpha" type="matrix" values="0 0 0 0 0 0 0 0 0 0 0 0 0 0 0 0 0 0 127 0" result="hardAlpha"/>
<feOffset dy="1"/>
<feGaussianBlur stdDeviation="1.5"/>
<feColorMatrix type="matrix" values="0 0 0 0 0 0 0 0 0 0 0 0 0 0 0 0 0 0 0.1 0"/>
<feBlend mode="normal" in2="BackgroundImageFix" result="effect1_dropShadow_2_76"/>
<feColorMatrix in="SourceAlpha" type="matrix" values="0 0 0 0 0 0 0 0 0 0 0 0 0 0 0 0 0 0 127 0" result="hardAlpha"/>
<feOffset dy="1"/>
<feGaussianBlur stdDeviation="1"/>
<feColorMatrix type="matrix" values="0 0 0 0 0 0 0 0 0 0 0 0 0 0 0 0 0 0 0.06 0"/>
<feBlend mode="normal" in2="effect1_dropShadow_2_76" result="effect2_dropShadow_2_76"/>
<feBlend mode="normal" in="SourceGraphic" in2="effect2_dropShadow_2_76" result="shape"/>
</filter>
<filter id="filter1_dd_2_76" x="755" y="30" width="196" height="36" filterUnits="userSpaceOnUse" color-interpolation-filters="sRGB">
<feFlood flood-opacity="0" result="BackgroundImageFix"/>
<feColorMatrix in="SourceAlpha" type="matrix" values="0 0 0 0 0 0 0 0 0 0 0 0 0 0 0 0 0 0 127 0" result="hardAlpha"/>
<feOffset dy="1"/>
<feGaussianBlur stdDeviation="1.5"/>
<feColorMatrix type="matrix" values="0 0 0 0 0 0 0 0 0 0 0 0 0 0 0 0 0 0 0.1 0"/>
<feBlend mode="normal" in2="BackgroundImageFix" result="effect1_dropShadow_2_76"/>
<feColorMatrix in="SourceAlpha" type="matrix" values="0 0 0 0 0 0 0 0 0 0 0 0 0 0 0 0 0 0 127 0" result="hardAlpha"/>
<feOffset dy="1"/>
<feGaussianBlur stdDeviation="1"/>
<feColorMatrix type="matrix" values="0 0 0 0 0 0 0 0 0 0 0 0 0 0 0 0 0 0 0.06 0"/>
<feBlend mode="normal" in2="effect1_dropShadow_2_76" result="effect2_dropShadow_2_76"/>
<feBlend mode="normal" in="SourceGraphic" in2="effect2_dropShadow_2_76" result="shape"/>
</filter>
<clipPath id="clip0_2_76">
<path d="M758 44C758 37.3726 763.373 32 770 32H936C942.627 32 948 37.3726 948 44V50C948 56.6274 942.627 62 936 62H770C763.373 62 758 56.6274 758 50V44Z" fill="white"/>
</clipPath>
</defs>
</svg>
