
<svg width="1348" height="106" viewBox="0 0 1348 106" fill="none" xmlns="http://www.w3.org/2000/svg">
<path d="M0.5 8C0.5 3.85786 3.85786 0.5 8 0.5H1340C1344.14 0.5 1347.5 3.85787 1347.5 8V98C1347.5 102.142 1344.14 105.5 1340 105.5H8C3.85786 105.5 0.5 102.142 0.5 98V8Z" fill="white" stroke="#E5E7EB"/>
<path d="M1141 46C1141 39.3726 1146.37 34 1153 34H1242C1248.63 34 1254 39.3726 1254 46V61C1254 67.6274 1248.63 73 1242 73H1153C1146.37 73 1141 67.6274 1141 61V46Z" fill="white"/>
<path d="M1164.87 48.3683C1165.02 48.2155 1165.19 48.0936 1165.39 48.0098C1165.58 47.9259 1165.79 47.8818 1166.01 47.8799C1166.22 47.8781 1166.43 47.9186 1166.63 47.999C1166.82 48.0795 1167 48.1983 1167.15 48.3485C1167.3 48.4987 1167.42 48.6774 1167.5 48.874C1167.58 49.0707 1167.62 49.2813 1167.62 49.4938C1167.62 49.7062 1167.57 49.9162 1167.49 50.1114C1167.41 50.3066 1167.28 50.4831 1167.13 50.6307L1166.5 51.2651L1164.23 49.0027L1164.87 48.3683ZM1163.1 50.1339L1156.4 56.8371V59.0995H1158.66L1165.37 52.3963L1163.1 50.1339H1163.1Z" fill="#111928"/>
<path d="M1179 59V48.8182H1185.63V50.3643H1180.85V53.1286H1185.28V54.6747H1180.85V57.4538H1185.67V59H1179ZM1190.26 59.1342C1189.66 59.1342 1189.13 58.9801 1188.65 58.6719C1188.18 58.3636 1187.8 57.9162 1187.53 57.3295C1187.25 56.7429 1187.12 56.0303 1187.12 55.1918C1187.12 54.3433 1187.25 53.6274 1187.53 53.044C1187.81 52.4574 1188.19 52.0149 1188.67 51.7166C1189.15 51.415 1189.68 51.2642 1190.27 51.2642C1190.71 51.2642 1191.08 51.3404 1191.37 51.4929C1191.66 51.642 1191.89 51.8227 1192.06 52.0348C1192.23 52.2436 1192.36 52.4408 1192.45 52.6264H1192.52V48.8182H1194.33V59H1192.56V57.7969H1192.45C1192.36 57.9825 1192.22 58.1797 1192.05 58.3885C1191.87 58.594 1191.64 58.7696 1191.35 58.9155C1191.06 59.0613 1190.7 59.1342 1190.26 59.1342ZM1190.76 57.6577C1191.15 57.6577 1191.47 57.5549 1191.74 57.3494C1192.01 57.1406 1192.21 56.8506 1192.35 56.4794C1192.49 56.1082 1192.56 55.6757 1192.56 55.1818C1192.56 54.688 1192.49 54.2588 1192.35 53.8942C1192.21 53.5296 1192.01 53.2462 1191.74 53.044C1191.48 52.8419 1191.15 52.7408 1190.76 52.7408C1190.36 52.7408 1190.03 52.8452 1189.76 53.054C1189.49 53.2628 1189.29 53.5511 1189.15 53.919C1189.02 54.2869 1188.95 54.7079 1188.95 55.1818C1188.95 55.6591 1189.02 56.085 1189.15 56.4595C1189.29 56.8307 1189.5 57.1241 1189.77 57.3395C1190.04 57.5516 1190.37 57.6577 1190.76 57.6577ZM1196.25 59V51.3636H1198.05V59H1196.25ZM1197.15 50.2798C1196.87 50.2798 1196.62 50.1854 1196.42 49.9964C1196.21 49.8042 1196.11 49.5739 1196.11 49.3054C1196.11 49.0336 1196.21 48.8033 1196.42 48.6143C1196.62 48.4221 1196.87 48.326 1197.15 48.326C1197.44 48.326 1197.69 48.4221 1197.89 48.6143C1198.09 48.8033 1198.2 49.0336 1198.2 49.3054C1198.2 49.5739 1198.09 49.8042 1197.89 49.9964C1197.69 50.1854 1197.44 50.2798 1197.15 50.2798ZM1203.71 51.3636V52.7557H1199.32V51.3636H1203.71ZM1200.4 49.5341H1202.2V56.7031C1202.2 56.9451 1202.24 57.1307 1202.31 57.2599C1202.39 57.3859 1202.49 57.4721 1202.61 57.5185C1202.73 57.5649 1202.87 57.5881 1203.02 57.5881C1203.13 57.5881 1203.23 57.5798 1203.33 57.5632C1203.42 57.5466 1203.5 57.5317 1203.55 57.5185L1203.85 58.9254C1203.75 58.9586 1203.62 58.995 1203.44 59.0348C1203.26 59.0746 1203.05 59.0978 1202.79 59.1044C1202.34 59.1177 1201.93 59.0497 1201.57 58.9006C1201.21 58.7481 1200.92 58.5128 1200.71 58.1946C1200.5 57.8764 1200.4 57.4787 1200.4 57.0014V49.5341ZM1208.77 59V48.8182H1210.61V57.4538H1215.1V59H1208.77ZM1219.95 59.1491C1219.2 59.1491 1218.56 58.9851 1218.01 58.657C1217.46 58.3288 1217.04 57.8698 1216.74 57.2798C1216.44 56.6899 1216.29 56.0005 1216.29 55.2116C1216.29 54.4228 1216.44 53.7318 1216.74 53.1385C1217.04 52.5452 1217.46 52.0845 1218.01 51.7564C1218.56 51.4283 1219.2 51.2642 1219.95 51.2642C1220.69 51.2642 1221.34 51.4283 1221.89 51.7564C1222.43 52.0845 1222.86 52.5452 1223.16 53.1385C1223.46 53.7318 1223.61 54.4228 1223.61 55.2116C1223.61 56.0005 1223.46 56.6899 1223.16 57.2798C1222.86 57.8698 1222.43 58.3288 1221.89 58.657C1221.34 58.9851 1220.69 59.1491 1219.95 59.1491ZM1219.96 57.7074C1220.36 57.7074 1220.7 57.5964 1220.97 57.3743C1221.24 57.1489 1221.45 56.8473 1221.58 56.4695C1221.72 56.0916 1221.78 55.6707 1221.78 55.2067C1221.78 54.7393 1221.72 54.3168 1221.58 53.9389C1221.45 53.5578 1221.24 53.2545 1220.97 53.0291C1220.7 52.8037 1220.36 52.6911 1219.96 52.6911C1219.54 52.6911 1219.2 52.8037 1218.92 53.0291C1218.65 53.2545 1218.45 53.5578 1218.31 53.9389C1218.18 54.3168 1218.11 54.7393 1218.11 55.2067C1218.11 55.6707 1218.18 56.0916 1218.31 56.4695C1218.45 56.8473 1218.65 57.1489 1218.92 57.3743C1219.2 57.5964 1219.54 57.7074 1219.96 57.7074ZM1228.46 62.0227C1227.81 62.0227 1227.26 61.9349 1226.79 61.7592C1226.33 61.5869 1225.95 61.3549 1225.67 61.0632C1225.39 60.7715 1225.2 60.4484 1225.09 60.0938L1226.71 59.701C1226.78 59.8501 1226.89 59.9976 1227.02 60.1435C1227.16 60.2926 1227.35 60.4152 1227.59 60.5114C1227.83 60.6108 1228.13 60.6605 1228.49 60.6605C1229 60.6605 1229.42 60.5362 1229.75 60.2876C1230.09 60.0424 1230.26 59.638 1230.26 59.0746V57.6278H1230.17C1230.07 57.8134 1229.94 58.004 1229.76 58.1996C1229.58 58.3951 1229.35 58.5592 1229.06 58.6918C1228.77 58.8243 1228.41 58.8906 1227.97 58.8906C1227.38 58.8906 1226.85 58.7531 1226.37 58.478C1225.9 58.1996 1225.52 57.7853 1225.24 57.2351C1224.96 56.6816 1224.82 55.9889 1224.82 55.157C1224.82 54.3184 1224.96 53.6108 1225.24 53.0341C1225.52 52.4541 1225.9 52.0149 1226.38 51.7166C1226.86 51.415 1227.39 51.2642 1227.97 51.2642C1228.42 51.2642 1228.79 51.3404 1229.08 51.4929C1229.37 51.642 1229.6 51.8227 1229.77 52.0348C1229.95 52.2436 1230.08 52.4408 1230.17 52.6264H1230.27V51.3636H1232.04V59.1243C1232.04 59.7772 1231.89 60.3175 1231.57 60.745C1231.26 61.1726 1230.84 61.4924 1230.3 61.7045C1229.76 61.9167 1229.14 62.0227 1228.46 62.0227ZM1228.47 57.4787C1228.85 57.4787 1229.18 57.3859 1229.45 57.2003C1229.71 57.0147 1229.92 56.7479 1230.06 56.3999C1230.2 56.0518 1230.27 55.6342 1230.27 55.147C1230.27 54.6664 1230.2 54.2455 1230.06 53.8842C1229.92 53.523 1229.72 53.2429 1229.45 53.044C1229.19 52.8419 1228.86 52.7408 1228.47 52.7408C1228.07 52.7408 1227.74 52.8452 1227.47 53.054C1227.2 53.2628 1227 53.5495 1226.86 53.9141C1226.72 54.2753 1226.66 54.6863 1226.66 55.147C1226.66 55.6143 1226.72 56.0237 1226.86 56.375C1227 56.723 1227.2 56.9948 1227.47 57.1903C1227.74 57.3826 1228.08 57.4787 1228.47 57.4787ZM1239.92 53.3821L1238.28 53.5611C1238.23 53.3954 1238.15 53.2396 1238.04 53.0938C1237.92 52.9479 1237.77 52.8303 1237.58 52.7408C1237.39 52.6513 1237.15 52.6065 1236.87 52.6065C1236.5 52.6065 1236.18 52.6877 1235.93 52.8501C1235.68 53.0125 1235.55 53.223 1235.56 53.4815C1235.55 53.7036 1235.63 53.8842 1235.8 54.0234C1235.97 54.1626 1236.25 54.277 1236.63 54.3665L1237.94 54.6449C1238.66 54.8007 1239.2 55.0476 1239.55 55.3857C1239.9 55.7237 1240.08 56.1662 1240.09 56.7131C1240.08 57.1937 1239.94 57.6179 1239.66 57.9858C1239.39 58.3504 1239 58.6354 1238.51 58.8409C1238.02 59.0464 1237.46 59.1491 1236.82 59.1491C1235.89 59.1491 1235.14 58.9536 1234.57 58.5625C1234 58.1681 1233.66 57.6196 1233.55 56.9169L1235.3 56.7479C1235.38 57.0926 1235.55 57.3527 1235.81 57.5284C1236.07 57.7041 1236.4 57.7919 1236.82 57.7919C1237.25 57.7919 1237.59 57.7041 1237.85 57.5284C1238.11 57.3527 1238.24 57.1357 1238.24 56.8771C1238.24 56.6584 1238.16 56.4777 1237.99 56.3352C1237.82 56.1927 1237.56 56.0833 1237.21 56.0071L1235.91 55.7337C1235.18 55.5812 1234.63 55.3243 1234.28 54.9631C1233.93 54.5985 1233.76 54.1378 1233.76 53.581C1233.76 53.1103 1233.89 52.7027 1234.14 52.358C1234.41 52.0099 1234.77 51.7415 1235.23 51.5526C1235.7 51.3603 1236.24 51.2642 1236.85 51.2642C1237.74 51.2642 1238.45 51.4548 1238.96 51.8359C1239.48 52.2171 1239.8 52.7325 1239.92 53.3821Z" fill="#111928"/>
<path d="M1153 34.5H1242V33.5H1153V34.5ZM1253.5 46V61H1254.5V46H1253.5ZM1242 72.5H1153V73.5H1242V72.5ZM1141.5 61V46H1140.5V61H1141.5ZM1153 72.5C1146.65 72.5 1141.5 67.3513 1141.5 61H1140.5C1140.5 67.9036 1146.1 73.5 1153 73.5V72.5ZM1253.5 61C1253.5 67.3513 1248.35 72.5 1242 72.5V73.5C1248.9 73.5 1254.5 67.9036 1254.5 61H1253.5ZM1242 34.5C1248.35 34.5 1253.5 39.6487 1253.5 46H1254.5C1254.5 39.0964 1248.9 33.5 1242 33.5V34.5ZM1153 33.5C1146.1 33.5 1140.5 39.0964 1140.5 46H1141.5C1141.5 39.6487 1146.65 34.5 1153 34.5V33.5Z" fill="#D1D5DB"/>
<path d="M1327 50L1320 57L1313 50" stroke="black" stroke-width="2" stroke-linecap="round" stroke-linejoin="round"/>
<path d="M16.7045 65.875V64.3636H25.7102V65.875H22.0795V76H20.3295V65.875H16.7045ZM31.9048 72.3807V67.2727H33.6094V76H31.9389V74.4886H31.848C31.6473 74.9545 31.3253 75.3428 30.8821 75.6534C30.4427 75.9602 29.8954 76.1136 29.2401 76.1136C28.6795 76.1136 28.1832 75.9905 27.7514 75.7443C27.3234 75.4943 26.9863 75.125 26.7401 74.6364C26.4976 74.1477 26.3764 73.5436 26.3764 72.8239V67.2727H28.0753V72.6193C28.0753 73.214 28.2401 73.6875 28.5696 74.0398C28.8991 74.392 29.3272 74.5682 29.8537 74.5682C30.1719 74.5682 30.4882 74.4886 30.8026 74.3295C31.1207 74.1705 31.384 73.9299 31.5923 73.608C31.8045 73.286 31.9086 72.8769 31.9048 72.3807ZM39.6534 76.1761C38.7936 76.1761 38.053 75.9924 37.4318 75.625C36.8144 75.2538 36.3371 74.733 36 74.0625C35.6667 73.3883 35.5 72.5985 35.5 71.6932C35.5 70.7992 35.6667 70.0114 36 69.3295C36.3371 68.6477 36.8068 68.1155 37.4091 67.733C38.0152 67.3504 38.7235 67.1591 39.5341 67.1591C40.0265 67.1591 40.5038 67.2405 40.9659 67.4034C41.428 67.5663 41.8428 67.822 42.2102 68.1705C42.5777 68.5189 42.8674 68.9716 43.0795 69.5284C43.2917 70.0814 43.3977 70.7538 43.3977 71.5455V72.1477H36.4602V70.875H41.733C41.733 70.428 41.642 70.0322 41.4602 69.6875C41.2784 69.339 41.0227 69.0644 40.6932 68.8636C40.3674 68.6629 39.9848 68.5625 39.5455 68.5625C39.0682 68.5625 38.6515 68.6799 38.2955 68.9148C37.9432 69.1458 37.6705 69.4489 37.4773 69.8239C37.2879 70.1951 37.1932 70.5985 37.1932 71.0341V72.0284C37.1932 72.6117 37.2955 73.108 37.5 73.517C37.7083 73.9261 37.9981 74.2386 38.3693 74.4545C38.7405 74.6667 39.1742 74.7727 39.6705 74.7727C39.9924 74.7727 40.286 74.7273 40.5511 74.6364C40.8163 74.5417 41.0455 74.4015 41.2386 74.2159C41.4318 74.0303 41.5795 73.8011 41.6818 73.5284L43.2898 73.8182C43.161 74.2917 42.9299 74.7064 42.5966 75.0625C42.267 75.4148 41.8523 75.6894 41.3523 75.8864C40.8561 76.0795 40.2898 76.1761 39.6534 76.1761ZM51.8224 69.4034L50.2827 69.6761C50.2183 69.4792 50.116 69.2917 49.9759 69.1136C49.8395 68.9356 49.6539 68.7898 49.419 68.6761C49.1842 68.5625 48.8906 68.5057 48.5384 68.5057C48.0573 68.5057 47.6558 68.6136 47.3338 68.8295C47.0118 69.0417 46.8509 69.3163 46.8509 69.6534C46.8509 69.9451 46.9588 70.1799 47.1747 70.358C47.3906 70.536 47.7391 70.6818 48.2202 70.7955L49.6065 71.1136C50.4096 71.2992 51.008 71.5852 51.402 71.9716C51.7959 72.358 51.9929 72.8598 51.9929 73.4773C51.9929 74 51.8414 74.4659 51.5384 74.875C51.2391 75.2803 50.8205 75.5985 50.2827 75.8295C49.7486 76.0606 49.1293 76.1761 48.4247 76.1761C47.4474 76.1761 46.6501 75.9678 46.0327 75.5511C45.4152 75.1307 45.0365 74.5341 44.8963 73.7614L46.5384 73.5114C46.6406 73.9394 46.8509 74.2633 47.169 74.483C47.4872 74.6989 47.902 74.8068 48.4134 74.8068C48.9702 74.8068 49.4152 74.6913 49.7486 74.4602C50.0819 74.2254 50.2486 73.9394 50.2486 73.6023C50.2486 73.3295 50.1463 73.1004 49.9418 72.9148C49.741 72.7292 49.4323 72.589 49.0156 72.4943L47.5384 72.1705C46.724 71.9848 46.1217 71.6894 45.7315 71.2841C45.3452 70.8788 45.152 70.3655 45.152 69.7443C45.152 69.2292 45.2959 68.7784 45.5838 68.392C45.8717 68.0057 46.2694 67.7045 46.777 67.4886C47.2846 67.2689 47.866 67.1591 48.5213 67.1591C49.4645 67.1591 50.2069 67.3636 50.7486 67.7727C51.2902 68.178 51.6482 68.7216 51.8224 69.4034ZM57.1278 76.1705C56.4233 76.1705 55.7945 75.9905 55.2415 75.6307C54.6922 75.267 54.2604 74.75 53.946 74.0795C53.6354 73.4053 53.4801 72.5966 53.4801 71.6534C53.4801 70.7102 53.6373 69.9034 53.9517 69.233C54.2699 68.5625 54.7055 68.0492 55.2585 67.6932C55.8116 67.3371 56.4384 67.1591 57.1392 67.1591C57.6809 67.1591 58.1165 67.25 58.446 67.4318C58.7794 67.6098 59.0369 67.8182 59.2188 68.0568C59.4044 68.2955 59.5483 68.5057 59.6506 68.6875H59.7528V64.3636H61.4517V76H59.7926V74.642H59.6506C59.5483 74.8277 59.4006 75.0398 59.2074 75.2784C59.018 75.517 58.7566 75.7254 58.4233 75.9034C58.09 76.0814 57.6581 76.1705 57.1278 76.1705ZM57.5028 74.7216C57.9915 74.7216 58.4044 74.5928 58.7415 74.3352C59.0824 74.0739 59.34 73.7121 59.5142 73.25C59.6922 72.7879 59.7812 72.25 59.7812 71.6364C59.7812 71.0303 59.6941 70.5 59.5199 70.0455C59.3456 69.5909 59.09 69.2367 58.7528 68.983C58.4157 68.7292 57.9991 68.6023 57.5028 68.6023C56.9915 68.6023 56.5653 68.7348 56.2244 69C55.8835 69.2652 55.6259 69.6269 55.4517 70.0852C55.2813 70.5436 55.196 71.0606 55.196 71.6364C55.196 72.2197 55.2831 72.7443 55.4574 73.2102C55.6316 73.6761 55.8892 74.0455 56.2301 74.3182C56.5748 74.5871 56.9991 74.7216 57.5028 74.7216ZM66.4162 76.1932C65.8632 76.1932 65.3632 76.0909 64.9162 75.8864C64.4692 75.678 64.1151 75.3769 63.8537 74.983C63.5961 74.589 63.4673 74.1061 63.4673 73.5341C63.4673 73.0417 63.562 72.6364 63.7514 72.3182C63.9408 72 64.1965 71.7481 64.5185 71.5625C64.8404 71.3769 65.2003 71.2367 65.598 71.142C65.9957 71.0473 66.401 70.9754 66.8139 70.9261C67.3366 70.8655 67.7609 70.8163 68.0866 70.7784C68.4124 70.7367 68.6491 70.6705 68.7969 70.5795C68.9446 70.4886 69.0185 70.3409 69.0185 70.1364V70.0966C69.0185 69.6004 68.8783 69.2159 68.598 68.9432C68.3215 68.6705 67.9086 68.5341 67.3594 68.5341C66.7874 68.5341 66.3366 68.661 66.0071 68.9148C65.6813 69.1648 65.456 69.4432 65.331 69.75L63.7344 69.3864C63.9238 68.8561 64.2003 68.428 64.5639 68.1023C64.9313 67.7727 65.3537 67.5341 65.831 67.3864C66.3082 67.2348 66.8101 67.1591 67.3366 67.1591C67.6851 67.1591 68.0545 67.2008 68.4446 67.2841C68.8385 67.3636 69.206 67.5114 69.5469 67.7273C69.8916 67.9432 70.1738 68.2519 70.3935 68.6534C70.6132 69.0511 70.723 69.5682 70.723 70.2045V76H69.0639V74.8068H68.9957C68.8859 75.0265 68.7211 75.2424 68.5014 75.4545C68.2817 75.6667 67.9995 75.8428 67.6548 75.983C67.3101 76.1231 66.8973 76.1932 66.4162 76.1932ZM66.7855 74.8295C67.2552 74.8295 67.6567 74.7367 67.9901 74.5511C68.3272 74.3655 68.5829 74.1231 68.7571 73.8239C68.9351 73.5208 69.0241 73.197 69.0241 72.8523V71.7273C68.9635 71.7879 68.8461 71.8447 68.6719 71.8977C68.5014 71.947 68.3063 71.9905 68.0866 72.0284C67.867 72.0625 67.6529 72.0947 67.4446 72.125C67.2363 72.1515 67.062 72.1742 66.9219 72.1932C66.5923 72.2348 66.2912 72.3049 66.0185 72.4034C65.7495 72.5019 65.5336 72.6439 65.3707 72.8295C65.2116 73.0114 65.1321 73.2538 65.1321 73.5568C65.1321 73.9773 65.2874 74.2955 65.598 74.5114C65.9086 74.7235 66.3045 74.8295 66.7855 74.8295ZM73.7472 79.2727C73.4934 79.2727 73.2623 79.2519 73.054 79.2102C72.8456 79.1723 72.6903 79.1307 72.5881 79.0852L72.9972 77.6932C73.3078 77.7765 73.5843 77.8125 73.8267 77.8011C74.0691 77.7898 74.2831 77.6989 74.4688 77.5284C74.6581 77.358 74.8248 77.0795 74.9688 76.6932L75.179 76.1136L71.9858 67.2727H73.804L76.0142 74.0455H76.1051L78.3153 67.2727H80.1392L76.5426 77.1648C76.3759 77.6193 76.1638 78.0038 75.9062 78.3182C75.6487 78.6364 75.3419 78.875 74.9858 79.0341C74.6297 79.1932 74.2169 79.2727 73.7472 79.2727Z" fill="#6B7280"/>
<path d="M22.9176 31.4545V46H20.7159V33.6562H20.6307L17.1506 35.929V33.8267L20.7798 31.4545H22.9176ZM31.6534 46.1989C30.7633 46.1989 29.9631 46.0284 29.2528 45.6875C28.5473 45.3419 27.9839 44.8684 27.5625 44.267C27.1411 43.6657 26.9162 42.9792 26.8878 42.2074H29.0185C29.0705 42.8324 29.3475 43.3461 29.8494 43.7486C30.3513 44.151 30.9527 44.3523 31.6534 44.3523C32.2121 44.3523 32.7069 44.2244 33.1378 43.9688C33.5734 43.7083 33.9143 43.3509 34.1605 42.8963C34.4115 42.4418 34.5369 41.9233 34.5369 41.3409C34.5369 40.7491 34.4091 40.2211 34.1534 39.7571C33.8977 39.2931 33.545 38.9285 33.0952 38.6634C32.6501 38.3982 32.1387 38.2633 31.5611 38.2585C31.1207 38.2585 30.678 38.3343 30.233 38.4858C29.7879 38.6373 29.428 38.8362 29.1534 39.0824L27.1435 38.7841L27.9602 31.4545H35.9574V33.3366H29.7855L29.3239 37.4062H29.4091C29.6932 37.1316 30.0696 36.902 30.5384 36.7173C31.0118 36.5327 31.5185 36.4403 32.0582 36.4403C32.9437 36.4403 33.732 36.651 34.4233 37.0724C35.1193 37.4938 35.6662 38.0691 36.0639 38.7983C36.4664 39.5227 36.6652 40.3561 36.6605 41.2983C36.6652 42.2405 36.4522 43.081 36.0213 43.8196C35.5952 44.5582 35.0033 45.1406 34.2457 45.5668C33.4929 45.9882 32.6288 46.1989 31.6534 46.1989ZM44.7464 31.4545H47.4098L52.0405 42.7614H52.2109L56.8416 31.4545H59.505V46H57.4169V35.4744H57.282L52.9922 45.9787H51.2592L46.9695 35.4673H46.8345V46H44.7464V31.4545ZM65.6999 46.2415C65.0086 46.2415 64.3836 46.1136 63.8249 45.858C63.2662 45.5975 62.8235 45.2211 62.4968 44.7287C62.1748 44.2363 62.0138 43.6326 62.0138 42.9176C62.0138 42.3021 62.1322 41.7955 62.369 41.3977C62.6057 41 62.9253 40.6851 63.3278 40.4531C63.7302 40.2211 64.18 40.0459 64.6772 39.9276C65.1744 39.8092 65.681 39.7192 66.1971 39.6577C66.8505 39.5819 67.3808 39.5204 67.788 39.473C68.1952 39.4209 68.4911 39.3381 68.6758 39.2244C68.8604 39.1108 68.9528 38.9261 68.9528 38.6705V38.6207C68.9528 38.0005 68.7776 37.5199 68.4272 37.179C68.0816 36.8381 67.5655 36.6676 66.8789 36.6676C66.1639 36.6676 65.6005 36.8262 65.1886 37.1435C64.7814 37.456 64.4996 37.804 64.3434 38.1875L62.3477 37.733C62.5844 37.0701 62.93 36.535 63.3846 36.1278C63.8439 35.7159 64.3718 35.4176 64.9684 35.233C65.565 35.0436 66.1924 34.9489 66.8505 34.9489C67.2861 34.9489 67.7478 35.0009 68.2354 35.1051C68.7279 35.2045 69.1871 35.3892 69.6133 35.6591C70.0442 35.929 70.3969 36.3149 70.6715 36.8168C70.9461 37.3139 71.0835 37.9602 71.0835 38.7557V46H69.0096V44.5085H68.9244C68.7871 44.7831 68.5811 45.053 68.3065 45.3182C68.0318 45.5833 67.6791 45.8035 67.2482 45.9787C66.8174 46.1539 66.3013 46.2415 65.6999 46.2415ZM66.1616 44.5369C66.7487 44.5369 67.2506 44.4209 67.6673 44.1889C68.0887 43.9569 68.4083 43.6539 68.6261 43.2798C68.8486 42.901 68.9599 42.4962 68.9599 42.0653V40.6591C68.8841 40.7348 68.7373 40.8059 68.5195 40.8722C68.3065 40.9337 68.0626 40.9882 67.788 41.0355C67.5134 41.0781 67.2459 41.1184 66.9854 41.1562C66.725 41.1894 66.5072 41.2178 66.332 41.2415C65.9201 41.2936 65.5437 41.3812 65.2028 41.5043C64.8666 41.6274 64.5967 41.8049 64.3931 42.0369C64.1942 42.2642 64.0948 42.5672 64.0948 42.946C64.0948 43.4716 64.2889 43.8693 64.6772 44.1392C65.0655 44.4044 65.5603 44.5369 66.1616 44.5369ZM73.9119 46V35.0909H75.9645V36.8239H76.0781C76.277 36.2367 76.6274 35.7751 77.1293 35.4389C77.6359 35.098 78.2088 34.9276 78.848 34.9276C78.9806 34.9276 79.1368 34.9323 79.3168 34.9418C79.5014 34.9512 79.6458 34.9631 79.75 34.9773V37.0085C79.6648 36.9848 79.5133 36.9588 79.2955 36.9304C79.0777 36.8973 78.8598 36.8807 78.642 36.8807C78.1402 36.8807 77.6927 36.9872 77.2997 37.2003C76.9115 37.4086 76.6037 37.6998 76.3764 38.0739C76.1491 38.4432 76.0355 38.8646 76.0355 39.3381V46H73.9119ZM85.7923 46.2202C84.7364 46.2202 83.8273 45.9811 83.065 45.5028C82.3074 45.0199 81.725 44.3546 81.3178 43.5071C80.9106 42.6596 80.707 41.6889 80.707 40.5952C80.707 39.4872 80.9154 38.5095 81.332 37.6619C81.7487 36.8097 82.3358 36.1444 83.0934 35.6662C83.851 35.188 84.7435 34.9489 85.771 34.9489C86.5996 34.9489 87.3382 35.1027 87.9869 35.4105C88.6355 35.7135 89.1587 36.1397 89.5565 36.6889C89.9589 37.2382 90.198 37.8797 90.2738 38.6136H88.207C88.0934 38.1023 87.833 37.6619 87.4258 37.2926C87.0233 36.9233 86.4835 36.7386 85.8065 36.7386C85.2146 36.7386 84.6961 36.8949 84.2511 37.2074C83.8107 37.5152 83.4674 37.9555 83.2212 38.5284C82.975 39.0966 82.8519 39.7689 82.8519 40.5455C82.8519 41.3409 82.9727 42.0275 83.2141 42.6051C83.4556 43.1828 83.7965 43.6302 84.2369 43.9474C84.6819 44.2647 85.2051 44.4233 85.8065 44.4233C86.2089 44.4233 86.5735 44.3499 86.9002 44.2031C87.2317 44.0516 87.5086 43.8362 87.7312 43.5568C87.9585 43.2775 88.1171 42.9413 88.207 42.5483H90.2738C90.198 43.2538 89.9684 43.8835 89.5849 44.4375C89.2013 44.9915 88.6876 45.4271 88.0437 45.7443C87.4045 46.0616 86.654 46.2202 85.7923 46.2202ZM94.6683 39.5227V46H92.5447V31.4545H94.6399V36.8665H94.7749C95.0305 36.2794 95.4212 35.813 95.9467 35.4673C96.4723 35.1217 97.1589 34.9489 98.0064 34.9489C98.7545 34.9489 99.4079 35.1027 99.9666 35.4105C100.53 35.7183 100.966 36.1776 101.273 36.7884C101.586 37.3944 101.742 38.152 101.742 39.0611V46H99.6186V39.3168C99.6186 38.5166 99.4126 37.8963 99.0007 37.456C98.5888 37.0109 98.0159 36.7884 97.282 36.7884C96.7801 36.7884 96.3303 36.8949 95.9325 37.108C95.5395 37.321 95.2294 37.6335 95.0021 38.0455C94.7796 38.4527 94.6683 38.9451 94.6683 39.5227ZM109.841 46V44.4091L114.762 39.3097C115.288 38.7557 115.721 38.2704 116.062 37.8537C116.408 37.4323 116.666 37.0322 116.836 36.6534C117.007 36.2746 117.092 35.8722 117.092 35.446C117.092 34.9631 116.978 34.5464 116.751 34.196C116.524 33.8409 116.214 33.5687 115.821 33.3793C115.428 33.1851 114.985 33.0881 114.493 33.0881C113.972 33.0881 113.517 33.1946 113.129 33.4077C112.741 33.6207 112.442 33.9214 112.234 34.3097C112.026 34.6979 111.922 35.1525 111.922 35.6733H109.826C109.826 34.7879 110.03 34.0137 110.437 33.3509C110.844 32.688 111.403 32.1742 112.113 31.8097C112.824 31.4403 113.631 31.2557 114.535 31.2557C115.449 31.2557 116.254 31.438 116.95 31.8026C117.651 32.1624 118.198 32.6548 118.591 33.2798C118.984 33.9001 119.18 34.6009 119.18 35.3821C119.18 35.9219 119.078 36.4498 118.875 36.9659C118.676 37.482 118.328 38.0573 117.831 38.6918C117.333 39.3215 116.642 40.0862 115.757 40.9858L112.866 44.0114V44.1179H119.414V46H109.841ZM127.17 46.2415C126.048 46.2367 125.089 45.9408 124.294 45.3537C123.498 44.7666 122.89 43.9119 122.468 42.7898C122.047 41.6676 121.836 40.3158 121.836 38.7344C121.836 37.1577 122.047 35.8106 122.468 34.6932C122.895 33.5758 123.505 32.7235 124.301 32.1364C125.101 31.5492 126.057 31.2557 127.17 31.2557C128.283 31.2557 129.237 31.5516 130.032 32.1435C130.828 32.7306 131.436 33.5829 131.858 34.7003C132.284 35.813 132.497 37.1577 132.497 38.7344C132.497 40.3205 132.286 41.6747 131.865 42.7969C131.443 43.9143 130.835 44.7689 130.039 45.3608C129.244 45.9479 128.288 46.2415 127.17 46.2415ZM127.17 44.3452C128.155 44.3452 128.924 43.8646 129.478 42.9034C130.037 41.9422 130.316 40.5526 130.316 38.7344C130.316 37.527 130.189 36.5066 129.933 35.6733C129.682 34.8352 129.32 34.2008 128.846 33.7699C128.377 33.3343 127.819 33.1165 127.17 33.1165C126.19 33.1165 125.421 33.5994 124.862 34.5653C124.303 35.5312 124.021 36.9209 124.017 38.7344C124.017 39.9465 124.142 40.9716 124.393 41.8097C124.649 42.643 125.011 43.2751 125.48 43.706C125.949 44.1321 126.512 44.3452 127.17 44.3452ZM135.016 46V44.4091L139.938 39.3097C140.464 38.7557 140.897 38.2704 141.238 37.8537C141.584 37.4323 141.842 37.0322 142.012 36.6534C142.183 36.2746 142.268 35.8722 142.268 35.446C142.268 34.9631 142.154 34.5464 141.927 34.196C141.7 33.8409 141.389 33.5687 140.996 33.3793C140.603 33.1851 140.161 33.0881 139.668 33.0881C139.147 33.0881 138.693 33.1946 138.305 33.4077C137.916 33.6207 137.618 33.9214 137.41 34.3097C137.201 34.6979 137.097 35.1525 137.097 35.6733H135.002C135.002 34.7879 135.206 34.0137 135.613 33.3509C136.02 32.688 136.579 32.1742 137.289 31.8097C137.999 31.4403 138.807 31.2557 139.711 31.2557C140.625 31.2557 141.43 31.438 142.126 31.8026C142.826 32.1624 143.373 32.6548 143.766 33.2798C144.159 33.9001 144.356 34.6009 144.356 35.3821C144.356 35.9219 144.254 36.4498 144.05 36.9659C143.852 37.482 143.504 38.0573 143.006 38.6918C142.509 39.3215 141.818 40.0862 140.933 40.9858L138.042 44.0114V44.1179H144.59V46H135.016ZM147.282 46V44.4091L152.204 39.3097C152.729 38.7557 153.163 38.2704 153.504 37.8537C153.849 37.4323 154.107 37.0322 154.278 36.6534C154.448 36.2746 154.533 35.8722 154.533 35.446C154.533 34.9631 154.42 34.5464 154.192 34.196C153.965 33.8409 153.655 33.5687 153.262 33.3793C152.869 33.1851 152.426 33.0881 151.934 33.0881C151.413 33.0881 150.959 33.1946 150.57 33.4077C150.182 33.6207 149.884 33.9214 149.675 34.3097C149.467 34.6979 149.363 35.1525 149.363 35.6733H147.268C147.268 34.7879 147.471 34.0137 147.879 33.3509C148.286 32.688 148.844 32.1742 149.555 31.8097C150.265 31.4403 151.072 31.2557 151.977 31.2557C152.89 31.2557 153.695 31.438 154.391 31.8026C155.092 32.1624 155.639 32.6548 156.032 33.2798C156.425 33.9001 156.621 34.6009 156.621 35.3821C156.621 35.9219 156.52 36.4498 156.316 36.9659C156.117 37.482 155.769 38.0573 155.272 38.6918C154.775 39.3215 154.084 40.0862 153.198 40.9858L150.308 44.0114V44.1179H156.856V46H147.282Z" fill="#111928"/>
<mask id="path-9-inside-1_220_19486" fill="white">
<path d="M630 16.5C630 16.2239 630.224 16 630.5 16C630.776 16 631 16.2239 631 16.5V89.5C631 89.7761 630.776 90 630.5 90C630.224 90 630 89.7761 630 89.5V16.5Z"/>
</mask>
<path d="M630 16.5C630 16.2239 630.224 16 630.5 16C630.776 16 631 16.2239 631 16.5V89.5C631 89.7761 630.776 90 630.5 90C630.224 90 630 89.7761 630 89.5V16.5Z" fill="white"/>
<path d="M630 16.5V89.5H632V16.5H630ZM631 89.5V16.5H629V89.5H631ZM630.5 89C630.776 89 631 89.2239 631 89.5H629C629 90.3284 629.672 91 630.5 91V89ZM630 89.5C630 89.2239 630.224 89 630.5 89V91C631.328 91 632 90.3284 632 89.5H630ZM630.5 17C630.224 17 630 16.7761 630 16.5H632C632 15.6716 631.328 15 630.5 15V17ZM630.5 15C629.672 15 629 15.6716 629 16.5H631C631 16.7761 630.776 17 630.5 17V15Z" fill="#E5E7EB" mask="url(#path-9-inside-1_220_19486)"/>
<path d="M410.181 47.1591C409.424 47.1591 408.746 47.017 408.147 46.733C407.549 46.4451 407.073 46.0511 406.721 45.5511C406.372 45.0511 406.187 44.4792 406.164 43.8352H408.21C408.247 44.3125 408.454 44.7027 408.829 45.0057C409.204 45.3049 409.655 45.4545 410.181 45.4545C410.594 45.4545 410.961 45.3598 411.283 45.1705C411.605 44.9811 411.859 44.7178 412.045 44.3807C412.23 44.0436 412.321 43.6591 412.317 43.2273C412.321 42.7879 412.228 42.3977 412.039 42.0568C411.85 41.7159 411.59 41.4489 411.261 41.2557C410.931 41.0587 410.552 40.9602 410.124 40.9602C409.776 40.9564 409.433 41.0208 409.096 41.1534C408.759 41.286 408.492 41.4602 408.295 41.6761L406.391 41.3636L406.999 35.3636H413.749V37.125H408.744L408.408 40.2102H408.477C408.692 39.9564 408.997 39.7462 409.391 39.5795C409.785 39.4091 410.217 39.3239 410.687 39.3239C411.391 39.3239 412.02 39.4905 412.573 39.8239C413.126 40.1534 413.562 40.608 413.88 41.1875C414.198 41.767 414.357 42.4299 414.357 43.1761C414.357 43.9451 414.179 44.6307 413.823 45.233C413.471 45.8314 412.98 46.303 412.352 46.6477C411.727 46.9886 411.003 47.1591 410.181 47.1591ZM420.562 47.2216C419.626 47.2216 418.823 46.9848 418.153 46.5114C417.486 46.0341 416.973 45.3466 416.613 44.4489C416.257 43.5473 416.079 42.4621 416.079 41.1932C416.083 39.9242 416.263 38.8447 416.619 37.9545C416.978 37.0606 417.492 36.3788 418.158 35.9091C418.829 35.4394 419.63 35.2045 420.562 35.2045C421.494 35.2045 422.295 35.4394 422.965 35.9091C423.636 36.3788 424.149 37.0606 424.505 37.9545C424.865 38.8485 425.045 39.928 425.045 41.1932C425.045 42.4659 424.865 43.553 424.505 44.4545C424.149 45.3523 423.636 46.0379 422.965 46.5114C422.299 46.9848 421.497 47.2216 420.562 47.2216ZM420.562 45.4432C421.289 45.4432 421.863 45.0852 422.283 44.3693C422.708 43.6496 422.92 42.5909 422.92 41.1932C422.92 40.2689 422.823 39.4924 422.63 38.8636C422.437 38.2348 422.164 37.7614 421.812 37.4432C421.46 37.1212 421.043 36.9602 420.562 36.9602C419.838 36.9602 419.266 37.3201 418.846 38.0398C418.425 38.7557 418.213 39.8068 418.21 41.1932C418.206 42.1212 418.299 42.9015 418.488 43.5341C418.681 44.1667 418.954 44.6439 419.306 44.9659C419.658 45.2841 420.077 45.4432 420.562 45.4432Z" fill="#6B7280"/>
<path d="M398.121 76.2727H400.055L402.646 82.5966H402.748L405.339 76.2727H407.274V85H405.757V79.0043H405.676L403.264 84.9744H402.131L399.719 78.9915H399.638V85H398.121V76.2727ZM410.811 85.1321C410.396 85.1321 410.023 85.0582 409.69 84.9105C409.361 84.7599 409.099 84.5384 408.906 84.2457C408.716 83.9531 408.621 83.5923 408.621 83.1634C408.621 82.794 408.689 82.4886 408.825 82.2472C408.961 82.0057 409.148 81.8125 409.383 81.6676C409.619 81.5227 409.885 81.4134 410.18 81.3395C410.479 81.2628 410.787 81.2074 411.105 81.1733C411.488 81.1335 411.8 81.098 412.038 81.0668C412.277 81.0327 412.45 80.9815 412.558 80.9134C412.669 80.8423 412.724 80.733 412.724 80.5852V80.5597C412.724 80.2386 412.629 79.9901 412.439 79.8139C412.248 79.6378 411.974 79.5497 411.616 79.5497C411.238 79.5497 410.939 79.6321 410.717 79.7969C410.498 79.9616 410.351 80.1562 410.274 80.3807L408.834 80.1761C408.947 79.7784 409.135 79.446 409.396 79.179C409.657 78.9091 409.977 78.7074 410.355 78.5739C410.733 78.4375 411.15 78.3693 411.608 78.3693C411.923 78.3693 412.237 78.4062 412.55 78.4801C412.862 78.554 413.148 78.6761 413.406 78.8466C413.665 79.0142 413.872 79.2429 414.028 79.5327C414.187 79.8224 414.267 80.1847 414.267 80.6193V85H412.784V84.1009H412.733C412.639 84.2827 412.507 84.4531 412.336 84.6122C412.169 84.7685 411.957 84.8949 411.702 84.9915C411.449 85.0852 411.152 85.1321 410.811 85.1321ZM411.211 83.9986C411.521 83.9986 411.79 83.9375 412.017 83.8153C412.244 83.6903 412.419 83.5256 412.541 83.321C412.666 83.1165 412.729 82.8935 412.729 82.652V81.8807C412.68 81.9205 412.598 81.9574 412.481 81.9915C412.368 82.0256 412.24 82.0554 412.098 82.081C411.956 82.1065 411.815 82.1293 411.676 82.1491C411.537 82.169 411.416 82.1861 411.314 82.2003C411.084 82.2315 410.878 82.2827 410.696 82.3537C410.514 82.4247 410.371 82.5241 410.265 82.652C410.16 82.777 410.108 82.9389 410.108 83.1378C410.108 83.4219 410.211 83.6364 410.419 83.7812C410.626 83.9261 410.89 83.9986 411.211 83.9986ZM418.673 85.1278C418.02 85.1278 417.459 84.9844 416.99 84.6974C416.524 84.4105 416.165 84.0142 415.912 83.5085C415.662 83 415.537 82.4148 415.537 81.7528C415.537 81.0881 415.665 80.5014 415.92 79.9929C416.176 79.4815 416.537 79.0838 417.003 78.7997C417.471 78.5128 418.025 78.3693 418.665 78.3693C419.196 78.3693 419.666 78.4673 420.075 78.6634C420.487 78.8565 420.815 79.1307 421.059 79.4858C421.304 79.8381 421.443 80.25 421.477 80.7216H420.003C419.943 80.4062 419.801 80.1435 419.577 79.9332C419.355 79.7202 419.058 79.6136 418.686 79.6136C418.371 79.6136 418.094 79.6989 417.855 79.8693C417.616 80.0369 417.43 80.2784 417.297 80.5938C417.166 80.9091 417.101 81.2869 417.101 81.7273C417.101 82.1733 417.166 82.5568 417.297 82.8778C417.427 83.196 417.611 83.4418 417.846 83.6151C418.085 83.7855 418.365 83.8707 418.686 83.8707C418.913 83.8707 419.116 83.8281 419.295 83.7429C419.477 83.6548 419.629 83.5284 419.751 83.3636C419.873 83.1989 419.957 82.9986 420.003 82.7628H421.477C421.44 83.2259 421.304 83.6364 421.068 83.9943C420.832 84.3494 420.511 84.6278 420.105 84.8295C419.699 85.0284 419.221 85.1278 418.673 85.1278ZM422.744 85V78.4545H424.24V79.5455H424.308C424.427 79.1676 424.632 78.8764 424.921 78.6719C425.214 78.4645 425.548 78.3608 425.923 78.3608C426.008 78.3608 426.103 78.3651 426.208 78.3736C426.316 78.3793 426.406 78.3892 426.477 78.4034V79.8224C426.411 79.7997 426.308 79.7798 426.166 79.7628C426.026 79.7429 425.892 79.733 425.761 79.733C425.48 79.733 425.227 79.794 425.002 79.9162C424.781 80.0355 424.606 80.2017 424.478 80.4148C424.35 80.6278 424.286 80.8736 424.286 81.152V85H422.744ZM430.087 85.1278C429.448 85.1278 428.894 84.9872 428.425 84.706C427.956 84.4247 427.593 84.0312 427.334 83.5256C427.079 83.0199 426.951 82.429 426.951 81.7528C426.951 81.0767 427.079 80.4844 427.334 79.9759C427.593 79.4673 427.956 79.0724 428.425 78.7912C428.894 78.5099 429.448 78.3693 430.087 78.3693C430.726 78.3693 431.28 78.5099 431.749 78.7912C432.218 79.0724 432.58 79.4673 432.836 79.9759C433.094 80.4844 433.224 81.0767 433.224 81.7528C433.224 82.429 433.094 83.0199 432.836 83.5256C432.58 84.0312 432.218 84.4247 431.749 84.706C431.28 84.9872 430.726 85.1278 430.087 85.1278ZM430.096 83.892C430.442 83.892 430.732 83.7969 430.965 83.6065C431.198 83.4134 431.371 83.1548 431.485 82.831C431.601 82.5071 431.66 82.1463 431.66 81.7486C431.66 81.348 431.601 80.9858 431.485 80.6619C431.371 80.3352 431.198 80.0753 430.965 79.8821C430.732 79.6889 430.442 79.5923 430.096 79.5923C429.741 79.5923 429.445 79.6889 429.209 79.8821C428.976 80.0753 428.802 80.3352 428.685 80.6619C428.572 80.9858 428.515 81.348 428.515 81.7486C428.515 82.1463 428.572 82.5071 428.685 82.831C428.802 83.1548 428.976 83.4134 429.209 83.6065C429.445 83.7969 429.741 83.892 430.096 83.892Z" fill="#6B7280"/>
<path d="M440 41C440 54.8071 428.807 66 415 66C401.193 66 390 54.8071 390 41C390 27.1929 401.193 16 415 16C428.807 16 440 27.1929 440 41ZM393.75 41C393.75 52.736 403.264 62.25 415 62.25C426.736 62.25 436.25 52.736 436.25 41C436.25 29.2639 426.736 19.75 415 19.75C403.264 19.75 393.75 29.2639 393.75 41Z" fill="#E5E7EB"/>
<path d="M415 17.875C415 16.8395 415.841 15.9927 416.873 16.0703C419.515 16.2688 422.112 16.8862 424.567 17.903C427.6 19.1594 430.356 21.0009 432.678 23.3223C434.999 25.6438 436.841 28.3998 438.097 31.4329C439.353 34.4661 440 37.717 440 41C440 44.2831 439.353 47.534 438.097 50.5671C436.841 53.6002 434.999 56.3562 432.678 58.6777C430.356 60.9991 427.6 62.8406 424.567 64.097C422.112 65.1138 419.515 65.7312 416.873 65.9297C415.841 66.0073 415 65.1605 415 64.125C415 63.0895 415.841 62.2586 416.873 62.1673C419.021 61.9772 421.132 61.4607 423.132 60.6325C425.71 59.5645 428.053 57.9993 430.026 56.026C431.999 54.0528 433.565 51.7102 434.632 49.132C435.7 46.5539 436.25 43.7906 436.25 41C436.25 38.2094 435.7 35.4462 434.632 32.868C433.565 30.2898 431.999 27.9472 430.026 25.974C428.053 24.0007 425.71 22.4355 423.132 21.3676C421.132 20.5393 419.021 20.0228 416.873 19.8327C415.841 19.7414 415 18.9105 415 17.875Z" fill="#FACA15"/>
<path d="M490.311 47.1591C489.466 47.1591 488.716 47.017 488.061 46.733C487.41 46.4489 486.898 46.0606 486.527 45.5682C486.16 45.072 485.978 44.5095 485.982 43.8807C485.978 43.392 486.084 42.9432 486.3 42.5341C486.516 42.125 486.807 41.7841 487.175 41.5114C487.546 41.2348 487.959 41.0587 488.413 40.983V40.9034C487.815 40.7708 487.33 40.4659 486.959 39.9886C486.591 39.5076 486.41 38.9527 486.413 38.3239C486.41 37.7254 486.576 37.1913 486.913 36.7216C487.25 36.2519 487.713 35.8826 488.3 35.6136C488.887 35.3409 489.557 35.2045 490.311 35.2045C491.057 35.2045 491.722 35.3409 492.305 35.6136C492.893 35.8826 493.355 36.2519 493.692 36.7216C494.033 37.1913 494.203 37.7254 494.203 38.3239C494.203 38.9527 494.016 39.5076 493.641 39.9886C493.269 40.4659 492.79 40.7708 492.203 40.9034V40.983C492.658 41.0587 493.067 41.2348 493.43 41.5114C493.798 41.7841 494.089 42.125 494.305 42.5341C494.525 42.9432 494.635 43.392 494.635 43.8807C494.635 44.5095 494.449 45.072 494.078 45.5682C493.707 46.0606 493.196 46.4489 492.544 46.733C491.896 47.017 491.152 47.1591 490.311 47.1591ZM490.311 45.5341C490.747 45.5341 491.125 45.4602 491.447 45.3125C491.769 45.161 492.019 44.9489 492.197 44.6761C492.375 44.4034 492.466 44.089 492.47 43.733C492.466 43.3617 492.37 43.0341 492.18 42.75C491.995 42.4621 491.739 42.2367 491.413 42.0739C491.091 41.911 490.724 41.8295 490.311 41.8295C489.894 41.8295 489.523 41.911 489.197 42.0739C488.872 42.2367 488.614 42.4621 488.425 42.75C488.239 43.0341 488.148 43.3617 488.152 43.733C488.148 44.089 488.235 44.4034 488.413 44.6761C488.591 44.9451 488.841 45.1553 489.163 45.3068C489.489 45.4583 489.872 45.5341 490.311 45.5341ZM490.311 40.233C490.667 40.233 490.982 40.161 491.254 40.017C491.531 39.8731 491.749 39.6723 491.908 39.4148C492.067 39.1572 492.148 38.8598 492.152 38.5227C492.148 38.1894 492.069 37.8977 491.913 37.6477C491.758 37.3939 491.542 37.1989 491.266 37.0625C490.989 36.9223 490.671 36.8523 490.311 36.8523C489.944 36.8523 489.62 36.9223 489.339 37.0625C489.063 37.1989 488.847 37.3939 488.692 37.6477C488.54 37.8977 488.466 38.1894 488.47 38.5227C488.466 38.8598 488.542 39.1572 488.697 39.4148C488.857 39.6686 489.074 39.8693 489.351 40.017C489.631 40.161 489.951 40.233 490.311 40.233ZM496.929 47L501.878 37.2045V37.125H496.134V35.3636H504.06V37.1648L499.116 47H496.929Z" fill="#6B7280"/>
<path d="M480.001 76.2727H481.936L484.527 82.5966H484.629L487.22 76.2727H489.155V85H487.638V79.0043H487.557L485.145 84.9744H484.011L481.599 78.9915H481.518V85H480.001V76.2727ZM490.808 85V78.4545H492.351V85H490.808ZM491.584 77.5256C491.339 77.5256 491.129 77.4446 490.953 77.2827C490.777 77.1179 490.689 76.9205 490.689 76.6903C490.689 76.4574 490.777 76.2599 490.953 76.098C491.129 75.9332 491.339 75.8509 491.584 75.8509C491.831 75.8509 492.041 75.9332 492.214 76.098C492.391 76.2599 492.479 76.4574 492.479 76.6903C492.479 76.9205 492.391 77.1179 492.214 77.2827C492.041 77.4446 491.831 77.5256 491.584 77.5256ZM496.792 85.1278C496.139 85.1278 495.578 84.9844 495.109 84.6974C494.643 84.4105 494.284 84.0142 494.031 83.5085C493.781 83 493.656 82.4148 493.656 81.7528C493.656 81.0881 493.784 80.5014 494.039 79.9929C494.295 79.4815 494.656 79.0838 495.122 78.7997C495.591 78.5128 496.145 78.3693 496.784 78.3693C497.315 78.3693 497.785 78.4673 498.194 78.6634C498.606 78.8565 498.934 79.1307 499.179 79.4858C499.423 79.8381 499.562 80.25 499.596 80.7216H498.122C498.062 80.4062 497.92 80.1435 497.696 79.9332C497.474 79.7202 497.177 79.6136 496.805 79.6136C496.49 79.6136 496.213 79.6989 495.974 79.8693C495.735 80.0369 495.549 80.2784 495.416 80.5938C495.285 80.9091 495.22 81.2869 495.22 81.7273C495.22 82.1733 495.285 82.5568 495.416 82.8778C495.547 83.196 495.73 83.4418 495.966 83.6151C496.204 83.7855 496.484 83.8707 496.805 83.8707C497.032 83.8707 497.235 83.8281 497.414 83.7429C497.596 83.6548 497.748 83.5284 497.87 83.3636C497.993 83.1989 498.076 82.9986 498.122 82.7628H499.596C499.559 83.2259 499.423 83.6364 499.187 83.9943C498.951 84.3494 498.63 84.6278 498.224 84.8295C497.818 85.0284 497.341 85.1278 496.792 85.1278ZM500.863 85V78.4545H502.359V79.5455H502.427C502.546 79.1676 502.751 78.8764 503.04 78.6719C503.333 78.4645 503.667 78.3608 504.042 78.3608C504.127 78.3608 504.222 78.3651 504.327 78.3736C504.435 78.3793 504.525 78.3892 504.596 78.4034V79.8224C504.531 79.7997 504.427 79.7798 504.285 79.7628C504.146 79.7429 504.011 79.733 503.88 79.733C503.599 79.733 503.346 79.794 503.121 79.9162C502.9 80.0355 502.725 80.2017 502.597 80.4148C502.469 80.6278 502.406 80.8736 502.406 81.152V85H500.863ZM508.206 85.1278C507.567 85.1278 507.013 84.9872 506.544 84.706C506.076 84.4247 505.712 84.0312 505.453 83.5256C505.198 83.0199 505.07 82.429 505.07 81.7528C505.07 81.0767 505.198 80.4844 505.453 79.9759C505.712 79.4673 506.076 79.0724 506.544 78.7912C507.013 78.5099 507.567 78.3693 508.206 78.3693C508.846 78.3693 509.4 78.5099 509.868 78.7912C510.337 79.0724 510.699 79.4673 510.955 79.9759C511.213 80.4844 511.343 81.0767 511.343 81.7528C511.343 82.429 511.213 83.0199 510.955 83.5256C510.699 84.0312 510.337 84.4247 509.868 84.706C509.4 84.9872 508.846 85.1278 508.206 85.1278ZM508.215 83.892C508.561 83.892 508.851 83.7969 509.084 83.6065C509.317 83.4134 509.49 83.1548 509.604 82.831C509.721 82.5071 509.779 82.1463 509.779 81.7486C509.779 81.348 509.721 80.9858 509.604 80.6619C509.49 80.3352 509.317 80.0753 509.084 79.8821C508.851 79.6889 508.561 79.5923 508.215 79.5923C507.86 79.5923 507.564 79.6889 507.328 79.8821C507.096 80.0753 506.921 80.3352 506.804 80.6619C506.691 80.9858 506.634 81.348 506.634 81.7486C506.634 82.1463 506.691 82.5071 506.804 82.831C506.921 83.1548 507.096 83.4134 507.328 83.6065C507.564 83.7969 507.86 83.892 508.215 83.892Z" fill="#6B7280"/>
<path d="M520 41C520 54.8071 508.807 66 495 66C481.193 66 470 54.8071 470 41C470 27.1929 481.193 16 495 16C508.807 16 520 27.1929 520 41ZM473.75 41C473.75 52.736 483.264 62.25 495 62.25C506.736 62.25 516.25 52.736 516.25 41C516.25 29.2639 506.736 19.75 495 19.75C483.264 19.75 473.75 29.2639 473.75 41Z" fill="#E5E7EB"/>
<path d="M495 17.875C495 16.8395 495.841 15.9927 496.873 16.0703C501.952 16.4518 506.811 18.378 510.784 21.6126C515.243 25.243 518.315 30.2996 519.481 35.9303C520.647 41.561 519.836 47.4216 517.185 52.5244C514.535 57.6271 510.206 61.6602 504.929 63.9439C499.651 66.2275 493.748 66.6222 488.214 65.0614C482.68 63.5005 477.853 60.0796 474.546 55.3751C471.24 50.6706 469.656 44.9701 470.062 39.2343C470.424 34.1239 472.346 29.2638 475.545 25.3C476.195 24.4942 477.388 24.461 478.143 25.1698C478.897 25.8787 478.927 27.0606 478.288 27.875C475.674 31.2033 474.104 35.2494 473.803 39.4992C473.458 44.3746 474.804 49.22 477.614 53.2189C480.425 57.2177 484.528 60.1255 489.232 61.4522C493.936 62.7789 498.954 62.4434 503.439 60.5023C507.925 58.5612 511.604 55.1331 513.858 50.7957C516.111 46.4583 516.8 41.4769 515.808 36.6908C514.817 31.9047 512.207 27.6065 508.416 24.5207C505.112 21.8309 501.088 20.2055 496.873 19.8326C495.841 19.7414 495 18.9105 495 17.875Z" fill="#31C48D"/>
<path d="M569.55 35.2045C570.107 35.2083 570.649 35.3068 571.175 35.5C571.706 35.6894 572.183 36 572.607 36.4318C573.031 36.8598 573.369 37.4337 573.619 38.1534C573.869 38.8731 573.994 39.7633 573.994 40.8239C573.997 41.8239 573.891 42.7178 573.675 43.5057C573.463 44.2898 573.158 44.9527 572.761 45.4943C572.363 46.036 571.884 46.4489 571.323 46.733C570.763 47.017 570.132 47.1591 569.431 47.1591C568.696 47.1591 568.045 47.0152 567.477 46.7273C566.912 46.4394 566.456 46.0455 566.107 45.5455C565.759 45.0455 565.545 44.4735 565.465 43.8295H567.539C567.645 44.2917 567.861 44.6591 568.187 44.9318C568.516 45.2008 568.931 45.3352 569.431 45.3352C570.238 45.3352 570.859 44.9848 571.295 44.2841C571.73 43.5833 571.948 42.6098 571.948 41.3636H571.869C571.683 41.697 571.442 41.9848 571.147 42.2273C570.852 42.4659 570.516 42.6496 570.141 42.7784C569.77 42.9072 569.376 42.9716 568.96 42.9716C568.278 42.9716 567.664 42.8087 567.119 42.483C566.577 42.1572 566.147 41.7102 565.829 41.142C565.514 40.5739 565.355 39.9242 565.352 39.1932C565.352 38.4356 565.526 37.7557 565.874 37.1534C566.227 36.5473 566.717 36.0701 567.346 35.7216C567.975 35.3693 568.71 35.197 569.55 35.2045ZM569.556 36.9091C569.147 36.9091 568.778 37.0095 568.448 37.2102C568.122 37.4072 567.865 37.6761 567.675 38.017C567.49 38.3542 567.397 38.7311 567.397 39.1477C567.401 39.5606 567.494 39.9356 567.675 40.2727C567.861 40.6098 568.113 40.8769 568.431 41.0739C568.753 41.2708 569.121 41.3693 569.533 41.3693C569.84 41.3693 570.126 41.3106 570.391 41.1932C570.656 41.0758 570.888 40.9129 571.085 40.7045C571.285 40.4924 571.441 40.2519 571.55 39.983C571.664 39.714 571.719 39.4299 571.715 39.1307C571.715 38.733 571.621 38.3655 571.431 38.0284C571.246 37.6913 570.99 37.4205 570.664 37.2159C570.342 37.0114 569.973 36.9091 569.556 36.9091ZM580.187 47.2216C579.251 47.2216 578.448 46.9848 577.778 46.5114C577.111 46.0341 576.598 45.3466 576.238 44.4489C575.882 43.5473 575.704 42.4621 575.704 41.1932C575.708 39.9242 575.888 38.8447 576.244 37.9545C576.603 37.0606 577.117 36.3788 577.783 35.9091C578.454 35.4394 579.255 35.2045 580.187 35.2045C581.119 35.2045 581.92 35.4394 582.59 35.9091C583.261 36.3788 583.774 37.0606 584.13 37.9545C584.49 38.8485 584.67 39.928 584.67 41.1932C584.67 42.4659 584.49 43.553 584.13 44.4545C583.774 45.3523 583.261 46.0379 582.59 46.5114C581.924 46.9848 581.122 47.2216 580.187 47.2216ZM580.187 45.4432C580.914 45.4432 581.488 45.0852 581.908 44.3693C582.333 43.6496 582.545 42.5909 582.545 41.1932C582.545 40.2689 582.448 39.4924 582.255 38.8636C582.062 38.2348 581.789 37.7614 581.437 37.4432C581.085 37.1212 580.668 36.9602 580.187 36.9602C579.463 36.9602 578.891 37.3201 578.471 38.0398C578.05 38.7557 577.838 39.8068 577.835 41.1932C577.831 42.1212 577.924 42.9015 578.113 43.5341C578.306 44.1667 578.579 44.6439 578.931 44.9659C579.283 45.2841 579.702 45.4432 580.187 45.4432Z" fill="#6B7280"/>
<path d="M560.978 85V76.2727H564.319C564.95 76.2727 565.474 76.3722 565.891 76.571C566.312 76.767 566.626 77.0355 566.833 77.3764C567.043 77.7173 567.148 78.1037 567.148 78.5355C567.148 78.8906 567.08 79.1946 566.944 79.4474C566.808 79.6974 566.624 79.9006 566.394 80.0568C566.164 80.2131 565.907 80.3253 565.623 80.3935V80.4787C565.933 80.4957 566.229 80.5909 566.513 80.7642C566.8 80.9347 567.035 81.1761 567.217 81.4886C567.398 81.8011 567.489 82.179 567.489 82.6222C567.489 83.0739 567.38 83.4801 567.161 83.8409C566.942 84.1989 566.613 84.4815 566.173 84.6889C565.732 84.8963 565.178 85 564.511 85H560.978ZM562.559 83.679H564.259C564.833 83.679 565.246 83.5696 565.499 83.3509C565.755 83.1293 565.883 82.8452 565.883 82.4986C565.883 82.2401 565.819 82.0071 565.691 81.7997C565.563 81.5895 565.381 81.4247 565.146 81.3054C564.91 81.1832 564.629 81.1222 564.302 81.1222H562.559V83.679ZM562.559 79.9844H564.123C564.396 79.9844 564.641 79.9347 564.86 79.8352C565.079 79.733 565.251 79.5895 565.376 79.4048C565.504 79.2173 565.567 78.9957 565.567 78.7401C565.567 78.402 565.448 78.1236 565.21 77.9048C564.974 77.6861 564.623 77.5767 564.157 77.5767H562.559V79.9844ZM568.797 85V78.4545H570.339V85H568.797ZM569.572 77.5256C569.328 77.5256 569.118 77.4446 568.941 77.2827C568.765 77.1179 568.677 76.9205 568.677 76.6903C568.677 76.4574 568.765 76.2599 568.941 76.098C569.118 75.9332 569.328 75.8509 569.572 75.8509C569.819 75.8509 570.029 75.9332 570.203 76.098C570.379 76.2599 570.467 76.4574 570.467 76.6903C570.467 76.9205 570.379 77.1179 570.203 77.2827C570.029 77.4446 569.819 77.5256 569.572 77.5256ZM574.781 85.1278C574.141 85.1278 573.587 84.9872 573.119 84.706C572.65 84.4247 572.286 84.0312 572.028 83.5256C571.772 83.0199 571.644 82.429 571.644 81.7528C571.644 81.0767 571.772 80.4844 572.028 79.9759C572.286 79.4673 572.65 79.0724 573.119 78.7912C573.587 78.5099 574.141 78.3693 574.781 78.3693C575.42 78.3693 575.974 78.5099 576.442 78.7912C576.911 79.0724 577.273 79.4673 577.529 79.9759C577.788 80.4844 577.917 81.0767 577.917 81.7528C577.917 82.429 577.788 83.0199 577.529 83.5256C577.273 84.0312 576.911 84.4247 576.442 84.706C575.974 84.9872 575.42 85.1278 574.781 85.1278ZM574.789 83.892C575.136 83.892 575.425 83.7969 575.658 83.6065C575.891 83.4134 576.065 83.1548 576.178 82.831C576.295 82.5071 576.353 82.1463 576.353 81.7486C576.353 81.348 576.295 80.9858 576.178 80.6619C576.065 80.3352 575.891 80.0753 575.658 79.8821C575.425 79.6889 575.136 79.5923 574.789 79.5923C574.434 79.5923 574.138 79.6889 573.903 79.8821C573.67 80.0753 573.495 80.3352 573.379 80.6619C573.265 80.9858 573.208 81.348 573.208 81.7486C573.208 82.1463 573.265 82.5071 573.379 82.831C573.495 83.1548 573.67 83.4134 573.903 83.6065C574.138 83.7969 574.434 83.892 574.789 83.892ZM582.495 78.4545V79.6477H578.732V78.4545H582.495ZM579.661 76.8864H581.203V83.0312C581.203 83.2386 581.235 83.3977 581.297 83.5085C581.363 83.6165 581.448 83.6903 581.553 83.7301C581.658 83.7699 581.775 83.7898 581.902 83.7898C581.999 83.7898 582.087 83.7827 582.167 83.7685C582.249 83.7543 582.311 83.7415 582.354 83.7301L582.614 84.9361C582.532 84.9645 582.414 84.9957 582.26 85.0298C582.11 85.0639 581.925 85.0838 581.706 85.0895C581.32 85.1009 580.972 85.0426 580.662 84.9148C580.353 84.7841 580.107 84.5824 579.925 84.3097C579.746 84.0369 579.658 83.696 579.661 83.2869V76.8864ZM585.668 85.1321C585.254 85.1321 584.88 85.0582 584.548 84.9105C584.218 84.7599 583.957 84.5384 583.763 84.2457C583.573 83.9531 583.478 83.5923 583.478 83.1634C583.478 82.794 583.546 82.4886 583.683 82.2472C583.819 82.0057 584.005 81.8125 584.241 81.6676C584.477 81.5227 584.742 81.4134 585.038 81.3395C585.336 81.2628 585.644 81.2074 585.962 81.1733C586.346 81.1335 586.657 81.098 586.896 81.0668C587.134 81.0327 587.308 80.9815 587.415 80.9134C587.526 80.8423 587.582 80.733 587.582 80.5852V80.5597C587.582 80.2386 587.487 79.9901 587.296 79.8139C587.106 79.6378 586.832 79.5497 586.474 79.5497C586.096 79.5497 585.796 79.6321 585.575 79.7969C585.356 79.9616 585.208 80.1562 585.131 80.3807L583.691 80.1761C583.805 79.7784 583.992 79.446 584.254 79.179C584.515 78.9091 584.835 78.7074 585.212 78.5739C585.59 78.4375 586.008 78.3693 586.465 78.3693C586.781 78.3693 587.094 78.4062 587.407 78.4801C587.719 78.554 588.005 78.6761 588.263 78.8466C588.522 79.0142 588.729 79.2429 588.886 79.5327C589.045 79.8224 589.124 80.1847 589.124 80.6193V85H587.641V84.1009H587.59C587.496 84.2827 587.364 84.4531 587.194 84.6122C587.026 84.7685 586.815 84.8949 586.559 84.9915C586.306 85.0852 586.009 85.1321 585.668 85.1321ZM586.069 83.9986C586.379 83.9986 586.647 83.9375 586.874 83.8153C587.102 83.6903 587.276 83.5256 587.398 83.321C587.523 83.1165 587.586 82.8935 587.586 82.652V81.8807C587.538 81.9205 587.455 81.9574 587.339 81.9915C587.225 82.0256 587.097 82.0554 586.955 82.081C586.813 82.1065 586.673 82.1293 586.533 82.1491C586.394 82.169 586.273 82.1861 586.171 82.2003C585.941 82.2315 585.735 82.2827 585.553 82.3537C585.371 82.4247 585.228 82.5241 585.123 82.652C585.018 82.777 584.965 82.9389 584.965 83.1378C584.965 83.4219 585.069 83.6364 585.276 83.7812C585.484 83.9261 585.748 83.9986 586.069 83.9986Z" fill="#6B7280"/>
<path d="M600 41C600 54.8071 588.807 66 575 66C561.193 66 550 54.8071 550 41C550 27.1929 561.193 16 575 16C588.807 16 600 27.1929 600 41ZM553.75 41C553.75 52.736 563.264 62.25 575 62.25C586.736 62.25 596.25 52.736 596.25 41C596.25 29.2639 586.736 19.75 575 19.75C563.264 19.75 553.75 29.2639 553.75 41Z" fill="#E5E7EB"/>
<path d="M575 17.875C575 16.8395 575.841 15.9927 576.873 16.0703C582.152 16.4668 587.187 18.5312 591.236 21.9899C595.763 25.8557 598.761 31.2098 599.692 37.0891C600.623 42.9684 599.426 48.9871 596.316 54.0625C593.206 59.1379 588.387 62.937 582.725 64.7764C577.064 66.6159 570.932 66.3749 565.433 64.097C559.933 61.819 555.427 57.6535 552.725 52.3498C550.022 47.046 549.301 40.952 550.691 35.1639C551.934 29.9855 554.794 25.356 558.831 21.9326C559.621 21.2628 560.799 21.4537 561.407 22.2915C562.016 23.1292 561.824 24.2958 561.043 24.9759C557.724 27.8668 555.372 31.7294 554.337 36.0393C553.156 40.9592 553.769 46.1391 556.066 50.6473C558.363 55.1555 562.193 58.6962 566.868 60.6324C571.543 62.5687 576.755 62.7735 581.567 61.21C586.379 59.6464 590.475 56.4172 593.119 52.1031C595.762 47.789 596.78 42.6732 595.988 37.6758C595.197 32.6784 592.648 28.1274 588.801 24.8414C585.43 21.9628 581.257 20.2204 576.873 19.8326C575.841 19.7414 575 18.9105 575 17.875Z" fill="#31C48D"/>
<path d="M681.17 47.1591C680.326 47.1591 679.576 47.017 678.92 46.733C678.269 46.4489 677.758 46.0606 677.386 45.5682C677.019 45.072 676.837 44.5095 676.841 43.8807C676.837 43.392 676.943 42.9432 677.159 42.5341C677.375 42.125 677.667 41.7841 678.034 41.5114C678.405 41.2348 678.818 41.0587 679.273 40.983V40.9034C678.674 40.7708 678.189 40.4659 677.818 39.9886C677.451 39.5076 677.269 38.9527 677.273 38.3239C677.269 37.7254 677.436 37.1913 677.773 36.7216C678.11 36.2519 678.572 35.8826 679.159 35.6136C679.746 35.3409 680.417 35.2045 681.17 35.2045C681.917 35.2045 682.581 35.3409 683.165 35.6136C683.752 35.8826 684.214 36.2519 684.551 36.7216C684.892 37.1913 685.062 37.7254 685.062 38.3239C685.062 38.9527 684.875 39.5076 684.5 39.9886C684.129 40.4659 683.65 40.7708 683.062 40.9034V40.983C683.517 41.0587 683.926 41.2348 684.29 41.5114C684.657 41.7841 684.949 42.125 685.165 42.5341C685.384 42.9432 685.494 43.392 685.494 43.8807C685.494 44.5095 685.309 45.072 684.938 45.5682C684.566 46.0606 684.055 46.4489 683.403 46.733C682.756 47.017 682.011 47.1591 681.17 47.1591ZM681.17 45.5341C681.606 45.5341 681.985 45.4602 682.307 45.3125C682.629 45.161 682.879 44.9489 683.057 44.6761C683.235 44.4034 683.326 44.089 683.33 43.733C683.326 43.3617 683.229 43.0341 683.04 42.75C682.854 42.4621 682.598 42.2367 682.273 42.0739C681.951 41.911 681.583 41.8295 681.17 41.8295C680.754 41.8295 680.383 41.911 680.057 42.0739C679.731 42.2367 679.473 42.4621 679.284 42.75C679.098 43.0341 679.008 43.3617 679.011 43.733C679.008 44.089 679.095 44.4034 679.273 44.6761C679.451 44.9451 679.701 45.1553 680.023 45.3068C680.348 45.4583 680.731 45.5341 681.17 45.5341ZM681.17 40.233C681.527 40.233 681.841 40.161 682.114 40.017C682.39 39.8731 682.608 39.6723 682.767 39.4148C682.926 39.1572 683.008 38.8598 683.011 38.5227C683.008 38.1894 682.928 37.8977 682.773 37.6477C682.617 37.3939 682.402 37.1989 682.125 37.0625C681.848 36.9223 681.53 36.8523 681.17 36.8523C680.803 36.8523 680.479 36.9223 680.199 37.0625C679.922 37.1989 679.706 37.3939 679.551 37.6477C679.4 37.8977 679.326 38.1894 679.33 38.5227C679.326 38.8598 679.402 39.1572 679.557 39.4148C679.716 39.6686 679.934 39.8693 680.21 40.017C680.491 40.161 680.811 40.233 681.17 40.233ZM691.663 47.2216C690.728 47.2216 689.925 46.9848 689.254 46.5114C688.588 46.0341 688.074 45.3466 687.714 44.4489C687.358 43.5473 687.18 42.4621 687.18 41.1932C687.184 39.9242 687.364 38.8447 687.72 37.9545C688.08 37.0606 688.593 36.3788 689.26 35.9091C689.93 35.4394 690.732 35.2045 691.663 35.2045C692.595 35.2045 693.396 35.4394 694.067 35.9091C694.737 36.3788 695.25 37.0606 695.607 37.9545C695.966 38.8485 696.146 39.928 696.146 41.1932C696.146 42.4659 695.966 43.553 695.607 44.4545C695.25 45.3523 694.737 46.0379 694.067 46.5114C693.4 46.9848 692.599 47.2216 691.663 47.2216ZM691.663 45.4432C692.391 45.4432 692.964 45.0852 693.385 44.3693C693.809 43.6496 694.021 42.5909 694.021 41.1932C694.021 40.2689 693.925 39.4924 693.732 38.8636C693.538 38.2348 693.266 37.7614 692.913 37.4432C692.561 37.1212 692.144 36.9602 691.663 36.9602C690.94 36.9602 690.368 37.3201 689.947 38.0398C689.527 38.7557 689.315 39.8068 689.311 41.1932C689.307 42.1212 689.4 42.9015 689.589 43.5341C689.783 44.1667 690.055 44.6439 690.408 44.9659C690.76 45.2841 691.179 45.4432 691.663 45.4432Z" fill="#6B7280"/>
<path d="M670.923 77.598V76.2727H677.886V77.598H675.188V85H673.62V77.598H670.923ZM680.153 85.1321C679.738 85.1321 679.364 85.0582 679.032 84.9105C678.702 84.7599 678.441 84.5384 678.248 84.2457C678.058 83.9531 677.962 83.5923 677.962 83.1634C677.962 82.794 678.031 82.4886 678.167 82.2472C678.303 82.0057 678.489 81.8125 678.725 81.6676C678.961 81.5227 679.227 81.4134 679.522 81.3395C679.82 81.2628 680.129 81.2074 680.447 81.1733C680.83 81.1335 681.141 81.098 681.38 81.0668C681.619 81.0327 681.792 80.9815 681.9 80.9134C682.011 80.8423 682.066 80.733 682.066 80.5852V80.5597C682.066 80.2386 681.971 79.9901 681.781 79.8139C681.59 79.6378 681.316 79.5497 680.958 79.5497C680.58 79.5497 680.281 79.6321 680.059 79.7969C679.84 79.9616 679.692 80.1562 679.616 80.3807L678.175 80.1761C678.289 79.7784 678.477 79.446 678.738 79.179C678.999 78.9091 679.319 78.7074 679.697 78.5739C680.075 78.4375 680.492 78.3693 680.95 78.3693C681.265 78.3693 681.579 78.4062 681.891 78.4801C682.204 78.554 682.489 78.6761 682.748 78.8466C683.006 79.0142 683.214 79.2429 683.37 79.5327C683.529 79.8224 683.609 80.1847 683.609 80.6193V85H682.126V84.1009H682.075C681.981 84.2827 681.849 84.4531 681.678 84.6122C681.511 84.7685 681.299 84.8949 681.043 84.9915C680.79 85.0852 680.494 85.1321 680.153 85.1321ZM680.553 83.9986C680.863 83.9986 681.131 83.9375 681.359 83.8153C681.586 83.6903 681.761 83.5256 681.883 83.321C682.008 83.1165 682.07 82.8935 682.07 82.652V81.8807C682.022 81.9205 681.94 81.9574 681.823 81.9915C681.71 82.0256 681.582 82.0554 681.44 82.081C681.298 82.1065 681.157 82.1293 681.018 82.1491C680.879 82.169 680.758 82.1861 680.656 82.2003C680.425 82.2315 680.219 82.2827 680.038 82.3537C679.856 82.4247 679.712 82.5241 679.607 82.652C679.502 82.777 679.45 82.9389 679.45 83.1378C679.45 83.4219 679.553 83.6364 679.761 83.7812C679.968 83.9261 680.232 83.9986 680.553 83.9986ZM690.333 80.1847L688.927 80.3381C688.887 80.196 688.817 80.0625 688.718 79.9375C688.621 79.8125 688.491 79.7116 688.326 79.6349C688.161 79.5582 687.96 79.5199 687.721 79.5199C687.4 79.5199 687.13 79.5895 686.911 79.7287C686.695 79.8679 686.589 80.0483 686.592 80.2699C686.589 80.4602 686.658 80.6151 686.8 80.7344C686.945 80.8537 687.184 80.9517 687.516 81.0284L688.633 81.267C689.252 81.4006 689.712 81.6122 690.013 81.902C690.317 82.1918 690.471 82.571 690.474 83.0398C690.471 83.4517 690.35 83.8153 690.112 84.1307C689.876 84.4432 689.548 84.6875 689.127 84.8636C688.707 85.0398 688.224 85.1278 687.678 85.1278C686.877 85.1278 686.232 84.9602 685.744 84.625C685.255 84.2869 684.964 83.8168 684.87 83.2145L686.374 83.0696C686.442 83.3651 686.587 83.5881 686.809 83.7386C687.031 83.8892 687.319 83.9645 687.674 83.9645C688.04 83.9645 688.335 83.8892 688.556 83.7386C688.781 83.5881 688.893 83.402 688.893 83.1804C688.893 82.9929 688.82 82.8381 688.675 82.7159C688.533 82.5937 688.312 82.5 688.011 82.4347L686.894 82.2003C686.266 82.0696 685.802 81.8494 685.501 81.5398C685.2 81.2273 685.05 80.8324 685.053 80.3551C685.05 79.9517 685.16 79.6023 685.381 79.3068C685.606 79.0085 685.917 78.7784 686.315 78.6165C686.715 78.4517 687.177 78.3693 687.7 78.3693C688.467 78.3693 689.07 78.5327 689.511 78.8594C689.954 79.1861 690.228 79.6278 690.333 80.1847ZM695.014 78.4545V79.6477H691.251V78.4545H695.014ZM692.18 76.8864H693.723V83.0312C693.723 83.2386 693.754 83.3977 693.817 83.5085C693.882 83.6165 693.967 83.6903 694.072 83.7301C694.178 83.7699 694.294 83.7898 694.422 83.7898C694.518 83.7898 694.607 83.7827 694.686 83.7685C694.768 83.7543 694.831 83.7415 694.874 83.7301L695.134 84.9361C695.051 84.9645 694.933 84.9957 694.78 85.0298C694.629 85.0639 694.445 85.0838 694.226 85.0895C693.839 85.1009 693.491 85.0426 693.182 84.9148C692.872 84.7841 692.626 84.5824 692.445 84.3097C692.266 84.0369 692.178 83.696 692.18 83.2869V76.8864ZM699.132 85.1278C698.475 85.1278 697.909 84.9915 697.431 84.7188C696.957 84.4432 696.592 84.054 696.336 83.5511C696.081 83.0455 695.953 82.4503 695.953 81.7656C695.953 81.0923 696.081 80.5014 696.336 79.9929C696.595 79.4815 696.956 79.0838 697.419 78.7997C697.882 78.5128 698.426 78.3693 699.051 78.3693C699.454 78.3693 699.835 78.4347 700.193 78.5653C700.554 78.6932 700.872 78.892 701.147 79.1619C701.426 79.4318 701.645 79.7756 701.804 80.1932C701.963 80.608 702.042 81.1023 702.042 81.6761V82.1491H696.677V81.1094H700.564C700.561 80.8139 700.497 80.5511 700.372 80.321C700.247 80.0881 700.072 79.9048 699.848 79.7713C699.626 79.6378 699.368 79.571 699.072 79.571C698.757 79.571 698.48 79.6477 698.241 79.8011C698.002 79.9517 697.816 80.1506 697.683 80.3977C697.552 80.642 697.485 80.9105 697.483 81.2031V82.1108C697.483 82.4915 697.552 82.8182 697.691 83.0909C697.831 83.3608 698.025 83.5682 698.275 83.7131C698.525 83.8551 698.818 83.9261 699.153 83.9261C699.377 83.9261 699.581 83.8949 699.762 83.8324C699.944 83.767 700.102 83.6719 700.235 83.5469C700.369 83.4219 700.47 83.267 700.538 83.0824L701.978 83.2443C701.887 83.625 701.714 83.9574 701.458 84.2415C701.206 84.5227 700.882 84.7415 700.487 84.8977C700.092 85.0511 699.64 85.1278 699.132 85.1278Z" fill="#6B7280"/>
<path d="M711 41C711 54.8071 699.807 66 686 66C672.193 66 661 54.8071 661 41C661 27.1929 672.193 16 686 16C699.807 16 711 27.1929 711 41ZM664.75 41C664.75 52.736 674.264 62.25 686 62.25C697.736 62.25 707.25 52.736 707.25 41C707.25 29.2639 697.736 19.75 686 19.75C674.264 19.75 664.75 29.2639 664.75 41Z" fill="#E5E7EB"/>
<path d="M686 17.875C686 16.8395 686.841 15.9927 687.873 16.0703C692.489 16.417 696.931 18.0398 700.695 20.7746C704.966 23.8778 708.145 28.2535 709.776 33.2746C711.408 38.2957 711.408 43.7043 709.776 48.7254C708.145 53.7465 704.966 58.1222 700.695 61.2254C696.423 64.3286 691.279 66 686 66C680.721 66 675.577 64.3286 671.305 61.2254C667.034 58.1222 663.855 53.7465 662.224 48.7254C660.786 44.3004 660.615 39.5744 661.712 35.0779C661.957 34.0719 663.022 33.534 664.007 33.854C664.992 34.174 665.522 35.2307 665.29 36.2399C664.43 39.9796 664.597 43.895 665.79 47.5666C667.177 51.8345 669.879 55.5539 673.51 58.1916C677.14 60.8293 681.512 62.25 686 62.25C690.488 62.25 694.86 60.8293 698.49 58.1916C702.121 55.5539 704.823 51.8345 706.21 47.5666C707.597 43.2987 707.597 38.7013 706.21 34.4334C704.823 30.1655 702.121 26.4461 698.49 23.8084C695.367 21.5392 691.695 20.1708 687.873 19.8327C686.841 19.7414 686 18.9105 686 17.875Z" fill="#31C48D"/>
</svg>
