
<svg width="1359" height="60" viewBox="0 0 1359 60" fill="none" xmlns="http://www.w3.org/2000/svg">
<path d="M0.5 0.5H2122.5V59.5H0.5V0.5Z" fill="#F3F4F6" stroke="#E5E7EB"/>
<path d="M45.3366 24.8182V35H43.9247L38.7493 27.5327H38.6548V35H37.1186V24.8182H38.5405L43.7209 32.2955H43.8153V24.8182H45.3366ZM49.6806 35.169C49.1967 35.169 48.7592 35.0795 48.3681 34.9006C47.977 34.7183 47.6671 34.4548 47.4384 34.1101C47.213 33.7654 47.1003 33.3428 47.1003 32.8423C47.1003 32.4115 47.1832 32.0568 47.3489 31.7784C47.5146 31.5 47.7383 31.2796 48.0201 31.1172C48.3018 30.9548 48.6167 30.8321 48.9647 30.7493C49.3127 30.6664 49.6673 30.6035 50.0286 30.5604C50.486 30.5073 50.8572 30.4643 51.1422 30.4311C51.4273 30.3946 51.6344 30.3366 51.7637 30.2571C51.8929 30.1776 51.9576 30.0483 51.9576 29.8693V29.8345C51.9576 29.4003 51.8349 29.0639 51.5897 28.8253C51.3477 28.5866 50.9864 28.4673 50.5059 28.4673C50.0054 28.4673 49.611 28.5784 49.3226 28.8004C49.0376 29.0192 48.8404 29.2628 48.731 29.5312L47.334 29.2131C47.4997 28.7491 47.7417 28.3745 48.0598 28.0895C48.3813 27.8011 48.7509 27.5923 49.1685 27.4631C49.5861 27.3305 50.0253 27.2642 50.486 27.2642C50.7909 27.2642 51.1141 27.3007 51.4554 27.3736C51.8001 27.4432 52.1216 27.5724 52.4199 27.7614C52.7215 27.9503 52.9685 28.2204 53.1607 28.5717C53.3529 28.9197 53.449 29.3722 53.449 29.929V35H51.9973V33.956H51.9377C51.8416 34.1482 51.6974 34.3371 51.5051 34.5227C51.3129 34.7083 51.066 34.8625 50.7644 34.9851C50.4628 35.1077 50.1015 35.169 49.6806 35.169ZM50.0037 33.9759C50.4147 33.9759 50.766 33.8946 51.0577 33.7322C51.3527 33.5698 51.5764 33.3577 51.7289 33.0959C51.8846 32.8307 51.9625 32.5473 51.9625 32.2457V31.2614C51.9095 31.3144 51.8068 31.3641 51.6543 31.4105C51.5051 31.4536 51.3345 31.4917 51.1422 31.5249C50.95 31.5547 50.7627 31.5829 50.5804 31.6094C50.3981 31.6326 50.2457 31.6525 50.123 31.669C49.8347 31.7055 49.5712 31.7668 49.3326 31.853C49.0972 31.9392 48.9083 32.0634 48.7658 32.2259C48.6266 32.3849 48.557 32.5971 48.557 32.8622C48.557 33.2301 48.6929 33.5085 48.9647 33.6974C49.2364 33.883 49.5828 33.9759 50.0037 33.9759ZM55.429 35V27.3636H56.8558V28.6065H56.9503C57.1094 28.1856 57.3696 27.8575 57.7308 27.6222C58.0921 27.3835 58.5246 27.2642 59.0284 27.2642C59.5388 27.2642 59.9664 27.3835 60.3111 27.6222C60.6591 27.8608 60.916 28.1889 61.0817 28.6065H61.1612C61.3435 28.1989 61.6335 27.8741 62.0312 27.6321C62.429 27.3868 62.9029 27.2642 63.4531 27.2642C64.1458 27.2642 64.7109 27.4813 65.1484 27.9155C65.5893 28.3497 65.8097 29.0043 65.8097 29.8793V35H64.3232V30.0185C64.3232 29.5014 64.1823 29.1269 63.9006 28.8949C63.6188 28.6629 63.2824 28.5469 62.8913 28.5469C62.4074 28.5469 62.0312 28.696 61.7628 28.9943C61.4943 29.2893 61.3601 29.6688 61.3601 30.1328V35H59.8786V29.924C59.8786 29.5097 59.7493 29.1766 59.4908 28.9247C59.2322 28.6728 58.8958 28.5469 58.4815 28.5469C58.1998 28.5469 57.9396 28.6214 57.701 28.7706C57.4657 28.9164 57.2751 29.1203 57.1293 29.3821C56.9867 29.6439 56.9155 29.9472 56.9155 30.2919V35H55.429ZM71.0932 35.1541C70.3408 35.1541 69.6929 34.9934 69.1493 34.6719C68.6091 34.3471 68.1915 33.8913 67.8965 33.3047C67.6048 32.7147 67.459 32.0237 67.459 31.2315C67.459 30.4493 67.6048 29.7599 67.8965 29.1634C68.1915 28.5668 68.6025 28.1011 69.1294 27.7663C69.6597 27.4316 70.2795 27.2642 70.9888 27.2642C71.4197 27.2642 71.8373 27.3355 72.2417 27.478C72.646 27.6205 73.0089 27.8442 73.3304 28.1491C73.6519 28.4541 73.9055 28.8501 74.0911 29.3374C74.2767 29.8213 74.3695 30.4096 74.3695 31.1023V31.6293H68.2992V30.5156H72.9128C72.9128 30.1245 72.8333 29.7782 72.6742 29.4766C72.5151 29.1716 72.2914 28.9313 72.003 28.7557C71.718 28.58 71.3832 28.4922 70.9988 28.4922C70.5811 28.4922 70.2166 28.5949 69.905 28.8004C69.5968 29.0026 69.3581 29.2678 69.1891 29.5959C69.0234 29.9207 68.9405 30.2737 68.9405 30.6548V31.5249C68.9405 32.0353 69.03 32.4695 69.209 32.8274C69.3913 33.1854 69.6448 33.4588 69.9696 33.6477C70.2944 33.8333 70.6739 33.9261 71.1081 33.9261C71.3899 33.9261 71.6467 33.8864 71.8787 33.8068C72.1107 33.724 72.3113 33.6013 72.4803 33.4389C72.6493 33.2765 72.7786 33.076 72.8681 32.8374L74.275 33.0909C74.1623 33.5052 73.9602 33.8681 73.6685 34.1797C73.3801 34.4879 73.0172 34.7282 72.5797 34.9006C72.1455 35.0696 71.65 35.1541 71.0932 35.1541Z" fill="#111928"/>
<path d="M455.119 25V14.8182H456.655V19.2429H461.731V14.8182H463.272V25H461.731V20.5604H456.655V25H455.119ZM465.509 25V14.8182H469.138C469.927 14.8182 470.582 14.9541 471.102 15.2259C471.626 15.4976 472.017 15.8738 472.276 16.3544C472.534 16.8317 472.663 17.3835 472.663 18.0099C472.663 18.633 472.532 19.1816 472.271 19.6555C472.012 20.1262 471.621 20.4924 471.097 20.7543C470.577 21.0161 469.922 21.147 469.134 21.147H466.384V19.8246H468.994C469.491 19.8246 469.896 19.7533 470.207 19.6108C470.522 19.4683 470.753 19.2611 470.898 18.9893C471.044 18.7176 471.117 18.3911 471.117 18.0099C471.117 17.6255 471.043 17.2924 470.893 17.0107C470.748 16.7289 470.517 16.5135 470.202 16.3643C469.891 16.2119 469.482 16.1357 468.974 16.1357H467.045V25H465.509ZM470.536 20.4062L473.051 25H471.301L468.835 20.4062H470.536Z" fill="#111928"/>
<path d="M287.119 14.8182H288.983L292.224 22.733H292.344L295.585 14.8182H297.45V25H295.988V17.6321H295.893L292.891 24.9851H291.678L288.675 17.6271H288.58V25H287.119V14.8182ZM301.219 14.8182V25H299.683V14.8182H301.219Z" fill="#111928"/>
<path d="M1141.11 25L1138.29 14.8182H1139.9L1141.89 22.7031H1141.98L1144.05 14.8182H1145.65L1147.71 22.7081H1147.8L1149.78 14.8182H1151.4L1148.57 25H1147.03L1144.89 17.3736H1144.81L1142.66 25H1141.11ZM1155.22 25.1541C1154.47 25.1541 1153.82 24.9934 1153.28 24.6719C1152.74 24.3471 1152.32 23.8913 1152.03 23.3047C1151.74 22.7147 1151.59 22.0237 1151.59 21.2315C1151.59 20.4493 1151.74 19.7599 1152.03 19.1634C1152.32 18.5668 1152.73 18.1011 1153.26 17.7663C1153.79 17.4316 1154.41 17.2642 1155.12 17.2642C1155.55 17.2642 1155.97 17.3355 1156.37 17.478C1156.78 17.6205 1157.14 17.8442 1157.46 18.1491C1157.78 18.4541 1158.04 18.8501 1158.22 19.3374C1158.41 19.8213 1158.5 20.4096 1158.5 21.1023V21.6293H1152.43V20.5156H1157.04C1157.04 20.1245 1156.96 19.7782 1156.81 19.4766C1156.65 19.1716 1156.42 18.9313 1156.13 18.7557C1155.85 18.58 1155.51 18.4922 1155.13 18.4922C1154.71 18.4922 1154.35 18.5949 1154.04 18.8004C1153.73 19.0026 1153.49 19.2678 1153.32 19.5959C1153.15 19.9207 1153.07 20.2737 1153.07 20.6548V21.5249C1153.07 22.0353 1153.16 22.4695 1153.34 22.8274C1153.52 23.1854 1153.78 23.4588 1154.1 23.6477C1154.43 23.8333 1154.8 23.9261 1155.24 23.9261C1155.52 23.9261 1155.78 23.8864 1156.01 23.8068C1156.24 23.724 1156.44 23.6013 1156.61 23.4389C1156.78 23.2765 1156.91 23.076 1157 22.8374L1158.41 23.0909C1158.29 23.5052 1158.09 23.8681 1157.8 24.1797C1157.51 24.4879 1157.15 24.7282 1156.71 24.9006C1156.28 25.0696 1155.78 25.1541 1155.22 25.1541ZM1160.15 25V17.3636H1161.64V25H1160.15ZM1160.9 16.1854C1160.64 16.1854 1160.42 16.0992 1160.23 15.9268C1160.05 15.7512 1159.96 15.5424 1159.96 15.3004C1159.96 15.0552 1160.05 14.8464 1160.23 14.674C1160.42 14.4983 1160.64 14.4105 1160.9 14.4105C1161.16 14.4105 1161.38 14.4983 1161.56 14.674C1161.75 14.8464 1161.84 15.0552 1161.84 15.3004C1161.84 15.5424 1161.75 15.7512 1161.56 15.9268C1161.38 16.0992 1161.16 16.1854 1160.9 16.1854ZM1166.84 28.0227C1166.23 28.0227 1165.71 27.9432 1165.27 27.7841C1164.84 27.625 1164.48 27.4145 1164.21 27.1527C1163.93 26.8909 1163.73 26.6042 1163.59 26.2926L1164.87 25.7656C1164.96 25.9115 1165.08 26.0656 1165.23 26.228C1165.38 26.3937 1165.58 26.5346 1165.84 26.6506C1166.11 26.7666 1166.44 26.8246 1166.85 26.8246C1167.42 26.8246 1167.88 26.687 1168.25 26.4119C1168.62 26.1402 1168.8 25.706 1168.8 25.1094V23.608H1168.71C1168.62 23.7704 1168.49 23.951 1168.32 24.1499C1168.15 24.3487 1167.92 24.5211 1167.63 24.6669C1167.34 24.8127 1166.96 24.8857 1166.49 24.8857C1165.89 24.8857 1165.35 24.7448 1164.86 24.4631C1164.38 24.178 1164 23.7588 1163.72 23.2053C1163.44 22.6484 1163.3 21.964 1163.3 21.152C1163.3 20.34 1163.44 19.6439 1163.72 19.0639C1163.99 18.4839 1164.38 18.0398 1164.86 17.7315C1165.34 17.42 1165.89 17.2642 1166.5 17.2642C1166.98 17.2642 1167.36 17.3438 1167.65 17.5028C1167.94 17.6586 1168.17 17.8409 1168.33 18.0497C1168.5 18.2585 1168.63 18.4425 1168.72 18.6016H1168.83V17.3636H1170.28V25.169C1170.28 25.8253 1170.13 26.3639 1169.83 26.7848C1169.52 27.2057 1169.11 27.5173 1168.59 27.7195C1168.07 27.9216 1167.49 28.0227 1166.84 28.0227ZM1166.82 23.6527C1167.25 23.6527 1167.61 23.5533 1167.91 23.3544C1168.2 23.1522 1168.43 22.8639 1168.58 22.4893C1168.74 22.1115 1168.82 21.6591 1168.82 21.1321C1168.82 20.6184 1168.74 20.166 1168.59 19.7749C1168.44 19.3838 1168.21 19.0788 1167.92 18.8601C1167.62 18.638 1167.26 18.527 1166.82 18.527C1166.38 18.527 1166 18.643 1165.7 18.875C1165.41 19.1037 1165.18 19.4152 1165.03 19.8097C1164.88 20.2041 1164.8 20.6449 1164.8 21.1321C1164.8 21.6326 1164.88 22.0717 1165.03 22.4496C1165.19 22.8274 1165.41 23.1224 1165.71 23.3345C1166.01 23.5466 1166.38 23.6527 1166.82 23.6527ZM1173.76 20.4659V25H1172.28V14.8182H1173.74V18.6065H1173.84C1174.02 18.1955 1174.29 17.8691 1174.66 17.6271C1175.03 17.3852 1175.51 17.2642 1176.1 17.2642C1176.62 17.2642 1177.08 17.3719 1177.47 17.5874C1177.87 17.8028 1178.17 18.1243 1178.39 18.5518C1178.61 18.9761 1178.71 19.5064 1178.71 20.1428V25H1177.23V20.3217C1177.23 19.7616 1177.08 19.3274 1176.8 19.0192C1176.51 18.7076 1176.11 18.5518 1175.59 18.5518C1175.24 18.5518 1174.93 18.6264 1174.65 18.7756C1174.37 18.9247 1174.16 19.1435 1174 19.4318C1173.84 19.7169 1173.76 20.0616 1173.76 20.4659ZM1184.26 17.3636V18.5568H1180.09V17.3636H1184.26ZM1181.21 15.5341H1182.7V22.7578C1182.7 23.0462 1182.74 23.2633 1182.83 23.4091C1182.91 23.5516 1183.02 23.6494 1183.16 23.7024C1183.3 23.7521 1183.45 23.777 1183.61 23.777C1183.73 23.777 1183.84 23.7687 1183.93 23.7521C1184.01 23.7356 1184.08 23.7223 1184.13 23.7124L1184.4 24.9403C1184.32 24.9735 1184.19 25.0066 1184.03 25.0398C1183.88 25.0762 1183.68 25.0961 1183.44 25.0994C1183.05 25.1061 1182.68 25.0365 1182.34 24.8906C1182.01 24.7448 1181.73 24.5194 1181.52 24.2145C1181.31 23.9096 1181.21 23.5268 1181.21 23.0661V15.5341Z" fill="#111928"/>
<path d="M1260.01 25.8182L1262.84 34.1108H1262.96L1265.79 25.8182H1267.45L1263.79 36H1262.01L1258.35 25.8182H1260.01ZM1268.8 36V28.3636H1270.29V36H1268.8ZM1269.55 27.1854C1269.29 27.1854 1269.07 27.0992 1268.89 26.9268C1268.7 26.7512 1268.61 26.5424 1268.61 26.3004C1268.61 26.0552 1268.7 25.8464 1268.89 25.674C1269.07 25.4983 1269.29 25.4105 1269.55 25.4105C1269.81 25.4105 1270.03 25.4983 1270.21 25.674C1270.4 25.8464 1270.49 26.0552 1270.49 26.3004C1270.49 26.5424 1270.4 26.7512 1270.21 26.9268C1270.03 27.0992 1269.81 27.1854 1269.55 27.1854ZM1275.85 28.3636V29.5568H1271.68V28.3636H1275.85ZM1272.8 26.5341H1274.29V33.7578C1274.29 34.0462 1274.33 34.2633 1274.42 34.4091C1274.5 34.5516 1274.61 34.6494 1274.75 34.7024C1274.89 34.7521 1275.04 34.777 1275.2 34.777C1275.32 34.777 1275.43 34.7687 1275.51 34.7521C1275.6 34.7356 1275.67 34.7223 1275.72 34.7124L1275.99 35.9403C1275.91 35.9735 1275.78 36.0066 1275.62 36.0398C1275.47 36.0762 1275.27 36.0961 1275.03 36.0994C1274.64 36.1061 1274.27 36.0365 1273.93 35.8906C1273.6 35.7448 1273.32 35.5194 1273.11 35.2145C1272.9 34.9096 1272.8 34.5268 1272.8 34.0661V26.5341ZM1279.72 36.169C1279.24 36.169 1278.8 36.0795 1278.41 35.9006C1278.02 35.7183 1277.71 35.4548 1277.48 35.1101C1277.25 34.7654 1277.14 34.3428 1277.14 33.8423C1277.14 33.4115 1277.22 33.0568 1277.39 32.7784C1277.55 32.5 1277.78 32.2796 1278.06 32.1172C1278.34 31.9548 1278.66 31.8321 1279 31.7493C1279.35 31.6664 1279.71 31.6035 1280.07 31.5604C1280.53 31.5073 1280.9 31.4643 1281.18 31.4311C1281.47 31.3946 1281.67 31.3366 1281.8 31.2571C1281.93 31.1776 1282 31.0483 1282 30.8693V30.8345C1282 30.4003 1281.87 30.0639 1281.63 29.8253C1281.39 29.5866 1281.03 29.4673 1280.54 29.4673C1280.04 29.4673 1279.65 29.5784 1279.36 29.8004C1279.08 30.0192 1278.88 30.2628 1278.77 30.5312L1277.37 30.2131C1277.54 29.7491 1277.78 29.3745 1278.1 29.0895C1278.42 28.8011 1278.79 28.5923 1279.21 28.4631C1279.63 28.3305 1280.06 28.2642 1280.53 28.2642C1280.83 28.2642 1281.15 28.3007 1281.49 28.3736C1281.84 28.4432 1282.16 28.5724 1282.46 28.7614C1282.76 28.9503 1283.01 29.2204 1283.2 29.5717C1283.39 29.9197 1283.49 30.3722 1283.49 30.929V36H1282.04V34.956H1281.98C1281.88 35.1482 1281.74 35.3371 1281.54 35.5227C1281.35 35.7083 1281.11 35.8625 1280.8 35.9851C1280.5 36.1077 1280.14 36.169 1279.72 36.169ZM1280.04 34.9759C1280.45 34.9759 1280.81 34.8946 1281.1 34.7322C1281.39 34.5698 1281.62 34.3577 1281.77 34.0959C1281.92 33.8307 1282 33.5473 1282 33.2457V32.2614C1281.95 32.3144 1281.85 32.3641 1281.69 32.4105C1281.54 32.4536 1281.37 32.4917 1281.18 32.5249C1280.99 32.5547 1280.8 32.5829 1280.62 32.6094C1280.44 32.6326 1280.28 32.6525 1280.16 32.669C1279.87 32.7055 1279.61 32.7668 1279.37 32.853C1279.14 32.9392 1278.95 33.0634 1278.8 33.2259C1278.67 33.3849 1278.6 33.5971 1278.6 33.8622C1278.6 34.2301 1278.73 34.5085 1279 34.6974C1279.28 34.883 1279.62 34.9759 1280.04 34.9759ZM1286.95 25.8182V36H1285.47V25.8182H1286.95ZM1289.07 36V25.8182H1292.7C1293.5 25.8182 1294.15 25.9624 1294.67 26.2507C1295.19 26.5391 1295.58 26.9335 1295.84 27.4339C1296.1 27.9311 1296.23 28.4912 1296.23 29.1143C1296.23 29.7408 1296.1 30.3042 1295.84 30.8047C1295.58 31.3018 1295.19 31.6963 1294.66 31.9879C1294.14 32.2763 1293.49 32.4205 1292.7 32.4205H1290.2V31.1179H1292.56C1293.06 31.1179 1293.47 31.0317 1293.78 30.8594C1294.09 30.6837 1294.32 30.4451 1294.46 30.1435C1294.61 29.8419 1294.68 29.4988 1294.68 29.1143C1294.68 28.7299 1294.61 28.3885 1294.46 28.0902C1294.32 27.7919 1294.09 27.5582 1293.77 27.3892C1293.46 27.2202 1293.05 27.1357 1292.54 27.1357H1290.61V36H1289.07ZM1300.06 36.169C1299.58 36.169 1299.14 36.0795 1298.75 35.9006C1298.36 35.7183 1298.05 35.4548 1297.82 35.1101C1297.6 34.7654 1297.48 34.3428 1297.48 33.8423C1297.48 33.4115 1297.57 33.0568 1297.73 32.7784C1297.9 32.5 1298.12 32.2796 1298.4 32.1172C1298.68 31.9548 1299 31.8321 1299.35 31.7493C1299.7 31.6664 1300.05 31.6035 1300.41 31.5604C1300.87 31.5073 1301.24 31.4643 1301.53 31.4311C1301.81 31.3946 1302.02 31.3366 1302.15 31.2571C1302.28 31.1776 1302.34 31.0483 1302.34 30.8693V30.8345C1302.34 30.4003 1302.22 30.0639 1301.97 29.8253C1301.73 29.5866 1301.37 29.4673 1300.89 29.4673C1300.39 29.4673 1299.99 29.5784 1299.71 29.8004C1299.42 30.0192 1299.22 30.2628 1299.11 30.5312L1297.72 30.2131C1297.88 29.7491 1298.12 29.3745 1298.44 29.0895C1298.76 28.8011 1299.13 28.5923 1299.55 28.4631C1299.97 28.3305 1300.41 28.2642 1300.87 28.2642C1301.17 28.2642 1301.5 28.3007 1301.84 28.3736C1302.18 28.4432 1302.5 28.5724 1302.8 28.7614C1303.1 28.9503 1303.35 29.2204 1303.54 29.5717C1303.74 29.9197 1303.83 30.3722 1303.83 30.929V36H1302.38V34.956H1302.32C1302.22 35.1482 1302.08 35.3371 1301.89 35.5227C1301.7 35.7083 1301.45 35.8625 1301.15 35.9851C1300.85 36.1077 1300.48 36.169 1300.06 36.169ZM1300.39 34.9759C1300.8 34.9759 1301.15 34.8946 1301.44 34.7322C1301.74 34.5698 1301.96 34.3577 1302.11 34.0959C1302.27 33.8307 1302.35 33.5473 1302.35 33.2457V32.2614C1302.29 32.3144 1302.19 32.3641 1302.04 32.4105C1301.89 32.4536 1301.72 32.4917 1301.53 32.5249C1301.33 32.5547 1301.15 32.5829 1300.96 32.6094C1300.78 32.6326 1300.63 32.6525 1300.51 32.669C1300.22 32.7055 1299.95 32.7668 1299.72 32.853C1299.48 32.9392 1299.29 33.0634 1299.15 33.2259C1299.01 33.3849 1298.94 33.5971 1298.94 33.8622C1298.94 34.2301 1299.08 34.5085 1299.35 34.6974C1299.62 34.883 1299.97 34.9759 1300.39 34.9759ZM1309.38 28.3636V29.5568H1305.21V28.3636H1309.38ZM1306.32 26.5341H1307.81V33.7578C1307.81 34.0462 1307.85 34.2633 1307.94 34.4091C1308.03 34.5516 1308.14 34.6494 1308.27 34.7024C1308.41 34.7521 1308.56 34.777 1308.73 34.777C1308.84 34.777 1308.95 34.7687 1309.04 34.7521C1309.13 34.7356 1309.2 34.7223 1309.25 34.7124L1309.52 35.9403C1309.43 35.9735 1309.31 36.0066 1309.15 36.0398C1308.99 36.0762 1308.79 36.0961 1308.55 36.0994C1308.16 36.1061 1307.8 36.0365 1307.46 35.8906C1307.12 35.7448 1306.85 35.5194 1306.64 35.2145C1306.43 34.9096 1306.32 34.5268 1306.32 34.0661V26.5341ZM1314.16 36.1541C1313.42 36.1541 1312.78 35.9867 1312.25 35.652C1311.72 35.3139 1311.31 34.8482 1311.02 34.255C1310.74 33.6617 1310.6 32.9822 1310.6 32.2166C1310.6 31.4411 1310.74 30.7566 1311.03 30.1634C1311.32 29.5668 1311.74 29.1011 1312.27 28.7663C1312.8 28.4316 1313.42 28.2642 1314.14 28.2642C1314.72 28.2642 1315.24 28.3719 1315.69 28.5874C1316.15 28.7995 1316.51 29.0978 1316.79 29.4822C1317.07 29.8667 1317.24 30.3158 1317.29 30.8295H1315.85C1315.77 30.4716 1315.58 30.1634 1315.3 29.9048C1315.02 29.6463 1314.64 29.517 1314.17 29.517C1313.75 29.517 1313.39 29.6264 1313.08 29.8452C1312.77 30.0606 1312.53 30.3688 1312.36 30.7699C1312.18 31.1676 1312.1 31.6383 1312.1 32.1818C1312.1 32.7386 1312.18 33.2192 1312.35 33.6236C1312.52 34.0279 1312.76 34.3411 1313.07 34.5632C1313.38 34.7853 1313.74 34.8963 1314.17 34.8963C1314.45 34.8963 1314.7 34.8449 1314.93 34.7422C1315.16 34.6361 1315.36 34.4853 1315.51 34.2898C1315.67 34.0942 1315.78 33.8589 1315.85 33.5838H1317.29C1317.24 34.0777 1317.08 34.5185 1316.81 34.9062C1316.54 35.294 1316.18 35.599 1315.73 35.821C1315.28 36.0431 1314.76 36.1541 1314.16 36.1541ZM1320.37 31.4659V36H1318.88V25.8182H1320.35V29.6065H1320.44C1320.62 29.1955 1320.9 28.8691 1321.26 28.6271C1321.63 28.3852 1322.11 28.2642 1322.71 28.2642C1323.23 28.2642 1323.69 28.3719 1324.08 28.5874C1324.47 28.8028 1324.78 29.1243 1324.99 29.5518C1325.21 29.9761 1325.32 30.5064 1325.32 31.1428V36H1323.83V31.3217C1323.83 30.7616 1323.69 30.3274 1323.4 30.0192C1323.11 29.7076 1322.71 29.5518 1322.2 29.5518C1321.85 29.5518 1321.53 29.6264 1321.25 29.7756C1320.98 29.9247 1320.76 30.1435 1320.6 30.4318C1320.45 30.7169 1320.37 31.0616 1320.37 31.4659Z" fill="#111928"/>
<path d="M650.119 25V14.8182H653.748C654.537 14.8182 655.191 14.9541 655.712 15.2259C656.235 15.4976 656.626 15.8738 656.885 16.3544C657.143 16.8317 657.273 17.3835 657.273 18.0099C657.273 18.633 657.142 19.1816 656.88 19.6555C656.621 20.1262 656.23 20.4924 655.707 20.7543C655.186 21.0161 654.532 21.147 653.743 21.147H650.994V19.8246H653.604C654.101 19.8246 654.505 19.7533 654.817 19.6108C655.132 19.4683 655.362 19.2611 655.508 18.9893C655.654 18.7176 655.727 18.3911 655.727 18.0099C655.727 17.6255 655.652 17.2924 655.503 17.0107C655.357 16.7289 655.127 16.5135 654.812 16.3643C654.5 16.2119 654.091 16.1357 653.584 16.1357H651.655V25H650.119ZM655.145 20.4062L657.661 25H655.911L653.445 20.4062H655.145ZM659.142 25V14.8182H662.771C663.56 14.8182 664.215 14.9541 664.735 15.2259C665.259 15.4976 665.65 15.8738 665.908 16.3544C666.167 16.8317 666.296 17.3835 666.296 18.0099C666.296 18.633 666.165 19.1816 665.903 19.6555C665.645 20.1262 665.254 20.4924 664.73 20.7543C664.21 21.0161 663.555 21.147 662.766 21.147H660.017V19.8246H662.627C663.124 19.8246 663.529 19.7533 663.84 19.6108C664.155 19.4683 664.385 19.2611 664.531 18.9893C664.677 18.7176 664.75 18.3911 664.75 18.0099C664.75 17.6255 664.675 17.2924 664.526 17.0107C664.38 16.7289 664.15 16.5135 663.835 16.3643C663.524 16.2119 663.114 16.1357 662.607 16.1357H660.678V25H659.142ZM664.168 20.4062L666.684 25H664.934L662.468 20.4062H664.168Z" fill="#111928"/>
<path d="M830.672 17.4929C830.619 17.0223 830.4 16.6577 830.016 16.3991C829.631 16.1373 829.147 16.0064 828.564 16.0064C828.146 16.0064 827.785 16.0727 827.48 16.2053C827.175 16.3345 826.938 16.5135 826.769 16.7422C826.603 16.9676 826.521 17.2244 826.521 17.5128C826.521 17.7547 826.577 17.9635 826.69 18.1392C826.806 18.3149 826.956 18.4624 827.142 18.5817C827.331 18.6977 827.533 18.7955 827.749 18.875C827.964 18.9512 828.171 19.0142 828.37 19.0639L829.364 19.3224C829.689 19.402 830.022 19.5097 830.364 19.6456C830.705 19.7815 831.022 19.9605 831.313 20.1825C831.605 20.4046 831.84 20.6797 832.019 21.0078C832.201 21.3359 832.293 21.7287 832.293 22.1861C832.293 22.7628 832.143 23.2749 831.845 23.7223C831.55 24.1697 831.121 24.5227 830.558 24.7812C829.997 25.0398 829.32 25.169 828.524 25.169C827.762 25.169 827.102 25.0481 826.545 24.8061C825.989 24.5642 825.553 24.2211 825.238 23.777C824.923 23.3295 824.749 22.7992 824.716 22.1861H826.257C826.287 22.554 826.406 22.8606 826.615 23.1058C826.827 23.3478 827.097 23.5284 827.425 23.6477C827.757 23.7637 828.12 23.8217 828.514 23.8217C828.948 23.8217 829.335 23.7538 829.673 23.6179C830.014 23.4787 830.282 23.2865 830.478 23.0412C830.674 22.7926 830.771 22.5026 830.771 22.1712C830.771 21.8696 830.685 21.6226 830.513 21.4304C830.344 21.2382 830.113 21.0791 829.822 20.9531C829.533 20.8272 829.207 20.7161 828.842 20.62L827.639 20.2919C826.824 20.0698 826.178 19.7434 825.7 19.3125C825.226 18.8816 824.989 18.3116 824.989 17.6023C824.989 17.0156 825.148 16.5036 825.467 16.0661C825.785 15.6286 826.216 15.2888 826.759 15.0469C827.303 14.8016 827.916 14.679 828.599 14.679C829.288 14.679 829.896 14.8 830.423 15.0419C830.954 15.2839 831.371 15.617 831.676 16.0412C831.981 16.4621 832.14 16.946 832.153 17.4929H830.672ZM834.009 27.8636V17.3636H835.461V18.6016H835.585C835.671 18.4425 835.796 18.2585 835.958 18.0497C836.12 17.8409 836.346 17.6586 836.634 17.5028C836.922 17.3438 837.304 17.2642 837.778 17.2642C838.394 17.2642 838.944 17.42 839.428 17.7315C839.912 18.0431 840.291 18.4922 840.567 19.0788C840.845 19.6655 840.984 20.3714 840.984 21.1967C840.984 22.022 840.847 22.7296 840.572 23.3196C840.296 23.9062 839.919 24.3587 839.438 24.6768C838.957 24.9917 838.409 25.1491 837.792 25.1491C837.328 25.1491 836.949 25.0713 836.654 24.9155C836.362 24.7597 836.134 24.5774 835.968 24.3686C835.802 24.1598 835.675 23.9742 835.585 23.8118H835.496V27.8636H834.009ZM835.466 21.1818C835.466 21.7187 835.544 22.1894 835.699 22.5938C835.855 22.9981 836.081 23.3146 836.376 23.5433C836.671 23.7687 837.032 23.8814 837.459 23.8814C837.903 23.8814 838.275 23.7637 838.573 23.5284C838.871 23.2898 839.097 22.9666 839.249 22.5589C839.405 22.1513 839.483 21.6922 839.483 21.1818C839.483 20.678 839.407 20.2256 839.254 19.8246C839.105 19.4235 838.88 19.107 838.578 18.875C838.28 18.643 837.907 18.527 837.459 18.527C837.028 18.527 836.664 18.638 836.366 18.8601C836.071 19.0821 835.847 19.392 835.694 19.7898C835.542 20.1875 835.466 20.6515 835.466 21.1818ZM851.613 19.9091C851.613 20.9962 851.415 21.9309 851.017 22.7131C850.619 23.492 850.074 24.0919 849.381 24.5128C848.692 24.9304 847.908 25.1392 847.03 25.1392C846.148 25.1392 845.361 24.9304 844.668 24.5128C843.979 24.0919 843.435 23.4903 843.037 22.7081C842.64 21.9259 842.441 20.9929 842.441 19.9091C842.441 18.822 842.64 17.889 843.037 17.1101C843.435 16.3279 843.979 15.728 844.668 15.3104C845.361 14.8894 846.148 14.679 847.03 14.679C847.908 14.679 848.692 14.8894 849.381 15.3104C850.074 15.728 850.619 16.3279 851.017 17.1101C851.415 17.889 851.613 18.822 851.613 19.9091ZM850.092 19.9091C850.092 19.0805 849.958 18.3828 849.689 17.8161C849.424 17.246 849.06 16.8151 848.596 16.5234C848.135 16.2285 847.613 16.081 847.03 16.081C846.443 16.081 845.919 16.2285 845.459 16.5234C844.998 16.8151 844.633 17.246 844.365 17.8161C844.1 18.3828 843.967 19.0805 843.967 19.9091C843.967 20.7377 844.1 21.437 844.365 22.0071C844.633 22.5739 844.998 23.0047 845.459 23.2997C845.919 23.5914 846.443 23.7372 847.03 23.7372C847.613 23.7372 848.135 23.5914 848.596 23.2997C849.06 23.0047 849.424 22.5739 849.689 22.0071C849.958 21.437 850.092 20.7377 850.092 19.9091ZM852.97 25V24.3636L854.939 22.3239C855.149 22.1023 855.322 21.9081 855.458 21.7415C855.597 21.5729 855.7 21.4129 855.768 21.2614C855.836 21.1098 855.87 20.9489 855.87 20.7784C855.87 20.5852 855.825 20.4186 855.734 20.2784C855.643 20.1364 855.519 20.0275 855.362 19.9517C855.205 19.8741 855.028 19.8352 854.831 19.8352C854.622 19.8352 854.44 19.8778 854.285 19.9631C854.13 20.0483 854.011 20.1686 853.927 20.3239C853.844 20.4792 853.802 20.661 853.802 20.8693H852.964C852.964 20.5152 853.046 20.2055 853.208 19.9403C853.371 19.6752 853.595 19.4697 853.879 19.3239C854.163 19.1761 854.486 19.1023 854.848 19.1023C855.213 19.1023 855.535 19.1752 855.814 19.321C856.094 19.465 856.313 19.6619 856.47 19.9119C856.627 20.16 856.706 20.4403 856.706 20.7528C856.706 20.9688 856.665 21.1799 856.583 21.3864C856.504 21.5928 856.365 21.8229 856.166 22.0767C855.967 22.3286 855.69 22.6345 855.336 22.9943L854.18 24.2045V24.2472H856.799V25H852.97Z" fill="#111928"/>
<path d="M999.119 25V14.8182H1002.85C1003.57 14.8182 1004.17 14.9375 1004.64 15.1761C1005.12 15.4115 1005.47 15.7313 1005.71 16.1357C1005.94 16.5367 1006.06 16.9891 1006.06 17.4929C1006.06 17.9171 1005.98 18.2751 1005.83 18.5668C1005.67 18.8551 1005.46 19.0871 1005.2 19.2628C1004.94 19.4351 1004.66 19.5611 1004.34 19.6406V19.7401C1004.68 19.7566 1005.01 19.866 1005.33 20.0682C1005.66 20.267 1005.93 20.5504 1006.14 20.9183C1006.35 21.2862 1006.46 21.7337 1006.46 22.2607C1006.46 22.781 1006.33 23.2483 1006.09 23.6626C1005.85 24.0736 1005.47 24.4001 1004.97 24.642C1004.46 24.8807 1003.81 25 1003.02 25H999.119ZM1000.65 23.6825H1002.87C1003.61 23.6825 1004.13 23.54 1004.45 23.255C1004.77 22.9699 1004.93 22.6136 1004.93 22.1861C1004.93 21.8646 1004.85 21.5696 1004.69 21.3011C1004.52 21.0327 1004.29 20.8189 1003.99 20.6598C1003.69 20.5007 1003.34 20.4212 1002.93 20.4212H1000.65V23.6825ZM1000.65 19.223H1002.71C1003.06 19.223 1003.37 19.1567 1003.64 19.0241C1003.92 18.8916 1004.14 18.706 1004.3 18.4673C1004.47 18.2254 1004.55 17.9403 1004.55 17.6122C1004.55 17.1913 1004.41 16.8383 1004.11 16.5533C1003.82 16.2682 1003.36 16.1257 1002.75 16.1257H1000.65V19.223ZM1008.28 25V14.8182H1011.91C1012.7 14.8182 1013.36 14.9624 1013.88 15.2507C1014.4 15.5391 1014.79 15.9335 1015.05 16.4339C1015.3 16.9311 1015.43 17.4912 1015.43 18.1143C1015.43 18.7408 1015.3 19.3042 1015.04 19.8047C1014.78 20.3018 1014.39 20.6963 1013.87 20.9879C1013.35 21.2763 1012.69 21.4205 1011.9 21.4205H1009.41V20.1179H1011.76C1012.26 20.1179 1012.67 20.0317 1012.98 19.8594C1013.29 19.6837 1013.52 19.4451 1013.67 19.1435C1013.81 18.8419 1013.89 18.4988 1013.89 18.1143C1013.89 17.7299 1013.81 17.3885 1013.67 17.0902C1013.52 16.7919 1013.29 16.5582 1012.98 16.3892C1012.67 16.2202 1012.25 16.1357 1011.74 16.1357H1009.81V25H1008.28Z" fill="#111928"/>
<path d="M437.003 37.2727V46H435.793L431.357 39.5994H431.276V46H429.959V37.2727H431.178L435.618 43.6818H435.699V37.2727H437.003ZM438.924 46V37.2727H442.034C442.711 37.2727 443.272 37.3892 443.718 37.6222C444.167 37.8551 444.502 38.1776 444.723 38.5895C444.945 38.9986 445.056 39.4716 445.056 40.0085C445.056 40.5426 444.944 41.0128 444.719 41.419C444.498 41.8224 444.162 42.1364 443.713 42.3608C443.267 42.5852 442.706 42.6974 442.03 42.6974H439.674V41.5639H441.911C442.337 41.5639 442.684 41.5028 442.951 41.3807C443.221 41.2585 443.418 41.081 443.543 40.848C443.668 40.6151 443.73 40.3352 443.73 40.0085C443.73 39.679 443.667 39.3935 443.539 39.152C443.414 38.9105 443.216 38.7259 442.946 38.598C442.679 38.4673 442.328 38.402 441.894 38.402H440.24V46H438.924ZM443.232 42.0625L445.388 46H443.888L441.775 42.0625H443.232ZM446.228 38.4062V37.2727H452.982V38.4062H450.259V46H448.946V38.4062H446.228Z" fill="#111928"/>
<path d="M269.003 37.2727V46H267.793L263.357 39.5994H263.276V46H261.959V37.2727H263.178L267.618 43.6818H267.699V37.2727H269.003ZM270.924 46V37.2727H274.034C274.711 37.2727 275.272 37.3892 275.718 37.6222C276.167 37.8551 276.502 38.1776 276.723 38.5895C276.945 38.9986 277.056 39.4716 277.056 40.0085C277.056 40.5426 276.944 41.0128 276.719 41.419C276.498 41.8224 276.162 42.1364 275.713 42.3608C275.267 42.5852 274.706 42.6974 274.03 42.6974H271.674V41.5639H273.911C274.337 41.5639 274.684 41.5028 274.951 41.3807C275.221 41.2585 275.418 41.081 275.543 40.848C275.668 40.6151 275.73 40.3352 275.73 40.0085C275.73 39.679 275.667 39.3935 275.539 39.152C275.414 38.9105 275.216 38.7259 274.946 38.598C274.679 38.4673 274.328 38.402 273.894 38.402H272.24V46H270.924ZM275.232 42.0625L277.388 46H275.888L273.775 42.0625H275.232ZM278.228 38.4062V37.2727H284.982V38.4062H282.259V46H280.946V38.4062H278.228Z" fill="#111928"/>
<path d="M1158.28 37.2727V46H1156.96V37.2727H1158.28ZM1160.19 46V37.2727H1161.47V40.5156H1161.54C1161.62 40.3793 1161.72 40.2216 1161.86 40.0426C1162 39.8636 1162.2 39.7074 1162.44 39.5739C1162.69 39.4375 1163.02 39.3693 1163.42 39.3693C1163.95 39.3693 1164.42 39.5028 1164.84 39.7699C1165.25 40.0369 1165.58 40.4219 1165.81 40.9247C1166.05 41.4276 1166.17 42.0327 1166.17 42.7401C1166.17 43.4474 1166.05 44.054 1165.82 44.5597C1165.58 45.0625 1165.26 45.4503 1164.85 45.723C1164.43 45.9929 1163.96 46.1278 1163.44 46.1278C1163.04 46.1278 1162.71 46.0611 1162.46 45.9276C1162.21 45.794 1162.01 45.6378 1161.87 45.4588C1161.73 45.2798 1161.62 45.1207 1161.54 44.9815H1161.44V46H1160.19ZM1161.44 42.7273C1161.44 43.1875 1161.51 43.5909 1161.64 43.9375C1161.78 44.2841 1161.97 44.5554 1162.22 44.7514C1162.47 44.9446 1162.78 45.0412 1163.15 45.0412C1163.53 45.0412 1163.85 44.9403 1164.11 44.7386C1164.36 44.5341 1164.55 44.2571 1164.68 43.9077C1164.82 43.5582 1164.88 43.1648 1164.88 42.7273C1164.88 42.2955 1164.82 41.9077 1164.69 41.5639C1164.56 41.2202 1164.37 40.9489 1164.11 40.75C1163.85 40.5511 1163.53 40.4517 1163.15 40.4517C1162.78 40.4517 1162.47 40.5469 1162.21 40.7372C1161.96 40.9276 1161.77 41.1932 1161.64 41.5341C1161.51 41.875 1161.44 42.2727 1161.44 42.7273Z" fill="#111928"/>
<path d="M632.003 37.2727V46H630.793L626.357 39.5994H626.276V46H624.959V37.2727H626.178L630.618 43.6818H630.699V37.2727H632.003ZM633.924 46V37.2727H637.034C637.711 37.2727 638.272 37.3892 638.718 37.6222C639.167 37.8551 639.502 38.1776 639.723 38.5895C639.945 38.9986 640.056 39.4716 640.056 40.0085C640.056 40.5426 639.944 41.0128 639.719 41.419C639.498 41.8224 639.162 42.1364 638.713 42.3608C638.267 42.5852 637.706 42.6974 637.03 42.6974H634.674V41.5639H636.911C637.337 41.5639 637.684 41.5028 637.951 41.3807C638.221 41.2585 638.418 41.081 638.543 40.848C638.668 40.6151 638.73 40.3352 638.73 40.0085C638.73 39.679 638.667 39.3935 638.539 39.152C638.414 38.9105 638.216 38.7259 637.946 38.598C637.679 38.4673 637.328 38.402 636.894 38.402H635.24V46H633.924ZM638.232 42.0625L640.388 46H638.888L636.775 42.0625H638.232ZM641.228 38.4062V37.2727H647.982V38.4062H645.259V46H643.946V38.4062H641.228Z" fill="#111928"/>
<path d="M815.003 37.2727V46H813.793L809.357 39.5994H809.276V46H807.959V37.2727H809.178L813.618 43.6818H813.699V37.2727H815.003ZM816.924 46V37.2727H820.034C820.711 37.2727 821.272 37.3892 821.718 37.6222C822.167 37.8551 822.502 38.1776 822.723 38.5895C822.945 38.9986 823.056 39.4716 823.056 40.0085C823.056 40.5426 822.944 41.0128 822.719 41.419C822.498 41.8224 822.162 42.1364 821.713 42.3608C821.267 42.5852 820.706 42.6974 820.03 42.6974H817.674V41.5639H819.911C820.337 41.5639 820.684 41.5028 820.951 41.3807C821.221 41.2585 821.418 41.081 821.543 40.848C821.668 40.6151 821.73 40.3352 821.73 40.0085C821.73 39.679 821.667 39.3935 821.539 39.152C821.414 38.9105 821.216 38.7259 820.946 38.598C820.679 38.4673 820.328 38.402 819.894 38.402H818.24V46H816.924ZM821.232 42.0625L823.388 46H821.888L819.775 42.0625H821.232ZM824.228 38.4062V37.2727H830.982V38.4062H828.259V46H826.946V38.4062H824.228Z" fill="#111928"/>
<path d="M958.189 46V37.2727H961.3C961.979 37.2727 962.542 37.3963 962.988 37.6435C963.434 37.8906 963.767 38.2287 963.989 38.6577C964.211 39.0838 964.321 39.5639 964.321 40.098C964.321 40.6349 964.209 41.1179 963.985 41.5469C963.763 41.973 963.428 42.3111 962.979 42.5611C962.533 42.8082 961.972 42.9318 961.296 42.9318H959.157V41.8153H961.176C961.605 41.8153 961.953 41.7415 962.221 41.5938C962.488 41.4432 962.684 41.2386 962.809 40.9801C962.934 40.7216 962.996 40.4276 962.996 40.098C962.996 39.7685 962.934 39.4759 962.809 39.2202C962.684 38.9645 962.486 38.7642 962.216 38.6193C961.949 38.4744 961.597 38.402 961.159 38.402H959.506V46H958.189ZM968.502 46.1321C967.857 46.1321 967.301 45.9943 966.836 45.7188C966.373 45.4403 966.015 45.0497 965.762 44.5469C965.512 44.0412 965.387 43.4489 965.387 42.7699C965.387 42.0994 965.512 41.5085 965.762 40.9972C966.015 40.4858 966.367 40.0866 966.819 39.7997C967.273 39.5128 967.804 39.3693 968.412 39.3693C968.782 39.3693 969.14 39.4304 969.486 39.5526C969.833 39.6747 970.144 39.8665 970.419 40.1278C970.695 40.3892 970.912 40.7287 971.071 41.1463C971.23 41.5611 971.31 42.0653 971.31 42.6591V43.1108H966.107V42.1562H970.061C970.061 41.821 969.993 41.5241 969.857 41.2656C969.721 41.0043 969.529 40.7983 969.282 40.6477C969.037 40.4972 968.75 40.4219 968.421 40.4219C968.063 40.4219 967.75 40.5099 967.483 40.6861C967.219 40.8594 967.015 41.0866 966.87 41.3679C966.728 41.6463 966.657 41.9489 966.657 42.2756V43.0213C966.657 43.4588 966.733 43.831 966.887 44.1378C967.043 44.4446 967.26 44.679 967.539 44.8409C967.817 45 968.142 45.0795 968.515 45.0795C968.756 45.0795 968.976 45.0455 969.175 44.9773C969.374 44.9062 969.546 44.8011 969.691 44.6619C969.836 44.5227 969.946 44.3509 970.023 44.1463L971.229 44.3636C971.132 44.7187 970.959 45.0298 970.709 45.2969C970.462 45.5611 970.151 45.767 969.776 45.9148C969.404 46.0597 968.979 46.1321 968.502 46.1321ZM972.724 46V39.4545H973.955V40.4943H974.023C974.143 40.142 974.353 39.8651 974.654 39.6634C974.958 39.4588 975.302 39.3565 975.685 39.3565C975.765 39.3565 975.859 39.3594 975.967 39.3651C976.077 39.3707 976.164 39.3778 976.227 39.3864V40.6051C976.175 40.5909 976.085 40.5753 975.954 40.5582C975.823 40.5384 975.692 40.5284 975.562 40.5284C975.261 40.5284 974.992 40.5923 974.756 40.7202C974.523 40.8452 974.339 41.0199 974.202 41.2443C974.066 41.4659 973.998 41.7187 973.998 42.0028V46H972.724ZM977.329 46V39.4545H978.603V46H977.329ZM977.973 38.4446C977.751 38.4446 977.561 38.3707 977.402 38.223C977.245 38.0724 977.167 37.8935 977.167 37.6861C977.167 37.4759 977.245 37.2969 977.402 37.1491C977.561 36.9986 977.751 36.9233 977.973 36.9233C978.194 36.9233 978.383 36.9986 978.539 37.1491C978.699 37.2969 978.778 37.4759 978.778 37.6861C978.778 37.8935 978.699 38.0724 978.539 38.223C978.383 38.3707 978.194 38.4446 977.973 38.4446ZM983.075 46.1321C982.461 46.1321 981.925 45.9915 981.468 45.7102C981.011 45.429 980.656 45.0355 980.403 44.5298C980.15 44.0241 980.023 43.4332 980.023 42.7571C980.023 42.0781 980.15 41.4844 980.403 40.9759C980.656 40.4673 981.011 40.0724 981.468 39.7912C981.925 39.5099 982.461 39.3693 983.075 39.3693C983.688 39.3693 984.224 39.5099 984.681 39.7912C985.138 40.0724 985.494 40.4673 985.746 40.9759C985.999 41.4844 986.126 42.0781 986.126 42.7571C986.126 43.4332 985.999 44.0241 985.746 44.5298C985.494 45.0355 985.138 45.429 984.681 45.7102C984.224 45.9915 983.688 46.1321 983.075 46.1321ZM983.079 45.0625C983.477 45.0625 983.806 44.9574 984.067 44.7472C984.329 44.5369 984.522 44.2571 984.647 43.9077C984.775 43.5582 984.839 43.1733 984.839 42.7528C984.839 42.3352 984.775 41.9517 984.647 41.6023C984.522 41.25 984.329 40.9673 984.067 40.7543C983.806 40.5412 983.477 40.4347 983.079 40.4347C982.678 40.4347 982.346 40.5412 982.082 40.7543C981.82 40.9673 981.626 41.25 981.498 41.6023C981.373 41.9517 981.31 42.3352 981.31 42.7528C981.31 43.1733 981.373 43.5582 981.498 43.9077C981.626 44.2571 981.82 44.5369 982.082 44.7472C982.346 44.9574 982.678 45.0625 983.079 45.0625ZM989.998 46.1278C989.47 46.1278 988.998 45.9929 988.583 45.723C988.172 45.4503 987.848 45.0625 987.612 44.5597C987.379 44.054 987.262 43.4474 987.262 42.7401C987.262 42.0327 987.38 41.4276 987.616 40.9247C987.855 40.4219 988.181 40.0369 988.596 39.7699C989.011 39.5028 989.481 39.3693 990.007 39.3693C990.413 39.3693 990.74 39.4375 990.987 39.5739C991.237 39.7074 991.43 39.8636 991.566 40.0426C991.706 40.2216 991.814 40.3793 991.89 40.5156H991.967V37.2727H993.241V46H991.997V44.9815H991.89C991.814 45.1207 991.703 45.2798 991.558 45.4588C991.416 45.6378 991.22 45.794 990.97 45.9276C990.72 46.0611 990.396 46.1278 989.998 46.1278ZM990.279 45.0412C990.646 45.0412 990.956 44.9446 991.208 44.7514C991.464 44.5554 991.657 44.2841 991.788 43.9375C991.922 43.5909 991.988 43.1875 991.988 42.7273C991.988 42.2727 991.923 41.875 991.792 41.5341C991.662 41.1932 991.47 40.9276 991.217 40.7372C990.964 40.5469 990.652 40.4517 990.279 40.4517C989.896 40.4517 989.576 40.5511 989.321 40.75C989.065 40.9489 988.872 41.2202 988.741 41.5639C988.613 41.9077 988.549 42.2955 988.549 42.7273C988.549 43.1648 988.615 43.5582 988.745 43.9077C988.876 44.2571 989.069 44.5341 989.325 44.7386C989.583 44.9403 989.902 45.0412 990.279 45.0412ZM995.06 46V39.4545H996.334V46H995.06ZM995.703 38.4446C995.482 38.4446 995.291 38.3707 995.132 38.223C994.976 38.0724 994.898 37.8935 994.898 37.6861C994.898 37.4759 994.976 37.2969 995.132 37.1491C995.291 36.9986 995.482 36.9233 995.703 36.9233C995.925 36.9233 996.114 36.9986 996.27 37.1491C996.429 37.2969 996.509 37.4759 996.509 37.6861C996.509 37.8935 996.429 38.0724 996.27 38.223C996.114 38.3707 995.925 38.4446 995.703 38.4446ZM1000.81 46.1321C1000.17 46.1321 999.626 45.9886 999.169 45.7017C998.714 45.4119 998.365 45.0128 998.12 44.5043C997.876 43.9957 997.754 43.4134 997.754 42.7571C997.754 42.0923 997.879 41.5057 998.129 40.9972C998.379 40.4858 998.731 40.0866 999.186 39.7997C999.64 39.5128 1000.18 39.3693 1000.79 39.3693C1001.29 39.3693 1001.73 39.4616 1002.12 39.6463C1002.51 39.8281 1002.82 40.0838 1003.06 40.4134C1003.31 40.7429 1003.45 41.1278 1003.49 41.5682H1002.25C1002.19 41.2614 1002.03 40.9972 1001.79 40.7756C1001.54 40.554 1001.22 40.4432 1000.81 40.4432C1000.46 40.4432 1000.15 40.5369 999.88 40.7244C999.616 40.9091 999.41 41.1733 999.262 41.517C999.115 41.858 999.041 42.2614 999.041 42.7273C999.041 43.2045 999.113 43.6165 999.258 43.9631C999.403 44.3097 999.608 44.5781 999.872 44.7685C1000.14 44.9588 1000.45 45.054 1000.81 45.054C1001.06 45.054 1001.27 45.0099 1001.47 44.9219C1001.67 44.831 1001.83 44.7017 1001.97 44.5341C1002.1 44.3665 1002.2 44.1648 1002.25 43.929H1003.49C1003.45 44.3523 1003.31 44.7301 1003.08 45.0625C1002.85 45.3949 1002.54 45.6562 1002.16 45.8466C1001.77 46.0369 1001.32 46.1321 1000.81 46.1321Z" fill="#111928"/>
<path d="M475.959 46V37.2727H477.276V44.8665H481.23V46H475.959ZM484.535 46.1449C484.12 46.1449 483.745 46.0682 483.41 45.9148C483.075 45.7585 482.809 45.5327 482.613 45.2372C482.42 44.9418 482.323 44.5795 482.323 44.1506C482.323 43.7812 482.394 43.4773 482.536 43.2386C482.678 43 482.87 42.8111 483.112 42.6719C483.353 42.5327 483.623 42.4276 483.921 42.3565C484.219 42.2855 484.523 42.2315 484.833 42.1946C485.225 42.1491 485.543 42.1122 485.788 42.0838C486.032 42.0526 486.21 42.0028 486.32 41.9347C486.431 41.8665 486.487 41.7557 486.487 41.6023V41.5724C486.487 41.2003 486.381 40.9119 486.171 40.7074C485.964 40.5028 485.654 40.4006 485.242 40.4006C484.813 40.4006 484.475 40.4957 484.228 40.6861C483.984 40.8736 483.815 41.0824 483.721 41.3125L482.523 41.0398C482.665 40.642 482.873 40.321 483.146 40.0767C483.421 39.8295 483.738 39.6506 484.096 39.5398C484.454 39.4261 484.83 39.3693 485.225 39.3693C485.487 39.3693 485.763 39.4006 486.056 39.4631C486.352 39.5227 486.627 39.6335 486.883 39.7955C487.141 39.9574 487.353 40.1889 487.518 40.4901C487.683 40.7884 487.765 41.1761 487.765 41.6534V46H486.521V45.1051H486.469C486.387 45.2699 486.263 45.4318 486.099 45.5909C485.934 45.75 485.722 45.8821 485.464 45.9872C485.205 46.0923 484.896 46.1449 484.535 46.1449ZM484.812 45.1222C485.164 45.1222 485.465 45.0526 485.715 44.9134C485.968 44.7741 486.16 44.5923 486.29 44.3679C486.424 44.1406 486.491 43.8977 486.491 43.6392V42.7955C486.445 42.8409 486.357 42.8835 486.227 42.9233C486.099 42.9602 485.952 42.9929 485.788 43.0213C485.623 43.0469 485.462 43.071 485.306 43.0938C485.15 43.1136 485.019 43.1307 484.914 43.1449C484.667 43.1761 484.441 43.2287 484.237 43.3026C484.035 43.3764 483.873 43.483 483.751 43.6222C483.631 43.7585 483.572 43.9403 483.572 44.1676C483.572 44.483 483.688 44.7216 483.921 44.8835C484.154 45.0426 484.451 45.1222 484.812 45.1222ZM494.367 41.0526L493.212 41.2571C493.164 41.1094 493.087 40.9687 492.982 40.8352C492.88 40.7017 492.74 40.5923 492.564 40.5071C492.388 40.4219 492.168 40.3793 491.904 40.3793C491.543 40.3793 491.242 40.4602 491 40.6222C490.759 40.7812 490.638 40.9872 490.638 41.2401C490.638 41.4588 490.719 41.6349 490.881 41.7685C491.043 41.902 491.304 42.0114 491.665 42.0966L492.705 42.3352C493.307 42.4744 493.756 42.6889 494.051 42.9787C494.347 43.2685 494.495 43.6449 494.495 44.108C494.495 44.5 494.381 44.8494 494.154 45.1562C493.929 45.4602 493.615 45.6989 493.212 45.8722C492.811 46.0455 492.347 46.1321 491.819 46.1321C491.086 46.1321 490.488 45.9759 490.025 45.6634C489.561 45.348 489.277 44.9006 489.172 44.321L490.404 44.1335C490.48 44.4545 490.638 44.6974 490.877 44.8622C491.115 45.0241 491.426 45.1051 491.81 45.1051C492.228 45.1051 492.561 45.0185 492.811 44.8452C493.061 44.669 493.186 44.4545 493.186 44.2017C493.186 43.9972 493.11 43.8253 492.956 43.6861C492.806 43.5469 492.574 43.4418 492.262 43.3707L491.154 43.1278C490.543 42.9886 490.091 42.767 489.799 42.4631C489.509 42.1591 489.364 41.7741 489.364 41.3082C489.364 40.9219 489.472 40.5838 489.688 40.294C489.904 40.0043 490.202 39.7784 490.583 39.6165C490.963 39.4517 491.4 39.3693 491.891 39.3693C492.598 39.3693 493.155 39.5227 493.561 39.8295C493.968 40.1335 494.236 40.5412 494.367 41.0526ZM498.951 39.4545V40.4773H495.376V39.4545H498.951ZM496.335 37.8864H497.609V44.0781C497.609 44.3253 497.646 44.5114 497.719 44.6364C497.793 44.7585 497.888 44.8423 498.005 44.8878C498.124 44.9304 498.254 44.9517 498.393 44.9517C498.495 44.9517 498.585 44.9446 498.661 44.9304C498.738 44.9162 498.798 44.9048 498.84 44.8963L499.07 45.9489C498.996 45.9773 498.891 46.0057 498.755 46.0341C498.619 46.0653 498.448 46.0824 498.244 46.0852C497.908 46.0909 497.596 46.0312 497.306 45.9062C497.016 45.7812 496.782 45.5881 496.603 45.3267C496.424 45.0653 496.335 44.7372 496.335 44.3423V37.8864ZM506.83 37.2727V46H505.509V38.5938H505.458L503.37 39.9574V38.696L505.548 37.2727H506.83ZM509.191 46V45.0455L512.144 41.9858C512.46 41.6534 512.719 41.3622 512.924 41.1122C513.131 40.8594 513.286 40.6193 513.388 40.392C513.491 40.1648 513.542 39.9233 513.542 39.6676C513.542 39.3778 513.474 39.1278 513.337 38.9176C513.201 38.7045 513.015 38.5412 512.779 38.4276C512.543 38.3111 512.278 38.2528 511.982 38.2528C511.67 38.2528 511.397 38.3168 511.164 38.4446C510.931 38.5724 510.752 38.7528 510.627 38.9858C510.502 39.2187 510.44 39.4915 510.44 39.804H509.183C509.183 39.2727 509.305 38.8082 509.549 38.4105C509.793 38.0128 510.129 37.7045 510.555 37.4858C510.981 37.2642 511.465 37.1534 512.008 37.1534C512.556 37.1534 513.039 37.2628 513.457 37.4815C513.877 37.6974 514.205 37.9929 514.441 38.3679C514.677 38.7401 514.795 39.1605 514.795 39.6293C514.795 39.9531 514.734 40.2699 514.612 40.5795C514.492 40.8892 514.283 41.2344 513.985 41.6151C513.687 41.9929 513.272 42.4517 512.741 42.9915L511.006 44.8068V44.8707H514.935V46H509.191ZM521.017 42.1136V46H519.743V37.2727H521V40.5199H521.081C521.235 40.1676 521.469 39.8878 521.784 39.6804C522.1 39.473 522.512 39.3693 523.02 39.3693C523.469 39.3693 523.861 39.4616 524.196 39.6463C524.534 39.831 524.796 40.1065 524.98 40.473C525.168 40.8366 525.262 41.2912 525.262 41.8366V46H523.988V41.9901C523.988 41.5099 523.864 41.1378 523.617 40.8736C523.37 40.6065 523.026 40.473 522.586 40.473C522.284 40.473 522.015 40.5369 521.776 40.6648C521.54 40.7926 521.354 40.9801 521.218 41.2273C521.084 41.4716 521.017 41.767 521.017 42.1136ZM526.962 46V39.4545H528.194V40.4943H528.262C528.381 40.142 528.591 39.8651 528.892 39.6634C529.196 39.4588 529.54 39.3565 529.924 39.3565C530.003 39.3565 530.097 39.3594 530.205 39.3651C530.316 39.3707 530.402 39.3778 530.465 39.3864V40.6051C530.414 40.5909 530.323 40.5753 530.192 40.5582C530.061 40.5384 529.931 40.5284 529.8 40.5284C529.499 40.5284 529.23 40.5923 528.995 40.7202C528.762 40.8452 528.577 41.0199 528.441 41.2443C528.304 41.4659 528.236 41.7187 528.236 42.0028V46H526.962ZM536.472 41.0526L535.317 41.2571C535.269 41.1094 535.192 40.9687 535.087 40.8352C534.985 40.7017 534.846 40.5923 534.67 40.5071C534.494 40.4219 534.273 40.3793 534.009 40.3793C533.648 40.3793 533.347 40.4602 533.106 40.6222C532.864 40.7812 532.744 40.9872 532.744 41.2401C532.744 41.4588 532.825 41.6349 532.987 41.7685C533.148 41.902 533.41 42.0114 533.771 42.0966L534.81 42.3352C535.413 42.4744 535.862 42.6889 536.157 42.9787C536.452 43.2685 536.6 43.6449 536.6 44.108C536.6 44.5 536.487 44.8494 536.259 45.1562C536.035 45.4602 535.721 45.6989 535.317 45.8722C534.917 46.0455 534.452 46.1321 533.924 46.1321C533.191 46.1321 532.593 45.9759 532.13 45.6634C531.667 45.348 531.383 44.9006 531.278 44.321L532.509 44.1335C532.586 44.4545 532.744 44.6974 532.982 44.8622C533.221 45.0241 533.532 45.1051 533.915 45.1051C534.333 45.1051 534.667 45.0185 534.917 44.8452C535.167 44.669 535.292 44.4545 535.292 44.2017C535.292 43.9972 535.215 43.8253 535.062 43.6861C534.911 43.5469 534.68 43.4418 534.367 43.3707L533.259 43.1278C532.648 42.9886 532.197 42.767 531.904 42.4631C531.614 42.1591 531.469 41.7741 531.469 41.3082C531.469 40.9219 531.577 40.5838 531.793 40.294C532.009 40.0043 532.308 39.7784 532.688 39.6165C533.069 39.4517 533.505 39.3693 533.996 39.3693C534.704 39.3693 535.261 39.5227 535.667 39.8295C536.073 40.1335 536.342 40.5412 536.472 41.0526Z" fill="#111928"/>
<path d="M307.959 46V37.2727H309.276V44.8665H313.23V46H307.959ZM316.535 46.1449C316.12 46.1449 315.745 46.0682 315.41 45.9148C315.075 45.7585 314.809 45.5327 314.613 45.2372C314.42 44.9418 314.323 44.5795 314.323 44.1506C314.323 43.7812 314.394 43.4773 314.536 43.2386C314.678 43 314.87 42.8111 315.112 42.6719C315.353 42.5327 315.623 42.4276 315.921 42.3565C316.219 42.2855 316.523 42.2315 316.833 42.1946C317.225 42.1491 317.543 42.1122 317.788 42.0838C318.032 42.0526 318.21 42.0028 318.32 41.9347C318.431 41.8665 318.487 41.7557 318.487 41.6023V41.5724C318.487 41.2003 318.381 40.9119 318.171 40.7074C317.964 40.5028 317.654 40.4006 317.242 40.4006C316.813 40.4006 316.475 40.4957 316.228 40.6861C315.984 40.8736 315.815 41.0824 315.721 41.3125L314.523 41.0398C314.665 40.642 314.873 40.321 315.146 40.0767C315.421 39.8295 315.738 39.6506 316.096 39.5398C316.454 39.4261 316.83 39.3693 317.225 39.3693C317.487 39.3693 317.763 39.4006 318.056 39.4631C318.352 39.5227 318.627 39.6335 318.883 39.7955C319.141 39.9574 319.353 40.1889 319.518 40.4901C319.683 40.7884 319.765 41.1761 319.765 41.6534V46H318.521V45.1051H318.469C318.387 45.2699 318.263 45.4318 318.099 45.5909C317.934 45.75 317.722 45.8821 317.464 45.9872C317.205 46.0923 316.896 46.1449 316.535 46.1449ZM316.812 45.1222C317.164 45.1222 317.465 45.0526 317.715 44.9134C317.968 44.7741 318.16 44.5923 318.29 44.3679C318.424 44.1406 318.491 43.8977 318.491 43.6392V42.7955C318.445 42.8409 318.357 42.8835 318.227 42.9233C318.099 42.9602 317.952 42.9929 317.788 43.0213C317.623 43.0469 317.462 43.071 317.306 43.0938C317.15 43.1136 317.019 43.1307 316.914 43.1449C316.667 43.1761 316.441 43.2287 316.237 43.3026C316.035 43.3764 315.873 43.483 315.751 43.6222C315.631 43.7585 315.572 43.9403 315.572 44.1676C315.572 44.483 315.688 44.7216 315.921 44.8835C316.154 45.0426 316.451 45.1222 316.812 45.1222ZM326.367 41.0526L325.212 41.2571C325.164 41.1094 325.087 40.9687 324.982 40.8352C324.88 40.7017 324.74 40.5923 324.564 40.5071C324.388 40.4219 324.168 40.3793 323.904 40.3793C323.543 40.3793 323.242 40.4602 323 40.6222C322.759 40.7812 322.638 40.9872 322.638 41.2401C322.638 41.4588 322.719 41.6349 322.881 41.7685C323.043 41.902 323.304 42.0114 323.665 42.0966L324.705 42.3352C325.307 42.4744 325.756 42.6889 326.051 42.9787C326.347 43.2685 326.495 43.6449 326.495 44.108C326.495 44.5 326.381 44.8494 326.154 45.1562C325.929 45.4602 325.615 45.6989 325.212 45.8722C324.811 46.0455 324.347 46.1321 323.819 46.1321C323.086 46.1321 322.488 45.9759 322.025 45.6634C321.561 45.348 321.277 44.9006 321.172 44.321L322.404 44.1335C322.48 44.4545 322.638 44.6974 322.877 44.8622C323.115 45.0241 323.426 45.1051 323.81 45.1051C324.228 45.1051 324.561 45.0185 324.811 44.8452C325.061 44.669 325.186 44.4545 325.186 44.2017C325.186 43.9972 325.11 43.8253 324.956 43.6861C324.806 43.5469 324.574 43.4418 324.262 43.3707L323.154 43.1278C322.543 42.9886 322.091 42.767 321.799 42.4631C321.509 42.1591 321.364 41.7741 321.364 41.3082C321.364 40.9219 321.472 40.5838 321.688 40.294C321.904 40.0043 322.202 39.7784 322.583 39.6165C322.963 39.4517 323.4 39.3693 323.891 39.3693C324.598 39.3693 325.155 39.5227 325.561 39.8295C325.968 40.1335 326.236 40.5412 326.367 41.0526ZM330.951 39.4545V40.4773H327.376V39.4545H330.951ZM328.335 37.8864H329.609V44.0781C329.609 44.3253 329.646 44.5114 329.719 44.6364C329.793 44.7585 329.888 44.8423 330.005 44.8878C330.124 44.9304 330.254 44.9517 330.393 44.9517C330.495 44.9517 330.585 44.9446 330.661 44.9304C330.738 44.9162 330.798 44.9048 330.84 44.8963L331.07 45.9489C330.996 45.9773 330.891 46.0057 330.755 46.0341C330.619 46.0653 330.448 46.0824 330.244 46.0852C329.908 46.0909 329.596 46.0312 329.306 45.9062C329.016 45.7812 328.782 45.5881 328.603 45.3267C328.424 45.0653 328.335 44.7372 328.335 44.3423V37.8864ZM338.83 37.2727V46H337.509V38.5938H337.458L335.37 39.9574V38.696L337.548 37.2727H338.83ZM341.191 46V45.0455L344.144 41.9858C344.46 41.6534 344.719 41.3622 344.924 41.1122C345.131 40.8594 345.286 40.6193 345.388 40.392C345.491 40.1648 345.542 39.9233 345.542 39.6676C345.542 39.3778 345.474 39.1278 345.337 38.9176C345.201 38.7045 345.015 38.5412 344.779 38.4276C344.543 38.3111 344.278 38.2528 343.982 38.2528C343.67 38.2528 343.397 38.3168 343.164 38.4446C342.931 38.5724 342.752 38.7528 342.627 38.9858C342.502 39.2187 342.44 39.4915 342.44 39.804H341.183C341.183 39.2727 341.305 38.8082 341.549 38.4105C341.793 38.0128 342.129 37.7045 342.555 37.4858C342.981 37.2642 343.465 37.1534 344.008 37.1534C344.556 37.1534 345.039 37.2628 345.457 37.4815C345.877 37.6974 346.205 37.9929 346.441 38.3679C346.677 38.7401 346.795 39.1605 346.795 39.6293C346.795 39.9531 346.734 40.2699 346.612 40.5795C346.492 40.8892 346.283 41.2344 345.985 41.6151C345.687 41.9929 345.272 42.4517 344.741 42.9915L343.006 44.8068V44.8707H346.935V46H341.191ZM353.017 42.1136V46H351.743V37.2727H353V40.5199H353.081C353.235 40.1676 353.469 39.8878 353.784 39.6804C354.1 39.473 354.512 39.3693 355.02 39.3693C355.469 39.3693 355.861 39.4616 356.196 39.6463C356.534 39.831 356.796 40.1065 356.98 40.473C357.168 40.8366 357.262 41.2912 357.262 41.8366V46H355.988V41.9901C355.988 41.5099 355.864 41.1378 355.617 40.8736C355.37 40.6065 355.026 40.473 354.586 40.473C354.284 40.473 354.015 40.5369 353.776 40.6648C353.54 40.7926 353.354 40.9801 353.218 41.2273C353.084 41.4716 353.017 41.767 353.017 42.1136ZM358.962 46V39.4545H360.194V40.4943H360.262C360.381 40.142 360.591 39.8651 360.892 39.6634C361.196 39.4588 361.54 39.3565 361.924 39.3565C362.003 39.3565 362.097 39.3594 362.205 39.3651C362.316 39.3707 362.402 39.3778 362.465 39.3864V40.6051C362.414 40.5909 362.323 40.5753 362.192 40.5582C362.061 40.5384 361.931 40.5284 361.8 40.5284C361.499 40.5284 361.23 40.5923 360.995 40.7202C360.762 40.8452 360.577 41.0199 360.441 41.2443C360.304 41.4659 360.236 41.7187 360.236 42.0028V46H358.962ZM368.472 41.0526L367.317 41.2571C367.269 41.1094 367.192 40.9687 367.087 40.8352C366.985 40.7017 366.846 40.5923 366.67 40.5071C366.494 40.4219 366.273 40.3793 366.009 40.3793C365.648 40.3793 365.347 40.4602 365.106 40.6222C364.864 40.7812 364.744 40.9872 364.744 41.2401C364.744 41.4588 364.825 41.6349 364.987 41.7685C365.148 41.902 365.41 42.0114 365.771 42.0966L366.81 42.3352C367.413 42.4744 367.862 42.6889 368.157 42.9787C368.452 43.2685 368.6 43.6449 368.6 44.108C368.6 44.5 368.487 44.8494 368.259 45.1562C368.035 45.4602 367.721 45.6989 367.317 45.8722C366.917 46.0455 366.452 46.1321 365.924 46.1321C365.191 46.1321 364.593 45.9759 364.13 45.6634C363.667 45.348 363.383 44.9006 363.278 44.321L364.509 44.1335C364.586 44.4545 364.744 44.6974 364.982 44.8622C365.221 45.0241 365.532 45.1051 365.915 45.1051C366.333 45.1051 366.667 45.0185 366.917 44.8452C367.167 44.669 367.292 44.4545 367.292 44.2017C367.292 43.9972 367.215 43.8253 367.062 43.6861C366.911 43.5469 366.68 43.4418 366.367 43.3707L365.259 43.1278C364.648 42.9886 364.197 42.767 363.904 42.4631C363.614 42.1591 363.469 41.7741 363.469 41.3082C363.469 40.9219 363.577 40.5838 363.793 40.294C364.009 40.0043 364.308 39.7784 364.688 39.6165C365.069 39.4517 365.505 39.3693 365.996 39.3693C366.704 39.3693 367.261 39.5227 367.667 39.8295C368.073 40.1335 368.342 40.5412 368.472 41.0526Z" fill="#111928"/>
<path d="M667.959 46V37.2727H669.276V44.8665H673.23V46H667.959ZM676.535 46.1449C676.12 46.1449 675.745 46.0682 675.41 45.9148C675.075 45.7585 674.809 45.5327 674.613 45.2372C674.42 44.9418 674.323 44.5795 674.323 44.1506C674.323 43.7812 674.394 43.4773 674.536 43.2386C674.678 43 674.87 42.8111 675.112 42.6719C675.353 42.5327 675.623 42.4276 675.921 42.3565C676.219 42.2855 676.523 42.2315 676.833 42.1946C677.225 42.1491 677.543 42.1122 677.788 42.0838C678.032 42.0526 678.21 42.0028 678.32 41.9347C678.431 41.8665 678.487 41.7557 678.487 41.6023V41.5724C678.487 41.2003 678.381 40.9119 678.171 40.7074C677.964 40.5028 677.654 40.4006 677.242 40.4006C676.813 40.4006 676.475 40.4957 676.228 40.6861C675.984 40.8736 675.815 41.0824 675.721 41.3125L674.523 41.0398C674.665 40.642 674.873 40.321 675.146 40.0767C675.421 39.8295 675.738 39.6506 676.096 39.5398C676.454 39.4261 676.83 39.3693 677.225 39.3693C677.487 39.3693 677.763 39.4006 678.056 39.4631C678.352 39.5227 678.627 39.6335 678.883 39.7955C679.141 39.9574 679.353 40.1889 679.518 40.4901C679.683 40.7884 679.765 41.1761 679.765 41.6534V46H678.521V45.1051H678.469C678.387 45.2699 678.263 45.4318 678.099 45.5909C677.934 45.75 677.722 45.8821 677.464 45.9872C677.205 46.0923 676.896 46.1449 676.535 46.1449ZM676.812 45.1222C677.164 45.1222 677.465 45.0526 677.715 44.9134C677.968 44.7741 678.16 44.5923 678.29 44.3679C678.424 44.1406 678.491 43.8977 678.491 43.6392V42.7955C678.445 42.8409 678.357 42.8835 678.227 42.9233C678.099 42.9602 677.952 42.9929 677.788 43.0213C677.623 43.0469 677.462 43.071 677.306 43.0938C677.15 43.1136 677.019 43.1307 676.914 43.1449C676.667 43.1761 676.441 43.2287 676.237 43.3026C676.035 43.3764 675.873 43.483 675.751 43.6222C675.631 43.7585 675.572 43.9403 675.572 44.1676C675.572 44.483 675.688 44.7216 675.921 44.8835C676.154 45.0426 676.451 45.1222 676.812 45.1222ZM686.367 41.0526L685.212 41.2571C685.164 41.1094 685.087 40.9687 684.982 40.8352C684.88 40.7017 684.74 40.5923 684.564 40.5071C684.388 40.4219 684.168 40.3793 683.904 40.3793C683.543 40.3793 683.242 40.4602 683 40.6222C682.759 40.7812 682.638 40.9872 682.638 41.2401C682.638 41.4588 682.719 41.6349 682.881 41.7685C683.043 41.902 683.304 42.0114 683.665 42.0966L684.705 42.3352C685.307 42.4744 685.756 42.6889 686.051 42.9787C686.347 43.2685 686.495 43.6449 686.495 44.108C686.495 44.5 686.381 44.8494 686.154 45.1562C685.929 45.4602 685.615 45.6989 685.212 45.8722C684.811 46.0455 684.347 46.1321 683.819 46.1321C683.086 46.1321 682.488 45.9759 682.025 45.6634C681.561 45.348 681.277 44.9006 681.172 44.321L682.404 44.1335C682.48 44.4545 682.638 44.6974 682.877 44.8622C683.115 45.0241 683.426 45.1051 683.81 45.1051C684.228 45.1051 684.561 45.0185 684.811 44.8452C685.061 44.669 685.186 44.4545 685.186 44.2017C685.186 43.9972 685.11 43.8253 684.956 43.6861C684.806 43.5469 684.574 43.4418 684.262 43.3707L683.154 43.1278C682.543 42.9886 682.091 42.767 681.799 42.4631C681.509 42.1591 681.364 41.7741 681.364 41.3082C681.364 40.9219 681.472 40.5838 681.688 40.294C681.904 40.0043 682.202 39.7784 682.583 39.6165C682.963 39.4517 683.4 39.3693 683.891 39.3693C684.598 39.3693 685.155 39.5227 685.561 39.8295C685.968 40.1335 686.236 40.5412 686.367 41.0526ZM690.951 39.4545V40.4773H687.376V39.4545H690.951ZM688.335 37.8864H689.609V44.0781C689.609 44.3253 689.646 44.5114 689.719 44.6364C689.793 44.7585 689.888 44.8423 690.005 44.8878C690.124 44.9304 690.254 44.9517 690.393 44.9517C690.495 44.9517 690.585 44.9446 690.661 44.9304C690.738 44.9162 690.798 44.9048 690.84 44.8963L691.07 45.9489C690.996 45.9773 690.891 46.0057 690.755 46.0341C690.619 46.0653 690.448 46.0824 690.244 46.0852C689.908 46.0909 689.596 46.0312 689.306 45.9062C689.016 45.7812 688.782 45.5881 688.603 45.3267C688.424 45.0653 688.335 44.7372 688.335 44.3423V37.8864ZM698.83 37.2727V46H697.509V38.5938H697.458L695.37 39.9574V38.696L697.548 37.2727H698.83ZM701.191 46V45.0455L704.144 41.9858C704.46 41.6534 704.719 41.3622 704.924 41.1122C705.131 40.8594 705.286 40.6193 705.388 40.392C705.491 40.1648 705.542 39.9233 705.542 39.6676C705.542 39.3778 705.474 39.1278 705.337 38.9176C705.201 38.7045 705.015 38.5412 704.779 38.4276C704.543 38.3111 704.278 38.2528 703.982 38.2528C703.67 38.2528 703.397 38.3168 703.164 38.4446C702.931 38.5724 702.752 38.7528 702.627 38.9858C702.502 39.2187 702.44 39.4915 702.44 39.804H701.183C701.183 39.2727 701.305 38.8082 701.549 38.4105C701.793 38.0128 702.129 37.7045 702.555 37.4858C702.981 37.2642 703.465 37.1534 704.008 37.1534C704.556 37.1534 705.039 37.2628 705.457 37.4815C705.877 37.6974 706.205 37.9929 706.441 38.3679C706.677 38.7401 706.795 39.1605 706.795 39.6293C706.795 39.9531 706.734 40.2699 706.612 40.5795C706.492 40.8892 706.283 41.2344 705.985 41.6151C705.687 41.9929 705.272 42.4517 704.741 42.9915L703.006 44.8068V44.8707H706.935V46H701.191ZM713.017 42.1136V46H711.743V37.2727H713V40.5199H713.081C713.235 40.1676 713.469 39.8878 713.784 39.6804C714.1 39.473 714.512 39.3693 715.02 39.3693C715.469 39.3693 715.861 39.4616 716.196 39.6463C716.534 39.831 716.796 40.1065 716.98 40.473C717.168 40.8366 717.262 41.2912 717.262 41.8366V46H715.988V41.9901C715.988 41.5099 715.864 41.1378 715.617 40.8736C715.37 40.6065 715.026 40.473 714.586 40.473C714.284 40.473 714.015 40.5369 713.776 40.6648C713.54 40.7926 713.354 40.9801 713.218 41.2273C713.084 41.4716 713.017 41.767 713.017 42.1136ZM718.962 46V39.4545H720.194V40.4943H720.262C720.381 40.142 720.591 39.8651 720.892 39.6634C721.196 39.4588 721.54 39.3565 721.924 39.3565C722.003 39.3565 722.097 39.3594 722.205 39.3651C722.316 39.3707 722.402 39.3778 722.465 39.3864V40.6051C722.414 40.5909 722.323 40.5753 722.192 40.5582C722.061 40.5384 721.931 40.5284 721.8 40.5284C721.499 40.5284 721.23 40.5923 720.995 40.7202C720.762 40.8452 720.577 41.0199 720.441 41.2443C720.304 41.4659 720.236 41.7187 720.236 42.0028V46H718.962ZM728.472 41.0526L727.317 41.2571C727.269 41.1094 727.192 40.9687 727.087 40.8352C726.985 40.7017 726.846 40.5923 726.67 40.5071C726.494 40.4219 726.273 40.3793 726.009 40.3793C725.648 40.3793 725.347 40.4602 725.106 40.6222C724.864 40.7812 724.744 40.9872 724.744 41.2401C724.744 41.4588 724.825 41.6349 724.987 41.7685C725.148 41.902 725.41 42.0114 725.771 42.0966L726.81 42.3352C727.413 42.4744 727.862 42.6889 728.157 42.9787C728.452 43.2685 728.6 43.6449 728.6 44.108C728.6 44.5 728.487 44.8494 728.259 45.1562C728.035 45.4602 727.721 45.6989 727.317 45.8722C726.917 46.0455 726.452 46.1321 725.924 46.1321C725.191 46.1321 724.593 45.9759 724.13 45.6634C723.667 45.348 723.383 44.9006 723.278 44.321L724.509 44.1335C724.586 44.4545 724.744 44.6974 724.982 44.8622C725.221 45.0241 725.532 45.1051 725.915 45.1051C726.333 45.1051 726.667 45.0185 726.917 44.8452C727.167 44.669 727.292 44.4545 727.292 44.2017C727.292 43.9972 727.215 43.8253 727.062 43.6861C726.911 43.5469 726.68 43.4418 726.367 43.3707L725.259 43.1278C724.648 42.9886 724.197 42.767 723.904 42.4631C723.614 42.1591 723.469 41.7741 723.469 41.3082C723.469 40.9219 723.577 40.5838 723.793 40.294C724.009 40.0043 724.308 39.7784 724.688 39.6165C725.069 39.4517 725.505 39.3693 725.996 39.3693C726.704 39.3693 727.261 39.5227 727.667 39.8295C728.073 40.1335 728.342 40.5412 728.472 41.0526Z" fill="#111928"/>
<path d="M849.959 46V37.2727H851.276V44.8665H855.23V46H849.959ZM858.535 46.1449C858.12 46.1449 857.745 46.0682 857.41 45.9148C857.075 45.7585 856.809 45.5327 856.613 45.2372C856.42 44.9418 856.323 44.5795 856.323 44.1506C856.323 43.7812 856.394 43.4773 856.536 43.2386C856.678 43 856.87 42.8111 857.112 42.6719C857.353 42.5327 857.623 42.4276 857.921 42.3565C858.219 42.2855 858.523 42.2315 858.833 42.1946C859.225 42.1491 859.543 42.1122 859.788 42.0838C860.032 42.0526 860.21 42.0028 860.32 41.9347C860.431 41.8665 860.487 41.7557 860.487 41.6023V41.5724C860.487 41.2003 860.381 40.9119 860.171 40.7074C859.964 40.5028 859.654 40.4006 859.242 40.4006C858.813 40.4006 858.475 40.4957 858.228 40.6861C857.984 40.8736 857.815 41.0824 857.721 41.3125L856.523 41.0398C856.665 40.642 856.873 40.321 857.146 40.0767C857.421 39.8295 857.738 39.6506 858.096 39.5398C858.454 39.4261 858.83 39.3693 859.225 39.3693C859.487 39.3693 859.763 39.4006 860.056 39.4631C860.352 39.5227 860.627 39.6335 860.883 39.7955C861.141 39.9574 861.353 40.1889 861.518 40.4901C861.683 40.7884 861.765 41.1761 861.765 41.6534V46H860.521V45.1051H860.469C860.387 45.2699 860.263 45.4318 860.099 45.5909C859.934 45.75 859.722 45.8821 859.464 45.9872C859.205 46.0923 858.896 46.1449 858.535 46.1449ZM858.812 45.1222C859.164 45.1222 859.465 45.0526 859.715 44.9134C859.968 44.7741 860.16 44.5923 860.29 44.3679C860.424 44.1406 860.491 43.8977 860.491 43.6392V42.7955C860.445 42.8409 860.357 42.8835 860.227 42.9233C860.099 42.9602 859.952 42.9929 859.788 43.0213C859.623 43.0469 859.462 43.071 859.306 43.0938C859.15 43.1136 859.019 43.1307 858.914 43.1449C858.667 43.1761 858.441 43.2287 858.237 43.3026C858.035 43.3764 857.873 43.483 857.751 43.6222C857.631 43.7585 857.572 43.9403 857.572 44.1676C857.572 44.483 857.688 44.7216 857.921 44.8835C858.154 45.0426 858.451 45.1222 858.812 45.1222ZM868.367 41.0526L867.212 41.2571C867.164 41.1094 867.087 40.9687 866.982 40.8352C866.88 40.7017 866.74 40.5923 866.564 40.5071C866.388 40.4219 866.168 40.3793 865.904 40.3793C865.543 40.3793 865.242 40.4602 865 40.6222C864.759 40.7812 864.638 40.9872 864.638 41.2401C864.638 41.4588 864.719 41.6349 864.881 41.7685C865.043 41.902 865.304 42.0114 865.665 42.0966L866.705 42.3352C867.307 42.4744 867.756 42.6889 868.051 42.9787C868.347 43.2685 868.495 43.6449 868.495 44.108C868.495 44.5 868.381 44.8494 868.154 45.1562C867.929 45.4602 867.615 45.6989 867.212 45.8722C866.811 46.0455 866.347 46.1321 865.819 46.1321C865.086 46.1321 864.488 45.9759 864.025 45.6634C863.561 45.348 863.277 44.9006 863.172 44.321L864.404 44.1335C864.48 44.4545 864.638 44.6974 864.877 44.8622C865.115 45.0241 865.426 45.1051 865.81 45.1051C866.228 45.1051 866.561 45.0185 866.811 44.8452C867.061 44.669 867.186 44.4545 867.186 44.2017C867.186 43.9972 867.11 43.8253 866.956 43.6861C866.806 43.5469 866.574 43.4418 866.262 43.3707L865.154 43.1278C864.543 42.9886 864.091 42.767 863.799 42.4631C863.509 42.1591 863.364 41.7741 863.364 41.3082C863.364 40.9219 863.472 40.5838 863.688 40.294C863.904 40.0043 864.202 39.7784 864.583 39.6165C864.963 39.4517 865.4 39.3693 865.891 39.3693C866.598 39.3693 867.155 39.5227 867.561 39.8295C867.968 40.1335 868.236 40.5412 868.367 41.0526ZM872.951 39.4545V40.4773H869.376V39.4545H872.951ZM870.335 37.8864H871.609V44.0781C871.609 44.3253 871.646 44.5114 871.719 44.6364C871.793 44.7585 871.888 44.8423 872.005 44.8878C872.124 44.9304 872.254 44.9517 872.393 44.9517C872.495 44.9517 872.585 44.9446 872.661 44.9304C872.738 44.9162 872.798 44.9048 872.84 44.8963L873.07 45.9489C872.996 45.9773 872.891 46.0057 872.755 46.0341C872.619 46.0653 872.448 46.0824 872.244 46.0852C871.908 46.0909 871.596 46.0312 871.306 45.9062C871.016 45.7812 870.782 45.5881 870.603 45.3267C870.424 45.0653 870.335 44.7372 870.335 44.3423V37.8864ZM880.83 37.2727V46H879.509V38.5938H879.458L877.37 39.9574V38.696L879.548 37.2727H880.83ZM883.191 46V45.0455L886.144 41.9858C886.46 41.6534 886.719 41.3622 886.924 41.1122C887.131 40.8594 887.286 40.6193 887.388 40.392C887.491 40.1648 887.542 39.9233 887.542 39.6676C887.542 39.3778 887.474 39.1278 887.337 38.9176C887.201 38.7045 887.015 38.5412 886.779 38.4276C886.543 38.3111 886.278 38.2528 885.982 38.2528C885.67 38.2528 885.397 38.3168 885.164 38.4446C884.931 38.5724 884.752 38.7528 884.627 38.9858C884.502 39.2187 884.44 39.4915 884.44 39.804H883.183C883.183 39.2727 883.305 38.8082 883.549 38.4105C883.793 38.0128 884.129 37.7045 884.555 37.4858C884.981 37.2642 885.465 37.1534 886.008 37.1534C886.556 37.1534 887.039 37.2628 887.457 37.4815C887.877 37.6974 888.205 37.9929 888.441 38.3679C888.677 38.7401 888.795 39.1605 888.795 39.6293C888.795 39.9531 888.734 40.2699 888.612 40.5795C888.492 40.8892 888.283 41.2344 887.985 41.6151C887.687 41.9929 887.272 42.4517 886.741 42.9915L885.006 44.8068V44.8707H888.935V46H883.191ZM895.017 42.1136V46H893.743V37.2727H895V40.5199H895.081C895.235 40.1676 895.469 39.8878 895.784 39.6804C896.1 39.473 896.512 39.3693 897.02 39.3693C897.469 39.3693 897.861 39.4616 898.196 39.6463C898.534 39.831 898.796 40.1065 898.98 40.473C899.168 40.8366 899.262 41.2912 899.262 41.8366V46H897.988V41.9901C897.988 41.5099 897.864 41.1378 897.617 40.8736C897.37 40.6065 897.026 40.473 896.586 40.473C896.284 40.473 896.015 40.5369 895.776 40.6648C895.54 40.7926 895.354 40.9801 895.218 41.2273C895.084 41.4716 895.017 41.767 895.017 42.1136ZM900.962 46V39.4545H902.194V40.4943H902.262C902.381 40.142 902.591 39.8651 902.892 39.6634C903.196 39.4588 903.54 39.3565 903.924 39.3565C904.003 39.3565 904.097 39.3594 904.205 39.3651C904.316 39.3707 904.402 39.3778 904.465 39.3864V40.6051C904.414 40.5909 904.323 40.5753 904.192 40.5582C904.061 40.5384 903.931 40.5284 903.8 40.5284C903.499 40.5284 903.23 40.5923 902.995 40.7202C902.762 40.8452 902.577 41.0199 902.441 41.2443C902.304 41.4659 902.236 41.7187 902.236 42.0028V46H900.962ZM910.472 41.0526L909.317 41.2571C909.269 41.1094 909.192 40.9687 909.087 40.8352C908.985 40.7017 908.846 40.5923 908.67 40.5071C908.494 40.4219 908.273 40.3793 908.009 40.3793C907.648 40.3793 907.347 40.4602 907.106 40.6222C906.864 40.7812 906.744 40.9872 906.744 41.2401C906.744 41.4588 906.825 41.6349 906.987 41.7685C907.148 41.902 907.41 42.0114 907.771 42.0966L908.81 42.3352C909.413 42.4744 909.862 42.6889 910.157 42.9787C910.452 43.2685 910.6 43.6449 910.6 44.108C910.6 44.5 910.487 44.8494 910.259 45.1562C910.035 45.4602 909.721 45.6989 909.317 45.8722C908.917 46.0455 908.452 46.1321 907.924 46.1321C907.191 46.1321 906.593 45.9759 906.13 45.6634C905.667 45.348 905.383 44.9006 905.278 44.321L906.509 44.1335C906.586 44.4545 906.744 44.6974 906.982 44.8622C907.221 45.0241 907.532 45.1051 907.915 45.1051C908.333 45.1051 908.667 45.0185 908.917 44.8452C909.167 44.669 909.292 44.4545 909.292 44.2017C909.292 43.9972 909.215 43.8253 909.062 43.6861C908.911 43.5469 908.68 43.4418 908.367 43.3707L907.259 43.1278C906.648 42.9886 906.197 42.767 905.904 42.4631C905.614 42.1591 905.469 41.7741 905.469 41.3082C905.469 40.9219 905.577 40.5838 905.793 40.294C906.009 40.0043 906.308 39.7784 906.688 39.6165C907.069 39.4517 907.505 39.3693 907.996 39.3693C908.704 39.3693 909.261 39.5227 909.667 39.8295C910.073 40.1335 910.342 40.5412 910.472 41.0526Z" fill="#111928"/>
<path d="M1021.96 46V37.2727H1023.28V44.8665H1027.23V46H1021.96ZM1030.53 46.1449C1030.12 46.1449 1029.75 46.0682 1029.41 45.9148C1029.07 45.7585 1028.81 45.5327 1028.61 45.2372C1028.42 44.9418 1028.32 44.5795 1028.32 44.1506C1028.32 43.7812 1028.39 43.4773 1028.54 43.2386C1028.68 43 1028.87 42.8111 1029.11 42.6719C1029.35 42.5327 1029.62 42.4276 1029.92 42.3565C1030.22 42.2855 1030.52 42.2315 1030.83 42.1946C1031.23 42.1491 1031.54 42.1122 1031.79 42.0838C1032.03 42.0526 1032.21 42.0028 1032.32 41.9347C1032.43 41.8665 1032.49 41.7557 1032.49 41.6023V41.5724C1032.49 41.2003 1032.38 40.9119 1032.17 40.7074C1031.96 40.5028 1031.65 40.4006 1031.24 40.4006C1030.81 40.4006 1030.48 40.4957 1030.23 40.6861C1029.98 40.8736 1029.81 41.0824 1029.72 41.3125L1028.52 41.0398C1028.67 40.642 1028.87 40.321 1029.15 40.0767C1029.42 39.8295 1029.74 39.6506 1030.1 39.5398C1030.45 39.4261 1030.83 39.3693 1031.23 39.3693C1031.49 39.3693 1031.76 39.4006 1032.06 39.4631C1032.35 39.5227 1032.63 39.6335 1032.88 39.7955C1033.14 39.9574 1033.35 40.1889 1033.52 40.4901C1033.68 40.7884 1033.76 41.1761 1033.76 41.6534V46H1032.52V45.1051H1032.47C1032.39 45.2699 1032.26 45.4318 1032.1 45.5909C1031.93 45.75 1031.72 45.8821 1031.46 45.9872C1031.21 46.0923 1030.9 46.1449 1030.53 46.1449ZM1030.81 45.1222C1031.16 45.1222 1031.47 45.0526 1031.72 44.9134C1031.97 44.7741 1032.16 44.5923 1032.29 44.3679C1032.42 44.1406 1032.49 43.8977 1032.49 43.6392V42.7955C1032.45 42.8409 1032.36 42.8835 1032.23 42.9233C1032.1 42.9602 1031.95 42.9929 1031.79 43.0213C1031.62 43.0469 1031.46 43.071 1031.31 43.0938C1031.15 43.1136 1031.02 43.1307 1030.91 43.1449C1030.67 43.1761 1030.44 43.2287 1030.24 43.3026C1030.03 43.3764 1029.87 43.483 1029.75 43.6222C1029.63 43.7585 1029.57 43.9403 1029.57 44.1676C1029.57 44.483 1029.69 44.7216 1029.92 44.8835C1030.15 45.0426 1030.45 45.1222 1030.81 45.1222ZM1040.37 41.0526L1039.21 41.2571C1039.16 41.1094 1039.09 40.9687 1038.98 40.8352C1038.88 40.7017 1038.74 40.5923 1038.56 40.5071C1038.39 40.4219 1038.17 40.3793 1037.9 40.3793C1037.54 40.3793 1037.24 40.4602 1037 40.6222C1036.76 40.7812 1036.64 40.9872 1036.64 41.2401C1036.64 41.4588 1036.72 41.6349 1036.88 41.7685C1037.04 41.902 1037.3 42.0114 1037.67 42.0966L1038.7 42.3352C1039.31 42.4744 1039.76 42.6889 1040.05 42.9787C1040.35 43.2685 1040.49 43.6449 1040.49 44.108C1040.49 44.5 1040.38 44.8494 1040.15 45.1562C1039.93 45.4602 1039.62 45.6989 1039.21 45.8722C1038.81 46.0455 1038.35 46.1321 1037.82 46.1321C1037.09 46.1321 1036.49 45.9759 1036.02 45.6634C1035.56 45.348 1035.28 44.9006 1035.17 44.321L1036.4 44.1335C1036.48 44.4545 1036.64 44.6974 1036.88 44.8622C1037.12 45.0241 1037.43 45.1051 1037.81 45.1051C1038.23 45.1051 1038.56 45.0185 1038.81 44.8452C1039.06 44.669 1039.19 44.4545 1039.19 44.2017C1039.19 43.9972 1039.11 43.8253 1038.96 43.6861C1038.81 43.5469 1038.57 43.4418 1038.26 43.3707L1037.15 43.1278C1036.54 42.9886 1036.09 42.767 1035.8 42.4631C1035.51 42.1591 1035.36 41.7741 1035.36 41.3082C1035.36 40.9219 1035.47 40.5838 1035.69 40.294C1035.9 40.0043 1036.2 39.7784 1036.58 39.6165C1036.96 39.4517 1037.4 39.3693 1037.89 39.3693C1038.6 39.3693 1039.16 39.5227 1039.56 39.8295C1039.97 40.1335 1040.24 40.5412 1040.37 41.0526ZM1044.95 39.4545V40.4773H1041.38V39.4545H1044.95ZM1042.33 37.8864H1043.61V44.0781C1043.61 44.3253 1043.65 44.5114 1043.72 44.6364C1043.79 44.7585 1043.89 44.8423 1044 44.8878C1044.12 44.9304 1044.25 44.9517 1044.39 44.9517C1044.5 44.9517 1044.58 44.9446 1044.66 44.9304C1044.74 44.9162 1044.8 44.9048 1044.84 44.8963L1045.07 45.9489C1045 45.9773 1044.89 46.0057 1044.75 46.0341C1044.62 46.0653 1044.45 46.0824 1044.24 46.0852C1043.91 46.0909 1043.6 46.0312 1043.31 45.9062C1043.02 45.7812 1042.78 45.5881 1042.6 45.3267C1042.42 45.0653 1042.33 44.7372 1042.33 44.3423V37.8864ZM1052.83 37.2727V46H1051.51V38.5938H1051.46L1049.37 39.9574V38.696L1051.55 37.2727H1052.83ZM1055.19 46V45.0455L1058.14 41.9858C1058.46 41.6534 1058.72 41.3622 1058.92 41.1122C1059.13 40.8594 1059.29 40.6193 1059.39 40.392C1059.49 40.1648 1059.54 39.9233 1059.54 39.6676C1059.54 39.3778 1059.47 39.1278 1059.34 38.9176C1059.2 38.7045 1059.01 38.5412 1058.78 38.4276C1058.54 38.3111 1058.28 38.2528 1057.98 38.2528C1057.67 38.2528 1057.4 38.3168 1057.16 38.4446C1056.93 38.5724 1056.75 38.7528 1056.63 38.9858C1056.5 39.2187 1056.44 39.4915 1056.44 39.804H1055.18C1055.18 39.2727 1055.3 38.8082 1055.55 38.4105C1055.79 38.0128 1056.13 37.7045 1056.55 37.4858C1056.98 37.2642 1057.47 37.1534 1058.01 37.1534C1058.56 37.1534 1059.04 37.2628 1059.46 37.4815C1059.88 37.6974 1060.21 37.9929 1060.44 38.3679C1060.68 38.7401 1060.79 39.1605 1060.79 39.6293C1060.79 39.9531 1060.73 40.2699 1060.61 40.5795C1060.49 40.8892 1060.28 41.2344 1059.99 41.6151C1059.69 41.9929 1059.27 42.4517 1058.74 42.9915L1057.01 44.8068V44.8707H1060.94V46H1055.19ZM1067.02 42.1136V46H1065.74V37.2727H1067V40.5199H1067.08C1067.23 40.1676 1067.47 39.8878 1067.78 39.6804C1068.1 39.473 1068.51 39.3693 1069.02 39.3693C1069.47 39.3693 1069.86 39.4616 1070.2 39.6463C1070.53 39.831 1070.8 40.1065 1070.98 40.473C1071.17 40.8366 1071.26 41.2912 1071.26 41.8366V46H1069.99V41.9901C1069.99 41.5099 1069.86 41.1378 1069.62 40.8736C1069.37 40.6065 1069.03 40.473 1068.59 40.473C1068.28 40.473 1068.01 40.5369 1067.78 40.6648C1067.54 40.7926 1067.35 40.9801 1067.22 41.2273C1067.08 41.4716 1067.02 41.767 1067.02 42.1136ZM1072.96 46V39.4545H1074.19V40.4943H1074.26C1074.38 40.142 1074.59 39.8651 1074.89 39.6634C1075.2 39.4588 1075.54 39.3565 1075.92 39.3565C1076 39.3565 1076.1 39.3594 1076.2 39.3651C1076.32 39.3707 1076.4 39.3778 1076.46 39.3864V40.6051C1076.41 40.5909 1076.32 40.5753 1076.19 40.5582C1076.06 40.5384 1075.93 40.5284 1075.8 40.5284C1075.5 40.5284 1075.23 40.5923 1074.99 40.7202C1074.76 40.8452 1074.58 41.0199 1074.44 41.2443C1074.3 41.4659 1074.24 41.7187 1074.24 42.0028V46H1072.96ZM1082.47 41.0526L1081.32 41.2571C1081.27 41.1094 1081.19 40.9687 1081.09 40.8352C1080.99 40.7017 1080.85 40.5923 1080.67 40.5071C1080.49 40.4219 1080.27 40.3793 1080.01 40.3793C1079.65 40.3793 1079.35 40.4602 1079.11 40.6222C1078.86 40.7812 1078.74 40.9872 1078.74 41.2401C1078.74 41.4588 1078.82 41.6349 1078.99 41.7685C1079.15 41.902 1079.41 42.0114 1079.77 42.0966L1080.81 42.3352C1081.41 42.4744 1081.86 42.6889 1082.16 42.9787C1082.45 43.2685 1082.6 43.6449 1082.6 44.108C1082.6 44.5 1082.49 44.8494 1082.26 45.1562C1082.03 45.4602 1081.72 45.6989 1081.32 45.8722C1080.92 46.0455 1080.45 46.1321 1079.92 46.1321C1079.19 46.1321 1078.59 45.9759 1078.13 45.6634C1077.67 45.348 1077.38 44.9006 1077.28 44.321L1078.51 44.1335C1078.59 44.4545 1078.74 44.6974 1078.98 44.8622C1079.22 45.0241 1079.53 45.1051 1079.92 45.1051C1080.33 45.1051 1080.67 45.0185 1080.92 44.8452C1081.17 44.669 1081.29 44.4545 1081.29 44.2017C1081.29 43.9972 1081.22 43.8253 1081.06 43.6861C1080.91 43.5469 1080.68 43.4418 1080.37 43.3707L1079.26 43.1278C1078.65 42.9886 1078.2 42.767 1077.9 42.4631C1077.61 42.1591 1077.47 41.7741 1077.47 41.3082C1077.47 40.9219 1077.58 40.5838 1077.79 40.294C1078.01 40.0043 1078.31 39.7784 1078.69 39.6165C1079.07 39.4517 1079.5 39.3693 1080 39.3693C1080.7 39.3693 1081.26 39.5227 1081.67 39.8295C1082.07 40.1335 1082.34 40.5412 1082.47 41.0526Z" fill="#111928"/>
<mask id="path-21-inside-1_7_31273" fill="white">
<path d="M464 34H463V50H464V34Z"/>
</mask>
<path d="M464 34H463V50H464V34Z" fill="white"/>
<path d="M464 34V33H465V34H464ZM463 34H462V33H463V34ZM463 50V51H462V50H463ZM464 50H465V51H464V50ZM464 35H463V33H464V35ZM464 34V50H462V34H464ZM463 49H464V51H463V49ZM463 50V34H465V50H463Z" fill="#E5E7EB" mask="url(#path-21-inside-1_7_31273)"/>
<mask id="path-23-inside-2_7_31273" fill="white">
<path d="M296 34H295V50H296V34Z"/>
</mask>
<path d="M296 34H295V50H296V34Z" fill="white"/>
<path d="M296 34V33H297V34H296ZM295 34H294V33H295V34ZM295 50V51H294V50H295ZM296 50H297V51H296V50ZM296 35H295V33H296V35ZM296 34V50H294V34H296ZM295 49H296V51H295V49ZM295 50V34H297V50H295Z" fill="#E5E7EB" mask="url(#path-23-inside-2_7_31273)"/>
<mask id="path-25-inside-3_7_31273" fill="white">
<path d="M659 34H658V50H659V34Z"/>
</mask>
<path d="M659 34H658V50H659V34Z" fill="white"/>
<path d="M659 34V33H660V34H659ZM658 34H657V33H658V34ZM658 50V51H657V50H658ZM659 50H660V51H659V50ZM659 35H658V33H659V35ZM659 34V50H657V34H659ZM658 49H659V51H658V49ZM658 50V34H660V50H658Z" fill="#E5E7EB" mask="url(#path-25-inside-3_7_31273)"/>
<mask id="path-27-inside-4_7_31273" fill="white">
<path d="M842 34H841V50H842V34Z"/>
</mask>
<path d="M842 34H841V50H842V34Z" fill="white"/>
<path d="M842 34V33H843V34H842ZM841 34H840V33H841V34ZM841 50V51H840V50H841ZM842 50H843V51H842V50ZM842 35H841V33H842V35ZM842 34V50H840V34H842ZM841 49H842V51H841V49ZM841 50V34H843V50H841Z" fill="#E5E7EB" mask="url(#path-27-inside-4_7_31273)"/>
<mask id="path-29-inside-5_7_31273" fill="white">
<path d="M1014 34H1013V50H1014V34Z"/>
</mask>
<path d="M1014 34H1013V50H1014V34Z" fill="white"/>
<path d="M1014 34V33H1015V34H1014ZM1013 34H1012V33H1013V34ZM1013 50V51H1012V50H1013ZM1014 50H1015V51H1014V50ZM1014 35H1013V33H1014V35ZM1014 34V50H1012V34H1014ZM1013 49H1014V51H1013V49ZM1013 50V34H1015V50H1013Z" fill="#E5E7EB" mask="url(#path-29-inside-5_7_31273)"/>
</svg>


