
<svg width="1920" height="60" viewBox="0 0 1920 60" fill="none" xmlns="http://www.w3.org/2000/svg">
<path d="M0.5 0.5H1919.5V59.5H0.5V0.5Z" fill="#F3F4F6" stroke="#E5E7EB"/>
<path d="M45.3366 24.8182V35H43.9247L38.7493 27.5327H38.6548V35H37.1186V24.8182H38.5405L43.7209 32.2955H43.8153V24.8182H45.3366ZM49.6806 35.169C49.1967 35.169 48.7592 35.0795 48.3681 34.9006C47.977 34.7183 47.6671 34.4548 47.4384 34.1101C47.213 33.7654 47.1003 33.3428 47.1003 32.8423C47.1003 32.4115 47.1832 32.0568 47.3489 31.7784C47.5146 31.5 47.7383 31.2796 48.0201 31.1172C48.3018 30.9548 48.6167 30.8321 48.9647 30.7493C49.3127 30.6664 49.6673 30.6035 50.0286 30.5604C50.486 30.5073 50.8572 30.4643 51.1422 30.4311C51.4273 30.3946 51.6344 30.3366 51.7637 30.2571C51.8929 30.1776 51.9576 30.0483 51.9576 29.8693V29.8345C51.9576 29.4003 51.8349 29.0639 51.5897 28.8253C51.3477 28.5866 50.9864 28.4673 50.5059 28.4673C50.0054 28.4673 49.611 28.5784 49.3226 28.8004C49.0376 29.0192 48.8404 29.2628 48.731 29.5312L47.334 29.2131C47.4997 28.7491 47.7417 28.3745 48.0598 28.0895C48.3813 27.8011 48.7509 27.5923 49.1685 27.4631C49.5861 27.3305 50.0253 27.2642 50.486 27.2642C50.7909 27.2642 51.1141 27.3007 51.4554 27.3736C51.8001 27.4432 52.1216 27.5724 52.4199 27.7614C52.7215 27.9503 52.9685 28.2204 53.1607 28.5717C53.3529 28.9197 53.449 29.3722 53.449 29.929V35H51.9973V33.956H51.9377C51.8416 34.1482 51.6974 34.3371 51.5051 34.5227C51.3129 34.7083 51.066 34.8625 50.7644 34.9851C50.4628 35.1077 50.1015 35.169 49.6806 35.169ZM50.0037 33.9759C50.4147 33.9759 50.766 33.8946 51.0577 33.7322C51.3527 33.5698 51.5764 33.3577 51.7289 33.0959C51.8846 32.8307 51.9625 32.5473 51.9625 32.2457V31.2614C51.9095 31.3144 51.8068 31.3641 51.6543 31.4105C51.5051 31.4536 51.3345 31.4917 51.1422 31.5249C50.95 31.5547 50.7627 31.5829 50.5804 31.6094C50.3981 31.6326 50.2457 31.6525 50.123 31.669C49.8347 31.7055 49.5712 31.7668 49.3326 31.853C49.0972 31.9392 48.9083 32.0634 48.7658 32.2259C48.6266 32.3849 48.557 32.5971 48.557 32.8622C48.557 33.2301 48.6929 33.5085 48.9647 33.6974C49.2364 33.883 49.5828 33.9759 50.0037 33.9759ZM55.429 35V27.3636H56.8558V28.6065H56.9503C57.1094 28.1856 57.3696 27.8575 57.7308 27.6222C58.0921 27.3835 58.5246 27.2642 59.0284 27.2642C59.5388 27.2642 59.9664 27.3835 60.3111 27.6222C60.6591 27.8608 60.916 28.1889 61.0817 28.6065H61.1612C61.3435 28.1989 61.6335 27.8741 62.0312 27.6321C62.429 27.3868 62.9029 27.2642 63.4531 27.2642C64.1458 27.2642 64.7109 27.4813 65.1484 27.9155C65.5893 28.3497 65.8097 29.0043 65.8097 29.8793V35H64.3232V30.0185C64.3232 29.5014 64.1823 29.1269 63.9006 28.8949C63.6188 28.6629 63.2824 28.5469 62.8913 28.5469C62.4074 28.5469 62.0312 28.696 61.7628 28.9943C61.4943 29.2893 61.3601 29.6688 61.3601 30.1328V35H59.8786V29.924C59.8786 29.5097 59.7493 29.1766 59.4908 28.9247C59.2322 28.6728 58.8958 28.5469 58.4815 28.5469C58.1998 28.5469 57.9396 28.6214 57.701 28.7706C57.4657 28.9164 57.2751 29.1203 57.1293 29.3821C56.9867 29.6439 56.9155 29.9472 56.9155 30.2919V35H55.429ZM71.0932 35.1541C70.3408 35.1541 69.6929 34.9934 69.1493 34.6719C68.6091 34.3471 68.1915 33.8913 67.8965 33.3047C67.6048 32.7147 67.459 32.0237 67.459 31.2315C67.459 30.4493 67.6048 29.7599 67.8965 29.1634C68.1915 28.5668 68.6025 28.1011 69.1294 27.7663C69.6597 27.4316 70.2795 27.2642 70.9888 27.2642C71.4197 27.2642 71.8373 27.3355 72.2417 27.478C72.646 27.6205 73.0089 27.8442 73.3304 28.1491C73.6519 28.4541 73.9055 28.8501 74.0911 29.3374C74.2767 29.8213 74.3695 30.4096 74.3695 31.1023V31.6293H68.2992V30.5156H72.9128C72.9128 30.1245 72.8333 29.7782 72.6742 29.4766C72.5151 29.1716 72.2914 28.9313 72.003 28.7557C71.718 28.58 71.3832 28.4922 70.9988 28.4922C70.5811 28.4922 70.2166 28.5949 69.905 28.8004C69.5968 29.0026 69.3581 29.2678 69.1891 29.5959C69.0234 29.9207 68.9405 30.2737 68.9405 30.6548V31.5249C68.9405 32.0353 69.03 32.4695 69.209 32.8274C69.3913 33.1854 69.6448 33.4588 69.9696 33.6477C70.2944 33.8333 70.6739 33.9261 71.1081 33.9261C71.3899 33.9261 71.6467 33.8864 71.8787 33.8068C72.1107 33.724 72.3113 33.6013 72.4803 33.4389C72.6493 33.2765 72.7786 33.076 72.8681 32.8374L74.275 33.0909C74.1623 33.5052 73.9602 33.8681 73.6685 34.1797C73.3801 34.4879 73.0172 34.7282 72.5797 34.9006C72.1455 35.0696 71.65 35.1541 71.0932 35.1541Z" fill="#111928"/>
<path d="M337.842 24.8182V35H336.301V26.3594H336.241L333.805 27.9503V26.4787L336.346 24.8182H337.842ZM344.032 35H340.736V24.8182H344.136C345.134 24.8182 345.991 25.022 346.707 25.4297C347.423 25.834 347.971 26.4157 348.352 27.1747C348.737 27.9304 348.929 28.8369 348.929 29.8942C348.929 30.9548 348.735 31.8662 348.347 32.6286C347.963 33.3909 347.406 33.9775 346.677 34.3885C345.948 34.7962 345.066 35 344.032 35ZM342.272 33.6577H343.947C344.723 33.6577 345.368 33.5118 345.881 33.2202C346.395 32.9252 346.78 32.4993 347.035 31.9425C347.29 31.3823 347.418 30.6996 347.418 29.8942C347.418 29.0954 347.29 28.4176 347.035 27.8608C346.783 27.304 346.407 26.8814 345.906 26.593C345.406 26.3047 344.784 26.1605 344.042 26.1605H342.272V33.6577ZM357.73 28.0348C357.634 27.7332 357.505 27.4631 357.342 27.2244C357.183 26.9825 356.992 26.777 356.77 26.608C356.548 26.4356 356.295 26.3047 356.01 26.2152C355.728 26.1257 355.418 26.081 355.08 26.081C354.507 26.081 353.99 26.2285 353.529 26.5234C353.068 26.8184 352.704 27.2509 352.435 27.821C352.17 28.3878 352.037 29.0821 352.037 29.9041C352.037 30.7294 352.172 31.4271 352.44 31.9972C352.709 32.5672 353.077 32.9998 353.544 33.2947C354.011 33.5897 354.543 33.7372 355.14 33.7372C355.693 33.7372 356.175 33.6245 356.586 33.3991C357.001 33.1738 357.321 32.8556 357.546 32.4446C357.775 32.0303 357.889 31.5431 357.889 30.983L358.287 31.0575H355.373V29.7898H359.376V30.9482C359.376 31.8033 359.193 32.5457 358.829 33.1754C358.467 33.8018 357.967 34.2857 357.327 34.6271C356.691 34.9685 355.962 35.1392 355.14 35.1392C354.218 35.1392 353.41 34.9271 352.714 34.5028C352.021 34.0786 351.481 33.477 351.093 32.6982C350.705 31.916 350.511 30.9879 350.511 29.9141C350.511 29.102 350.624 28.3729 350.849 27.7266C351.075 27.0803 351.391 26.5317 351.799 26.081C352.21 25.6269 352.692 25.2805 353.246 25.0419C353.802 24.8 354.411 24.679 355.07 24.679C355.62 24.679 356.132 24.7602 356.606 24.9226C357.084 25.085 357.508 25.3153 357.879 25.6136C358.254 25.9119 358.564 26.2666 358.809 26.6776C359.054 27.0852 359.22 27.5376 359.306 28.0348H357.73Z" fill="#111928"/>
<path d="M1241.11 25L1238.29 14.8182H1239.9L1241.89 22.7031H1241.98L1244.05 14.8182H1245.65L1247.71 22.7081H1247.8L1249.78 14.8182H1251.4L1248.57 25H1247.03L1244.89 17.3736H1244.81L1242.66 25H1241.11ZM1255.22 25.1541C1254.47 25.1541 1253.82 24.9934 1253.28 24.6719C1252.74 24.3471 1252.32 23.8913 1252.03 23.3047C1251.74 22.7147 1251.59 22.0237 1251.59 21.2315C1251.59 20.4493 1251.74 19.7599 1252.03 19.1634C1252.32 18.5668 1252.73 18.1011 1253.26 17.7663C1253.79 17.4316 1254.41 17.2642 1255.12 17.2642C1255.55 17.2642 1255.97 17.3355 1256.37 17.478C1256.78 17.6205 1257.14 17.8442 1257.46 18.1491C1257.78 18.4541 1258.04 18.8501 1258.22 19.3374C1258.41 19.8213 1258.5 20.4096 1258.5 21.1023V21.6293H1252.43V20.5156H1257.04C1257.04 20.1245 1256.96 19.7782 1256.81 19.4766C1256.65 19.1716 1256.42 18.9313 1256.13 18.7557C1255.85 18.58 1255.51 18.4922 1255.13 18.4922C1254.71 18.4922 1254.35 18.5949 1254.04 18.8004C1253.73 19.0026 1253.49 19.2678 1253.32 19.5959C1253.15 19.9207 1253.07 20.2737 1253.07 20.6548V21.5249C1253.07 22.0353 1253.16 22.4695 1253.34 22.8274C1253.52 23.1854 1253.78 23.4588 1254.1 23.6477C1254.43 23.8333 1254.8 23.9261 1255.24 23.9261C1255.52 23.9261 1255.78 23.8864 1256.01 23.8068C1256.24 23.724 1256.44 23.6013 1256.61 23.4389C1256.78 23.2765 1256.91 23.076 1257 22.8374L1258.41 23.0909C1258.29 23.5052 1258.09 23.8681 1257.8 24.1797C1257.51 24.4879 1257.15 24.7282 1256.71 24.9006C1256.28 25.0696 1255.78 25.1541 1255.22 25.1541ZM1260.15 25V17.3636H1261.64V25H1260.15ZM1260.9 16.1854C1260.64 16.1854 1260.42 16.0992 1260.23 15.9268C1260.05 15.7512 1259.96 15.5424 1259.96 15.3004C1259.96 15.0552 1260.05 14.8464 1260.23 14.674C1260.42 14.4983 1260.64 14.4105 1260.9 14.4105C1261.16 14.4105 1261.38 14.4983 1261.56 14.674C1261.75 14.8464 1261.84 15.0552 1261.84 15.3004C1261.84 15.5424 1261.75 15.7512 1261.56 15.9268C1261.38 16.0992 1261.16 16.1854 1260.9 16.1854ZM1266.84 28.0227C1266.23 28.0227 1265.71 27.9432 1265.27 27.7841C1264.84 27.625 1264.48 27.4145 1264.21 27.1527C1263.93 26.8909 1263.73 26.6042 1263.59 26.2926L1264.87 25.7656C1264.96 25.9115 1265.08 26.0656 1265.23 26.228C1265.38 26.3937 1265.58 26.5346 1265.84 26.6506C1266.11 26.7666 1266.44 26.8246 1266.85 26.8246C1267.42 26.8246 1267.88 26.687 1268.25 26.4119C1268.62 26.1402 1268.8 25.706 1268.8 25.1094V23.608H1268.71C1268.62 23.7704 1268.49 23.951 1268.32 24.1499C1268.15 24.3487 1267.92 24.5211 1267.63 24.6669C1267.34 24.8127 1266.96 24.8857 1266.49 24.8857C1265.89 24.8857 1265.35 24.7448 1264.86 24.4631C1264.38 24.178 1264 23.7588 1263.72 23.2053C1263.44 22.6484 1263.3 21.964 1263.3 21.152C1263.3 20.34 1263.44 19.6439 1263.72 19.0639C1263.99 18.4839 1264.38 18.0398 1264.86 17.7315C1265.34 17.42 1265.89 17.2642 1266.5 17.2642C1266.98 17.2642 1267.36 17.3438 1267.65 17.5028C1267.94 17.6586 1268.17 17.8409 1268.33 18.0497C1268.5 18.2585 1268.63 18.4425 1268.72 18.6016H1268.83V17.3636H1270.28V25.169C1270.28 25.8253 1270.13 26.3639 1269.83 26.7848C1269.52 27.2057 1269.11 27.5173 1268.59 27.7195C1268.07 27.9216 1267.49 28.0227 1266.84 28.0227ZM1266.82 23.6527C1267.25 23.6527 1267.61 23.5533 1267.91 23.3544C1268.2 23.1522 1268.43 22.8639 1268.58 22.4893C1268.74 22.1115 1268.82 21.6591 1268.82 21.1321C1268.82 20.6184 1268.74 20.166 1268.59 19.7749C1268.44 19.3838 1268.21 19.0788 1267.92 18.8601C1267.62 18.638 1267.26 18.527 1266.82 18.527C1266.38 18.527 1266 18.643 1265.7 18.875C1265.41 19.1037 1265.18 19.4152 1265.03 19.8097C1264.88 20.2041 1264.8 20.6449 1264.8 21.1321C1264.8 21.6326 1264.88 22.0717 1265.03 22.4496C1265.19 22.8274 1265.41 23.1224 1265.71 23.3345C1266.01 23.5466 1266.38 23.6527 1266.82 23.6527ZM1273.76 20.4659V25H1272.28V14.8182H1273.74V18.6065H1273.84C1274.02 18.1955 1274.29 17.8691 1274.66 17.6271C1275.03 17.3852 1275.51 17.2642 1276.1 17.2642C1276.62 17.2642 1277.08 17.3719 1277.47 17.5874C1277.87 17.8028 1278.17 18.1243 1278.39 18.5518C1278.61 18.9761 1278.71 19.5064 1278.71 20.1428V25H1277.23V20.3217C1277.23 19.7616 1277.08 19.3274 1276.8 19.0192C1276.51 18.7076 1276.11 18.5518 1275.59 18.5518C1275.24 18.5518 1274.93 18.6264 1274.65 18.7756C1274.37 18.9247 1274.16 19.1435 1274 19.4318C1273.84 19.7169 1273.76 20.0616 1273.76 20.4659ZM1284.26 17.3636V18.5568H1280.09V17.3636H1284.26ZM1281.21 15.5341H1282.7V22.7578C1282.7 23.0462 1282.74 23.2633 1282.83 23.4091C1282.91 23.5516 1283.02 23.6494 1283.16 23.7024C1283.3 23.7521 1283.45 23.777 1283.61 23.777C1283.73 23.777 1283.84 23.7687 1283.93 23.7521C1284.01 23.7356 1284.08 23.7223 1284.13 23.7124L1284.4 24.9403C1284.32 24.9735 1284.19 25.0066 1284.03 25.0398C1283.88 25.0762 1283.68 25.0961 1283.44 25.0994C1283.05 25.1061 1282.68 25.0365 1282.34 24.8906C1282.01 24.7448 1281.73 24.5194 1281.52 24.2145C1281.31 23.9096 1281.21 23.5268 1281.21 23.0661V15.5341Z" fill="#111928"/>
<path d="M532.34 35.1392C531.717 35.1392 531.157 35.0199 530.66 34.7812C530.166 34.5393 529.772 34.2079 529.477 33.7869C529.182 33.366 529.024 32.8854 529.004 32.3452H530.496C530.532 32.7827 530.726 33.1423 531.077 33.424C531.429 33.7057 531.85 33.8466 532.34 33.8466C532.731 33.8466 533.078 33.7571 533.379 33.5781C533.684 33.3958 533.923 33.1456 534.095 32.8274C534.271 32.5092 534.359 32.1463 534.359 31.7386C534.359 31.3243 534.269 30.9548 534.09 30.63C533.911 30.3052 533.664 30.05 533.349 29.8643C533.038 29.6787 532.68 29.5843 532.276 29.581C531.967 29.581 531.657 29.634 531.346 29.7401C531.034 29.8461 530.782 29.9853 530.59 30.1577L529.183 29.9489L529.755 24.8182H535.353V26.1357H531.033L530.71 28.9844H530.769C530.968 28.7921 531.232 28.6314 531.56 28.5021C531.891 28.3729 532.246 28.3082 532.624 28.3082C533.243 28.3082 533.795 28.4557 534.279 28.7507C534.766 29.0457 535.149 29.4484 535.428 29.9588C535.709 30.4659 535.848 31.0492 535.845 31.7088C535.848 32.3684 535.699 32.9567 535.398 33.4737C535.099 33.9908 534.685 34.3984 534.155 34.6967C533.628 34.9917 533.023 35.1392 532.34 35.1392ZM541.096 35H537.8V24.8182H541.201C542.198 24.8182 543.055 25.022 543.771 25.4297C544.487 25.834 545.036 26.4157 545.417 27.1747C545.801 27.9304 545.993 28.8369 545.993 29.8942C545.993 30.9548 545.8 31.8662 545.412 32.6286C545.027 33.3909 544.47 33.9775 543.741 34.3885C543.012 34.7962 542.131 35 541.096 35ZM539.336 33.6577H541.012C541.787 33.6577 542.432 33.5118 542.946 33.2202C543.46 32.9252 543.844 32.4993 544.099 31.9425C544.354 31.3823 544.482 30.6996 544.482 29.8942C544.482 29.0954 544.354 28.4176 544.099 27.8608C543.847 27.304 543.471 26.8814 542.971 26.593C542.47 26.3047 541.849 26.1605 541.106 26.1605H539.336V33.6577ZM554.794 28.0348C554.698 27.7332 554.569 27.4631 554.407 27.2244C554.248 26.9825 554.057 26.777 553.835 26.608C553.613 26.4356 553.359 26.3047 553.074 26.2152C552.792 26.1257 552.483 26.081 552.145 26.081C551.571 26.081 551.054 26.2285 550.593 26.5234C550.133 26.8184 549.768 27.2509 549.5 27.821C549.234 28.3878 549.102 29.0821 549.102 29.9041C549.102 30.7294 549.236 31.4271 549.505 31.9972C549.773 32.5672 550.141 32.9998 550.608 33.2947C551.076 33.5897 551.608 33.7372 552.204 33.7372C552.758 33.7372 553.24 33.6245 553.651 33.3991C554.065 33.1738 554.385 32.8556 554.61 32.4446C554.839 32.0303 554.953 31.5431 554.953 30.983L555.351 31.0575H552.438V29.7898H556.44V30.9482C556.44 31.8033 556.258 32.5457 555.893 33.1754C555.532 33.8018 555.031 34.2857 554.392 34.6271C553.755 34.9685 553.026 35.1392 552.204 35.1392C551.283 35.1392 550.474 34.9271 549.778 34.5028C549.085 34.0786 548.545 33.477 548.157 32.6982C547.77 31.916 547.576 30.9879 547.576 29.9141C547.576 29.102 547.688 28.3729 547.914 27.7266C548.139 27.0803 548.456 26.5317 548.863 26.081C549.274 25.6269 549.757 25.2805 550.31 25.0419C550.867 24.8 551.475 24.679 552.135 24.679C552.685 24.679 553.197 24.7602 553.671 24.9226C554.148 25.085 554.572 25.3153 554.944 25.6136C555.318 25.9119 555.628 26.2666 555.873 26.6776C556.118 27.0852 556.284 27.5376 556.37 28.0348H554.794ZM562.408 29.9091C562.408 28.6629 562.572 27.5161 562.901 26.4688C563.229 25.4214 563.708 24.4553 564.337 23.5703H565.7C565.454 23.8984 565.226 24.3011 565.013 24.7784C564.801 25.2557 564.616 25.7794 564.457 26.3494C564.298 26.9162 564.173 27.5045 564.084 28.1143C563.994 28.7209 563.95 29.3191 563.95 29.9091C563.95 30.6979 564.027 31.4967 564.183 32.3054C564.339 33.1141 564.549 33.8648 564.815 34.5575C565.08 35.2502 565.375 35.8153 565.7 36.2528H564.337C563.708 35.3679 563.229 34.4018 562.901 33.3544C562.572 32.3071 562.408 31.1586 562.408 29.9091ZM575.843 28.1293H574.292C574.232 27.7978 574.121 27.5062 573.959 27.2543C573.796 27.0024 573.597 26.7886 573.362 26.6129C573.127 26.4373 572.863 26.3047 572.572 26.2152C572.283 26.1257 571.977 26.081 571.652 26.081C571.065 26.081 570.54 26.2285 570.076 26.5234C569.615 26.8184 569.251 27.2509 568.982 27.821C568.717 28.3911 568.584 29.0871 568.584 29.9091C568.584 30.7377 568.717 31.437 568.982 32.0071C569.251 32.5772 569.617 33.008 570.081 33.2997C570.545 33.5914 571.067 33.7372 571.647 33.7372C571.968 33.7372 572.273 33.6941 572.562 33.608C572.853 33.5185 573.117 33.3875 573.352 33.2152C573.587 33.0429 573.786 32.8324 573.949 32.5838C574.114 32.3319 574.229 32.0436 574.292 31.7188L575.843 31.7237C575.76 32.2242 575.599 32.6849 575.361 33.1058C575.125 33.5234 574.822 33.8847 574.451 34.1896C574.083 34.4912 573.662 34.7249 573.188 34.8906C572.714 35.0563 572.197 35.1392 571.637 35.1392C570.755 35.1392 569.97 34.9304 569.28 34.5128C568.591 34.0919 568.047 33.4903 567.65 32.7081C567.255 31.9259 567.058 30.9929 567.058 29.9091C567.058 28.822 567.257 27.889 567.655 27.1101C568.052 26.3279 568.596 25.728 569.285 25.3104C569.975 24.8894 570.759 24.679 571.637 24.679C572.177 24.679 572.681 24.7569 573.148 24.9126C573.619 25.0651 574.041 25.2905 574.416 25.5888C574.791 25.8838 575.1 26.245 575.346 26.6726C575.591 27.0968 575.757 27.5824 575.843 28.1293ZM584.572 28.0348C584.476 27.7332 584.346 27.4631 584.184 27.2244C584.025 26.9825 583.834 26.777 583.612 26.608C583.39 26.4356 583.137 26.3047 582.852 26.2152C582.57 26.1257 582.26 26.081 581.922 26.081C581.348 26.081 580.831 26.2285 580.371 26.5234C579.91 26.8184 579.545 27.2509 579.277 27.821C579.012 28.3878 578.879 29.0821 578.879 29.9041C578.879 30.7294 579.013 31.4271 579.282 31.9972C579.55 32.5672 579.918 32.9998 580.386 33.2947C580.853 33.5897 581.385 33.7372 581.982 33.7372C582.535 33.7372 583.017 33.6245 583.428 33.3991C583.843 33.1738 584.162 32.8556 584.388 32.4446C584.616 32.0303 584.731 31.5431 584.731 30.983L585.129 31.0575H582.215V29.7898H586.217V30.9482C586.217 31.8033 586.035 32.5457 585.67 33.1754C585.309 33.8018 584.809 34.2857 584.169 34.6271C583.533 34.9685 582.804 35.1392 581.982 35.1392C581.06 35.1392 580.251 34.9271 579.555 34.5028C578.863 34.0786 578.322 33.477 577.935 32.6982C577.547 31.916 577.353 30.9879 577.353 29.9141C577.353 29.102 577.466 28.3729 577.691 27.7266C577.916 27.0803 578.233 26.5317 578.641 26.081C579.052 25.6269 579.534 25.2805 580.087 25.0419C580.644 24.8 581.252 24.679 581.912 24.679C582.462 24.679 582.974 24.7602 583.448 24.9226C583.925 25.085 584.35 25.3153 584.721 25.6136C585.095 25.9119 585.405 26.2666 585.651 26.6776C585.896 27.0852 586.062 27.5376 586.148 28.0348H584.572ZM588.167 24.8182H590.032L593.273 32.733H593.393L596.634 24.8182H598.498V35H597.037V27.6321H596.942L593.939 34.9851H592.726L589.724 27.6271H589.629V35H588.167V24.8182ZM603.471 29.9091C603.471 31.1586 603.307 32.3071 602.979 33.3544C602.651 34.4018 602.172 35.3679 601.542 36.2528H600.18C600.425 35.9247 600.654 35.522 600.866 35.0447C601.078 34.5675 601.264 34.0455 601.423 33.4787C601.582 32.9086 601.706 32.3187 601.796 31.7088C601.885 31.099 601.93 30.4991 601.93 29.9091C601.93 29.1236 601.852 28.3265 601.696 27.5178C601.541 26.709 601.33 25.9583 601.065 25.2656C600.8 24.5729 600.505 24.0078 600.18 23.5703H601.542C602.172 24.4553 602.651 25.4214 602.979 26.4688C603.307 27.5161 603.471 28.6629 603.471 29.9091Z" fill="#111928"/>
<path d="M704.199 35V24.0909H705.844V29.3004H705.978L710.553 24.0909H712.625L708.225 29.0021L712.641 35H710.66L707.134 30.1261L705.844 31.6069V35H704.199ZM716.957 35.1651C716.151 35.1651 715.457 34.9929 714.875 34.6484C714.296 34.3004 713.848 33.8121 713.532 33.1836C713.22 32.5515 713.063 31.8111 713.063 30.9624C713.063 30.1243 713.22 29.3857 713.532 28.7464C713.848 28.1072 714.289 27.6083 714.853 27.2496C715.421 26.891 716.085 26.7116 716.845 26.7116C717.307 26.7116 717.755 26.788 718.188 26.9407C718.621 27.0934 719.01 27.3331 719.354 27.6598C719.699 27.9865 719.97 28.4109 720.169 28.9329C720.368 29.4513 720.468 30.0817 720.468 30.8239V31.3885H713.964V30.1953H718.907C718.907 29.7763 718.822 29.4052 718.651 29.082C718.481 28.7553 718.241 28.4979 717.932 28.3097C717.627 28.1214 717.268 28.0273 716.856 28.0273C716.409 28.0273 716.018 28.1374 715.684 28.3576C715.354 28.5742 715.098 28.8583 714.917 29.2099C714.74 29.5579 714.651 29.9361 714.651 30.3445V31.2766C714.651 31.8235 714.747 32.2887 714.938 32.6722C715.134 33.0558 715.405 33.3487 715.753 33.5511C716.101 33.75 716.508 33.8494 716.973 33.8494C717.275 33.8494 717.55 33.8068 717.799 33.7216C718.047 33.6328 718.262 33.5014 718.443 33.3274C718.625 33.1534 718.763 32.9386 718.859 32.6829L720.366 32.9545C720.246 33.3984 720.029 33.7873 719.717 34.1211C719.408 34.4513 719.019 34.7088 718.55 34.8935C718.085 35.0746 717.554 35.1651 716.957 35.1651ZM726.054 26.8182V28.0966H721.585V26.8182H726.054ZM722.783 24.858H724.376V32.5977C724.376 32.9066 724.422 33.1392 724.515 33.2955C724.607 33.4482 724.726 33.5529 724.871 33.6097C725.021 33.663 725.182 33.6896 725.356 33.6896C725.484 33.6896 725.596 33.6808 725.692 33.663C725.788 33.6452 725.862 33.631 725.915 33.6204L726.203 34.9361C726.111 34.9716 725.979 35.0071 725.809 35.0426C725.638 35.0817 725.425 35.103 725.17 35.1065C724.751 35.1136 724.36 35.0391 723.998 34.8828C723.636 34.7266 723.343 34.4851 723.119 34.1584C722.895 33.8317 722.783 33.4215 722.783 32.9279V24.858ZM731.174 35.1651C730.407 35.1651 729.738 34.9893 729.166 34.6378C728.594 34.2862 728.15 33.7944 727.834 33.1623C727.518 32.5302 727.36 31.7915 727.36 30.9464C727.36 30.0977 727.518 29.3555 727.834 28.7198C728.15 28.0842 728.594 27.5906 729.166 27.239C729.738 26.8874 730.407 26.7116 731.174 26.7116C731.941 26.7116 732.611 26.8874 733.182 27.239C733.754 27.5906 734.198 28.0842 734.514 28.7198C734.83 29.3555 734.988 30.0977 734.988 30.9464C734.988 31.7915 734.83 32.5302 734.514 33.1623C734.198 33.7944 733.754 34.2862 733.182 34.6378C732.611 34.9893 731.941 35.1651 731.174 35.1651ZM731.18 33.8281C731.677 33.8281 732.089 33.6967 732.415 33.4339C732.742 33.1712 732.984 32.8214 733.14 32.3846C733.3 31.9478 733.38 31.4666 733.38 30.9411C733.38 30.419 733.3 29.9396 733.14 29.5028C732.984 29.0625 732.742 28.7092 732.415 28.4428C732.089 28.1765 731.677 28.0433 731.18 28.0433C730.679 28.0433 730.263 28.1765 729.933 28.4428C729.606 28.7092 729.363 29.0625 729.203 29.5028C729.047 29.9396 728.969 30.419 728.969 30.9411C728.969 31.4666 729.047 31.9478 729.203 32.3846C729.363 32.8214 729.606 33.1712 729.933 33.4339C730.263 33.6967 730.679 33.8281 731.18 33.8281ZM738.359 30.142V35H736.766V26.8182H738.295V28.1499H738.396C738.584 27.7166 738.879 27.3686 739.28 27.1058C739.685 26.843 740.195 26.7116 740.809 26.7116C741.366 26.7116 741.855 26.8288 742.274 27.0632C742.693 27.294 743.018 27.6385 743.249 28.0966C743.479 28.5547 743.595 29.1211 743.595 29.7958V35H742.002V29.9876C742.002 29.3945 741.848 28.9311 741.539 28.5973C741.23 28.2599 740.805 28.0913 740.266 28.0913C739.896 28.0913 739.568 28.1712 739.28 28.331C738.996 28.4908 738.771 28.7251 738.604 29.0341C738.44 29.3395 738.359 29.7088 738.359 30.142ZM749.257 35.1651C748.451 35.1651 747.757 34.9929 747.174 34.6484C746.596 34.3004 746.148 33.8121 745.832 33.1836C745.52 32.5515 745.363 31.8111 745.363 30.9624C745.363 30.1243 745.52 29.3857 745.832 28.7464C746.148 28.1072 746.588 27.6083 747.153 27.2496C747.721 26.891 748.385 26.7116 749.145 26.7116C749.607 26.7116 750.054 26.788 750.488 26.9407C750.921 27.0934 751.31 27.3331 751.654 27.6598C751.999 27.9865 752.27 28.4109 752.469 28.9329C752.668 29.4513 752.767 30.0817 752.767 30.8239V31.3885H746.263V30.1953H751.207C751.207 29.7763 751.121 29.4052 750.951 29.082C750.781 28.7553 750.541 28.4979 750.232 28.3097C749.926 28.1214 749.568 28.0273 749.156 28.0273C748.708 28.0273 748.318 28.1374 747.984 28.3576C747.654 28.5742 747.398 28.8583 747.217 29.2099C747.039 29.5579 746.951 29.9361 746.951 30.3445V31.2766C746.951 31.8235 747.047 32.2887 747.238 32.6722C747.434 33.0558 747.705 33.3487 748.053 33.5511C748.401 33.75 748.808 33.8494 749.273 33.8494C749.575 33.8494 749.85 33.8068 750.099 33.7216C750.347 33.6328 750.562 33.5014 750.743 33.3274C750.924 33.1534 751.063 32.9386 751.159 32.6829L752.666 32.9545C752.545 33.3984 752.329 33.7873 752.016 34.1211C751.707 34.4513 751.319 34.7088 750.85 34.8935C750.385 35.0746 749.854 35.1651 749.257 35.1651ZM760.666 28.8157L759.222 29.0714C759.162 28.8867 759.066 28.7109 758.934 28.544C758.807 28.3771 758.633 28.2404 758.412 28.1339C758.192 28.0273 757.917 27.9741 757.587 27.9741C757.136 27.9741 756.759 28.0753 756.457 28.2777C756.156 28.4766 756.005 28.734 756.005 29.0501C756.005 29.3235 756.106 29.5437 756.308 29.7106C756.511 29.8775 756.837 30.0142 757.288 30.1207L758.588 30.419C759.341 30.593 759.902 30.8612 760.271 31.2234C760.641 31.5856 760.825 32.0561 760.825 32.6349C760.825 33.125 760.683 33.5618 760.399 33.9453C760.119 34.3253 759.726 34.6236 759.222 34.8402C758.721 35.0568 758.141 35.1651 757.48 35.1651C756.564 35.1651 755.816 34.9698 755.238 34.5792C754.659 34.185 754.304 33.6257 754.172 32.9013L755.712 32.6669C755.808 33.0682 756.005 33.3718 756.303 33.5778C756.601 33.7802 756.99 33.8814 757.47 33.8814C757.992 33.8814 758.409 33.7731 758.721 33.5565C759.034 33.3363 759.19 33.0682 759.19 32.7521C759.19 32.4964 759.094 32.2816 758.902 32.1076C758.714 31.9336 758.425 31.8022 758.034 31.7134L756.649 31.4098C755.886 31.2358 755.321 30.9588 754.955 30.5788C754.593 30.1989 754.412 29.7177 754.412 29.1353C754.412 28.6523 754.547 28.2298 754.817 27.8675C755.087 27.5053 755.46 27.223 755.935 27.0206C756.411 26.8146 756.956 26.7116 757.571 26.7116C758.455 26.7116 759.151 26.9034 759.659 27.2869C760.167 27.6669 760.502 28.1765 760.666 28.8157Z" fill="#111928"/>
<path d="M921.493 27.6385H919.831C919.767 27.2834 919.648 26.9709 919.474 26.701C919.3 26.4311 919.087 26.2021 918.835 26.0138C918.582 25.8256 918.3 25.6836 917.988 25.5877C917.679 25.4918 917.35 25.4439 917.002 25.4439C916.374 25.4439 915.811 25.6019 915.314 25.918C914.82 26.234 914.429 26.6974 914.142 27.3082C913.858 27.919 913.716 28.6648 913.716 29.5455C913.716 30.4332 913.858 31.1825 914.142 31.7933C914.429 32.4041 914.822 32.8658 915.319 33.1783C915.816 33.4908 916.375 33.647 916.997 33.647C917.341 33.647 917.668 33.6009 917.977 33.5085C918.29 33.4126 918.572 33.2724 918.824 33.0877C919.076 32.9031 919.289 32.6776 919.463 32.4112C919.641 32.1413 919.763 31.8324 919.831 31.4844L921.493 31.4897C921.404 32.0259 921.232 32.5195 920.976 32.9705C920.724 33.418 920.399 33.805 920.001 34.1317C919.607 34.4549 919.156 34.7053 918.648 34.8828C918.14 35.0604 917.586 35.1491 916.986 35.1491C916.042 35.1491 915.2 34.9254 914.461 34.478C913.723 34.027 913.14 33.3825 912.714 32.5444C912.292 31.7063 912.08 30.7067 912.08 29.5455C912.08 28.3807 912.293 27.381 912.72 26.5465C913.146 25.7085 913.728 25.0657 914.467 24.6183C915.205 24.1673 916.045 23.9418 916.986 23.9418C917.565 23.9418 918.105 24.0252 918.606 24.1921C919.11 24.3555 919.563 24.5969 919.964 24.9165C920.365 25.2326 920.697 25.6197 920.96 26.0778C921.223 26.5323 921.4 27.0526 921.493 27.6385ZM924.416 24.0909L927.452 32.9759H927.574L930.611 24.0909H932.39L928.464 35H926.562L922.637 24.0909H924.416Z" fill="#111928"/>
<path d="M1059.64 35V24.0909H1063.63C1064.41 24.0909 1065.05 24.2187 1065.56 24.4744C1066.06 24.7266 1066.44 25.0692 1066.7 25.5025C1066.95 25.9322 1067.07 26.4169 1067.07 26.9567C1067.07 27.4112 1066.99 27.7947 1066.82 28.1072C1066.66 28.4162 1066.43 28.6648 1066.15 28.853C1065.88 29.0376 1065.57 29.1726 1065.24 29.2578V29.3643C1065.6 29.3821 1065.95 29.4993 1066.3 29.7159C1066.64 29.929 1066.93 30.2326 1067.16 30.6268C1067.39 31.021 1067.5 31.5004 1067.5 32.065C1067.5 32.6225 1067.37 33.1232 1067.11 33.5671C1066.85 34.0075 1066.45 34.3572 1065.9 34.6165C1065.36 34.8722 1064.67 35 1063.82 35H1059.64ZM1061.28 33.5884H1063.66C1064.45 33.5884 1065.01 33.4357 1065.35 33.1303C1065.69 32.8249 1065.87 32.4432 1065.87 31.9851C1065.87 31.6406 1065.78 31.3246 1065.6 31.0369C1065.43 30.7493 1065.18 30.5202 1064.86 30.3498C1064.54 30.1793 1064.16 30.0941 1063.72 30.0941H1061.28V33.5884ZM1061.28 28.8104H1063.49C1063.86 28.8104 1064.19 28.7393 1064.49 28.5973C1064.78 28.4553 1065.02 28.2564 1065.19 28.0007C1065.37 27.7415 1065.46 27.4361 1065.46 27.0845C1065.46 26.6335 1065.3 26.2553 1064.99 25.9499C1064.67 25.6445 1064.19 25.4918 1063.53 25.4918H1061.28V28.8104ZM1070.92 24.0909V35H1069.33V24.0909H1070.92ZM1076.51 35.1651C1075.74 35.1651 1075.07 34.9893 1074.5 34.6378C1073.93 34.2862 1073.48 33.7944 1073.17 33.1623C1072.85 32.5302 1072.69 31.7915 1072.69 30.9464C1072.69 30.0977 1072.85 29.3555 1073.17 28.7198C1073.48 28.0842 1073.93 27.5906 1074.5 27.239C1075.07 26.8874 1075.74 26.7116 1076.51 26.7116C1077.27 26.7116 1077.94 26.8874 1078.51 27.239C1079.09 27.5906 1079.53 28.0842 1079.85 28.7198C1080.16 29.3555 1080.32 30.0977 1080.32 30.9464C1080.32 31.7915 1080.16 32.5302 1079.85 33.1623C1079.53 33.7944 1079.09 34.2862 1078.51 34.6378C1077.94 34.9893 1077.27 35.1651 1076.51 35.1651ZM1076.51 33.8281C1077.01 33.8281 1077.42 33.6967 1077.75 33.4339C1078.07 33.1712 1078.32 32.8214 1078.47 32.3846C1078.63 31.9478 1078.71 31.4666 1078.71 30.9411C1078.71 30.419 1078.63 29.9396 1078.47 29.5028C1078.32 29.0625 1078.07 28.7092 1077.75 28.4428C1077.42 28.1765 1077.01 28.0433 1076.51 28.0433C1076.01 28.0433 1075.6 28.1765 1075.27 28.4428C1074.94 28.7092 1074.7 29.0625 1074.54 29.5028C1074.38 29.9396 1074.3 30.419 1074.3 30.9411C1074.3 31.4666 1074.38 31.9478 1074.54 32.3846C1074.7 32.8214 1074.94 33.1712 1075.27 33.4339C1075.6 33.6967 1076.01 33.8281 1076.51 33.8281ZM1085.54 35.1651C1084.78 35.1651 1084.11 34.9893 1083.54 34.6378C1082.96 34.2862 1082.52 33.7944 1082.21 33.1623C1081.89 32.5302 1081.73 31.7915 1081.73 30.9464C1081.73 30.0977 1081.89 29.3555 1082.21 28.7198C1082.52 28.0842 1082.96 27.5906 1083.54 27.239C1084.11 26.8874 1084.78 26.7116 1085.54 26.7116C1086.31 26.7116 1086.98 26.8874 1087.55 27.239C1088.12 27.5906 1088.57 28.0842 1088.88 28.7198C1089.2 29.3555 1089.36 30.0977 1089.36 30.9464C1089.36 31.7915 1089.2 32.5302 1088.88 33.1623C1088.57 33.7944 1088.12 34.2862 1087.55 34.6378C1086.98 34.9893 1086.31 35.1651 1085.54 35.1651ZM1085.55 33.8281C1086.05 33.8281 1086.46 33.6967 1086.79 33.4339C1087.11 33.1712 1087.35 32.8214 1087.51 32.3846C1087.67 31.9478 1087.75 31.4666 1087.75 30.9411C1087.75 30.419 1087.67 29.9396 1087.51 29.5028C1087.35 29.0625 1087.11 28.7092 1086.79 28.4428C1086.46 28.1765 1086.05 28.0433 1085.55 28.0433C1085.05 28.0433 1084.63 28.1765 1084.3 28.4428C1083.98 28.7092 1083.73 29.0625 1083.57 29.5028C1083.42 29.9396 1083.34 30.419 1083.34 30.9411C1083.34 31.4666 1083.42 31.9478 1083.57 32.3846C1083.73 32.8214 1083.98 33.1712 1084.3 33.4339C1084.63 33.6967 1085.05 33.8281 1085.55 33.8281ZM1094.2 35.1598C1093.54 35.1598 1092.95 34.9911 1092.43 34.6538C1091.92 34.3129 1091.51 33.8281 1091.22 33.1996C1090.93 32.5675 1090.78 31.8093 1090.78 30.9251C1090.78 30.0408 1090.93 29.2844 1091.22 28.6559C1091.52 28.0273 1091.93 27.5462 1092.45 27.2124C1092.97 26.8786 1093.55 26.7116 1094.21 26.7116C1094.72 26.7116 1095.13 26.7969 1095.44 26.9673C1095.75 27.1342 1095.99 27.3295 1096.16 27.5533C1096.33 27.777 1096.47 27.9741 1096.56 28.1445H1096.66V24.0909H1098.25V35H1096.7V33.7269H1096.56C1096.47 33.9009 1096.33 34.0998 1096.15 34.3235C1095.97 34.5472 1095.73 34.7425 1095.41 34.9094C1095.1 35.0763 1094.7 35.1598 1094.2 35.1598ZM1094.55 33.8015C1095.01 33.8015 1095.4 33.6808 1095.71 33.4393C1096.03 33.1942 1096.27 32.8551 1096.44 32.4219C1096.6 31.9886 1096.69 31.4844 1096.69 30.9091C1096.69 30.3409 1096.61 29.8437 1096.44 29.4176C1096.28 28.9915 1096.04 28.6594 1095.72 28.4215C1095.41 28.1836 1095.02 28.0646 1094.55 28.0646C1094.07 28.0646 1093.67 28.1889 1093.35 28.4375C1093.03 28.6861 1092.79 29.0252 1092.63 29.4549C1092.47 29.8846 1092.39 30.3693 1092.39 30.9091C1092.39 31.456 1092.47 31.9478 1092.63 32.3846C1092.8 32.8214 1093.04 33.1676 1093.36 33.4233C1093.68 33.6754 1094.08 33.8015 1094.55 33.8015ZM1104.62 35V24.0909H1108.51C1109.36 24.0909 1110.06 24.2454 1110.62 24.5543C1111.18 24.8633 1111.6 25.2859 1111.87 25.8221C1112.15 26.3548 1112.29 26.9549 1112.29 27.6225C1112.29 28.2937 1112.15 28.8974 1111.87 29.4336C1111.59 29.9663 1111.17 30.3888 1110.61 30.7013C1110.05 31.0103 1109.35 31.1648 1108.51 31.1648H1105.83V29.7692H1108.36C1108.89 29.7692 1109.33 29.6768 1109.66 29.4922C1110 29.304 1110.24 29.0483 1110.4 28.7251C1110.55 28.402 1110.63 28.0344 1110.63 27.6225C1110.63 27.2106 1110.55 26.8448 1110.4 26.5252C1110.24 26.2056 1109.99 25.9553 1109.66 25.7741C1109.32 25.593 1108.88 25.5025 1108.34 25.5025H1106.27V35H1104.62ZM1114.09 35V26.8182H1115.63V28.1179H1115.72C1115.86 27.6776 1116.13 27.3313 1116.5 27.0792C1116.88 26.8235 1117.31 26.6957 1117.79 26.6957C1117.89 26.6957 1118.01 26.6992 1118.14 26.7063C1118.28 26.7134 1118.39 26.7223 1118.47 26.733V28.2564C1118.41 28.2386 1118.29 28.2191 1118.13 28.1978C1117.96 28.1729 1117.8 28.1605 1117.64 28.1605C1117.26 28.1605 1116.93 28.2404 1116.63 28.4002C1116.34 28.5565 1116.11 28.7749 1115.94 29.0554C1115.77 29.3324 1115.68 29.6484 1115.68 30.0036V35H1114.09ZM1123.08 35.1651C1122.27 35.1651 1121.58 34.9929 1121 34.6484C1120.42 34.3004 1119.97 33.8121 1119.66 33.1836C1119.34 32.5515 1119.19 31.8111 1119.19 30.9624C1119.19 30.1243 1119.34 29.3857 1119.66 28.7464C1119.97 28.1072 1120.41 27.6083 1120.98 27.2496C1121.54 26.891 1122.21 26.7116 1122.97 26.7116C1123.43 26.7116 1123.88 26.788 1124.31 26.9407C1124.74 27.0934 1125.13 27.3331 1125.48 27.6598C1125.82 27.9865 1126.09 28.4109 1126.29 28.9329C1126.49 29.4513 1126.59 30.0817 1126.59 30.8239V31.3885H1120.09V30.1953H1125.03C1125.03 29.7763 1124.95 29.4052 1124.77 29.082C1124.6 28.7553 1124.36 28.4979 1124.06 28.3097C1123.75 28.1214 1123.39 28.0273 1122.98 28.0273C1122.53 28.0273 1122.14 28.1374 1121.81 28.3576C1121.48 28.5742 1121.22 28.8583 1121.04 29.2099C1120.86 29.5579 1120.77 29.9361 1120.77 30.3445V31.2766C1120.77 31.8235 1120.87 32.2887 1121.06 32.6722C1121.26 33.0558 1121.53 33.3487 1121.88 33.5511C1122.23 33.75 1122.63 33.8494 1123.1 33.8494C1123.4 33.8494 1123.67 33.8068 1123.92 33.7216C1124.17 33.6328 1124.39 33.5014 1124.57 33.3274C1124.75 33.1534 1124.89 32.9386 1124.98 32.6829L1126.49 32.9545C1126.37 33.3984 1126.15 33.7873 1125.84 34.1211C1125.53 34.4513 1125.14 34.7088 1124.67 34.8935C1124.21 35.0746 1123.68 35.1651 1123.08 35.1651ZM1134.49 28.8157L1133.05 29.0714C1132.99 28.8867 1132.89 28.7109 1132.76 28.544C1132.63 28.3771 1132.46 28.2404 1132.24 28.1339C1132.02 28.0273 1131.74 27.9741 1131.41 27.9741C1130.96 27.9741 1130.58 28.0753 1130.28 28.2777C1129.98 28.4766 1129.83 28.734 1129.83 29.0501C1129.83 29.3235 1129.93 29.5437 1130.13 29.7106C1130.33 29.8775 1130.66 30.0142 1131.11 30.1207L1132.41 30.419C1133.16 30.593 1133.73 30.8612 1134.1 31.2234C1134.46 31.5856 1134.65 32.0561 1134.65 32.6349C1134.65 33.125 1134.51 33.5618 1134.22 33.9453C1133.94 34.3253 1133.55 34.6236 1133.05 34.8402C1132.55 35.0568 1131.96 35.1651 1131.3 35.1651C1130.39 35.1651 1129.64 34.9698 1129.06 34.5792C1128.48 34.185 1128.13 33.6257 1128 32.9013L1129.54 32.6669C1129.63 33.0682 1129.83 33.3718 1130.13 33.5778C1130.43 33.7802 1130.81 33.8814 1131.29 33.8814C1131.82 33.8814 1132.23 33.7731 1132.55 33.5565C1132.86 33.3363 1133.01 33.0682 1133.01 32.7521C1133.01 32.4964 1132.92 32.2816 1132.73 32.1076C1132.54 31.9336 1132.25 31.8022 1131.86 31.7134L1130.47 31.4098C1129.71 31.2358 1129.14 30.9588 1128.78 30.5788C1128.42 30.1989 1128.24 29.7177 1128.24 29.1353C1128.24 28.6523 1128.37 28.2298 1128.64 27.8675C1128.91 27.5053 1129.28 27.223 1129.76 27.0206C1130.24 26.8146 1130.78 26.7116 1131.39 26.7116C1132.28 26.7116 1132.97 26.9034 1133.48 27.2869C1133.99 27.6669 1134.33 28.1765 1134.49 28.8157ZM1142.53 28.8157L1141.09 29.0714C1141.03 28.8867 1140.93 28.7109 1140.8 28.544C1140.67 28.3771 1140.5 28.2404 1140.28 28.1339C1140.06 28.0273 1139.78 27.9741 1139.45 27.9741C1139 27.9741 1138.63 28.0753 1138.32 28.2777C1138.02 28.4766 1137.87 28.734 1137.87 29.0501C1137.87 29.3235 1137.97 29.5437 1138.17 29.7106C1138.38 29.8775 1138.7 30.0142 1139.15 30.1207L1140.45 30.419C1141.21 30.593 1141.77 30.8612 1142.14 31.2234C1142.51 31.5856 1142.69 32.0561 1142.69 32.6349C1142.69 33.125 1142.55 33.5618 1142.26 33.9453C1141.98 34.3253 1141.59 34.6236 1141.09 34.8402C1140.59 35.0568 1140.01 35.1651 1139.35 35.1651C1138.43 35.1651 1137.68 34.9698 1137.1 34.5792C1136.52 34.185 1136.17 33.6257 1136.04 32.9013L1137.58 32.6669C1137.67 33.0682 1137.87 33.3718 1138.17 33.5778C1138.47 33.7802 1138.86 33.8814 1139.34 33.8814C1139.86 33.8814 1140.27 33.7731 1140.59 33.5565C1140.9 33.3363 1141.06 33.0682 1141.06 32.7521C1141.06 32.4964 1140.96 32.2816 1140.77 32.1076C1140.58 31.9336 1140.29 31.8022 1139.9 31.7134L1138.51 31.4098C1137.75 31.2358 1137.19 30.9588 1136.82 30.5788C1136.46 30.1989 1136.28 29.7177 1136.28 29.1353C1136.28 28.6523 1136.41 28.2298 1136.68 27.8675C1136.95 27.5053 1137.33 27.223 1137.8 27.0206C1138.28 26.8146 1138.82 26.7116 1139.44 26.7116C1140.32 26.7116 1141.02 26.9034 1141.52 27.2869C1142.03 27.6669 1142.37 28.1765 1142.53 28.8157ZM1149.63 31.6069V26.8182H1151.22V35H1149.66V33.5831H1149.57C1149.38 34.0199 1149.08 34.3839 1148.67 34.6751C1148.25 34.9627 1147.74 35.1065 1147.13 35.1065C1146.6 35.1065 1146.14 34.9911 1145.73 34.7603C1145.33 34.5259 1145.01 34.1797 1144.78 33.7216C1144.56 33.2635 1144.44 32.6971 1144.44 32.0224V26.8182H1146.03V31.8306C1146.03 32.3881 1146.19 32.832 1146.5 33.1623C1146.81 33.4925 1147.21 33.6577 1147.7 33.6577C1148 33.6577 1148.3 33.5831 1148.59 33.4339C1148.89 33.2848 1149.14 33.0593 1149.33 32.7575C1149.53 32.4556 1149.63 32.0721 1149.63 31.6069ZM1153.36 35V26.8182H1154.9V28.1179H1154.99C1155.14 27.6776 1155.4 27.3313 1155.78 27.0792C1156.16 26.8235 1156.59 26.6957 1157.07 26.6957C1157.16 26.6957 1157.28 26.6992 1157.42 26.7063C1157.56 26.7134 1157.66 26.7223 1157.74 26.733V28.2564C1157.68 28.2386 1157.56 28.2191 1157.4 28.1978C1157.24 28.1729 1157.07 28.1605 1156.91 28.1605C1156.53 28.1605 1156.2 28.2404 1155.9 28.4002C1155.61 28.5565 1155.38 28.7749 1155.21 29.0554C1155.04 29.3324 1154.96 29.6484 1154.96 30.0036V35H1153.36ZM1162.35 35.1651C1161.55 35.1651 1160.85 34.9929 1160.27 34.6484C1159.69 34.3004 1159.24 33.8121 1158.93 33.1836C1158.62 32.5515 1158.46 31.8111 1158.46 30.9624C1158.46 30.1243 1158.62 29.3857 1158.93 28.7464C1159.24 28.1072 1159.68 27.6083 1160.25 27.2496C1160.82 26.891 1161.48 26.7116 1162.24 26.7116C1162.7 26.7116 1163.15 26.788 1163.58 26.9407C1164.02 27.0934 1164.41 27.3331 1164.75 27.6598C1165.09 27.9865 1165.37 28.4109 1165.57 28.9329C1165.76 29.4513 1165.86 30.0817 1165.86 30.8239V31.3885H1159.36V30.1953H1164.3C1164.3 29.7763 1164.22 29.4052 1164.05 29.082C1163.88 28.7553 1163.64 28.4979 1163.33 28.3097C1163.02 28.1214 1162.66 28.0273 1162.25 28.0273C1161.8 28.0273 1161.41 28.1374 1161.08 28.3576C1160.75 28.5742 1160.49 28.8583 1160.31 29.2099C1160.14 29.5579 1160.05 29.9361 1160.05 30.3445V31.2766C1160.05 31.8235 1160.14 32.2887 1160.33 32.6722C1160.53 33.0558 1160.8 33.3487 1161.15 33.5511C1161.5 33.75 1161.9 33.8494 1162.37 33.8494C1162.67 33.8494 1162.95 33.8068 1163.19 33.7216C1163.44 33.6328 1163.66 33.5014 1163.84 33.3274C1164.02 33.1534 1164.16 32.9386 1164.25 32.6829L1165.76 32.9545C1165.64 33.3984 1165.43 33.7873 1165.11 34.1211C1164.8 34.4513 1164.41 34.7088 1163.95 34.8935C1163.48 35.0746 1162.95 35.1651 1162.35 35.1651Z" fill="#111928"/>
<path d="M1344.98 35H1343.35L1347.01 24.8182H1348.79L1352.45 35H1350.82L1347.94 26.6676H1347.86L1344.98 35ZM1345.25 31.0128H1350.54V32.3054H1345.25V31.0128ZM1356.9 35.1541C1356.16 35.1541 1355.52 34.9867 1354.99 34.652C1354.46 34.3139 1354.05 33.8482 1353.76 33.255C1353.48 32.6617 1353.34 31.9822 1353.34 31.2166C1353.34 30.4411 1353.48 29.7566 1353.77 29.1634C1354.07 28.5668 1354.48 28.1011 1355.01 27.7663C1355.54 27.4316 1356.16 27.2642 1356.88 27.2642C1357.46 27.2642 1357.98 27.3719 1358.43 27.5874C1358.89 27.7995 1359.25 28.0978 1359.53 28.4822C1359.81 28.8667 1359.98 29.3158 1360.03 29.8295H1358.59C1358.51 29.4716 1358.32 29.1634 1358.04 28.9048C1357.76 28.6463 1357.38 28.517 1356.91 28.517C1356.49 28.517 1356.13 28.6264 1355.82 28.8452C1355.51 29.0606 1355.27 29.3688 1355.1 29.7699C1354.92 30.1676 1354.84 30.6383 1354.84 31.1818C1354.84 31.7386 1354.92 32.2192 1355.09 32.6236C1355.26 33.0279 1355.5 33.3411 1355.81 33.5632C1356.12 33.7853 1356.48 33.8963 1356.91 33.8963C1357.19 33.8963 1357.44 33.8449 1357.67 33.7422C1357.9 33.6361 1358.1 33.4853 1358.25 33.2898C1358.41 33.0942 1358.52 32.8589 1358.59 32.5838H1360.03C1359.98 33.0777 1359.82 33.5185 1359.55 33.9062C1359.28 34.294 1358.92 34.599 1358.47 34.821C1358.02 35.0431 1357.5 35.1541 1356.9 35.1541ZM1365.19 27.3636V28.5568H1361.02V27.3636H1365.19ZM1362.13 25.5341H1363.62V32.7578C1363.62 33.0462 1363.66 33.2633 1363.75 33.4091C1363.84 33.5516 1363.95 33.6494 1364.08 33.7024C1364.22 33.7521 1364.37 33.777 1364.54 33.777C1364.66 33.777 1364.76 33.7687 1364.85 33.7521C1364.94 33.7356 1365.01 33.7223 1365.06 33.7124L1365.33 34.9403C1365.24 34.9735 1365.12 35.0066 1364.96 35.0398C1364.8 35.0762 1364.6 35.0961 1364.36 35.0994C1363.97 35.1061 1363.61 35.0365 1363.27 34.8906C1362.93 34.7448 1362.66 34.5194 1362.45 34.2145C1362.24 33.9096 1362.13 33.5268 1362.13 33.0661V25.5341ZM1366.83 35V27.3636H1368.32V35H1366.83ZM1367.58 26.1854C1367.32 26.1854 1367.1 26.0992 1366.92 25.9268C1366.73 25.7512 1366.64 25.5424 1366.64 25.3004C1366.64 25.0552 1366.73 24.8464 1366.92 24.674C1367.1 24.4983 1367.32 24.4105 1367.58 24.4105C1367.84 24.4105 1368.06 24.4983 1368.24 24.674C1368.43 24.8464 1368.52 25.0552 1368.52 25.3004C1368.52 25.5424 1368.43 25.7512 1368.24 25.9268C1368.06 26.0992 1367.84 26.1854 1367.58 26.1854ZM1376.85 27.3636L1374.08 35H1372.49L1369.72 27.3636H1371.31L1373.25 33.2401H1373.33L1375.25 27.3636H1376.85ZM1378.25 35V27.3636H1379.73V35H1378.25ZM1379 26.1854C1378.74 26.1854 1378.52 26.0992 1378.33 25.9268C1378.15 25.7512 1378.06 25.5424 1378.06 25.3004C1378.06 25.0552 1378.15 24.8464 1378.33 24.674C1378.52 24.4983 1378.74 24.4105 1379 24.4105C1379.26 24.4105 1379.48 24.4983 1379.66 24.674C1379.84 24.8464 1379.94 25.0552 1379.94 25.3004C1379.94 25.5424 1379.84 25.7512 1379.66 25.9268C1379.48 26.0992 1379.26 26.1854 1379 26.1854ZM1385.3 27.3636V28.5568H1381.13V27.3636H1385.3ZM1382.25 25.5341H1383.73V32.7578C1383.73 33.0462 1383.78 33.2633 1383.86 33.4091C1383.95 33.5516 1384.06 33.6494 1384.19 33.7024C1384.33 33.7521 1384.48 33.777 1384.65 33.777C1384.77 33.777 1384.87 33.7687 1384.96 33.7521C1385.05 33.7356 1385.12 33.7223 1385.17 33.7124L1385.44 34.9403C1385.35 34.9735 1385.23 35.0066 1385.07 35.0398C1384.91 35.0762 1384.71 35.0961 1384.47 35.0994C1384.08 35.1061 1383.72 35.0365 1383.38 34.8906C1383.04 34.7448 1382.77 34.5194 1382.56 34.2145C1382.35 33.9096 1382.25 33.5268 1382.25 33.0661V25.5341ZM1387.88 37.8636C1387.66 37.8636 1387.46 37.8454 1387.28 37.8089C1387.09 37.7758 1386.96 37.7393 1386.87 37.6996L1387.23 36.4815C1387.5 36.5545 1387.74 36.5859 1387.95 36.576C1388.16 36.5661 1388.35 36.4865 1388.51 36.3374C1388.68 36.1882 1388.83 35.9446 1388.95 35.6065L1389.14 35.0994L1386.34 27.3636H1387.93L1389.87 33.2898H1389.95L1391.88 27.3636H1393.48L1390.33 36.0192C1390.18 36.4169 1390 36.7533 1389.77 37.0284C1389.55 37.3068 1389.28 37.5156 1388.97 37.6548C1388.65 37.794 1388.29 37.8636 1387.88 37.8636Z" fill="#111928"/>
<path d="M1439.98 35H1438.35L1442.01 24.8182H1443.79L1447.45 35H1445.82L1442.94 26.6676H1442.86L1439.98 35ZM1440.25 31.0128H1445.54V32.3054H1440.25V31.0128ZM1450.29 24.8182V35H1448.8V24.8182H1450.29ZM1455.58 35.1541C1454.83 35.1541 1454.18 34.9934 1453.64 34.6719C1453.1 34.3471 1452.68 33.8913 1452.38 33.3047C1452.09 32.7147 1451.95 32.0237 1451.95 31.2315C1451.95 30.4493 1452.09 29.7599 1452.38 29.1634C1452.68 28.5668 1453.09 28.1011 1453.62 27.7663C1454.15 27.4316 1454.77 27.2642 1455.48 27.2642C1455.91 27.2642 1456.32 27.3355 1456.73 27.478C1457.13 27.6205 1457.5 27.8442 1457.82 28.1491C1458.14 28.4541 1458.39 28.8501 1458.58 29.3374C1458.76 29.8213 1458.86 30.4096 1458.86 31.1023V31.6293H1452.79V30.5156H1457.4C1457.4 30.1245 1457.32 29.7782 1457.16 29.4766C1457 29.1716 1456.78 28.9313 1456.49 28.7557C1456.2 28.58 1455.87 28.4922 1455.49 28.4922C1455.07 28.4922 1454.7 28.5949 1454.39 28.8004C1454.08 29.0026 1453.84 29.2678 1453.68 29.5959C1453.51 29.9207 1453.43 30.2737 1453.43 30.6548V31.5249C1453.43 32.0353 1453.52 32.4695 1453.7 32.8274C1453.88 33.1854 1454.13 33.4588 1454.46 33.6477C1454.78 33.8333 1455.16 33.9261 1455.59 33.9261C1455.88 33.9261 1456.13 33.8864 1456.37 33.8068C1456.6 33.724 1456.8 33.6013 1456.97 33.4389C1457.14 33.2765 1457.26 33.076 1457.35 32.8374L1458.76 33.0909C1458.65 33.5052 1458.45 33.8681 1458.15 34.1797C1457.87 34.4879 1457.5 34.7282 1457.07 34.9006C1456.63 35.0696 1456.14 35.1541 1455.58 35.1541ZM1460.51 35V27.3636H1461.94V28.5767H1462.02C1462.16 28.1657 1462.41 27.8426 1462.76 27.6072C1463.11 27.3686 1463.51 27.2493 1463.96 27.2493C1464.05 27.2493 1464.16 27.2526 1464.29 27.2592C1464.42 27.2659 1464.52 27.2741 1464.59 27.2841V28.706C1464.53 28.6894 1464.43 28.6712 1464.27 28.6513C1464.12 28.6281 1463.97 28.6165 1463.82 28.6165C1463.46 28.6165 1463.15 28.6911 1462.88 28.8402C1462.6 28.986 1462.39 29.1899 1462.23 29.4517C1462.07 29.7102 1461.99 30.0052 1461.99 30.3366V35H1460.51ZM1469.89 27.3636V28.5568H1465.72V27.3636H1469.89ZM1466.84 25.5341H1468.33V32.7578C1468.33 33.0462 1468.37 33.2633 1468.46 33.4091C1468.54 33.5516 1468.65 33.6494 1468.79 33.7024C1468.93 33.7521 1469.08 33.777 1469.24 33.777C1469.36 33.777 1469.47 33.7687 1469.56 33.7521C1469.65 33.7356 1469.72 33.7223 1469.76 33.7124L1470.03 34.9403C1469.95 34.9735 1469.82 35.0066 1469.67 35.0398C1469.51 35.0762 1469.31 35.0961 1469.07 35.0994C1468.68 35.1061 1468.31 35.0365 1467.97 34.8906C1467.64 34.7448 1467.36 34.5194 1467.15 34.2145C1466.95 33.9096 1466.84 33.5268 1466.84 33.0661V25.5341ZM1477.14 29.228L1475.79 29.4666C1475.73 29.2943 1475.64 29.1302 1475.52 28.9744C1475.4 28.8187 1475.24 28.6911 1475.03 28.5916C1474.83 28.4922 1474.57 28.4425 1474.26 28.4425C1473.84 28.4425 1473.49 28.5369 1473.21 28.7259C1472.93 28.9115 1472.79 29.1518 1472.79 29.4467C1472.79 29.7019 1472.88 29.9074 1473.07 30.0632C1473.26 30.219 1473.56 30.3466 1473.99 30.446L1475.2 30.7244C1475.9 30.8868 1476.43 31.1371 1476.77 31.4751C1477.11 31.8132 1477.29 32.2524 1477.29 32.7926C1477.29 33.25 1477.15 33.6577 1476.89 34.0156C1476.63 34.3703 1476.26 34.6487 1475.79 34.8509C1475.32 35.053 1474.78 35.1541 1474.16 35.1541C1473.31 35.1541 1472.61 34.9718 1472.07 34.6072C1471.53 34.2393 1471.2 33.7173 1471.08 33.0412L1472.51 32.8224C1472.6 33.197 1472.79 33.4804 1473.07 33.6726C1473.34 33.8615 1473.71 33.956 1474.15 33.956C1474.64 33.956 1475.03 33.8549 1475.32 33.6527C1475.61 33.4472 1475.76 33.197 1475.76 32.902C1475.76 32.6634 1475.67 32.4628 1475.49 32.3004C1475.32 32.138 1475.05 32.0154 1474.68 31.9325L1473.39 31.6491C1472.68 31.4867 1472.15 31.2282 1471.81 30.8736C1471.47 30.5189 1471.3 30.0698 1471.3 29.5263C1471.3 29.0755 1471.43 28.6811 1471.68 28.343C1471.93 28.005 1472.28 27.7415 1472.72 27.5526C1473.17 27.3603 1473.68 27.2642 1474.25 27.2642C1475.07 27.2642 1475.72 27.4432 1476.2 27.8011C1476.67 28.1558 1476.99 28.6314 1477.14 29.228Z" fill="#111928"/>
<path d="M1544.58 28.1293H1543.02C1542.96 27.7978 1542.85 27.5062 1542.69 27.2543C1542.53 27.0024 1542.33 26.7886 1542.09 26.6129C1541.86 26.4373 1541.6 26.3047 1541.3 26.2152C1541.02 26.1257 1540.71 26.081 1540.38 26.081C1539.8 26.081 1539.27 26.2285 1538.81 26.5234C1538.35 26.8184 1537.98 27.2509 1537.71 27.821C1537.45 28.3911 1537.32 29.0871 1537.32 29.9091C1537.32 30.7377 1537.45 31.437 1537.71 32.0071C1537.98 32.5772 1538.35 33.008 1538.81 33.2997C1539.28 33.5914 1539.8 33.7372 1540.38 33.7372C1540.7 33.7372 1541.01 33.6941 1541.29 33.608C1541.59 33.5185 1541.85 33.3875 1542.08 33.2152C1542.32 33.0429 1542.52 32.8324 1542.68 32.5838C1542.85 32.3319 1542.96 32.0436 1543.02 31.7188L1544.58 31.7237C1544.49 32.2242 1544.33 32.6849 1544.09 33.1058C1543.86 33.5234 1543.55 33.8847 1543.18 34.1896C1542.82 34.4912 1542.39 34.7249 1541.92 34.8906C1541.45 35.0563 1540.93 35.1392 1540.37 35.1392C1539.49 35.1392 1538.7 34.9304 1538.01 34.5128C1537.32 34.0919 1536.78 33.4903 1536.38 32.7081C1535.99 31.9259 1535.79 30.9929 1535.79 29.9091C1535.79 28.822 1535.99 27.889 1536.39 27.1101C1536.78 26.3279 1537.33 25.728 1538.02 25.3104C1538.71 24.8894 1539.49 24.679 1540.37 24.679C1540.91 24.679 1541.41 24.7569 1541.88 24.9126C1542.35 25.0651 1542.77 25.2905 1543.15 25.5888C1543.52 25.8838 1543.83 26.245 1544.08 26.6726C1544.32 27.0968 1544.49 27.5824 1544.58 28.1293ZM1548.52 35.169C1548.03 35.169 1547.6 35.0795 1547.2 34.9006C1546.81 34.7183 1546.5 34.4548 1546.27 34.1101C1546.05 33.7654 1545.94 33.3428 1545.94 32.8423C1545.94 32.4115 1546.02 32.0568 1546.18 31.7784C1546.35 31.5 1546.57 31.2796 1546.86 31.1172C1547.14 30.9548 1547.45 30.8321 1547.8 30.7493C1548.15 30.6664 1548.5 30.6035 1548.86 30.5604C1549.32 30.5073 1549.69 30.4643 1549.98 30.4311C1550.26 30.3946 1550.47 30.3366 1550.6 30.2571C1550.73 30.1776 1550.79 30.0483 1550.79 29.8693V29.8345C1550.79 29.4003 1550.67 29.0639 1550.43 28.8253C1550.18 28.5866 1549.82 28.4673 1549.34 28.4673C1548.84 28.4673 1548.45 28.5784 1548.16 28.8004C1547.87 29.0192 1547.68 29.2628 1547.57 29.5312L1546.17 29.2131C1546.34 28.7491 1546.58 28.3745 1546.9 28.0895C1547.22 27.8011 1547.59 27.5923 1548 27.4631C1548.42 27.3305 1548.86 27.2642 1549.32 27.2642C1549.63 27.2642 1549.95 27.3007 1550.29 27.3736C1550.64 27.4432 1550.96 27.5724 1551.26 27.7614C1551.56 27.9503 1551.8 28.2204 1552 28.5717C1552.19 28.9197 1552.28 29.3722 1552.28 29.929V35H1550.83V33.956H1550.77C1550.68 34.1482 1550.53 34.3371 1550.34 34.5227C1550.15 34.7083 1549.9 34.8625 1549.6 34.9851C1549.3 35.1077 1548.94 35.169 1548.52 35.169ZM1548.84 33.9759C1549.25 33.9759 1549.6 33.8946 1549.89 33.7322C1550.19 33.5698 1550.41 33.3577 1550.56 33.0959C1550.72 32.8307 1550.8 32.5473 1550.8 32.2457V31.2614C1550.75 31.3144 1550.64 31.3641 1550.49 31.4105C1550.34 31.4536 1550.17 31.4917 1549.98 31.5249C1549.79 31.5547 1549.6 31.5829 1549.42 31.6094C1549.23 31.6326 1549.08 31.6525 1548.96 31.669C1548.67 31.7055 1548.41 31.7668 1548.17 31.853C1547.93 31.9392 1547.74 32.0634 1547.6 32.2259C1547.46 32.3849 1547.39 32.5971 1547.39 32.8622C1547.39 33.2301 1547.53 33.5085 1547.8 33.6974C1548.07 33.883 1548.42 33.9759 1548.84 33.9759ZM1554.26 35V27.3636H1555.7V28.5767H1555.78C1555.92 28.1657 1556.17 27.8426 1556.52 27.6072C1556.87 27.3686 1557.27 27.2493 1557.72 27.2493C1557.81 27.2493 1557.92 27.2526 1558.05 27.2592C1558.18 27.2659 1558.28 27.2741 1558.35 27.2841V28.706C1558.29 28.6894 1558.19 28.6712 1558.03 28.6513C1557.88 28.6281 1557.73 28.6165 1557.58 28.6165C1557.22 28.6165 1556.91 28.6911 1556.64 28.8402C1556.36 28.986 1556.15 29.1899 1555.99 29.4517C1555.83 29.7102 1555.75 30.0052 1555.75 30.3366V35H1554.26ZM1562.66 35.1541C1561.9 35.1541 1561.26 34.9934 1560.71 34.6719C1560.17 34.3471 1559.75 33.8913 1559.46 33.3047C1559.17 32.7147 1559.02 32.0237 1559.02 31.2315C1559.02 30.4493 1559.17 29.7599 1559.46 29.1634C1559.75 28.5668 1560.16 28.1011 1560.69 27.7663C1561.22 27.4316 1561.84 27.2642 1562.55 27.2642C1562.98 27.2642 1563.4 27.3355 1563.8 27.478C1564.21 27.6205 1564.57 27.8442 1564.89 28.1491C1565.21 28.4541 1565.47 28.8501 1565.65 29.3374C1565.84 29.8213 1565.93 30.4096 1565.93 31.1023V31.6293H1559.86V30.5156H1564.48C1564.48 30.1245 1564.4 29.7782 1564.24 29.4766C1564.08 29.1716 1563.85 28.9313 1563.57 28.7557C1563.28 28.58 1562.95 28.4922 1562.56 28.4922C1562.14 28.4922 1561.78 28.5949 1561.47 28.8004C1561.16 29.0026 1560.92 29.2678 1560.75 29.5959C1560.59 29.9207 1560.5 30.2737 1560.5 30.6548V31.5249C1560.5 32.0353 1560.59 32.4695 1560.77 32.8274C1560.95 33.1854 1561.21 33.4588 1561.53 33.6477C1561.86 33.8333 1562.24 33.9261 1562.67 33.9261C1562.95 33.9261 1563.21 33.8864 1563.44 33.8068C1563.67 33.724 1563.87 33.6013 1564.04 33.4389C1564.21 33.2765 1564.34 33.076 1564.43 32.8374L1565.84 33.0909C1565.72 33.5052 1565.52 33.8681 1565.23 34.1797C1564.94 34.4879 1564.58 34.7282 1564.14 34.9006C1563.71 35.0696 1563.21 35.1541 1562.66 35.1541ZM1574.85 27.3636V28.5568H1570.68V27.3636H1574.85ZM1571.8 25.5341H1573.28V32.7578C1573.28 33.0462 1573.33 33.2633 1573.41 33.4091C1573.5 33.5516 1573.61 33.6494 1573.75 33.7024C1573.89 33.7521 1574.04 33.777 1574.2 33.777C1574.32 33.777 1574.42 33.7687 1574.51 33.7521C1574.6 33.7356 1574.67 33.7223 1574.72 33.7124L1574.99 34.9403C1574.9 34.9735 1574.78 35.0066 1574.62 35.0398C1574.46 35.0762 1574.26 35.0961 1574.03 35.0994C1573.63 35.1061 1573.27 35.0365 1572.93 34.8906C1572.59 34.7448 1572.32 34.5194 1572.11 34.2145C1571.9 33.9096 1571.8 33.5268 1571.8 33.0661V25.5341ZM1579.7 35.1541C1578.95 35.1541 1578.3 34.9934 1577.76 34.6719C1577.22 34.3471 1576.8 33.8913 1576.51 33.3047C1576.22 32.7147 1576.07 32.0237 1576.07 31.2315C1576.07 30.4493 1576.22 29.7599 1576.51 29.1634C1576.8 28.5668 1577.21 28.1011 1577.74 27.7663C1578.27 27.4316 1578.89 27.2642 1579.6 27.2642C1580.03 27.2642 1580.45 27.3355 1580.85 27.478C1581.26 27.6205 1581.62 27.8442 1581.94 28.1491C1582.26 28.4541 1582.52 28.8501 1582.7 29.3374C1582.89 29.8213 1582.98 30.4096 1582.98 31.1023V31.6293H1576.91V30.5156H1581.52C1581.52 30.1245 1581.44 29.7782 1581.29 29.4766C1581.13 29.1716 1580.9 28.9313 1580.61 28.7557C1580.33 28.58 1579.99 28.4922 1579.61 28.4922C1579.19 28.4922 1578.83 28.5949 1578.52 28.8004C1578.21 29.0026 1577.97 29.2678 1577.8 29.5959C1577.63 29.9207 1577.55 30.2737 1577.55 30.6548V31.5249C1577.55 32.0353 1577.64 32.4695 1577.82 32.8274C1578 33.1854 1578.26 33.4588 1578.58 33.6477C1578.91 33.8333 1579.29 33.9261 1579.72 33.9261C1580 33.9261 1580.26 33.8864 1580.49 33.8068C1580.72 33.724 1580.92 33.6013 1581.09 33.4389C1581.26 33.2765 1581.39 33.076 1581.48 32.8374L1582.89 33.0909C1582.77 33.5052 1582.57 33.8681 1582.28 34.1797C1581.99 34.4879 1581.63 34.7282 1581.19 34.9006C1580.76 35.0696 1580.26 35.1541 1579.7 35.1541ZM1586.85 35.169C1586.37 35.169 1585.93 35.0795 1585.54 34.9006C1585.15 34.7183 1584.84 34.4548 1584.61 34.1101C1584.38 33.7654 1584.27 33.3428 1584.27 32.8423C1584.27 32.4115 1584.36 32.0568 1584.52 31.7784C1584.69 31.5 1584.91 31.2796 1585.19 31.1172C1585.47 30.9548 1585.79 30.8321 1586.14 30.7493C1586.48 30.6664 1586.84 30.6035 1587.2 30.5604C1587.66 30.5073 1588.03 30.4643 1588.31 30.4311C1588.6 30.3946 1588.81 30.3366 1588.94 30.2571C1589.06 30.1776 1589.13 30.0483 1589.13 29.8693V29.8345C1589.13 29.4003 1589.01 29.0639 1588.76 28.8253C1588.52 28.5866 1588.16 28.4673 1587.68 28.4673C1587.18 28.4673 1586.78 28.5784 1586.49 28.8004C1586.21 29.0192 1586.01 29.2628 1585.9 29.5312L1584.51 29.2131C1584.67 28.7491 1584.91 28.3745 1585.23 28.0895C1585.55 27.8011 1585.92 27.5923 1586.34 27.4631C1586.76 27.3305 1587.2 27.2642 1587.66 27.2642C1587.96 27.2642 1588.29 27.3007 1588.63 27.3736C1588.97 27.4432 1589.29 27.5724 1589.59 27.7614C1589.89 27.9503 1590.14 28.2204 1590.33 28.5717C1590.52 28.9197 1590.62 29.3722 1590.62 29.929V35H1589.17V33.956H1589.11C1589.01 34.1482 1588.87 34.3371 1588.68 34.5227C1588.48 34.7083 1588.24 34.8625 1587.94 34.9851C1587.63 35.1077 1587.27 35.169 1586.85 35.169ZM1587.18 33.9759C1587.59 33.9759 1587.94 33.8946 1588.23 33.7322C1588.52 33.5698 1588.75 33.3577 1588.9 33.0959C1589.06 32.8307 1589.13 32.5473 1589.13 32.2457V31.2614C1589.08 31.3144 1588.98 31.3641 1588.83 31.4105C1588.68 31.4536 1588.51 31.4917 1588.31 31.5249C1588.12 31.5547 1587.93 31.5829 1587.75 31.6094C1587.57 31.6326 1587.42 31.6525 1587.29 31.669C1587.01 31.7055 1586.74 31.7668 1586.5 31.853C1586.27 31.9392 1586.08 32.0634 1585.94 32.2259C1585.8 32.3849 1585.73 32.5971 1585.73 32.8622C1585.73 33.2301 1585.86 33.5085 1586.14 33.6974C1586.41 33.883 1586.75 33.9759 1587.18 33.9759ZM1592.6 35V27.3636H1594.03V28.6065H1594.12C1594.28 28.1856 1594.54 27.8575 1594.9 27.6222C1595.26 27.3835 1595.7 27.2642 1596.2 27.2642C1596.71 27.2642 1597.14 27.3835 1597.48 27.6222C1597.83 27.8608 1598.09 28.1889 1598.25 28.6065H1598.33C1598.52 28.1989 1598.81 27.8741 1599.2 27.6321C1599.6 27.3868 1600.07 27.2642 1600.62 27.2642C1601.32 27.2642 1601.88 27.4813 1602.32 27.9155C1602.76 28.3497 1602.98 29.0043 1602.98 29.8793V35H1601.5V30.0185C1601.5 29.5014 1601.35 29.1269 1601.07 28.8949C1600.79 28.6629 1600.45 28.5469 1600.06 28.5469C1599.58 28.5469 1599.2 28.696 1598.93 28.9943C1598.67 29.2893 1598.53 29.6688 1598.53 30.1328V35H1597.05V29.924C1597.05 29.5097 1596.92 29.1766 1596.66 28.9247C1596.4 28.6728 1596.07 28.5469 1595.65 28.5469C1595.37 28.5469 1595.11 28.6214 1594.87 28.7706C1594.64 28.9164 1594.45 29.1203 1594.3 29.3821C1594.16 29.6439 1594.09 29.9472 1594.09 30.2919V35H1592.6Z" fill="#111928"/>
<path d="M1706.12 35V24.8182H1709.75C1710.54 24.8182 1711.19 24.9541 1711.71 25.2259C1712.24 25.4976 1712.63 25.8738 1712.88 26.3544C1713.14 26.8317 1713.27 27.3835 1713.27 28.0099C1713.27 28.633 1713.14 29.1816 1712.88 29.6555C1712.62 30.1262 1712.23 30.4924 1711.71 30.7543C1711.19 31.0161 1710.53 31.147 1709.74 31.147H1706.99V29.8246H1709.6C1710.1 29.8246 1710.51 29.7533 1710.82 29.6108C1711.13 29.4683 1711.36 29.2611 1711.51 28.9893C1711.65 28.7176 1711.73 28.3911 1711.73 28.0099C1711.73 27.6255 1711.65 27.2924 1711.5 27.0107C1711.36 26.7289 1711.13 26.5135 1710.81 26.3643C1710.5 26.2119 1710.09 26.1357 1709.58 26.1357H1707.65V35H1706.12ZM1711.14 30.4062L1713.66 35H1711.91L1709.44 30.4062H1711.14ZM1718.22 35.1541C1717.47 35.1541 1716.82 34.9934 1716.27 34.6719C1715.73 34.3471 1715.32 33.8913 1715.02 33.3047C1714.73 32.7147 1714.58 32.0237 1714.58 31.2315C1714.58 30.4493 1714.73 29.7599 1715.02 29.1634C1715.32 28.5668 1715.73 28.1011 1716.25 27.7663C1716.78 27.4316 1717.4 27.2642 1718.11 27.2642C1718.54 27.2642 1718.96 27.3355 1719.37 27.478C1719.77 27.6205 1720.13 27.8442 1720.46 28.1491C1720.78 28.4541 1721.03 28.8501 1721.22 29.3374C1721.4 29.8213 1721.49 30.4096 1721.49 31.1023V31.6293H1715.42V30.5156H1720.04C1720.04 30.1245 1719.96 29.7782 1719.8 29.4766C1719.64 29.1716 1719.42 28.9313 1719.13 28.7557C1718.84 28.58 1718.51 28.4922 1718.12 28.4922C1717.71 28.4922 1717.34 28.5949 1717.03 28.8004C1716.72 29.0026 1716.48 29.2678 1716.31 29.5959C1716.15 29.9207 1716.07 30.2737 1716.07 30.6548V31.5249C1716.07 32.0353 1716.16 32.4695 1716.33 32.8274C1716.52 33.1854 1716.77 33.4588 1717.09 33.6477C1717.42 33.8333 1717.8 33.9261 1718.23 33.9261C1718.51 33.9261 1718.77 33.8864 1719 33.8068C1719.24 33.724 1719.44 33.6013 1719.61 33.4389C1719.77 33.2765 1719.9 33.076 1719.99 32.8374L1721.4 33.0909C1721.29 33.5052 1721.09 33.8681 1720.79 34.1797C1720.51 34.4879 1720.14 34.7282 1719.7 34.9006C1719.27 35.0696 1718.78 35.1541 1718.22 35.1541ZM1725.37 35.169C1724.88 35.169 1724.44 35.0795 1724.05 34.9006C1723.66 34.7183 1723.35 34.4548 1723.12 34.1101C1722.9 33.7654 1722.79 33.3428 1722.79 32.8423C1722.79 32.4115 1722.87 32.0568 1723.03 31.7784C1723.2 31.5 1723.42 31.2796 1723.71 31.1172C1723.99 30.9548 1724.3 30.8321 1724.65 30.7493C1725 30.6664 1725.35 30.6035 1725.71 30.5604C1726.17 30.5073 1726.54 30.4643 1726.83 30.4311C1727.11 30.3946 1727.32 30.3366 1727.45 30.2571C1727.58 30.1776 1727.64 30.0483 1727.64 29.8693V29.8345C1727.64 29.4003 1727.52 29.0639 1727.28 28.8253C1727.03 28.5866 1726.67 28.4673 1726.19 28.4673C1725.69 28.4673 1725.3 28.5784 1725.01 28.8004C1724.72 29.0192 1724.53 29.2628 1724.42 29.5312L1723.02 29.2131C1723.19 28.7491 1723.43 28.3745 1723.75 28.0895C1724.07 27.8011 1724.44 27.5923 1724.85 27.4631C1725.27 27.3305 1725.71 27.2642 1726.17 27.2642C1726.48 27.2642 1726.8 27.3007 1727.14 27.3736C1727.49 27.4432 1727.81 27.5724 1728.11 27.7614C1728.41 27.9503 1728.65 28.2204 1728.85 28.5717C1729.04 28.9197 1729.13 29.3722 1729.13 29.929V35H1727.68V33.956H1727.62C1727.53 34.1482 1727.38 34.3371 1727.19 34.5227C1727 34.7083 1726.75 34.8625 1726.45 34.9851C1726.15 35.1077 1725.79 35.169 1725.37 35.169ZM1725.69 33.9759C1726.1 33.9759 1726.45 33.8946 1726.74 33.7322C1727.04 33.5698 1727.26 33.3577 1727.41 33.0959C1727.57 32.8307 1727.65 32.5473 1727.65 32.2457V31.2614C1727.6 31.3144 1727.49 31.3641 1727.34 31.4105C1727.19 31.4536 1727.02 31.4917 1726.83 31.5249C1726.64 31.5547 1726.45 31.5829 1726.27 31.6094C1726.08 31.6326 1725.93 31.6525 1725.81 31.669C1725.52 31.7055 1725.26 31.7668 1725.02 31.853C1724.78 31.9392 1724.59 32.0634 1724.45 32.2259C1724.31 32.3849 1724.24 32.5971 1724.24 32.8622C1724.24 33.2301 1724.38 33.5085 1724.65 33.6974C1724.92 33.883 1725.27 33.9759 1725.69 33.9759ZM1733.97 35.1491C1733.36 35.1491 1732.81 34.9917 1732.32 34.6768C1731.84 34.3587 1731.46 33.9062 1731.19 33.3196C1730.92 32.7296 1730.78 32.022 1730.78 31.1967C1730.78 30.3714 1730.92 29.6655 1731.19 29.0788C1731.47 28.4922 1731.85 28.0431 1732.34 27.7315C1732.82 27.42 1733.37 27.2642 1733.98 27.2642C1734.46 27.2642 1734.84 27.3438 1735.13 27.5028C1735.42 27.6586 1735.64 27.8409 1735.8 28.0497C1735.97 28.2585 1736.09 28.4425 1736.18 28.6016H1736.27V24.8182H1737.76V35H1736.3V33.8118H1736.18C1736.09 33.9742 1735.96 34.1598 1735.79 34.3686C1735.63 34.5774 1735.4 34.7597 1735.11 34.9155C1734.82 35.0713 1734.44 35.1491 1733.97 35.1491ZM1734.3 33.8814C1734.73 33.8814 1735.09 33.7687 1735.39 33.5433C1735.68 33.3146 1735.91 32.9981 1736.06 32.5938C1736.22 32.1894 1736.29 31.7187 1736.29 31.1818C1736.29 30.6515 1736.22 30.1875 1736.07 29.7898C1735.91 29.392 1735.69 29.0821 1735.4 28.8601C1735.1 28.638 1734.74 28.527 1734.3 28.527C1733.85 28.527 1733.48 28.643 1733.18 28.875C1732.88 29.107 1732.66 29.4235 1732.51 29.8246C1732.36 30.2256 1732.28 30.678 1732.28 31.1818C1732.28 31.6922 1732.36 32.1513 1732.51 32.5589C1732.66 32.9666 1732.89 33.2898 1733.19 33.5284C1733.49 33.7637 1733.86 33.8814 1734.3 33.8814ZM1739.88 35V27.3636H1741.36V35H1739.88ZM1740.63 26.1854C1740.37 26.1854 1740.15 26.0992 1739.96 25.9268C1739.78 25.7512 1739.69 25.5424 1739.69 25.3004C1739.69 25.0552 1739.78 24.8464 1739.96 24.674C1740.15 24.4983 1740.37 24.4105 1740.63 24.4105C1740.89 24.4105 1741.11 24.4983 1741.29 24.674C1741.48 24.8464 1741.57 25.0552 1741.57 25.3004C1741.57 25.5424 1741.48 25.7512 1741.29 25.9268C1741.11 26.0992 1740.89 26.1854 1740.63 26.1854ZM1744.85 30.4659V35H1743.36V27.3636H1744.79V28.6065H1744.89C1745.06 28.2022 1745.34 27.8774 1745.71 27.6321C1746.09 27.3868 1746.56 27.2642 1747.14 27.2642C1747.66 27.2642 1748.11 27.3736 1748.51 27.5923C1748.9 27.8078 1749.2 28.1293 1749.41 28.5568C1749.63 28.9844 1749.74 29.513 1749.74 30.1428V35H1748.25V30.3217C1748.25 29.7682 1748.11 29.3357 1747.82 29.0241C1747.53 28.7093 1747.13 28.5518 1746.63 28.5518C1746.29 28.5518 1745.98 28.6264 1745.71 28.7756C1745.45 28.9247 1745.24 29.1435 1745.08 29.4318C1744.93 29.7169 1744.85 30.0616 1744.85 30.4659ZM1754.93 38.0227C1754.33 38.0227 1753.8 37.9432 1753.37 37.7841C1752.93 37.625 1752.58 37.4145 1752.3 37.1527C1752.03 36.8909 1751.82 36.6042 1751.69 36.2926L1752.96 35.7656C1753.05 35.9115 1753.17 36.0656 1753.32 36.228C1753.48 36.3937 1753.68 36.5346 1753.94 36.6506C1754.2 36.7666 1754.54 36.8246 1754.95 36.8246C1755.51 36.8246 1755.98 36.687 1756.35 36.4119C1756.71 36.1402 1756.9 35.706 1756.9 35.1094V33.608H1756.8C1756.71 33.7704 1756.58 33.951 1756.41 34.1499C1756.25 34.3487 1756.02 34.5211 1755.73 34.6669C1755.44 34.8127 1755.06 34.8857 1754.59 34.8857C1753.99 34.8857 1753.44 34.7448 1752.96 34.4631C1752.48 34.178 1752.1 33.7588 1751.82 33.2053C1751.54 32.6484 1751.4 31.964 1751.4 31.152C1751.4 30.34 1751.54 29.6439 1751.81 29.0639C1752.09 28.4839 1752.47 28.0398 1752.95 27.7315C1753.44 27.42 1753.99 27.2642 1754.6 27.2642C1755.07 27.2642 1755.46 27.3438 1755.75 27.5028C1756.04 27.6586 1756.27 27.8409 1756.43 28.0497C1756.6 28.2585 1756.72 28.4425 1756.81 28.6016H1756.92V27.3636H1758.38V35.169C1758.38 35.8253 1758.23 36.3639 1757.92 36.7848C1757.62 37.2057 1757.2 37.5173 1756.68 37.7195C1756.17 37.9216 1755.58 38.0227 1754.93 38.0227ZM1754.92 33.6527C1755.35 33.6527 1755.71 33.5533 1756 33.3544C1756.3 33.1522 1756.53 32.8639 1756.68 32.4893C1756.83 32.1115 1756.91 31.6591 1756.91 31.1321C1756.91 30.6184 1756.84 30.166 1756.68 29.7749C1756.53 29.3838 1756.31 29.0788 1756.01 28.8601C1755.72 28.638 1755.35 28.527 1754.92 28.527C1754.47 28.527 1754.1 28.643 1753.8 28.875C1753.5 29.1037 1753.28 29.4152 1753.12 29.8097C1752.97 30.2041 1752.9 30.6449 1752.9 31.1321C1752.9 31.6326 1752.98 32.0717 1753.13 32.4496C1753.28 32.8274 1753.51 33.1224 1753.8 33.3345C1754.11 33.5466 1754.48 33.6527 1754.92 33.6527ZM1766.09 29.228L1764.75 29.4666C1764.69 29.2943 1764.6 29.1302 1764.48 28.9744C1764.36 28.8187 1764.2 28.6911 1763.99 28.5916C1763.79 28.4922 1763.53 28.4425 1763.22 28.4425C1762.8 28.4425 1762.45 28.5369 1762.17 28.7259C1761.89 28.9115 1761.74 29.1518 1761.74 29.4467C1761.74 29.7019 1761.84 29.9074 1762.03 30.0632C1762.22 30.219 1762.52 30.3466 1762.94 30.446L1764.16 30.7244C1764.86 30.8868 1765.38 31.1371 1765.73 31.4751C1766.07 31.8132 1766.24 32.2524 1766.24 32.7926C1766.24 33.25 1766.11 33.6577 1765.85 34.0156C1765.58 34.3703 1765.22 34.6487 1764.75 34.8509C1764.28 35.053 1763.74 35.1541 1763.12 35.1541C1762.27 35.1541 1761.57 34.9718 1761.03 34.6072C1760.49 34.2393 1760.16 33.7173 1760.03 33.0412L1761.47 32.8224C1761.56 33.197 1761.74 33.4804 1762.02 33.6726C1762.3 33.8615 1762.66 33.956 1763.11 33.956C1763.6 33.956 1763.99 33.8549 1764.28 33.6527C1764.57 33.4472 1764.72 33.197 1764.72 32.902C1764.72 32.6634 1764.63 32.4628 1764.45 32.3004C1764.27 32.138 1764 32.0154 1763.64 31.9325L1762.35 31.6491C1761.63 31.4867 1761.11 31.2282 1760.77 30.8736C1760.43 30.5189 1760.26 30.0698 1760.26 29.5263C1760.26 29.0755 1760.38 28.6811 1760.64 28.343C1760.89 28.005 1761.24 27.7415 1761.68 27.5526C1762.12 27.3603 1762.63 27.2642 1763.21 27.2642C1764.03 27.2642 1764.68 27.4432 1765.16 27.8011C1765.63 28.1558 1765.94 28.6314 1766.09 29.228Z" fill="#111928"/>
<path d="M1258.28 37.2727V46H1256.96V37.2727H1258.28ZM1260.19 46V37.2727H1261.47V40.5156H1261.54C1261.62 40.3793 1261.72 40.2216 1261.86 40.0426C1262 39.8636 1262.2 39.7074 1262.44 39.5739C1262.69 39.4375 1263.02 39.3693 1263.42 39.3693C1263.95 39.3693 1264.42 39.5028 1264.84 39.7699C1265.25 40.0369 1265.58 40.4219 1265.81 40.9247C1266.05 41.4276 1266.17 42.0327 1266.17 42.7401C1266.17 43.4474 1266.05 44.054 1265.82 44.5597C1265.58 45.0625 1265.26 45.4503 1264.85 45.723C1264.43 45.9929 1263.96 46.1278 1263.44 46.1278C1263.04 46.1278 1262.71 46.0611 1262.46 45.9276C1262.21 45.794 1262.01 45.6378 1261.87 45.4588C1261.73 45.2798 1261.62 45.1207 1261.54 44.9815H1261.44V46H1260.19ZM1261.44 42.7273C1261.44 43.1875 1261.51 43.5909 1261.64 43.9375C1261.78 44.2841 1261.97 44.5554 1262.22 44.7514C1262.47 44.9446 1262.78 45.0412 1263.15 45.0412C1263.53 45.0412 1263.85 44.9403 1264.11 44.7386C1264.36 44.5341 1264.55 44.2571 1264.68 43.9077C1264.82 43.5582 1264.88 43.1648 1264.88 42.7273C1264.88 42.2955 1264.82 41.9077 1264.69 41.5639C1264.56 41.2202 1264.37 40.9489 1264.11 40.75C1263.85 40.5511 1263.53 40.4517 1263.15 40.4517C1262.78 40.4517 1262.47 40.5469 1262.21 40.7372C1261.96 40.9276 1261.77 41.1932 1261.64 41.5341C1261.51 41.875 1261.44 42.2727 1261.44 42.7273Z" fill="#111928"/>
</svg>
