
<svg width="162" height="19" viewBox="0 0 162 19" fill="none" xmlns="http://www.w3.org/2000/svg">
<path d="M0.721591 0.545454H4.59091L9.77273 13.1932H9.97727L15.1591 0.545454H19.0284V18H15.9943V6.00852H15.8324L11.0085 17.9489H8.74148L3.91761 5.98295H3.75568V18H0.721591V0.545454ZM24.7131 18H21.3381L27.483 0.545454H31.3864L37.5398 18H34.1648L29.5028 4.125H29.3665L24.7131 18ZM24.8239 11.1562H34.0284V13.696H24.8239V11.1562ZM39.8388 18V0.545454H43.0007V7.93466H51.0888V0.545454H54.2592V18H51.0888V10.5852H43.0007V18H39.8388ZM59.9396 18H56.5646L62.7095 0.545454H66.6129L72.7663 18H69.3913L64.7294 4.125H64.593L59.9396 18ZM60.0504 11.1562H69.255V13.696H60.0504V11.1562ZM75.0653 18V0.545454H78.2273V15.3494H85.9148V18H75.0653ZM103.576 9.27273C103.576 11.1534 103.224 12.7642 102.519 14.1051C101.82 15.4403 100.866 16.4631 99.6555 17.1733C98.451 17.8835 97.0845 18.2386 95.5561 18.2386C94.0277 18.2386 92.6584 17.8835 91.4482 17.1733C90.2436 16.4574 89.2891 15.4318 88.5845 14.0966C87.8857 12.7557 87.5362 11.1477 87.5362 9.27273C87.5362 7.39205 87.8857 5.78409 88.5845 4.44886C89.2891 3.10795 90.2436 2.08239 91.4482 1.37216C92.6584 0.661931 94.0277 0.306818 95.5561 0.306818C97.0845 0.306818 98.451 0.661931 99.6555 1.37216C100.866 2.08239 101.82 3.10795 102.519 4.44886C103.224 5.78409 103.576 7.39205 103.576 9.27273ZM100.397 9.27273C100.397 7.94886 100.19 6.83239 99.7749 5.92329C99.3658 5.00852 98.7976 4.31818 98.0703 3.85227C97.343 3.38068 96.505 3.14489 95.5561 3.14489C94.6072 3.14489 93.7692 3.38068 93.0419 3.85227C92.3146 4.31818 91.7436 5.00852 91.3288 5.92329C90.9197 6.83239 90.7152 7.94886 90.7152 9.27273C90.7152 10.5966 90.9197 11.7159 91.3288 12.6307C91.7436 13.5398 92.3146 14.2301 93.0419 14.7017C93.7692 15.1676 94.6072 15.4006 95.5561 15.4006C96.505 15.4006 97.343 15.1676 98.0703 14.7017C98.7976 14.2301 99.3658 13.5398 99.7749 12.6307C100.19 11.7159 100.397 10.5966 100.397 9.27273Z" fill="black"/>
<path d="M112.714 18V0.545454H118.936C120.288 0.545454 121.411 0.778409 122.303 1.24432C123.2 1.71023 123.871 2.35511 124.314 3.17898C124.757 3.99716 124.979 4.94318 124.979 6.01705C124.979 7.08523 124.754 8.02557 124.305 8.83807C123.862 9.64489 123.192 10.2727 122.294 10.7216C121.402 11.1705 120.28 11.3949 118.928 11.3949H114.214V9.12784H118.689C119.541 9.12784 120.234 9.00568 120.768 8.76136C121.308 8.51705 121.703 8.16193 121.953 7.69602C122.203 7.23011 122.328 6.67045 122.328 6.01705C122.328 5.35795 122.2 4.78693 121.945 4.30398C121.695 3.82102 121.3 3.4517 120.76 3.19602C120.226 2.93466 119.524 2.80398 118.655 2.80398H115.348V18H112.714ZM121.331 10.125L125.643 18H122.643L118.416 10.125H121.331ZM128.183 18V0.545454H134.405C135.763 0.545454 136.888 0.792613 137.78 1.28693C138.672 1.78125 139.339 2.45739 139.783 3.31534C140.226 4.16761 140.447 5.12784 140.447 6.19602C140.447 7.26989 140.223 8.2358 139.774 9.09375C139.331 9.94602 138.661 10.6222 137.763 11.1222C136.871 11.6165 135.749 11.8636 134.396 11.8636H130.118V9.63068H134.158C135.016 9.63068 135.712 9.48295 136.246 9.1875C136.78 8.88636 137.172 8.47727 137.422 7.96023C137.672 7.44318 137.797 6.85511 137.797 6.19602C137.797 5.53693 137.672 4.9517 137.422 4.44034C137.172 3.92898 136.777 3.52841 136.237 3.23864C135.703 2.94886 134.999 2.80398 134.124 2.80398H130.817V18H128.183ZM143.535 0.545454H146.731L152.288 14.1136H152.492L158.049 0.545454H161.245V18H158.739V5.36932H158.577L153.43 17.9744H151.35L146.202 5.36079H146.04V18H143.535V0.545454Z" fill="#1C64F2"/>
</svg>
