<svg width="47" height="35" viewBox="0 0 47 35" fill="none" xmlns="http://www.w3.org/2000/svg">
<path d="M15.494 27.3507C18.6157 26.4209 26.5328 22.4341 30.0397 18.1102C34.4234 12.7053 38.6445 10.1499 41.5967 9.74138C45.769 9.16401 46.3789 16.018 44.984 18.8076C43.5892 21.5972 41.9952 23.1663 39.8034 24.0381" stroke="#FBA306" stroke-width="2"/>
<path d="M14.6968 27.5258C10.7117 27.8745 3.13973 30.1409 1.94427 24.0387C0.748801 17.9365 8.91835 0.252384 21.2722 1.02451C23.132 1.14074 26.0545 1.54759 28.047 4.33716C29.9508 7.00256 28.8441 10.7882 28.6448 13.229C28.3885 16.3674 29.8404 17.2391 30.4382 17.9365" stroke="#1DD0F8" stroke-width="2"/>
<path d="M13.8084 27.7268L14.5331 28.416L15.9114 26.9668L15.1868 26.2776L13.8084 27.7268ZM18.2835 7.99805L18.3417 6.99975L18.3126 6.99805H18.2835V7.99805ZM23.0657 15.4951L24.0651 15.4605L23.0657 15.4951ZM29.8405 25.6074L30.0649 24.6329L30.0292 24.6247L29.9931 24.6191L29.8405 25.6074ZM15.1868 26.2776C14.2413 25.3784 13.5089 23.8623 13.0957 21.9796C12.6865 20.1155 12.6144 17.9967 12.8972 16.0063C13.1814 14.0069 13.8125 12.2134 14.7431 10.9465C15.6554 9.70445 16.8237 8.99805 18.2835 8.99805V6.99805C16.057 6.99805 14.336 8.12232 13.1312 9.7625C11.9446 11.3779 11.2308 13.5181 10.9171 15.7249C10.6022 17.9408 10.6795 20.3005 11.1422 22.4084C11.6007 24.4975 12.4624 26.4466 13.8084 27.7268L15.1868 26.2776ZM18.2252 8.99635C19.1908 9.0527 19.9499 9.14306 20.5791 9.80159C21.2443 10.4978 21.9451 12.0325 22.0663 15.5298L24.0651 15.4605C23.9388 11.8168 23.209 9.65905 22.0252 8.41999C20.8054 7.14324 19.2972 7.05551 18.3417 6.99975L18.2252 8.99635ZM22.0663 15.5298C22.1422 17.7191 22.1322 20.2322 23.061 22.2835C24.058 24.4856 26.0476 26.0336 29.6879 26.5957L29.9931 24.6191C26.8586 24.1351 25.54 22.9097 24.8829 21.4585C24.1576 19.8566 24.1475 17.8365 24.0651 15.4605L22.0663 15.5298ZM29.6161 26.5819C30.3952 26.7613 32.0099 26.8402 33.8204 26.6683C35.6486 26.4948 37.8136 26.0537 39.6632 25.1018L38.7479 23.3235C37.21 24.115 35.3234 24.5167 33.6314 24.6773C31.9219 24.8396 30.5477 24.7441 30.0649 24.6329L29.6161 26.5819Z" fill="#013765"/>
<path d="M15.0949 27.5258C18.8808 32.0589 32.8288 36.592 38.8065 32.2332C41.9947 29.4436 40.9984 24.9105 38.408 22.8183C35.8177 20.7261 32.0318 19.8544 30.4377 17.9365" stroke="#FF577A" stroke-width="2"/>
</svg>
