
<svg width="1047" height="358" viewBox="0 0 1047 358" fill="none" xmlns="http://www.w3.org/2000/svg">
<g filter="url(#filter0_dd_155_19629)">
<rect x="3" y="2" width="1041" height="352" rx="16" fill="white"/>
</g>
<path fill-rule="evenodd" clip-rule="evenodd" d="M552.8 118.4C552.577 118.401 552.359 118.463 552.169 118.58C551.98 118.697 551.827 118.865 551.727 119.064L550.858 120.8H546.8C546.482 120.8 546.177 120.927 545.952 121.152C545.727 121.377 545.6 121.682 545.6 122C545.6 122.319 545.727 122.624 545.952 122.849C546.177 123.074 546.482 123.2 546.8 123.2V135.2C546.8 135.837 547.053 136.447 547.503 136.897C547.953 137.348 548.564 137.6 549.2 137.6H558.8C559.437 137.6 560.047 137.348 560.497 136.897C560.947 136.447 561.2 135.837 561.2 135.2V123.2C561.518 123.2 561.824 123.074 562.049 122.849C562.274 122.624 562.4 122.319 562.4 122C562.4 121.682 562.274 121.377 562.049 121.152C561.824 120.927 561.518 120.8 561.2 120.8H557.142L556.273 119.064C556.173 118.865 556.02 118.697 555.831 118.58C555.641 118.463 555.423 118.401 555.2 118.4H552.8ZM550.4 125.6C550.4 125.282 550.527 124.977 550.752 124.752C550.977 124.527 551.282 124.4 551.6 124.4C551.918 124.4 552.224 124.527 552.449 124.752C552.674 124.977 552.8 125.282 552.8 125.6V132.8C552.8 133.119 552.674 133.424 552.449 133.649C552.224 133.874 551.918 134 551.6 134C551.282 134 550.977 133.874 550.752 133.649C550.527 133.424 550.4 133.119 550.4 132.8V125.6ZM556.4 124.4C556.082 124.4 555.777 124.527 555.552 124.752C555.327 124.977 555.2 125.282 555.2 125.6V132.8C555.2 133.119 555.327 133.424 555.552 133.649C555.777 133.874 556.082 134 556.4 134C556.718 134 557.024 133.874 557.249 133.649C557.474 133.424 557.6 133.119 557.6 132.8V125.6C557.6 125.282 557.474 124.977 557.249 124.752C557.024 124.527 556.718 124.4 556.4 124.4Z" fill="#9CA3AF"/>
<path fill-rule="evenodd" clip-rule="evenodd" d="M552.8 178.4C552.577 178.401 552.359 178.463 552.169 178.58C551.98 178.697 551.827 178.865 551.727 179.064L550.858 180.8H546.8C546.482 180.8 546.177 180.927 545.952 181.152C545.727 181.377 545.6 181.682 545.6 182C545.6 182.319 545.727 182.624 545.952 182.849C546.177 183.074 546.482 183.2 546.8 183.2V195.2C546.8 195.837 547.053 196.447 547.503 196.897C547.953 197.348 548.564 197.6 549.2 197.6H558.8C559.437 197.6 560.047 197.348 560.497 196.897C560.947 196.447 561.2 195.837 561.2 195.2V183.2C561.518 183.2 561.824 183.074 562.049 182.849C562.274 182.624 562.4 182.319 562.4 182C562.4 181.682 562.274 181.377 562.049 181.152C561.824 180.927 561.518 180.8 561.2 180.8H557.142L556.273 179.064C556.173 178.865 556.02 178.697 555.831 178.58C555.641 178.463 555.423 178.401 555.2 178.4H552.8ZM550.4 185.6C550.4 185.282 550.527 184.977 550.752 184.752C550.977 184.527 551.282 184.4 551.6 184.4C551.918 184.4 552.224 184.527 552.449 184.752C552.674 184.977 552.8 185.282 552.8 185.6V192.8C552.8 193.119 552.674 193.424 552.449 193.649C552.224 193.874 551.918 194 551.6 194C551.282 194 550.977 193.874 550.752 193.649C550.527 193.424 550.4 193.119 550.4 192.8V185.6ZM556.4 184.4C556.082 184.4 555.777 184.527 555.552 184.752C555.327 184.977 555.2 185.282 555.2 185.6V192.8C555.2 193.119 555.327 193.424 555.552 193.649C555.777 193.874 556.082 194 556.4 194C556.718 194 557.024 193.874 557.249 193.649C557.474 193.424 557.6 193.119 557.6 192.8V185.6C557.6 185.282 557.474 184.977 557.249 184.752C557.024 184.527 556.718 184.4 556.4 184.4Z" fill="#9CA3AF"/>
<path fill-rule="evenodd" clip-rule="evenodd" d="M552.8 238.4C552.577 238.401 552.359 238.463 552.169 238.58C551.98 238.697 551.827 238.865 551.727 239.064L550.858 240.8H546.8C546.482 240.8 546.177 240.927 545.952 241.152C545.727 241.377 545.6 241.682 545.6 242C545.6 242.319 545.727 242.624 545.952 242.849C546.177 243.074 546.482 243.2 546.8 243.2V255.2C546.8 255.837 547.053 256.447 547.503 256.897C547.953 257.348 548.564 257.6 549.2 257.6H558.8C559.437 257.6 560.047 257.348 560.497 256.897C560.947 256.447 561.2 255.837 561.2 255.2V243.2C561.518 243.2 561.824 243.074 562.049 242.849C562.274 242.624 562.4 242.319 562.4 242C562.4 241.682 562.274 241.377 562.049 241.152C561.824 240.927 561.518 240.8 561.2 240.8H557.142L556.273 239.064C556.173 238.865 556.02 238.697 555.831 238.58C555.641 238.463 555.423 238.401 555.2 238.4H552.8ZM550.4 245.6C550.4 245.282 550.527 244.977 550.752 244.752C550.977 244.527 551.282 244.4 551.6 244.4C551.918 244.4 552.224 244.527 552.449 244.752C552.674 244.977 552.8 245.282 552.8 245.6V252.8C552.8 253.119 552.674 253.424 552.449 253.649C552.224 253.874 551.918 254 551.6 254C551.282 254 550.977 253.874 550.752 253.649C550.527 253.424 550.4 253.119 550.4 252.8V245.6ZM556.4 244.4C556.082 244.4 555.777 244.527 555.552 244.752C555.327 244.977 555.2 245.282 555.2 245.6V252.8C555.2 253.119 555.327 253.424 555.552 253.649C555.777 253.874 556.082 254 556.4 254C556.718 254 557.024 253.874 557.249 253.649C557.474 253.424 557.6 253.119 557.6 252.8V245.6C557.6 245.282 557.474 244.977 557.249 244.752C557.024 244.527 556.718 244.4 556.4 244.4Z" fill="#9CA3AF"/>
<path fill-rule="evenodd" clip-rule="evenodd" d="M510 122C510.318 122 510.623 122.126 510.849 122.351C511.074 122.577 511.2 122.882 511.2 123.2V126.8H514.8C515.118 126.8 515.423 126.926 515.649 127.151C515.874 127.377 516 127.682 516 128C516 128.318 515.874 128.623 515.649 128.849C515.423 129.074 515.118 129.2 514.8 129.2H511.2V132.8C511.2 133.118 511.074 133.423 510.849 133.649C510.623 133.874 510.318 134 510 134C509.682 134 509.377 133.874 509.151 133.649C508.926 133.423 508.8 133.118 508.8 132.8V129.2H505.2C504.882 129.2 504.577 129.074 504.351 128.849C504.126 128.623 504 128.318 504 128C504 127.682 504.126 127.377 504.351 127.151C504.577 126.926 504.882 126.8 505.2 126.8H508.8V123.2C508.8 122.882 508.926 122.577 509.151 122.351C509.377 122.126 509.682 122 510 122V122Z" fill="#6B7280"/>
<path fill-rule="evenodd" clip-rule="evenodd" d="M510 182C510.318 182 510.623 182.126 510.849 182.351C511.074 182.577 511.2 182.882 511.2 183.2V186.8H514.8C515.118 186.8 515.423 186.926 515.649 187.151C515.874 187.377 516 187.682 516 188C516 188.318 515.874 188.623 515.649 188.849C515.423 189.074 515.118 189.2 514.8 189.2H511.2V192.8C511.2 193.118 511.074 193.423 510.849 193.649C510.623 193.874 510.318 194 510 194C509.682 194 509.377 193.874 509.151 193.649C508.926 193.423 508.8 193.118 508.8 192.8V189.2H505.2C504.882 189.2 504.577 189.074 504.351 188.849C504.126 188.623 504 188.318 504 188C504 187.682 504.126 187.377 504.351 187.151C504.577 186.926 504.882 186.8 505.2 186.8H508.8V183.2C508.8 182.882 508.926 182.577 509.151 182.351C509.377 182.126 509.682 182 510 182V182Z" fill="#6B7280"/>
<path fill-rule="evenodd" clip-rule="evenodd" d="M510 242C510.318 242 510.623 242.126 510.849 242.351C511.074 242.577 511.2 242.882 511.2 243.2V246.8H514.8C515.118 246.8 515.423 246.926 515.649 247.151C515.874 247.377 516 247.682 516 248C516 248.318 515.874 248.623 515.649 248.849C515.423 249.074 515.118 249.2 514.8 249.2H511.2V252.8C511.2 253.118 511.074 253.423 510.849 253.649C510.623 253.874 510.318 254 510 254C509.682 254 509.377 253.874 509.151 253.649C508.926 253.423 508.8 253.118 508.8 252.8V249.2H505.2C504.882 249.2 504.577 249.074 504.351 248.849C504.126 248.623 504 248.318 504 248C504 247.682 504.126 247.377 504.351 247.151C504.577 246.926 504.882 246.8 505.2 246.8H508.8V243.2C508.8 242.882 508.926 242.577 509.151 242.351C509.377 242.126 509.682 242 510 242V242Z" fill="#6B7280"/>
<path d="M18 37C18 30.3726 23.3726 25 30 25H87C93.6274 25 99 30.3726 99 37V52C99 58.6274 93.6274 64 87 64H30C23.3726 64 18 58.6274 18 52V37Z" fill="white"/>
<path d="M39.8373 50.1939C39.0186 50.1939 38.316 49.9867 37.7293 49.5724C37.146 49.1548 36.6969 48.5533 36.382 47.7678C36.0705 46.9789 35.9147 46.0294 35.9147 44.919C35.918 43.8087 36.0754 42.8641 36.387 42.0852C36.7019 41.303 37.151 40.7064 37.7343 40.2955C38.3209 39.8845 39.0219 39.679 39.8373 39.679C40.6526 39.679 41.3536 39.8845 41.9403 40.2955C42.5269 40.7064 42.976 41.303 43.2876 42.0852C43.6024 42.8674 43.7599 43.812 43.7599 44.919C43.7599 46.0327 43.6024 46.9839 43.2876 47.7727C42.976 48.5582 42.5269 49.1581 41.9403 49.5724C41.3569 49.9867 40.6559 50.1939 39.8373 50.1939ZM39.8373 48.6378C40.4736 48.6378 40.9758 48.3246 41.3437 47.6982C41.7149 47.0684 41.9005 46.142 41.9005 44.919C41.9005 44.1103 41.816 43.4309 41.6469 42.8807C41.4779 42.3305 41.2393 41.9162 40.931 41.6378C40.6228 41.3561 40.2582 41.2152 39.8373 41.2152C39.2042 41.2152 38.7037 41.5301 38.3358 42.1598C37.968 42.7862 37.7823 43.706 37.779 44.919C37.7757 45.7311 37.8569 46.4138 38.0226 46.9673C38.1917 47.5208 38.4303 47.9384 38.7385 48.2202C39.0468 48.4986 39.413 48.6378 39.8373 48.6378ZM45.2277 48.1108V46.6442L49.548 39.8182H50.771V41.9062H50.0253L47.1169 46.5149V46.5945H53.1475V48.1108H45.2277ZM50.085 50V47.6634L50.1048 47.0071V39.8182H51.8449V50H50.085Z" fill="#111928"/>
<path d="M76.4124 40.9207C76.7369 40.5962 76.7369 40.0702 76.4124 39.7457V39.7457C76.0879 39.4212 75.5619 39.4212 75.2374 39.7457L71.1291 43.854C70.8046 44.1785 70.8046 44.7046 71.1291 45.029V45.029C71.4535 45.3535 71.9796 45.3535 72.3041 45.029L76.4124 40.9207ZM81.1228 39.7436C80.7968 39.42 80.2705 39.4209 79.9457 39.7457L72.4228 47.2686C72.0326 47.6588 71.4001 47.6592 71.0094 47.2695L68.8211 45.0863C68.4963 44.7623 67.9705 44.7626 67.6461 45.087V45.087C67.3214 45.4117 67.3214 45.9381 67.6461 46.2627L71.0094 49.6261C71.4 50.0166 72.0331 50.0166 72.4237 49.6261L81.1249 40.9249C81.4513 40.5984 81.4504 40.0689 81.1228 39.7436V39.7436ZM62.935 45.0856C62.6076 45.4107 62.6067 45.94 62.933 46.2663L66.4121 49.7454C66.7367 50.0701 67.263 50.0701 67.5876 49.7454V49.7454C67.9121 49.421 67.9123 48.8951 67.5882 48.5704L64.1121 45.0882C63.7876 44.763 63.2611 44.7618 62.935 45.0856V45.0856Z" fill="black"/>
<path d="M30 25.5H87V24.5H30V25.5ZM98.5 37V52H99.5V37H98.5ZM87 63.5H30V64.5H87V63.5ZM18.5 52V37H17.5V52H18.5ZM30 63.5C23.6487 63.5 18.5 58.3513 18.5 52H17.5C17.5 58.9036 23.0964 64.5 30 64.5V63.5ZM98.5 52C98.5 58.3513 93.3513 63.5 87 63.5V64.5C93.9036 64.5 99.5 58.9036 99.5 52H98.5ZM87 25.5C93.3513 25.5 98.5 30.6487 98.5 37H99.5C99.5 30.0964 93.9036 24.5 87 24.5V25.5ZM30 24.5C23.0964 24.5 17.5 30.0964 17.5 37H18.5C18.5 30.6487 23.6487 25.5 30 25.5V24.5Z" fill="#D1D5DB"/>
<path d="M118 38C118 29.1634 125.163 22 134 22H1008C1016.84 22 1024 29.1634 1024 38V50C1024 58.8366 1016.84 66 1008 66H134C125.163 66 118 58.8366 118 50V38Z" fill="#F9FAFB"/>
<path d="M138.773 39.6136V38.3636H147.5V39.6136H143.841V50H142.432V39.6136H138.773ZM149.357 53.2727C149.129 53.2727 148.927 53.2538 148.749 53.2159C148.571 53.1818 148.447 53.1477 148.379 53.1136L148.72 51.9318C149.046 52.0152 149.334 52.0455 149.584 52.0227C149.834 52 150.055 51.8883 150.249 51.6875C150.446 51.4905 150.625 51.1705 150.788 50.7273L151.038 50.0455L147.811 41.2727H149.266L151.675 48.2273H151.766L154.175 41.2727H155.629L151.925 51.2727C151.758 51.7235 151.552 52.0966 151.305 52.392C151.059 52.6913 150.773 52.9129 150.447 53.0568C150.125 53.2008 149.762 53.2727 149.357 53.2727ZM157.399 53.2727V41.2727H158.695V42.6591H158.854C158.952 42.5076 159.089 42.3144 159.263 42.0795C159.441 41.8409 159.695 41.6288 160.024 41.4432C160.357 41.2538 160.808 41.1591 161.376 41.1591C162.111 41.1591 162.759 41.3428 163.32 41.7102C163.88 42.0777 164.318 42.5985 164.632 43.2727C164.946 43.947 165.104 44.7424 165.104 45.6591C165.104 46.5833 164.946 47.3845 164.632 48.0625C164.318 48.7367 163.882 49.2595 163.325 49.6307C162.768 49.9981 162.126 50.1818 161.399 50.1818C160.839 50.1818 160.39 50.089 160.053 49.9034C159.715 49.714 159.456 49.5 159.274 49.2614C159.092 49.0189 158.952 48.8182 158.854 48.6591H158.74V53.2727H157.399ZM158.717 45.6364C158.717 46.2955 158.814 46.8769 159.007 47.3807C159.2 47.8807 159.482 48.2727 159.854 48.5568C160.225 48.8371 160.679 48.9773 161.217 48.9773C161.778 48.9773 162.246 48.8295 162.621 48.5341C163 48.2348 163.284 47.8333 163.473 47.3295C163.666 46.822 163.763 46.2576 163.763 45.6364C163.763 45.0227 163.668 44.4697 163.479 43.9773C163.293 43.4811 163.011 43.089 162.632 42.8011C162.257 42.5095 161.786 42.3636 161.217 42.3636C160.672 42.3636 160.214 42.5019 159.842 42.7784C159.471 43.0511 159.191 43.4337 159.001 43.9261C158.812 44.4148 158.717 44.9848 158.717 45.6364ZM170.808 50.1818C169.967 50.1818 169.242 49.9962 168.632 49.625C168.026 49.25 167.558 48.7273 167.229 48.0568C166.903 47.3826 166.74 46.5985 166.74 45.7045C166.74 44.8106 166.903 44.0227 167.229 43.3409C167.558 42.6553 168.017 42.1212 168.604 41.7386C169.195 41.3523 169.884 41.1591 170.672 41.1591C171.126 41.1591 171.575 41.2348 172.018 41.3864C172.462 41.5379 172.865 41.7841 173.229 42.125C173.592 42.4621 173.882 42.9091 174.098 43.4659C174.314 44.0227 174.422 44.7083 174.422 45.5227V46.0909H167.695V44.9318H173.058C173.058 44.4394 172.96 44 172.763 43.6136C172.57 43.2273 172.293 42.9223 171.933 42.6989C171.577 42.4754 171.157 42.3636 170.672 42.3636C170.138 42.3636 169.676 42.4962 169.286 42.7614C168.899 43.0227 168.602 43.3636 168.393 43.7841C168.185 44.2045 168.081 44.6553 168.081 45.1364V45.9091C168.081 46.5682 168.195 47.1269 168.422 47.5852C168.653 48.0398 168.973 48.3864 169.382 48.625C169.791 48.8598 170.267 48.9773 170.808 48.9773C171.161 48.9773 171.479 48.928 171.763 48.8295C172.051 48.7273 172.299 48.5758 172.507 48.375C172.715 48.1705 172.876 47.9167 172.99 47.6136L174.286 47.9773C174.149 48.4167 173.92 48.803 173.598 49.1364C173.276 49.4659 172.878 49.7235 172.405 49.9091C171.931 50.0909 171.399 50.1818 170.808 50.1818ZM182.303 44.75V50H180.962V38.3636H182.303V42.6364H182.416C182.621 42.1856 182.928 41.8277 183.337 41.5625C183.75 41.2936 184.299 41.1591 184.984 41.1591C185.579 41.1591 186.1 41.2784 186.547 41.517C186.994 41.7519 187.34 42.1136 187.587 42.6023C187.837 43.0871 187.962 43.7045 187.962 44.4545V50H186.621V44.5455C186.621 43.8523 186.441 43.3163 186.081 42.9375C185.725 42.5549 185.231 42.3636 184.598 42.3636C184.159 42.3636 183.765 42.4564 183.416 42.642C183.071 42.8277 182.799 43.0985 182.598 43.4545C182.401 43.8106 182.303 44.2424 182.303 44.75ZM194.074 50.1818C193.233 50.1818 192.508 49.9962 191.898 49.625C191.292 49.25 190.824 48.7273 190.494 48.0568C190.169 47.3826 190.006 46.5985 190.006 45.7045C190.006 44.8106 190.169 44.0227 190.494 43.3409C190.824 42.6553 191.282 42.1212 191.869 41.7386C192.46 41.3523 193.15 41.1591 193.938 41.1591C194.392 41.1591 194.841 41.2348 195.284 41.3864C195.727 41.5379 196.131 41.7841 196.494 42.125C196.858 42.4621 197.148 42.9091 197.364 43.4659C197.58 44.0227 197.688 44.7083 197.688 45.5227V46.0909H190.96V44.9318H196.324C196.324 44.4394 196.225 44 196.028 43.6136C195.835 43.2273 195.559 42.9223 195.199 42.6989C194.843 42.4754 194.422 42.3636 193.938 42.3636C193.403 42.3636 192.941 42.4962 192.551 42.7614C192.165 43.0227 191.867 43.3636 191.659 43.7841C191.451 44.2045 191.347 44.6553 191.347 45.1364V45.9091C191.347 46.5682 191.46 47.1269 191.688 47.5852C191.919 48.0398 192.239 48.3864 192.648 48.625C193.057 48.8598 193.532 48.9773 194.074 48.9773C194.426 48.9773 194.744 48.928 195.028 48.8295C195.316 48.7273 195.564 48.5758 195.773 48.375C195.981 48.1705 196.142 47.9167 196.256 47.6136L197.551 47.9773C197.415 48.4167 197.186 48.803 196.864 49.1364C196.542 49.4659 196.144 49.7235 195.67 49.9091C195.197 50.0909 194.665 50.1818 194.074 50.1818ZM199.727 50V41.2727H201.023V42.5909H201.114C201.273 42.1591 201.561 41.8087 201.977 41.5398C202.394 41.2708 202.864 41.1364 203.386 41.1364C203.485 41.1364 203.608 41.1383 203.756 41.142C203.903 41.1458 204.015 41.1515 204.091 41.1591V42.5227C204.045 42.5114 203.941 42.4943 203.778 42.4716C203.619 42.4451 203.451 42.4318 203.273 42.4318C202.848 42.4318 202.47 42.5208 202.136 42.6989C201.807 42.8731 201.545 43.1155 201.352 43.4261C201.163 43.733 201.068 44.0833 201.068 44.4773V50H199.727ZM209.074 50.1818C208.233 50.1818 207.508 49.9962 206.898 49.625C206.292 49.25 205.824 48.7273 205.494 48.0568C205.169 47.3826 205.006 46.5985 205.006 45.7045C205.006 44.8106 205.169 44.0227 205.494 43.3409C205.824 42.6553 206.282 42.1212 206.869 41.7386C207.46 41.3523 208.15 41.1591 208.938 41.1591C209.392 41.1591 209.841 41.2348 210.284 41.3864C210.727 41.5379 211.131 41.7841 211.494 42.125C211.858 42.4621 212.148 42.9091 212.364 43.4659C212.58 44.0227 212.688 44.7083 212.688 45.5227V46.0909H205.96V44.9318H211.324C211.324 44.4394 211.225 44 211.028 43.6136C210.835 43.2273 210.559 42.9223 210.199 42.6989C209.843 42.4754 209.422 42.3636 208.938 42.3636C208.403 42.3636 207.941 42.4962 207.551 42.7614C207.165 43.0227 206.867 43.3636 206.659 43.7841C206.451 44.2045 206.347 44.6553 206.347 45.1364V45.9091C206.347 46.5682 206.46 47.1269 206.688 47.5852C206.919 48.0398 207.239 48.3864 207.648 48.625C208.057 48.8598 208.532 48.9773 209.074 48.9773C209.426 48.9773 209.744 48.928 210.028 48.8295C210.316 48.7273 210.564 48.5758 210.773 48.375C210.981 48.1705 211.142 47.9167 211.256 47.6136L212.551 47.9773C212.415 48.4167 212.186 48.803 211.864 49.1364C211.542 49.4659 211.144 49.7235 210.67 49.9091C210.197 50.0909 209.665 50.1818 209.074 50.1818Z" fill="#9CA3AF"/>
<path d="M134 23H1008V21H134V23ZM1023 38V50H1025V38H1023ZM1008 65H134V67H1008V65ZM119 50V38H117V50H119ZM134 65C125.716 65 119 58.2843 119 50H117C117 59.3888 124.611 67 134 67V65ZM1023 50C1023 58.2843 1016.28 65 1008 65V67C1017.39 67 1025 59.3888 1025 50H1023ZM1008 23C1016.28 23 1023 29.7157 1023 38H1025C1025 28.6112 1017.39 21 1008 21V23ZM134 21C124.611 21 117 28.6112 117 38H119C119 29.7157 125.716 23 134 23V21Z" fill="#E5E7EB"/>
<path d="M118 122C118 113.163 125.163 106 134 106H452C460.837 106 468 113.163 468 122V134C468 142.837 460.837 150 452 150H134C125.163 150 118 142.837 118 134V122Z" fill="#F9FAFB"/>
<path d="M148.773 126H147.364C147.28 125.595 147.134 125.239 146.926 124.932C146.722 124.625 146.472 124.367 146.176 124.159C145.884 123.947 145.561 123.788 145.205 123.682C144.848 123.576 144.477 123.523 144.091 123.523C143.386 123.523 142.748 123.701 142.176 124.057C141.608 124.413 141.155 124.938 140.818 125.631C140.485 126.324 140.318 127.174 140.318 128.182C140.318 129.189 140.485 130.04 140.818 130.733C141.155 131.426 141.608 131.951 142.176 132.307C142.748 132.663 143.386 132.841 144.091 132.841C144.477 132.841 144.848 132.788 145.205 132.682C145.561 132.576 145.884 132.419 146.176 132.21C146.472 131.998 146.722 131.739 146.926 131.432C147.134 131.121 147.28 130.765 147.364 130.364H148.773C148.667 130.958 148.473 131.491 148.193 131.96C147.913 132.43 147.564 132.83 147.148 133.159C146.731 133.485 146.263 133.733 145.744 133.903C145.229 134.074 144.678 134.159 144.091 134.159C143.098 134.159 142.216 133.917 141.443 133.432C140.67 132.947 140.063 132.258 139.619 131.364C139.176 130.47 138.955 129.409 138.955 128.182C138.955 126.955 139.176 125.894 139.619 125C140.063 124.106 140.67 123.417 141.443 122.932C142.216 122.447 143.098 122.205 144.091 122.205C144.678 122.205 145.229 122.29 145.744 122.46C146.263 122.631 146.731 122.881 147.148 123.21C147.564 123.536 147.913 123.934 148.193 124.403C148.473 124.869 148.667 125.402 148.773 126ZM152.209 128.75V134H150.868V122.364H152.209V126.636H152.322C152.527 126.186 152.834 125.828 153.243 125.562C153.656 125.294 154.205 125.159 154.891 125.159C155.485 125.159 156.006 125.278 156.453 125.517C156.9 125.752 157.247 126.114 157.493 126.602C157.743 127.087 157.868 127.705 157.868 128.455V134H156.527V128.545C156.527 127.852 156.347 127.316 155.987 126.938C155.631 126.555 155.137 126.364 154.504 126.364C154.065 126.364 153.671 126.456 153.322 126.642C152.978 126.828 152.705 127.098 152.504 127.455C152.307 127.811 152.209 128.242 152.209 128.75ZM163.866 134.182C163.079 134.182 162.387 133.994 161.793 133.619C161.202 133.244 160.74 132.72 160.406 132.045C160.077 131.371 159.912 130.583 159.912 129.682C159.912 128.773 160.077 127.979 160.406 127.301C160.74 126.623 161.202 126.097 161.793 125.722C162.387 125.347 163.079 125.159 163.866 125.159C164.654 125.159 165.344 125.347 165.935 125.722C166.529 126.097 166.991 126.623 167.321 127.301C167.654 127.979 167.821 128.773 167.821 129.682C167.821 130.583 167.654 131.371 167.321 132.045C166.991 132.72 166.529 133.244 165.935 133.619C165.344 133.994 164.654 134.182 163.866 134.182ZM163.866 132.977C164.465 132.977 164.957 132.824 165.344 132.517C165.73 132.21 166.016 131.807 166.202 131.307C166.387 130.807 166.48 130.265 166.48 129.682C166.48 129.098 166.387 128.555 166.202 128.051C166.016 127.547 165.73 127.14 165.344 126.83C164.957 126.519 164.465 126.364 163.866 126.364C163.268 126.364 162.776 126.519 162.389 126.83C162.003 127.14 161.717 127.547 161.531 128.051C161.346 128.555 161.253 129.098 161.253 129.682C161.253 130.265 161.346 130.807 161.531 131.307C161.717 131.807 162.003 132.21 162.389 132.517C162.776 132.824 163.268 132.977 163.866 132.977ZM169.868 134V125.273H171.209V134H169.868ZM170.55 123.818C170.288 123.818 170.063 123.729 169.874 123.551C169.688 123.373 169.595 123.159 169.595 122.909C169.595 122.659 169.688 122.445 169.874 122.267C170.063 122.089 170.288 122 170.55 122C170.811 122 171.035 122.089 171.22 122.267C171.41 122.445 171.504 122.659 171.504 122.909C171.504 123.159 171.41 123.373 171.22 123.551C171.035 123.729 170.811 123.818 170.55 123.818ZM177.21 134.182C176.392 134.182 175.688 133.989 175.097 133.602C174.506 133.216 174.051 132.684 173.733 132.006C173.415 131.328 173.256 130.553 173.256 129.682C173.256 128.795 173.419 128.013 173.744 127.335C174.074 126.653 174.532 126.121 175.119 125.739C175.71 125.352 176.4 125.159 177.188 125.159C177.801 125.159 178.354 125.273 178.847 125.5C179.339 125.727 179.742 126.045 180.057 126.455C180.371 126.864 180.566 127.341 180.642 127.886H179.301C179.199 127.489 178.972 127.136 178.619 126.83C178.271 126.519 177.801 126.364 177.21 126.364C176.688 126.364 176.229 126.5 175.835 126.773C175.445 127.042 175.14 127.422 174.92 127.915C174.705 128.403 174.597 128.977 174.597 129.636C174.597 130.311 174.703 130.898 174.915 131.398C175.131 131.898 175.434 132.286 175.824 132.562C176.218 132.839 176.68 132.977 177.21 132.977C177.559 132.977 177.875 132.917 178.159 132.795C178.443 132.674 178.684 132.5 178.881 132.273C179.078 132.045 179.218 131.773 179.301 131.455H180.642C180.566 131.97 180.379 132.434 180.08 132.847C179.784 133.256 179.392 133.581 178.903 133.824C178.419 134.062 177.854 134.182 177.21 134.182ZM186.261 134.182C185.42 134.182 184.695 133.996 184.085 133.625C183.479 133.25 183.011 132.727 182.682 132.057C182.356 131.383 182.193 130.598 182.193 129.705C182.193 128.811 182.356 128.023 182.682 127.341C183.011 126.655 183.47 126.121 184.057 125.739C184.648 125.352 185.337 125.159 186.125 125.159C186.58 125.159 187.028 125.235 187.472 125.386C187.915 125.538 188.318 125.784 188.682 126.125C189.045 126.462 189.335 126.909 189.551 127.466C189.767 128.023 189.875 128.708 189.875 129.523V130.091H183.148V128.932H188.511C188.511 128.439 188.413 128 188.216 127.614C188.023 127.227 187.746 126.922 187.386 126.699C187.03 126.475 186.61 126.364 186.125 126.364C185.591 126.364 185.129 126.496 184.739 126.761C184.352 127.023 184.055 127.364 183.847 127.784C183.638 128.205 183.534 128.655 183.534 129.136V129.909C183.534 130.568 183.648 131.127 183.875 131.585C184.106 132.04 184.426 132.386 184.835 132.625C185.244 132.86 185.72 132.977 186.261 132.977C186.614 132.977 186.932 132.928 187.216 132.83C187.504 132.727 187.752 132.576 187.96 132.375C188.169 132.17 188.33 131.917 188.443 131.614L189.739 131.977C189.602 132.417 189.373 132.803 189.051 133.136C188.729 133.466 188.331 133.723 187.858 133.909C187.384 134.091 186.852 134.182 186.261 134.182ZM200.483 122.364V134H199.074V123.841H199.006L196.165 125.727V124.295L199.074 122.364H200.483Z" fill="#9CA3AF"/>
<path d="M134 107H452V105H134V107ZM467 122V134H469V122H467ZM452 149H134V151H452V149ZM119 134V122H117V134H119ZM134 149C125.716 149 119 142.284 119 134H117C117 143.389 124.611 151 134 151V149ZM467 134C467 142.284 460.284 149 452 149V151C461.389 151 469 143.389 469 134H467ZM452 107C460.284 107 467 113.716 467 122H469C469 112.611 461.389 105 452 105V107ZM134 105C124.611 105 117 112.611 117 122H119C119 113.716 125.716 107 134 107V105Z" fill="#E5E7EB"/>
<path d="M118 182C118 173.163 125.163 166 134 166H452C460.837 166 468 173.163 468 182V194C468 202.837 460.837 210 452 210H134C125.163 210 118 202.837 118 194V182Z" fill="#F9FAFB"/>
<path d="M148.773 186H147.364C147.28 185.595 147.134 185.239 146.926 184.932C146.722 184.625 146.472 184.367 146.176 184.159C145.884 183.947 145.561 183.788 145.205 183.682C144.848 183.576 144.477 183.523 144.091 183.523C143.386 183.523 142.748 183.701 142.176 184.057C141.608 184.413 141.155 184.938 140.818 185.631C140.485 186.324 140.318 187.174 140.318 188.182C140.318 189.189 140.485 190.04 140.818 190.733C141.155 191.426 141.608 191.951 142.176 192.307C142.748 192.663 143.386 192.841 144.091 192.841C144.477 192.841 144.848 192.788 145.205 192.682C145.561 192.576 145.884 192.419 146.176 192.21C146.472 191.998 146.722 191.739 146.926 191.432C147.134 191.121 147.28 190.765 147.364 190.364H148.773C148.667 190.958 148.473 191.491 148.193 191.96C147.913 192.43 147.564 192.83 147.148 193.159C146.731 193.485 146.263 193.733 145.744 193.903C145.229 194.074 144.678 194.159 144.091 194.159C143.098 194.159 142.216 193.917 141.443 193.432C140.67 192.947 140.063 192.258 139.619 191.364C139.176 190.47 138.955 189.409 138.955 188.182C138.955 186.955 139.176 185.894 139.619 185C140.063 184.106 140.67 183.417 141.443 182.932C142.216 182.447 143.098 182.205 144.091 182.205C144.678 182.205 145.229 182.29 145.744 182.46C146.263 182.631 146.731 182.881 147.148 183.21C147.564 183.536 147.913 183.934 148.193 184.403C148.473 184.869 148.667 185.402 148.773 186ZM152.209 188.75V194H150.868V182.364H152.209V186.636H152.322C152.527 186.186 152.834 185.828 153.243 185.562C153.656 185.294 154.205 185.159 154.891 185.159C155.485 185.159 156.006 185.278 156.453 185.517C156.9 185.752 157.247 186.114 157.493 186.602C157.743 187.087 157.868 187.705 157.868 188.455V194H156.527V188.545C156.527 187.852 156.347 187.316 155.987 186.938C155.631 186.555 155.137 186.364 154.504 186.364C154.065 186.364 153.671 186.456 153.322 186.642C152.978 186.828 152.705 187.098 152.504 187.455C152.307 187.811 152.209 188.242 152.209 188.75ZM163.866 194.182C163.079 194.182 162.387 193.994 161.793 193.619C161.202 193.244 160.74 192.72 160.406 192.045C160.077 191.371 159.912 190.583 159.912 189.682C159.912 188.773 160.077 187.979 160.406 187.301C160.74 186.623 161.202 186.097 161.793 185.722C162.387 185.347 163.079 185.159 163.866 185.159C164.654 185.159 165.344 185.347 165.935 185.722C166.529 186.097 166.991 186.623 167.321 187.301C167.654 187.979 167.821 188.773 167.821 189.682C167.821 190.583 167.654 191.371 167.321 192.045C166.991 192.72 166.529 193.244 165.935 193.619C165.344 193.994 164.654 194.182 163.866 194.182ZM163.866 192.977C164.465 192.977 164.957 192.824 165.344 192.517C165.73 192.21 166.016 191.807 166.202 191.307C166.387 190.807 166.48 190.265 166.48 189.682C166.48 189.098 166.387 188.555 166.202 188.051C166.016 187.547 165.73 187.14 165.344 186.83C164.957 186.519 164.465 186.364 163.866 186.364C163.268 186.364 162.776 186.519 162.389 186.83C162.003 187.14 161.717 187.547 161.531 188.051C161.346 188.555 161.253 189.098 161.253 189.682C161.253 190.265 161.346 190.807 161.531 191.307C161.717 191.807 162.003 192.21 162.389 192.517C162.776 192.824 163.268 192.977 163.866 192.977ZM169.868 194V185.273H171.209V194H169.868ZM170.55 183.818C170.288 183.818 170.063 183.729 169.874 183.551C169.688 183.373 169.595 183.159 169.595 182.909C169.595 182.659 169.688 182.445 169.874 182.267C170.063 182.089 170.288 182 170.55 182C170.811 182 171.035 182.089 171.22 182.267C171.41 182.445 171.504 182.659 171.504 182.909C171.504 183.159 171.41 183.373 171.22 183.551C171.035 183.729 170.811 183.818 170.55 183.818ZM177.21 194.182C176.392 194.182 175.688 193.989 175.097 193.602C174.506 193.216 174.051 192.684 173.733 192.006C173.415 191.328 173.256 190.553 173.256 189.682C173.256 188.795 173.419 188.013 173.744 187.335C174.074 186.653 174.532 186.121 175.119 185.739C175.71 185.352 176.4 185.159 177.188 185.159C177.801 185.159 178.354 185.273 178.847 185.5C179.339 185.727 179.742 186.045 180.057 186.455C180.371 186.864 180.566 187.341 180.642 187.886H179.301C179.199 187.489 178.972 187.136 178.619 186.83C178.271 186.519 177.801 186.364 177.21 186.364C176.688 186.364 176.229 186.5 175.835 186.773C175.445 187.042 175.14 187.422 174.92 187.915C174.705 188.403 174.597 188.977 174.597 189.636C174.597 190.311 174.703 190.898 174.915 191.398C175.131 191.898 175.434 192.286 175.824 192.562C176.218 192.839 176.68 192.977 177.21 192.977C177.559 192.977 177.875 192.917 178.159 192.795C178.443 192.674 178.684 192.5 178.881 192.273C179.078 192.045 179.218 191.773 179.301 191.455H180.642C180.566 191.97 180.379 192.434 180.08 192.847C179.784 193.256 179.392 193.581 178.903 193.824C178.419 194.062 177.854 194.182 177.21 194.182ZM186.261 194.182C185.42 194.182 184.695 193.996 184.085 193.625C183.479 193.25 183.011 192.727 182.682 192.057C182.356 191.383 182.193 190.598 182.193 189.705C182.193 188.811 182.356 188.023 182.682 187.341C183.011 186.655 183.47 186.121 184.057 185.739C184.648 185.352 185.337 185.159 186.125 185.159C186.58 185.159 187.028 185.235 187.472 185.386C187.915 185.538 188.318 185.784 188.682 186.125C189.045 186.462 189.335 186.909 189.551 187.466C189.767 188.023 189.875 188.708 189.875 189.523V190.091H183.148V188.932H188.511C188.511 188.439 188.413 188 188.216 187.614C188.023 187.227 187.746 186.922 187.386 186.699C187.03 186.475 186.61 186.364 186.125 186.364C185.591 186.364 185.129 186.496 184.739 186.761C184.352 187.023 184.055 187.364 183.847 187.784C183.638 188.205 183.534 188.655 183.534 189.136V189.909C183.534 190.568 183.648 191.127 183.875 191.585C184.106 192.04 184.426 192.386 184.835 192.625C185.244 192.86 185.72 192.977 186.261 192.977C186.614 192.977 186.932 192.928 187.216 192.83C187.504 192.727 187.752 192.576 187.96 192.375C188.169 192.17 188.33 191.917 188.443 191.614L189.739 191.977C189.602 192.417 189.373 192.803 189.051 193.136C188.729 193.466 188.331 193.723 187.858 193.909C187.384 194.091 186.852 194.182 186.261 194.182ZM196.392 194V192.977L200.233 188.773C200.684 188.28 201.055 187.852 201.347 187.489C201.638 187.121 201.854 186.777 201.994 186.455C202.138 186.129 202.21 185.788 202.21 185.432C202.21 185.023 202.112 184.669 201.915 184.369C201.722 184.07 201.456 183.839 201.119 183.676C200.782 183.513 200.403 183.432 199.983 183.432C199.536 183.432 199.146 183.525 198.812 183.71C198.483 183.892 198.227 184.148 198.045 184.477C197.867 184.807 197.778 185.193 197.778 185.636H196.438C196.438 184.955 196.595 184.356 196.909 183.841C197.223 183.326 197.652 182.924 198.193 182.636C198.739 182.348 199.35 182.205 200.028 182.205C200.71 182.205 201.314 182.348 201.841 182.636C202.367 182.924 202.78 183.312 203.08 183.801C203.379 184.29 203.528 184.833 203.528 185.432C203.528 185.86 203.451 186.278 203.295 186.688C203.144 187.093 202.879 187.545 202.5 188.045C202.125 188.542 201.604 189.148 200.938 189.864L198.324 192.659V192.75H203.733V194H196.392Z" fill="#9CA3AF"/>
<path d="M134 167H452V165H134V167ZM467 182V194H469V182H467ZM452 209H134V211H452V209ZM119 194V182H117V194H119ZM134 209C125.716 209 119 202.284 119 194H117C117 203.389 124.611 211 134 211V209ZM467 194C467 202.284 460.284 209 452 209V211C461.389 211 469 203.389 469 194H467ZM452 167C460.284 167 467 173.716 467 182H469C469 172.611 461.389 165 452 165V167ZM134 165C124.611 165 117 172.611 117 182H119C119 173.716 125.716 167 134 167V165Z" fill="#E5E7EB"/>
<path d="M118 242C118 233.163 125.163 226 134 226H452C460.837 226 468 233.163 468 242V254C468 262.837 460.837 270 452 270H134C125.163 270 118 262.837 118 254V242Z" fill="#F9FAFB"/>
<path d="M148.773 246H147.364C147.28 245.595 147.134 245.239 146.926 244.932C146.722 244.625 146.472 244.367 146.176 244.159C145.884 243.947 145.561 243.788 145.205 243.682C144.848 243.576 144.477 243.523 144.091 243.523C143.386 243.523 142.748 243.701 142.176 244.057C141.608 244.413 141.155 244.938 140.818 245.631C140.485 246.324 140.318 247.174 140.318 248.182C140.318 249.189 140.485 250.04 140.818 250.733C141.155 251.426 141.608 251.951 142.176 252.307C142.748 252.663 143.386 252.841 144.091 252.841C144.477 252.841 144.848 252.788 145.205 252.682C145.561 252.576 145.884 252.419 146.176 252.21C146.472 251.998 146.722 251.739 146.926 251.432C147.134 251.121 147.28 250.765 147.364 250.364H148.773C148.667 250.958 148.473 251.491 148.193 251.96C147.913 252.43 147.564 252.83 147.148 253.159C146.731 253.485 146.263 253.733 145.744 253.903C145.229 254.074 144.678 254.159 144.091 254.159C143.098 254.159 142.216 253.917 141.443 253.432C140.67 252.947 140.063 252.258 139.619 251.364C139.176 250.47 138.955 249.409 138.955 248.182C138.955 246.955 139.176 245.894 139.619 245C140.063 244.106 140.67 243.417 141.443 242.932C142.216 242.447 143.098 242.205 144.091 242.205C144.678 242.205 145.229 242.29 145.744 242.46C146.263 242.631 146.731 242.881 147.148 243.21C147.564 243.536 147.913 243.934 148.193 244.403C148.473 244.869 148.667 245.402 148.773 246ZM152.209 248.75V254H150.868V242.364H152.209V246.636H152.322C152.527 246.186 152.834 245.828 153.243 245.562C153.656 245.294 154.205 245.159 154.891 245.159C155.485 245.159 156.006 245.278 156.453 245.517C156.9 245.752 157.247 246.114 157.493 246.602C157.743 247.087 157.868 247.705 157.868 248.455V254H156.527V248.545C156.527 247.852 156.347 247.316 155.987 246.938C155.631 246.555 155.137 246.364 154.504 246.364C154.065 246.364 153.671 246.456 153.322 246.642C152.978 246.828 152.705 247.098 152.504 247.455C152.307 247.811 152.209 248.242 152.209 248.75ZM163.866 254.182C163.079 254.182 162.387 253.994 161.793 253.619C161.202 253.244 160.74 252.72 160.406 252.045C160.077 251.371 159.912 250.583 159.912 249.682C159.912 248.773 160.077 247.979 160.406 247.301C160.74 246.623 161.202 246.097 161.793 245.722C162.387 245.347 163.079 245.159 163.866 245.159C164.654 245.159 165.344 245.347 165.935 245.722C166.529 246.097 166.991 246.623 167.321 247.301C167.654 247.979 167.821 248.773 167.821 249.682C167.821 250.583 167.654 251.371 167.321 252.045C166.991 252.72 166.529 253.244 165.935 253.619C165.344 253.994 164.654 254.182 163.866 254.182ZM163.866 252.977C164.465 252.977 164.957 252.824 165.344 252.517C165.73 252.21 166.016 251.807 166.202 251.307C166.387 250.807 166.48 250.265 166.48 249.682C166.48 249.098 166.387 248.555 166.202 248.051C166.016 247.547 165.73 247.14 165.344 246.83C164.957 246.519 164.465 246.364 163.866 246.364C163.268 246.364 162.776 246.519 162.389 246.83C162.003 247.14 161.717 247.547 161.531 248.051C161.346 248.555 161.253 249.098 161.253 249.682C161.253 250.265 161.346 250.807 161.531 251.307C161.717 251.807 162.003 252.21 162.389 252.517C162.776 252.824 163.268 252.977 163.866 252.977ZM169.868 254V245.273H171.209V254H169.868ZM170.55 243.818C170.288 243.818 170.063 243.729 169.874 243.551C169.688 243.373 169.595 243.159 169.595 242.909C169.595 242.659 169.688 242.445 169.874 242.267C170.063 242.089 170.288 242 170.55 242C170.811 242 171.035 242.089 171.22 242.267C171.41 242.445 171.504 242.659 171.504 242.909C171.504 243.159 171.41 243.373 171.22 243.551C171.035 243.729 170.811 243.818 170.55 243.818ZM177.21 254.182C176.392 254.182 175.688 253.989 175.097 253.602C174.506 253.216 174.051 252.684 173.733 252.006C173.415 251.328 173.256 250.553 173.256 249.682C173.256 248.795 173.419 248.013 173.744 247.335C174.074 246.653 174.532 246.121 175.119 245.739C175.71 245.352 176.4 245.159 177.188 245.159C177.801 245.159 178.354 245.273 178.847 245.5C179.339 245.727 179.742 246.045 180.057 246.455C180.371 246.864 180.566 247.341 180.642 247.886H179.301C179.199 247.489 178.972 247.136 178.619 246.83C178.271 246.519 177.801 246.364 177.21 246.364C176.688 246.364 176.229 246.5 175.835 246.773C175.445 247.042 175.14 247.422 174.92 247.915C174.705 248.403 174.597 248.977 174.597 249.636C174.597 250.311 174.703 250.898 174.915 251.398C175.131 251.898 175.434 252.286 175.824 252.562C176.218 252.839 176.68 252.977 177.21 252.977C177.559 252.977 177.875 252.917 178.159 252.795C178.443 252.674 178.684 252.5 178.881 252.273C179.078 252.045 179.218 251.773 179.301 251.455H180.642C180.566 251.97 180.379 252.434 180.08 252.847C179.784 253.256 179.392 253.581 178.903 253.824C178.419 254.062 177.854 254.182 177.21 254.182ZM186.261 254.182C185.42 254.182 184.695 253.996 184.085 253.625C183.479 253.25 183.011 252.727 182.682 252.057C182.356 251.383 182.193 250.598 182.193 249.705C182.193 248.811 182.356 248.023 182.682 247.341C183.011 246.655 183.47 246.121 184.057 245.739C184.648 245.352 185.337 245.159 186.125 245.159C186.58 245.159 187.028 245.235 187.472 245.386C187.915 245.538 188.318 245.784 188.682 246.125C189.045 246.462 189.335 246.909 189.551 247.466C189.767 248.023 189.875 248.708 189.875 249.523V250.091H183.148V248.932H188.511C188.511 248.439 188.413 248 188.216 247.614C188.023 247.227 187.746 246.922 187.386 246.699C187.03 246.475 186.61 246.364 186.125 246.364C185.591 246.364 185.129 246.496 184.739 246.761C184.352 247.023 184.055 247.364 183.847 247.784C183.638 248.205 183.534 248.655 183.534 249.136V249.909C183.534 250.568 183.648 251.127 183.875 251.585C184.106 252.04 184.426 252.386 184.835 252.625C185.244 252.86 185.72 252.977 186.261 252.977C186.614 252.977 186.932 252.928 187.216 252.83C187.504 252.727 187.752 252.576 187.96 252.375C188.169 252.17 188.33 251.917 188.443 251.614L189.739 251.977C189.602 252.417 189.373 252.803 189.051 253.136C188.729 253.466 188.331 253.723 187.858 253.909C187.384 254.091 186.852 254.182 186.261 254.182ZM200.324 254.159C199.574 254.159 198.905 254.03 198.318 253.773C197.735 253.515 197.271 253.157 196.926 252.699C196.585 252.237 196.4 251.701 196.369 251.091H197.801C197.831 251.466 197.96 251.79 198.188 252.062C198.415 252.331 198.712 252.54 199.08 252.688C199.447 252.835 199.854 252.909 200.301 252.909C200.801 252.909 201.244 252.822 201.631 252.648C202.017 252.473 202.32 252.231 202.54 251.92C202.759 251.61 202.869 251.25 202.869 250.841C202.869 250.413 202.763 250.036 202.551 249.71C202.339 249.381 202.028 249.123 201.619 248.938C201.21 248.752 200.71 248.659 200.119 248.659H199.188V247.409H200.119C200.581 247.409 200.987 247.326 201.335 247.159C201.688 246.992 201.962 246.758 202.159 246.455C202.36 246.152 202.46 245.795 202.46 245.386C202.46 244.992 202.373 244.65 202.199 244.358C202.025 244.066 201.778 243.839 201.46 243.676C201.146 243.513 200.775 243.432 200.347 243.432C199.945 243.432 199.566 243.506 199.21 243.653C198.858 243.797 198.57 244.008 198.347 244.284C198.123 244.557 198.002 244.886 197.983 245.273H196.619C196.642 244.663 196.826 244.129 197.17 243.67C197.515 243.208 197.966 242.848 198.523 242.591C199.083 242.333 199.699 242.205 200.369 242.205C201.089 242.205 201.706 242.35 202.222 242.642C202.737 242.93 203.133 243.311 203.409 243.784C203.686 244.258 203.824 244.769 203.824 245.318C203.824 245.973 203.652 246.532 203.307 246.994C202.966 247.456 202.502 247.777 201.915 247.955V248.045C202.65 248.167 203.223 248.479 203.636 248.983C204.049 249.483 204.256 250.102 204.256 250.841C204.256 251.473 204.083 252.042 203.739 252.545C203.398 253.045 202.932 253.439 202.341 253.727C201.75 254.015 201.078 254.159 200.324 254.159Z" fill="#9CA3AF"/>
<path d="M134 227H452V225H134V227ZM467 242V254H469V242H467ZM452 269H134V271H452V269ZM119 254V242H117V254H119ZM134 269C125.716 269 119 262.284 119 254H117C117 263.389 124.611 271 134 271V269ZM467 254C467 262.284 460.284 269 452 269V271C461.389 271 469 263.389 469 254H467ZM452 227C460.284 227 467 233.716 467 242H469C469 232.611 461.389 225 452 225V227ZM134 225C124.611 225 117 232.611 117 242H119C119 233.716 125.716 227 134 227V225Z" fill="#E5E7EB"/>
<path fill-rule="evenodd" clip-rule="evenodd" d="M1010.8 312.4C1010.58 312.401 1010.36 312.463 1010.17 312.58C1009.98 312.697 1009.83 312.865 1009.73 313.064L1008.86 314.8H1004.8C1004.48 314.8 1004.18 314.927 1003.95 315.152C1003.73 315.377 1003.6 315.682 1003.6 316C1003.6 316.319 1003.73 316.624 1003.95 316.849C1004.18 317.074 1004.48 317.2 1004.8 317.2V329.2C1004.8 329.837 1005.05 330.447 1005.5 330.897C1005.95 331.348 1006.56 331.6 1007.2 331.6H1016.8C1017.44 331.6 1018.05 331.348 1018.5 330.897C1018.95 330.447 1019.2 329.837 1019.2 329.2V317.2C1019.52 317.2 1019.82 317.074 1020.05 316.849C1020.27 316.624 1020.4 316.319 1020.4 316C1020.4 315.682 1020.27 315.377 1020.05 315.152C1019.82 314.927 1019.52 314.8 1019.2 314.8H1015.14L1014.27 313.064C1014.17 312.865 1014.02 312.697 1013.83 312.58C1013.64 312.463 1013.42 312.401 1013.2 312.4H1010.8ZM1008.4 319.6C1008.4 319.282 1008.53 318.977 1008.75 318.752C1008.98 318.527 1009.28 318.4 1009.6 318.4C1009.92 318.4 1010.22 318.527 1010.45 318.752C1010.67 318.977 1010.8 319.282 1010.8 319.6V326.8C1010.8 327.119 1010.67 327.424 1010.45 327.649C1010.22 327.874 1009.92 328 1009.6 328C1009.28 328 1008.98 327.874 1008.75 327.649C1008.53 327.424 1008.4 327.119 1008.4 326.8V319.6ZM1014.4 318.4C1014.08 318.4 1013.78 318.527 1013.55 318.752C1013.33 318.977 1013.2 319.282 1013.2 319.6V326.8C1013.2 327.119 1013.33 327.424 1013.55 327.649C1013.78 327.874 1014.08 328 1014.4 328C1014.72 328 1015.02 327.874 1015.25 327.649C1015.47 327.424 1015.6 327.119 1015.6 326.8V319.6C1015.6 319.282 1015.47 318.977 1015.25 318.752C1015.02 318.527 1014.72 318.4 1014.4 318.4Z" fill="#F05252"/>
<path d="M972 326H970C969.47 326 968.961 325.789 968.586 325.414C968.211 325.039 968 324.53 968 324V316C968 315.47 968.211 314.961 968.586 314.586C968.961 314.211 969.47 314 970 314H978C978.53 314 979.039 314.211 979.414 314.586C979.789 314.961 980 315.47 980 316V318M974 330H982C982.53 330 983.039 329.789 983.414 329.414C983.789 329.039 984 328.53 984 328V320C984 319.47 983.789 318.961 983.414 318.586C983.039 318.211 982.53 318 982 318H974C973.47 318 972.961 318.211 972.586 318.586C972.211 318.961 972 319.47 972 320V328C972 328.53 972.211 329.039 972.586 329.414C972.961 329.789 973.47 330 974 330Z" stroke="#6B7280" stroke-width="2" stroke-linecap="round" stroke-linejoin="round"/>
<rect width="24" height="24" transform="translate(928 310)" fill="white"/>
<path d="M935.209 315.369L935.209 315.369C935.523 315.561 935.878 315.675 936.245 315.703C936.612 315.732 936.981 315.673 937.321 315.532C937.661 315.391 937.963 315.172 938.202 314.892C938.441 314.612 938.611 314.28 938.698 313.923C939.025 312.581 940.91 312.56 941.286 313.86L941.301 313.923C941.388 314.281 941.558 314.614 941.797 314.893C942.037 315.173 942.339 315.392 942.679 315.533C943.019 315.674 943.388 315.733 943.755 315.704C944.122 315.676 944.477 315.561 944.792 315.369C945.99 314.639 947.362 316.01 946.632 317.209C946.44 317.523 946.325 317.878 946.296 318.245C946.268 318.613 946.326 318.981 946.467 319.321C946.608 319.662 946.827 319.964 947.107 320.203C947.387 320.443 947.719 320.613 948.077 320.7L948.077 320.7C949.44 321.03 949.441 322.97 948.077 323.301L948.077 323.301C947.719 323.388 947.387 323.558 947.107 323.798C946.828 324.037 946.609 324.34 946.468 324.68C946.327 325.02 946.269 325.388 946.297 325.755C946.325 326.122 946.44 326.477 946.631 326.792L946.632 326.792C947.362 327.991 945.99 329.362 944.791 328.632L944.791 328.632C944.477 328.44 944.122 328.326 943.755 328.297C943.388 328.269 943.019 328.327 942.679 328.468C942.339 328.609 942.037 328.828 941.798 329.108C941.558 329.387 941.388 329.719 941.301 330.077L941.301 330.078C940.971 331.44 939.03 331.442 938.699 330.077C938.612 329.719 938.442 329.387 938.203 329.107C937.964 328.828 937.661 328.608 937.321 328.468C936.981 328.327 936.612 328.268 936.245 328.297C935.878 328.325 935.523 328.44 935.208 328.632C934.01 329.362 932.638 327.99 933.369 326.792C933.56 326.477 933.675 326.122 933.704 325.755C933.732 325.388 933.674 325.02 933.533 324.679C933.392 324.339 933.173 324.037 932.893 323.797C932.613 323.558 932.281 323.388 931.923 323.301L931.923 323.301C930.56 322.971 930.559 321.031 931.923 320.699L931.923 320.699C933.462 320.326 934.193 318.561 933.369 317.209C932.638 316.01 934.01 314.639 935.209 315.369ZM940 326.1C941.087 326.1 942.13 325.668 942.899 324.9C943.668 324.131 944.1 323.088 944.1 322C944.1 320.913 943.668 319.87 942.899 319.101C942.13 318.332 941.087 317.9 940 317.9C938.913 317.9 937.87 318.332 937.101 319.101C936.332 319.87 935.9 320.913 935.9 322C935.9 323.088 936.332 324.131 937.101 324.9C937.87 325.668 938.913 326.1 940 326.1Z" fill="#71717A" stroke="#6B7280"/>
<defs>
<filter id="filter0_dd_155_19629" x="0" y="0" width="1047" height="358" filterUnits="userSpaceOnUse" color-interpolation-filters="sRGB">
<feFlood flood-opacity="0" result="BackgroundImageFix"/>
<feColorMatrix in="SourceAlpha" type="matrix" values="0 0 0 0 0 0 0 0 0 0 0 0 0 0 0 0 0 0 127 0" result="hardAlpha"/>
<feOffset dy="1"/>
<feGaussianBlur stdDeviation="1.5"/>
<feColorMatrix type="matrix" values="0 0 0 0 0 0 0 0 0 0 0 0 0 0 0 0 0 0 0.1 0"/>
<feBlend mode="normal" in2="BackgroundImageFix" result="effect1_dropShadow_155_19629"/>
<feColorMatrix in="SourceAlpha" type="matrix" values="0 0 0 0 0 0 0 0 0 0 0 0 0 0 0 0 0 0 127 0" result="hardAlpha"/>
<feOffset dy="1"/>
<feGaussianBlur stdDeviation="1"/>
<feColorMatrix type="matrix" values="0 0 0 0 0 0 0 0 0 0 0 0 0 0 0 0 0 0 0.06 0"/>
<feBlend mode="normal" in2="effect1_dropShadow_155_19629" result="effect2_dropShadow_155_19629"/>
<feBlend mode="normal" in="SourceGraphic" in2="effect2_dropShadow_155_19629" result="shape"/>
</filter>
</defs>
</svg>
