
<svg width="1047" height="173" viewBox="0 0 1047 173" fill="none" xmlns="http://www.w3.org/2000/svg">
<g filter="url(#filter0_dd_155_19669)">
<rect x="3" y="2" width="1041" height="167" rx="16" fill="white"/>
</g>
<path d="M18 37C18 30.3726 23.3726 25 30 25H87C93.6274 25 99 30.3726 99 37V52C99 58.6274 93.6274 64 87 64H30C23.3726 64 18 58.6274 18 52V37Z" fill="white"/>
<path d="M40.0697 50.1939C39.251 50.1939 38.5484 49.9867 37.9617 49.5724C37.3784 49.1548 36.9293 48.5533 36.6144 47.7678C36.3029 46.9789 36.1471 46.0294 36.1471 44.919C36.1504 43.8087 36.3079 42.8641 36.6194 42.0852C36.9343 41.303 37.3834 40.7064 37.9667 40.2955C38.5534 39.8845 39.2544 39.679 40.0697 39.679C40.885 39.679 41.586 39.8845 42.1727 40.2955C42.7593 40.7064 43.2084 41.303 43.52 42.0852C43.8348 42.8674 43.9923 43.812 43.9923 44.919C43.9923 46.0327 43.8348 46.9839 43.52 47.7727C43.2084 48.5582 42.7593 49.1581 42.1727 49.5724C41.5893 49.9867 40.8883 50.1939 40.0697 50.1939ZM40.0697 48.6378C40.7061 48.6378 41.2082 48.3246 41.5761 47.6982C41.9473 47.0684 42.1329 46.142 42.1329 44.919C42.1329 44.1103 42.0484 43.4309 41.8794 42.8807C41.7103 42.3305 41.4717 41.9162 41.1634 41.6378C40.8552 41.3561 40.4906 41.2152 40.0697 41.2152C39.4366 41.2152 38.9362 41.5301 38.5683 42.1598C38.2004 42.7862 38.0148 43.706 38.0115 44.919C38.0081 45.7311 38.0893 46.4138 38.2551 46.9673C38.4241 47.5208 38.6627 47.9384 38.971 48.2202C39.2792 48.4986 39.6454 48.6378 40.0697 48.6378ZM49.1839 50.1392C48.521 50.1392 47.9277 50.0149 47.404 49.7663C46.8804 49.5144 46.4644 49.1697 46.1562 48.7322C45.8512 48.2947 45.6888 47.7943 45.6689 47.2308H47.4587C47.4919 47.6484 47.6725 47.9898 48.0006 48.255C48.3287 48.5168 48.7232 48.6477 49.1839 48.6477C49.5451 48.6477 49.8666 48.5649 50.1483 48.3991C50.4301 48.2334 50.6521 48.0031 50.8145 47.7081C50.9769 47.4131 51.0565 47.0767 51.0532 46.6989C51.0565 46.3144 50.9753 45.973 50.8096 45.6747C50.6439 45.3764 50.4168 45.1428 50.1285 44.9737C49.8401 44.8014 49.5087 44.7152 49.1341 44.7152C48.8292 44.7119 48.5293 44.7682 48.2343 44.8842C47.9393 45.0002 47.7056 45.1527 47.5333 45.3416L45.8678 45.0682L46.3998 39.8182H52.306V41.3594H47.926L47.6327 44.0589H47.6924C47.8813 43.8369 48.1481 43.6529 48.4928 43.5071C48.8375 43.358 49.2153 43.2834 49.6263 43.2834C50.2428 43.2834 50.793 43.4292 51.2769 43.7209C51.7608 44.0092 52.142 44.407 52.4204 44.9141C52.6988 45.4212 52.838 46.0012 52.838 46.6541C52.838 47.3269 52.6822 47.9268 52.3706 48.4538C52.0624 48.9775 51.6332 49.3902 51.083 49.6918C50.5361 49.9901 49.9031 50.1392 49.1839 50.1392Z" fill="#111928"/>
<path fill-rule="evenodd" clip-rule="evenodd" d="M80 39.5V47.5C80 48.0304 79.7893 48.5391 79.4142 48.9142C79.0391 49.2893 78.5304 49.5 78 49.5H73L68 53.5V49.5H66C65.4696 49.5 64.9609 49.2893 64.5858 48.9142C64.2107 48.5391 64 48.0304 64 47.5V39.5C64 38.9696 64.2107 38.4609 64.5858 38.0858C64.9609 37.7107 65.4696 37.5 66 37.5H78C78.5304 37.5 79.0391 37.7107 79.4142 38.0858C79.7893 38.4609 80 38.9696 80 39.5ZM69 42.5H67V44.5H69V42.5ZM71 42.5H73V44.5H71V42.5ZM77 42.5H75V44.5H77V42.5Z" fill="#111928"/>
<path d="M30 25.5H87V24.5H30V25.5ZM98.5 37V52H99.5V37H98.5ZM87 63.5H30V64.5H87V63.5ZM18.5 52V37H17.5V52H18.5ZM30 63.5C23.6487 63.5 18.5 58.3513 18.5 52H17.5C17.5 58.9036 23.0964 64.5 30 64.5V63.5ZM98.5 52C98.5 58.3513 93.3513 63.5 87 63.5V64.5C93.9036 64.5 99.5 58.9036 99.5 52H98.5ZM87 25.5C93.3513 25.5 98.5 30.6487 98.5 37H99.5C99.5 30.0964 93.9036 24.5 87 24.5V25.5ZM30 24.5C23.0964 24.5 17.5 30.0964 17.5 37H18.5C18.5 30.6487 23.6487 25.5 30 25.5V24.5Z" fill="#D1D5DB"/>
<path d="M118 38C118 29.1634 125.163 22 134 22H1008C1016.84 22 1024 29.1634 1024 38V50C1024 58.8366 1016.84 66 1008 66H134C125.163 66 118 58.8366 118 50V38Z" fill="#F9FAFB"/>
<path d="M138.773 39.6136V38.3636H147.5V39.6136H143.841V50H142.432V39.6136H138.773ZM149.357 53.2727C149.129 53.2727 148.927 53.2538 148.749 53.2159C148.571 53.1818 148.447 53.1477 148.379 53.1136L148.72 51.9318C149.046 52.0152 149.334 52.0455 149.584 52.0227C149.834 52 150.055 51.8883 150.249 51.6875C150.446 51.4905 150.625 51.1705 150.788 50.7273L151.038 50.0455L147.811 41.2727H149.266L151.675 48.2273H151.766L154.175 41.2727H155.629L151.925 51.2727C151.758 51.7235 151.552 52.0966 151.305 52.392C151.059 52.6913 150.773 52.9129 150.447 53.0568C150.125 53.2008 149.762 53.2727 149.357 53.2727ZM157.399 53.2727V41.2727H158.695V42.6591H158.854C158.952 42.5076 159.089 42.3144 159.263 42.0795C159.441 41.8409 159.695 41.6288 160.024 41.4432C160.357 41.2538 160.808 41.1591 161.376 41.1591C162.111 41.1591 162.759 41.3428 163.32 41.7102C163.88 42.0777 164.318 42.5985 164.632 43.2727C164.946 43.947 165.104 44.7424 165.104 45.6591C165.104 46.5833 164.946 47.3845 164.632 48.0625C164.318 48.7367 163.882 49.2595 163.325 49.6307C162.768 49.9981 162.126 50.1818 161.399 50.1818C160.839 50.1818 160.39 50.089 160.053 49.9034C159.715 49.714 159.456 49.5 159.274 49.2614C159.092 49.0189 158.952 48.8182 158.854 48.6591H158.74V53.2727H157.399ZM158.717 45.6364C158.717 46.2955 158.814 46.8769 159.007 47.3807C159.2 47.8807 159.482 48.2727 159.854 48.5568C160.225 48.8371 160.679 48.9773 161.217 48.9773C161.778 48.9773 162.246 48.8295 162.621 48.5341C163 48.2348 163.284 47.8333 163.473 47.3295C163.666 46.822 163.763 46.2576 163.763 45.6364C163.763 45.0227 163.668 44.4697 163.479 43.9773C163.293 43.4811 163.011 43.089 162.632 42.8011C162.257 42.5095 161.786 42.3636 161.217 42.3636C160.672 42.3636 160.214 42.5019 159.842 42.7784C159.471 43.0511 159.191 43.4337 159.001 43.9261C158.812 44.4148 158.717 44.9848 158.717 45.6364ZM170.808 50.1818C169.967 50.1818 169.242 49.9962 168.632 49.625C168.026 49.25 167.558 48.7273 167.229 48.0568C166.903 47.3826 166.74 46.5985 166.74 45.7045C166.74 44.8106 166.903 44.0227 167.229 43.3409C167.558 42.6553 168.017 42.1212 168.604 41.7386C169.195 41.3523 169.884 41.1591 170.672 41.1591C171.126 41.1591 171.575 41.2348 172.018 41.3864C172.462 41.5379 172.865 41.7841 173.229 42.125C173.592 42.4621 173.882 42.9091 174.098 43.4659C174.314 44.0227 174.422 44.7083 174.422 45.5227V46.0909H167.695V44.9318H173.058C173.058 44.4394 172.96 44 172.763 43.6136C172.57 43.2273 172.293 42.9223 171.933 42.6989C171.577 42.4754 171.157 42.3636 170.672 42.3636C170.138 42.3636 169.676 42.4962 169.286 42.7614C168.899 43.0227 168.602 43.3636 168.393 43.7841C168.185 44.2045 168.081 44.6553 168.081 45.1364V45.9091C168.081 46.5682 168.195 47.1269 168.422 47.5852C168.653 48.0398 168.973 48.3864 169.382 48.625C169.791 48.8598 170.267 48.9773 170.808 48.9773C171.161 48.9773 171.479 48.928 171.763 48.8295C172.051 48.7273 172.299 48.5758 172.507 48.375C172.715 48.1705 172.876 47.9167 172.99 47.6136L174.286 47.9773C174.149 48.4167 173.92 48.803 173.598 49.1364C173.276 49.4659 172.878 49.7235 172.405 49.9091C171.931 50.0909 171.399 50.1818 170.808 50.1818ZM182.303 44.75V50H180.962V38.3636H182.303V42.6364H182.416C182.621 42.1856 182.928 41.8277 183.337 41.5625C183.75 41.2936 184.299 41.1591 184.984 41.1591C185.579 41.1591 186.1 41.2784 186.547 41.517C186.994 41.7519 187.34 42.1136 187.587 42.6023C187.837 43.0871 187.962 43.7045 187.962 44.4545V50H186.621V44.5455C186.621 43.8523 186.441 43.3163 186.081 42.9375C185.725 42.5549 185.231 42.3636 184.598 42.3636C184.159 42.3636 183.765 42.4564 183.416 42.642C183.071 42.8277 182.799 43.0985 182.598 43.4545C182.401 43.8106 182.303 44.2424 182.303 44.75ZM194.074 50.1818C193.233 50.1818 192.508 49.9962 191.898 49.625C191.292 49.25 190.824 48.7273 190.494 48.0568C190.169 47.3826 190.006 46.5985 190.006 45.7045C190.006 44.8106 190.169 44.0227 190.494 43.3409C190.824 42.6553 191.282 42.1212 191.869 41.7386C192.46 41.3523 193.15 41.1591 193.938 41.1591C194.392 41.1591 194.841 41.2348 195.284 41.3864C195.727 41.5379 196.131 41.7841 196.494 42.125C196.858 42.4621 197.148 42.9091 197.364 43.4659C197.58 44.0227 197.688 44.7083 197.688 45.5227V46.0909H190.96V44.9318H196.324C196.324 44.4394 196.225 44 196.028 43.6136C195.835 43.2273 195.559 42.9223 195.199 42.6989C194.843 42.4754 194.422 42.3636 193.938 42.3636C193.403 42.3636 192.941 42.4962 192.551 42.7614C192.165 43.0227 191.867 43.3636 191.659 43.7841C191.451 44.2045 191.347 44.6553 191.347 45.1364V45.9091C191.347 46.5682 191.46 47.1269 191.688 47.5852C191.919 48.0398 192.239 48.3864 192.648 48.625C193.057 48.8598 193.532 48.9773 194.074 48.9773C194.426 48.9773 194.744 48.928 195.028 48.8295C195.316 48.7273 195.564 48.5758 195.773 48.375C195.981 48.1705 196.142 47.9167 196.256 47.6136L197.551 47.9773C197.415 48.4167 197.186 48.803 196.864 49.1364C196.542 49.4659 196.144 49.7235 195.67 49.9091C195.197 50.0909 194.665 50.1818 194.074 50.1818ZM199.727 50V41.2727H201.023V42.5909H201.114C201.273 42.1591 201.561 41.8087 201.977 41.5398C202.394 41.2708 202.864 41.1364 203.386 41.1364C203.485 41.1364 203.608 41.1383 203.756 41.142C203.903 41.1458 204.015 41.1515 204.091 41.1591V42.5227C204.045 42.5114 203.941 42.4943 203.778 42.4716C203.619 42.4451 203.451 42.4318 203.273 42.4318C202.848 42.4318 202.47 42.5208 202.136 42.6989C201.807 42.8731 201.545 43.1155 201.352 43.4261C201.163 43.733 201.068 44.0833 201.068 44.4773V50H199.727ZM209.074 50.1818C208.233 50.1818 207.508 49.9962 206.898 49.625C206.292 49.25 205.824 48.7273 205.494 48.0568C205.169 47.3826 205.006 46.5985 205.006 45.7045C205.006 44.8106 205.169 44.0227 205.494 43.3409C205.824 42.6553 206.282 42.1212 206.869 41.7386C207.46 41.3523 208.15 41.1591 208.938 41.1591C209.392 41.1591 209.841 41.2348 210.284 41.3864C210.727 41.5379 211.131 41.7841 211.494 42.125C211.858 42.4621 212.148 42.9091 212.364 43.4659C212.58 44.0227 212.688 44.7083 212.688 45.5227V46.0909H205.96V44.9318H211.324C211.324 44.4394 211.225 44 211.028 43.6136C210.835 43.2273 210.559 42.9223 210.199 42.6989C209.843 42.4754 209.422 42.3636 208.938 42.3636C208.403 42.3636 207.941 42.4962 207.551 42.7614C207.165 43.0227 206.867 43.3636 206.659 43.7841C206.451 44.2045 206.347 44.6553 206.347 45.1364V45.9091C206.347 46.5682 206.46 47.1269 206.688 47.5852C206.919 48.0398 207.239 48.3864 207.648 48.625C208.057 48.8598 208.532 48.9773 209.074 48.9773C209.426 48.9773 209.744 48.928 210.028 48.8295C210.316 48.7273 210.564 48.5758 210.773 48.375C210.981 48.1705 211.142 47.9167 211.256 47.6136L212.551 47.9773C212.415 48.4167 212.186 48.803 211.864 49.1364C211.542 49.4659 211.144 49.7235 210.67 49.9091C210.197 50.0909 209.665 50.1818 209.074 50.1818Z" fill="#9CA3AF"/>
<path d="M134 23H1008V21H134V23ZM1023 38V50H1025V38H1023ZM1008 65H134V67H1008V65ZM119 50V38H117V50H119ZM134 65C125.716 65 119 58.2843 119 50H117C117 59.3888 124.611 67 134 67V65ZM1023 50C1023 58.2843 1016.28 65 1008 65V67C1017.39 67 1025 59.3888 1025 50H1023ZM1008 23C1016.28 23 1023 29.7157 1023 38H1025C1025 28.6112 1017.39 21 1008 21V23ZM134 21C124.611 21 117 28.6112 117 38H119C119 29.7157 125.716 23 134 23V21Z" fill="#E5E7EB"/>
<path fill-rule="evenodd" clip-rule="evenodd" d="M1010.8 127.4C1010.58 127.401 1010.36 127.463 1010.17 127.58C1009.98 127.697 1009.83 127.865 1009.73 128.064L1008.86 129.8H1004.8C1004.48 129.8 1004.18 129.927 1003.95 130.152C1003.73 130.377 1003.6 130.682 1003.6 131C1003.6 131.319 1003.73 131.624 1003.95 131.849C1004.18 132.074 1004.48 132.2 1004.8 132.2V144.2C1004.8 144.837 1005.05 145.447 1005.5 145.897C1005.95 146.348 1006.56 146.6 1007.2 146.6H1016.8C1017.44 146.6 1018.05 146.348 1018.5 145.897C1018.95 145.447 1019.2 144.837 1019.2 144.2V132.2C1019.52 132.2 1019.82 132.074 1020.05 131.849C1020.27 131.624 1020.4 131.319 1020.4 131C1020.4 130.682 1020.27 130.377 1020.05 130.152C1019.82 129.927 1019.52 129.8 1019.2 129.8H1015.14L1014.27 128.064C1014.17 127.865 1014.02 127.697 1013.83 127.58C1013.64 127.463 1013.42 127.401 1013.2 127.4H1010.8ZM1008.4 134.6C1008.4 134.282 1008.53 133.977 1008.75 133.752C1008.98 133.527 1009.28 133.4 1009.6 133.4C1009.92 133.4 1010.22 133.527 1010.45 133.752C1010.67 133.977 1010.8 134.282 1010.8 134.6V141.8C1010.8 142.119 1010.67 142.424 1010.45 142.649C1010.22 142.874 1009.92 143 1009.6 143C1009.28 143 1008.98 142.874 1008.75 142.649C1008.53 142.424 1008.4 142.119 1008.4 141.8V134.6ZM1014.4 133.4C1014.08 133.4 1013.78 133.527 1013.55 133.752C1013.33 133.977 1013.2 134.282 1013.2 134.6V141.8C1013.2 142.119 1013.33 142.424 1013.55 142.649C1013.78 142.874 1014.08 143 1014.4 143C1014.72 143 1015.02 142.874 1015.25 142.649C1015.47 142.424 1015.6 142.119 1015.6 141.8V134.6C1015.6 134.282 1015.47 133.977 1015.25 133.752C1015.02 133.527 1014.72 133.4 1014.4 133.4Z" fill="#F05252"/>
<path d="M972 141H970C969.47 141 968.961 140.789 968.586 140.414C968.211 140.039 968 139.53 968 139V131C968 130.47 968.211 129.961 968.586 129.586C968.961 129.211 969.47 129 970 129H978C978.53 129 979.039 129.211 979.414 129.586C979.789 129.961 980 130.47 980 131V133M974 145H982C982.53 145 983.039 144.789 983.414 144.414C983.789 144.039 984 143.53 984 143V135C984 134.47 983.789 133.961 983.414 133.586C983.039 133.211 982.53 133 982 133H974C973.47 133 972.961 133.211 972.586 133.586C972.211 133.961 972 134.47 972 135V143C972 143.53 972.211 144.039 972.586 144.414C972.961 144.789 973.47 145 974 145Z" stroke="#6B7280" stroke-width="2" stroke-linecap="round" stroke-linejoin="round"/>
<rect width="24" height="24" transform="translate(928 125)" fill="white"/>
<path d="M935.209 130.369L935.209 130.369C934.01 129.639 932.638 131.01 933.369 132.209L935.209 130.369ZM935.209 130.369C935.523 130.561 935.878 130.675 936.245 130.703C936.612 130.732 936.981 130.673 937.321 130.532C937.661 130.391 937.963 130.172 938.202 129.892C938.441 129.612 938.611 129.28 938.698 128.923C939.025 127.581 940.91 127.56 941.286 128.86L941.301 128.923C941.388 129.281 941.558 129.614 941.797 129.893L942.177 129.568L941.797 129.893C942.037 130.173 942.339 130.392 942.679 130.533C943.019 130.674 943.388 130.733 943.755 130.704C944.122 130.676 944.477 130.561 944.791 130.369C945.99 129.639 947.362 131.01 946.632 132.209C946.44 132.523 946.325 132.878 946.296 133.245C946.268 133.613 946.326 133.981 946.467 134.321C946.608 134.662 946.827 134.964 947.107 135.203L947.432 134.824L947.107 135.203C947.387 135.443 947.719 135.613 948.077 135.7L948.077 135.7C949.44 136.03 949.441 137.97 948.077 138.301L948.077 138.301C947.719 138.388 947.387 138.558 947.107 138.798C946.828 139.037 946.609 139.34 946.468 139.68C946.327 140.02 946.269 140.388 946.297 140.755C946.325 141.122 946.44 141.477 946.631 141.792L946.632 141.792C947.362 142.991 945.99 144.362 944.791 143.632L944.791 143.632C944.477 143.44 944.122 143.326 943.755 143.297C943.388 143.269 943.019 143.327 942.679 143.468C942.339 143.609 942.037 143.828 941.798 144.108C941.558 144.387 941.388 144.719 941.301 145.077L941.301 145.078C940.971 146.44 939.03 146.442 938.699 145.077C938.612 144.719 938.442 144.387 938.203 144.107C937.964 143.828 937.661 143.608 937.321 143.468C936.981 143.327 936.612 143.268 936.245 143.297C935.878 143.325 935.523 143.44 935.208 143.632C934.01 144.362 932.638 142.99 933.369 141.792C933.56 141.477 933.675 141.122 933.704 140.755C933.732 140.388 933.674 140.02 933.533 139.679C933.392 139.339 933.173 139.037 932.893 138.797L932.588 139.153L932.893 138.797C932.613 138.558 932.281 138.388 931.923 138.301L931.923 138.301C930.56 137.971 930.559 136.031 931.923 135.699L931.923 135.699M935.209 130.369L931.923 135.699M931.923 135.699C933.462 135.326 934.193 133.561 933.369 132.209L931.923 135.699ZM940 141.1C941.087 141.1 942.13 140.668 942.899 139.9C943.668 139.131 944.1 138.088 944.1 137C944.1 135.913 943.668 134.87 942.899 134.101C942.13 133.332 941.087 132.9 940 132.9C938.913 132.9 937.87 133.332 937.101 134.101C936.332 134.87 935.9 135.913 935.9 137C935.9 138.088 936.332 139.131 937.101 139.9C937.87 140.668 938.913 141.1 940 141.1Z" fill="#71717A" stroke="#6B7280"/>
<defs>
<filter id="filter0_dd_155_19669" x="0" y="0" width="1047" height="173" filterUnits="userSpaceOnUse" color-interpolation-filters="sRGB">
<feFlood flood-opacity="0" result="BackgroundImageFix"/>
<feColorMatrix in="SourceAlpha" type="matrix" values="0 0 0 0 0 0 0 0 0 0 0 0 0 0 0 0 0 0 127 0" result="hardAlpha"/>
<feOffset dy="1"/>
<feGaussianBlur stdDeviation="1.5"/>
<feColorMatrix type="matrix" values="0 0 0 0 0 0 0 0 0 0 0 0 0 0 0 0 0 0 0.1 0"/>
<feBlend mode="normal" in2="BackgroundImageFix" result="effect1_dropShadow_155_19669"/>
<feColorMatrix in="SourceAlpha" type="matrix" values="0 0 0 0 0 0 0 0 0 0 0 0 0 0 0 0 0 0 127 0" result="hardAlpha"/>
<feOffset dy="1"/>
<feGaussianBlur stdDeviation="1"/>
<feColorMatrix type="matrix" values="0 0 0 0 0 0 0 0 0 0 0 0 0 0 0 0 0 0 0.06 0"/>
<feBlend mode="normal" in2="effect1_dropShadow_155_19669" result="effect2_dropShadow_155_19669"/>
<feBlend mode="normal" in="SourceGraphic" in2="effect2_dropShadow_155_19669" result="shape"/>
</filter>
</defs>
</svg>
